<svg width="81" height="60" viewBox="0 0 81 60" fill="none" xmlns="http://www.w3.org/2000/svg">
<g clip-path="url(#clip0_1045_6421)">
<path d="M0.880859 0H80.8809V60H0.880859V0Z" fill="#012169"/>
<path d="M10.2559 0L40.7559 22.625L71.1309 0H80.8809V7.75L50.8809 30.125L80.8809 52.375V60H70.8809L40.8809 37.625L11.0059 60H0.880859V52.5L30.7559 30.25L0.880859 8V0H10.2559Z" fill="white"/>
<path d="M53.8809 35.125L80.8809 55V60L47.0059 35.125H53.8809ZM30.8809 37.625L31.6309 42L7.63086 60H0.880859L30.8809 37.625ZM80.8809 0V0.375L49.7559 23.875L50.0059 18.375L74.6309 0H80.8809ZM0.880859 0L30.7559 22H23.2559L0.880859 5.25V0Z" fill="#C8102E"/>
<path d="M31.0059 0V60H51.0059V0H31.0059ZM0.880859 20V40H80.8809V20H0.880859Z" fill="white"/>
<path d="M0.880859 24.125V36.125H80.8809V24.125H0.880859ZM35.0059 0V60H47.0059V0H35.0059Z" fill="#C8102E"/>
</g>
<defs>
<clipPath id="clip0_1045_6421">
<rect width="80" height="60" fill="white" transform="translate(0.880859)"/>
</clipPath>
</defs>
</svg>
