<svg fill="none" height="500" viewBox="0 0 500 500" width="500" xmlns="http://www.w3.org/2000/svg"><circle cx="250" cy="250" fill="#000" r="250"/><g fill="#fff"><path d="m376.587 172.245h-40.704c-4.742 0-9.254-2.035-12.393-5.578l-16.512-18.653c-2.458-2.784-6-4.368-9.706-4.368s-7.248 1.594-9.706 4.368l-14.16 16.004c-4.636 5.232-11.289 8.236-18.278 8.236h-222.8063c-6.3456 18.087-10.4832 37.191-12.1344 57.005h210.3357c3.696 0 7.239-1.507 9.792-4.176l19.584-20.438c2.448-2.554 5.827-3.994 9.36-3.994h.807c3.715 0 7.248 1.594 9.705 4.378l16.503 18.653c3.139 3.552 7.651 5.577 12.393 5.577h171.687c-1.652-19.824-5.789-38.928-12.135-57.005h-91.641z"/><path d="m147.464 349.134c3.696 0 7.238-1.507 9.792-4.176l19.584-20.438c2.448-2.554 5.827-3.994 9.36-3.994h.806c3.716 0 7.248 1.594 9.706 4.368l16.502 18.653c3.14 3.552 7.652 5.578 12.394 5.578h232.666c8.716-18.01 15.1-37.335 18.902-57.581h-223.325c-4.742 0-9.254-2.035-12.393-5.578l-16.503-18.652c-2.457-2.784-6-4.368-9.705-4.368-3.706 0-7.248 1.593-9.706 4.368l-14.16 16.003c-4.637 5.232-11.29 8.237-18.288 8.237h-149.7408c3.8016 20.246 10.1952 39.571 18.9024 57.58z"/><path d="m312.526 109.95c3.696 0 7.239-1.507 9.792-4.176l19.584-20.438c2.448-2.5536 5.828-3.9936 9.36-3.9936h.807c3.715 0 7.248 1.5936 9.705 4.3776l16.503 18.653c3.139 3.552 7.651 5.577 12.393 5.577h44.247c-42.135-56.006-109.152-92.2364-184.647-92.2364-75.494 0-142.512 36.2304-184.646 92.2364z"/><path d="m223.659 406.197h-60.509c-4.742 0-9.254-2.035-12.393-5.578l-16.503-18.653c-2.457-2.784-6-4.368-9.705-4.368-3.706 0-7.248 1.594-9.706 4.368l-14.16 16.004c-4.6367 5.232-11.2895 8.236-18.2879 8.236h-.9408c42.1537 45.168 102.1827 73.44 168.8357 73.44 66.652 0 126.672-28.272 168.835-73.44h-195.466z"/></g></svg>