<svg xmlns="http://www.w3.org/2000/svg" width="96" height="96" fill="none"><path fill="#fff" d="M0 0h96v96H0z"/><mask id="a" width="16" height="16" x="40" y="67" maskUnits="userSpaceOnUse" style="mask-type:luminance"><path fill="#fff" d="m48 82.5-7.5-15h15z"/></mask><g mask="url(#a)"><path fill="#32FEFF" fill-rule="evenodd" d="M36.75 86.25h22.5v-22.5h-22.5z" clip-rule="evenodd"/></g><mask id="b" width="52" height="51" x="22" y="21" maskUnits="userSpaceOnUse" style="mask-type:luminance"><path fill="#fff" d="M48 41.487 34.588 70.322c-.443.924-.673 1.674-1.648 1.674L24.081 72c-1.27 0-1.97-.331-1.354-1.674L44.39 23.112c.442-.785.717-1.362 1.693-1.362h3.835c.975 0 1.25.577 1.693 1.362l21.661 47.214C73.89 71.669 73.189 72 71.919 72l-8.859-.004c-.975 0-1.205-.75-1.648-1.674z"/></mask><g mask="url(#b)"><path fill="#17181D" fill-rule="evenodd" d="M18.75 75.75h58.5V18h-58.5z" clip-rule="evenodd"/></g></svg>
