<svg height="120" viewBox="0 0 120 120" width="120" xmlns="http://www.w3.org/2000/svg" xmlns:xlink="http://www.w3.org/1999/xlink"><g transform="matrix(.16666667 0 0 .16666667 -24.999999 -24.999999)"><a xlink:href="21.0149019607843"><circle cx="510" cy="510" fill="#adff00" r="360"/></a><path d="m470 504.33v-6.61c9.8-8.79 15.98-21.53 15.98-35.73v-58c0-34.24-27.76-62-62-62h-129.98v336h152c35.35 0 64-28.65 64-64v-56c0-25.37-16.87-46.77-40-53.66zm-128-114.33h72c13.25 0 24 10.75 24 24v48c0 13.25-10.75 24-24 24h-72zm120 216c0 13.25-10.75 24-24 24h-96v-96h96c13.25 0 24 10.75 24 24zm120-264h-48v48h48zm144 96v48h-48v144h48v48h-96v-192h-48v192h-48v-240h96v-96h48v96z" fill-rule="evenodd"/></g></svg>