<svg height="32" viewBox="0 0 32 32" width="32" xmlns="http://www.w3.org/2000/svg"><g fill="none" fill-rule="evenodd"><circle cx="16" cy="16" fill="#cd0124" fill-rule="nonzero" r="16"/><path d="m23.319 7.25c.652 0 1.181.546 1.181 1.22s-.529 1.22-1.181 1.22l-.073-.001-2.544 6.192c.145.203.231.454.231.725 0 .62-.447 1.132-1.026 1.21l-2.623 6.385c.195.217.314.509.314.829 0 .674-.529 1.22-1.181 1.22s-1.181-.546-1.181-1.22c0-.324.121-.618.32-.836l-3.007-6.371-.07.004c-.611 0-1.114-.48-1.175-1.096l-.006-.125c0-.309.112-.591.295-.807l-2.883-6.109-.028.002c-.611 0-1.114-.48-1.175-1.096l-.007-.126c0-.674.529-1.22 1.181-1.22.497 0 .922.317 1.096.765h12.446c.174-.448.6-.765 1.096-.765zm-7.077 7.141-2.607 1.96a1.238 1.238 0 0 1 -.29 1.086l3.01 6.375.062-.003c.023 0 .047 0 .07.002l2.558-6.227a1.252 1.252 0 0 1 -.385-1.444zm-6.582-4.761 2.719 5.761.1-.005c.247 0 .475.078.664.21l2.337-1.756zm12.531.296-5.196 3.9 2.291 1.659c.108-.048.224-.08.345-.093l.121-.006c.065 0 .128.005.19.016zm-.164-1.001h-11.807l6.013 4.35z" fill="#fff"/></g></svg>