<svg id="Layer_1" xmlns="http://www.w3.org/2000/svg" width="45" height="45" version="1.1" viewBox="0 0 45 45">
  <ellipse cx="22.5" cy="22.5" rx="22.5" ry="22.1" fill="#fff"/>
  <path d="M3.2,13.3c.7-1.5,1.6-2.9,2.7-4.1,1,.2,2.2.4,3.4.7,3.6.8,8.1,1.8,13.3,1.8,5.1,0,9.6-1,13.3-1.8,1.2-.3,2.3-.5,3.3-.7,1,1.3,1.9,2.7,2.7,4.1-.4,0-.9.2-1.4.2-1.2.2-2.5.5-3.9.8-3.8.8-8.5,1.8-13.9,1.8h0c-5.4,0-10.1-1-13.9-1.8-1.4-.3-2.7-.6-3.9-.8-.5,0-1.1-.2-1.5-.3h0ZM1.2,24.8c-.2-1.5-.2-3.1,0-4.6l21.3-.4,21.3.4c0,.8.1,1.5.1,2.3s0,1.6-.1,2.3l-21.3.4s-21.3-.4-21.3-.4ZM5.9,35.8c-1-1.3-1.9-2.7-2.7-4.1.5,0,1-.2,1.5-.3,1.2-.2,2.5-.5,3.9-.8,3.8-.8,8.5-1.8,13.9-1.8h0c5.4,0,10.1,1,13.9,1.8,1.4.3,2.7.6,3.9.8.5,0,1,.2,1.4.2-.7,1.5-1.6,2.9-2.7,4.1-1-.2-2.1-.4-3.3-.7-3.6-.8-8.1-1.8-13.3-1.8-5.1,0-9.6,1-13.3,1.8-1.2.3-2.4.5-3.4.7h0ZM17.8,43c-2.2-.5-4.3-1.3-6.3-2.5,1-.3,2-.7,3-1.1,2.6-1,5.4-2.1,8.1-2.1h0c2.7,0,5.4,1.1,8.1,2.1,1,.4,1.9.7,2.9,1-1.9,1.2-4,2-6.2,2.5-1.6-.6-3.2-1.1-4.8-1.1-1.6,0-3.2.5-4.8,1.1ZM33.5,4.5c-1,.3-1.9.7-2.9,1.1-2.6,1-5.4,2.1-8.1,2.1h0c-2.7,0-5.4-1.1-8.1-2.1-1-.4-2-.8-2.9-1.1,1.9-1.1,4-2,6.2-2.5,1.6.6,3.2,1.1,4.8,1.1s3.2-.5,4.8-1.1c2.2.5,4.3,1.3,6.2,2.5Z" fill="#2d2d2d"/>
</svg>
