<svg fill="none" height="30" width="30" xmlns="http://www.w3.org/2000/svg"><path d="m14.884 29.041c7.628 0 13.811-6.184 13.811-13.812 0-7.627-6.183-13.811-13.811-13.811s-13.812 6.184-13.812 13.812c0 7.627 6.184 13.811 13.812 13.811z" fill="#070a0e"/><path d="m14.874 28.008c7.06 0 12.782-5.723 12.782-12.783 0-7.059-5.723-12.782-12.782-12.782-7.06 0-12.782 5.723-12.782 12.782 0 7.06 5.723 12.783 12.782 12.783z" fill="#070a0e"/><path clip-rule="evenodd" d="m9.05 19.86a1.392 1.392 0 0 1 -.665-1.185v-2.698a.579.579 0 0 1 .872-.5l6.09 3.55c.356.209.575.588.575 1.002v2.796a.696.696 0 0 1 -1.059.594l-5.811-3.559zm9.078-5.123c.356.209.576.589.576 1.002v5.673c0 .168-.09.323-.236.404l-1.334.75a.268.268 0 0 1 -.053.023v-3.15c0-.408-.214-.786-.565-.997l-5.348-3.2v-3.555a.579.579 0 0 1 .872-.5zm2.665-4.19c.358.207.578.59.578 1.003v8.287c0 .17-.095.326-.244.407l-1.263.683v-5.77a1.16 1.16 0 0 0 -.563-.993l-5.466-3.28v-3.371a.581.581 0 0 1 .87-.502l6.088 3.537z" fill="#00d395" fill-rule="evenodd"/></svg>