<svg width="351" height="350" fill="none" xmlns="http://www.w3.org/2000/svg"><rect x=".91" width="350.089" height="349.83" rx="102.617" fill="#0A0A0D"/><path d="m301.618 190.578-9.515-37.089c-.273-1.091-1.151-1.939-2.242-2.212l-36.756-9.06a4.018 4.018 0 0 0-.849-.091c-.878-.091-1.787.182-2.454.848l-62.028 62.028-8.212-32.059c-.272-1.091-1.151-1.94-2.242-2.212l-31.574-7.788 61.997-61.997c.364-.364.576-.818.727-1.273.273-.606.364-1.303.182-1.97l-9.515-37.089c-.272-1.09-1.151-1.94-2.242-2.212l-36.756-9.06c-.727-.182-1.455-.06-2.091.242h-.03c-.182.091-.334.212-.515.333-.152.122-.364.182-.485.334L51.204 156.004s-.182.303-.303.455c-.667.787-.909 1.818-.606 2.818l10.272 35.847c.303 1.03 1.091 1.818 2.091 2.09l34.423 9.879 9.878 34.392c.303 1.031 1.091 1.818 2.091 2.091l34.544 9.909 9.909 34.544c.303 1.03 1.091 1.818 2.091 2.091l35.998 10.333c.273.091.576.121.849.121.06 0 .121-.03.212-.03h.06c.788 0 1.576-.303 2.182-.909L300.739 193.79c.364-.363.576-.818.727-1.272.273-.606.364-1.303.182-1.97l-.03.03zm-47.453 41.12-7.727-30.15 17.121-17.091 29.423 8.455-38.786 38.816-.031-.03zm-60.027 60.028-7.727-30.151 30.968-30.968 29.423 8.454-52.664 52.665zm23.877-70.422-7.393-25.756 26.574 6.545-19.181 19.181v.03zm23.393-14.726 6.788 26.453-25.848-7.424 19.06-19.06v.031zm.879-9.545-30.12-7.424 38.695-38.696 8.364 29.181-16.939 16.939zm-37.604.03 8.363 29.181-30.817 30.817-30.12-7.424 52.574-52.574zm81.936-40.332 7.727 30.151-29.211-8.394-8.364-29.12 29.848 7.363zm-139.055 88.421-7.727-30.15 11.151-11.151 29.423 8.454-32.847 32.847zm4.06-50.604-7.393-25.757 26.574 6.546-19.181 19.181v.03zm30.181 11.757-25.848-7.424 19.06-19.06 6.788 26.454v.03zm-35.12-6.788-11 11-30.12-7.424 32.757-32.756 8.363 29.18zm-34.665-95.662 8.363 29.18-31.09 31.09-30.12-7.424 52.847-52.846zm45.907-45.908 8.363 29.181-16.666 16.666-30.12-7.424 38.423-38.423zm3.576 80.512-7.727-30.12 16.847-16.847 29.423 8.423-38.543 38.544zm-36.151-10.363-7.393-25.756 26.575 6.545-19.182 19.181v.03zm23.393-14.727 6.788 26.454-25.817-7.424 19.06-19.06-.031.03zm-23.999 23.999 29.423 8.424-52.937 52.938-7.727-30.12 31.241-31.242zm68.937-73.542 7.727 30.15-29.211-8.393-8.363-29.12 29.847 7.363zM57.658 162.67l26.575 6.546-19.181 19.181-7.394-25.757v.03zm11.727 30.09 19.06-19.06 6.788 26.454-25.818-7.424-.03.03zm42.998 45.423-8.363-29.121 29.847 7.364 7.727 30.15-29.211-8.393zm38.211 17.423 26.575 6.545-19.181 19.181-7.394-25.756v.03zm11.727 30.09 19.059-19.06 6.788 26.453-25.847-7.424v.031z" fill="#655EA8"/></svg>