<svg xmlns="http://www.w3.org/2000/svg" width="256" height="256" fill="none"><rect width="256" height="256" fill="#fff" rx="128"/><path fill="#000" d="M18 128.521c0-12.613 10.976-22.827 24.528-22.827 13.553 0 24.529-10.214 24.529-22.826S78.077 60 91.63 60c13.552 0 24.528 10.214 24.528 22.826s-10.976 22.827-24.528 22.827c-13.553 0-24.529 10.214-24.529 22.826s10.976 22.827 24.529 22.827 24.528 10.214 24.528 22.826-10.976 22.827-24.528 22.827c-13.553 0-24.529-10.214-24.529-22.827 0-12.612-10.975-22.826-24.528-22.826S18 141.133 18 128.521m220 0c0 12.612-10.976 22.826-24.528 22.826-13.553 0-24.529 10.214-24.529 22.827 0 12.612-10.975 22.826-24.528 22.826s-24.529-10.214-24.529-22.826 10.976-22.827 24.529-22.827 24.528-10.214 24.528-22.826-10.975-22.827-24.528-22.827-24.529-10.214-24.529-22.826S150.818 60 164.37 60s24.529 10.214 24.529 22.826 10.975 22.827 24.528 22.827c13.597.041 24.573 10.255 24.573 22.868"/><path fill="#000" d="M152.106 128.521c0 12.24-10.664 22.206-23.862 22.206s-23.861-9.925-23.861-22.206c0-12.241 10.664-22.206 23.861-22.206 13.153 0 23.862 9.924 23.862 22.206"/></svg>
