<svg viewBox="0 0 97.33 97.33" xmlns="http://www.w3.org/2000/svg" xmlns:xlink="http://www.w3.org/1999/xlink"><linearGradient id="a" gradientTransform="matrix(0 1 -1 0 118.33 -84.67)" gradientUnits="userSpaceOnUse" x1="84.67" x2="180.59" y1="69.67" y2="69.67"><stop offset="0" stop-color="#2e3965"/><stop offset="1" stop-color="#2e3965"/></linearGradient><linearGradient id="b" gradientTransform="matrix(0 1 -1 0 140.4 52.1)" gradientUnits="userSpaceOnUse" x1="-48.77" x2="41.9" y1="91.74" y2="91.74"><stop offset="0" stop-color="#2c3761"/><stop offset="1" stop-color="#15203a"/></linearGradient><circle cx="48.67" cy="48.67" fill="url(#a)" r="48.67"/><circle cx="48.67" cy="48.67" fill="url(#b)" r="45.33"/><path d="m23.67 21.39c5.51 2.27 11 4.65 16.5 6.88 5.21.07 10.42 0 15.63 0a5 5 0 0 0 2.07-.6c5.27-2.07 10.52-4.2 15.8-6.24-1.24 7.57-2.53 15.04-3.75 22.57 1 4.11 2.21 8.19 3.29 12.28-3.12 2-6.29 3.86-9.43 5.8a48.65 48.65 0 0 0 -8 6.2c-2.54 2.37-4.7 5.11-7 7.68-2.34-2.59-4.52-5.34-7.1-7.71a48.64 48.64 0 0 0 -8.09-6.13c-3.23-2-6.5-3.87-9.73-5.84 1.16-3.92 2.31-7.86 3.47-11.78a1.61 1.61 0 0 0 .08-.81q-1.91-11.15-3.74-22.3m3.67 4.61c.78 4.86 1.6 9.71 2.4 14.56 2.66-3.36 5.26-6.79 7.88-10.23-3.42-1.44-6.85-2.89-10.28-4.3m31.66 4.3c2.85 3.37 5.7 6.74 8.59 10.08.82-4.81 1.64-9.62 2.41-14.41-3.67 1.43-7.33 2.9-11 4.36m-20.2 3.16c-2.34 3.07-4.7 6.11-7 9.19h34c-3.31-3.87-6.57-7.71-9.8-11.54-5.09 0-10.18 0-15.27 0a26.33 26.33 0 0 0 -1.87 2.32m-6.4 12.06c5.34 4.65 10.77 9.25 16.17 13.89.35-.28.7-.57 1-.88 5-4.34 10-8.65 14.92-13q-16.08 0-32.18 0m28.8 6.74c-2.59 2.28-5.23 4.52-7.81 6.83q8.22-2.2 16.4-4.5c-.7-2.64-1.42-5.28-2.14-7.92-2.18 1.84-4.29 3.74-6.45 5.59m-31.62-5.4c-.77 2.55-1.5 5.11-2.27 7.67 1.29.5 2.66.74 4 1.15 4.19 1.12 8.36 2.3 12.56 3.39-2-1.78-4-3.46-6-5.2-2.75-2.33-5.46-4.71-8.23-7m20.8 16c1.06 1.16 2.1 2.35 3.21 3.46a55.13 55.13 0 0 1 8.58-6.7c-3.94 1.07-7.87 2.14-11.79 3.24m-15-3.14c.72.54 1.51 1 2.24 1.51a62.46 62.46 0 0 1 6.3 5c1-1.14 2.09-2.26 3.1-3.42-3.96-.97-7.83-2.06-11.72-3.06z" fill="#fff"/></svg>