<svg fill="none" height="128" viewBox="0 0 128 128" width="128" xmlns="http://www.w3.org/2000/svg" xmlns:xlink="http://www.w3.org/1999/xlink"><clipPath id="a"><path d="m0 0h128v128h-128z"/></clipPath><g clip-path="url(#a)"><path d="m64 128c35.3462 0 64-28.6538 64-64s-28.6538-64-64-64-64 28.6538-64 64 28.6538 64 64 64z" fill="#fff"/><path clip-rule="evenodd" d="m45.2449 28.9975-18.4042 9.9975-.0028.3523-.0028.3523 18.5972 10.7459 18.5965 10.7458 6.9887-4.0517 6.9888-4.0517.0084-.3523.0092-.3524-2.8962-1.5791-2.8954-1.5784-4.0653 2.4797-4.0645 2.4789-12.332-7.1359-12.3319-7.136.0196-.4587.0197-.4587 12.2723-6.5772 12.273-6.5778 15.7515 8.5515 15.7523 8.5509 2.8274-1.6214 2.8276-1.6214-.009-.3523-.01-.3523-18.2605-9.865-18.2604-9.8651-.4961-.1324-.4969-.1325zm-21.2449 34.9024v21.6989l18.9474 11.7006 18.9473 11.7006v-22.3309-22.3309l-6.8421-4.0052-6.8421-4.0059-.2203 3.2893-.2197 3.29 1.0337.7279 1.0337.7279 3.221 1.9201 3.2218 1.9209v14.8144 14.8152l-.5263-.0197-.5263-.0198-12.2807-7.6242-12.2807-7.6243-.1867-18.2636-.1867-18.2637-3.1466-1.9082-3.1467-1.9089zm60.8772-10.583-18.7719 11.0093v8.2972 8.2979l.5263-.0049.5263-.0042 2.1053-1.3889 2.1052-1.3888.3509-5.1101.3509-5.1101 12.2807-7.2036 12.2807-7.2036.5403-.0338.5411-.0331-.1902 14.5594-.1895 14.5586-15.5929 9.5754-15.593 9.5744-.0211 3.646-.021 3.646 18.9473-11.7006 18.9474-11.7006v-21.7165-21.7164l-.175.0712-.176.0704z" fill="#000" fill-rule="evenodd"/></g></svg>