<svg height="592" viewBox="0 0 547 592" width="547" xmlns="http://www.w3.org/2000/svg" xmlns:xlink="http://www.w3.org/1999/xlink"><linearGradient id="a" gradientUnits="userSpaceOnUse" x1="464.691275" x2="470.888265" y1="1.549254" y2="591.472162"><stop offset="0" stop-color="#4dfc8d"/><stop offset="1" stop-color="#1fc3f1"/></linearGradient><linearGradient id="b" gradientUnits="userSpaceOnUse" x1="280.600869" x2="254.259779" y1="117.44351" y2="231.96214"><stop offset="0" stop-color="#235e7d" stop-opacity=".992157"/><stop offset="1" stop-color="#5ffeae" stop-opacity=".988235"/></linearGradient><linearGradient id="c" gradientUnits="userSpaceOnUse" x1="138.41325" x2="63.967178" y1="128.39433" y2="352.43289"><stop offset="0" stop-color="#235e7d" stop-opacity=".992157"/><stop offset="1" stop-color="#5ffeae"/></linearGradient><linearGradient id="d" gradientUnits="userSpaceOnUse" x1="162.57175" x2="273.21259" y1="443.23962" y2="581.17065"><stop offset="0" stop-color="#5ffeae"/><stop offset="1" stop-color="#23c9e7"/></linearGradient><path d="m56.228677 215.63272-27.998634 19.47175s-45.955887 30.63728-20.1330545 84.47131 83.1582765 35.01401 83.1582765 35.01401l18.844375-6.93965 221.06302-128.50879s16.18021-8.85778 28.22678-7.44054 29.05349 10.98365 29.05349 10.98365l-32.95091-53.97338-204.55554 13.70002z" fill="url(#c)"/><path d="m237.3732 111.01624-181.144523 104.61648s98.496053-30.37728 164.313503-32.21833c65.81745-1.84106 98.95632 6.90393 119.20784 12.42707s49.7083 26.23495 55.6917 34.05939c5.98339 7.82444 7.36417 16.56941 7.36417 16.56941l-1.38078-108.16155-98.95632-42.3441z" fill="url(#b)"/><path d="m414.96075 9.1690716s38.49697-19.138499 79.63374 1.5398704c41.13678 20.67838 50.37606 64.67493 50.37606 64.67493l-1.09992 450.597928s-5.71957 65.04154-70.61446 66.58142c-64.8949 1.53989-69.51454-64.45493-69.51454-64.45493v-276.5916s-4.86208-92.66575-53.21111-121.46944c-48.34903-28.80368-113.15732-19.03101-113.15732-19.03101z" fill="url(#a)"/><path d="m136.28482 480.47049 110.81321-63.11069s8.52552-3.19707 15.77222 1.7051c7.24669 4.90218 10.23062 11.50946 10.23062 11.50946l.42628 127.66968s-.85256 10.44378-7.67297 14.28026-13.85398 4.90217-13.85398 4.90217-33.0364-2.98393-66.7122-24.51088c-33.67581-21.52694-56.0553-47.52978-56.0553-47.52978s-2.13138-4.04962-.63942-12.78828c1.49197-8.73866 7.69154-12.12704 7.69154-12.12704z" fill="url(#d)"/></svg>