<svg width="256" height="256" viewBox="0 0 256 256" fill="none" xmlns="http://www.w3.org/2000/svg">
<rect width="256" height="256" rx="128" fill="#040007"/>
<g clip-path="url(#clip0_13757_44)">
<path d="M204 42H53V205H204V42Z" fill="#8B8B8B"/>
<path d="M-683.125 -1499.41C-683.125 -1500.71 -682.069 -1501.78 -680.766 -1501.78H1647.94C1649.24 -1501.78 1650.3 -1500.71 1650.3 -1499.41V9318.83C1650.3 9320.12 1649.24 9321.19 1647.94 9321.19H-680.766C-682.069 9321.19 -683.125 9320.12 -683.125 9318.83V-1499.41Z" fill="#404040"/>
<path d="M-680.766 -1500.59H1647.94V-1502.96H-680.766V-1500.59ZM1649.12 -1499.41V9318.83H1651.48V-1499.41H1649.12ZM1647.94 9320.01H-680.766V9322.37H1647.94V9320.01ZM-681.945 9318.83V-1499.41H-684.305V9318.83H-681.945ZM-680.766 9320.01C-681.417 9320.01 -681.945 9319.48 -681.945 9318.83H-684.305C-684.305 9320.79 -682.72 9322.37 -680.766 9322.37V9320.01ZM1649.12 9318.83C1649.12 9319.48 1648.59 9320.01 1647.94 9320.01V9322.37C1649.9 9322.37 1651.48 9320.79 1651.48 9318.83H1649.12ZM1647.94 -1500.59C1648.59 -1500.59 1649.12 -1500.06 1649.12 -1499.41H1651.48C1651.48 -1501.37 1649.9 -1502.96 1647.94 -1502.96V-1500.59ZM-680.766 -1502.96C-682.72 -1502.96 -684.305 -1501.37 -684.305 -1499.41H-681.945C-681.945 -1500.06 -681.417 -1500.59 -680.766 -1500.59V-1502.96Z" fill="white" fill-opacity="0.1"/>
<mask id="mask0_13757_44" style="mask-type:luminance" maskUnits="userSpaceOnUse" x="-388" y="-1293" width="1785" height="10426">
<path d="M1396.66 -1292.71H-387.023V9132.2H1396.66V-1292.71Z" fill="white"/>
</mask>
<g mask="url(#mask0_13757_44)">
<path d="M1396.66 -1292.71H-387.023V9132.2H1396.66V-1292.71Z" fill="#FAFAFA"/>
<path d="M1396.66 -1292.71H-387.023V5939.53H1396.66V-1292.71Z" fill="#FAFAFA"/>
<g filter="url(#filter0_d_13757_44)">
<path d="M434.039 -53.6738H-177.039C-206.358 -53.6738 -230.125 -29.8768 -230.125 -0.521652V247.522C-230.125 276.877 -206.358 300.674 -177.039 300.674H434.039C463.358 300.674 487.125 276.877 487.125 247.522V-0.521652C487.125 -29.8768 463.358 -53.6738 434.039 -53.6738Z" fill="#040007"/>
<path d="M434.039 -53.083H-177.039C-206.032 -53.083 -229.535 -29.5504 -229.535 -0.521416V247.522C-229.535 276.551 -206.032 300.084 -177.039 300.084H434.039C463.032 300.084 486.535 276.551 486.535 247.522V-0.521416C486.535 -29.5504 463.032 -53.083 434.039 -53.083Z" stroke="#191A23"/>
<path d="M190.244 43.0288C182.628 43.0288 176.454 49.2076 176.454 56.8297C176.454 58.1211 176.631 59.3711 176.963 60.5566C184.761 57.3348 193.657 55.4473 203.948 55.2848C203.181 48.3899 197.338 43.0288 190.244 43.0288Z" fill="#A9EB04"/>
<path d="M204 57.8071C194.008 57.9635 185.399 59.7912 177.863 62.914C180.11 67.4851 184.81 70.6307 190.244 70.6307C197.532 70.6307 203.499 64.9731 204 57.8071Z" fill="#A9EB04"/>
<path d="M173.612 62.054V57.0576C158.374 57.0576 146.02 69.4211 146.02 84.6722V85.6055C148.288 82.6264 150.681 79.7881 153.228 77.1289C159.095 71.0024 165.776 65.8278 173.612 62.054Z" fill="black"/>
<path d="M146.02 89.8467C148.821 85.9381 151.809 82.2554 155.046 78.8748C160.438 73.2448 166.525 68.4522 173.612 64.8662V151.411C173.612 166.662 161.259 179.025 146.02 179.025V89.8467Z" fill="#A9EB04"/>
<path d="M138.251 97.0247C133.344 89.381 124.773 84.3174 115.021 84.3174V141.439C117.557 136.585 120.024 131.599 122.507 126.581L122.512 126.571C122.825 125.937 123.139 125.303 123.453 124.668C128.108 115.268 132.854 105.805 138.251 97.0247Z" fill="#A9EB04"/>
<path d="M115.021 146.808C118.367 140.634 121.535 134.23 124.7 127.832C125.037 127.151 125.373 126.47 125.71 125.789C130.17 116.783 134.662 107.834 139.679 99.5259C141.556 103.256 142.613 107.47 142.613 111.932V203.971C127.374 203.971 115.021 191.608 115.021 176.357V146.808Z" fill="#A9EB04"/>
<path d="M111.614 147.78V108.634C96.3748 108.634 84.021 120.997 84.021 136.248V181.932C88.1557 178.972 91.9027 175.495 95.3613 171.616C101.517 164.712 106.752 156.552 111.614 147.78Z" fill="#A9EB04"/>
<path d="M84.021 185C88.9005 181.717 93.2629 177.757 97.2408 173.296C102.617 167.267 107.297 160.313 111.614 152.887V167.448C111.614 182.699 99.2602 195.062 84.021 195.062V185Z" fill="#A9EB04"/>
<path d="M79.2035 185.034C80.105 182.305 80.5928 179.388 80.5928 176.357V155.55C65.3537 155.55 53 167.914 53 183.165V192.547C63.2219 191.978 71.803 189.29 79.2035 185.034Z" fill="#A9EB04"/>
<path d="M53 195.074C62.4526 194.565 70.5745 192.309 77.68 188.72C73.1479 197.764 63.7983 203.971 53 203.971V195.074Z" fill="black"/>
</g>
</g>
</g>
<defs>
<filter id="filter0_d_13757_44" x="-230.125" y="-53.6738" width="717.25" height="359.348" filterUnits="userSpaceOnUse" color-interpolation-filters="sRGB">
<feFlood flood-opacity="0" result="BackgroundImageFix"/>
<feColorMatrix in="SourceAlpha" type="matrix" values="0 0 0 0 0 0 0 0 0 0 0 0 0 0 0 0 0 0 127 0" result="hardAlpha"/>
<feOffset dy="5"/>
<feComposite in2="hardAlpha" operator="out"/>
<feColorMatrix type="matrix" values="0 0 0 0 0.0980392 0 0 0 0 0.101961 0 0 0 0 0.137255 0 0 0 1 0"/>
<feBlend mode="normal" in2="BackgroundImageFix" result="effect1_dropShadow_13757_44"/>
<feBlend mode="normal" in="SourceGraphic" in2="effect1_dropShadow_13757_44" result="shape"/>
</filter>
<clipPath id="clip0_13757_44">
<rect width="151" height="163" fill="white" transform="translate(53 42)"/>
</clipPath>
</defs>
</svg>
