<svg fill="none" height="32" viewBox="0 0 32 32" width="32" xmlns="http://www.w3.org/2000/svg" xmlns:xlink="http://www.w3.org/1999/xlink"><clipPath id="a"><path d="m0 0h32v32h-32z"/></clipPath><g clip-path="url(#a)"><circle cx="16" cy="16" fill="#fff" r="12"/><path d="m20.2611 8.32332c.9285-.9285 2.4539-.9285 3.3824 0 .9285.92849.9285 2.45388 0 3.38238-.5471.5471-1.2767.7793-2.0228.6798-.0331 0-.0663 0-.116 0-.2156-.0332-.4477 0-.6798.0995-.3151.1492-.5306.3979-.6467.6963-.116.2985-.0994.6301.0332.9285.7959 1.7244.4311 3.8135-.9285 5.1565-1.3596 1.3596-3.4321 1.7244-5.1565.9285-.315-.1492-.6466-.1492-.9451-.0331-.2984.116-.5471.3316-.6797.63-.0829.199-.1327.3979-.1161.6135v.116c.1326.7627-.1327 1.542-.6632 2.0892-.9285.9285-2.45391.9285-3.3824 0-.44767-.4477-.69638-1.0446-.69638-1.6912 0-.6301.24871-1.2436.69638-1.6912.54715-.5472 1.27668-.7793 2.0228-.6798h.0332c.0829.0166.1658.0331.2487.0331.1823 0 .3481-.0331.5139-.116.3151-.1492.5306-.3979.6301-.6798.1161-.2985.1161-.6466-.0332-.9617-.7958-1.7409-.431-3.8134.9285-5.1564 1.3596-1.3596 3.4322-1.7244 5.1565-.9285.2985.1492.6466.1492.9451.0331.2984-.116.5471-.3316.6964-.63.116-.2322.1326-.4974.0994-.7461-.116-.74616.1327-1.52543.6798-2.07258zm-2.3709 9.55028c1.0279-1.028 1.0279-2.7026 0-3.7472-1.028-1.028-2.7026-1.028-3.7472 0-1.028 1.028-1.028 2.7026 0 3.7472 1.0446 1.028 2.7192 1.028 3.7472 0zm-1.8902-17.8736c8.8373 0 16 7.16269 16 16 0 8.8373-7.1627 16-16 16-8.83731 0-16-7.1627-16-16 0-8.83731 7.16269-16 16-16zm8.5223 12.601c1.4093-1.4093 1.4093-3.69737 0-5.12328-1.4093-1.40933-3.6974-1.40933-5.1233 0-.5306.53057-.8456 1.1772-.9949 1.84041-2.5699-.96165-5.5046-.34818-7.4611 1.60827-1.95647 1.9565-2.56994 4.9078-1.5917 7.4777-.6798.1327-1.32643.4643-1.857.9949-1.40933 1.4093-1.40933 3.6974 0 5.1233 1.40933 1.4093 3.6974 1.4093 5.1233 0 .5306-.5306.8622-1.1938.9948-1.8736.7959.2985 1.6249.4477 2.4539.4477 1.8404 0 3.6477-.713 4.9907-2.056 1.9565-1.9565 2.5699-4.8746 1.6249-7.428.6632-.1658 1.3098-.4974 1.8404-1.0114z" fill="#38a2ff"/></g></svg>