<svg width="144" height="107" viewBox="0 0 144 107" fill="none" xmlns="http://www.w3.org/2000/svg">
<path d="M99.6814 101.793L99.6805 101.792C96.5482 99.0426 93.9592 95.5216 91.5372 91.7337C90.3858 89.9331 89.2743 88.0756 88.1603 86.2138L87.988 85.9259C86.8169 83.9691 85.6408 82.011 84.4143 80.1201C79.511 72.5608 73.7658 66.0155 64.1474 64.7976L64.1472 64.7975C58.0544 64.0311 53.3407 65.4859 49.4566 68.1031C45.5817 70.714 42.5417 74.4759 39.7784 78.3051C39.0822 79.2699 38.4042 80.2378 37.7351 81.1931C35.7385 84.0434 33.8205 86.7817 31.7312 88.9896C28.9499 91.9288 25.9045 93.883 22.0334 93.883C12.9487 93.883 7.50373 87.2859 4.31939 78.873C1.13662 70.4642 0.25 60.323 0.25 53.4315C0.25 46.3853 1.24068 38.0813 4.18298 31.5486C7.12128 25.0248 11.9836 20.3042 19.736 20.3042C28.1742 20.3042 32.8988 26.1811 37.9247 32.433C38.2867 32.8832 38.6502 33.3354 39.0168 33.7875C44.4519 40.4901 50.5281 47.0977 62.1479 46.3568L62.1491 46.3567C73.7193 45.5627 79.599 37.8983 84.4244 28.9884C85.5253 26.9555 86.5737 24.8533 87.6223 22.7508C87.7229 22.549 87.8236 22.3473 87.9242 22.1456C89.0748 19.8403 90.2321 17.5416 91.4698 15.3305C93.9457 10.9073 96.7339 6.85165 100.406 3.82029C106.765 -1.3693 117.569 -1.19914 126.822 6.3062C136.066 13.8048 143.75 28.6324 143.75 52.6991C143.75 76.4566 136.481 92.0976 127.349 100.105C118.222 108.109 107.244 108.494 99.6814 101.793Z" fill="#97FCE4" stroke="white" stroke-width="0.5"/>
</svg>
