<svg height="250" viewBox="0 0 66.146 66.146" width="250" xmlns="http://www.w3.org/2000/svg"><g transform="translate(-77.92 -103.784)"><circle cx="111.202" cy="137.035" fill="#1e0f32" r="33.073"/><path d="m101.281 162.108 9.616-7.656 9.802 7.749s-5.32-3.314-9.662-3.314c-4.341 0-9.756 3.22-9.756 3.22z" fill="#fffff9"/><path d="m110.85 115.445s.467 10.13.467 17.131c0 7.002-.28 14.33-.28 14.33s-.513-12.276-.467-16.57c.047-4.295.28-14.89.28-14.89z" fill="#fff"/></g><path d="m38.29 7.324s.723 8.349 1.59 11.42c.868 3.073 1.627 5.386 2.675 6.904 1.048 1.517 1.374 1.807 1.374 1.807s-.904.747-1.41 1.795-.614 2.782-.65 3.758c-.037.976-.145 16.275-.145 16.275s-.108.253.253 1.88c.361 1.626.542 2.554 1.373 4.36.832 1.808.868 1.916.868 1.916l-8.023-6.144s-.253-.18-.145-.361c.108-.18 1.535-2.31 1.535-2.31s.141-.271.174-.488c.032-.217.091-40.781.091-40.781zm-10.433.071s-.723 8.349-1.59 11.42c-.867 3.073-1.626 5.386-2.674 6.903-1.048 1.518-1.374 1.807-1.374 1.807s.904.747 1.41 1.795c.506 1.049.614 2.783.65 3.759s.145 16.275.145 16.275.108.253-.253 1.88c-.362 1.626-.542 2.553-1.373 4.36-.832 1.807-.868 1.916-.868 1.916l8.023-6.144s.253-.18.145-.361c-.109-.181-1.536-2.31-1.536-2.31s-.14-.272-.173-.488c-.032-.217-.091-40.781-.091-40.781z" fill="#fff"/></svg>