<svg height="73.777069mm" viewBox="0 0 73.777069 73.777069" width="73.777069mm" xmlns="http://www.w3.org/2000/svg" xmlns:xlink="http://www.w3.org/1999/xlink"><clipPath id="a"><path d="m0 0h139v113h-139z" height="100%" width="100%"/></clipPath><circle cx="36.888535" cy="36.888538" r="36.888535" stroke-width=".264583"/><g clip-path="url(#a)" fill="#fff" transform="matrix(.35644742 0 0 .35644742 12.806705 16.264415)"><path d="m124.1 0h14.6l-59.2 67.6c-1.5 1.7-1.6 4.3-.1 6.1l34.1 39.7h-15.2l-31.5-36.8-1.6-2c-1.5-1.7-1.4-4.4.1-6.1z"/><path d="m91.2 73.7c-1-1.1-1.3-2.7-1-4.1.3-.8.8-1.6 1.4-2.2l3.9-4.3 43.5 50.3h-13.8s-25.5-29.8-34-39.7z"/><path d="m15.2 113.4h-15.2l46.6-53.9c1.5-1.7 1.5-4.3 0-6l-46.2-53.5h14.6l46.5 53.9c1.2 1.6 1.4 3.9.1 5.4-12.2 14.1-46.4 54.1-46.4 54.1z"/><path d="m40.6 0h-14l43.1 49.9s.1-.1 4.9-5.8c1.3-1.5 1.6-3.4.1-4.9-9-9.2-34.1-39.2-34.1-39.2z"/><path d="m82.6 34.8 29.9-34.8h-14.2l-15.6 18.2-4.5 5.3c-1.5 1.7-1.6 4.3-.1 6.1 1.1 1.3 4.5 5.2 4.5 5.2z"/><path d="m56.6 78.6-29.9 34.8h14.1l15.6-18.2 4.5-5.3c1.5-1.7 1.6-4.3.1-6.1-1.1-1.3-4.4-5.2-4.4-5.2z"/></g></svg>