<svg fill="none" height="32" viewBox="0 0 32 32" width="32" xmlns="http://www.w3.org/2000/svg" xmlns:xlink="http://www.w3.org/1999/xlink"><linearGradient id="a" gradientUnits="userSpaceOnUse" x1="32" x2="0" y1="32" y2="0"><stop offset="0" stop-color="#3d9b7f"/><stop offset="1" stop-color="#87d58f"/></linearGradient><clipPath id="b"><path d="m0 0h32v32h-32z"/></clipPath><g clip-path="url(#b)"><path d="m16 32c8.8366 0 16-7.1634 16-16 0-8.83655-7.1634-16-16-16-8.83655 0-16 7.16345-16 16 0 8.8366 7.16345 16 16 16z" fill="url(#a)"/><path clip-rule="evenodd" d="m1.5 16c0-8.00812 6.49188-14.5 14.5-14.5 8.0081 0 14.5 6.49188 14.5 14.5 0 8.0081-6.4919 14.5-14.5 14.5-8.00812 0-14.5-6.4919-14.5-14.5zm14.5-13.5c-7.45584 0-13.5 6.04416-13.5 13.5 0 7.4558 6.04416 13.5 13.5 13.5 7.4558 0 13.5-6.0442 13.5-13.5 0-7.45584-6.0442-13.5-13.5-13.5z" fill="#fff" fill-rule="evenodd"/><path d="m6.15479 12.2139h.02599c-.00754.0029-.01719.0029-.02599 0z" fill="#308d8a"/><g fill="#fff"><path d="m10.2962 19.1044c.1019-.1019.2421-.1614.3907-.1614h13.4807c.2464 0 .3695.2973.1954.4715l-2.663 2.663c-.1019.1019-.2421.1614-.3908.1614h-13.48067c-.24634 0-.36951-.2973-.19537-.4714z"/><path d="m10.2962 9.16139c.1062-.10193.2463-.16139.3907-.16139h13.4807c.2464 0 .3695.29731.1954.47144l-2.663 2.66306c-.1019.1019-.2421.1613-.3908.1613h-13.48067c-.24634 0-.36951-.2973-.19537-.4714z"/><path d="m21.7 14.101c-.1019-.1019-.2421-.1614-.3908-.1614h-13.48067c-.24634 0-.36951.2973-.19537.4714l2.66304 2.6631c.1019.1019.2421.1613.3907.1613h13.4807c.2464 0 .3695-.2973.1954-.4714z"/></g></g></svg>