<svg fill="none" height="32" viewBox="0 0 32 32" width="32" xmlns="http://www.w3.org/2000/svg" xmlns:xlink="http://www.w3.org/1999/xlink"><clipPath id="a"><path d="m0 0h32v32h-32z"/></clipPath><g clip-path="url(#a)"><path d="m32 16c0-8.83656-7.1634-16-16-16-8.83656 0-16 7.16344-16 16 0 8.8366 7.16344 16 16 16 8.8366 0 16-7.1634 16-16z" fill="#000"/><g fill="#fff"><path clip-rule="evenodd" d="m15.9973 3.61826c-6.74804 0-12.21844 5.4704-12.21844 12.21844 0 6.7481 5.4704 12.2185 12.21844 12.2185 6.7481 0 12.2185-5.4704 12.2185-12.2185 0-6.74804-5.4704-12.21844-12.2185-12.21844zm-13.32921 12.21844c0-7.3615 5.96771-13.32921 13.32921-13.32921 7.3616 0 13.3293 5.96771 13.3293 13.32921 0 7.3616-5.9677 13.3293-13.3293 13.3293-7.3615 0-13.32921-5.9677-13.32921-13.3293z" fill-rule="evenodd"/><path d="m14.3191 13.3703c1.0523.2002 2.0374-.0165 2.9535-.6488l3.6988-2.5528c-.515-.74636-1.5383-.93238-2.2832-.4151l-2.3433 1.6275c-.54.3727-1.1193.5036-1.7343.3903-.6168-.1121-1.1085-.4357-1.4769-.9694l-.926-1.34171-1.3283.91681.926 1.3416c.6223.9017 1.4596 1.4526 2.5137 1.6516z"/><path d="m18.4124 14.2229c-.1982 1.0526.0201 2.0388.6536 2.9567l2.5577 3.7058c.7449-.5142.9306-1.5355.4143-2.2789l-1.6341-2.353c-.3734-.541-.5053-1.1209-.3931-1.7361.1109-.617.4334-1.1084.9662-1.4762l1.3391-.9242-.9185-1.3308-1.3391.9242c-.9.6212-1.4491 1.458-1.6461 2.5125z"/><path d="m14.5912 18.9816c.9162-.6323 1.9013-.849 2.9536-.6487 1.0541.1989 1.8914.7499 2.5137 1.6515l.926 1.3416-1.3283.9168-.926-1.3416c-.3684-.5338-.8601-.8573-1.4769-.9694-.615-.1134-1.1943.0175-1.7343.3902l-2.3433 1.6275c-.7448.5173-1.7681.3313-2.2832-.415z"/><path d="m13.5316 17.5971c.1982-1.0526-.02-2.0388-.6535-2.9567l-2.5577-3.7058c-.74493.5142-.93059 1.5355-.4143 2.2789l1.6341 2.353c.3734.541.5052 1.1209.3931 1.7361-.111.617-.4334 1.1084-.9662 1.4762l-1.33912.9242.91852 1.3308 1.3391-.9242c.9-.6212 1.449-1.458 1.646-2.5125z"/></g></g></svg>