<svg fill="none" height="512" width="512" xmlns="http://www.w3.org/2000/svg" xmlns:xlink="http://www.w3.org/1999/xlink"><linearGradient id="a"><stop offset="0" stop-color="#c7f284"/><stop offset="1" stop-color="#00bef0"/></linearGradient><linearGradient id="b" gradientUnits="userSpaceOnUse" x1="322.78" x2="139.555" xlink:href="#a" y1="140.29" y2="455.269"/><linearGradient id="c" gradientUnits="userSpaceOnUse" x1="322.78" x2="139.555" xlink:href="#a" y1="140.29" y2="455.268"/><linearGradient id="d" gradientUnits="userSpaceOnUse" x1="321.571" x2="138.347" xlink:href="#a" y1="129.516" y2="444.494"/><clipPath id="e"><path d="m0 0h512v512h-512z"/></clipPath><g clip-path="url(#e)"><path d="m512 256c0-141.385-114.615-256-256-256s-256 114.615-256 256 114.615 256 256 256 256-114.615 256-256z" fill="#0f1524"/><path d="m95.386 370.862a202.963 202.963 0 0 0 143.54 83.375c-14.637-22.026-35.915-42.29-62.476-57.718s-54.69-23.855-81.064-25.657z" fill="url(#b)"/><path d="m212.142 335.089c-51.174-29.73-106.561-37.306-146.192-23.921a203.914 203.914 0 0 0 15.066 36.554c34.432-.796 72.027 8.556 107.008 28.874 34.984 20.317 61.738 48.359 78.112 78.673a204.925 204.925 0 0 0 39.241-5.025c-8.011-41.051-42.075-85.419-93.235-115.155z" fill="url(#b)"/><path d="m456 214.414a202.82 202.82 0 0 0 -95.079-126.963 202.835 202.835 0 0 0 -157.387-19.713c43.793 5.36 92.401 21.799 140.071 49.492 47.669 27.695 86.062 61.772 112.395 97.184z" fill="url(#c)"/><path d="m392.286 311.469c-22.415-37.227-60.813-72.871-108.115-100.351-47.303-27.478-97.277-43.176-140.678-44.213-38.185-.905-66.844 10.196-78.607 30.447-.067.12-.16.234-.234.355-1.059 3.798-1.97 7.602-2.8 11.421 16.425-6.484 35.457-10.095 56.619-10.497 47.062-.883 99.729 14.168 148.33 42.404s87.797 66.548 110.332 107.854c10.102 18.61 16.406 36.932 18.905 54.438a194.09 194.09 0 0 0 8.528-8.08c.073-.127.121-.261.194-.397 11.764-20.27 7.214-50.656-12.474-83.381z" fill="url(#b)"/><path d="m246.976 262.282c-72.438-42.084-152.483-48.674-190.976-19.306.076 9.191.779 18.369 2.104 27.465a159.5 159.5 0 0 1 34.794-6.444c43.014-3.235 90.437 8.748 133.47 33.763 43.035 25.013 76.959 60.291 95.462 99.232a158.27 158.27 0 0 1 11.63 33.416 203.798 203.798 0 0 0 24.912-11.771c6.446-47.993-38.941-114.265-111.396-156.355z" fill="url(#d)"/><path d="m429.545 249.162c-22.671-37.185-61.405-72.933-109.041-100.592-47.636-27.66-97.804-43.604-141.347-44.884-33.195-.958-58.905 7.088-72.236 22.288 55.354-9.379 128.365 6.384 199.135 47.495 70.767 41.113 120.649 96.741 139.9 149.469 6.599-19.099.857-45.419-16.411-73.776z" fill="url(#b)"/></g></svg>