<svg width="26.667" height="26.667" fill="none" xmlns:xlink="http://www.w3.org/1999/xlink" xmlns="http://www.w3.org/2000/svg"><defs><linearGradient id="a"><stop style="stop-color:#003d36;stop-opacity:1" offset="0"/><stop style="stop-color:#000;stop-opacity:.94901961" offset=".5"/><stop style="stop-color:#003d33;stop-opacity:1" offset="1"/></linearGradient><linearGradient xlink:href="#a" id="b" x1="-.071" y1="-4.361" x2="26.425" y2="22.265" gradientUnits="userSpaceOnUse" spreadMethod="reflect"/><linearGradient xlink:href="#a" id="c" gradientUnits="userSpaceOnUse" x1="-.071" y1="-4.361" x2="26.425" y2="22.265" spreadMethod="reflect"/></defs><g style="fill:url(#b)"><path style="fill:url(#c);stroke-width:.666739" d="M-.2-4.417h26.667V22.25H-.2z" transform="translate(.2 4.417)"/></g><path d="M21.333 6.297a.964.964 0 0 0-.964-.964h-2.072a.964.964 0 0 0-.964.964v1.721c0 .256-.101.501-.282.682l-1.315 1.315a.964.964 0 0 1-.681.282H12.32a.964.964 0 0 1-.964-.964V6.297a.964.964 0 0 0-.963-.964H6.297a.964.964 0 0 0-.964.964v4.097c0 .532.432.963.964.963h3.036c.533 0 .964.432.964.964v2.024a.964.964 0 0 1-.964.964H6.297a.964.964 0 0 0-.964.964v4.096c0 .533.432.964.964.964h4.097a.964.964 0 0 0 .963-.964v-3.084c0-.532.432-.964.964-.964h2.662c.255 0 .5.102.681.283l1.387 1.386c.18.181.282.426.282.682v1.697c0 .533.432.964.964.964h2.072a.964.964 0 0 0 .964-.964v-2.072a.964.964 0 0 0-.964-.964h-1.667a.964.964 0 0 1-.682-.282l-1.416-1.417a.964.964 0 0 1-.283-.681v-3.216c0-.255.102-.5.283-.681l1.44-1.44a.964.964 0 0 1 .681-.283h1.644a.964.964 0 0 0 .964-.964z" fill="#32ffdc"/></svg>