<svg width="32" height="32" fill="none" xmlns="http://www.w3.org/2000/svg"><rect width="32" height="32" rx="16" fill="#0C0B0D"/><path d="M28.569 9.715c.468-.234.66-.805.397-1.258a15 15 0 1 0-2.177 17.964c.363-.376.313-.976-.086-1.315-.398-.34-.994-.288-1.36.085a13.105 13.105 0 1 1 1.924-15.884c.267.45.834.642 1.302.408z" fill="url(#a)"/><path fill-rule="evenodd" clip-rule="evenodd" d="M13.273 17.816v4.053c0 .884-.758 1.503-1.536 1.503-.779 0-1.537-.62-1.537-1.503V9.305c0-.884.758-1.503 1.537-1.503.778 0 1.536.62 1.536 1.503v4.954l10.22 6.375c.585.366.87 1.11.615 1.77l-.185.354c-.492.69-1.421.82-2.088.404l-8.562-5.346zm2.065-3.756-.151-.214a1.382 1.382 0 0 1 .435-1.929l6.233-3.905a1.446 1.446 0 0 1 1.923.384l.123.174c.495.695.21 1.582-.407 1.969m-.002 0-6.232 3.905a1.445 1.445 0 0 1-1.922-.384" fill="#fff"/><defs><radialGradient id="a" cx="0" cy="0" r="1" gradientUnits="userSpaceOnUse" gradientTransform="matrix(18.00001 -24.50002 29.711 21.8285 11.5 30)"><stop stop-color="#fff"/><stop offset="1" stop-color="#fff" stop-opacity="0"/></radialGradient></defs></svg>