<svg height="265" viewBox="0 0 212 265" width="265" xmlns="http://www.w3.org/2000/svg"><g fill="none"><path d="m98.832381 264.474046c-42.5494096-1.869161-82.0096762-31.751451-94.0876191-72.419848-9.36030476-31.452061-4.32883809-61.645877 10.7938286-90.387251 11.0078476-20.9248859 26.8856381-37.9900768 43.4539428-54.4605348 14.4523429-14.370687 29.5871238-28.069771 42.9047617-43.56923663 2.124038-2.47198473 3.925029-5.25954198 7.389715-1.13687023 16.802514 20.08335876 36.924342 36.92198476 54.833295 55.93725196 16.673295 17.7084732 31.384076 36.7075572 39.977143 59.7807637 19.322285 52.004732 3.036647 108.233282-49.910858 135.534351-17.105371 8.80771-32.8176 12.092901-55.354209 10.721374z" fill="#46beae"/><path d="m150.790552 143.172824c1.615238-11.20687-6.109638-23.061068-21.082895-28.19519l3.929067-15.8757256-11.859886-2.9453435-3.799848 15.3740461c-3.117409-.772748-6.319619-1.505038-9.501638-2.225191l3.836191-15.4913742-11.85181-2.9453435-3.9331044 15.8716797-21.4907429-5.3-3.1376 12.687633s8.7990095 2.022901 8.6132572 2.132138c4.8012952 1.21374 5.6735238 4.377557 5.5321904 6.902137l-13.2368762 53.457176c-.5855238 1.460534-2.0715428 3.641221-5.4272 2.832061.1171048.169923-8.6213333-2.144275-8.6213333-2.144275l-5.8673524 13.601985 21.4624762 5.409236-4.2803809 17.311985 11.8437333 2.945344 4.2359619-17.105649c3.2304762.877939 6.3761524 1.683053 9.4491429 2.427481l-4.2198096 17.016641 11.8598858 2.973664 4.280381-17.279618c20.218743 3.807099 35.595809-1.444352 39.371428-16.684886 3.081067-12.436794.302858-21.52771-8.504228-28.187099 5.7664-1.84084 11.124952-7.816489 12.40099-16.563512zm-24.321447 37.176871c-3.634286 14.750992-28.440305 6.809084-36.4801526 4.822595l6.4609524-26.156107c8.0519622 1.998626 33.8230852 5.947328 30.0192002 21.333512zm3.634285-38.273283c-3.343542 13.419924-23.982247 6.631069-30.6895233 4.964199l5.8713903-23.720535c6.707276 1.666871 28.262629 4.757863 24.818133 18.756336z" fill="#fff"/></g></svg>