<svg enable-background="new 0 0 105.24 106.02" viewBox="0 0 105.24 106.02" xmlns="http://www.w3.org/2000/svg"><g fill="#dc2626"><path d="m104.04 51.35-15.5-5.22c-5.7-1.91-9.92-6.72-11.12-12.57l-6.54-32.16c-.18-.8-.9-1.4-1.74-1.4s-1.56.6-1.74 1.4l-6.53 32.16c-1.2 5.85-5.43 10.66-11.13 12.57l-15.5 5.22c-.72.24-1.2.93-1.2 1.67 0 .75.48 1.44 1.2 1.68l15.5 5.22c5.7 1.91 9.93 6.72 11.13 12.57l6.53 32.13c.18.8.9 1.4 1.74 1.4s1.56-.6 1.74-1.4l6.54-32.13c1.2-5.85 5.42-10.66 11.12-12.57l15.5-5.22c.72-.24 1.2-.93 1.2-1.68 0-.74-.48-1.43-1.2-1.67z"/><path d="m20.75 21.88 5.46 1.86c2 .68 3.5 2.35 3.92 4.44l2.31 11.35c.06.3.3.51.6.51s.54-.21.6-.51l2.31-11.35c.42-2.06 1.92-3.76 3.93-4.44l5.46-1.86c.23-.08.41-.32.41-.59s-.18-.51-.41-.6l-5.46-1.85c-2.01-.69-3.51-2.36-3.93-4.45l-2.31-11.34c-.06-.3-.3-.51-.6-.51s-.54.21-.6.51l-2.31 11.34c-.42 2.06-1.92 3.76-3.92 4.45l-5.46 1.85c-.24.09-.42.33-.42.6s.18.51.42.59z"/><path d="m33.49 77.63-7.31-2.48c-2.7-.9-4.71-3.17-5.25-5.94l-3.09-15.2c-.09-.39-.42-.66-.81-.66s-.75.27-.81.66l-3.09 15.2c-.57 2.77-2.58 5.04-5.24 5.94l-7.32 2.48c-.33.12-.57.41-.57.77s.24.69.57.78l7.32 2.48c2.69.89 4.7 3.16 5.24 5.94l3.09 15.2c.09.38.42.65.81.65s.75-.27.81-.65l3.09-15.2c.57-2.78 2.58-5.05 5.25-5.94l7.31-2.48c.33-.12.57-.42.57-.78s-.24-.68-.57-.77z"/></g></svg>