<svg height="270" viewBox="0 0 270 270" width="270" xmlns="http://www.w3.org/2000/svg"><g transform="translate(-820 -407.8)"><path d="m955 407.8-62.4 108.1 62.4-29z" fill="#ff596e"/><path d="m1017.4 515.9-62.4-29v63.1z" fill="#ff596e"/><path d="m892.6 515.9 62.4-29v63.1z" fill="#800010"/><path d="m955 407.8 62.4 108.1-62.4-29z" fill="#800010"/><path d="m891.4 539.6 63.6 34.7v67.2z" fill="#ff596e"/><path d="m1018.6 539.6-63.6 34.7v67.2z" fill="#800010"/><path d="m1075.1 542.7-46 12.2 14.4 40.5z" fill="#800010"/><path d="m1075.1 542.7-31.6 52.7 31.6-9.4z" fill="#ff596e"/><path d="m1029.1 662.8-34.9 15 49.3-82.4 31.6-9.4z" fill="#800010"/><path d="m880.9 662.8 34.9 15-49.3-82.4-31.6-9.4z" fill="#ff596e"/><path d="m880.9 554.9-14.4 40.5 49.3 82.4h39.2z" fill="#800010"/><path d="m834.9 542.7 46 12.2-14.4 40.5z" fill="#ff596e"/><path d="m834.9 542.7 31.6 52.7-31.6-9.4z" fill="#800010"/><path d="m1029.1 554.9 14.4 40.5-49.3 82.4h-39.2z" fill="#ff596e"/></g></svg>