<svg fill="none" height="258" viewBox="0 0 258 258" width="258" xmlns="http://www.w3.org/2000/svg"><g fill="#9090c7"><path d="m194 44h-22v21h22z"/><path d="m87.0457 43.7109h-21.3113v21.3114h21.3113z"/><path d="m215.089 171.668h-21.312v21.311h21.312z"/><path d="m66 172h-22v21h22z"/><path d="m215.089 65.0195h-21.312v21.3113h21.312z"/><path d="m66 65h-22v21h22z"/><path d="m194 193h-22v22h22z"/><path d="m87.0457 193.066h-21.3113v21.312h21.3113z"/></g><g fill="#5552fd"><path d="m44.4246 65.0195h-21.3113v21.3113h21.3113z"/><path d="m236.401 65.0195h-21.311v21.3113h21.311z"/><path d="m194 214h-22v22h22z"/><path d="m44.4246 171.668h-21.3113v21.311h21.3113z"/><path d="m65.7332 43.7109h-21.3113v21.3114h21.3113z"/><path d="m215.089 43.7109h-21.312v21.3114h21.312z"/><path d="m215.089 193.066h-21.312v21.312h21.312z"/><path d="m65.7332 193.066h-21.3113v21.312h21.3113z"/><path d="m87.0457 22.3125h-21.3113v21.3113h21.3113z"/><path d="m194 22h-22v22h22z"/><path d="m236.401 171.668h-21.311v21.311h21.311z"/><path d="m87.0457 214.379h-21.3113v21.311h21.3113z"/></g><path d="m151 86h-21v22h21z" fill="#fed955"/><path d="m108.444 107.645h-21.3112v21.311h21.3112z" fill="#fed955"/><path d="m172.464 107.645h-21.312v21.311h21.312z" fill="#fed955"/><path d="m130 86h-22v22h22z" fill="#fed955"/><g fill="#5552fd"><path d="m108 86h-21v22h21z"/><path d="m151.069 107.645h-21.311v21.311h21.311z"/><path d="m172 86h-21v22h21z"/><path d="m129.757 107.645h-21.312v21.311h21.312z"/></g><path d="m87 129h85v85h-85z" fill="#fed955"/><path d="m87 44h85v42h-85z" fill="#fed955"/><path d="m87 22h85v22h-85z" fill="#9090c7"/><path d="m87 0h85v22h-85z" fill="#5552fd"/><path d="m22 172h86v22h-86z" fill="#9090c7" transform="matrix(0 -1 1 0 -150 194)"/><path d="m0 172h86v22h-86z" fill="#5552fd" transform="matrix(0 -1 1 0 -172 172)"/><path d="m236 86h86v22h-86z" fill="#9090c7" transform="matrix(0 1 -1 0 322 -150)"/><path d="m258 86h86v22h-86z" fill="#5552fd" transform="matrix(0 1 -1 0 344 -172)"/><path d="m87 236h85v22h-85z" fill="#5552fd"/><path d="m87 214h85v22h-85z" fill="#9090c7"/><path d="m44 86h22v86h-22z" fill="#fed955"/><path d="m193 86h22v86h-22z" fill="#fed955"/><path d="m172 65h22v128h-22z" fill="#5552fd"/><path d="m66 65h21v128h-21z" fill="#5552fd"/></svg>