<svg fill="none" height="512" viewBox="0 0 512 512" width="512" xmlns="http://www.w3.org/2000/svg"><rect fill="#000" height="512" rx="256" width="512"/><path clip-rule="evenodd" d="m282.419 87.7396 13.159-84.70174c-13.005-2.01386-26.317-3.03786-39.578-3.03786h-.205v172.8h.205c7.288 0 14.49.938 21.436 2.782l22.357-84.2072c-5.717-1.5189-11.52-2.7136-17.357-3.6352zm-68.079 96.2224-43.009-74.087h-.017c-5.068 2.953-10.018 6.144-14.745 9.592l-51.354-70.366c10.803-7.8848 22.306-14.9675 34.185-21.0602l39.082 76.2882c7.936-4.045 16.163-7.4755 24.628-10.2403l-26.59-81.4933c12.714-4.14716 25.856-7.32156 39.082-9.42076l13.671 86.03296c-5.786.9216-11.537 2.1846-17.203 3.7035l22.255 82.7219c-6.981 1.877-13.705 4.693-19.985 8.329zm-186.6072-43.962 77.6362 39.526c-3.993 7.851-7.3897 16.077-10.1033 24.457l-82.8929-26.812c4.1131-12.732 9.2843-25.242 15.36-37.171zm374.3402 31.247-74.069 43.042c3.652 6.28 6.451 13.004 8.328 19.985l82.723-22.289c1.519 5.666 2.782 11.417 3.703 17.186l86.033-13.705c-2.099-13.226-5.273-26.368-9.438-39.082l-81.476 26.641c-2.765-8.465-6.195-16.691-10.257-24.627l76.271-39.134c-6.093-11.879-13.176-23.365-21.077-34.168l-70.349 51.388c3.447 4.727 6.656 9.677 9.591 14.746zm-30.215-143.5853.007.0035v-.017zm-37.181-15.3394c12.729 4.1123 25.237 9.2652 37.181 15.3394l-39.468 77.6573c-7.868-3.994-16.094-7.3903-24.474-10.0869zm6.263 96.0357-43.503 75.486c6.298 3.635 12.1 8.072 17.271 13.226l121.993-122.4018c-9.455-9.4378-19.746-18.193-30.549-26.0266l-50.313 69.3764c-4.796-3.482-9.762-6.708-14.899-9.66zm-157.063 106.154-75.469-43.537h-.017c2.97-5.12 6.195-10.086 9.677-14.882l-69.3589-50.347c7.8506-10.803 16.6058-21.0772 26.0437-30.5321l122.3682 122.0261c-5.154 5.172-9.609 10.974-13.244 17.272zm-92.4678-2.389 84.1898 22.409h-.017c-1.843 6.946-2.782 14.165-2.782 21.47h-172.8c0-13.295 1.04107-26.658 3.072-39.714l84.7019 13.192c.9046-5.837 2.1163-11.639 3.6353-17.357zm315.2198 120.351 77.637 39.527c6.076-11.93 11.247-24.44 15.36-37.172l-82.893-26.811c-2.714 8.379-6.11 16.606-10.104 24.456zm-108.969-4.435 43.008 74.086.017.017c5.069-2.952 10.018-6.144 14.746-9.591l51.353 70.366c-10.803 7.885-22.306 14.967-34.184 21.06l-39.083-76.288c-7.936 4.045-16.162 7.475-24.627 10.24l26.59 81.493c-12.715 4.148-25.856 7.322-39.083 9.421l-13.67-86.05c5.785-.922 11.537-2.184 17.203-3.703l-22.255-82.722c6.98-1.878 13.704-4.694 19.985-8.329zm-187.732 12.714 74.069-43.042c-3.652-6.281-6.451-13.005-8.328-19.985l-82.7223 22.289c-1.5189-5.666-2.7818-11.418-3.7034-17.186l-86.05027 13.704c2.0992 13.227 5.27361 26.368 9.43787 39.083l81.4764-26.641c2.7648 8.465 6.1947 16.691 10.2567 24.627l-76.2707 39.134c6.0928 11.878 13.1755 23.364 21.0774 34.167l70.3493-51.387c-3.448-4.728-6.656-9.677-9.592-14.746zm30.212 143.584-.007-.003v.017zm0 0c11.945 6.075 24.452 11.228 37.182 15.34l26.76-82.91c-8.38-2.697-16.606-6.093-24.473-10.086zm30.92-80.694.004-.007.013.007zm.004-.007 43.499-75.479c-6.298-3.635-12.1-8.072-17.272-13.226l-121.9752 122.402c9.455 9.437 19.7462 18.193 30.5492 26.026l50.313-69.376c4.792 3.479 9.754 6.702 14.886 9.653zm157.078-106.148 75.469 43.537v.017c-2.97 5.12-6.195 10.086-9.677 14.882l69.359 50.347c-7.851 10.803-16.606 21.077-26.044 30.532l-122.351-122.044c5.154-5.171 9.609-10.974 13.244-17.271zm-93.577 38.93-.001.004-.016-.004zm-.001.004-22.357 84.203c5.718 1.519 11.52 2.714 17.357 3.635l-13.158 84.702c13.005 2.014 26.317 3.038 39.577 3.038h.205v-172.8h-.205c-7.281 0-14.478-.937-21.419-2.778zm101.854-58.952c1.842-6.941 2.781-14.155 2.782-21.453h172.8c0 13.295-1.041 26.658-3.072 39.714l-84.685-13.21c-.904 5.837-2.116 11.64-3.635 17.357z" fill="#fff" fill-rule="evenodd"/></svg>