<svg fill="none" height="450" viewBox="0 0 450 450" width="450" xmlns="http://www.w3.org/2000/svg"><path d="m225 450c124.264 0 225-100.736 225-225s-100.736-225-225-225-225 100.736-225 225 100.736 225 225 225z" fill="#c8ece1"/><g fill="#308d8a"><path d="m74.4638 167.19c-3.0026-2.796-.2009-6.289 2.2578-8.21 3.0853-2.89 6.1411-6.029 9.0373-8.795 12.8908-13.121 25.7871-25.864 40.3511-37.006 1.986-6.56 11.159-1.14 7.282 4.138-18.187 14.475-34.6774 31.107-51.1204 47.568l.2187-.219c.0537-.044.1032-.094.1478-.148-2.0687 2.288-5.1836 5.414-8.1743 2.672z"/><path d="m322.375 172.096c-.357-.436-.62-.94-.775-1.481s-.198-1.108-.126-1.667c.072-.558.257-1.095.544-1.58.287-.484.67-.905 1.125-1.236 16.307-17.85 32.142-36.054 49.294-53.129 1.525-2.087 5.225-2.317 6.602.171 1.371 2.252.177 4.598-1.531 6.253-3.824 4.291-8.144 8.092-12.069 12.288-10.048 10.373-19.505 21.225-28.962 32.112-3.924 3.115-8.369 13.251-14.102 8.269z"/><path d="m131.3 118.416c-.997-.047-1.94-.464-2.645-1.171-.704-.706-1.118-1.651-1.162-2.647-.01-.569.099-1.133.32-1.657s.549-.996.963-1.385c.415-.39.905-.689 1.442-.877.536-.189 1.106-.263 1.673-.219 5.13-.691 9.711-1.123 14.776-1.401 74.928-5.165 150.387-3.037 225.226.846 2.199-.178 4.138 1.832 4.173 3.96-.13 5.762-7.016 3.989-10.798 3.96-77.765-4.049-156.263-6.259-233.968.591z"/><path d="m317.687 175.411c-1.223-.048-2.364-.095-3.321 0-43.259-2.429-86.714-2.128-130.12-1.832-30.888.218-61.759.419-92.4877-.337-1.1469-.629-2.3952-1.051-3.6881-1.248-1.9272-.653-3.9037-1.151-5.9105-1.489-.7743-.165-1.5544-.313-2.3287-.461-.3133-.118-.5911-.213-.9103-.313-1.0659-.342-2.1787-.516-3.2981-.514-.065 0-.1358 0-.2008-.03.0604.014.1216.024.1832.03h-.0651c-.8917-.154-1.7916-.257-2.6952-.308.074-.558.2716-1.093.5784-1.565.3067-.473.7148-.871 1.1948-1.165 2.6242-1.85 5.9106-1.915 8.9663-1.502 12.7608 1.649 25.5388 1.289 38.3528.94 7.684-.195 15.368-.408 23.051-.177 17.844.343 35.711.195 53.579.047 22.318-.183 44.66-.36 66.966.443 9.971-.177 19.96.201 29.931.591 8.948.361 17.897.71 26.833.662.554-.147 1.132-.178 1.698-.092s1.109.287 1.593.592c.485.305.902.707 1.224 1.181.323.473.544 1.007.651 1.57.26 4.409-3.487 5.06-7.358 5.06-.792-.024-1.62-.054-2.418-.083z"/><path d="m86.5508 171.758h.3656c-.1061.041-.2418.041-.3656 0z"/><path d="m78.9317 169.702c-1.0648-.346-2.1785-.518-3.298-.509-.065 0-.1358 0-.2008-.035.065 0 .1358 0 .1831.035h-.065c-1.0825-.213-2.1828-.324-3.2861-.331h-.337c-.3615-.788-.4976-1.661-.3933-2.521.1043-.861.445-1.676.9844-2.355 1.4362-1.832 2.577-4.622 5.2662-4.675 4.4563.035 5.201 5.118 2.3641 7.796.063.483.028.974-.103 1.443s-.3553.907-.6595 1.287z"/><path d="m95.0376 173.981c-3.7591-.107-7.725-.444-11.3894-.497-3.9068-.378-8.3395.721-11.9094-1.182-5.5144-3.859 3.4161-15.001 8.3395-13.937 3.1207.692 4.4564 5.006 1.7435 7.051 4.7283.119 9.2854.331 14.0078.591 5.1594.592 4.3854 8.37-.792 7.974z"/><path d="m316.83 201.903c-77.723-2.985-155.5-.083-233.2525-.999-4.9117-.195-5.0949-7.761 0-7.939 79.7155.633 159.4425-1.773 239.1225.976 5.118-.119 5.532 7.755.266 7.979-2.063.06-4.114.042-6.136-.017z"/><path d="m366.188 259.72c-46.522-2.281-93.256-1.046-139.884-1.649-17.814-.26-35.516-1.324-53.313-.827-12.678-.201-25.456 2.447-38.057 1.554-4.64-1.241-3.659-8.18 1.3-7.843 25.628-.84 51.362-3.05 77.055-1.082 34.027.514 68.071 0 102.104.834 17.14.141 34.346-.627 51.421 1.046 3.547.112 9.25-1.076 9.605 3.889-.142 5.455-6.638 4.066-10.349 4.078z"/><path d="m131.99 257.691-.343-.295-.165-.13c.183.142.372.301.591.443-20.516-16.342-36.6451-37.094-54.2524-56.298-4.2083-3.315.721-9.456 4.6869-6.46 15.4027 15.444 28.0095 33.412 44.6415 47.633 3.428 3.428 7.158 6.372 10.68 9.557 3.157 3.695-2.251 8.908-5.839 5.55z"/><path d="m372.147 259.459c-.68-.159-1.308-.491-1.821-.964-.514-.473-.896-1.072-1.11-1.736-.213-.665-.251-1.374-.109-2.058.141-.684.458-1.319.918-1.844-14.416-18.228-31.355-34.417-48.501-50.021-7.825-2.672 0-12.72 5.201-6.135 16.98 14.746 32.805 30.771 47.337 47.934 2.24 2.613 3.546 4.805 5.402 7.495 2.228 4.639-2.937 8.552-7.317 7.329z"/><path d="m133.078 288.368c-1.022-.257-1.904-.903-2.456-1.801-.553-.898-.732-1.977-.499-3.005.591-2.643 3.174-3.293 5.567-2.956 3.168-.581 6.364-.993 9.575-1.235 75.005-4.315 150.506-.828 225.724-1.218 4.911.148 5.148 7.761.029 7.939-79.26.662-159.159-3.807-237.94 2.276z"/><path d="m84.1337 343.904c-5.6032.803-7.0513-7.419-1.1821-7.957 8.7711.538 17.4064-.295 26.1484-.662 71.859-1.099 143.743.201 215.615.644 4.492.982 3.699 7.981-.893 7.88-80.146-.213-160.174-1.992-240.2439.065z"/><path d="m322.739 341.332c-4.397-3.41.592-7.725 3.299-10.272-.089.094-.184.177-.272.26 14.871-16.012 27.999-33.632 43.432-49.106.378-4.764 7.867-4.545 7.908.272.052 1.08-.151 2.157-.592 3.144-.442.987-1.11 1.856-1.95 2.536-12.412 12.253-22.839 26.32-34.589 39.2-3.759 4.527-7.849 8.866-11.762 13.228-.661.775-1.586 1.28-2.596 1.416s-2.034-.105-2.878-.678z"/><path d="m79.6884 341.224c-6.7617-3.12-.2187-9.243 2.9552-12.228 8.8186-9.859 18.0274-20.048 27.7204-28.914 6.052-6.159 12.412-11.957 18.855-17.678 1.182-1.117 2.695-2.305 4.362-2.282 4.391-.171 5.65 6.265 1.489 7.737-17.732 15.468-33.997 32.614-49.7017 49.92-1.3831 2.033-2.6537 4.409-5.6799 3.445z"/><path d="m130.651 283.832c80.39-6.845 161.874-2.026 242.749-2.561-14.52 17.236-27.323 36.3-41.663 53.767l-.056.064c-1.405 1.47-3.246 3.419-4.253 5.459-74.538-.549-149.107-2.04-223.627-.746-7.8349.373-15.5456 1.14-23.3806.985 15.8877-19.747 32.3476-39.282 50.2306-56.968z"/><path d="m374.765 254.904c-.842 0-1.648.06-2.373.04-17.775-1.917-35.66-1.036-53.491-1.204-35.396-.935-70.816-.356-106.212-.935-26.641-2.239-53.331.242-79.929 1.197-3.246-3.113-6.591-6.052-9.72-9.502-15.095-14.123-26.9979-31.487-40.4443-47.378 79.2583.881 158.5413-2.199 237.7693 1.11 1.033.033 2.078.053 3.111.053.547.437 1.155.773 1.801.996 17.437 17.377 34.701 35.394 49.488 55.623z"/><path d="m374.834 115.579c.719 0 1.553.072 2.411.143-16.362 17.228-31.671 35.382-47.415 53.19-.42.302-.78.685-1.06 1.128-9.469.059-18.976-.326-28.477-.724-10.649-.437-21.324-.861-31.973-.652-23.824-.894-47.68-.692-71.523-.49-19.083.163-38.16.327-57.224-.058-8.207-.255-16.413 0-24.62.202-13.686.385-27.3339.783-40.9693-1.038-.3346-.059-.6312-.091-.9847-.13.0379-.052.0694-.124.1073-.183 16.9622-17.554 33.9937-35.238 52.6727-50.801 82.715-7.478 166.245-5.038 249.055-.587z"/></g></svg>