<svg fill="none" height="288" viewBox="0 0 288 288" width="288" xmlns="http://www.w3.org/2000/svg" xmlns:xlink="http://www.w3.org/1999/xlink"><clipPath id="a"><path d="m0 0h288v288h-288z"/></clipPath><g clip-path="url(#a)"><circle cx="144" cy="144" fill="#fff" r="144"/><path d="m187.58 79.81-30.1 44.69c-.429.644-.61 1.421-.51 2.187.1.767.474 1.472 1.054 1.984.579.513 1.324.798 2.097.803.774.005 1.523-.27 2.109-.774l29.63-25.7c.174-.155.389-.257.619-.292s.466-.002.678.094c.212.097.392.253.516.449.125.197.19.426.187.659v80.46c0 .246-.076.487-.217.688-.142.202-.342.355-.573.439-.232.085-.484.095-.722.031-.237-.064-.45-.199-.608-.388l-89.56-107.21c-1.441-1.701-3.2343-3.0679-5.2565-4.0057-2.0222-.9377-4.2244-1.4237-6.4535-1.4243h-3.13c-4.0684 0-7.9702 1.6162-10.847 4.493s-4.493 6.7786-4.493 10.847v113.32c0 4.068 1.6162 7.97 4.493 10.847s6.7786 4.493 10.847 4.493c2.6232.001 5.2027-.671 7.4926-1.951 2.2898-1.279 4.2134-3.124 5.5874-5.359l30.1-44.69c.429-.644.61-1.421.51-2.188-.1-.766-.474-1.471-1.054-1.983-.579-.513-1.324-.798-2.097-.803-.774-.005-1.523.27-2.109.774l-29.63 25.7c-.1736.155-.3888.257-.6191.292s-.4659.002-.678-.094c-.212-.097-.3914-.253-.5163-.449-.1248-.197-.1896-.426-.1866-.659v-80.48c.0001-.246.076-.487.2174-.688.1414-.202.3414-.355.5729-.439.2316-.085.4834-.095.7212-.031.2379.064.4504.199.6085.388l89.55 107.23c1.441 1.701 3.234 3.068 5.257 4.006 2.022.937 4.224 1.423 6.453 1.424h3.13c2.015.001 4.011-.394 5.873-1.165 1.863-.77 3.555-1.9 4.98-3.324 1.426-1.425 2.557-3.117 3.328-4.978.772-1.862 1.169-3.858 1.169-5.873v-113.32c0-4.0684-1.616-7.9702-4.493-10.847s-6.779-4.493-10.847-4.493c-2.623-.0007-5.203.6709-7.493 1.9506-2.289 1.2797-4.213 3.1248-5.587 5.3594z" fill="#000"/></g></svg>