<svg width="400" height="400" viewBox="0 0 400 400" fill="none" xmlns="http://www.w3.org/2000/svg">
<rect width="400" height="400" fill="white"/>
<mask id="mask0_1332_21" style="mask-type:luminance" maskUnits="userSpaceOnUse" x="20" y="20" width="360" height="360">
<path d="M380 20H20V380H380V20Z" fill="white"/>
</mask>
<g mask="url(#mask0_1332_21)">
<mask id="mask1_1332_21" style="mask-type:luminance" maskUnits="userSpaceOnUse" x="20" y="20" width="360" height="360">
<path d="M20 20H380V380H20V20Z" fill="white"/>
</mask>
<g mask="url(#mask1_1332_21)">
<path d="M212.764 380H200C100.589 380 20 299.411 20 200C20 100.589 100.589 20 200 20C299.411 20 380 100.589 380 200C380.002 208.775 379.368 217.539 378.102 226.222H352.906C354.377 217.559 355.115 208.787 355.111 200C355.111 114.334 285.666 44.8888 200 44.8888C114.334 44.8888 44.8888 114.335 44.8888 200C44.8888 285.665 114.335 355.111 200 355.111H292.254C268.696 369.153 241.668 377.98 212.764 380Z" fill="#06070A"/>
<path d="M326.737 328.444H200C129.062 328.444 71.5551 270.938 71.5551 200C71.5551 129.062 129.062 71.555 200 71.555C270.938 71.555 328.444 129.062 328.444 200C328.444 208.979 327.521 217.75 325.763 226.222H300.21C302.392 217.856 303.556 209.071 303.556 200C303.556 142.808 257.192 96.4445 200 96.4445C142.808 96.4445 96.4446 142.808 96.4446 200C96.4446 257.192 142.808 303.556 200 303.556H347.791C341.534 312.467 334.488 320.797 326.737 328.444Z" fill="#06070A"/>
<path d="M363.29 276.888H200C157.536 276.888 123.111 242.464 123.111 200C123.111 157.536 157.536 123.111 200 123.111C242.464 123.111 276.888 157.536 276.888 200C276.888 209.201 275.268 218.034 272.298 226.222H244.917C249.42 218.529 252 209.578 252 200C252 171.281 228.719 148 200 148C171.281 148 148 171.281 148 200C148 228.719 171.281 252 200 252H372.839C370.278 260.522 367.086 268.841 363.29 276.888Z" fill="#06070A"/>
</g>
</g>
</svg>
