<svg fill="none" height="439" viewBox="0 0 439 439" width="439" xmlns="http://www.w3.org/2000/svg"><path d="m439 219.5c0 121.226-98.274 219.5-219.5 219.5s-219.5-98.274-219.5-219.5 98.274-219.5 219.5-219.5 219.5 98.274 219.5 219.5z" fill="#ffd15c"/><path d="m381.027 185.904c-11.104-15.549-22.889-23.7-30.266-27.66-2.59-4.759-5.459-9.446-8.61-14.052-9.081-13.275-18.544-24.786-28.12-34.214-8.956-8.816-18.3-16.0912-27.772-21.6223-16.484-9.6277-33.579-14.3241-52.265-14.359-.072 0-.142 0-.214 0-17.107 0-32.731 3.892-45.765 7.7026-3.741 1.0928-7.54 2.2762-11.222 3.4247-9.409 2.9294-18.298 5.6985-25.798 6.933-5.11.8417-9.116 2.7691-11.902 5.7288-2.631 2.7942-4.199 6.5312-4.657 11.1042-.855 8.553 2.179 20.013 8.775 33.142 13.194 26.261 38.466 55.172 64.385 73.657 2.66 1.898 5.183 3.99 7.554 6.248-.035.009-.07.016-.107.023-20.155 2.878-30.657 24.54-34.909 36.244-1.109 3.052 1.908 5.787 4.989 4.747 12.213-4.117 36.827-10.706 51.238-2.855 2.692 12.876 1.557 25.5-3.302 35.365-2.98 6.05-7.226 10.886-12.62 14.376-5.817 3.764-12.843 5.868-20.887 6.256-8.717.421-18.598-1.183-29.367-4.768-11.718-3.902-24.586-10.184-38.246-18.675l-.253-.155-.263-.14c-.155-.084-.318-.177-.481-.274 19.553-23.564 7.631-59.15 2.86-70.881-.637-1.565-2.795-1.554-3.655-.098-11.172 18.916-34.0864 17.512-33.6796 40.04-.0093-.018-.0186-.034-.0279-.051-17.5186-14.245-30.5221 4.706-52.321 1.86-1.6763-.218-3.0131 1.477-2.1715 2.941 6.2867 10.949 26.8766 42.089 57.3244 41.392 1.2086 1.318 2.6066 2.843 3.6896 4.041l3.674 4.054c14.921 16.466 31.263 29.532 48.573 38.837 16.123 8.667 33.093 14.091 50.44 16.125 5.196.61 10.406.912 15.612.912 30.204 0 60.226-10.156 85.945-29.313 14.428-10.746 26.76-23.715 36.65-38.544 10.123-15.177 17.21-31.603 21.062-48.819 2.567-11.469 3.632-23.038 3.197-34.577 9.551-2.841 20.097 5.58 25.259 10.523 1.26 1.206 3.338.458 3.28-1.286-.267-7.905-2.534-24.996-15.626-43.333zm-87.033 143.788c-25.956 18.4-56.471 26.59-86.286 23.094-15.129-1.774-29.976-6.531-44.13-14.141-13.513-7.263-26.438-17.158-38.502-29.466 26.96 16.372 51.049 24.654 71.702 24.654 1.221 0 2.43-.028 3.625-.086 11.199-.542 21.169-3.593 29.636-9.073 8.112-5.247 14.461-12.45 18.874-21.403 3.929-7.975 6.115-16.944 6.496-26.665.356-9.075-.867-18.349-3.638-27.565-5.82-19.341-17.863-36.297-33.91-47.743-11.885-8.477-23.808-19.467-34.472-31.778-8.628-9.958-15.966-20.211-21.471-29.971l.002-.012s-.044-.067-.114-.188c-.056-.1-.112-.2-.167-.3-.914-1.706-3.316-7.368 4.252-8.449 71.493-10.211 216.961 125.609 128.103 199.092z" fill="#000"/><path d="m165.891 130.6c-7.57 1.081-5.166 6.74-4.252 8.449.055.1.111.2.167.3.072.121.114.188.114.188l-.002.012c5.505 9.76 12.843 20.013 21.471 29.971 10.667 12.311 22.587 23.301 34.472 31.778 16.049 11.446 28.092 28.402 33.909 47.743 2.772 9.216 3.995 18.49 3.639 27.565-.381 9.718-2.567 18.69-6.496 26.665-4.413 8.953-10.762 16.156-18.874 21.403-8.468 5.478-18.439 8.531-29.636 9.073-1.195.058-2.407.086-3.625.086-20.653 0-44.742-8.282-71.702-24.654 12.064 12.308 24.989 22.203 38.502 29.466 14.154 7.61 29.001 12.367 44.13 14.141 29.815 3.494 60.33-4.697 86.286-23.094 88.858-73.483-56.61-209.303-128.103-199.092z" fill="#fff"/><path d="m115.693 293.02c0 .002.034.009.093.016-.065-.016-.096-.018-.093-.016z" fill="#000"/><path d="m118.599 291.734c.023-.035.035-.055.035-.055-.003-.003-.014.016-.035.055z" fill="#000"/><path d="m240.364 125.636c-2.481-3.475-7.447-12.908 7.945-12.908 15.393 0 38.91 17.428 43.693 23.875-1.491 3.93-11.421 4.808-16.384 4.427-4.966-.381-13.406-1.197-19.86-4.427-6.457-3.229-12.911-7.491-15.394-10.967z" fill="#fff"/></svg>