<svg width="256" height="256" viewBox="0 0 256 256" fill="none" xmlns="http://www.w3.org/2000/svg">
<g clip-path="url(#clip0_936_3353)">
<rect width="256" height="256" fill="#EEDFDD"/>
<path d="M181.161 91.8702C178.428 89.1371 163.168 78.4326 155.88 73.4219C158.613 72.9664 164.767 71.5936 167.5 70.5004C170.916 69.1338 185.301 55.9009 193.5 60.0005C201.699 64.1001 195.448 92.5535 198.926 98.0193C200.23 100.069 208.346 119.446 209.858 123.984C210.542 126.033 201.659 117.379 196.876 112.368L198.926 109.635L181.161 91.8702Z" fill="#774C46"/>
<path d="M99.1686 91.8705C100.262 88.5908 121.489 77.2941 131.966 72.0557C127.866 71.3714 117.617 73.4217 103.951 74.105C89.6028 76.1542 69.1047 48.4813 58.8556 43.3581C54.7558 41.3087 50.6564 41.4224 45.8735 54.974C41.7738 66.5895 45.1442 92.921 51 108.269C53.1628 113.938 60.9004 155.835 65 169.5C68.8719 164.034 77.7139 154.731 76.6207 154.731C75.2542 154.731 73.2043 151.315 74.5709 147.899C75.6641 145.166 83.2256 138.561 86.8698 135.6C85.7309 135.372 83.18 133.687 82.0868 128.767C80.9936 123.848 92.1081 113.052 97.802 108.269C97.1188 107.358 95.479 104.989 94.3857 102.803C93.2925 100.616 100.307 97.7922 103.951 96.6534C101.902 96.4257 98.0754 95.1502 99.1686 91.8705Z" fill="#774C46"/>
<path d="M134.015 71.3714C125.816 71.3714 109.19 73.1934 101.902 74.1045C99.8519 73.649 94.7957 72.1913 90.9693 70.0047C86.1864 67.2716 64.3218 45.4071 58.8556 42.6741C53.3895 39.941 46.5568 45.4071 44.507 61.1223C42.4572 76.8375 47.2401 95.2859 47.9233 98.019C48.6066 100.752 59.5389 140.382 62.272 159.513C65.0051 178.645 92.3359 212.808 138.115 214.858C183.894 216.908 205.759 184.111 211.225 154.047C216.691 123.983 200.976 106.218 198.243 98.019C195.51 89.8197 201.659 68.6383 195.51 61.1223C189.36 53.6064 166.812 70.6881 163.396 72.7379C159.98 74.7877 144.264 71.3714 134.015 71.3714Z" stroke="#462C27" stroke-width="3"/>
<path d="M73.2043 85.0371L76.6206 88.4534V77.5211C76.6206 75.4713 65.0051 48.8238 56.8058 51.5568C48.6066 54.2899 49.9731 87.0869 49.9731 91.1865C49.9731 94.4662 56.8058 103.03 60.2222 106.902L61.5887 102.119L67.0549 103.485V96.6527L71.1545 98.0192L73.2043 85.0371Z" fill="#B26565"/>
<path d="M45.8735 67.9552C45.3269 76.7011 48.6066 87.5429 49.9731 91.187L49.9731 78.2048C49.9731 72.0554 51.3397 53.1191 56.8058 51.5573C61.5887 50.1908 69.7879 63.1723 67.0549 57.7062C64.3218 52.24 56.8058 44.7245 53.3895 45.4077C49.9731 46.091 46.5567 57.0229 45.8735 67.9552Z" fill="#F1D5D2"/>
<path d="M176 70.5C180.1 65.9449 189.087 57.5693 193.46 62.4889C198.926 68.6383 195.51 85.7197 196.193 93.2357C196.533 96.9776 196.481 98.4709 196.447 98.9553L196.5 98.9997C196.414 99.1718 196.427 99.2493 196.447 98.9553L192.093 95.2855C192.549 85.9474 194.007 68.228 190.727 66.5881C187.447 64.9483 179.644 68.6778 176 70.5Z" fill="#F1D5D2"/>
<path d="M174.328 71.3706C171.049 73.5571 171.07 79.5704 174.328 82.303C181.389 88.2248 195.236 99.2486 194.143 95.9689C192.777 91.8692 195.168 74.7875 191.41 67.271C189.36 63.1714 178.428 68.6376 174.328 71.3706Z" fill="#B26565"/>
<path d="M156.023 104.953C155.601 105.384 150.795 105.57 150.341 105.173L139.892 99.8882C139.117 99.2112 138.121 98.2497 139.76 96.4788C140.634 95.5343 146.628 97.2185 152.326 97.6624C157.311 98.0507 162.054 97.0929 163.145 97.8472C165.485 99.4636 163.998 100.521 163.278 101.257L156.023 104.953Z" fill="#C98C89"/>
<path d="M153.857 104.745L153.94 102.392L153.163 102.322C152.736 102.264 152.339 102.329 152.268 102.457C152.198 102.585 152.11 103.513 152.074 104.539C152.012 106.141 151.923 106.419 151.548 106.434C150.974 106.456 150.893 105.659 151.208 102.823C151.392 101.117 151.381 100.842 150.993 100.507C150.423 99.9797 149.692 100.458 149.824 101.277C150.344 104.381 150.322 104.457 149.179 103.352C148.452 102.63 146.184 101.519 145.076 101.287C144.698 101.227 144.265 101.019 144.083 100.826C143.926 100.632 143.645 100.493 143.495 100.499C142.672 100.531 141.2 99.963 140.426 99.3184C139.395 98.5087 139.205 97.4915 139.901 96.7397C140.283 96.3 140.309 96.324 140.457 96.918C140.817 98.4535 142.641 99.0824 147.195 99.2304C149.773 99.3302 151.061 99.68 152.275 100.682C153.255 101.469 154.258 101.555 154.581 100.868C154.697 100.638 155.182 100.27 155.65 100.077C156.388 99.773 156.763 99.7834 158.377 100.17C161.406 100.928 161.431 100.927 162.272 100.069C162.705 99.6275 163.033 99.065 163.021 98.7655C163.01 98.4661 163.126 98.2367 163.25 98.2318C163.4 98.226 163.518 98.6962 163.541 99.2702C163.595 100.668 162.789 101.798 161.358 102.279C159.041 103.094 157.57 103.826 156.847 104.528C156.439 104.944 156.049 105.209 155.97 105.112C155.685 104.848 156.279 103.401 156.972 102.599C157.883 101.589 157.754 100.844 156.677 100.786C155.35 100.713 154.951 101.378 154.852 103.981C154.739 106.235 154.547 107.067 154.048 107.086C153.873 107.093 153.796 106.396 153.857 104.745Z" fill="#A46061"/>
<ellipse cx="149.731" cy="150.631" rx="53.2951" ry="45.7791" fill="#1E0D05"/>
<path d="M109.998 90.4028C112.593 88.4231 116.857 87.2629 120.097 87.6551L124.149 88.1454C130.356 88.8966 128.223 94.202 120.915 96.1904L113.618 98.1758C106.31 100.164 101.783 96.6708 106.753 92.8786L109.998 90.4028Z" fill="black"/>
<ellipse cx="112.989" cy="90.9557" rx="1.36654" ry="0.68327" transform="rotate(-21.4428 112.989 90.9557)" fill="white"/>
<ellipse cx="119.667" cy="89.8197" rx="4.09962" ry="1.36654" fill="white"/>
<path d="M174.131 88.5969C177.09 88.8192 180.958 90.321 183.292 92.1539L186.211 94.4461C190.682 97.957 186.501 99.7716 179.872 97.1976L173.252 94.6274C166.622 92.0534 164.762 87.8931 170.43 88.3189L174.131 88.5969Z" fill="black"/>
<ellipse cx="177.161" cy="90.7355" rx="1.36654" ry="0.68327" transform="rotate(10.2349 177.161 90.7355)" fill="white"/>
<ellipse cx="182.634" cy="93.1361" rx="4.09962" ry="1.36654" transform="rotate(31.6777 182.634 93.1361)" fill="white"/>
</g>
<defs>
<clipPath id="clip0_936_3353">
<rect width="256" height="256" rx="128" fill="white"/>
</clipPath>
</defs>
</svg>
