<svg viewBox="0 0 250 250" xmlns="http://www.w3.org/2000/svg"><g fill="none" stroke="#9db7f7" stroke-width="2"><path d="m79.38 123.15q-1.47 9-9.85 61.85-.62 3.95.26 6.78 2.09 6.69 9.64 6.86.97.03 29.92.03 5.15 0 7.59-1.27 4.04-2.1 4.83-6.9 1.64-9.89 6.31-38.97a.77.77 0 0 1 .76-.65q1.64.01 12.11.02 7.78.01 12.07-.86 19.16-3.91 30.64-19.14c11.04-14.66 13.2-34.53 5.16-51.21q-7.36-15.28-23.13-23.38-10.45-5.37-24.94-5.37-35.35.01-36.58 0-6.93 0-9.22.96-4.9 2.07-5.86 8.49-1.28 8.5-2.85 18.5-.08.51-.6.51-2.01-.03-12.22-.09-4.01-.03-5.73 1.07-3.21 2.03-3.24 5.75-.04 4.57 3.26 6.4 1.8 1.01 6.33 1.02 4.11.01 9.46.03a.35.35 0 0 1 .35.4l-2.17 14.01a.48.47 4.2 0 1 -.47.4q-12.25-.04-12.36-.04-3.76-.09-5.48.96c-4.62 2.82-4.72 9.31-.35 12.14q2.15 1.39 6.72 1.16 1.39-.08 9.2.01a.45.45 0 0 1 .44.53"/><path d="m115.65 141.92q3.51-5.15 7.87-5.21 7.19-.09 13.99-.04 9.56.07 13.93-1c13.2-3.21 23.46-12.95 26.89-26.06 4.8-18.41-6.11-37.21-24.43-42.84q-5.62-1.73-14.14-1.55-7.01.14-36.46.06-.51 0-.59.5l-2.05 13.23a.36.35-85.8 0 0 .35.41q35.56.04 37.95.04 7.6-.02 11.31 1.44c11.56 4.54 17.65 18.24 11.7 29.58q-6.29 12.02-19.94 12.09-5.52.02-47.62.02-.61 0-.71.61l-9.38 60.62q-.09.59.51.59h22.95q.55 0 .64-.54 4.91-30.61 6.48-39.32.38-2.08.75-2.63"/><path d="m98.76 93.62a.49.48 4.1 0 0 -.48.41l-2.16 13.95a.34.33-85.6 0 0 .33.39q42.76 0 46.32 0c7.25-.02 9.97-9.95 3.68-13.56q-1.85-1.07-5.65-1.08-20.93-.08-42.04-.11"/></g><path d="m128.15 250h-6.53q-53.24-2.43-88.57-40.55c-27.52-29.71-38.68-72.42-29.51-112.18 14.4-62.38 73.69-104.13 137.46-95.77q29.18 3.83 53.34 20.14c55.28 37.32 71.81 111.47 36.87 168.6q-15.38 25.13-40.69 41.04-27.82 17.49-62.37 18.72zm-48.77-126.85q-1.47 9-9.85 61.85-.62 3.95.26 6.78 2.09 6.69 9.64 6.86.97.03 29.92.03 5.15 0 7.59-1.27 4.04-2.1 4.83-6.9 1.64-9.89 6.31-38.97a.77.77 0 0 1 .76-.65q1.64.01 12.11.02 7.78.01 12.07-.86 19.16-3.91 30.64-19.14c11.04-14.66 13.2-34.53 5.16-51.21q-7.36-15.28-23.13-23.38-10.45-5.37-24.94-5.37-35.35.01-36.58 0-6.93 0-9.22.96-4.9 2.07-5.86 8.49-1.28 8.5-2.85 18.5-.08.51-.6.51-2.01-.03-12.22-.09-4.01-.03-5.73 1.07-3.21 2.03-3.24 5.75-.04 4.57 3.26 6.4 1.8 1.01 6.33 1.02 4.11.01 9.46.03a.35.35 0 0 1 .35.4l-2.17 14.01a.48.47 4.2 0 1 -.47.4q-12.25-.04-12.36-.04-3.76-.09-5.48.96c-4.62 2.82-4.72 9.31-.35 12.14q2.15 1.39 6.72 1.16 1.39-.08 9.2.01a.45.45 0 0 1 .44.53z" fill="#3b6fef"/><path d="m79.38 123.15a.45.45 0 0 0 -.44-.53q-7.81-.09-9.2-.01-4.57.23-6.72-1.16c-4.37-2.83-4.27-9.32.35-12.14q1.72-1.05 5.48-.96.11 0 12.36.04a.48.47 4.2 0 0 .47-.4l2.17-14.01a.35.35 0 0 0 -.35-.4q-5.35-.02-9.46-.03-4.53-.01-6.33-1.02-3.3-1.83-3.26-6.4.03-3.72 3.24-5.75 1.72-1.1 5.73-1.07 10.21.06 12.22.09.52 0 .6-.51 1.57-10 2.85-18.5.96-6.42 5.86-8.49 2.29-.96 9.22-.96 1.23.01 36.58 0 14.49 0 24.94 5.37 15.77 8.1 23.13 23.38c8.04 16.68 5.88 36.55-5.16 51.21q-11.48 15.23-30.64 19.14-4.29.87-12.07.86-10.47-.01-12.11-.02a.77.77 0 0 0 -.76.65q-4.67 29.08-6.31 38.97-.79 4.8-4.83 6.9-2.44 1.27-7.59 1.27-28.95 0-29.92-.03-7.55-.17-9.64-6.86-.88-2.83-.26-6.78 8.38-52.85 9.85-61.85zm36.27 18.77q3.51-5.15 7.87-5.21 7.19-.09 13.99-.04 9.56.07 13.93-1c13.2-3.21 23.46-12.95 26.89-26.06 4.8-18.41-6.11-37.21-24.43-42.84q-5.62-1.73-14.14-1.55-7.01.14-36.46.06-.51 0-.59.5l-2.05 13.23a.36.35-85.8 0 0 .35.41q35.56.04 37.95.04 7.6-.02 11.31 1.44c11.56 4.54 17.65 18.24 11.7 29.58q-6.29 12.02-19.94 12.09-5.52.02-47.62.02-.61 0-.71.61l-9.38 60.62q-.09.59.51.59h22.95q.55 0 .64-.54 4.91-30.61 6.48-39.32.38-2.08.75-2.63zm-16.89-48.3a.49.48 4.1 0 0 -.48.41l-2.16 13.95a.34.33-85.6 0 0 .33.39q42.76 0 46.32 0c7.25-.02 9.97-9.95 3.68-13.56q-1.85-1.07-5.65-1.08-20.93-.08-42.04-.11z" fill="#fff"/><g fill="#3b6fef"><path d="m115.65 141.92q-.37.55-.75 2.63-1.57 8.71-6.48 39.32-.09.54-.64.54h-22.95q-.6 0-.51-.59l9.38-60.62q.1-.61.71-.61 42.1 0 47.62-.02 13.65-.07 19.94-12.09c5.95-11.34-.14-25.04-11.7-29.58q-3.71-1.46-11.31-1.44-2.39 0-37.95-.04a.36.35-85.8 0 1 -.35-.41l2.05-13.23q.08-.5.59-.5 29.45.08 36.46-.06 8.52-.18 14.14 1.55c18.32 5.63 29.23 24.43 24.43 42.84-3.43 13.11-13.69 22.85-26.89 26.06q-4.37 1.07-13.93 1-6.8-.05-13.99.04-4.36.06-7.87 5.21z"/><path d="m98.76 93.62q21.11.03 42.04.11 3.8.01 5.65 1.08c6.29 3.61 3.57 13.54-3.68 13.56q-3.56 0-46.32 0a.34.33-85.6 0 1 -.33-.39l2.16-13.95a.49.48 4.1 0 1 .48-.41z"/></g></svg>