<svg fill="none" height="32" width="32" xmlns="http://www.w3.org/2000/svg" xmlns:xlink="http://www.w3.org/1999/xlink"><linearGradient id="a"><stop offset="0" stop-color="#c200fb"/><stop offset=".49" stop-color="#3772ff"/><stop offset="1" stop-color="#5ac4be"/></linearGradient><linearGradient id="b" gradientUnits="userSpaceOnUse" x1="27.979" x2="2.371" xlink:href="#a" y1="8.918" y2="18.923"/><linearGradient id="c" gradientUnits="userSpaceOnUse" x1="27.979" x2="2.372" xlink:href="#a" y1="8.919" y2="18.923"/><linearGradient id="d" gradientUnits="userSpaceOnUse" x1="27.979" x2="2.371" xlink:href="#a" y1="8.919" y2="18.923"/><path d="m26.747 12.463v9.89l-10.747 6.35-10.753-6.35v-12.706l10.753-6.357 8.26 4.883 1.246-.736-9.506-5.619-12 7.093v14.178l12 7.093 12-7.093v-11.362z" fill="url(#b)"/><path d="m12.991 22.36h-1.798v-6.173h5.994a2.134 2.134 0 0 0 1.508-.653c.4-.412.624-.969.626-1.55a2.144 2.144 0 0 0 -.63-1.54 2.078 2.078 0 0 0 -.688-.479 2.038 2.038 0 0 0 -.816-.164h-5.994v-1.878h6a3.947 3.947 0 0 1 2.799 1.197 4.135 4.135 0 0 1 1.169 2.865 4.01 4.01 0 0 1 -.701 2.3 3.93 3.93 0 0 1 -1.727 1.449 6.776 6.776 0 0 1 -2.146.33h-3.596z" fill="url(#c)"/><path d="m21.119 22.206h-2.099l-1.619-2.89a6.7 6.7 0 0 0 1.877-.392l1.84 3.282z" fill="url(#b)"/><path d="m25.494 10.408 1.241.705 1.24-.705v-1.491l-1.24-.736-1.24.736v1.49z" fill="url(#d)"/></svg>