<svg height="128" viewBox="0 0 128 128" width="128" xmlns="http://www.w3.org/2000/svg"><g fill="none" fill-rule="evenodd"><rect fill="#fea101" fill-rule="nonzero" height="128" rx="64" width="128"/><path d="m105.5 64c0-19.0538-15.4587-34.5-34.528-34.5-.89 0-1.7722.0336-2.6453.0997l-52.3267 2.3646 35.6073 3.4682-.0204.0138 12.7262.9537-14.3151.1924c-4.2458 3.2488-7.7148 7.4604-10.0802 12.3083l-12.8195 1.5457 11.5268 1.4596c-1.4101 3.7635-2.1811 7.8388-2.1811 12.094s.771 8.3305 2.1811 12.094l-11.5268 1.4596 12.8195 1.5457c2.3647 4.8465 5.8323 9.057 10.0765 12.3054l14.3188.1952-12.7263.9537c.0068.0046.0137.0092.0205.0139l-35.6073 3.4682 52.3267 2.3646c.8731.0661 1.7553.0997 2.6453.0997 19.0693 0 34.528-15.4462 34.528-34.5zm-47.476 0c0 7.1452 5.797 12.9375 12.948 12.9375s12.948-5.7923 12.948-12.9375-5.797-12.9375-12.948-12.9375-12.948 5.7923-12.948 12.9375z" fill="#fff"/></g></svg>