<svg fill="none" height="128" viewBox="0 0 128 128" width="128" xmlns="http://www.w3.org/2000/svg" xmlns:xlink="http://www.w3.org/1999/xlink"><clipPath id="a"><path d="m0 0h128v128h-128z"/></clipPath><g clip-path="url(#a)"><path clip-rule="evenodd" d="m52.48.7327-3.584.6262-3.84 1.17866c-2.5563.78464-5.0492 1.76247-7.4573 2.92505l-1.643.79321-.8889.42909c-2.9091 1.40417-5.6946 3.051-8.3271 4.92299-2.6329 1.8724-5.1116 3.9526-7.4123 6.2208l-.5155.5081-.5828.5746c-2.2558 2.2239-4.3202 4.6342-6.171 7.205-1.8516 2.5715-3.49784 5.2847-4.92352 8.1146l-.42994.8534-.63152 1.2538c-1.29137 2.5638-2.39001 5.2202-3.28681 7.9471-.89705 2.7267-1.58204 5.5186-2.048839 8.3509l-.016059.0974c-.477413 2.8966-.71775548 5.8273-.71863783 8.763l-.00072226 2.403-.00092902 3.0912c-.00074494 2.4787.18388711 4.954.55235311 7.4052.368119 2.4515.919984 4.8718 1.650934 7.2406l.3771 1.222c.98136 3.1814 2.22367 6.2763 3.71425 9.2532l.4181.8351.27236.5438c1.58742 3.1701 3.45638 6.1911 5.58438 9.0263l.063.084c2.087 2.781 4.403 5.383 6.9238 7.777l3.7883 3.598 3.3269 2.375c2.2149 1.58 4.5455 2.992 6.9721 4.223l1.4514.736.5569.282c3.0205 1.532 6.1662 2.804 9.403 3.801l1.305.402c2.3694.729 4.7899 1.281 7.2413 1.65 2.4511.37 4.9264.554 7.4051.553l3.0909-.002 3.4447-.002c2.2426-.001 4.4817-.177 6.697-.526l3.328-.524 4.608-1.321c3.0658-.878 6.0465-2.03 8.906-3.442l1.4149-.698.909-.449c3.1961-1.578 6.2389-3.448 9.0891-5.588l.107-.08c2.781-2.087 5.382-4.403 7.777-6.924l3.598-3.788 2.374-3.327c1.581-2.2154 2.992-4.5461 4.223-6.9728l.736-1.4514.283-.5569c1.532-3.0206 2.803-6.1665 3.8-9.4033l.402-1.305c.729-2.3695 1.281-4.7901 1.651-7.2416.369-2.4512.553-4.9266.552-7.4053l-.002-3.0911-.002-3.4447c-.001-2.2427-.177-4.4819-.526-6.6973l-.524-3.3281-1.319-4.6081c-.876-3.0658-2.03-6.0455-3.446-8.9024l-.639-1.2893-.555-1.1187c-1.473-2.9716-3.188-5.8175-5.126-8.5093-1.936-2.6903-4.114-5.1985-6.507-7.4933l-.526-.5049-1.107-1.062c-2.007-1.9253-4.152-3.7022-6.417-5.3167-2.2639-1.6143-4.6536-3.04494-7.146-4.27809l-1.8137-.89735-2.1883-1.08287c-2.2434-1.11017-4.5681-2.04784-6.954-2.80487-2.3862-.75746-4.8242-1.34066-7.2949-1.744991l-.6411-.104921c-2.8961-.473618-5.8272-.7011223-8.7617-.6800739l-3.0143.0216205-3.7857.0268925c-2.4214.0172004-4.8371.2354679-7.2223.6525529zm-5.59 25.4022c1.1952.7385 2.2097 1.7353 2.9692 2.9173l.2047.3186c.8868 1.3803 1.3583 2.9864 1.3583 4.627v.5592.5592c0 1.6407-.4715 3.2467-1.3583 4.627l-.1181.1838c-.8165 1.2708-1.9072 2.3425-3.192 3.1366-1.273.7867-2.7483 1.1838-4.2441 1.1424l-.7807-.0215-3.073-.085-1.5217-.1629c-.928-.0996-1.8294.3483-2.3106 1.1481l-.9052 1.5047c-1.1261 1.8712-2.0337 3.8655-2.7049 5.9437l-.3129.9685c-.8786 2.7192-1.4003 5.5411-1.5519 8.3947l-.0312.5871-.0236.4446c-.1568 2.9443.131 5.8953.8536 8.7538l.2536 1.0026c.5567 2.2014 1.3228 4.3443 2.288 6.3996.9638 2.053 2.1694 3.9836 3.5911 5.7507l.4644.5773c1.7313 2.152 3.69 4.1108 5.8419 5.8421l.5932.4773c1.7565 1.4132 3.6755 2.6116 5.7162 3.5697 2.0434.9594 4.1729 1.7239 6.3599 2.2833l.762.1949.2404.0614c2.5297.647 5.1306.9744 7.7417.9744s5.212-.3274 7.7417-.9744l.2404-.0614.762-.1949c2.1871-.5594 4.3165-1.3239 6.3599-2.2833 2.0407-.9581 3.9597-2.1565 5.7162-3.5697l.5932-.4773c2.1519-1.7313 4.1106-3.6901 5.8419-5.8421l.4813-.5982c1.4103-1.753 2.6024-3.6708 3.5502-5.7114.9493-2.0438 1.7108-4.1697 2.2751-6.3515l.203-.7849.0704-.2722c.6512-2.5184.9807-5.109.9807-7.7102 0-2.6017-.3261-5.1931-.9708-7.7137l-.0532-.2082-.2467-.9646c-.5171-2.0225-1.2144-3.9947-2.0834-5.8928-.8681-1.8962-1.9424-3.6911-3.2034-5.3521l-.7646-1.0072c-1.7666-2.3267-3.837-4.4062-6.1558-6.1832l-.0901-.069-1.0858-.832c-1.6602-1.2719-3.4583-2.353-5.3603-3.2227-1.9039-.871-3.8818-1.5701-5.9103-2.0888l-.9556-.2444-2.0991-.5369c-1.2648-.3235-2.5652-.4872-3.8708-.4872-1.0859 0-1.9661-.8802-1.9661-1.966v-.338-.64c0-.9162.7479-1.6561 1.664-1.6462 1.1074.0119 2.212.1157 3.3022.3103l2.2151.3953c2.5608.4567 5.0639 1.1926 7.4644 2.1946l.2156.09.4403.1838c2.2524.9403 4.4093 2.0947 6.441 3.4474 2.0324 1.3533 3.9361 2.8906 5.687 4.5926l.1493.1451c1.8489 1.7969 3.4963 3.7903 4.9127 5.9446l.3235.492.0672.1021c1.5873 2.4141 2.912 4.9909 3.9517 7.6866 1.038 2.6935 1.746 5.5031 2.108 8.3671l.072.5717c.41 3.2432.41 6.5251 0 9.7683l-.072.5717c-.362 2.864-1.07 5.6736-2.108 8.3671-1.0396 2.6956-2.366 5.2716-3.9566 7.6834l-.0695.1054-.5148.7806c-1.2949 1.9633-2.7853 3.7903-4.4485 5.4532-1.6628 1.6631-3.4898 3.1536-5.453 4.4486l-.7806.5148-.1054.0695c-2.4117 1.5906-4.9876 2.9171-7.6831 3.9566-2.6934 1.039-5.5029 1.747-8.3669 2.108l-.5716.073c-3.2431.409-6.5249.409-9.768 0l-.5171-.066c-2.9002-.366-5.7451-1.083-8.4726-2.135-2.7293-1.0525-5.359-2.4234-7.7885-4.0527l-.7602-.5097c-1.9434-1.3032-3.7589-2.7876-5.4222-4.4333-1.6629-1.6452-3.1503-3.4588-4.4383-5.4116l-.525-.796-.0695-.1054c-1.5905-2.4118-2.917-4.9878-3.9564-7.6834-1.0386-2.6935-1.7466-5.5031-2.1084-8.3671l-.0722-.5717c-.4097-3.2432-.4097-6.5251 0-9.7683l.0766-.6066c.3589-2.8408 1.0611-5.6277 2.0912-8.2994l.1702-.4412c.9183-2.3812 2.0793-4.6614 3.4645-6.8048l1.0172-1.5739c.6765-1.0468.8601-2.3375.5024-3.5315l-.1252-.418c-.2908-.9709-.4385-1.979-.4385-2.9925 0-1.0123.1636-2.0179.4845-2.9779l.0971-.2908c.3836-1.1476 1.002-2.2028 1.8158-3.0983l.1042-.1146c.8839-.9725 1.948-1.7643 3.1334-2.3315l.253-.1211c1.3406-.6415 2.8291-.9103 4.3094-.7782l.4358.0389.5712.0508c1.398.1245 2.7477.5736 3.9416 1.3117zm-8.7972 4.7868-.4012.4012c-.8577.8578-1.3396 2.0211-1.3396 3.2341s.4819 2.3763 1.3396 3.2341l.4012.4012.4864.4864c.8032.8032 1.8926 1.2545 3.0285 1.2545h.1457c1.0549 0 2.0792-.3545 2.9084-1.0066.8389-.66 1.494-1.5246 1.9025-2.5107l.0164-.0397.1044-.2518c.3475-.8386.4157-1.7668.1946-2.6472-.2224-.8869-.6814-1.6968-1.3279-2.3434l-.4825-.4824-.1393-.1393c-.8523-.8524-2.0083-1.3313-3.2138-1.3313-1.2054 0-2.3614.4789-3.2138 1.3313z" fill="#d00708" fill-rule="evenodd"/><ellipse cx="63.9785" cy="64.0005" fill="#fff" rx="14.848" ry="14.8485"/><circle cx="42.0428" cy="34.8372" fill="#d00708" r="5.93548"/></g></svg>