<svg width="214" height="300" fill="none" xmlns="http://www.w3.org/2000/svg"><path fill-rule="evenodd" clip-rule="evenodd" d="M0 23.078V208.16c.002 3.457.783 6.87 2.285 9.985a23.089 23.089 0 0 0 6.39 8.016l87.48 70.041a17.38 17.38 0 0 0 21.69 0l87.479-70.041a23.074 23.074 0 0 0 6.391-8.016 23.021 23.021 0 0 0 2.285-9.985V23.078c0-6.12-2.437-11.99-6.776-16.319A23.165 23.165 0 0 0 190.865 0H23.135A23.164 23.164 0 0 0 6.776 6.76 23.049 23.049 0 0 0 0 23.077z" fill="#004DE5"/><path d="M168.963 106.654V66.218c0-5.362-2.09-10.505-5.809-14.296-3.72-3.792-8.765-5.922-14.025-5.922H64.834c-5.26 0-10.305 2.13-14.025 5.922C47.09 55.713 45 60.856 45 66.218v117.327a20.54 20.54 0 0 0 1.959 8.747 20.156 20.156 0 0 0 5.479 7.023l30.693 25.12a2.434 2.434 0 0 0 2.632.317c.423-.206.78-.531 1.03-.936s.38-.874.38-1.352v-82.956c0-.671.26-1.313.725-1.787a2.456 2.456 0 0 1 1.753-.741h22.314c3.945 0 7.729 1.598 10.518 4.442 2.79 2.843 4.357 6.7 4.357 10.722v70.32c.001.476.133.942.382 1.345a2.49 2.49 0 0 0 1.025.932 2.448 2.448 0 0 0 2.622-.306l30.693-25.12a20.145 20.145 0 0 0 5.479-7.023 20.533 20.533 0 0 0 1.959-8.747v-36.456c0-5.362-2.09-10.504-5.809-14.296-3.72-3.791-8.765-5.921-14.025-5.921 5.254-.011 10.289-2.145 14.001-5.936 3.711-3.79 5.796-8.927 5.796-14.282zm-57.023 10.109H89.627a2.456 2.456 0 0 1-1.753-.741 2.551 2.551 0 0 1-.727-1.787v-45.49c0-.67.262-1.313.727-1.787a2.456 2.456 0 0 1 1.753-.74h34.709c.658 0 1.288.266 1.753.74.465.474.726 1.117.726 1.787V101.6c0 4.022-1.567 7.879-4.356 10.722-2.79 2.844-6.574 4.442-10.519 4.442z" fill="url(#a)"/><defs><linearGradient id="a" x1="107" y1="46" x2="107" y2="225" gradientUnits="userSpaceOnUse"><stop stop-color="#fff"/><stop offset=".458" stop-color="#fff"/><stop offset="1" stop-color="#fff"/></linearGradient></defs></svg>