<svg enable-background="new 0 0 400 400" viewBox="0 0 400 400" xmlns="http://www.w3.org/2000/svg" xmlns:xlink="http://www.w3.org/1999/xlink"><filter id="a" filterUnits="userSpaceOnUse" height="298.8" width="298.8" x="50.1" y="49.6"><feColorMatrix color-interpolation-filters="sRGB" result="source" type="matrix" values="-1 0 0 0 1  0 -1 0 0 1  0 0 -1 0 1  0 0 0 1 0"/></filter><linearGradient id="b" gradientUnits="userSpaceOnUse" x1="87.0246" x2="310.7061" y1="297.3203" y2="101.7892"><stop offset="0" stop-color="#ffb84f"/><stop offset=".1624" stop-color="#ffa953"/><stop offset=".4616" stop-color="#ff9258"/><stop offset=".7466" stop-color="#ff855b"/><stop offset="1" stop-color="#ff805c"/></linearGradient><mask id="c" height="298.8" maskUnits="userSpaceOnUse" width="298.8" x="50.1" y="49.6"><g filter="url(#a)"><image height="304" overflow="visible" transform="translate(48 47)" width="303" xlink:href="A8F9A2FFCBC0915.jpg"/></g></mask><circle cx="199.5" cy="199" fill="#ffd078" r="163"/><circle cx="199.5" cy="199" fill="url(#b)" r="149.4"/><g mask="url(#c)" opacity=".75"><circle cx="199.5" cy="199" r="149.4"/></g><path d="m153.4 261.7c-.5-.5-1-.8-1.5-1.1-.3-.2-.5-.2-.7-.3-.1 0-.1 0-.2 0-.9 0-1.7.8-2.4 1.5-5.3 5-10.6 9.9-16 14.9-10.5 9.8-21.1 19.7-31.6 29.5-1.5 1.4-2.2 2.1-2.1 2.8.1.6.8 1.3 2.2 2.5.9.8 1.4 1.3 1.9 1.5.1 0 .2.1.2.1h.2c.6 0 1.2-.6 2.4-1.7 7.5-7 15.1-14.1 22.6-21.1 3.8-3.6 7.7-7.2 11.5-10.7 4.6-4.3 9.2-8.6 13.8-12.9.5-.4.8-1 1.1-1.5.1-.1.2-.3.3-.4-.4-1.4-1-2.4-1.7-3.1z" fill="#fff"/><path d="m123.6 260.4 9.6-9c.6-.6 1.3-1.2 1.9-1.8.1-.1.3-.3.4-.4.4-.5.7-1 1.2-1.6 0-.1.1-.1.1-.2s.1-.1.1-.2c-.1-.1-.2-.2-.3-.4-.5-.5-1-1-1.4-1.5-.1-.2-.3-.3-.4-.4s-.3-.3-.4-.4c-.3-.3-.6-.5-.9-.8-1.1-.8-2.1.1-3 .9-1.2 1.1-2.4 2.3-3.7 3.4-3.7 3.4-7.3 6.8-11 10.2-5.2 4.9-10.5 9.7-15.7 14.6-3.8 3.5-7.6 7-11.4 10.5-1.5 1.4-2.9 2.7-4.4 4.1-.1.1-.2.2-.3.3-.2.2-.3.3-.5.5s-.3.3-.5.4c-.5.5-.9 1-1 1.4 0 .1-.1.2-.1.3v.3.3.1c.1.2.2.5.4.8 0 0 0 .1.1.1.3.5.8 1.2 1.5 2 .4.5.7.8.9 1.1 0 0 .1.1.1.1s.1.1.1.1c.6.5 1.1.2 2.2-.8.1 0 .1-.1.2-.1 10.8-10 21.6-20 32.3-30.1 1.4-1.4 2.6-2.6 3.9-3.8z" fill="#fff"/><image height="130" opacity=".75" overflow="visible" transform="translate(138.5105 129.5105)" width="133" xlink:href="A8F9A2FFCBC091B.png"/><g fill="#fff"><path d="m266.6 131.7c-2-.2-4-.3-5.7-.5-6.7.1-12.8 1.3-18.9 3.2-11.5 3.6-22.1 9.1-31.9 16.3-10.6 7.9-20.8 16.1-29.1 26.5-.7.9-1.8 1.6-2.9 1.9-6 1.5-12 2.8-18 4.4-1.2.3-2.6 1-3.4 1.9-4.9 5.3-9.6 10.7-14.3 16.2-1.7 1.9-1.4 2.4 1 3.2 6.4 2 12.8 4.1 19.1 6.3.5.2 1.1.9 1.1 1.4-.2 3.4.4 6.7 2.1 9.7.6 1.1.4 1.9-.5 2.9-1.9 2.1-3.8 4.2-5.6 6.4-.3.4-.4 1.5-.1 1.9 1.8 2 3.8 3.9 5.7 5.8 1 1 1.9.9 2.9-.1 1.8-1.9 3.8-3.6 5.5-5.6 1.1-1.2 2.2-1.7 3.8-.9.6.3 1.3.4 2 .4 2.8.1 5.6.1 8.5.1.8 0 1.4-.1 1.8 1 2.1 6.6 4.2 13.2 6.4 19.8.4 1.3 1.3 1.5 2.4.9.5-.3.9-.6 1.3-.9 4.8-4.3 9.6-8.6 14.5-12.8 1.7-1.5 2.5-3.2 2.9-5.3 1.1-5.7 2.4-11.4 3.7-17 .2-1 .8-2 1.6-2.7 12-10.4 22.7-21.9 31.4-35.2 6.6-10.1 12-20.7 13.9-32.7.7-4.4.8-9 1.1-13.5.2-2-.7-2.9-2.3-3zm-50.4 63.3c-7.2 0-13.1-5.9-13.1-13.1s5.9-13.1 13.1-13.1 13.1 5.9 13.1 13.1-5.9 13.1-13.1 13.1z"/><path d="m157.8 245.4c-.1-.6-.4-1.2-.7-1.7-.1-.1-.1-.2-.2-.3-.1-.2-.3-.4-.4-.5-.3-.3-.6-.6-.9-.8-.3-.3-.6-.5-1-.7 0 0-.1 0-.1-.1-.1-.1-.2-.1-.3-.1 0 0 0 0-.1 0s-.1 0-.2-.1c-.1 0-.1 0-.2 0s-.1 0-.2 0c-.3 0-.5.1-.8.2h-.1c-.4.2-.8.6-1.2.9-2.9 2.6-5.7 5.2-8.6 7.8-1.1 1-2.2 2-3.3 3-.6.6-1.2 1.1-1.9 1.7-.2.2-.3.3-.5.5-4.6 4.2-9.1 8.5-13.7 12.7-5.1 4.7-10.1 9.4-15.2 14.2 0 0 0 0-.1.1-4.8 4.5-9.5 9-14.3 13.5-1.1 1-2.2 2.1-3.3 3.1-1.2 1.1-1.1 1.9 0 2.9.6.5 1.1 1.1 1.7 1.7.2.2.4.4.6.6 0 0 .1.1.1.1.2.2.3.3.5.4h.1s.1 0 .1.1c.4.2.8.2 1.2-.1h.1c.1 0 .1-.1.2-.1.1-.1.2-.1.3-.2.3-.3.6-.5.8-.8 2.1-2 4.3-3.9 6.4-5.9 12.3-11.5 24.6-22.9 36.8-34.4 5.5-5.2 11.1-10.3 16.6-15.5.5-.4.8-1 1.2-1.5.1-.1.1-.2.2-.3.3-.3.4-.3.4-.4z"/></g></svg>