<svg fill="none" height="32" viewBox="0 0 32 32" width="32" xmlns="http://www.w3.org/2000/svg" xmlns:xlink="http://www.w3.org/1999/xlink"><clipPath id="a"><rect height="32" rx="16" width="32"/></clipPath><g clip-path="url(#a)"><rect fill="#000" height="32" rx="16" width="32"/><g fill="#fff"><path d="m19.2687 19.8816c-6.0482 1.8144-11.05138 4.4608-14.18317 7.5616l-.13826.1376c.83278.7872 1.74596 1.4912 2.73309 2.0896l.21221-.2592c.85528-1.0432 1.77168-2.0512 2.72663-3.0016 2.5627-2.5504 5.4952-4.7584 8.6527-6.5312z"/><path d="m.00097656 17.1934c.24114644 3.2352 1.44371344 6.2016 3.33115344 8.6144l.08682-.0864c1.93889-1.9104 4.46298-3.648 7.50785-5.1616 2.6688-1.328 5.7331-2.4672 9.0354-3.3664z"/><path d="m12.3099 3.8976c5.4116 5.3856 12.2217 8.9472 19.6912 10.2976-.9004-7.984-7.7041-14.1952-15.9709-14.1952-2.1834 0-4.2636.4352-6.16399 1.2192.77169.928 1.59489 1.8304 2.44369 2.6784z"/><path d="m5.08553 4.55679c3.13179 3.104 8.13497 5.74721 14.18317 7.56481-3.1575-1.776-6.09-3.98082-8.6527-6.53121-.95175-.9472-1.86815-1.9552-2.72664-3.0016l-.21221-.2592c-.98714.5984-1.90031 1.3024-2.72988 2.0896z"/><path d="m12.3099 28.1026c-.852.848-1.6752 1.7504-2.44369 2.6784 1.89719.784 3.98059 1.2192 6.16399 1.2192 8.2668 0 15.0705-6.2112 15.9741-14.1984-7.4695 1.3504-14.2796 4.912-19.6912 10.2976z"/><path d="m10.9268 11.4399c-3.04487-1.51361-5.56896-3.25121-7.50785-5.16161l-.08682-.0864c-1.88744 2.4128-3.090007 5.37921-3.33115344 8.61441h19.95802344c-3.3023-.8992-6.3634-2.0384-9.0354-3.3696z"/></g><path clip-rule="evenodd" d="m16 31c8.2843 0 15-6.7157 15-15 0-8.28427-6.7157-15-15-15-8.28427 0-15 6.71573-15 15 0 8.2843 6.71573 15 15 15zm0 1c8.8366 0 16-7.1634 16-16 0-8.83656-7.1634-16-16-16-8.83656 0-16 7.16344-16 16 0 8.8366 7.16344 16 16 16z" fill="#000" fill-rule="evenodd"/></g></svg>