<svg height="256" viewBox="0 0 67.733 67.733" width="256" xmlns="http://www.w3.org/2000/svg"><circle cx="33.867" cy="33.867" fill="#00b3ed" fill-rule="evenodd" r="33.867" stroke-width=".264583"/><path d="m12.411 48.163 20.201-34.873s.401-.876 1.533-.791c1.131.084 1.439.858 1.439.858l5.576 9.643s.554 1.47.554 2.706c0 1.235-1.287 3.352-1.287 3.352l-11.65 19.609s-.427.635-1.28 1.176c-.852.541-2.38.947-2.38.947l-10.98.058s-.531.11-1.214-.587l-.025-.021c-.729-.622-.488-2.077-.488-2.077z" fill="#fff"/><path d="m37.737 48.235 7.647-12.852s.377-.633 1.296-.632c.897 0 1.377.638 1.377.638l7.303 12.763s.468.877.011 1.729c-.42.782-.937.86-.937.86l-15.444.069s-.545.064-1.18-.807c-.601-.826-.072-1.768-.072-1.768z" fill="#fffff0"/><path d="m26.185 35.907s-.039 3.42.484 4.252c.522.832 1.006 1.393 1.354 1.606s1.103.58 1.915.561c.813-.02 1.993-.155 2.65-.929.658-.773 1.277-1.412 1.277-3.076 0-1.663-.193-2.95-.87-4.13s-1.219-1.819-1.722-3.444-.445-3.843-.213-4.578.406-1.4.851-2.193 1.664-2.186 2.167-2.515 1.103-.735 1.51-.87c.405-.136 1.43-.445 1.43-.445s-1.037 2.025-1.173 3.495c-.135 1.47.232 3.405.832 4.16.6.754 2.38 2.456 2.38 2.456l5.763 6.886s1.934 4.112 1.497 6.989-3.832 6.747-3.832 6.747l-2.431-.01s.692-1.384.692-2.659c0-1.274-.656-4.333-.656-4.333l-13.589 6.582s-1.518-1.986-1.993-3.338c-.476-1.352-.695-3.873-.476-4.97.22-1.096.731-3.471 1.06-4.275.33-.804 1.093-1.97 1.093-1.97z" fill="#00b3ed"/></svg>