<svg fill="none" height="233" viewBox="0 0 232 233" width="232" xmlns="http://www.w3.org/2000/svg" xmlns:xlink="http://www.w3.org/1999/xlink"><linearGradient id="a" gradientUnits="userSpaceOnUse" x1="115.723" x2="161.699" y1=".000001" y2="232.612"><stop offset="0" stop-color="#780000"/><stop offset="1" stop-color="#c1121f"/></linearGradient><path clip-rule="evenodd" d="m115.418 232.706c33.984 0 64.556-14.651 85.776-37.998l-5.646-6.249c-6.988-7.733-18.9-8.394-26.7-1.481l-12.045 10.675c-16.386 14.523-41.292 13.607-56.568-2.08l-7.5311-7.734c-7.2322-7.427-19.0828-7.685-26.6325-.581l-22.0911 20.786c19.6943 15.452 44.4934 24.662 71.4377 24.662zm96.453-58.997 2.742 3.035c10.681-17.605 16.833-38.277 16.833-60.391 0-26.8142-9.045-51.51-24.243-71.1864-2.825.7262-5.525 2.116-7.857 4.1827l-12.044 10.6749c-16.386 14.523-41.292 13.6076-56.568-2.0793l-7.531-7.7341c-7.233-7.4268-19.083-7.6857-26.6329-.5818l-30.9897 29.1599-15.0762-16.0221 30.9897-29.16c16.2915-15.3295 41.8641-14.7708 57.4701 1.2556l7.531 7.7341c7.08 7.2695 18.621 7.6937 26.215.9635l12.044-10.6749c2.022-1.7915 4.171-3.3472 6.415-4.6692-20.327-17.5834-46.801-28.2159-75.751-28.2159-58.2067 0-106.40271 42.9808-114.749252 99.0198 15.883152-9.1685 36.506352-6.7715 49.847152 6.9282l8.7099 8.944c6.77 6.953 17.6909 7.686 25.3297 1.701l25.8195-20.2276c15.497-12.141 37.436-11.5537 52.261 1.3989l35.157 30.7167-14.474 16.567-35.158-30.716c-6.87-6.003-17.037-6.275-24.218-.648l-25.8198 20.228c-16.4837 12.914-40.0499 11.331-54.6589-3.671l-8.7098-8.944c-7.2323-7.427-19.0828-7.686-26.63251-.582l-8.12199 7.642c2.51181 24.576 12.6512 46.886 28.0051 64.511l22.9902-21.633c16.2915-15.329 41.8636-14.771 57.4697 1.256l7.532 7.734c7.079 7.269 18.621 7.694 26.214.964l12.045-10.675c16.831-14.918 42.537-13.492 57.615 3.195z" fill="url(#a)" fill-rule="evenodd"/></svg>