<svg fill="none" height="120" viewBox="0 0 120 120" width="120" xmlns="http://www.w3.org/2000/svg" xmlns:xlink="http://www.w3.org/1999/xlink"><linearGradient id="a"><stop offset="0" stop-color="#00ffa3"/><stop offset="1" stop-color="#dc1fff"/></linearGradient><linearGradient id="b" gradientUnits="userSpaceOnUse" x1="72.64" x2="33.39" xlink:href="#a" y1="16.655" y2="92.428"/><linearGradient id="c" gradientUnits="userSpaceOnUse" x1="72.64" x2="33.391" xlink:href="#a" y1="16.655" y2="92.428"/><clipPath id="d"><path d="m0 0h120v120h-120z"/></clipPath><clipPath id="e"><path d="m0 0h72v56h-72z" transform="translate(24 32)"/></clipPath><g clip-path="url(#d)"><path d="m60 120c33.137 0 60-26.863 60-60s-26.863-60-60-60-60 26.863-60 60 26.863 60 60 60z" fill="#000"/><g clip-path="url(#e)"><path d="m35.692 74.703a2.357 2.357 0 0 1 1.66-.681h57.418c1.046 0 1.57 1.254.83 1.988l-11.346 11.248a2.356 2.356 0 0 1 -1.66.681h-57.417c-1.046 0-1.57-1.254-.83-1.988l11.346-11.248z" fill="url(#b)"/><path d="m35.692 32.682a2.357 2.357 0 0 1 1.66-.682h57.418c1.046 0 1.57 1.255.83 1.989l-11.347 11.247a2.357 2.357 0 0 1 -1.66.682h-57.417c-1.046 0-1.57-1.255-.83-1.989z" fill="url(#b)"/><path d="m84.254 53.559a2.356 2.356 0 0 0 -1.66-.682h-57.417c-1.046 0-1.57 1.255-.83 1.988l11.346 11.248c.44.437 1.037.682 1.66.682h57.417c1.046 0 1.57-1.255.83-1.989l-11.346-11.246z" fill="url(#c)"/></g></g></svg>