<svg fill="none" height="512" viewBox="0 0 512 512" width="512" xmlns="http://www.w3.org/2000/svg"><path d="m256 512c141.385 0 256-114.615 256-256s-114.615-256-256-256-256 114.615-256 256 114.615 256 256 256z" fill="#fff"/><g fill="#00a3ff"><path d="m150.988 237.812-2.866 4.397c-32.326 49.589-25.106 114.533 17.358 156.139 24.981 24.478 57.722 36.718 90.464 36.721 0 0 0 0-104.956-197.257z"/><path d="m255.914 297.764-104.956-59.952c104.956 197.257 104.956 197.257 104.956 197.257 0-42.961 0-92.189 0-137.305z" opacity=".6"/><path d="m361.012 237.812 2.866 4.397c32.326 49.589 25.106 114.533-17.358 156.139-24.981 24.478-57.722 36.718-90.464 36.721 0 0 0 0 104.956-197.257z" opacity=".6"/><path d="m256.044 297.764 104.956-59.952c-104.955 197.257-104.956 197.257-104.956 197.257 0-42.961 0-92.189 0-137.305z" opacity=".2"/><path d="m256.083 163.833v103.4l90.408-51.666z" opacity=".2"/><path d="m256.056 163.833-90.473 51.732 90.473 51.668z" opacity=".6"/><path d="m256.056 76.875-90.473 138.724 90.473-51.877z"/><path d="m256.083 163.706 90.477 51.879-90.477-138.7933z" opacity=".6"/></g></svg>