<svg enable-background="new 0 0 160.1 160.1" viewBox="0 0 160.1 160.1" xmlns="http://www.w3.org/2000/svg"><g clip-rule="evenodd" fill-rule="evenodd"><circle cx="80" cy="80" fill="#fff" r="80"/><path d="m47.3 115.9c6.9 12 19 19.1 32.7 19.1s25.8-7.1 32.7-19.1c6.8-12 6.8-26.3 0-38.2l-28.7-50.3c-1.7-3.1-6.1-3.1-7.9 0l-28.8 50.4c-6.8 11.9-6.8 26.2 0 38.1zm24.6-64.6 6.1-10.7c.9-1.5 3.1-1.5 3.9 0l23.6 41.3c4.3 7.6 5.2 16.4 2.4 24.4-.3-1.3-.7-2.7-1.2-4-3.2-8.3-10.5-14.7-21.8-19-7.8-3-12.7-7.4-14.7-13.1-2.6-7.2.1-15.2 1.7-18.9zm-10.4 18.4-7 12.2c-5.4 9.3-5.4 20.5 0 29.8s14.9 14.9 25.6 14.9c7.1 0 13.7-2.5 18.9-6.9.7-1.7 2.7-8 .2-14.6-2.5-5.8-8.2-10.6-17.2-14-10.1-3.9-16.7-10-19.6-18.1-.4-1.1-.7-2.2-.9-3.3z"/></g></svg>