<svg fill="none" height="256" viewBox="0 0 256 256" width="256" xmlns="http://www.w3.org/2000/svg" xmlns:xlink="http://www.w3.org/1999/xlink"><linearGradient id="a"><stop offset="0" stop-color="#03b8ff"/><stop offset="1" stop-color="#fa52a0"/></linearGradient><linearGradient id="b" gradientUnits="userSpaceOnUse" x1="102.92" x2="130.392" xlink:href="#a" y1="41.9877" y2="136.323"/><linearGradient id="c" gradientUnits="userSpaceOnUse" x1="125.43" x2="152.903" xlink:href="#a" y1="35.4314" y2="129.768"/><linearGradient id="d" gradientUnits="userSpaceOnUse" x1="80.68" x2="108.153" xlink:href="#a" y1="48.465" y2="142.801"/><circle cx="128" cy="128" fill="#fff" r="128"/><path d="m75.7446 55.4258 138.5194 94.5972-34.283 50.618-138.5201-95.348z" fill="url(#b)"/><path d="m214.263 150.022c-11.889 17.142-52.118 10.447-90.095-16.391-38.7281-26.088-59.5638-61.0645-48.4245-78.2063 11.8896-17.1418 52.1185-10.4467 90.0955 16.3915 38.728 25.3376 59.621 61.0638 48.424 78.2058z" fill="url(#c)"/><path d="m180.04 199.948c-11.89 17.142-52.119 10.447-90.0961-16.391-37.9775-26.838-59.5635-61.064-47.6739-78.957 11.8896-17.1413 52.1181-10.4462 90.096 16.392 37.977 26.78 58.813 61.814 47.674 78.956z" fill="url(#d)"/><path d="m214.266 150.021-34.284 50.618c-11.89 17.141-52.118 9.696-90.0955-16.392-7.4455-5.194-14.1406-10.447-20.8357-16.391 5.1945-.751 11.8896-3.752 18.6425-11.197 11.8896-12.64 17.8917-15.642 23.0867-14.891 5.194 0 11.197 5.194 20.836 17.892 9.696 12.64 23.086 16.391 31.282 9.696.75-.75 1.501-.75 2.251-1.5 6.695-5.195 8.946-7.446 21.586-31.283 3.001-5.945 13.39-15.641 27.531-11.197 3.751 9.754 3.751 17.95 0 24.645z" fill="#0e0f23"/><g fill="#fff"><path clip-rule="evenodd" d="m209.071 147.076c-10.446 14.891-46.923 7.445-81.899-17.142-35.727-24.587-56.6204-55.8697-46.1737-70.7606s46.9237-7.4454 81.8997 17.1418c34.976 24.5878 55.87 55.8118 46.173 70.7608zm-32.783-22.394c-5.194 7.445-23.086 3.751-40.978-8.196-17.142-11.89-27.531-27.5308-22.337-34.9763 5.195-7.4454 23.087-3.7515 40.979 8.1958 17.142 11.8895 27.531 27.5305 22.336 34.9765z" fill-rule="evenodd"/><path d="m72.7434 72.5689c0-.7503-.7503-1.5006-1.5006-.7503s-1.5006.7503-1.5006 1.5006c.7503 2.251 1.5006 3.7516 1.5006 5.1945 0 .7503.7503 1.5007 1.5006.7503.7504 0 1.5007-.7503.7504-1.5006 0-1.4429 0-2.9435-.7504-5.1945z"/><path d="m76.4931 84.5142c0-.7503-.7503-1.5006-1.5006-.7503s-.7503.7503-.7503 1.5007c8.1957 18.6424 25.3376 38.7274 47.6738 53.6184.75.751 1.501 0 2.251 0 .75-.75 0-1.5 0-2.251-23.087-14.891-39.4781-34.283-47.6739-52.1178z"/><path d="m166.59 157.469c-.75 0-1.5 0-1.5.75s0 1.501.75 1.501c2.251.75 5.195 1.5 7.446 2.251.75 0 1.5 0 1.5-.751 0-.75 0-1.5-.75-1.5-2.193-.751-5.195-1.501-7.446-2.251z"/><path d="m180.04 160.469c-.751 0-1.501.75-1.501 1.5 0 .751.75 1.501 1.501 1.501 5.945.75 12.64 1.501 17.892.75.75 0 1.5-.75 1.5-1.5 0-.751-.75-1.501-1.5-1.501-6.003.75-11.947 0-17.892-.75z"/></g></svg>