<svg fill="none" height="256" viewBox="0 0 256 256" width="256" xmlns="http://www.w3.org/2000/svg" xmlns:xlink="http://www.w3.org/1999/xlink"><clipPath id="a"><path d="m0 0h256v256h-256z"/></clipPath><g clip-path="url(#a)"><rect fill="#fff" height="256" rx="128" width="256"/><path d="m171 86.9954v.0046h-55.92c7.397.0195 14.487 2.7566 19.719 7.6151 5.251 4.876 8.201 11.4889 8.201 18.3849v75s0 5.5 5 11c3.468 3.815 12 5 12 5-6 5-27.5 7.799-36.799-1.501-4.452-4.214-7.25-7.033-7.999-14.499h-.202v-101h-56c0-6.8956 2.7393-13.5088 7.6152-18.3848 4.876-4.8759 11.4892-7.6152 18.3848-7.6152h112c0 6.8956-2.792 13.5088-7.762 18.3848-4.851 4.7602-11.391 7.4839-18.238 7.6106z" fill="#000"/></g></svg>