<svg height="2000" viewBox="0 0 529.2 529.2" width="2000" xmlns="http://www.w3.org/2000/svg"><circle cx="265.5" cy="264.6" fill="#7b2bf9" r="264.6"/><ellipse cx="264.4" cy="265.3" fill="#fff" rx="194.6" ry="194.9"/><g fill="#7b2bf9"><path d="m90.3 226.7s-4.6 19.5-4.1 35.6c.4 16.2 4 53.7 15.8 76.2s13.5 24.4 14.6 25.4 2.8 1 4 .6 2.7-4.3 5.7-9a327 327 0 0 1 20.8-26.6c3-3 3.7-4 5.8-4.3 2.1-.2 4.4.2 6.8 2.7 2.5 2.6 3 2.4 3.6 5 .6 2.5-2.6 5.6-4.1 7.5-1.6 1.8-8.8 9.7-12.7 15-4 5.3-15.7 23.4-10.9 31 4.8 7.4 21.5 8.5 19.1 8.3s5 1.2 23.3-.8c18.4-2 58.4-13.6 67.4-17.4s54.4-23.3 68.1-31.2a775.2 775.2 0 0 0 49.1-30l25.8-19.2s1.6-64.3-.5-78.8c-2.2-14.4-8-48.4-16.7-68.8s-21.4-38.4-29.8-43.3c-8.5-4.8-15.8-8.2-27.9-2.7-12 5.6-23.6 21-27.7 28.2-4 7.1 1 9 1 9s28.5 11.5 45.9 21.4c17.3 10 36.4 23.2 40 27.7a21 21 0 0 1 4.3 9.8l2 13s.2 8.7-7.7 10.9-36 10.5-53.4 17.5c-17.3 7-44.3 19.9-51 23.7-6.7 3.7-4-12.1-4-12.1s-.3-2.5.9-3.7c1.2-1.3 0-.7 3.7-2.7 3.8-2 31-15.6 52-23.1a650.2 650.2 0 0 1 50.4-15.7s-55.5-46.7-126.2-63.6c-70.7-17-112.7 8.8-112.7 8.8s-30.4 18.6-24 61.9c6.5 43.2 59.6 90.5 59.6 90.5s3.6 3.3 9.8-1c6.2-4.5 16-12.6 29.3-21.3s22.5-13.7 28-17.9c5.4-4.1 5.3-9.4 5.3-9.4s2.2-32.2 4.8-46.7a513 513 0 0 1 11.5-48c1.5-3 1.6-2.9 2.7-3.6 1-.6 3.3-.2 3.3-.2l8 2.5s1 .4 2 2.6c1 2.1-1.4 7.1-1.4 7.1s-9.6 34.2-11.3 51.4c-1.7 17.3-4.4 39.8-3.2 56.5 1 16.6.2 24.6 2 39.5 1.6 15 7.1 39.5 7.1 39.5s0 3-1 4.3c-1 1.4-1.4 2.8-5.5 4.3l-11.3 4s-2.8.7-6.3-.4-41.7-20.9-58.1-31.8c-16.5-11-30.1-23-43-35.8a230 230 0 0 1 -32.8-42.8c-4.1-8.1-10.9-21.7-12.6-28s-3.6-1.5-3.6-1.5z"/><path d="m184.3 317s17.1-13.2 24-18.2c7-5 29.7-19 29.7-19s1.5 29.3 2.7 38.5c1.3 9.3 5.8 34 5.8 34s-26.7-12.5-32.8-16c-6.2-3.4-29.4-19.3-29.4-19.3zm-24.4-196.5s32.8-23.4 64.4-29c31.5-5.4 33.4-4.8 45-4.3 11.6.4 25 2.5 25 2.5s1.3.4 1.7 2.4c.3 1.9-2.2 3.2-2.2 3.2s-9.5 8.6-14.6 15.6c-5 7-11 17.5-11 17.5s-1.2 1-2.7 1.8c-1.6.8-4.2.8-4.2.8s-31.5-8-47.1-9.1a237 237 0 0 0 -53.3 1.6s-.4-.2-1-1c-.8-.9 0-2 0-2zm8.4 290.5s13.6-1 27-3.3a174 174 0 0 0 20.1-5c28.5-8.6 30-9.4 33.3-10.7 3.4-1.3 5-2.4 7-2.1 1.9.2 2.7 2 2.7 2s8.4 19 12.2 24.3c3.9 5.4 10.7 14.5 13.5 17 2.8 2.4 5 4.6 5 4.6s.7.5.3 2.3c-.5 1.8-3 2-3 2s-29.5 4-58.3-2-60.2-24.7-60.2-24.7-1.3-.6-1-2.5c.2-1.9 1.4-1.9 1.4-1.9zm109.9-30.3s18.6 5.6 39 8c20.3 2.5 42.1 1.2 42.1 1.2s1.3-.4 2.8 1.4c1.4 1.7-.5 4.6-.5 4.6s-10 20.1-20.6 27.9c-10.5 7.8-18.3 8.9-18.3 8.9s-9.5 2.4-19.8-5a74 74 0 0 1 -17-18.4s-6.8-11.1-8.4-14.5a612 612 0 0 1 -4-9.3s-.4-1.5.5-3c1-1.5 3.2-2 3.2-2zm27.1-13.3s27.4-14 44.3-24.8 32-21.4 32-21.4 1-.5 1.6-.1c.7.4 1 .6 1.2 1.2a366.7 366.7 0 0 1 -11 46.1s-.8 1.8-2 2.9c-1.2 1-1.9 1.2-3.8 1.6-2 .3-20.6 2.2-30.8 1.4-10.3-.8-27-2.5-30-3.5s-1.5-3.4-1.5-3.4z"/><path d="m379.5 396.6s3.6-9.5 4.5-10.1a86 86 0 0 1 8.8-2.7s1.4.3 1.7 1c.4.8.3 1.4.2 1.9-.2.4-12.1 11.7-12.1 11.7s-1.5.6-2.3 0-.8-1.8-.8-1.8z"/><path d="m392.6 360.3s5.3-19.6 6.9-29.8c1.6-10.3 4-25.1 3.7-24.1-.2 1 1.8-3.3 3.3-4.9 1.4-1.5 16-14.5 16-14.5s1.2-1.8 3.4-1.3c2.2.4 3 1.6 3 1.6s4.4 14.2 4.2 24.8a60.6 60.6 0 0 1 -8.4 29.6c-4.8 7.7-17 19.1-24.3 21.2s-7.8-2.6-7.8-2.6zm12.8-110.9v28c0 2 2.5 1.6 3.2.8.8-.9 8.6-8.5 9.9-11 1.2-2.3-1.4-6.3-1.4-6.3l-8.3-12.2s-.8-.9-2-.7c-1 .2-1.4 1.4-1.4 1.4zm33.9 18.6s.3-.8 1-1.5c.5-.7.9-1.1 1.4-1.2.6 0 .6 2 .6 2v3.5s-.2.6-.6.7c-.3.2-.5.2-1-.1a5 5 0 0 1 -1.3-2.5c-.2-1 0-.8 0-.8zm-30.9-46.3a211.6 211.6 0 0 0 19.6 26.3s.8.7 2.6.8c1.8 0 3-1.6 3-1.6s8.3-14.5 4.2-20.8-10.3-7-12.5-7.7c-2.3-.6-11.4-2-15-1.3-3.7.7-1.9 4.3-1.9 4.3zm-24.7-84s9.3 24.9 11.3 34.3l5 23s1 2.7 2.3 4c1.4 1.3 3 2.3 6 2.4l9.6.2c5 .1 8 1.6 9.4 1.1 1.4-.4 3-1.5 2.3-3.5-.6-2-12.8-27.2-18-34a371.8 371.8 0 0 0 -18.9-23.1l-6.6-6.3s-1-.2-1.7.2c-.7.5-.7 1.8-.7 1.8z"/></g></svg>