<svg fill="none" height="512" viewBox="0 0 512 512" width="512" xmlns="http://www.w3.org/2000/svg" xmlns:xlink="http://www.w3.org/1999/xlink"><clipPath id="a"><path d="m0 0h512v512h-512z"/></clipPath><g clip-path="url(#a)"><path d="m0 256c0-141.385 114.615-256 256-256 141.385 0 256 114.615 256 256 0 141.385-114.615 256-256 256-141.385 0-256-114.615-256-256z" fill="#fff"/><g fill="#000"><path clip-rule="evenodd" d="m6 256c0 138.071 111.929 250 250 250s250-111.929 250-250-111.929-250-250-250-250 111.929-250 250zm250-256c-141.385 0-256 114.615-256 256s114.615 256 256 256 256-114.615 256-256-114.615-256-256-256z" fill-rule="evenodd"/><path d="m281 101 4 2 36 36 7 8 109 109v1h-68l-42-42-1 152-42 42-1 2h-2z"/><path d="m229 101h2v310l-7-6-38-38v-152l-8 7-35 35h-68l6-7 147-147z"/></g></g></svg>