<svg fill="none" height="56" viewBox="0 0 56 56" width="56" xmlns="http://www.w3.org/2000/svg"><circle cx="28" cy="28" fill="#08c" r="28"/><path clip-rule="evenodd" d="m20.2088 18.5044 15.7044-.0001c.5556 0 1.1108.0816 1.691.3521.6955.3242 1.0643.8352 1.3227 1.2131.0201.0294.0389.0597.0563.0907.3038.5408.4604 1.1247.4604 1.7528 0 .5968-.142 1.247-.4604 1.8137-.003.0055-.0061.0108-.0092.0162l-9.9218 17.0435c-.2188.3759-.6215.6064-1.0564.6049s-.836-.235-1.0521-.6124l-9.7396-17.0071c-.0028-.0046-.0056-.0092-.0084-.0139-.2229-.3673-.5676-.9353-.6279-1.6683-.0554-.6741.0961-1.3495.4348-1.9351.3387-.5857.8486-1.0539 1.4619-1.3405.6576-.3073 1.324-.3096 1.7443-.3096zm6.5739 2.4347h-6.5739c-.4319 0-.5977.0266-.7136.0808-.1603.0748-.2949.1979-.3849.3535-.09.1557-.1307.3361-.1159.5167.0085.1035.0507.2219.2996.6324.0052.0086.0103.0173.0153.026l7.4734 13.0499zm2.4348 0v14.7238l7.6465-13.1351c.0863-.1568.1448-.3834.1448-.6148 0-.1877-.0389-.3507-.1259-.5187-.0913-.1313-.1469-.2008-.1934-.2484-.0399-.0407-.0706-.0625-.114-.0827-.1808-.0843-.3658-.1241-.6623-.1241z" fill="#fff" fill-rule="evenodd"/></svg>