<svg fill="none" height="2430" viewBox="0 0 2428 2430" width="2428" xmlns="http://www.w3.org/2000/svg"><path d="m2144 1201c0 493.74-425.55 894-950.5 894-524.947 0-950.5-400.26-950.5-894 0-493.743 425.553-894 950.5-894 524.95 0 950.5 400.257 950.5 894z" fill="#fff"/><path clip-rule="evenodd" d="m1182.49 1.46702c-2.21.698-11.66 1.584-21 1.968-99.08 4.074-201.55 21.20498-296.49 49.56798-116.542 34.817-223.719 85.18-324.5 152.483-67.889 45.337-123.421 90.639-181.349 147.939-118.211 116.93-210.967 256.42-272.355 409.575-48.342 120.607-75.628 242.28-84.99804 379-1.968997 28.74-1.652997 123.5.51 153 15.90904 216.94 82.52704 414.48 198.53104 588.7 78.678 118.16 170.992 216.21 282.661 300.25 62.085 46.71 117.351 80.89 187.5 115.93 59.226 29.59 111.59 50.89 174 70.77 92.808 29.56 190.47 47.82 290.75 54.33 9.18.6 16.7 1.6 18.87 2.51 5.45 2.27 110.34 2.26 115.79-.01 2.25-.95 9.64-1.9 19.37-2.51 56.81-3.54 118.04-11.82 173.72-23.5 131.27-27.54 255.18-76.01 371.93-145.48 21.32-12.69 69.89-44.78 90.51-59.81 123.37-89.87 229.21-202.26 310.75-329.99 84.62-132.53 143.01-281.9 170.24-435.48 8.36-47.16 12.41-79.92 16.06-129.71 1.11-15.12 2.46-31.32 3.01-36 1.56-13.43 1.25-86.92-.44-104-.79-7.97-1.92-22.37-2.53-32-8.67-137.867-45.59-284.486-104.23-413.999-8.46-18.69-32.77-67.15-43.38-86.493-26.94-49.087-68.24-111.458-105.29-159.008-62.12-79.72-142.82-159.5-221.64-219.093-65.15-49.264-122.3-84.831-193.49-120.428-153.8-76.898-320.06-119.618-492.5-126.54098-8.25-.332-17.32-1.241-20.15-2.02-6.88-1.891004-53.85-1.852004-59.86.049zm-181.26 625.88898c4.97 2.47 7.85 7.365 8.47 14.419.65 7.321-3.95 48.273-7.24 64.419-17.171 84.342-54.558 154.235-114.379 213.828-45.237 45.064-99.176 78.355-159.687 98.558-32.7 10.92-73.256 18.82-102.394 19.95-15.978.62-16.642.57-20.977-1.69-2.605-1.36-5.323-3.8-6.5-5.84-2.012-3.48-2.023-4.59-2.023-198.5 0-179.217.133-195.243 1.648-198.002.906-1.652 2.564-3.832 3.683-4.845 5.263-4.763-2.817-4.589 202.669-4.364 185.785.203 193.14.28 196.73 2.067zm816.09-.907c4.52 1.611 7.28 3.946 9.53 8.049 1.51 2.753 1.67 18.811 1.95 193.502.16 104.775.02 192.84-.32 195.7-.72 6.15-3.66 10.91-8.48 13.75-3.49 2.04-4.06 2.05-196 2.55-192.09.5-192.51.5-196.44 2.57-2.44 1.28-4.71 3.55-6 6l-2.06 3.93-.5 404c-.46 372.74-.63 404.23-2.15 407-.9 1.65-2.56 3.83-3.68 4.85-5.24 4.74 2.4 4.56-200.24 4.61-207 .04-197.53.29-202.8-5.32-5.47-5.82-5.13 22.33-5.13-429.05 0-458.536-.5-412.89 5.05-460.09 5.01-42.575 23.79-98.86 46.5-139.353 68.68-122.438 191.26-201.682 327.45-211.688 12.38-.91 22.69-1.835 22.92-2.056.23-.222 91.8-.383 203.5-.359 168.68.036 203.73.274 206.9 1.405z" fill="#1a5aff" fill-rule="evenodd"/></svg>