<svg fill="none" height="256" viewBox="0 0 256 256" width="256" xmlns="http://www.w3.org/2000/svg" xmlns:xlink="http://www.w3.org/1999/xlink"><clipPath id="a"><path d="m0 0h256v256h-256z"/></clipPath><g clip-path="url(#a)"><g stroke-width="2"><path d="m128.65 256c31.24-.613 58.453-10.65 81.64-30.11 20.56-17.25 35.2-40.54 41.66-66.06 4.087-16.113 4.933-32.99 2.54-50.63-4.81-35.4899-25.6-67.4299-55.2-87.4399-19.95-13.47-43.08-20.85-67.26-21.48-4.647-.119999-9.04-.056666-13.18.19-35.4 2.16-68.39 19.99-90.68 47.44-17.6267 21.7133-27.01667 47.2433-28.17 76.5899" stroke="#00297f"/><path d="m127.45 256c-37.32-.813-68.32-14.38-93-40.7-21.4067-22.82-32.89-50.547-34.45-83.18" stroke="#00297f"/><path d="m120.64 186.45-.02-14.83c0-.241-.087-.474-.245-.656s-.376-.3-.615-.334c-13.95-2-25.97-11.03-25.93-25.94 0-.307.1533-.46.46-.46l17.73.02c.097 0 .193.019.283.056s.172.092.24.161c.069.068.123.15.161.24.037.09.056.186.056.283-.01 11.3 12.94 13.13 21.19 11.01 4.173-1.073 6.777-3.53 7.81-7.37 1.75-6.54-2.82-9.28-8.24-10.25-16.97-3.04-38.58-4.6-38.12-28.01.26-13.67 11.6-22.52 24.49-24.58.178-.0286.341-.1197.458-.2572.117-.1374.182-.3122.182-.4928l-.02-45.75c0-.3934-.197-.57-.59-.53-10.78 1.0733-20.89 3.8533-30.33 8.34-35.84 17.04-56.56 56.01-50.14 95.46 6.94 42.65 43.06 74.92 86.87 75.63 33.49.55 63.58-16.9 80.01-45.89 10.48-18.5 13.87-41.01 9.65-61.49-7.29-35.43-34.27-63.34-69.91-70.5-3.307-.66-6.627-1.2167-9.96-1.67-.056-.0071-.113-.0026-.166.0132-.054.0158-.104.0425-.146.0783-.043.0359-.077.0801-.101.1298s-.036.1038-.037.1587l-.05 46.03c0 .5133.253.8133.76.9 12.4 2.22 22.37 10.46 23.52 23.54.013.144-.005.289-.051.426s-.12.262-.217.369c-.097.106-.215.191-.346.248-.131.058-.273.088-.416.087l-17.37.06c-.453 0-.687-.23-.7-.69-.2-10.05-11.14-11.39-18.78-9.6-3.99.94-7.21 3.98-7.47 8.17-.307 4.96 2.207 7.977 7.54 9.05 4.56.92 9.23 1.733 14.01 2.44 9.81 1.47 20.8 6.05 23.61 16.23 5.15 18.66-6.27 31.03-23.62 34.37-.18.037-.342.136-.457.278s-.176.32-.173.502l.05 15.43c.001.049-.008.099-.026.145-.019.046-.046.088-.082.123-.035.035-.077.064-.124.083s-.097.029-.148.029l-13.67.01c-.54 0-.81-.267-.81-.8z" stroke="#80a9ff"/></g><path d="m128.65 256h-1.2c-37.32-.813-68.32-14.38-93-40.7-21.4067-22.82-32.89-50.547-34.45-83.18v-7.62c1.15333-29.3466 10.5433-54.8766 28.17-76.5899 22.29-27.45 55.28-45.28 90.68-47.44 4.14-.246666 8.533-.309999 13.18-.19 24.18.63 47.31 8.01 67.26 21.48 29.6 20.01 50.39 51.95 55.2 87.4399 2.393 17.64 1.547 34.517-2.54 50.63-6.46 25.52-21.1 48.81-41.66 66.06-23.187 19.46-50.4 29.497-81.64 30.11zm-8.01-69.55-.02-14.83c0-.241-.087-.474-.245-.656-.158-.181-.376-.3-.615-.334-13.95-2-25.97-11.03-25.93-25.94 0-.307.1533-.46.46-.46l17.73.02c.097 0 .193.019.283.056.09.038.172.092.24.161.069.069.123.15.161.24.037.09.056.186.056.283-.01 11.3 12.94 13.13 21.19 11.01 4.173-1.073 6.777-3.53 7.81-7.37 1.75-6.54-2.82-9.28-8.24-10.25-16.97-3.04-38.58-4.6-38.12-28.01.26-13.6699 11.6-22.5199 24.49-24.5799.178-.0285.341-.1197.458-.2571.117-.1375.182-.3122.182-.4929l-.02-45.75c0-.3933-.197-.57-.59-.53-10.78 1.0733-20.89 3.8533-30.33 8.34-35.84 17.04-56.56 56.0099-50.14 95.4599 6.94 42.65 43.06 74.92 86.87 75.63 33.49.55 63.58-16.9 80.01-45.89 10.48-18.5 13.87-41.01 9.65-61.49-7.29-35.4299-34.27-63.3399-69.91-70.4999-3.307-.66-6.627-1.2167-9.96-1.67-.056-.0071-.113-.0026-.166.0132-.054.0158-.104.0425-.146.0784-.043.0358-.077.0801-.101.1298s-.036.1037-.037.1586l-.05 46.03c0 .5133.253.8133.76.9 12.4 2.22 22.37 10.46 23.52 23.5399.013.144-.005.289-.051.426s-.12.262-.217.369c-.097.106-.215.191-.346.249-.131.057-.273.087-.416.086l-17.37.06c-.453 0-.687-.23-.7-.69-.2-10.0499-11.14-11.3899-18.78-9.6-3.99.94-7.21 3.98-7.47 8.17-.307 4.96 2.207 7.977 7.54 9.05 4.56.92 9.23 1.733 14.01 2.44 9.81 1.47 20.8 6.05 23.61 16.23 5.15 18.66-6.27 31.03-23.62 34.37-.18.037-.342.136-.457.278-.115.143-.176.32-.173.502l.05 15.43c.001.05-.008.099-.026.145s-.046.088-.082.123c-.035.036-.077.064-.124.083s-.097.029-.148.029l-13.67.01c-.54 0-.81-.267-.81-.8z" fill="#0052fe"/><path d="m121.45 187.25 13.67-.01c.051 0 .101-.01.148-.029s.089-.048.124-.083c.036-.035.063-.077.082-.123.018-.046.027-.096.026-.145l-.05-15.43c-.003-.182.058-.36.173-.502s.277-.241.457-.278c17.35-3.34 28.77-15.71 23.62-34.37-2.81-10.18-13.8-14.76-23.61-16.23-4.78-.707-9.45-1.52-14.01-2.44-5.333-1.073-7.847-4.09-7.54-9.05.26-4.19 3.48-7.23 7.47-8.17 7.64-1.79 18.58-.45 18.78 9.6.013.46.247.69.7.69l17.37-.06c.143.001.285-.029.416-.087.131-.057.249-.142.346-.248.097-.107.171-.232.217-.369s.064-.282.051-.426c-1.15-13.08-11.12-21.32-23.52-23.54-.507-.0867-.76-.3867-.76-.9l.05-46.03c.001-.0549.013-.109.037-.1587s.058-.0939.101-.1298c.042-.0358.092-.0625.146-.0783.053-.0158.11-.0203.166-.0132 3.333.4533 6.653 1.01 9.96 1.67 35.64 7.16 62.62 35.07 69.91 70.5 4.22 20.48.83 42.99-9.65 61.49-16.43 28.99-46.52 46.44-80.01 45.89-43.81-.71-79.93-32.98-86.87-75.63-6.42-39.45 14.3-78.42 50.14-95.46 9.44-4.4867 19.55-7.2667 30.33-8.34.393-.04.59.1366.59.53l.02 45.75c0 .1806-.065.3554-.182.4928-.117.1375-.28.2286-.458.2572-12.89 2.06-24.23 10.91-24.49 24.58-.46 23.41 21.15 24.97 38.12 28.01 5.42.97 9.99 3.71 8.24 10.25-1.033 3.84-3.637 6.297-7.81 7.37-8.25 2.12-21.2.29-21.19-11.01 0-.097-.019-.193-.056-.283-.038-.09-.092-.172-.161-.24-.068-.069-.15-.124-.24-.161s-.186-.056-.283-.056l-17.73-.02c-.3067 0-.46.153-.46.46-.04 14.91 11.98 23.94 25.93 25.94.239.034.457.152.615.334s.245.415.245.656l.02 14.83c0 .533.27.8.81.8z" fill="#fff"/></g></svg>