<svg fill="none" height="398" width="398" xmlns="http://www.w3.org/2000/svg" xmlns:xlink="http://www.w3.org/1999/xlink"><radialGradient id="a" cx="0" cy="0" gradientTransform="matrix(0 411.352 -289.55 0 199.514 60.974)" gradientUnits="userSpaceOnUse" r="1"><stop offset=".031" stop-color="#3a3a3a"/><stop offset="1" stop-color="#1c1c1c"/></radialGradient><linearGradient id="b" gradientUnits="userSpaceOnUse" x1="199.095" x2="199.095" y1=".319" y2="397.878"><stop offset="0" stop-color="#fff"/><stop offset="1" stop-color="#111"/></linearGradient><path d="m199.091 7.529h.008c105.799 0 191.566 85.767 191.566 191.566v.007c0 105.799-85.767 191.566-191.566 191.566h-.008c-105.799 0-191.566-85.767-191.566-191.566v-.007c0-105.8 85.767-191.566 191.566-191.566z" fill="#111" stroke="#111" stroke-width="7.057"/><path d="m199.099 4h-.008c-107.747 0-195.094 87.347-195.094 195.095v.007c0 107.748 87.347 195.094 195.094 195.094h.008c107.747 0 195.094-87.346 195.094-195.094v-.007c0-107.748-87.347-195.095-195.094-195.095z" fill="url(#a)" fill-opacity=".7"/><path d="m199.099 4h-.008c-107.747 0-195.094 87.347-195.094 195.095v.007c0 107.748 87.347 195.094 195.094 195.094h.008c107.747 0 195.094-87.346 195.094-195.094v-.007c0-107.748-87.347-195.095-195.094-195.095z" stroke="url(#b)" stroke-width="7.146"/><g clip-rule="evenodd" fill="#fff" fill-rule="evenodd"><path d="m142.254 45.736c-62.255 23.047-106.63 82.952-106.63 153.222 0 70.269 44.375 130.174 106.63 153.222v-16.113c-53.789-22.27-91.63-75.27-91.63-137.109s37.841-114.84 91.63-137.11zm113.413 16.114v-16.113c62.253 23.05 106.625 82.953 106.625 153.221 0 70.267-44.372 130.171-106.625 153.22v-16.113c53.786-22.271 91.625-75.27 91.625-137.107s-37.839-114.837-91.625-137.108z"/><path d="m198.968 61.835 8.555 14.699 52.364 89.966h33.113v15h-188v-15h33.036l52.375-89.967zm-.002 39.358 38.012 65.307h-76.031zm61.014 129.307h33.02v-15h-188v15h32.943l52.468 90.127 8.557 14.698 8.555-14.699zm-22.909 0h-76.217l38.112 65.467z"/></g></svg>