<svg xmlns="http://www.w3.org/2000/svg" width="225" height="225" fill="none"><g clip-path="url(#a)"><path fill="#304013" d="M0 113.3a112.5 112.5 0 0 1 225-1.7 112.5 112.5 0 1 1-225 1.7Z"/><path fill="#C7E26C" d="m162.4 40.9 7.2 6 2.3 2a89.3 89.3 0 0 1 15.7 21l1.3 2.2a73.9 73.9 0 0 1 7.7 29.8h-39c1-5 1-5 1.8-7.4 2-6.5 2.5-12.7 2.6-19.4l.1-2.4c0-5.7-1.2-9-4.5-13.8-4.2-4.2-10-4.4-15.8-4.5-18.5.2-33.6 13.2-46.2 25.5l-2 1.7C79.4 95 65.5 117.2 64.4 137.1c-.6 10.9-.6 10.9 4 20.5 5.4 5.3 10.5 5.7 18 5.7 6.8-.1 12.2-2.1 18.3-5.4l3-1.5a96.4 96.4 0 0 0 29-24.5l-3.5-1.5-4.4-2c-1.2-.4-1.2-.4-2.3-1-5.7-2.4-5.7-2.4-6.8-3.5v-9h77a85.6 85.6 0 0 1-31 60 83 83 0 0 1-11 7l-2.5 1.4a88.2 88.2 0 0 1-65 6 88.1 88.1 0 0 1-49.5-43.4c-2-4.6-3.5-9.2-5-14l-1-3.2c-5.5-20-2-42.6 8-60.5 11.9-19.8 30-33.9 52-40.8a88 88 0 0 1 70.8 13.5Z"/></g><defs><clipPath id="a"><path fill="#fff" d="M0 0h225v225H0z"/></clipPath></defs></svg>