<svg height="256" viewBox="0 0 67.733 67.733" width="256" xmlns="http://www.w3.org/2000/svg"><circle cx="33.867" cy="33.867" fill="#fff" fill-rule="evenodd" r="33.867" stroke-width=".264583"/><path d="m10.003 48.297 22.17-38.933s.44-.978 1.68-.884c1.243.095 1.58.959 1.58.959l6.121 10.765s.608 1.642.608 3.02c0 1.38-1.412 3.744-1.412 3.744l-12.786 21.89s-.468.71-1.404 1.314-2.611 1.057-2.611 1.057l-12.051.065s-.582.123-1.332-.656l-.027-.023c-.8-.695-.536-2.318-.536-2.318zm28.026-.156 8.478-14.21s.419-.699 1.438-.698c.994 0 1.527.706 1.527.706l8.098 14.11s.519.97.012 1.912c-.465.865-1.039.95-1.039.95l-17.125.077s-.604.071-1.308-.891c-.668-.914-.081-1.956-.081-1.956z"/></svg>