<svg enable-background="new 0 0 104 104" viewBox="0 0 104 104" xmlns="http://www.w3.org/2000/svg"><path d="m90.4 31.4-13.5-13.5c-7.7-9.7-19.6-15.9-32.9-15.9-23.2 0-42 18.8-42 42 0 13.3 6.2 25.2 15.9 32.9l13.5 13.5c7.3 7.3 19 7.3 26.3 0l32.7-32.7c7.3-7.2 7.3-19 0-26.3z" fill="#ed1e79"/><path d="m44.6 97.9c-5.5 0-10.7-2.1-14.6-6l-13.5-13.5c-10.5-8.4-16.5-21-16.5-34.4 0-24.3 19.7-44 44-44 13.4 0 26 6 34.4 16.5l13.4 13.5c3.9 3.9 6 9.1 6 14.6s-2.1 10.7-6 14.6l-32.7 32.6c-3.9 3.9-9 6.1-14.5 6.1zm-.6-93.9c-22.1 0-40 17.9-40 40 0 12.2 5.5 23.7 15.1 31.3l.2.2 13.5 13.5c3.1 3.1 7.3 4.9 11.7 4.9s8.6-1.7 11.7-4.9l32.8-32.7c3.1-3.1 4.9-7.3 4.9-11.7s-1.7-8.6-4.9-11.7l-13.7-13.8c-7.6-9.6-19.1-15.1-31.3-15.1z"/><path d="m13 46h4v35h-4z" transform="matrix(.7071 -.7071 .7071 .7071 -40.5079 29.2053)"/><path d="m13 31h4v35h-4z" transform="matrix(.7071 -.7071 .7071 .7071 -29.9013 24.8119)"/><circle cx="60" cy="60" fill="#fff" r="42"/><path d="m60 104c-24.3 0-44-19.7-44-44s19.7-44 44-44 44 19.7 44 44-19.7 44-44 44zm0-84c-22.1 0-40 17.9-40 40s17.9 40 40 40 40-17.9 40-40-17.9-40-40-40z"/><circle cx="60" cy="60" fill="#fff" r="32"/><path d="m60 94c-18.7 0-34-15.3-34-34s15.3-34 34-34 34 15.3 34 34-15.3 34-34 34zm0-64c-16.5 0-30 13.5-30 30s13.5 30 30 30 30-13.5 30-30-13.5-30-30-30z"/><path d="m52.6 70h-9.1v-17.9h8.8v3.3h-5.4v4h5v3.3h-5v4.1h5.7z"/><path d="m65.8 55.4h-4.3v14.6h-3.5v-14.6h-4.3v-3.3h12.1z"/><path d="m81 70h-3.4v-7.3h-6.3v7.3h-3.4v-17.9h3.4v7.1h6.3v-7.1h3.4z"/></svg>