<svg height="1080" viewBox="0 0 1080 1080" width="1080" xmlns="http://www.w3.org/2000/svg"><g fill="none" stroke-width="1.04603" transform="matrix(7.1438917 0 0 7.1438917 -805.59471 8.68397)"><circle cx="188.31445" cy="74.289749" fill="#000" r="75.314453"/><path d="m234.19979 54.785081c-2.50525-5.80005-5.93206-10.940889-10.41431-15.422622-4.48121-4.481837-9.62247-7.909063-15.42273-10.413583-5.93101-2.504519-12.39027-3.822731-18.84953-3.822731-6.59106 0-12.91852 1.318212-18.98134 3.822731-5.80025 2.50452-10.94151 5.931746-15.42272 10.413583-4.48226 4.481733-7.90907 9.622572-10.41432 15.422622-2.5042 6.063546-3.82221 12.390796-3.82221 18.981648 0 6.590851 1.31801 12.918102 3.82221 18.981648 2.50525 5.80005 5.93206 10.941203 10.41432 15.422413 4.48121 4.48225 9.62247 7.90906 15.42272 10.41431 5.93102 2.50421 12.39028 3.82221 18.98134 3.82221s12.91852-1.318 18.98133-3.82221c5.80026-2.50525 10.94152-5.93206 15.42273-10.41431 4.48226-4.48121 7.90906-9.622363 10.41431-15.422413 2.50421-5.931745 3.82221-12.390797 3.82221-18.981648-.1318-6.590852-1.318-12.918102-3.95401-18.981648zm-60.9001 14.36801c1.977-7.777159 9.09527-13.577104 17.53153-13.577104h33.74506c2.10985 4.218133 3.55965 8.699866 4.08686 13.577104zm55.36345 9.095371c-.52721 4.745438-1.97701 9.359076-4.08686 13.577208h-33.74506c-8.43626 0-15.42272-5.799945-17.53153-13.577208zm-67.09472-32.426952c7.51262-7.513662 17.39973-11.599995 27.9448-11.599995s20.43218 4.086333 27.813 11.599995c.2636.263601.3954.395401.66005.659002h-27.15505c-7.25006 0-14.10472 2.768224-19.24493 7.909063-4.08686 4.086332-6.72286 9.095371-7.64547 14.631716h-13.70932c1.0544-8.69997 5.00946-16.872634 11.33692-23.199781zm27.9448 67.35873c-10.54507 0-20.43218-4.08685-27.9448-11.60009-6.32746-6.327254-10.28252-14.499918-11.33692-23.331688h13.70932c.92261 5.536344 3.55861 10.677288 7.64547 14.63182 5.14021 5.140839 11.99487 7.908958 19.24493 7.908958h27.28685c-.26465.26371-.39645.52731-.66005.65911-7.51262 7.64504-17.39973 11.73189-27.9448 11.73189z" fill="#fff"/></g></svg>