<svg fill="none" height="120" viewBox="0 0 120 120" width="120" xmlns="http://www.w3.org/2000/svg" xmlns:xlink="http://www.w3.org/1999/xlink"><linearGradient id="a"><stop offset="0" stop-color="#00ffa3"/><stop offset="1" stop-color="#dc1fff"/></linearGradient><linearGradient id="b" gradientUnits="userSpaceOnUse" x1="68.1022" x2="41.3904" xlink:href="#a" y1="40.5572" y2="92.1249"/><linearGradient id="c" gradientUnits="userSpaceOnUse" x1="68.102" x2="41.3902" xlink:href="#a" y1="40.5569" y2="92.1246"/><linearGradient id="d" gradientUnits="userSpaceOnUse" x1="68.1022" x2="41.3911" xlink:href="#a" y1="40.5569" y2="92.1247"/><linearGradient id="e" gradientUnits="userSpaceOnUse" x1="100" x2="21.5" y1="30" y2="42"><stop offset="0" stop-color="#1ce5af"/><stop offset="1" stop-color="#d22bfb"/></linearGradient><clipPath id="f"><path d="m0 0h120v120h-120z"/></clipPath><mask id="g" height="120" maskUnits="userSpaceOnUse" width="120" x="0" y="0"><path d="m0 0h120v120h-120z" fill="#fff"/></mask><mask id="h" height="39" maskUnits="userSpaceOnUse" width="49" x="35" y="51"><path d="m35 51h49v38.1111h-49z" fill="#fff"/></mask><g clip-path="url(#f)"><g mask="url(#g)"><path d="m60 120c33.137 0 60-26.863 60-60s-26.863-60-60-60-60 26.863-60 60 26.863 60 60 60z" fill="#000"/><g mask="url(#h)"><path d="m42.957 80.0621c.3008-.2974.7068-.464 1.1298-.4635h39.0761c.7119 0 1.0685.8534.5649 1.353l-7.7216 7.6549c-.3007.2974-.7068.464-1.1297.4634h-39.0755c-.7119 0-1.0685-.8534-.5649-1.3529z" fill="url(#b)"/><path d="m42.9569 51.4641c.3006-.2976.7067-.4644 1.1297-.4641h39.0761c.7119 0 1.0685.8541.5649 1.3536l-7.7223 7.6542c-.3006.2977-.7066.4645-1.1297.4642h-39.0754c-.7119 0-1.0685-.8541-.5649-1.3537z" fill="url(#c)"/><path d="m76.0062 65.6721c-.3006-.2976-.7067-.4645-1.1297-.4641h-39.0755c-.7119 0-1.0685.8541-.5649 1.353l7.7216 7.6548c.2995.2974.7058.4642 1.1298.4642h39.0754c.7119 0 1.0685-.8541.5649-1.3536l-7.7216-7.6536z" fill="url(#d)"/></g></g><g fill="url(#e)"><path d="m31.4219 30.4844h2.4453l-3.2422 11.5156h-2.2969l-1.3906-6.7344-.4063-2.2265-.4062 2.2265-1.3906 6.7344h-2.2344l-3.2656-11.5156h2.5547l1.5234 6.5937.3281 1.836.336-1.7969 1.2968-6.6328h2.5391l1.3672 6.5937.3515 1.836.3516-1.7657z"/><path d="m40.2188 37.4844h-2.4844v4.5156h-2.3516v-11.5156h5.6484c.8073.0156 1.4271.1146 1.8594.2968.4375.1823.8073.4506 1.1094.8047.25.2917.4479.6146.5938.9688.1458.3542.2187.7578.2187 1.2109 0 .5469-.138 1.086-.4141 1.6172-.276.5261-.7317.8984-1.3672 1.1172.5313.2135.9063.5182 1.125.9141.224.3906.336.9895.336 1.7968v.7735c0 .526.0208.8828.0625 1.0703.0625.2969.2083.5156.4375.6562v.2891h-2.6484c-.073-.2552-.125-.4609-.1563-.6172-.0625-.3229-.0964-.6536-.1016-.9922l-.0156-1.0703c-.0104-.7344-.1458-1.2239-.4062-1.4687-.2552-.2448-.737-.3672-1.4453-.3672zm1.4609-2.0938c.4792-.2187.7187-.651.7187-1.2968 0-.698-.2317-1.1667-.6953-1.4063-.2604-.1354-.651-.2031-1.1719-.2031h-2.7968v3.0937h2.7265c.5417 0 .948-.0625 1.2188-.1875z"/><path d="m53.6328 39.6328h-4.2422l-.7968 2.3672h-2.5157l4.1094-11.5156h2.7187l4.0782 11.5156h-2.6094zm-.6719-1.9844-1.4375-4.5312-1.4843 4.5312z"/><path d="m63.3438 37.8594h-2.4454v4.1406h-2.3906v-11.5156h5.0156c1.1563 0 2.0782.2968 2.7657.8906s1.0312 1.513 1.0312 2.7578c0 1.3594-.3437 2.3203-1.0312 2.8828s-1.6693.8438-2.9453.8438zm1.125-2.3985c.3124-.276.4687-.7135.4687-1.3125 0-.5989-.1589-1.026-.4766-1.2812-.3125-.2552-.7526-.3828-1.3203-.3828h-2.2422v3.3906h2.2422c.5677 0 1.0104-.138 1.3282-.4141z"/><path d="m74.0156 37.8594h-2.4453v4.1406h-2.3906v-11.5156h5.0156c1.1563 0 2.0781.2968 2.7656.8906s1.0313 1.513 1.0313 2.7578c0 1.3594-.3438 2.3203-1.0313 2.8828s-1.6692.8438-2.9453.8438zm1.125-2.3985c.3125-.276.4688-.7135.4688-1.3125 0-.5989-.1589-1.026-.4766-1.2812-.3125-.2552-.7526-.3828-1.3203-.3828h-2.2422v3.3906h2.2422c.5677 0 1.0104-.138 1.3281-.4141z"/><path d="m87.8125 36.9688h-5.5937v2.9609h6.375v2.0703h-8.7266v-11.5156h8.4453v2.039h-6.0937v2.4454h5.5937z"/><path d="m95.4297 42h-4.9609v-11.5156h4.9609c.7135.0104 1.3073.0937 1.7812.25.8073.2656 1.461.7526 1.961 1.4609.401.5729.6745 1.1927.8203 1.8594s.2188 1.3021.2188 1.9062c0 1.5313-.3074 2.8282-.9219 3.8907-.8334 1.4323-2.1198 2.1484-3.8594 2.1484zm1.7891-8.5781c-.3698-.625-1.1016-.9375-2.1954-.9375h-2.2187v7.5156h2.2187c1.1355 0 1.9271-.5599 2.375-1.6797.2448-.6146.3672-1.3463.3672-2.1953 0-1.1719-.1823-2.0729-.5468-2.7031z"/></g></g></svg>