<svg width="120" height="120" viewBox="0 0 120 120" fill="none" xmlns="http://www.w3.org/2000/svg"><path d="M60 120c33.137 0 60-26.863 60-60S93.137 0 60 0 0 26.863 0 60s26.863 60 60 60z" fill="url(#paint0_linear)"/><path d="M28.168 45v6.225l6.812 5.776 6.812-5.777V45h5.168v8.7l-7.945 6.7 7.945 6.7v8.7h-5.168v-6.225l-6.812-5.777-6.812 5.776V75.8H23v-8.7l7.944-6.7L23 53.7V45h5.168zm41.47 0l6.482 6.64V75.8h-5.168V63.02H57.328V75.8H52.16V51.64L58.643 45h10.994zm27.542 0v5.24h-5.796v20.319l5.796.001v5.24H80.42v-5.24l5.796-.001V50.24H80.42V45h16.76zm-29.685 5.24h-6.711l-3.456 3.579v3.961h13.624v-3.96l-3.457-3.58z" fill="#fff"/><defs><linearGradient id="paint0_linear" x1="97.5" y1="109.5" x2="25" y2="10.5" gradientUnits="userSpaceOnUse"><stop stop-color="#FF416C"/><stop offset="1" stop-color="#FF4B2B"/></linearGradient></defs></svg>