<svg fill="none" height="30" width="30" xmlns="http://www.w3.org/2000/svg"><path d="m0 13.75 5.5-11.75h19l5.5 11.75-15 14.25z" fill="#eabe65"/><path d="m16.667 15.137c-.093 0-.624.046-1.755.046-.923 0-1.546-.023-1.777-.046-3.509-.163-6.117-.766-6.117-1.509s2.608-1.346 6.117-1.509v2.39c.23.024.877.047 1.8.047 1.085 0 1.64-.046 1.732-.046v-2.39c3.508.162 6.117.765 6.117 1.508s-2.632 1.346-6.117 1.509zm0-3.273v-2.135h4.87v-3.273h-13.296v3.274h4.894v2.135c-3.97.186-6.949.975-6.949 1.926 0 .952 2.978 1.741 6.949 1.927v6.87h3.532v-6.87c3.97-.186 6.948-.975 6.948-1.927-.023-.928-3.001-1.74-6.948-1.926z" fill="#f3f5ff"/></svg>