<svg fill="none" height="256" viewBox="0 0 256 256" width="256" xmlns="http://www.w3.org/2000/svg" xmlns:xlink="http://www.w3.org/1999/xlink"><clipPath id="a"><path d="m0 0h256v256h-256z"/></clipPath><g clip-path="url(#a)"><circle cx="128" cy="128" fill="#000" r="128"/><path clip-rule="evenodd" d="m127.991 45c-25.4 0-45.991 20.591-45.991 45.9913v18.6837h26.602c-16.5301 7.541-21.9209 15.012-26.602 32.337v22.997c0 25.4 20.591 45.991 45.991 45.991 25.401 0 45.992-20.591 45.992-45.991v-19.403h-26.589c16.514-7.534 21.911-14.998 26.589-32.288v-22.3267c0-25.4003-20.591-45.9913-45.992-45.9913zm.36 32.3377c-4.961 0-8.983 4.0217-8.983 8.9827v83.3596c0 4.961 4.022 8.982 8.983 8.982s8.982-4.021 8.982-8.982v-83.3596c0-4.961-4.021-8.9827-8.982-8.9827z" fill="#fff" fill-rule="evenodd"/></g></svg>