<?xml version="1.0" standalone="no"?>
<!DOCTYPE svg PUBLIC "-//W3C//DTD SVG 20010904//EN"
 "http://www.w3.org/TR/2001/REC-SVG-20010904/DTD/svg10.dtd">
<svg version="1.0" xmlns="http://www.w3.org/2000/svg"
 width="290.000000pt" height="290.000000pt" viewBox="0 0 290.000000 290.000000"
 preserveAspectRatio="xMidYMid meet">
<metadata>
Created by potrace 1.11, written by Peter Selinger 2001-2013
</metadata>
<g transform="translate(0.000000,290.000000) scale(0.100000,-0.100000)"
fill="#000000" stroke="none">
<path d="M900 2750 l0 -50 -100 0 -100 0 0 -50 0 -50 -50 0 -50 0 0 -50 0 -50
-50 0 -50 0 0 -50 0 -50 -50 0 -50 0 0 -50 0 -50 -50 0 -50 0 0 -100 0 -100
-50 0 -50 0 0 -300 0 -300 -50 0 -50 0 0 -50 0 -50 -50 0 -50 0 0 -200 0 -200
50 0 50 0 0 -50 0 -50 50 0 50 0 0 -50 0 -50 50 0 50 0 0 -50 0 -50 50 0 50 0
0 -100 0 -100 50 0 50 0 0 -50 0 -50 50 0 50 0 0 -50 0 -50 100 0 100 0 0 -50
0 -50 100 0 100 0 0 -50 0 -50 450 0 450 0 0 50 0 50 100 0 100 0 0 50 0 50
100 0 100 0 0 50 0 50 50 0 50 0 0 50 0 50 50 0 50 0 0 100 0 100 50 0 50 0 0
50 0 50 50 0 50 0 0 50 0 50 50 0 50 0 0 50 0 50 50 0 50 0 0 200 0 200 -50 0
-50 0 0 50 0 50 -50 0 -50 0 0 300 0 300 -50 0 -50 0 0 100 0 100 -50 0 -50 0
0 50 0 50 -50 0 -50 0 0 50 0 50 -50 0 -50 0 0 50 0 50 -50 0 -50 0 0 50 0 50
-100 0 -100 0 0 50 0 50 -550 0 -550 0 0 -50z m1100 -100 l0 -50 100 0 100 0
0 -50 0 -50 50 0 50 0 0 -50 0 -50 50 0 50 0 0 -50 0 -50 50 0 50 0 0 -150 0
-150 50 0 50 0 0 -200 0 -200 -50 0 -50 0 0 -100 0 -100 -50 0 -50 0 0 -100 0
-100 -50 0 -50 0 0 50 0 50 -250 0 -250 0 0 -50 0 -50 -50 0 -50 0 0 -100 0
-100 100 0 100 0 0 50 0 50 50 0 50 0 0 -50 0 -50 -50 0 -50 0 0 -100 0 -100
150 0 150 0 0 150 0 150 100 0 100 0 0 -250 0 -250 -50 0 -50 0 0 -50 0 -50
-50 0 -50 0 0 -50 0 -50 -100 0 -100 0 0 -50 0 -50 -150 0 -150 0 0 -50 0 -50
-250 0 -250 0 0 50 0 50 -150 0 -150 0 0 50 0 50 -100 0 -100 0 0 50 0 50 -50
0 -50 0 0 50 0 50 -50 0 -50 0 0 250 0 250 150 0 150 0 0 -50 0 -50 -50 0 -50
0 0 -50 0 -50 150 0 150 0 0 50 0 50 100 0 100 0 0 100 0 100 -50 0 -50 0 0
50 0 50 -250 0 -250 0 0 -50 0 -50 -50 0 -50 0 0 50 0 50 -50 0 -50 0 0 100 0
100 -50 0 -50 0 0 300 0 300 50 0 50 0 0 100 0 100 50 0 50 0 0 50 0 50 50 0
50 0 0 50 0 50 50 0 50 0 0 50 0 50 100 0 100 0 0 50 0 50 550 0 550 0 0 -50z
m-1800 -1300 l0 -50 50 0 50 0 0 -150 0 -150 -100 0 -100 0 0 200 0 200 50 0
50 0 0 -50z m2600 -150 l0 -200 -100 0 -100 0 0 150 0 150 50 0 50 0 0 50 0
50 50 0 50 0 0 -200z"/>
<path d="M600 1450 l0 -50 200 0 200 0 0 50 0 50 -200 0 -200 0 0 -50z"/>
<path d="M1900 1450 l0 -50 200 0 200 0 0 50 0 50 -200 0 -200 0 0 -50z"/>
</g>
</svg>
