<svg width="202" height="49" viewBox="0 0 202 49" fill="none" xmlns="http://www.w3.org/2000/svg">
<path d="M198.097 48.8681C198.301 48.8153 198.505 48.757 198.71 48.7083C199.294 48.5719 199.695 48.2338 199.999 47.7696C200.091 47.6284 200.174 47.4756 200.251 47.3133C200.252 47.3131 200.252 47.3129 200.253 47.3126C200.565 47.2023 200.833 47.0254 201.062 46.796C201.216 46.6408 201.353 46.4616 201.472 46.2628C201.518 46.1878 201.553 46.103 201.575 46.0182C201.796 45.1929 201.916 44.3522 201.921 43.4963C201.924 42.9697 201.934 42.443 201.94 41.9164H201.942H201.97L201.997 41.9109V48.9307H198.094C198.095 48.9098 198.097 48.8876 198.095 48.8667L198.097 48.8681Z" fill="white"/>
<path d="M28.4724 48.932C28.4696 48.9112 28.4682 48.8918 28.4682 48.8709C28.5804 48.8681 28.6926 48.8654 28.8047 48.8654C43.8288 48.8654 58.8515 48.8654 73.8756 48.8654C73.9989 48.8654 74.1221 48.8667 74.2453 48.8681C74.2453 48.889 74.2453 48.9112 74.244 48.932H28.4724Z" fill="#FFA4A4"/>
<path d="M0.102468 34.634C0.0678508 34.6298 0.0346177 34.6256 0 34.6215C0 29.761 0 24.9018 0 20.0413C0.0360024 20.0371 0.0720049 20.0344 0.109392 20.0302C0.1177 20.1525 0.131547 20.2761 0.131547 20.3984C0.131547 25.0324 0.131547 29.6665 0.127393 34.3005C0.127393 34.4116 0.110777 34.5228 0.102468 34.634Z" fill="#FFA4A4"/>
<path d="M198.097 48.8681C198.097 48.889 198.097 48.9112 198.095 48.932H172.787C172.772 48.9182 172.77 48.9015 172.779 48.8834C172.878 48.8779 172.979 48.8667 173.079 48.8667C181.407 48.8667 189.736 48.8667 198.063 48.8667C198.074 48.8667 198.085 48.8695 198.097 48.8695V48.8681Z" fill="#FFA4A4"/>
<path d="M148.215 48.8681C150.345 48.8681 152.473 48.8654 154.603 48.8654C160.33 48.8654 166.057 48.8654 171.783 48.8654C171.917 48.8654 172.051 48.8723 172.186 48.8765C172.19 48.8959 172.189 48.914 172.179 48.932H148.217C148.215 48.9112 148.214 48.889 148.215 48.8681Z" fill="#FFA4A4"/>
<path d="M97.8699 48.932C97.8616 48.914 97.8602 48.8959 97.8629 48.8765C97.9862 48.8723 98.1094 48.8654 98.2327 48.8654C105.979 48.8654 113.725 48.8654 121.471 48.8654C121.594 48.8654 121.716 48.8751 121.839 48.8806C121.846 48.8987 121.845 48.9168 121.831 48.932H97.8685H97.8699Z" fill="#FFA4A4"/>
<path d="M123.71 48.8765C123.822 48.8723 123.933 48.8654 124.045 48.8654C131.365 48.8654 138.683 48.8654 146.002 48.8654C146.115 48.8654 146.225 48.8723 146.337 48.8765C146.342 48.8959 146.34 48.914 146.332 48.932H123.715C123.707 48.914 123.704 48.8959 123.71 48.8765Z" fill="#FFA4A4"/>
<path d="M78.8204 48.932C78.8204 48.9098 78.8204 48.8876 78.8204 48.8654C83.5686 48.8654 88.3154 48.864 93.0635 48.864C93.1189 48.864 93.1743 48.8709 93.2311 48.8751C93.2339 48.8945 93.2325 48.914 93.2256 48.9334H78.8218L78.8204 48.932Z" fill="#FFA4A4"/>
<path d="M3.97135 48.932C3.97135 48.9098 3.97135 48.8862 3.97135 48.864C4.05997 48.8598 4.14997 48.8528 4.2386 48.8528C8.44534 48.8528 12.6535 48.8528 16.8602 48.8528C16.9378 48.8528 17.0167 48.8598 17.0942 48.864C17.0942 48.8876 17.0942 48.9098 17.0942 48.9334H3.97135V48.932Z" fill="#FFA4A4"/>
<path d="M123.71 48.8765C123.704 48.8959 123.707 48.914 123.715 48.932H121.831C121.843 48.9168 121.846 48.9001 121.839 48.8806C122.118 48.8084 122.394 48.725 122.677 48.6694C122.79 48.6472 122.919 48.6736 123.036 48.7C123.263 48.7514 123.486 48.8167 123.71 48.8765Z" fill="white"/>
<path d="M201.999 41.9122L201.971 41.9178H201.942C201.942 41.9173 201.942 41.9169 201.942 41.9164C201.961 41.2624 201.979 40.6084 201.999 39.9544V39.9965V41.9122Z" fill="#FFA4A4"/>
<path d="M201.94 32.4761C201.94 32.0203 201.939 31.5645 201.938 31.1088C201.938 31.1089 201.939 31.109 201.939 31.1092C201.958 31.1144 201.978 31.1157 201.997 31.113V32.4636C201.978 32.4676 201.959 32.4707 201.94 32.4761Z" fill="#FFA4A4"/>
<path d="M172.18 48.932C172.189 48.914 172.191 48.8959 172.187 48.8765C172.385 48.7611 172.582 48.7903 172.779 48.8834C172.769 48.9015 172.772 48.9182 172.787 48.932H172.18Z" fill="white"/>
<path d="M201.94 32.4761C201.96 32.4705 201.979 32.4663 201.999 32.4622V33.4461V33.4751C201.979 33.142 201.96 32.8092 201.94 32.4761C201.94 32.4764 201.94 32.4757 201.94 32.4761Z" fill="#CA5B23"/>
<path d="M77.5105 6.67699C77.5114 6.68017 77.5127 6.683 77.5142 6.68549C77.5193 6.69385 77.5275 6.69846 77.5382 6.70061L77.5396 6.70617C77.5354 6.73396 77.5299 6.76175 77.5257 6.79093C77.5313 7.45372 77.5368 8.11791 77.5409 8.78071C77.6822 8.79877 77.822 8.83351 77.9633 8.83351C89.0714 8.83629 100.18 8.83629 111.288 8.8349C111.389 8.8349 111.49 8.84185 111.59 8.83073C111.638 8.82518 111.682 8.78349 111.729 8.75709C111.735 8.15265 111.742 7.54821 111.747 6.94377C111.878 6.92154 112.006 6.88124 112.137 6.88124C113.298 6.87568 114.459 6.88124 115.62 6.87568C115.735 6.87568 115.85 6.84264 115.966 6.82425C115.969 6.82378 115.972 6.82333 115.975 6.82288C115.991 6.7745 116.008 6.72536 116.023 6.6756C116.024 6.67546 116.024 6.67531 116.025 6.67517C116.195 6.6234 116.181 6.48209 116.174 6.34906C116.155 5.99751 116.134 5.64597 116.106 5.29442C116.1 5.21401 116.062 5.13628 116.039 5.05728C116.038 5.05574 116.038 5.05419 116.037 5.05265C116.039 4.22033 116.04 3.3894 116.041 2.55708C116.172 2.53485 116.302 2.49316 116.432 2.49316C117.72 2.48899 119.006 2.49177 120.294 2.49316C120.298 2.72104 120.304 2.94753 120.308 3.17541C120.302 3.25461 120.297 3.33382 120.291 3.41302L120.299 3.43664C120.189 3.4422 120.147 3.50612 120.147 3.61172C120.147 4.23422 120.147 4.85811 120.147 5.48062C120.147 5.58344 120.178 5.65431 120.291 5.66264C120.298 5.7738 120.31 5.88496 120.31 5.99613C120.31 6.81594 120.305 7.63575 120.304 8.45556C120.304 8.55422 120.312 8.65148 120.319 8.7821H120.321H121.847C121.848 8.78256 121.848 8.78302 121.848 8.78349C121.903 9.24428 121.956 9.67459 122.005 10.0924H122.008H123.627C123.666 9.72981 123.704 9.38301 123.743 9.0254C123.752 8.94586 123.761 8.86578 123.769 8.78488H124.564C124.564 8.23741 124.563 7.7219 124.564 7.20639C124.564 7.18803 124.564 7.16968 124.565 7.15132C124.571 5.58564 124.578 4.01996 124.586 2.45564C124.708 2.46259 124.832 2.47649 124.953 2.47649C126.108 2.48066 127.264 2.48205 128.419 2.48483C128.539 2.48483 128.661 2.48483 128.815 2.48483H128.817V8.80155V8.80711H146.342C146.348 8.84797 146.354 8.8886 146.36 8.92903C146.421 9.32663 146.478 9.70487 146.537 10.0966C146.537 10.0984 146.538 10.1003 146.538 10.1021H148.12C148.169 9.68945 148.221 9.2726 148.269 8.86269C149.105 8.75023 171.648 8.74459 172.243 8.85964C172.243 8.85973 172.244 8.85982 172.244 8.85991C172.244 9.1531 172.238 9.45323 172.245 9.75476C172.247 9.83065 172.252 9.88919 172.265 9.93321C172.3 10.0575 172.397 10.0668 172.655 10.0299C172.69 9.67556 172.726 9.3115 172.762 8.9405C172.863 8.92661 172.939 8.90855 173.014 8.90577C173.641 8.88353 174.27 8.84741 174.897 8.84463C181.257 8.81962 187.617 8.79738 193.978 8.78071C194.786 8.77932 195.593 8.81545 196.4 8.83768C196.487 8.84045 196.576 8.85298 196.692 8.86408C196.692 8.86406 196.693 8.8641 196.692 8.86408C196.743 9.29031 196.791 9.70827 196.845 10.1619C196.845 10.1637 196.846 10.1656 196.846 10.1674H198.088H198.09C198.109 10.5454 198.142 10.89 198.142 11.2332C198.152 15.312 198.157 19.3908 198.163 23.4695C198.163 23.4856 198.163 23.5018 198.163 23.5179C198.164 24.8449 198.166 26.1732 198.167 27.5002C198.167 27.6086 198.167 27.717 198.167 27.8601C198.167 27.8619 198.167 27.8638 198.167 27.8657H199.387C199.394 27.9141 199.401 27.9616 199.408 28.0085C199.424 28.1113 199.439 28.211 199.454 28.3091C199.473 28.4373 199.49 28.5625 199.502 28.6883C199.531 29.0023 199.545 29.3163 199.555 29.6317C199.688 33.5905 199.672 37.5506 199.618 41.5093C199.606 42.4541 199.556 43.3976 199.514 44.3411C199.503 44.5968 199.458 44.8524 199.424 45.1415H198.223C198.163 45.6042 198.106 46.0349 198.048 46.4865H172.773V46.4809V45.3318C172.772 45.3317 172.772 45.3316 172.772 45.3315C172.377 45.2458 172.281 45.3086 172.245 45.6542C172.218 45.9224 172.193 46.1905 172.166 46.4545C171.91 46.5268 149.039 46.5574 148.272 46.4851C148.272 46.4833 148.271 46.4814 148.271 46.4796C148.235 46.0839 148.198 45.6786 148.16 45.2568H146.537C146.466 45.6653 146.396 46.071 146.322 46.4921H123.736C123.736 46.4902 123.735 46.4884 123.735 46.4865C123.7 46.0825 123.667 45.6744 123.63 45.2429H122.023C121.961 45.65 121.899 46.0669 121.834 46.4935H97.8754C97.8752 46.4916 97.8742 46.4898 97.874 46.4879C97.8341 46.0661 97.7977 45.6593 97.7591 45.2415C97.7588 45.2415 97.7594 45.2415 97.7591 45.2415C97.3565 45.2054 96.9778 45.172 96.5572 45.1345C96.5569 45.1327 96.556 45.1308 96.5558 45.129C96.5197 44.8112 96.4616 44.4935 96.4547 44.1758C96.4215 42.7932 96.3979 41.4092 96.3813 40.0267C96.3716 39.1374 96.3813 38.2495 96.3813 37.3602C96.3813 37.2504 96.3813 37.1407 96.3813 37.01H96.3799H94.7736C94.7681 37.1337 94.7584 37.2629 94.757 37.3935C94.7363 39.4292 94.7224 41.4662 94.6947 43.5018C94.6878 44.0396 94.6407 44.5773 94.6103 45.1526H93.3349C93.292 45.6181 93.2532 46.0488 93.2117 46.4935H78.862C78.8617 46.4916 78.8608 46.4898 78.8606 46.4879C78.8079 46.0839 78.8687 45.6716 78.8246 45.236C78.8243 45.2359 78.8249 45.236 78.8246 45.236C78.3887 45.2054 77.9547 45.1748 77.4856 45.1415C77.4855 45.1396 77.4854 45.1378 77.4853 45.136C77.3749 42.438 77.4356 39.7344 77.3429 37.0114H77.3417H75.8599C75.7934 39.7112 75.7256 42.4041 75.6591 45.122C75.2174 45.1526 74.7978 45.1804 74.3603 45.2109C74.3063 45.6473 74.255 46.0571 74.2024 46.4879H28.5029C28.5027 46.486 28.5025 46.4842 28.5023 46.4823C28.4637 46.0742 28.4251 45.6563 28.3838 45.204H28.3815H27.0974C27.0973 45.2021 27.0972 45.2003 27.0971 45.1984C27.0642 44.6099 27.071 44.0531 27.0614 43.4977C27.0517 42.9349 27.0489 42.3722 27.0378 41.8108C27.0268 41.2481 27.0046 40.6867 26.9977 40.1239C26.9908 39.564 26.9963 39.0026 26.9963 38.419H26.9935H18.5149V45.1428H17.2479C17.1884 45.5986 17.133 46.0294 17.0735 46.4823H3.99212C3.99187 46.4805 3.99162 46.4786 3.99137 46.4768C3.93483 46.0562 3.87692 45.63 3.81626 45.1748H3.81423H2.68911C2.68865 45.173 2.6882 45.1711 2.68775 45.1692C2.66451 45.0748 2.63779 45.0039 2.63372 44.9316C2.60741 44.3703 2.57141 43.8089 2.56448 43.2462C2.52709 40.0739 2.48417 36.9017 2.46617 33.7294C2.44678 30.0736 2.44401 26.4178 2.45094 22.7606C2.45647 20.1163 2.47863 17.4735 2.51325 14.8306C2.53125 13.4133 2.58802 11.9974 2.62818 10.5815C2.63233 10.4606 2.64895 10.3411 2.6628 10.1897H3.8038C3.87026 9.72975 3.93257 9.299 3.99904 8.84185C4.11397 8.8349 4.22198 8.8224 4.32999 8.8224C10.9821 8.8085 17.6343 8.7946 24.2864 8.78349C25.3748 8.7821 26.4632 8.78766 27.5502 8.79183C27.7737 8.7927 27.8712 8.80518 27.9324 8.90313C27.9683 8.96051 27.9918 9.04722 28.021 9.17811C28.0459 9.28788 28.0542 9.40043 28.0722 9.5102C28.0935 9.63438 28.1196 9.75592 28.1926 9.86571C28.238 9.93405 28.3016 9.99785 28.3935 10.0549C28.4295 9.66722 28.4641 9.31012 28.5015 8.9155C28.7784 8.89465 29.054 8.85574 29.3295 8.85435C33.1652 8.83073 37.0022 8.80989 40.8378 8.79599C41.4097 8.79321 41.9816 8.82379 42.5535 8.84185C42.6733 8.846 42.7931 8.85976 42.9266 8.86948C42.9273 8.86953 42.928 8.86959 42.9288 8.86964C42.9756 9.29443 43.0184 9.69304 43.0653 10.1204C43.0655 10.1222 43.0657 10.124 43.0658 10.1258C43.4777 10.1549 43.8744 10.184 44.2904 10.2131C44.2911 10.2132 44.2919 10.2132 44.2927 10.2133C44.3121 10.4634 44.337 10.6968 44.3481 10.9317C44.4755 13.7079 44.5046 16.4856 44.5018 19.2646C44.499 21.0876 44.5087 22.9093 44.5115 24.7323C44.5115 24.8529 44.5115 24.9735 44.5115 25.0847C44.5115 25.0863 44.5115 25.0878 44.5115 25.0894C44.769 25.1714 46.9278 25.1895 47.3751 25.1172C47.4249 20.6068 47.4748 16.0909 47.5246 11.5333H48.793C48.8539 11.0776 48.9093 10.6579 48.9689 10.1994H50.0503C50.1348 9.72975 50.2123 9.29344 50.2913 8.84879H72.8341H72.8357C72.8814 9.06973 72.9077 9.30317 72.9797 9.51993C73.022 9.6455 73.0041 9.80162 73.0685 9.93367C73.1032 10.0047 73.1617 10.0688 73.2663 10.1174C73.2788 9.99375 73.2954 9.90065 73.2954 9.80756C73.2996 8.90715 73.2982 8.00814 73.3037 7.10773C73.3037 6.98824 73.3356 6.86874 73.3536 6.74924C73.384 6.75758 73.4145 6.7673 73.445 6.77564C73.5544 6.78815 73.6638 6.81038 73.7731 6.81038C74.4212 6.81316 75.0692 6.81455 75.7173 6.81038C76.2975 6.8076 76.8791 6.80065 77.4592 6.79648C77.4759 6.75758 77.4925 6.71728 77.5105 6.67837V6.67699ZM99.6174 35.1453H100.945V36.4237C101.105 36.4375 101.233 36.457 101.363 36.457C106.915 36.4667 112.466 36.4765 118.017 36.4834C118.185 36.4834 118.354 36.4709 118.52 36.4528C118.789 36.4237 118.79 36.4209 118.815 36.1569C118.847 35.8137 118.873 35.4691 118.905 35.0883H120.147C120.176 34.6159 120.204 34.1824 120.233 33.7252H121.482V14.4847H120.144V13.1771C119.692 13.1438 119.272 13.1132 118.819 13.0799V11.7612C112.857 11.7473 106.929 11.7362 100.994 11.7751C100.958 12.2517 100.925 12.6825 100.889 13.1452H100.011C100.011 13.2897 100.011 13.3994 100.011 13.5106C100.011 17.8973 100.011 22.2826 100.016 26.6693C100.016 27.025 99.9885 27.346 99.6174 27.4877V35.1453ZM50.6665 14.5361C50.6513 14.6139 50.6347 14.6667 50.6333 14.7195C50.6084 15.3031 50.5696 15.8881 50.5668 16.4717C50.5544 19.5981 50.553 22.7259 50.5433 25.8523C50.5433 26.2219 50.6305 26.5192 51.0321 26.6373C51.0321 26.7791 51.0321 26.9013 51.0321 27.0236C51.0321 28.8341 51.0321 30.6461 51.0321 32.4566C51.0321 33.232 51.0321 34.0087 51.0335 34.784C51.0335 34.8799 51.0542 34.9772 51.0667 35.08C51.3589 35.1217 51.622 35.1592 51.9128 35.2009C51.9418 35.5886 51.9709 35.9665 51.9986 36.3375C52.5871 36.5501 58.1024 36.5904 58.9055 36.3861C58.9401 35.9874 58.9762 35.5788 59.0149 35.1314H60.3262C60.3442 32.3955 60.2972 29.7012 60.3886 27H62.8132C62.8132 27.471 62.8132 27.9198 62.8132 28.3673V32.383C62.8132 32.8332 62.8132 33.2834 62.8132 33.7322C62.8132 34.1768 62.8173 34.6215 62.8201 35.0703C63.2881 35.1161 63.7091 35.1564 64.1467 35.1981C64.1813 35.5997 64.2131 35.9776 64.2477 36.3681C64.4181 36.3917 64.5731 36.4223 64.7282 36.4306C65.2987 36.4598 65.8706 36.5043 66.4411 36.5015C67.8314 36.4945 69.2202 36.4667 70.6105 36.4417C70.7863 36.4389 70.9608 36.4014 71.1588 36.3764C71.2101 35.9457 71.2571 35.5399 71.3084 35.105H72.4632C72.5352 34.7243 72.5241 14.8293 72.4563 14.568C72.0395 14.5402 71.6172 14.5125 71.1561 14.4805V13.191C70.7074 13.1521 70.3003 13.116 69.8586 13.0771V11.8738C69.7049 11.8501 69.5844 11.8196 69.4639 11.8154C68.6123 11.789 67.7607 11.7473 66.9092 11.7487C63.3989 11.7557 59.8887 11.7723 56.3784 11.7973C55.4936 11.8029 54.6088 11.8488 53.724 11.8835C53.5952 11.889 53.4692 11.9307 53.3085 11.9613V13.0785C52.8419 13.1202 52.414 13.1591 51.9875 13.198C51.9571 13.6246 51.9294 14.0136 51.9017 14.4152C51.4821 14.4555 51.0944 14.493 50.6707 14.5333L50.6665 14.5361ZM124.606 14.5514V33.7169C124.873 33.7766 125.128 33.8336 125.373 33.8892C125.399 34.3074 125.424 34.6854 125.449 35.0772C125.907 35.1175 126.327 35.1537 126.778 35.194C126.79 35.5886 126.801 35.9735 126.813 36.3903C127.726 36.4264 128.598 36.4862 129.47 36.4918C133.889 36.5223 138.308 36.5779 142.725 36.432C142.909 36.4264 143.093 36.3889 143.277 36.3667C143.306 35.9498 143.331 35.5719 143.358 35.1842C143.812 35.1523 144.233 35.1245 144.681 35.0925C144.702 34.6451 144.721 34.2255 144.742 33.778C145.191 33.7572 145.609 33.7377 146.03 33.7183C146.041 33.5946 146.052 33.5182 146.054 33.4404C146.076 32.4733 146.115 31.5062 146.115 30.5405C146.112 27.4141 146.102 24.2877 146.079 21.1613C146.063 19.1256 146.019 17.0914 145.984 15.0557C145.982 14.8807 145.95 14.7056 145.928 14.4999H144.694V13.191C144.233 13.1618 143.812 13.1341 143.373 13.1063C143.337 12.6839 143.305 12.2962 143.27 11.8877C143.003 11.864 142.75 11.8279 142.495 11.821C141.485 11.796 140.477 11.7612 139.468 11.7626C135.936 11.7682 132.403 11.7876 128.871 11.8029C128.534 11.8043 128.198 11.8098 127.861 11.8251C127.519 11.8404 127.177 11.8724 126.838 11.896C126.808 12.3142 126.781 12.6922 126.754 13.084C126.29 13.1229 125.86 13.1591 125.397 13.1994V14.3985C125.12 14.4527 124.88 14.4986 124.604 14.5527L124.606 14.5514ZM170.488 17.3123C170.564 17.0289 170.568 13.4925 170.492 13.1799C170.08 13.1466 169.659 13.1118 169.199 13.0743C169.175 12.6755 169.152 12.2878 169.128 11.8738C169.027 11.8529 168.932 11.821 168.836 11.8154C168.345 11.7904 167.852 11.757 167.359 11.7529C166.259 11.7431 165.16 11.7473 164.06 11.7459C160.067 11.7432 156.073 11.7404 152.081 11.7432C151.829 11.7432 151.577 11.7821 151.324 11.8029C151.278 12.2573 151.238 12.6644 151.199 13.0632C150.769 13.0979 150.382 13.1285 150.001 13.1591C149.918 13.5926 150.025 14.0053 149.886 14.3943C149.618 14.4624 149.36 14.5277 149.107 14.5917V33.6641C149.378 33.7086 149.637 33.7516 149.903 33.7961C149.934 34.2449 149.963 34.6673 149.994 35.1189H151.332V36.4181H169.148C169.181 35.9887 169.213 35.5802 169.246 35.1536C169.692 35.1231 170.112 35.0953 170.537 35.0661C170.568 34.6173 170.598 34.1977 170.627 33.7683C171.053 33.7419 171.439 33.7183 171.862 33.6919C171.877 33.2486 171.906 32.8471 171.903 32.4441C171.884 29.3969 171.86 26.3483 171.833 23.3011C171.831 23.1135 171.793 22.9246 171.769 22.712C171.362 22.6828 170.976 22.655 170.559 22.6258V21.3975C170.426 21.3711 170.321 21.3377 170.213 21.3308C169.81 21.3044 169.407 21.2724 169.004 21.2696C166.424 21.2488 163.844 21.1974 161.267 21.328C161.14 21.335 161.014 21.3725 160.898 21.3947C160.863 21.8241 160.831 22.2117 160.799 22.6175C160.348 22.6578 159.927 22.6953 159.501 22.7328V25.5118H160.824C160.853 25.9926 160.88 26.4456 160.907 26.893C161.335 26.9597 161.728 26.868 162.105 26.9514C162.17 27.4822 162.147 29.1523 162.069 29.4066C160.838 29.5247 159.603 29.5178 158.38 29.3524C158.303 28.9662 158.318 18.9464 158.394 18.6852H166.495C166.954 18.6852 167.414 18.6852 167.874 18.6852C168.317 18.6852 168.761 18.6796 169.235 18.6768V17.411C169.677 17.3748 170.087 17.3429 170.49 17.3095L170.488 17.3123ZM194.995 17.3554V13.1299H193.659V11.839C193.546 11.8265 193.46 11.8112 193.373 11.8085C192.746 11.7876 192.117 11.7501 191.49 11.7515C187.059 11.7654 182.628 11.7848 178.197 11.8098C177.502 11.814 176.807 11.8529 176.111 11.8779C176.016 11.8821 175.92 11.9016 175.822 11.9141C175.794 12.3351 175.768 12.7255 175.74 13.1521H174.461V19.6314C174.619 19.6898 174.764 19.744 174.934 19.8065V35.0953C175.236 35.1245 175.509 35.1495 175.812 35.1787V36.407H195.032C195.054 35.9762 195.074 35.5663 195.096 35.1231H196.335V30.8656H195.035V29.4525H188.516C187.786 29.4525 187.058 29.4539 186.328 29.4525C185.616 29.4497 184.903 29.4636 184.17 29.4428C184.175 28.5729 184.146 27.7462 184.229 26.8972H192.335V25.5577H193.628V22.7509C193.174 22.7092 192.745 22.6703 192.285 22.63V21.3044H184.18C184.17 20.4318 184.155 19.5842 184.184 18.7032C184.848 18.7032 185.473 18.7032 186.098 18.7032H189.9C190.54 18.7032 191.18 18.7032 191.818 18.7032C192.441 18.7032 193.063 18.7046 193.713 18.7018V17.3554H194.995ZM5.75347 13.1021C5.73962 13.198 5.723 13.2619 5.72023 13.3272C5.70085 13.8441 5.66761 14.361 5.669 14.8779C5.68423 21.0654 5.705 27.2515 5.72577 33.439C5.72577 33.6974 5.72577 33.9573 5.73685 34.2157C5.7507 34.5034 5.78116 34.791 5.8047 35.0883C6.23258 35.1245 6.63137 35.1578 7.07448 35.1953V36.3611C7.62421 36.4334 13.7308 36.407 13.9703 36.3347C14.0036 35.9526 14.0382 35.5677 14.0714 35.1856C14.5353 35.1467 14.9562 35.1106 15.4077 35.0731C15.4077 34.9174 15.4077 34.7854 15.4077 34.652C15.4104 32.7289 15.4132 30.8045 15.4201 28.8814C15.4201 28.7063 15.4506 28.5326 15.4686 28.3437C15.9422 28.3284 16.3783 28.302 16.8131 28.3006C19.3707 28.295 21.9283 28.295 24.4858 28.2922C24.616 28.2922 24.7461 28.2825 24.9026 28.2756C24.9026 27.9949 24.8985 27.7489 24.9026 27.5044C24.9123 27.0639 25.0217 26.9555 25.462 26.925C25.7044 26.9083 25.9467 26.8819 26.2015 26.8583C26.2513 26.4414 26.297 26.0537 26.3441 25.6619C26.7498 25.6008 27.1334 25.541 27.5253 25.4826C27.5474 25.3381 27.5765 25.2172 27.582 25.0964C27.607 24.5572 27.6416 24.0181 27.6443 23.479C27.6596 20.6221 27.7233 17.7653 27.5986 14.9098C27.582 14.5388 27.5834 14.5444 27.2234 14.5097C26.9271 14.4819 26.6321 14.436 26.3372 14.3985C26.2956 13.9705 26.2569 13.5829 26.2181 13.1771C25.7805 13.141 25.361 13.1063 24.9095 13.0674V11.9738C24.31 11.8349 23.7325 11.7682 23.1523 11.7668C18.0372 11.7557 12.9221 11.7515 7.80561 11.7501C7.55082 11.7501 7.29742 11.7946 7.00386 11.821V13.1063H5.75208L5.75347 13.1021ZM95.7194 24.246C96.1805 24.196 96.6084 24.1487 97.0529 24.1001C97.0529 23.7513 97.0529 23.4498 97.0529 23.1469C97.0529 20.0649 97.0543 16.983 97.0529 13.9011C97.0529 13.3008 96.8881 13.1382 96.2982 13.1368C96.1113 13.1368 95.9243 13.1368 95.7083 13.1368C95.6765 12.6727 95.646 12.2517 95.6156 11.8098H88.6532V13.1035H87.2921V16.512C87.2921 17.0747 87.2921 17.6375 87.2921 18.1988C87.2921 18.756 87.2879 19.3132 87.2865 19.8732H84.891C84.8813 19.7981 84.8702 19.744 84.8702 19.6898C84.855 18.9144 84.8356 18.1391 84.8273 17.3623C84.8148 16.2493 84.8134 15.1349 84.7982 14.0219C84.7941 13.7329 84.7539 13.4439 84.7262 13.1104H83.4703C83.4495 12.7658 83.4384 12.4643 83.4121 12.1656C83.3775 11.7834 83.3332 11.7404 82.9635 11.7404C80.9999 11.739 79.0378 11.7376 77.0743 11.7432C76.8777 11.7432 76.681 11.7876 76.4844 11.8126C76.447 12.2587 76.4138 12.6672 76.3792 13.0785C76.0856 13.1215 75.8225 13.1605 75.5677 13.198C75.4736 13.6857 75.5082 23.8597 75.601 24.1334C75.8834 24.1682 76.1687 24.2029 76.4872 24.2418C76.4664 24.528 76.4553 24.7851 76.4276 25.038C76.3972 25.3187 76.4858 25.4674 76.7641 25.5174C76.9275 25.5466 77.0965 25.5438 77.264 25.541C77.4288 25.5396 77.5936 25.5216 77.7819 25.509C77.8082 25.994 77.8331 26.447 77.8594 26.9347H80.5153V35.1411C81.0041 35.1745 81.4597 35.13 81.9083 35.1689C81.9526 35.5983 81.8903 35.9915 81.9471 36.3681C82.5453 36.4376 89.9396 36.4098 90.1903 36.3375C90.2221 35.9332 90.2554 35.5247 90.29 35.0856H91.5971C91.6027 34.9536 91.6124 34.8535 91.6124 34.7549C91.6124 34.1588 91.6082 33.5627 91.6137 32.9666C91.6304 31.0101 91.6498 29.0537 91.6705 27.0973C91.6705 27.0333 91.6885 26.9708 91.7024 26.8708H94.3638V25.5896C94.703 25.5605 95.0035 25.5313 95.304 25.5104C95.6183 25.4896 95.6197 25.4896 95.6419 25.1825C95.664 24.881 95.6917 24.5795 95.7208 24.246H95.7194ZM30.1299 28.7549C30.1756 30.8837 30.1133 32.9818 30.1728 35.0828C30.6588 35.1189 31.102 35.1509 31.5644 35.1856V36.4028H46.6841C46.7215 35.9707 46.7575 35.5608 46.7949 35.1189H47.9829V29.4594H46.7921C46.7519 29.0064 46.7146 28.5854 46.6758 28.1449H41.2976C41.2339 23.1427 41.3073 18.1655 41.2491 13.1757C40.7714 13.1466 40.3283 13.1202 39.8547 13.0924V11.8265H31.4966V13.0785C31.1878 13.1049 30.9109 13.1271 30.6021 13.1535V28.6174C30.4331 28.6674 30.2961 28.7077 30.1299 28.7563V28.7549Z" fill="#030202"/>
<path d="M77.5105 6.67699C77.4939 6.71589 77.4773 6.75619 77.4593 6.79509C77.3609 6.78398 77.2626 6.76452 77.1643 6.76313C76.6728 6.75758 76.1812 6.75202 75.6896 6.7548C74.9419 6.75758 74.1941 6.76731 73.445 6.77425C73.4145 6.76592 73.3841 6.75619 73.3536 6.74785C73.4118 6.62835 73.5198 6.61307 73.6361 6.61446C74.6275 6.61724 75.6204 6.61446 76.6118 6.62141C76.9105 6.62418 77.2105 6.65744 77.5092 6.6769C77.5096 6.67693 77.51 6.67696 77.5105 6.67699Z" fill="#CA5B23"/>
<path d="M99.6174 35.1453V27.4877C99.9899 27.3446 100.018 27.025 100.016 26.6693C100.011 22.2826 100.012 17.8973 100.011 13.5106C100.011 13.3994 100.011 13.2897 100.011 13.1452H100.889C100.923 12.6839 100.956 12.2517 100.994 11.7751C106.93 11.7362 112.857 11.7473 118.819 11.7612V13.0799C119.272 13.1132 119.692 13.1438 120.144 13.1771V14.4847H121.482V33.7252H120.233C120.204 34.1824 120.178 34.6159 120.147 35.0883H118.905C118.873 35.4691 118.847 35.8123 118.815 36.1569C118.79 36.4209 118.789 36.4251 118.52 36.4528C118.354 36.4709 118.185 36.4834 118.017 36.4834C112.466 36.4765 106.915 36.4681 101.363 36.457C101.235 36.457 101.105 36.4362 100.945 36.4237V35.1453H99.6174ZM111.774 29.4414V18.7032C110.958 18.7171 110.167 18.6643 109.389 18.7824V29.4428H111.774V29.4414ZM102.24 30.835C102.261 30.1597 102.293 29.5206 102.297 28.8814C102.308 26.7332 102.319 24.585 102.308 22.4368C102.297 20.1094 102.264 17.7806 102.236 15.4532C102.233 15.1891 102.204 14.9251 102.187 14.6556C101.833 14.6417 101.524 14.6 101.206 14.7042V30.8364H102.24V30.835ZM102.554 14.4263H114.482V13.355C113.291 13.2841 102.834 13.3189 102.554 13.3967V14.4263ZM102.264 33.5654V32.4121H101.242V33.5654H102.264ZM117.236 14.4207V13.3439H116.205V14.4207H117.236Z" fill="#CA5EFE"/>
<path d="M50.6665 14.5361C51.0902 14.4958 51.478 14.4583 51.8975 14.418C51.9266 14.0164 51.9529 13.6273 51.9834 13.2007C52.4085 13.1618 52.8377 13.1229 53.3044 13.0812V11.9641C53.465 11.9335 53.591 11.8918 53.7198 11.8863C54.6046 11.8529 55.4895 11.8071 56.3743 11.8001C59.8845 11.7751 63.3948 11.7598 66.905 11.7515C67.7566 11.7501 68.6082 11.7918 69.4598 11.8182C69.5803 11.8223 69.7007 11.8529 69.8544 11.8765V13.0799C70.2962 13.1188 70.7033 13.1549 71.1519 13.1938V14.4833C71.6144 14.5138 72.0353 14.543 72.4521 14.5708C72.5214 14.832 72.5311 34.7284 72.4591 35.1078H71.3042C71.253 35.5427 71.2045 35.9484 71.1547 36.3792C70.9566 36.4042 70.7808 36.4417 70.6063 36.4445C69.2161 36.4695 67.8272 36.4973 66.437 36.5043C65.8665 36.507 65.2946 36.4626 64.7241 36.4334C64.569 36.4251 64.4153 36.3931 64.2436 36.3709C64.2104 35.9804 64.1771 35.6038 64.1425 35.2009C63.7049 35.1578 63.284 35.1175 62.816 35.073C62.8132 34.6242 62.8104 34.1796 62.809 33.735C62.809 33.2848 62.809 32.8346 62.809 32.3857V28.37C62.809 27.9226 62.809 27.4738 62.809 27.0028H60.3844C60.293 29.704 60.3401 32.3982 60.3221 35.1342H59.0108C58.972 35.5816 58.936 35.9901 58.9014 36.3889C58.0969 36.5932 52.583 36.5529 51.9944 36.3403C51.9668 35.9693 51.9377 35.59 51.9086 35.2037C51.6178 35.162 51.3547 35.1245 51.0625 35.0828C51.0501 34.9786 51.0293 34.8827 51.0293 34.7868C51.0265 34.0115 51.0279 33.2347 51.0279 32.4594C51.0279 30.6489 51.0279 28.8369 51.0279 27.0264C51.0279 26.9041 51.0279 26.7805 51.0279 26.6401C50.6277 26.5234 50.5377 26.2246 50.5391 25.855C50.5488 22.7286 50.5502 19.6008 50.5627 16.4744C50.5654 15.8908 50.6042 15.3059 50.6291 14.7223C50.6319 14.6681 50.6485 14.6153 50.6624 14.5388L50.6665 14.5361ZM53.3016 29.458C53.3072 29.3413 53.3155 29.2635 53.3155 29.1857C53.3155 25.0033 53.3155 20.8194 53.3127 16.637C53.3127 16.5245 53.3099 16.4119 53.2933 16.3007C53.2725 16.1576 53.1964 16.0326 53.0468 16.0145C52.763 15.9798 52.4708 15.927 52.2105 16.0882C52.1398 16.7607 52.1717 29.2038 52.2465 29.458H53.3016ZM65.4649 14.468C65.5051 14.0748 65.4884 13.726 65.4801 13.3689H54.9273C54.9314 13.7496 54.9106 14.1123 54.9383 14.468H65.4649ZM62.7467 21.3141C62.8104 20.8875 62.7966 19.0117 62.7287 18.7574C61.9657 18.7171 61.1972 18.6879 60.4246 18.7574V21.3155H62.7467V21.3141ZM68.2454 14.4332C68.2745 14.0525 68.2731 13.6912 68.2482 13.3244H67.2041V14.4332H68.2454ZM53.2587 31.0518C52.8931 31.0254 52.5677 31.0282 52.2202 31.0463C52.2326 31.4617 52.1994 31.8369 52.2423 32.2398C52.5248 32.2398 52.7782 32.2523 53.0302 32.2343C53.1728 32.2246 53.267 32.1384 53.2601 31.9647C53.249 31.6743 53.2573 31.3839 53.2573 31.0518H53.2587ZM54.5202 14.764H53.6284V15.8269C53.8638 15.8269 54.0757 15.8519 54.2806 15.8214C54.5465 15.7811 54.6656 15.6129 54.6365 15.3434C54.6157 15.1461 54.5589 14.9543 54.5202 14.764Z" fill="#B6FF5C"/>
<path d="M124.606 14.5514C124.881 14.4986 125.121 14.4513 125.398 14.3971V13.198C125.86 13.1591 126.291 13.1229 126.755 13.0826C126.783 12.6908 126.81 12.3128 126.839 11.8946C127.179 11.871 127.521 11.839 127.863 11.8237C128.199 11.8085 128.536 11.8029 128.872 11.8015C132.405 11.7862 135.937 11.7668 139.469 11.7612C140.479 11.7598 141.487 11.7932 142.496 11.8196C142.751 11.8265 143.004 11.8626 143.272 11.8863C143.306 12.2962 143.338 12.6838 143.374 13.1049C143.813 13.1327 144.234 13.1604 144.695 13.1896V14.4986H145.929C145.951 14.7042 145.983 14.8793 145.986 15.0544C146.02 17.09 146.065 19.1242 146.08 21.1599C146.103 24.2863 146.113 27.4127 146.116 30.5391C146.116 31.5062 146.077 32.4733 146.055 33.439C146.054 33.5168 146.043 33.5932 146.031 33.7169C145.609 33.7364 145.192 33.7558 144.744 33.7766C144.723 34.2241 144.704 34.6451 144.683 35.0911C144.235 35.1217 143.813 35.1509 143.359 35.1828C143.333 35.5705 143.306 35.9485 143.279 36.3653C143.094 36.3875 142.912 36.4251 142.726 36.4306C138.309 36.5779 133.89 36.5209 129.472 36.4904C128.599 36.4848 127.727 36.425 126.814 36.3889C126.802 35.9735 126.791 35.5886 126.78 35.1926C126.328 35.1537 125.907 35.1161 125.451 35.0758C125.426 34.6826 125.402 34.3047 125.374 33.8878C125.131 33.8336 124.874 33.7753 124.607 33.7155V14.55L124.606 14.5514ZM136.28 29.4747V18.7921H133.86C133.773 19.291 133.802 29.1899 133.886 29.4747H136.28ZM125.689 16.002C125.629 20.5249 125.561 24.9824 125.711 29.4539H126.785C126.792 29.3358 126.802 29.2371 126.802 29.1385C126.803 24.956 126.803 20.7722 126.805 16.5898C126.805 16.4994 126.809 16.4091 126.794 16.3202C126.759 16.1159 126.668 16.0201 126.459 16.0062C126.216 15.9909 125.973 16.002 125.69 16.002H125.689ZM128.451 14.4068C128.567 14.418 128.653 14.4319 128.741 14.4346C129.423 14.4513 130.107 14.4805 130.79 14.4777C133.03 14.4694 135.272 14.4485 137.513 14.4332C137.726 14.4319 137.939 14.4305 138.151 14.4193C138.428 14.4041 138.704 14.3777 138.986 14.3554V13.3772C138.453 13.3091 128.693 13.3341 128.45 13.4036V14.4082L128.451 14.4068ZM140.698 14.4569H141.721V13.3508H140.698V14.4569ZM126.756 31.0699H125.751C125.739 31.4659 125.736 31.8383 125.751 32.2134H126.758V31.0699H126.756ZM127.04 14.7389V15.8339H128.077V14.7389H127.04Z" fill="#B6FF5C"/>
<path d="M170.488 17.3123C170.085 17.3443 169.675 17.3776 169.234 17.4137V18.6796C168.759 18.6824 168.316 18.6865 167.872 18.6879C167.413 18.6879 166.953 18.6879 166.493 18.6879H158.393C158.317 18.9478 158.301 28.9675 158.379 29.3552C159.602 29.5206 160.837 29.5275 162.068 29.4094C162.147 29.1565 162.169 27.4863 162.104 26.9541C161.727 26.8708 161.334 26.9625 160.906 26.8958C160.88 26.4484 160.852 25.9954 160.823 25.5146H159.499V22.7356C159.926 22.6981 160.347 22.6605 160.798 22.6202C160.831 22.2159 160.862 21.8268 160.896 21.3975C161.013 21.3752 161.139 21.3363 161.266 21.3308C163.844 21.2002 166.424 21.2516 169.002 21.2724C169.405 21.2752 169.808 21.3085 170.211 21.3336C170.319 21.3405 170.424 21.3739 170.557 21.4003V22.6286C170.973 22.6578 171.359 22.6856 171.768 22.7147C171.791 22.9273 171.83 23.1149 171.831 23.3039C171.859 26.3511 171.883 29.3997 171.902 32.4469C171.905 32.8484 171.876 33.2514 171.86 33.6947C171.438 33.7211 171.052 33.7447 170.625 33.7711C170.595 34.2004 170.566 34.6201 170.535 35.0689C170.11 35.0981 169.689 35.1259 169.245 35.1564C169.211 35.583 169.18 35.9915 169.146 36.4209H151.331V35.1217H149.993C149.963 34.6701 149.934 34.2477 149.902 33.7989C149.636 33.7544 149.377 33.7127 149.106 33.6669V14.5944C149.36 14.5305 149.616 14.4652 149.885 14.3971C150.024 14.0081 149.917 13.5954 150 13.1618C150.381 13.1313 150.767 13.1007 151.198 13.066C151.238 12.6672 151.278 12.26 151.322 11.8057C151.576 11.7848 151.828 11.7459 152.08 11.7459C156.073 11.7445 160.067 11.7459 164.059 11.7487C165.158 11.7487 166.258 11.7445 167.357 11.7557C167.85 11.7598 168.342 11.7932 168.835 11.8182C168.932 11.8237 169.027 11.8557 169.127 11.8765C169.152 12.2892 169.174 12.6783 169.198 13.0771C169.657 13.1146 170.078 13.1493 170.491 13.1827C170.567 13.4939 170.564 17.0302 170.487 17.3151L170.488 17.3123ZM151.232 29.4219C151.257 28.9134 151.299 28.4437 151.3 27.9727C151.309 24.8226 151.313 21.6726 151.309 18.5226C151.309 17.7695 151.268 17.0164 151.245 16.2632C151.242 16.1771 151.22 16.0909 151.209 16.0103H150.197C150.181 16.0895 150.168 16.1312 150.166 16.1757C150.145 16.7593 150.108 17.3443 150.111 17.9279C150.127 21.617 150.154 25.3062 150.18 28.9953C150.18 29.1357 150.21 29.276 150.229 29.4414C150.486 29.4414 150.709 29.4428 150.932 29.4414C151.019 29.4414 151.108 29.4302 151.234 29.4205L151.232 29.4219ZM164.915 13.3425C164.441 13.2661 153.182 13.2869 152.951 13.3564V14.4068H164.818C164.851 14.047 164.883 13.7038 164.916 13.3425H164.915ZM151.285 32.2398C151.285 31.8049 151.313 31.4214 151.267 31.0226H150.213C150.104 31.37 150.065 31.6951 150.168 32.0314C150.208 32.1634 150.269 32.2468 150.422 32.2426C150.69 32.2357 150.957 32.2412 151.285 32.2412V32.2398ZM167.614 14.3679C167.587 14.0192 167.645 13.676 167.575 13.3202C167.216 13.305 166.877 13.298 166.533 13.3202V14.3832C166.97 14.5569 167.241 14.5555 167.612 14.3666L167.614 14.3679ZM151.54 15.7088C151.76 15.813 151.987 15.8519 152.22 15.8339C152.466 15.8144 152.61 15.6769 152.637 15.4309C152.664 15.1864 152.62 14.9488 152.509 14.7139C152.181 14.7167 151.864 14.6931 151.54 14.7292V15.7088Z" fill="#68C8FE"/>
<path d="M194.995 17.3554H193.717V18.7018C193.069 18.706 192.446 18.7032 191.822 18.7032C191.183 18.7032 190.543 18.7032 189.905 18.7032H186.102C185.478 18.7032 184.852 18.7032 184.189 18.7032C184.159 19.5842 184.175 20.4318 184.184 21.3044H192.289V22.63C192.749 22.6717 193.178 22.7106 193.632 22.7509V25.5577H192.339V26.8972H184.233C184.15 27.7462 184.179 28.5715 184.175 29.4428C184.909 29.4636 185.62 29.4497 186.332 29.4525C187.062 29.4553 187.79 29.4525 188.52 29.4525H195.039V30.8656H196.339V35.1231H195.1C195.078 35.5663 195.057 35.9749 195.036 36.407H175.817V35.1787C175.513 35.1495 175.239 35.1231 174.939 35.0953V19.8065C174.768 19.744 174.623 19.6898 174.465 19.6314V13.1521H175.745C175.772 12.7255 175.799 12.3351 175.826 11.9141C175.925 11.9016 176.019 11.8821 176.116 11.8779C176.811 11.8529 177.506 11.814 178.201 11.8098C182.632 11.7848 187.063 11.7654 191.494 11.7515C192.122 11.7501 192.75 11.7876 193.377 11.8085C193.465 11.8112 193.551 11.8265 193.663 11.839V13.1299H194.999V17.3554H194.995ZM176.1 14.6778C176.077 15.2322 176.044 15.7477 176.035 16.2632C175.97 20.8292 175.949 25.3951 176.034 29.9597C176.039 30.2487 176.069 30.5363 176.088 30.8253H177.096V14.6778H176.1ZM189.348 14.4735V13.2772C185.359 13.3008 181.405 13.2341 177.439 13.3605V14.4319C181.412 14.4735 185.366 14.4999 189.348 14.4735ZM177.115 32.4121H176.041V33.5515H177.115V32.4121ZM192.108 14.4277C192.108 14.0372 192.119 13.6746 192.102 13.3216H191.03V14.4277H192.108Z" fill="#FFED8E"/>
<path d="M5.75347 13.1021H7.00525V11.8168C7.2988 11.7904 7.5522 11.7459 7.80699 11.7459C12.9221 11.7459 18.0372 11.7515 23.1537 11.7626C23.7339 11.7626 24.3113 11.8307 24.9109 11.9696V13.0632C25.3623 13.1007 25.7819 13.1354 26.2195 13.173C26.2596 13.5787 26.297 13.9664 26.3386 14.3943C26.6335 14.4319 26.9284 14.4777 27.2248 14.5055C27.5848 14.5402 27.5834 14.5347 27.6 14.9057C27.7247 17.7611 27.661 20.6194 27.6457 23.4748C27.643 24.0139 27.6083 24.5531 27.5834 25.0922C27.5779 25.2145 27.5488 25.3354 27.5266 25.4785C27.1348 25.5382 26.7512 25.5966 26.3455 25.6577C26.2984 26.0496 26.2527 26.4359 26.2029 26.8541C25.9481 26.8777 25.7071 26.9041 25.4634 26.9208C25.0231 26.9514 24.9137 27.0583 24.904 27.5002C24.8985 27.7462 24.904 27.9907 24.904 28.2714C24.7475 28.2783 24.6174 28.2881 24.4872 28.2881C21.9296 28.2908 19.3721 28.2908 16.8145 28.2964C16.3797 28.2964 15.9435 28.3242 15.47 28.3395C15.452 28.5285 15.4215 28.7021 15.4215 28.8772C15.4146 30.8003 15.4132 32.7248 15.409 34.6479C15.409 34.7799 15.409 34.9133 15.409 35.0689C14.9576 35.1064 14.5367 35.1425 14.0728 35.1814C14.0396 35.5636 14.005 35.9485 13.9717 36.3306C13.7335 36.4028 7.62559 36.4292 7.07586 36.357V35.1912C6.63414 35.1536 6.23535 35.1203 5.80609 35.0842C5.78255 34.7868 5.75208 34.5006 5.73823 34.2116C5.72577 33.9531 5.72716 33.6947 5.72716 33.4348C5.70777 27.2473 5.687 21.0612 5.67038 14.8737C5.67038 14.3568 5.70223 13.8399 5.72162 13.323C5.72439 13.2591 5.73962 13.1938 5.75485 13.0979L5.75347 13.1021ZM7.26419 14.6445C7.26419 19.4911 7.26419 24.3002 7.26419 29.1093C7.26419 29.2093 7.27526 29.3107 7.28219 29.4108C7.28219 29.4205 7.29188 29.4302 7.30019 29.4372C7.30711 29.4455 7.3168 29.4525 7.3265 29.4594H8.40242C8.41072 29.3524 8.4218 29.2649 8.4218 29.1774C8.43565 24.6031 8.4495 20.0302 8.45919 15.4559C8.45919 15.2656 8.43149 15.0752 8.41765 14.8848C8.40657 14.7362 8.34011 14.6069 8.19056 14.5875C7.89284 14.55 7.59098 14.5361 7.2628 14.6431L7.26419 14.6445ZM20.5948 13.3508C20.0935 13.28 8.8386 13.3022 8.55473 13.3828C8.57412 13.7107 8.5935 14.0511 8.61428 14.3791C9.06431 14.4485 20.3441 14.4305 20.5948 14.3638V13.3508ZM15.4783 21.2627C16.3077 21.1988 17.0956 21.4461 17.8849 21.2446V18.7755H15.4783V21.2627ZM23.2728 14.5208V13.3383H22.2426V14.4666C22.5846 14.4847 22.9128 14.5027 23.2728 14.5208ZM8.38026 31.0615H7.35004V32.1856H8.38026V31.0615Z" fill="#CA5EFE"/>
<path d="M95.7194 24.246C95.6917 24.5795 95.6627 24.881 95.6405 25.1825C95.6183 25.4896 95.617 25.4896 95.3026 25.5104C95.0021 25.5299 94.703 25.5605 94.3624 25.5896V26.8708H91.701C91.6858 26.9708 91.6691 27.0347 91.6691 27.0972C91.6498 29.0537 91.629 31.0101 91.6124 32.9666C91.6068 33.5627 91.6124 34.1588 91.611 34.7549C91.611 34.8535 91.6027 34.9536 91.5957 35.0856H90.2886C90.254 35.5246 90.2207 35.9332 90.1889 36.3375C89.9396 36.4098 82.5439 36.4376 81.9457 36.3681C81.8876 35.9915 81.9513 35.5983 81.9069 35.1689C81.4583 35.13 81.0027 35.1745 80.5139 35.1411V26.9347H77.8581C77.8317 26.447 77.8068 25.994 77.7805 25.509C77.5922 25.5215 77.4274 25.5396 77.2626 25.541C77.0965 25.5424 76.9261 25.5466 76.7627 25.5174C76.483 25.4674 76.3958 25.3173 76.4263 25.038C76.454 24.7837 76.465 24.528 76.4858 24.2418C76.1659 24.2029 75.8821 24.1682 75.5996 24.1334C75.5068 23.8597 75.4722 13.6871 75.5664 13.198C75.8211 13.1604 76.0828 13.1215 76.3778 13.0785C76.4124 12.6672 76.4457 12.2587 76.483 11.8126C76.6797 11.789 76.8763 11.7445 77.0729 11.7431C79.0364 11.7376 80.9986 11.739 82.9621 11.7404C83.3318 11.7404 83.3761 11.7834 83.4107 12.1656C83.437 12.4643 83.4481 12.7644 83.4689 13.1104H84.7248C84.7525 13.4439 84.7927 13.7329 84.7968 14.0219C84.8121 15.1349 84.8135 16.2493 84.8259 17.3623C84.8342 18.1377 84.8536 18.913 84.8688 19.6898C84.8688 19.744 84.8813 19.7981 84.8896 19.8732H87.2851C87.2865 19.3146 87.2893 18.756 87.2907 18.1988C87.2907 17.6361 87.2907 17.0733 87.2907 16.512V13.1035H88.6519V11.8098H95.6142C95.6446 12.2517 95.6737 12.6741 95.707 13.1368C95.9216 13.1368 96.1099 13.1368 96.2968 13.1368C96.8867 13.1368 97.0515 13.3008 97.0515 13.9011C97.0515 16.983 97.0515 20.0649 97.0515 23.1469C97.0515 23.4498 97.0515 23.7527 97.0515 24.1001C96.6084 24.1487 96.1805 24.196 95.718 24.246H95.7194ZM77.7556 19.901C77.8262 19.3535 77.8027 14.8306 77.7237 14.5722C77.3886 14.6014 77.0494 14.6306 76.7157 14.6583C76.6437 15.153 76.6672 19.6564 76.7406 19.901H77.7556ZM88.9316 14.6556V19.8968H90.0324V14.6556H88.9316ZM81.8377 14.3193V13.323H78.0228V14.3596C78.4853 14.4986 81.1952 14.4694 81.8377 14.3193ZM94.0564 13.38C93.8307 13.2952 90.7234 13.2744 90.3384 13.3578V14.3985H94.0564V13.38ZM76.742 21.5434V22.6327H77.7293V21.4739C77.3859 21.4656 77.0646 21.4211 76.742 21.5434Z" fill="#68C8FE"/>
<path d="M30.1299 28.7549C30.2961 28.7063 30.4345 28.666 30.6021 28.616V13.1521C30.9109 13.1257 31.1864 13.1035 31.4966 13.0771V11.8251H39.8547V13.091C40.3283 13.1188 40.77 13.1452 41.2491 13.1743C41.3073 18.1641 41.2339 23.1413 41.2976 28.1436H46.6758C46.7146 28.584 46.7519 29.0051 46.7921 29.458H47.9829V35.1175H46.7949C46.7561 35.5594 46.7215 35.9693 46.6841 36.4014H31.5644V35.1842C31.102 35.1495 30.6602 35.1175 30.1728 35.0814C30.1133 32.9804 30.1756 30.8823 30.1299 28.7536L30.1299 28.7549ZM31.8525 14.6583C31.6489 15.4365 31.6766 28.5813 31.8829 29.4316C32.2277 29.49 32.5961 29.4817 32.8301 29.4108V14.6583H31.8525ZM33.1236 14.4138H36.9454C36.9634 14.0567 36.98 13.7232 36.9981 13.3536C35.6923 13.2536 34.4142 13.2369 33.1222 13.3925V14.4138H33.1236ZM31.8026 31.0615V32.1815H32.8688V31.0615H31.8026Z" fill="#FFED8E"/>
<path d="M90.3952 8.76542C91.3022 8.7682 92.2092 8.77376 93.1162 8.77376C99.1978 8.77376 105.281 8.77237 111.362 8.77098C111.486 8.77098 111.609 8.76264 111.731 8.75848C111.684 8.78349 111.639 8.82656 111.591 8.83212C111.491 8.84462 111.39 8.83629 111.289 8.83629C100.181 8.83629 89.0728 8.83629 77.9647 8.8349C77.8234 8.8349 77.6836 8.80016 77.5423 8.7821C81.7602 8.7821 85.9766 8.78071 90.1944 8.77932C90.2609 8.77932 90.3288 8.77098 90.3952 8.76681V8.76542Z" fill="#050404"/>
<path d="M120.301 3.43664C120.301 3.43713 120.301 3.43762 120.301 3.4381C120.298 4.17104 120.295 4.90397 120.294 5.63824C120.294 5.64683 120.294 5.65543 120.294 5.66403C120.18 5.65569 120.148 5.58483 120.15 5.482C120.151 4.8595 120.151 4.23561 120.15 3.61311C120.15 3.50794 120.19 3.44412 120.301 3.4381C120.301 3.43808 120.302 3.43805 120.302 3.43803L120.301 3.43664Z" fill="#050404"/>
<path d="M116.043 2.55847C116.043 2.51123 116.043 2.46537 116.043 2.41813C116.045 2.41814 116.046 2.41815 116.048 2.41816C117.358 2.42648 118.667 2.43343 119.977 2.44592C120.083 2.44592 120.189 2.47649 120.295 2.49316C119.007 2.49316 117.721 2.49038 116.433 2.49316C116.303 2.49316 116.173 2.53485 116.043 2.55708V2.55847Z" fill="#050404"/>
<path d="M111.75 6.94377C111.746 6.91181 111.742 6.87985 111.738 6.8479C111.927 6.83817 112.119 6.82011 112.308 6.82011C113.528 6.82011 114.747 6.82149 115.966 6.82425C115.97 6.82426 115.973 6.82427 115.976 6.82427C115.859 6.84234 115.741 6.87708 115.622 6.87708C114.46 6.88124 113.3 6.87708 112.138 6.88263C112.008 6.88263 111.879 6.92293 111.749 6.94516L111.75 6.94377Z" fill="#050404"/>
<path d="M73.445 6.77425C74.1927 6.76731 74.9405 6.75758 75.6896 6.7548C76.1812 6.75202 76.6728 6.75758 77.1643 6.76313C77.2626 6.76313 77.3609 6.78398 77.4593 6.79509C76.8791 6.80065 76.2975 6.8076 75.7173 6.80899C75.0693 6.81177 74.4212 6.81177 73.7732 6.80899C73.6638 6.80899 73.5544 6.78676 73.445 6.77425Z" fill="#050404"/>
<path d="M116.025 6.67699C116.025 6.67638 116.025 6.67578 116.025 6.67517C116.029 6.13632 116.034 5.59609 116.039 5.05728C116.039 5.0562 116.039 5.05512 116.039 5.05403C116.062 5.13463 116.101 5.21383 116.108 5.29581C116.136 5.64736 116.156 5.9989 116.176 6.35045C116.183 6.48384 116.197 6.62419 116.025 6.67699Z" fill="#050404"/>
<path d="M77.6545 6.74507C77.6532 6.74554 77.6519 6.74608 77.6506 6.74655C77.609 6.76137 77.5673 6.77611 77.5257 6.79093C77.5299 6.76314 77.5354 6.73396 77.5396 6.70617C77.5769 6.71867 77.6157 6.73117 77.6531 6.74368L77.6545 6.74507Z" fill="#CA5B23"/>
<path d="M111.774 29.4414L109.389 29.4414V18.781C110.169 18.6629 110.96 18.7171 111.774 18.7018V29.4414Z" fill="#050404"/>
<path d="M102.24 30.835H101.206V14.7028C101.523 14.5986 101.833 14.6403 102.187 14.6542C102.204 14.9237 102.233 15.1878 102.236 15.4518C102.264 17.7792 102.297 20.108 102.308 22.4354C102.318 24.5836 102.308 26.7318 102.297 28.88C102.294 29.5192 102.261 30.1584 102.24 30.8337L102.24 30.835Z" fill="#050404"/>
<path d="M102.554 14.4263V13.3967C102.834 13.3189 113.29 13.2827 114.482 13.355V14.4263H102.554Z" fill="#030202"/>
<path d="M102.264 33.5654H101.242V32.4121H102.264V33.5654Z" fill="#050404"/>
<path d="M117.236 14.4207H116.205V13.3439H117.236V14.4207Z" fill="#050404"/>
<path d="M53.3016 29.458H52.2465C52.1717 29.2051 52.1398 16.7621 52.2105 16.0882C52.4722 15.9256 52.763 15.9784 53.0468 16.0145C53.1964 16.0326 53.2725 16.1576 53.2933 16.3007C53.3099 16.4119 53.3127 16.5245 53.3127 16.637C53.3141 20.8194 53.3155 25.0033 53.3155 29.1857C53.3155 29.2635 53.3072 29.3413 53.3016 29.458Z" fill="#050404"/>
<path d="M65.4649 14.468H54.9383C54.9106 14.1109 54.93 13.7496 54.9273 13.3689H65.4801C65.4884 13.726 65.5064 14.0748 65.4649 14.468Z" fill="#030202"/>
<path d="M62.7467 21.3141L60.4246 21.3141V18.756C61.1972 18.6865 61.9657 18.7171 62.7287 18.756C62.7966 19.0117 62.8118 20.8861 62.7467 21.3127L62.7467 21.3141Z" fill="#050404"/>
<path d="M68.2454 14.4332H67.2041V13.3244H68.2482C68.2745 13.6926 68.2745 14.0539 68.2454 14.4332Z" fill="#050404"/>
<path d="M53.2587 31.0518C53.2587 31.3839 53.2504 31.6743 53.2615 31.9647C53.2684 32.1384 53.1742 32.2246 53.0316 32.2343C52.7796 32.2523 52.5262 32.2398 52.2437 32.2398C52.2008 31.8369 52.2326 31.4617 52.2215 31.0463C52.5677 31.0282 52.8931 31.0254 53.2601 31.0518H53.2587Z" fill="#030202"/>
<path d="M54.5202 14.764C54.5603 14.9529 54.6171 15.1461 54.6365 15.3434C54.6642 15.6129 54.5451 15.7811 54.2806 15.8214C54.077 15.8519 53.8638 15.8269 53.6284 15.8269V14.764H54.5202Z" fill="#050404"/>
<path d="M136.28 29.4747H133.886C133.802 29.1899 133.773 19.291 133.86 18.7921H136.28V29.4747Z" fill="#030202"/>
<path d="M125.689 16.002C125.971 16.002 126.215 15.9895 126.457 16.0062C126.666 16.0201 126.756 16.1159 126.792 16.3202C126.808 16.4077 126.803 16.4994 126.803 16.5898C126.803 20.7722 126.803 24.956 126.801 29.1384C126.801 29.2371 126.791 29.3358 126.784 29.4539H125.709C125.56 24.9824 125.628 20.5249 125.687 16.002H125.689Z" fill="#050404"/>
<path d="M128.451 14.4068L128.451 13.4022C128.695 13.3328 138.453 13.3077 138.987 13.3758V14.354C138.705 14.3763 138.429 14.4027 138.152 14.418C137.941 14.4305 137.727 14.4305 137.514 14.4319C135.274 14.4485 133.032 14.468 130.791 14.4763C130.109 14.4791 129.425 14.4499 128.742 14.4332C128.655 14.4305 128.567 14.4166 128.453 14.4055L128.451 14.4068Z" fill="#030202"/>
<path d="M140.698 14.4569V13.3508H141.721V14.4569H140.698Z" fill="#050404"/>
<path d="M126.756 31.0699V32.2134H125.75C125.736 31.8383 125.737 31.4645 125.75 31.0699H126.756Z" fill="#050404"/>
<path d="M127.04 14.7389H128.077V15.8339H127.04V14.7389Z" fill="#050404"/>
<path d="M151.232 29.4219C151.106 29.4303 151.019 29.4414 150.931 29.4428C150.708 29.4455 150.485 29.4428 150.227 29.4428C150.208 29.276 150.179 29.1371 150.179 28.9967C150.152 25.3076 150.127 21.6184 150.109 17.9293C150.107 17.3457 150.144 16.7607 150.165 16.1771C150.166 16.134 150.18 16.0909 150.195 16.0117H151.207C151.22 16.0909 151.241 16.1771 151.243 16.2646C151.267 17.0177 151.306 17.7708 151.307 18.524C151.311 21.674 151.307 24.824 151.299 27.974C151.299 28.4437 151.256 28.9147 151.231 29.4233L151.232 29.4219Z" fill="#050404"/>
<path d="M164.915 13.3425C164.881 13.7038 164.85 14.047 164.816 14.4068H152.949V13.3564C153.181 13.2869 164.44 13.2661 164.913 13.3425H164.915Z" fill="#050404"/>
<path d="M151.285 32.2398C150.957 32.2398 150.69 32.2343 150.422 32.2412C150.267 32.2454 150.208 32.162 150.168 32.03C150.065 31.6952 150.104 31.3686 150.213 31.0212H151.267C151.314 31.42 151.285 31.8035 151.285 32.2385V32.2398Z" fill="#050404"/>
<path d="M167.614 14.3679C167.242 14.5569 166.971 14.5583 166.535 14.3846V13.3216C166.877 13.298 167.216 13.305 167.576 13.3216C167.647 13.6774 167.589 14.0206 167.615 14.3693L167.614 14.3679Z" fill="#050404"/>
<path d="M151.54 15.7088V14.7292C151.865 14.6931 152.182 14.7167 152.509 14.7139C152.62 14.9488 152.664 15.1864 152.637 15.4309C152.609 15.6769 152.466 15.8144 152.22 15.8339C151.987 15.8519 151.76 15.813 151.54 15.7088Z" fill="#050404"/>
<path d="M176.1 14.6778H177.096V30.8253H176.088C176.07 30.5363 176.039 30.2487 176.034 29.9597C175.949 25.3937 175.97 20.8278 176.035 16.2632C176.042 15.7477 176.077 15.2308 176.1 14.6778Z" fill="#050404"/>
<path d="M189.348 14.4735C185.364 14.4999 181.412 14.4735 177.439 14.4319V13.3605C181.407 13.2341 185.359 13.3008 189.348 13.2772V14.4735Z" fill="#050404"/>
<path d="M177.115 32.4121V33.5515H176.041V32.4121H177.115Z" fill="#050404"/>
<path d="M192.108 14.4277H191.03V13.3216H192.102C192.119 13.6732 192.108 14.0358 192.108 14.4277Z" fill="#050404"/>
<path d="M7.26419 14.6445C7.59236 14.5375 7.89423 14.5527 8.19194 14.5889C8.34149 14.6069 8.40796 14.7362 8.41903 14.8862C8.43427 15.0766 8.46196 15.267 8.46057 15.4573C8.4495 20.0316 8.43703 24.6045 8.42319 29.1787C8.42319 29.2663 8.41072 29.3538 8.4038 29.4608C8.03547 29.4608 7.68098 29.4608 7.32788 29.4608C7.31957 29.4539 7.30988 29.4469 7.30157 29.4386C7.29465 29.4303 7.28496 29.4219 7.28357 29.4122C7.27665 29.3121 7.26557 29.2107 7.26557 29.1107C7.26557 24.3016 7.26557 19.4925 7.26557 14.6458L7.26419 14.6445Z" fill="#030202"/>
<path d="M20.5948 13.3508V14.3638C20.3428 14.4305 9.06431 14.4485 8.61428 14.3791C8.59489 14.0497 8.57551 13.7107 8.55473 13.3828C8.8386 13.3022 20.0935 13.28 20.5948 13.3508Z" fill="#050404"/>
<path d="M15.4783 21.2627V18.7755H17.8849V21.2446C17.0956 21.4461 16.3077 21.2002 15.4783 21.2627Z" fill="#030202"/>
<path d="M23.2728 14.5208C22.9128 14.5013 22.5846 14.4847 22.2426 14.4666V13.3383H23.2728V14.5208Z" fill="#050404"/>
<path d="M8.38026 31.0615V32.1856H7.35004V31.0615H8.38026Z" fill="#050404"/>
<path d="M77.7556 19.901H76.742C76.6672 19.6564 76.6451 15.153 76.7171 14.6583C77.0508 14.6292 77.39 14.6 77.7251 14.5722C77.8027 14.8306 77.8276 19.3535 77.757 19.901H77.7556Z" fill="#050404"/>
<path d="M88.9316 14.6556H90.0324V19.8968H88.9316V14.6556Z" fill="#050404"/>
<path d="M81.8377 14.3193C81.1952 14.4694 78.4853 14.4986 78.0228 14.3596V13.323H81.8377V14.3193Z" fill="#050404"/>
<path d="M94.0564 13.38V14.3985H90.3384V13.3578C90.7234 13.2744 93.8307 13.2952 94.0564 13.38Z" fill="#050404"/>
<path d="M76.742 21.5434C77.0646 21.4197 77.3859 21.4642 77.7293 21.4739V22.6327H76.742V21.5434Z" fill="#050404"/>
<path d="M31.8525 14.6583H32.8301V29.4108C32.5961 29.4817 32.2277 29.49 31.8829 29.4316C31.6766 28.5813 31.6503 15.4365 31.8525 14.6583Z" fill="#050404"/>
<path d="M33.1236 14.4138V13.3925C34.4156 13.2369 35.6936 13.2535 36.9994 13.3536C36.9814 13.7232 36.9648 14.0567 36.9468 14.4138H33.1236Z" fill="#050404"/>
<path d="M31.8026 31.0615H32.8688V32.1815H31.8026V31.0615Z" fill="#050404"/>
<path fill-rule="evenodd" clip-rule="evenodd" d="M0.156472 14.9015C0.128778 16.6106 0.124624 18.3211 0.109392 20.0302L0.113546 20.0288C0.121854 20.1511 0.135702 20.2747 0.135702 20.397C0.135702 25.031 0.134317 29.6651 0.131547 34.2991C0.131547 34.4103 0.114931 34.5214 0.106623 34.6326C0.12047 36.4403 0.123239 38.2495 0.152318 40.0572C0.177243 41.6302 0.213245 43.2031 0.283865 44.7732C0.304636 45.2373 0.407104 45.7139 0.564961 46.1502C0.670199 46.4393 0.919447 46.6908 1.14654 46.9145C1.31686 47.0812 1.55641 47.1771 1.76273 47.3077C1.79735 47.3299 1.8292 47.3661 1.84443 47.4022C2.03552 47.8482 2.33323 48.2039 2.74865 48.4513C2.8982 48.5402 3.06436 48.6097 3.23191 48.6625C3.47562 48.7403 3.72764 48.7959 3.9755 48.8612C4.06412 48.8584 4.15413 48.8501 4.24275 48.8501H16.8644C16.9419 48.8501 17.0208 48.857 17.0984 48.8612C17.2936 48.8112 17.4861 48.7528 17.6827 48.7125C18.4679 48.5513 18.9317 48.0275 19.2682 47.3216C19.8443 47.1632 20.25 46.7602 20.5588 46.2475C20.6252 46.135 20.6446 45.996 20.6848 45.8682C20.8426 45.3707 20.88 44.8608 20.8731 44.3397C20.8593 43.2615 20.869 42.1818 20.869 41.1035V40.7562H24.634C24.6409 40.8576 24.6534 40.9549 24.6547 41.0521C24.6811 42.3096 24.6838 43.5685 24.7392 44.826C24.7586 45.2804 24.868 45.7376 24.9982 46.1753C25.0646 46.4004 25.2391 46.6116 25.4108 46.7811C25.6642 47.0298 25.9439 47.2605 26.3095 47.3466C26.5213 47.7829 26.7844 48.1831 27.2165 48.4346C27.3785 48.5291 27.5516 48.6069 27.7288 48.6653C27.9725 48.7458 28.2245 48.8014 28.4724 48.8681C28.5846 48.8667 28.6967 48.8626 28.8089 48.8626H73.8798C74.003 48.8626 74.1263 48.8654 74.2495 48.8654C74.4863 48.8014 74.7189 48.7264 74.9585 48.6764C75.1349 48.6389 75.2924 48.573 75.4352 48.4861C75.6454 48.3571 75.824 48.1827 75.9859 47.9872C76.1313 47.8107 76.2227 47.5884 76.3515 47.3952C76.3724 47.3637 76.4093 47.3322 76.4483 47.3119C76.4775 47.2961 76.5081 47.2863 76.5343 47.2869C76.5952 47.2883 76.6893 47.3438 76.7115 47.3994C76.8943 47.8496 77.192 48.2012 77.6033 48.4499C77.7514 48.5402 77.9176 48.6083 78.0838 48.6625C78.3275 48.7403 78.5767 48.7959 78.8246 48.8612C83.5587 48.8598 88.2915 48.8598 93.0257 48.8598H93.0677C93.1245 48.8598 93.1799 48.8667 93.2352 48.8709C93.4402 48.8167 93.6424 48.7472 93.8514 48.7125C94.0138 48.6856 94.1728 48.6288 94.3241 48.5498C94.8184 48.2897 95.2279 47.7934 95.3982 47.3327C95.3998 47.3324 95.4014 47.3321 95.403 47.3318C95.4032 47.3312 95.4035 47.3306 95.4037 47.3299C95.4728 47.3163 95.5485 47.3027 95.6283 47.2882L95.682 47.2785C95.8856 47.8621 96.283 48.2567 96.7815 48.5624C96.8286 48.5916 96.8812 48.618 96.9338 48.6319C97.2454 48.7139 97.5569 48.7931 97.8685 48.8723C97.9917 48.8681 98.115 48.8612 98.2382 48.8612H121.476C121.6 48.8612 121.721 48.8709 121.845 48.8765C122.124 48.8042 122.4 48.7208 122.682 48.6653C122.796 48.643 122.925 48.6694 123.041 48.6958C123.268 48.7458 123.491 48.8126 123.715 48.8723C123.828 48.8681 123.938 48.8612 124.051 48.8612H146.008C146.12 48.8612 146.231 48.8681 146.343 48.8723C146.967 48.6125 147.592 48.6013 148.219 48.864L148.261 48.8639C150.377 48.8626 152.491 48.8612 154.607 48.8612H171.787C171.921 48.8612 172.056 48.8681 172.19 48.8723C172.388 48.7584 172.585 48.7875 172.781 48.8793C172.881 48.8737 172.982 48.8626 173.082 48.8626H198.066C198.077 48.8626 198.088 48.8654 198.099 48.8654C198.303 48.8112 198.506 48.7528 198.713 48.7056C199.295 48.5695 199.695 48.2318 199.999 47.7696C200.091 47.6284 200.174 47.4756 200.251 47.3133C200.252 47.3131 200.252 47.3129 200.253 47.3126C200.253 47.3119 200.254 47.3112 200.254 47.3105C200.565 47.2006 200.833 47.0245 201.062 46.796C201.216 46.6408 201.353 46.4616 201.472 46.2628C201.518 46.1878 201.553 46.103 201.575 46.0182C201.796 45.1929 201.916 44.3522 201.921 43.4963C201.924 42.9697 201.934 42.443 201.94 41.9164H201.942C201.961 41.2624 201.979 40.6084 201.999 39.9544V39.9965C201.999 39.9811 202 39.9657 202 39.9502V33.4696L201.999 33.4461V33.4751L201.94 32.4761C201.94 32.0203 201.939 31.5645 201.938 31.1088C201.938 31.1089 201.939 31.109 201.939 31.1092C201.939 31.1072 201.939 31.1052 201.939 31.1032L201.927 30.1597C201.916 29.1676 201.855 28.1852 201.608 27.2168C201.477 26.6971 201.212 26.2997 200.791 25.9912C200.703 25.9259 200.617 25.8564 200.529 25.7897V25.4382C200.521 20.7708 200.516 16.102 200.505 11.4333C200.505 11.0401 200.505 10.6427 200.452 10.255C200.399 9.8689 200.344 9.46136 200.18 9.11419C199.922 8.56394 199.485 8.1582 198.901 7.97479C198.693 7.6288 198.494 7.30088 198.188 7.03965C197.696 6.6214 197.098 6.52553 196.5 6.47273C195.809 6.41159 195.111 6.40742 194.416 6.40742L192.623 6.40642C187.847 6.40368 183.071 6.40093 178.297 6.41575C176.502 6.42131 174.709 6.49218 172.914 6.5297C172.781 6.53248 172.648 6.5033 172.517 6.48662C172.33 6.463 172.142 6.41715 171.953 6.41715C164.337 6.4227 156.72 6.43521 149.104 6.44216C148.575 6.44216 148.054 6.46994 147.541 6.61306C147.419 6.6478 147.274 6.64363 147.152 6.61029C146.595 6.45744 146.031 6.3963 145.455 6.4241C145.288 6.43382 145.12 6.4241 144.951 6.4241C140.498 6.42132 136.045 6.41992 131.592 6.41715H131.205V6.04615C131.207 4.94426 131.229 3.84099 131.197 2.7391C131.185 2.29724 131.126 1.82342 130.951 1.42602C130.703 0.866042 130.268 0.436686 129.635 0.264386C129.099 0.118487 128.559 0.0587365 128.007 0.0795792C127.663 0.0920848 127.318 0.0823565 126.963 0.0823565C126.963 0.0823565 125.035 -0.216286 124.225 0.323815C123.414 0.863916 123.414 2.55986 123.414 2.55986H121.482C121.667 0.546155 121.175 0.097102 119.634 0.0537507H116.933C114.796 0.128328 114.251 0.774316 113.963 2.55708C114.057 3.90293 113.594 4.14 112.308 4.10455C109.463 3.89022 108.668 4.41869 108.562 6.45605H79.9358C80.2368 4.59622 79.5965 4.19487 77.4593 4.27312L75.1232 4.25645C75.0277 4.26201 74.9405 4.27034 74.8546 4.27034C74.4849 4.27173 74.1138 4.25367 73.7441 4.27312C73.0559 4.31064 72.3857 4.41486 71.8359 4.89146C71.4995 5.18326 71.2197 5.50702 71.1311 5.96278C71.1007 6.12535 71.0467 6.28375 71.001 6.45605H70.58C64.0622 6.45605 57.5457 6.45744 51.0279 6.45327C50.5544 6.45327 50.0933 6.49218 49.6308 6.60473C48.8636 6.79232 48.4177 7.30643 48.0868 7.99841C47.6174 8.18321 47.1106 8.61536 46.8766 9.12253C46.7852 9.31959 46.6602 9.3401 46.503 9.36589L46.4958 9.36708C46.2396 8.70568 45.6705 8.17627 45.1055 7.99424C44.8923 7.42871 44.5018 6.99518 43.9714 6.76313C43.5602 6.58388 43.0839 6.49218 42.6338 6.47829C40.9971 6.42548 39.359 6.40047 37.7223 6.40464C34.9182 6.41298 32.1142 6.45049 29.3101 6.47411C28.7992 6.47967 28.2841 6.60334 27.78 6.41575C27.7205 6.39352 27.6471 6.41159 27.5793 6.41159C19.8955 6.41714 12.2118 6.42409 4.528 6.42132C4.01427 6.42132 3.53239 6.55193 3.04359 6.66865C2.99097 6.68115 2.93697 6.70339 2.89127 6.73257C2.39693 7.04382 1.99952 7.43983 1.81674 7.99285C1.23516 8.23046 0.786515 8.61813 0.563577 9.17116C0.390488 9.60052 0.304636 10.0855 0.282481 10.5509C0.213245 12.0002 0.180012 13.4509 0.156472 14.9015ZM77.5077 6.67281C77.5081 6.67423 77.5086 6.6756 77.5092 6.6769C77.5096 6.67693 77.51 6.67696 77.5105 6.67699C77.5114 6.68017 77.5127 6.683 77.5142 6.68549C77.5193 6.69385 77.5275 6.69846 77.5382 6.70061L77.5396 6.70617C77.54 6.70632 77.5405 6.70601 77.5409 6.70616C77.5779 6.71851 77.6162 6.73133 77.6531 6.74368L77.6545 6.74507L77.6506 6.74655C77.6506 6.74653 77.6506 6.74656 77.6506 6.74655L77.5299 6.78953C77.534 7.45233 77.5396 8.11652 77.5451 8.77932C81.7616 8.77932 85.9766 8.77793 90.1931 8.77654H90.1972C90.2637 8.77654 90.3315 8.7682 90.398 8.76404C91.3045 8.76682 92.211 8.77237 93.1175 8.77237C99.1992 8.77237 105.282 8.77098 111.364 8.76959C111.485 8.76959 111.607 8.76129 111.729 8.75709C111.729 8.75712 111.729 8.75706 111.729 8.75709C111.735 8.15265 111.742 7.54821 111.747 6.94377C111.748 6.94362 111.749 6.94393 111.75 6.94377L111.738 6.85067V6.8479C111.927 6.83817 112.119 6.82011 112.308 6.82011C113.528 6.82011 114.747 6.82149 115.966 6.82425C115.969 6.82378 115.972 6.82333 115.975 6.82288C115.991 6.7745 116.008 6.72536 116.023 6.6756C116.024 6.67546 116.024 6.67531 116.025 6.67517C116.029 6.13632 116.034 5.59609 116.039 5.05728C116.038 5.05574 116.038 5.05419 116.037 5.05265L116.041 2.55708C116.042 2.557 116.042 2.55716 116.043 2.55708V2.41952V2.41813C116.045 2.41814 116.046 2.41815 116.048 2.41816C117.358 2.42648 118.667 2.43343 119.977 2.44592C120.083 2.44592 120.189 2.47649 120.295 2.49316C120.299 2.72104 120.305 2.94753 120.309 3.17541L120.292 3.41302L120.301 3.43664L120.302 3.43803C120.302 3.43805 120.301 3.43808 120.301 3.4381C120.299 4.17239 120.297 4.90532 120.294 5.63824L120.294 5.66403C120.301 5.77519 120.313 5.88635 120.313 5.99751C120.313 6.81733 120.308 7.63714 120.306 8.45695C120.306 8.55525 120.316 8.65218 120.321 8.7821H121.847C121.848 8.78256 121.848 8.78302 121.848 8.78349H121.85C121.906 9.24291 121.957 9.67322 122.008 10.0924H123.627C123.666 9.72981 123.704 9.38301 123.743 9.0254L123.769 8.78488H124.564C124.564 8.23741 124.563 7.7219 124.564 7.20639L124.565 7.15132C124.571 5.58564 124.578 4.01996 124.586 2.45564C124.587 2.4557 124.588 2.45559 124.589 2.45564L124.585 2.45009C124.586 2.45016 124.588 2.45024 124.589 2.45032C124.59 2.45037 124.591 2.45042 124.592 2.45047C124.711 2.45754 124.832 2.47093 124.952 2.47093C126.107 2.4751 127.263 2.47648 128.418 2.47926H128.815V2.48483H128.817V8.80155H146.34C146.34 8.8034 146.341 8.80526 146.342 8.80711L146.36 8.92903C146.421 9.32663 146.478 9.70487 146.537 10.0966H148.118C148.168 9.68389 148.218 9.26704 148.268 8.85713C149.103 8.74458 171.68 8.73902 172.243 8.85435C172.243 8.85611 172.243 8.85788 172.243 8.85964C172.243 8.85973 172.244 8.85982 172.244 8.85991C172.244 9.1531 172.238 9.45323 172.245 9.75476C172.247 9.83065 172.252 9.88919 172.265 9.93321C172.301 10.0535 172.398 10.0618 172.654 10.0243C172.688 9.66999 172.724 9.30594 172.76 8.93494C172.862 8.92105 172.936 8.90299 173.012 8.90021C173.64 8.87798 174.268 8.84184 174.896 8.83906C181.257 8.81266 187.617 8.79183 193.977 8.77515C194.784 8.77376 195.592 8.81127 196.399 8.83212C196.487 8.83351 196.575 8.8474 196.691 8.85852C196.691 8.86035 196.692 8.86225 196.692 8.86408C196.692 8.86406 196.693 8.8641 196.692 8.86408C196.743 9.29031 196.791 9.70827 196.845 10.1619H198.088C198.088 10.1637 198.088 10.1656 198.088 10.1674H198.09C198.109 10.5454 198.142 10.89 198.142 11.2332C198.152 15.312 198.157 19.3908 198.163 23.4695L198.163 23.5179L198.167 27.5002V27.8601H199.386C199.386 27.862 199.387 27.8638 199.387 27.8657C199.394 27.9141 199.401 27.9616 199.408 28.0085C199.424 28.1113 199.439 28.211 199.454 28.3091C199.473 28.4373 199.49 28.5625 199.502 28.6883C199.531 29.0023 199.545 29.3163 199.555 29.6317C199.688 33.5905 199.672 37.5506 199.618 41.5093C199.606 42.4541 199.556 43.3976 199.514 44.3411C199.503 44.5968 199.458 44.8524 199.424 45.1415H198.223C198.163 45.6042 198.106 46.0349 198.048 46.4865H172.773V46.4809H172.772V45.3315C172.377 45.2458 172.281 45.3086 172.245 45.6542C172.218 45.9224 172.193 46.1905 172.166 46.4545C171.91 46.5268 149.039 46.5574 148.272 46.4851C148.272 46.4833 148.271 46.4814 148.271 46.4796C148.27 46.4795 148.271 46.4796 148.271 46.4796C148.235 46.0839 148.198 45.6786 148.16 45.2568H146.537C146.466 45.6653 146.396 46.071 146.322 46.4921H123.736C123.736 46.4902 123.735 46.4884 123.735 46.4865C123.7 46.0825 123.667 45.6744 123.63 45.2429H122.023C121.961 45.65 121.899 46.0669 121.834 46.4935H97.8754C97.8752 46.4916 97.8742 46.4898 97.874 46.4879C97.8354 46.0659 97.7977 45.6592 97.7591 45.2415C97.3565 45.2054 96.9778 45.172 96.5572 45.1345C96.5569 45.1327 96.556 45.1308 96.5558 45.129C96.5198 44.8094 96.4616 44.4912 96.4533 44.1702C96.4201 42.7876 96.3965 41.4037 96.3799 40.0211C96.3702 39.1318 96.3799 38.2439 96.3799 37.3546V37.01H94.7736C94.7681 37.1337 94.7584 37.2629 94.757 37.3935C94.7363 39.4292 94.7224 41.4662 94.6947 43.5018C94.6878 44.0396 94.6407 44.5773 94.6103 45.1526H93.3349C93.292 45.6181 93.2532 46.0488 93.2117 46.4935H78.862C78.8617 46.4916 78.8608 46.4898 78.8606 46.4879C78.8068 46.0852 78.8678 45.673 78.8246 45.236C78.3887 45.2054 77.9547 45.1748 77.4856 45.1415C77.4855 45.1396 77.4854 45.1378 77.4853 45.136C77.4849 45.136 77.4846 45.1359 77.4842 45.1359C77.3735 42.4379 77.4342 39.7344 77.3417 37.0114H75.8599C75.7934 39.7112 75.7256 42.4041 75.6591 45.122C75.2174 45.1526 74.7978 45.1804 74.3603 45.2109C74.3063 45.6473 74.255 46.0571 74.2024 46.4879H28.5029C28.5027 46.486 28.5025 46.4842 28.5023 46.4823H28.5001C28.4629 46.0727 28.4229 45.6562 28.3815 45.204H27.0974C27.0973 45.2021 27.0972 45.2003 27.0971 45.1984H27.0946C27.0614 44.6079 27.0683 44.0493 27.0586 43.4921C27.0503 42.9307 27.0461 42.368 27.0351 41.8052C27.024 41.2425 27.0018 40.6811 26.9949 40.1184C26.988 39.5602 26.9935 39.002 26.9935 38.419H18.5149V45.1428H17.2479C17.1884 45.5986 17.133 46.0294 17.0735 46.4823H3.99212C3.99187 46.4805 3.99162 46.4786 3.99137 46.4768H3.98935C3.9328 46.0561 3.87489 45.6299 3.81423 45.1748H2.68911C2.68865 45.173 2.6882 45.1711 2.68775 45.1692H2.68634C2.6628 45.0706 2.6351 44.9997 2.63095 44.9261C2.60464 44.3647 2.56864 43.802 2.56171 43.2406C2.52294 40.0683 2.48001 36.8961 2.4634 33.7238C2.44401 30.0666 2.44124 26.4108 2.44817 22.755C2.4537 20.1122 2.47724 17.4679 2.51048 14.8251C2.52848 13.4092 2.58525 11.9919 2.62541 10.576C2.62818 10.4551 2.64618 10.3356 2.66003 10.1841H3.80103C3.86749 9.72419 3.9298 9.29483 3.99627 8.83629C4.1112 8.82934 4.21921 8.81683 4.32722 8.81683C10.9794 8.80294 17.6315 8.79043 24.2836 8.77793C25.3706 8.77654 26.459 8.7821 27.5474 8.78626C27.7751 8.78716 27.8714 8.80009 27.9324 8.90313C27.9683 8.96051 27.9918 9.04722 28.021 9.17811C28.0459 9.28788 28.0542 9.40043 28.0722 9.5102C28.0935 9.63438 28.1196 9.75592 28.1926 9.86571C28.2378 9.93196 28.3008 9.99384 28.3907 10.0493C28.4281 9.66166 28.4613 9.30455 28.4987 8.90993C28.7756 8.88909 29.0512 8.85018 29.3268 8.84879C33.1624 8.82656 36.9994 8.80572 40.8351 8.79043C41.407 8.78766 41.9788 8.81823 42.5507 8.83629C42.6712 8.83907 42.7917 8.85296 42.926 8.86408C42.9262 8.86588 42.9264 8.86768 42.9266 8.86948C42.9273 8.86953 42.928 8.86959 42.9288 8.86964C42.9756 9.29443 43.0184 9.69304 43.0653 10.1204C43.4771 10.1495 43.8739 10.1786 44.2899 10.2077C44.2901 10.2095 44.2902 10.2113 44.2904 10.2131C44.2911 10.2132 44.2919 10.2132 44.2927 10.2133C44.3121 10.4634 44.337 10.6968 44.3481 10.9317C44.4755 13.7079 44.5046 16.4856 44.5018 19.2646C44.499 21.0876 44.5087 22.9093 44.5115 24.7323V25.0847C44.7826 25.166 46.9266 25.1836 47.3723 25.1116C47.4221 20.6013 47.472 16.0854 47.5218 11.5278H48.7902C48.8498 11.072 48.9052 10.651 48.9661 10.1938H50.0476C50.1306 9.72419 50.2096 9.28788 50.2885 8.84324H72.8329C72.8333 8.84509 72.8337 8.84694 72.8341 8.84879H72.8357C72.8814 9.06973 72.9077 9.30317 72.9797 9.51993C73.022 9.6455 73.0041 9.80162 73.0685 9.93367C73.1035 10.0025 73.1617 10.0645 73.2636 10.1119C73.276 9.9882 73.2927 9.8951 73.2927 9.802C73.2968 8.90159 73.2954 8.00258 73.301 7.10217C73.3023 6.98268 73.3342 6.86318 73.3508 6.74368C73.409 6.62418 73.517 6.61029 73.6333 6.61029C74.6248 6.61168 75.6176 6.6089 76.609 6.61724C76.9095 6.62002 77.2086 6.65336 77.5077 6.67281Z" fill="white"/>
</svg>
