<svg width="416" height="95" viewBox="0 0 416 95" fill="none" xmlns="http://www.w3.org/2000/svg">
<g clip-path="url(#clip0_761_1782)">
<path d="M11.5801 47.3631L6.16651 52.7382L0.75293 47.3631L6.16651 41.988L11.5801 47.3631ZM24.7869 34.2502L34.0672 43.5237L39.4809 38.1486L30.2004 28.8751L24.7869 23.5L19.3733 28.8751L10.0334 38.1486L15.4469 43.5237L24.7869 34.2502ZM43.4072 41.988L37.9936 47.3631L43.4072 52.7382L48.8207 47.3631L43.4072 41.988ZM24.7869 60.4169L15.5064 51.2024L10.0334 56.5775L19.3138 65.7919L24.7273 71.167L30.141 65.7919L39.4809 56.5775L34.0672 51.2024L24.7869 60.4169ZM24.7869 52.7382L30.2004 47.3631L24.7869 41.988L19.3733 47.3631L24.7869 52.7382ZM82.0757 53.2697V53.2106C82.0757 49.7257 80.172 47.9537 77.1379 46.7724C79.0415 45.7091 80.5882 44.0553 80.5882 41.1019V41.0429C80.5882 36.9082 77.257 34.2502 71.903 34.2502H59.6478V60.4169H72.2001C78.1493 60.4169 82.0757 58.0541 82.0757 53.2697ZM74.8181 42.1061C74.8181 44.0553 73.2115 44.8822 70.6534 44.8822H65.2994V39.3299H71.0102C73.4498 39.3299 74.8181 40.275 74.8181 42.047V42.1061ZM76.3049 52.561C76.3049 54.5101 74.7582 55.3961 72.2001 55.3961H65.2994V49.6667H72.0216C74.9965 49.6667 76.3049 50.7298 76.3049 52.5019V52.561ZM94.2117 60.4169V34.2502H88.441V60.4169H94.2117ZM125.384 60.4169V34.2502H119.673V50.3754L107.299 34.2502H101.945V60.4169H107.656V43.819L120.447 60.4759H125.384V60.4169ZM157.509 60.4169L146.206 34.073H140.851L129.549 60.4169H135.438L137.877 54.5692H149.002L151.441 60.4169H157.509ZM146.979 49.4895H139.959L143.469 40.9838L146.979 49.4895ZM185.112 60.4169V34.2502H179.401V50.3754L167.027 34.2502H161.673V60.4169H167.384V43.819L180.175 60.4759H185.112V60.4169ZM215.095 56.2231L211.407 52.5019C209.324 54.392 207.48 55.5733 204.506 55.5733C199.985 55.5733 196.891 51.8521 196.891 47.3631V47.304C196.891 42.8149 200.104 39.1527 204.506 39.1527C207.124 39.1527 209.206 40.275 211.228 42.1061L214.916 37.8532C212.478 35.4315 209.503 33.8367 204.506 33.8367C196.415 33.8367 190.763 39.9206 190.763 47.3631V47.4221C190.763 54.9236 196.534 60.8893 204.268 60.8893C209.324 60.8893 212.358 59.1174 215.095 56.2231ZM239.783 60.4169V55.278H225.506V49.7848H237.939V44.646H225.506V39.3299H239.605V34.1911H219.735V60.3578H239.783V60.4169Z" fill="black" fill-opacity="0.75"/>
<path d="M260.196 41.0858C260.196 43.1357 261.389 44.0302 266.383 45.2228C271.899 46.5646 274.769 48.5399 274.769 52.9006C274.769 57.8203 270.93 60.7274 265.451 60.7274C261.463 60.7274 257.699 59.3484 254.568 56.5531L257.326 53.2733C259.824 55.435 262.321 56.6649 265.563 56.6649C268.396 56.6649 270.185 55.3604 270.185 53.3478C270.185 51.447 269.141 50.4407 264.296 49.3226C258.743 47.9809 255.612 46.341 255.612 41.4958C255.612 36.9488 259.339 33.8926 264.52 33.8926C268.321 33.8926 271.34 35.048 273.986 37.1724L271.526 40.6386C269.178 38.8868 266.83 37.9551 264.445 37.9551C261.762 37.9551 260.196 39.3341 260.196 41.0858Z" fill="black" fill-opacity="0.75"/>
<path d="M303.642 55.3234L306.623 57.8578L303.679 61.1376L300.548 58.3423C298.349 59.8704 295.666 60.8021 292.61 60.8021C284.596 60.8021 279.006 54.727 279.006 47.3475C279.006 39.9679 284.671 33.8182 292.684 33.8182C300.697 33.8182 306.288 39.8933 306.288 47.2729C306.288 50.2546 305.319 53.0499 303.642 55.3234ZM297.157 55.3234L292.684 51.5218L295.629 48.1674L300.138 52.2672C301.033 50.8882 301.48 49.1737 301.48 47.3475C301.48 42.2414 297.79 38.0298 292.61 38.0298C287.429 38.0298 283.814 42.1668 283.814 47.2729C283.814 52.379 287.504 56.5906 292.684 56.5906C294.399 56.5906 295.927 56.106 297.157 55.3234Z" fill="black" fill-opacity="0.75"/>
<path d="M333.742 34.2656V49.062C333.742 56.8516 329.344 60.765 322.524 60.765C315.74 60.765 311.417 56.8516 311.417 49.2857V34.2656H316.001V49.0993C316.001 53.9445 318.498 56.5534 322.598 56.5534C326.661 56.5534 329.158 54.0936 329.158 49.2857V34.2656H333.742Z" fill="black" fill-opacity="0.75"/>
<path d="M352.581 34.0781L364.06 60.3539H359.215L356.569 54.0552H344.232L341.549 60.3539H336.853L348.332 34.0781H352.581ZM354.892 49.9927L350.382 39.5569L345.909 49.9927H354.892Z" fill="black" fill-opacity="0.75"/>
<path d="M390.671 60.355H385.267L378.856 51.261H373.116V60.355H368.532V34.2656H380.161C386.161 34.2656 389.851 37.4336 389.851 42.5397C389.851 46.8631 387.279 49.472 383.627 50.4783L390.671 60.355ZM385.192 42.8006C385.192 39.9308 383.18 38.4399 379.788 38.4399H373.116V47.1985H379.825C383.105 47.1985 385.192 45.4841 385.192 42.8006Z" fill="black" fill-opacity="0.75"/>
<path d="M414.81 34.2656V38.3654H400.051V45.1486H413.133V49.2484H400.051V56.2553H414.997V60.355H395.467V34.2656H414.81Z" fill="black" fill-opacity="0.75"/>
</g>
<defs>
<clipPath id="clip0_761_1782">
<rect width="414.494" height="48" fill="white" transform="translate(0.75293 23.5)"/>
</clipPath>
</defs>
</svg>
