<svg width="267" height="95" viewBox="0 0 267 95" fill="none" xmlns="http://www.w3.org/2000/svg">
<g clip-path="url(#clip0_761_1761)">
<path fill-rule="evenodd" clip-rule="evenodd" d="M62.232 47.4907C62.2416 52.9487 60.7187 58.305 57.8289 62.9767L52.8792 56.2076C54.0645 53.4475 54.6728 50.4838 54.6686 47.4907C54.6684 45.9695 54.5124 44.4521 54.2031 42.9613C54.1732 42.8195 54.1432 42.6818 54.1092 42.5443V42.4942C54.0706 42.344 54.0366 42.1897 53.9939 42.0395C53.9511 41.8894 53.934 41.7936 53.8998 41.6767C53.823 41.4014 53.746 41.122 53.6565 40.8426L53.5796 40.5965L53.5411 40.4755C53.4557 40.2253 53.3661 39.9751 53.2721 39.7207C53.208 39.5455 53.1398 39.3745 53.0714 39.2035C53.003 39.0325 52.9303 38.8615 52.8577 38.6947C52.7851 38.5278 52.7084 38.3567 52.6315 38.1899C52.4778 37.8563 52.3155 37.5268 52.1403 37.2015C52.0721 37.0597 51.9951 36.9137 51.9139 36.7845C51.9139 36.7845 51.8927 36.7512 51.8841 36.7303C51.8756 36.7094 51.8841 36.7303 51.8841 36.7094C51.803 36.5551 51.7132 36.4007 51.6193 36.2464C51.5253 36.092 51.4357 35.9337 51.3331 35.7751C51.1283 35.4415 50.9061 35.1077 50.6841 34.7826C49.4536 33.0059 47.9663 31.4129 46.2681 30.0529C46.1358 29.9444 45.9991 29.8402 45.8625 29.7359C45.7259 29.6316 45.5379 29.4856 45.3713 29.3689C45.2048 29.2521 45.0723 29.1478 44.9229 29.0477C44.7734 28.9476 44.6453 28.8517 44.4959 28.7599C44.3336 28.6473 44.167 28.5431 43.9962 28.4388L43.646 28.2219L43.3 28.0175C40.3314 26.3158 37.0137 25.2772 33.5853 24.9765C30.1569 24.6758 26.7029 25.1204 23.4713 26.2783C21.7629 26.8998 18.1842 28.9893 18.0432 29.0852L13.623 23.0585L14.1953 22.6915C15.6915 21.6962 17.2749 20.8322 18.9273 20.1098C23.1359 18.2772 27.7119 17.3902 32.3181 17.5144C36.9245 17.6385 41.4435 18.7706 45.5421 20.8272C45.8325 20.9732 46.1187 21.1233 46.3962 21.2776L46.8234 21.5195L47.2248 21.7531L47.622 21.9866C47.9039 22.1576 48.1814 22.3328 48.4761 22.5122L48.7963 22.7207L49.2576 23.0335L49.7359 23.3755L49.9965 23.5632C50.1459 23.6758 50.2954 23.7842 50.4235 23.901C50.8122 24.1971 51.1923 24.5016 51.5639 24.8186C51.9354 25.1356 52.2984 25.4567 52.657 25.7862L53.1824 26.2909C53.3575 26.4619 53.5283 26.6329 53.6991 26.808C54.0237 27.1375 54.3354 27.4753 54.6429 27.8215C54.7753 27.9675 54.9034 28.1176 55.0273 28.2636C55.1512 28.4096 55.2836 28.5639 55.4075 28.7182C55.5312 28.8726 55.6124 28.9643 55.7106 29.0894L56.0095 29.469L56.2999 29.8568C56.4238 30.0195 56.5434 30.1822 56.6587 30.349C56.7741 30.5158 56.8893 30.6826 57.0047 30.8495C57.0687 30.9371 57.1242 31.0246 57.1841 31.1122C57.2437 31.1998 57.3078 31.2874 57.3591 31.3792L57.6367 31.7962C57.7691 32.0006 57.8973 32.2133 58.021 32.4177C58.1449 32.6221 58.2005 32.7222 58.2858 32.8765C58.3713 33.0309 58.4652 33.1809 58.5507 33.3394L58.572 33.3769C58.5789 33.3931 58.5875 33.4084 58.5977 33.4228C58.6034 33.442 58.612 33.4603 58.6233 33.4771C58.633 33.4973 58.6445 33.5168 58.6573 33.5354L58.8966 33.9901L58.9308 34.0527C59.0204 34.2278 59.1101 34.4029 59.1955 34.5781C59.2809 34.7533 59.3792 34.966 59.4731 35.1579L59.7336 35.6208C59.8062 35.7793 59.8702 35.9337 59.9386 36.0921L60.1051 36.5092C60.1821 36.6955 60.2547 36.8832 60.323 37.0723C60.3467 37.1208 60.3666 37.171 60.3828 37.2225C60.4639 37.4352 60.5408 37.6395 60.6133 37.8646C60.7757 38.3277 60.9252 38.799 61.0661 39.2745C61.1301 39.4954 61.1899 39.7165 61.2496 39.9417C61.254 39.9581 61.254 39.9754 61.2496 39.9918C61.3779 40.4715 61.4889 40.9552 61.5957 41.4431C61.6469 41.6851 61.6938 41.927 61.7365 42.1688C61.7365 42.1688 61.7365 42.2314 61.7365 42.269C61.7749 42.4775 61.8092 42.6861 61.8434 42.903C61.8776 43.1199 61.9116 43.3825 61.9501 43.6162V43.6537C61.9842 43.9039 62.0099 44.1583 62.0399 44.4085C62.0868 44.8757 62.1252 45.3429 62.1508 45.8184C62.2149 46.3771 62.232 46.9318 62.232 47.4907Z" fill="black" fill-opacity="0.75"/>
<path d="M53.9728 67.9657C52.5757 69.4267 51.032 70.7471 49.3649 71.9071C47.6976 73.07 45.9165 74.0689 44.0478 74.8891C38.0466 77.509 31.3437 78.1817 24.9224 76.8088C18.501 75.4357 12.6991 72.089 8.36799 67.2599C4.03689 62.4307 1.40446 56.3731 0.856892 49.9757C0.309328 43.5784 1.87545 37.178 5.32551 31.7136C5.46217 31.4925 5.60738 31.2965 5.75257 31.0588C5.89778 30.821 6.04299 30.6417 6.17964 30.4123C6.70922 29.6616 7.27863 28.9386 7.88791 28.2435C8.00323 28.1059 8.12281 27.9682 8.25093 27.8264C8.30787 27.7597 8.36766 27.693 8.4303 27.6262C8.56269 27.4761 8.69936 27.3301 8.85736 27.1841L9.01538 27.0215L13.4398 33.119L13.4953 33.1942C13.3928 33.3151 13.2903 33.4402 13.1964 33.5695C13.0908 33.689 12.9924 33.8143 12.9017 33.9449C9.58681 38.2687 7.96515 43.6081 8.32983 48.9977C8.69452 54.3874 11.0215 59.4719 14.8902 63.3322C18.7589 67.1923 23.9139 69.5737 29.4235 70.0456C34.9333 70.5175 40.4342 69.049 44.9319 65.9053L42.3694 62.3977L37.9749 56.3918C39.7317 55.1605 41.0894 53.4625 41.8869 51.4996C42.5531 49.8398 42.7941 48.0463 42.5892 46.2748C42.3841 44.5033 41.7394 42.8074 40.7107 41.3347C39.682 39.8618 38.3007 38.6567 36.6867 37.8239C35.0727 36.9911 33.2748 36.5557 31.4493 36.5558C31.2912 36.5558 31.1247 36.5558 30.9668 36.5558H30.9453C28.7947 36.6515 26.7189 37.3558 24.9706 38.5828L20.5847 32.5727C22.2708 31.3922 24.1473 30.4956 26.1366 29.9201C27.8689 29.4161 29.6671 29.1605 31.4749 29.1611C32.0386 29.1611 32.5896 29.1861 33.1362 29.232C37.8081 29.6411 42.1544 31.7419 45.3209 35.1214C48.4874 38.5009 50.2452 42.9148 50.2488 47.4956C50.2488 51.3059 49.0305 55.0213 46.764 58.1227L49.446 61.7888L53.9728 67.9657Z" fill="black" fill-opacity="0.75"/>
<path fill-rule="evenodd" clip-rule="evenodd" d="M37.9855 56.3673C36.7927 57.2222 35.4379 57.8374 33.9999 58.177C32.5617 58.5164 31.0689 58.5739 29.6079 58.3456C28.1469 58.1174 26.7469 57.6082 25.489 56.8475C24.2311 56.0867 23.1405 55.0896 22.2801 53.9141C21.4198 52.7386 20.8072 51.4078 20.4777 49.9993C20.148 48.5906 20.1081 47.132 20.3602 45.7082C20.6122 44.2844 21.1512 42.9237 21.946 41.705C22.7407 40.4861 23.7753 39.4335 24.9898 38.6084L37.9855 56.3673Z" fill="black" fill-opacity="0.75"/>
<path d="M74.2031 48.4961C74.2031 46.6241 74.6078 44.9591 75.4172 43.5011C76.2268 42.0251 77.3512 40.8821 78.7903 40.0721C80.2474 39.2441 81.8933 38.8301 83.7281 38.8301C85.9768 38.8301 87.9016 39.4241 89.5025 40.6121C91.1036 41.8001 92.1739 43.4201 92.7136 45.4721H87.6407C87.263 44.6801 86.7233 44.0771 86.0218 43.6631C85.3382 43.2491 84.5557 43.0421 83.6741 43.0421C82.253 43.0421 81.1018 43.5371 80.2204 44.5271C79.3388 45.5171 78.8981 46.8401 78.8981 48.4961C78.8981 50.1521 79.3388 51.4751 80.2204 52.4651C81.1018 53.4551 82.253 53.9501 83.6741 53.9501C84.5557 53.9501 85.3382 53.7431 86.0218 53.3291C86.7233 52.9151 87.263 52.3121 87.6407 51.5201H92.7136C92.1739 53.5721 91.1036 55.1921 89.5025 56.3801C87.9016 57.5501 85.9768 58.1351 83.7281 58.1351C81.8933 58.1351 80.2474 57.7301 78.7903 56.9201C77.3512 56.0921 76.2268 54.9491 75.4172 53.4911C74.6078 52.0331 74.2031 50.3681 74.2031 48.4961Z" fill="black" fill-opacity="0.75"/>
<path d="M100.154 45.4452C100.694 44.6172 101.368 43.9692 102.178 43.5012C102.987 43.0152 103.887 42.7722 104.876 42.7722V47.6592H103.608C102.457 47.6592 101.593 47.9112 101.018 48.4152C100.442 48.9012 100.154 49.7652 100.154 51.0072V58.0002H95.54V42.9342H100.154V45.4452Z" fill="black" fill-opacity="0.75"/>
<path d="M122.461 42.9341L113.017 65.1551H108.052L111.506 57.4871L105.381 42.9341H110.535L114.016 52.3571L117.469 42.9341H122.461Z" fill="black" fill-opacity="0.75"/>
<path d="M128.745 45.067C129.195 44.365 129.815 43.798 130.607 43.366C131.398 42.934 132.325 42.718 133.386 42.718C134.627 42.718 135.752 43.033 136.759 43.663C137.766 44.293 138.558 45.193 139.134 46.363C139.727 47.533 140.024 48.892 140.024 50.44C140.024 51.988 139.727 53.356 139.134 54.544C138.558 55.714 137.766 56.623 136.759 57.271C135.752 57.901 134.627 58.216 133.386 58.216C132.343 58.216 131.416 58 130.607 57.568C129.815 57.136 129.195 56.578 128.745 55.894V65.182H124.131V42.934H128.745V45.067ZM135.329 50.44C135.329 49.288 135.005 48.388 134.358 47.74C133.728 47.074 132.945 46.741 132.01 46.741C131.093 46.741 130.31 47.074 129.662 47.74C129.033 48.406 128.718 49.315 128.718 50.467C128.718 51.619 129.033 52.528 129.662 53.194C130.31 53.86 131.093 54.193 132.01 54.193C132.927 54.193 133.71 53.86 134.358 53.194C135.005 52.51 135.329 51.592 135.329 50.44Z" fill="black" fill-opacity="0.75"/>
<path d="M150.835 54.0851V58.0001H148.488C146.815 58.0001 145.51 57.5951 144.575 56.7851C143.64 55.9571 143.172 54.6161 143.172 52.7621V46.7681H141.337V42.9341H143.172V39.2621H147.786V42.9341H150.808V46.7681H147.786V52.8161C147.786 53.2661 147.894 53.5901 148.11 53.7881C148.326 53.9861 148.685 54.0851 149.189 54.0851H150.835Z" fill="black" fill-opacity="0.75"/>
<path d="M160.259 58.216C158.783 58.216 157.452 57.901 156.264 57.271C155.096 56.641 154.169 55.741 153.486 54.571C152.82 53.401 152.487 52.033 152.487 50.467C152.487 48.919 152.829 47.56 153.512 46.39C154.196 45.202 155.132 44.293 156.318 43.663C157.506 43.033 158.837 42.718 160.313 42.718C161.787 42.718 163.119 43.033 164.306 43.663C165.494 44.293 166.428 45.202 167.112 46.39C167.796 47.56 168.137 48.919 168.137 50.467C168.137 52.015 167.787 53.383 167.085 54.571C166.401 55.741 165.458 56.641 164.252 57.271C163.065 57.901 161.733 58.216 160.259 58.216ZM160.259 54.22C161.139 54.22 161.886 53.896 162.498 53.248C163.128 52.6 163.442 51.673 163.442 50.467C163.442 49.261 163.137 48.334 162.525 47.686C161.931 47.038 161.193 46.714 160.313 46.714C159.413 46.714 158.666 47.038 158.073 47.686C157.479 48.316 157.182 49.243 157.182 50.467C157.182 51.673 157.47 52.6 158.046 53.248C158.639 53.896 159.377 54.22 160.259 54.22Z" fill="black" fill-opacity="0.75"/>
<path d="M175.201 45.067C175.651 44.365 176.272 43.798 177.064 43.366C177.854 42.934 178.781 42.718 179.843 42.718C181.084 42.718 182.209 43.033 183.215 43.663C184.223 44.293 185.014 45.193 185.59 46.363C186.184 47.533 186.481 48.892 186.481 50.44C186.481 51.988 186.184 53.356 185.59 54.544C185.014 55.714 184.223 56.623 183.215 57.271C182.209 57.901 181.084 58.216 179.843 58.216C178.799 58.216 177.872 58 177.064 57.568C176.272 57.136 175.651 56.578 175.201 55.894V65.182H170.587V42.934H175.201V45.067ZM181.786 50.44C181.786 49.288 181.462 48.388 180.814 47.74C180.184 47.074 179.402 46.741 178.466 46.741C177.55 46.741 176.767 47.074 176.119 47.74C175.489 48.406 175.174 49.315 175.174 50.467C175.174 51.619 175.489 52.528 176.119 53.194C176.767 53.86 177.55 54.193 178.466 54.193C179.384 54.193 180.166 53.86 180.814 53.194C181.462 52.51 181.786 51.592 181.786 50.44Z" fill="black" fill-opacity="0.75"/>
<path d="M195.755 58.216C194.279 58.216 192.948 57.901 191.76 57.271C190.592 56.641 189.665 55.741 188.982 54.571C188.316 53.401 187.983 52.033 187.983 50.467C187.983 48.919 188.325 47.56 189.009 46.39C189.692 45.202 190.628 44.293 191.814 43.663C193.002 43.033 194.333 42.718 195.809 42.718C197.283 42.718 198.615 43.033 199.802 43.663C200.99 44.293 201.924 45.202 202.608 46.39C203.292 47.56 203.634 48.919 203.634 50.467C203.634 52.015 203.283 53.383 202.581 54.571C201.897 55.741 200.954 56.641 199.748 57.271C198.561 57.901 197.229 58.216 195.755 58.216ZM195.755 54.22C196.635 54.22 197.382 53.896 197.994 53.248C198.624 52.6 198.938 51.673 198.938 50.467C198.938 49.261 198.633 48.334 198.021 47.686C197.427 47.038 196.689 46.714 195.809 46.714C194.909 46.714 194.162 47.038 193.569 47.686C192.975 48.316 192.678 49.243 192.678 50.467C192.678 51.673 192.966 52.6 193.542 53.248C194.135 53.896 194.873 54.22 195.755 54.22Z" fill="black" fill-opacity="0.75"/>
<path d="M210.696 38.0199V57.9999H206.08V38.0199H210.696Z" fill="black" fill-opacity="0.75"/>
<path d="M216.359 41.368C215.549 41.368 214.883 41.134 214.362 40.666C213.858 40.18 213.606 39.586 213.606 38.884C213.606 38.164 213.858 37.57 214.362 37.102C214.883 36.616 215.549 36.373 216.359 36.373C217.149 36.373 217.797 36.616 218.301 37.102C218.823 37.57 219.084 38.164 219.084 38.884C219.084 39.586 218.823 40.18 218.301 40.666C217.797 41.134 217.149 41.368 216.359 41.368ZM218.652 42.934V58H214.038V42.934H218.652Z" fill="black" fill-opacity="0.75"/>
<path d="M230.391 54.0851V58.0001H228.043C226.369 58.0001 225.066 57.5951 224.13 56.7851C223.195 55.9571 222.727 54.6161 222.727 52.7621V46.7681H220.893V42.9341H222.727V39.2621H227.341V42.9341H230.364V46.7681H227.341V52.8161C227.341 53.2661 227.449 53.5901 227.665 53.7881C227.881 53.9861 228.24 54.0851 228.744 54.0851H230.391Z" fill="black" fill-opacity="0.75"/>
<path d="M232.04 50.44C232.04 48.892 232.328 47.533 232.904 46.363C233.498 45.193 234.298 44.293 235.306 43.663C236.314 43.033 237.437 42.718 238.679 42.718C239.74 42.718 240.667 42.934 241.459 43.366C242.267 43.798 242.888 44.365 243.32 45.067V42.934H247.934V58H243.32V55.867C242.87 56.569 242.24 57.136 241.432 57.568C240.64 58 239.713 58.216 238.652 58.216C237.428 58.216 236.314 57.901 235.306 57.271C234.298 56.623 233.498 55.714 232.904 54.544C232.328 53.356 232.04 51.988 232.04 50.44ZM243.32 50.467C243.32 49.315 242.996 48.406 242.348 47.74C241.718 47.074 240.946 46.741 240.028 46.741C239.11 46.741 238.328 47.074 237.68 47.74C237.05 48.388 236.735 49.288 236.735 50.44C236.735 51.592 237.05 52.51 237.68 53.194C238.328 53.86 239.11 54.193 240.028 54.193C240.946 54.193 241.718 53.86 242.348 53.194C242.996 52.528 243.32 51.619 243.32 50.467Z" fill="black" fill-opacity="0.75"/>
<path d="M260.447 42.7722C262.211 42.7722 263.614 43.3482 264.658 44.5002C265.718 45.6342 266.249 47.2002 266.249 49.1982V58.0002H261.662V49.8192C261.662 48.8112 261.401 48.0282 260.879 47.4702C260.359 46.9122 259.657 46.6332 258.775 46.6332C257.894 46.6332 257.192 46.9122 256.67 47.4702C256.148 48.0282 255.887 48.8112 255.887 49.8192V58.0002H251.273V42.9342H255.887V44.9322C256.355 44.2662 256.985 43.7442 257.777 43.3662C258.568 42.9702 259.459 42.7722 260.447 42.7722Z" fill="black" fill-opacity="0.75"/>
</g>
<defs>
<clipPath id="clip0_761_1761">
<rect width="265.5" height="60" fill="white" transform="translate(0.75 17.5)"/>
</clipPath>
</defs>
</svg>
