<svg width="217" height="95" viewBox="0 0 217 95" fill="none" xmlns="http://www.w3.org/2000/svg">
<path d="M12.7692 57.4362C12.387 57.8183 12.0048 57.8183 11.6227 57.8183C7.0367 57.8183 0.157715 53.6145 0.157715 44.4425C0.157715 42.1495 0.539879 38.3279 3.5972 34.8884C6.65453 31.4489 10.4762 30.6846 13.9157 30.6846C14.68 30.6846 15.4443 30.6846 16.2087 30.6846C17.7373 30.6846 18.5017 31.4489 18.5017 32.2132C18.5017 32.2132 18.5017 32.5954 18.5017 32.9776L16.5908 39.0922H15.4443C13.9157 34.1241 12.7692 33.3597 10.4762 33.3597C6.65453 33.3597 4.36154 37.9457 4.36154 42.1495C4.36154 49.0285 8.56536 52.8502 13.9157 52.8502C15.8265 52.8502 16.973 52.468 18.8838 52.0858L19.266 52.8502L12.7692 57.4362Z" fill="black" fill-opacity="0.75"/>
<path d="M33.4044 45.5886H32.6401C31.8758 43.2956 31.1115 42.9135 29.965 42.9135C28.8185 42.9135 28.0541 44.06 27.672 44.8243C27.672 45.2065 27.672 46.353 27.672 47.1173V51.7033C27.672 56.2893 28.4363 56.6714 31.4936 57.0536V58.2001H24.2325C23.8503 58.2001 22.7038 58.2001 22.7038 56.6714C22.7038 55.1428 23.086 48.646 23.086 46.7351C23.086 41.0026 22.7038 40.6205 19.6465 40.2383V38.7096H26.1433C27.2898 38.7096 27.2898 39.0918 27.2898 40.2383C27.2898 40.6205 27.2898 41.3848 27.2898 42.5313L29.2006 38.7096C29.5828 38.3275 29.5828 37.9453 30.3471 37.9453C31.1114 37.9453 32.258 38.3275 33.7866 39.0918C34.9331 39.8561 34.9331 40.2383 34.9331 40.6205C34.9331 41.3848 34.5509 42.1491 34.1688 42.5313L33.4044 45.5886Z" fill="black" fill-opacity="0.75"/>
<path d="M48.6896 50.9397C49.8361 48.6468 52.1291 43.6786 52.1291 41.7678C52.1291 40.6213 50.9826 40.2391 49.0717 39.8569V38.7104H53.6577C54.8042 38.7104 55.9507 38.7104 55.9507 39.8569C55.9507 40.2391 55.9507 41.0034 55.5686 42.1499C54.8042 44.4429 51.7469 51.7041 49.0717 58.2009C48.6896 58.9652 48.3074 60.4939 48.3074 61.2582C48.3074 62.4047 49.0717 62.7869 51.7469 63.5512V64.3155H44.4858C43.7214 64.3155 42.9571 63.9334 42.9571 63.169C42.9571 62.7869 42.9571 62.4047 43.3393 62.0226L46.3966 55.9079C45.6323 53.9971 41.4284 44.8251 40.2819 42.5321C39.5176 40.6213 38.3711 39.8569 37.2246 39.8569V38.7104H42.1928C43.7214 38.7104 44.4858 38.7104 44.8679 39.8569L48.6896 50.9397Z" fill="black" fill-opacity="0.75"/>
<path d="M68.5652 64.3152H61.6862C60.9219 64.3152 60.1576 64.3152 60.1576 62.7865C60.1576 61.2579 60.5398 55.9075 60.5398 52.8502V50.5572V47.1177C60.5398 41.3852 60.1576 41.0031 57.4824 40.6209V38.7101H63.5971C64.7436 38.7101 64.7436 39.0922 64.7436 39.8566C64.7436 40.2387 64.7436 41.0031 64.7436 42.9139L66.6544 39.4744C67.0366 39.0922 67.4187 38.7101 68.5652 38.7101C70.0939 38.7101 72.0047 39.0922 73.5334 40.2387C76.5907 42.5317 76.5907 45.9712 76.5907 47.4999C76.5907 52.8502 73.5334 58.2005 67.4187 58.2005C66.2722 58.2005 65.5079 58.2005 64.3614 57.8184C64.3614 62.4043 65.1257 63.1687 68.1831 63.5508V64.3152H68.5652ZM68.5652 42.5317C67.0366 42.5317 65.8901 43.2961 65.1257 44.0604C65.1257 45.2069 65.1257 50.1751 65.1257 50.9394C65.1257 53.2324 65.1257 55.5254 68.1831 55.5254C70.8582 55.5254 72.7691 52.8502 72.7691 48.6464C72.7691 44.0604 70.0939 42.5317 68.5652 42.5317Z" fill="black" fill-opacity="0.75"/>
<path d="M89.5843 41.003H85.7626C85.7626 45.9711 85.7626 50.175 85.7626 51.3215C86.1448 52.8501 86.9091 53.9966 89.2021 53.9966C89.5843 53.9966 90.3486 53.9966 90.7308 53.9966L91.1129 54.761L86.5269 57.4361C86.1448 57.4361 85.7626 57.8183 85.3804 57.8183C84.9983 57.8183 81.1766 57.0539 81.1766 51.7036C81.1766 48.6463 81.1766 45.589 81.1766 40.6208C80.0301 40.6208 79.648 40.6208 78.5015 41.003V40.2387C80.0301 39.4743 80.7944 39.0922 81.1766 36.417C81.1766 34.124 81.1766 34.124 81.5588 33.7418C81.5588 33.3597 81.941 32.9775 82.3231 32.9775L84.6161 31.831C84.9983 31.831 84.9983 31.4489 85.3804 31.4489C86.1448 31.4489 86.1448 31.831 86.1448 32.2132C86.1448 32.9775 86.1448 32.9775 86.1448 34.5062C86.1448 35.6527 86.1448 36.0348 85.7626 37.9457H90.3486L89.5843 41.003Z" fill="black" fill-opacity="0.75"/>
<path d="M101.048 38.3279C106.398 38.3279 110.22 42.9139 110.22 48.6464C110.22 53.2323 107.163 55.9075 106.016 56.6718C103.723 57.8183 102.195 57.8183 100.666 57.8183C94.5513 57.8183 92.2583 51.7037 92.2583 47.882C92.2583 42.1495 95.6978 38.3279 101.048 38.3279ZM101.812 55.5253C102.959 55.5253 104.105 54.761 104.488 53.9967C105.252 53.6145 105.634 52.468 105.634 50.5572C105.634 49.0285 104.87 40.6209 100.666 40.6209C97.9908 40.6209 96.8443 42.9139 96.8443 45.589C96.8443 49.0285 97.9908 55.5253 101.812 55.5253Z" fill="black" fill-opacity="0.75"/>
<path d="M110.225 31.4487H117.868L120.161 34.5061C121.307 36.0347 126.276 42.5315 130.097 46.7354C130.097 42.5315 130.097 38.3277 130.097 37.1812C130.097 33.7417 129.715 32.9774 126.276 32.2131V31.4487H133.155C134.301 31.4487 134.301 32.5952 134.301 33.3596C134.301 35.6526 134.301 49.0283 134.301 57.8182H132.39C131.244 56.2895 126.658 50.557 125.893 49.4105C122.072 44.0602 121.307 43.2959 118.25 39.8564C118.25 42.9137 118.25 43.2959 118.25 49.4105C118.25 55.9073 118.632 56.2895 122.454 57.0538V58.2003H115.575C115.193 58.2003 113.664 58.2003 113.664 56.6717C113.664 55.5252 114.046 46.7354 114.046 37.5634C114.046 33.7417 113.664 33.3596 110.607 32.5952V31.4487H110.225Z" fill="black" fill-opacity="0.75"/>
<path d="M149.201 57.0536C148.819 57.4358 147.672 57.8179 145.761 57.8179C142.704 57.8179 139.264 55.9071 137.736 53.2319C136.207 50.9389 136.207 49.0281 136.207 47.8816C136.207 42.1491 139.647 37.9453 144.615 37.9453C149.965 37.9453 152.258 42.9135 152.258 46.353C152.258 47.1173 152.258 47.8816 150.729 47.8816C149.965 47.8816 146.908 47.8816 146.526 47.8816C144.997 47.8816 143.85 47.8816 142.322 47.8816C141.557 47.8816 141.175 47.8816 141.175 49.0281C141.175 50.1746 143.086 53.2319 146.526 53.2319C148.054 53.2319 149.583 53.2319 151.876 52.0854L152.258 52.8498L149.201 57.0536ZM141.175 47.4995C141.557 47.4995 141.557 47.4995 142.322 45.2065C144.233 45.2065 144.615 45.2065 145.379 45.2065C145.761 45.2065 146.526 45.2065 148.436 45.2065C148.436 43.6778 148.436 42.9135 147.672 41.767C147.29 41.0026 146.526 40.2383 144.997 40.2383C141.175 40.2383 140.793 44.4421 140.793 45.5886C140.793 47.1173 140.793 47.4995 141.175 47.4995Z" fill="black" fill-opacity="0.75"/>
<path d="M173.658 50.5572C175.187 47.1177 175.951 44.8247 175.951 44.4425C176.333 43.6782 176.715 41.7674 176.715 41.3852C176.715 40.2387 175.569 39.4744 173.658 39.0922V38.3279H178.244C179.39 38.3279 180.537 38.3279 180.537 39.4744C180.537 42.1495 177.48 49.0285 173.658 57.8183H172.129L167.925 47.1177L162.957 57.8183H161.429C157.989 47.882 156.461 44.8247 154.932 41.3852C154.55 40.2387 153.403 39.4744 151.875 39.0922V38.3279H157.225C158.371 38.3279 159.136 38.3279 159.518 39.4744L163.339 50.175L167.925 38.3279H169.454L173.658 50.5572Z" fill="black" fill-opacity="0.75"/>
<path d="M193.153 44.0604H192.388C191.624 41.3852 190.095 40.2387 188.185 40.2387C185.892 40.2387 185.127 42.1495 185.127 42.9139C185.127 44.4425 186.274 45.2069 188.185 45.2069C192.006 45.9712 192.388 45.9712 193.153 46.3534C195.064 47.4999 195.828 49.4107 195.828 50.9393C195.828 52.0858 195.446 55.5253 191.624 57.054C190.86 57.4362 189.713 57.8183 187.802 57.8183C185.892 57.8183 184.745 57.4362 183.981 57.054C183.216 56.6718 181.306 55.9075 181.306 55.1432C181.306 54.761 181.306 54.3788 181.688 53.9967L182.834 50.9393H183.599C184.363 52.8502 185.127 55.5253 188.567 55.5253C189.713 55.5253 192.006 54.761 192.006 52.468C192.006 50.5572 190.478 50.175 188.949 49.7928C187.42 49.4107 186.274 49.0285 185.509 49.0285C182.834 48.2642 181.306 46.7355 181.306 44.4425C181.306 41.3852 183.599 38.3279 188.185 38.3279C192.006 38.3279 194.299 39.4744 194.299 40.6209C194.299 41.003 194.299 41.3852 193.917 41.7674L193.153 44.0604Z" fill="black" fill-opacity="0.75"/>
<path d="M216.079 56.6717C215.696 57.8182 214.55 57.8182 213.786 57.8182H195.824V56.2895C199.645 50.1748 208.053 36.4169 208.817 34.5061C207.671 34.5061 206.524 34.5061 205.378 34.5061C201.174 34.5061 199.645 34.8882 197.735 39.092H196.588L197.735 32.5952C197.735 31.8309 198.117 31.4487 199.263 31.4487H215.696V32.9774C212.639 36.799 203.467 53.6143 202.703 54.7608C203.085 54.7608 203.849 54.7608 205.76 54.7608C213.403 54.7608 214.168 53.6143 215.696 49.0283H216.843L216.079 56.6717Z" fill="black" fill-opacity="0.75"/>
</svg>
