<svg width="34" height="36" viewBox="0 0 34 36" fill="none" xmlns="http://www.w3.org/2000/svg">
<path d="M16.7315 1L1.35156 17.3384L17.7568 34.766L33.1368 18.4276L16.7315 1Z" fill="white" stroke="black"/>
<path d="M25.4475 16.25L30.5741 21.6961V28.2315H28.5235V27.1422H20.8335L19.8082 26.053H18.7828L15.7068 22.7853V21.6961L16.7322 20.6069V19.5177L19.8082 16.25H25.4475Z" fill="white"/>
<path d="M16.7322 20.6069V19.5177L19.8082 16.25H25.4475L30.5741 21.6961V28.2315H28.5235V27.1422H20.8335L19.8082 26.053H18.7828L15.7068 22.7853V21.6961M16.7322 20.6069H18.7828M16.7322 20.6069L15.7068 21.6961M18.7828 20.6069L19.8082 19.5177H20.8335L21.8588 20.6069V21.6961M18.7828 20.6069V21.6961L19.8082 22.7853H20.8335L21.8588 21.6961M21.8588 21.6961H26.4728M15.7068 21.6961H12.6309" stroke="black"/>
<rect x="30.5742" y="21.1523" width="3.07599" height="8.7138" fill="black"/>
<rect x="18.7812" y="21.1523" width="3.07599" height="1.08922" fill="black"/>
</svg>
