<svg width="70" height="63" viewBox="0 0 70 63" fill="none" xmlns="http://www.w3.org/2000/svg">
<path d="M1.57471 9.79H30.2747L25.8947 0.5H4.86471L1.57471 9.79Z" fill="#E7E6EC"/>
<path d="M67.6049 10.4299H4.50488C3.40031 10.4299 2.50488 11.3254 2.50488 12.4299V60.4099C2.50488 61.5145 3.40031 62.4099 4.50488 62.4099H67.6049C68.7094 62.4099 69.6049 61.5145 69.6049 60.4099V12.4299C69.6049 11.3254 68.7094 10.4299 67.6049 10.4299Z" fill="#213854"/>
<path d="M30.2749 10.29H1.57495C1.41495 10.29 1.26495 10.21 1.16495 10.08C1.07495 9.95 1.04495 9.78 1.10495 9.62L4.39495 0.33C4.46495 0.13 4.65495 0 4.86495 0H25.8849C26.0749 0 26.2549 0.11 26.3349 0.29L30.7249 9.58C30.7949 9.73 30.7849 9.92 30.6949 10.06C30.6049 10.2 30.4449 10.29 30.2749 10.29ZM2.28495 9.29H29.4849L25.5649 1H5.22495L2.28495 9.29Z" fill="black"/>
<path d="M30.2749 10.29H1.57495C1.41495 10.29 1.26495 10.21 1.16495 10.08C1.07495 9.95 1.04495 9.78 1.10495 9.62L4.39495 0.33C4.46495 0.13 4.65495 0 4.86495 0H25.8849C26.0749 0 26.2549 0.11 26.3349 0.29L30.7249 9.58C30.7949 9.73 30.7849 9.92 30.6949 10.06C30.6049 10.2 30.4449 10.29 30.2749 10.29ZM2.28495 9.29H29.4849L25.5649 1H5.22495L2.28495 9.29Z" fill="black" fill-opacity="0.2"/>
<mask id="mask0_388_16241" style="mask-type:luminance" maskUnits="userSpaceOnUse" x="0" y="8" width="68" height="53">
<path d="M65.995 8.82007H2.89502C1.79045 8.82007 0.89502 9.7155 0.89502 10.8201V58.8001C0.89502 59.9046 1.79045 60.8001 2.89502 60.8001H65.995C67.0996 60.8001 67.995 59.9046 67.995 58.8001V10.8201C67.995 9.7155 67.0996 8.82007 65.995 8.82007Z" fill="white"/>
</mask>
<g mask="url(#mask0_388_16241)">
<path d="M7.12502 8.82007L0.89502 16.2101V8.82007H7.12502Z" fill="#E7E6EC"/>
<path d="M8.12502 8.82007L0.89502 17.3901V16.2101L7.12502 8.82007H8.12502Z" fill="#E7E6EC"/>
<path d="M9.12502 8.82007L0.89502 18.5801V17.3901L8.12502 8.82007H9.12502Z" fill="#E7E6EC"/>
<path d="M10.125 8.82007L0.89502 19.7601V18.5801L9.12502 8.82007H10.125Z" fill="#E7E6EC"/>
<path d="M11.125 8.82007L0.89502 20.9501V19.7601L10.125 8.82007H11.125Z" fill="#E7E6EC"/>
<path d="M12.115 8.82007L0.89502 22.1301V20.9501L11.125 8.82007H12.115Z" fill="#E7E6EC"/>
<path d="M13.115 8.82007L0.89502 23.3101V22.1301L12.115 8.82007H13.115Z" fill="#E7E6EC"/>
<path d="M14.115 8.82007L0.89502 24.5001V23.3101L13.115 8.82007H14.115Z" fill="#E7E6EC"/>
<path d="M15.115 8.82007L0.89502 25.6801V24.5001L14.115 8.82007H15.115Z" fill="#E7E6EC"/>
<path d="M16.115 8.82007L0.89502 26.8701V25.6801L15.115 8.82007H16.115Z" fill="#E7E6EC"/>
<path d="M17.115 8.82007L0.89502 28.0501V26.8701L16.115 8.82007H17.115Z" fill="#E7E6EC"/>
<path d="M18.115 8.82007L0.89502 29.2401V28.0501L17.115 8.82007H18.115Z" fill="#E7E6EC"/>
<path d="M19.115 8.82007L0.89502 30.4201V29.2401L18.115 8.82007H19.115Z" fill="#E7E6EC"/>
<path d="M20.115 8.82007L0.89502 31.6001V30.4201L19.115 8.82007H20.115Z" fill="#E7E6EC"/>
<path d="M21.115 8.82007L0.89502 32.7901V31.6001L20.115 8.82007H21.115Z" fill="#E7E6EC"/>
<path d="M22.115 8.82007L0.89502 33.9701V32.7901L21.115 8.82007H22.115Z" fill="#E7E6EC"/>
<path d="M23.115 8.82007L0.89502 35.1601V33.9701L22.115 8.82007H23.115Z" fill="#E7E6EC"/>
<path d="M24.105 8.82007L0.89502 36.3401V35.1601L23.115 8.82007H24.105Z" fill="#E7E6EC"/>
<path d="M25.105 8.82007L0.89502 37.5301V36.3401L24.105 8.82007H25.105Z" fill="#E7E6EC"/>
<path d="M26.105 8.82007L0.89502 38.7101V37.5301L25.105 8.82007H26.105Z" fill="#E7E6EC"/>
<path d="M27.105 8.82007L0.89502 39.8901V38.7101L26.105 8.82007H27.105Z" fill="#E7E6EC"/>
<path d="M28.105 8.82007L0.89502 41.0801V39.8901L27.105 8.82007H28.105Z" fill="#E7E6EC"/>
<path d="M29.105 8.82007L0.89502 42.2601V41.0801L28.105 8.82007H29.105Z" fill="#E7E6EC"/>
<path d="M30.105 8.82007L0.89502 43.4501V42.2601L29.105 8.82007H30.105Z" fill="#E7E6EC"/>
<path d="M31.105 8.82007L0.89502 44.6301V43.4501L30.105 8.82007H31.105Z" fill="#E7E6EC"/>
<path d="M32.105 8.82007L0.89502 45.8201V44.6301L31.105 8.82007H32.105Z" fill="#E7E6EC"/>
<path d="M33.105 8.82007L0.89502 47.0001V45.8201L32.105 8.82007H33.105Z" fill="#E7E6EC"/>
<path d="M34.105 8.82007L0.89502 48.1801V47.0001L33.105 8.82007H34.105Z" fill="#E7E6EC"/>
<path d="M35.095 8.82007L0.89502 49.3701V48.1801L34.105 8.82007H35.095Z" fill="#E7E6EC"/>
<path d="M36.095 8.82007L0.89502 50.5501V49.3701L35.095 8.82007H36.095Z" fill="#E7E6EC"/>
<path d="M37.095 8.82007L0.89502 51.7401V50.5501L36.095 8.82007H37.095Z" fill="#E7E6EC"/>
<path d="M38.095 8.82007L0.89502 52.9201V51.7401L37.095 8.82007H38.095Z" fill="#E7E6EC"/>
<path d="M39.095 8.82007L0.89502 54.1101V52.9201L38.095 8.82007H39.095Z" fill="#E7E6EC"/>
<path d="M40.095 8.82007L0.89502 55.2901V54.1101L39.095 8.82007H40.095Z" fill="#E7E6EC"/>
<path d="M41.095 8.82007L0.89502 56.4701V55.2901L40.095 8.82007H41.095Z" fill="#E7E6EC"/>
<path d="M42.095 8.82007L0.89502 57.6601V56.4701L41.095 8.82007H42.095Z" fill="#E7E6EC"/>
<path d="M43.095 8.82007L0.89502 58.8401V57.6601L42.095 8.82007H43.095Z" fill="#E7E6EC"/>
<path d="M44.095 8.82007L0.89502 60.0301V58.8401L43.095 8.82007H44.095Z" fill="#E7E6EC"/>
<path d="M45.095 8.82007L1.23502 60.8001H0.89502V60.0301L44.095 8.82007H45.095Z" fill="#E7E6EC"/>
<path d="M46.0949 8.82007L2.23486 60.8001H1.23486L45.0949 8.82007H46.0949Z" fill="#E7E6EC"/>
<path d="M47.0849 8.82007L3.23486 60.8001H2.23486L46.0949 8.82007H47.0849Z" fill="#E7E6EC"/>
<path d="M48.0849 8.82007L4.23486 60.8001H3.23486L47.0849 8.82007H48.0849Z" fill="#E7E6EC"/>
<path d="M49.0849 8.82007L5.23486 60.8001H4.23486L48.0849 8.82007H49.0849Z" fill="#E7E6EC"/>
<path d="M50.0849 8.82007L6.23486 60.8001H5.23486L49.0849 8.82007H50.0849Z" fill="#E7E6EC"/>
<path d="M51.0849 8.82007L7.23486 60.8001H6.23486L50.0849 8.82007H51.0849Z" fill="#E7E6EC"/>
<path d="M52.0849 8.82007L8.22486 60.8001H7.23486L51.0849 8.82007H52.0849Z" fill="#E7E6EC"/>
<path d="M53.0851 8.82007L9.2251 60.8001H8.2251L52.0851 8.82007H53.0851Z" fill="#E7E6EC"/>
<path d="M54.0851 8.82007L10.2251 60.8001H9.2251L53.0851 8.82007H54.0851Z" fill="#E7E6EC"/>
<path d="M55.0851 8.82007L11.2251 60.8001H10.2251L54.0851 8.82007H55.0851Z" fill="#E7E6EC"/>
<path d="M56.0851 8.82007L12.2251 60.8001H11.2251L55.0851 8.82007H56.0851Z" fill="#E7E6EC"/>
<path d="M57.0851 8.82007L13.2251 60.8001H12.2251L56.0851 8.82007H57.0851Z" fill="#E7E6EC"/>
<path d="M58.0751 8.82007L14.2251 60.8001H13.2251L57.0851 8.82007H58.0751Z" fill="#E7E6EC"/>
<path d="M59.0751 8.82007L15.2251 60.8001H14.2251L58.0751 8.82007H59.0751Z" fill="#E7E6EC"/>
<path d="M60.0751 8.82007L16.2251 60.8001H15.2251L59.0751 8.82007H60.0751Z" fill="#E7E6EC"/>
<path d="M61.0751 8.82007L17.2251 60.8001H16.2251L60.0751 8.82007H61.0751Z" fill="#E7E6EC"/>
<path d="M62.0751 8.82007L18.2251 60.8001H17.2251L61.0751 8.82007H62.0751Z" fill="#E7E6EC"/>
<path d="M63.0751 8.82007L19.2151 60.8001H18.2251L62.0751 8.82007H63.0751Z" fill="#E7E6EC"/>
<path d="M64.0748 8.82007L20.2148 60.8001H19.2148L63.0748 8.82007H64.0748Z" fill="#E7E6EC"/>
<path d="M65.0748 8.82007L21.2148 60.8001H20.2148L64.0748 8.82007H65.0748Z" fill="#E7E6EC"/>
<path d="M66.0748 8.82007L22.2148 60.8001H21.2148L65.0748 8.82007H66.0748Z" fill="#E7E6EC"/>
<path d="M67.0748 8.82007L23.2148 60.8001H22.2148L66.0748 8.82007H67.0748Z" fill="#E7E6EC"/>
<path d="M67.9948 8.91007L24.2148 60.8001H23.2148L67.0748 8.82007H67.9948V8.91007Z" fill="#E7E6EC"/>
<path d="M67.9948 10.1001L25.2148 60.8001H24.2148L67.9948 8.91006V10.1001Z" fill="#E7E6EC"/>
<path d="M67.9948 11.2801L26.2148 60.8001H25.2148L67.9948 10.1001V11.2801Z" fill="#E7E6EC"/>
<path d="M67.9948 12.4601L27.2148 60.8001H26.2148L67.9948 11.2801V12.4601Z" fill="#E7E6EC"/>
<path d="M67.9948 13.6501L28.2148 60.8001H27.2148L67.9948 12.4601V13.6501Z" fill="#E7E6EC"/>
<path d="M67.9948 14.8301L29.2148 60.8001H28.2148L67.9948 13.6501V14.8301Z" fill="#E7E6EC"/>
<path d="M67.9948 16.0201L30.2148 60.8001H29.2148L67.9948 14.8301V16.0201Z" fill="#E7E6EC"/>
<path d="M67.9948 17.2001L31.2048 60.8001H30.2148L67.9948 16.0201V17.2001Z" fill="#E7E6EC"/>
<path d="M67.9951 18.3901L32.2051 60.8001H31.2051L67.9951 17.2001V18.3901Z" fill="#E7E6EC"/>
<path d="M67.9951 19.5701L33.2051 60.8001H32.2051L67.9951 18.3901V19.5701Z" fill="#E7E6EC"/>
<path d="M67.9951 20.7501L34.2051 60.8001H33.2051L67.9951 19.5701V20.7501Z" fill="#E7E6EC"/>
<path d="M67.9951 21.9401L35.2051 60.8001H34.2051L67.9951 20.7501V21.9401Z" fill="#E7E6EC"/>
<path d="M67.9951 23.1201L36.2051 60.8001H35.2051L67.9951 21.9401V23.1201Z" fill="#E7E6EC"/>
<path d="M67.9951 24.3101L37.2051 60.8001H36.2051L67.9951 23.1201V24.3101Z" fill="#E7E6EC"/>
<path d="M67.9951 25.4901L38.2051 60.8001H37.2051L67.9951 24.3101V25.4901Z" fill="#E7E6EC"/>
<path d="M67.9951 26.6801L39.2051 60.8001H38.2051L67.9951 25.4901V26.6801Z" fill="#E7E6EC"/>
<path d="M67.9951 27.8601L40.2051 60.8001H39.2051L67.9951 26.6801V27.8601Z" fill="#E7E6EC"/>
<path d="M67.9951 29.0501L41.2051 60.8001H40.2051L67.9951 27.8601V29.0501Z" fill="#E7E6EC"/>
<path d="M67.9951 30.2301L42.1951 60.8001H41.2051L67.9951 29.0501V30.2301Z" fill="#E7E6EC"/>
<path d="M67.9948 31.4101L43.1948 60.8001H42.1948L67.9948 30.2301V31.4101Z" fill="#E7E6EC"/>
<path d="M67.9948 32.6001L44.1948 60.8001H43.1948L67.9948 31.4101V32.6001Z" fill="#E7E6EC"/>
<path d="M67.9948 33.7801L45.1948 60.8001H44.1948L67.9948 32.6001V33.7801Z" fill="#E7E6EC"/>
<path d="M67.9948 34.9701L46.1948 60.8001H45.1948L67.9948 33.7801V34.9701Z" fill="#E7E6EC"/>
<path d="M67.9948 36.1501L47.1948 60.8001H46.1948L67.9948 34.9701V36.1501Z" fill="#E7E6EC"/>
<path d="M67.9948 37.3401L48.1948 60.8001H47.1948L67.9948 36.1501V37.3401Z" fill="#E7E6EC"/>
<path d="M67.9948 38.5201L49.1948 60.8001H48.1948L67.9948 37.3401V38.5201Z" fill="#E7E6EC"/>
<path d="M67.9948 39.7001L50.1948 60.8001H49.1948L67.9948 38.5201V39.7001Z" fill="#E7E6EC"/>
<path d="M67.9948 40.8901L51.1948 60.8001H50.1948L67.9948 39.7001V40.8901Z" fill="#E7E6EC"/>
<path d="M67.9948 42.0701L52.1948 60.8001H51.1948L67.9948 40.8901V42.0701Z" fill="#E7E6EC"/>
<path d="M67.9948 43.2601L53.1948 60.8001H52.1948L67.9948 42.0701V43.2601Z" fill="#E7E6EC"/>
<path d="M67.9948 44.4401L54.1848 60.8001H53.1948L67.9948 43.2601V44.4401Z" fill="#E7E6EC"/>
<path d="M67.9951 45.6301L55.1851 60.8001H54.1851L67.9951 44.4401V45.6301Z" fill="#E7E6EC"/>
<path d="M67.9951 46.8101L56.1851 60.8001H55.1851L67.9951 45.6301V46.8101Z" fill="#E7E6EC"/>
<path d="M67.9951 47.9901L57.1851 60.8001H56.1851L67.9951 46.8101V47.9901Z" fill="#E7E6EC"/>
<path d="M67.9951 49.1801L58.1851 60.8001H57.1851L67.9951 47.9901V49.1801Z" fill="#E7E6EC"/>
<path d="M67.9951 50.3601L59.1851 60.8001H58.1851L67.9951 49.1801V50.3601Z" fill="#E7E6EC"/>
<path d="M67.9951 51.5501L60.1851 60.8001H59.1851L67.9951 50.3601V51.5501Z" fill="#E7E6EC"/>
<path d="M67.9951 52.7301L61.1851 60.8001H60.1851L67.9951 51.5501V52.7301Z" fill="#E7E6EC"/>
<path d="M67.9951 53.9201L62.1851 60.8001H61.1851L67.9951 52.7301V53.9201Z" fill="#E7E6EC"/>
<path d="M67.9951 55.1001L63.1851 60.8001H62.1851L67.9951 53.9201V55.1001Z" fill="#E7E6EC"/>
<path d="M67.9951 56.2801L64.1851 60.8001H63.1851L67.9951 55.1001V56.2801Z" fill="#E7E6EC"/>
<path d="M67.9951 57.4701L65.1751 60.8001H64.1851L67.9951 56.2801V57.4701Z" fill="#E7E6EC"/>
<path d="M67.9948 58.6501L66.1748 60.8001H65.1748L67.9948 57.4701V58.6501Z" fill="#E7E6EC"/>
<path d="M67.9948 59.8401L67.1748 60.8001H66.1748L67.9948 58.6501V59.8401Z" fill="#E7E6EC"/>
<path d="M67.1748 60.8001L67.9948 59.8401V60.8001H67.1748Z" fill="#E7E6EC"/>
</g>
<path d="M65.995 61.4299H2.89502C1.51502 61.4299 0.39502 60.3099 0.39502 58.9299V10.6899C0.39502 9.30994 1.51502 8.18994 2.89502 8.18994H65.995C67.375 8.18994 68.495 9.30994 68.495 10.6899V58.9299C68.495 60.3099 67.375 61.4299 65.995 61.4299ZM2.89502 9.18994C2.06502 9.18994 1.39502 9.85994 1.39502 10.6899V58.9299C1.39502 59.7599 2.06502 60.4299 2.89502 60.4299H65.995C66.825 60.4299 67.495 59.7599 67.495 58.9299V10.6899C67.495 9.85994 66.825 9.18994 65.995 9.18994H2.89502Z" fill="black"/>
</svg>
