<svg width="249" height="95" viewBox="0 0 249 95" fill="none" xmlns="http://www.w3.org/2000/svg">
<path d="M7.56104 47.5009V75.0519H11.8467H16.1325V62.9294V50.6845L21.3978 50.3172C26.0508 49.9498 26.5406 49.5825 26.908 46.5213C27.2753 43.3376 27.1529 43.2151 21.7651 43.2151H16.1325V35.256V27.2968H23.4794C31.0712 27.2968 31.9284 26.5621 30.0916 21.909C29.4794 20.3172 27.2753 19.9498 18.459 19.9498H7.56104V47.5009Z" fill="black" fill-opacity="0.75"/>
<path d="M34.4995 20.5618C34.4995 21.0516 36.2138 27.1741 38.2954 34.2761L41.9689 47.1333L38.2954 60.4802C36.2138 67.8271 34.4995 74.1945 34.4995 74.4394C34.4995 74.8067 36.0913 75.0516 38.173 75.0516C41.3567 75.0516 41.8465 74.4394 43.0709 70.1537C43.6832 67.4598 44.9077 63.0516 45.5199 60.3578C46.2546 57.6639 46.9893 55.4598 47.3567 55.4598C47.6016 55.4598 48.7036 59.868 49.9281 65.2557L52.0097 75.0516H56.0505H59.9689L56.2954 61.4598L52.622 47.7455L56.0505 35.3782C60.2138 19.7047 60.2138 20.5618 55.9281 20.5618C52.4995 20.5618 52.2546 20.9292 49.9281 30.3578C48.5811 35.7455 47.2342 39.2965 46.9893 38.3169C46.622 37.3374 45.3975 32.9292 44.2954 28.521C42.4587 20.9292 42.0913 20.5618 38.4179 20.1945C36.2138 19.9496 34.4995 20.1945 34.4995 20.5618Z" fill="black" fill-opacity="0.75"/>
<path d="M68.5406 21.2968C64.7447 22.7662 62.6631 27.7866 62.6631 35.3784C62.6631 43.5825 64.2549 46.1539 71.7243 49.9498C75.5202 51.909 79.1937 54.1131 79.9284 54.9702C81.8876 57.4192 80.7855 66.6029 78.3366 68.1947C75.5202 69.909 71.9692 67.8274 71.4794 64.1539C71.1121 62.1947 70.2549 61.5825 67.4386 61.5825C63.0304 61.5825 61.9284 63.7866 63.8876 69.4192C64.9896 72.8478 66.2141 73.9498 69.7651 75.0519C75.8876 76.6437 79.0712 76.6437 83.9692 74.5621C88.3774 72.7253 89.6019 69.4192 89.6019 59.8682C89.6019 51.1743 88.6223 49.7049 80.2957 45.4192L72.3366 41.3784L72.7039 34.6437C73.0712 28.0315 73.1937 27.909 76.7447 27.909C79.8059 27.909 80.4182 28.3988 80.7855 31.3376C81.1529 34.3988 81.6427 34.7662 85.0712 34.3988C88.7447 34.0315 88.9896 33.7866 88.8672 29.3784C88.7447 26.807 87.7651 23.7458 86.7855 22.7662C84.459 20.3172 73.1937 19.46 68.5406 21.2968Z" fill="black" fill-opacity="0.75"/>
<path d="M92.0508 23.6225C92.0508 27.0511 92.4181 27.296 96.3365 27.296H100.622L100.867 51.4184L101.234 75.6633H104.908H108.581L108.949 51.4184L109.194 27.296H113.479C117.398 27.296 117.765 27.0511 117.765 23.6225V19.949H104.908H92.0508V23.6225Z" fill="black" fill-opacity="0.75"/>
<path d="M122.418 20.6845C121.806 21.1743 121.438 33.6641 121.438 48.358V75.0519H125.724H129.887L130.255 64.2764C130.622 54.6029 130.867 53.6233 133.071 53.6233C135.52 53.6233 135.765 54.358 139.806 69.7866C141.03 74.4396 141.52 75.0519 144.704 75.0519C146.785 75.0519 148.377 74.807 148.377 74.4396C148.377 74.0723 147.153 69.0519 145.806 63.4192C143.357 53.9907 143.357 53.0111 145.194 51.1743C148.01 48.2356 148.745 44.4396 148.132 34.0315C147.52 21.909 146.541 20.9294 133.438 20.1947C127.806 19.9498 122.908 20.0723 122.418 20.6845ZM139.071 29.256C140.051 31.7049 140.051 42.4804 139.071 44.9294C138.092 47.5009 131.724 47.5009 130.745 44.9294C130.377 43.8274 130.01 39.4192 130.01 35.1335V27.2968H134.173C136.867 27.2968 138.581 28.0315 139.071 29.256Z" fill="black" fill-opacity="0.75"/>
<path d="M153.275 47.8674V75.6633H165.888H178.377L178.745 72.3572L179.112 68.9286H170.541H161.847V59.745V50.5613H167.357C172.622 50.5613 172.867 50.4388 172.867 46.8878C172.867 43.3368 172.622 43.2144 167.357 43.2144H161.847V35.2552V27.296H170.418H178.99V23.6225V19.949H166.133H153.275V47.8674Z" fill="black" fill-opacity="0.75"/>
<path d="M183.888 48.236C183.888 73.583 184.133 76.3993 185.847 75.787C186.949 75.4197 192.704 75.0523 198.704 75.0523C209.48 75.0523 209.602 75.0523 209.602 71.9911C209.602 69.0523 209.357 68.9299 201.031 68.9299H192.459V59.7462V50.5625H197.969C203.235 50.5625 203.48 50.4401 203.48 46.8891C203.48 43.3381 203.235 43.2156 197.969 43.2156H192.459V35.2564V27.2972H201.031H209.602V23.6238V19.9503H196.745H183.888V48.236Z" fill="black" fill-opacity="0.75"/>
<path d="M214.133 20.6845C213.643 21.1743 213.275 22.8886 213.275 24.4805C213.275 26.9294 213.888 27.2968 218.173 27.2968H223.071V51.1743V75.0519H227.357H231.643V51.1743V27.2968H236.051C240.092 27.2968 240.337 27.0519 239.969 23.8682L239.602 20.5621L227.235 20.1947C220.5 20.0723 214.622 20.1947 214.133 20.6845Z" fill="black" fill-opacity="0.75"/>
</svg>
