<svg width="258" height="93" viewBox="0 0 258 93" fill="none" xmlns="http://www.w3.org/2000/svg">
<path d="M0.139719 54.4559C0.159173 52.232 0.164479 50.0063 0.199851 47.7825C0.229917 45.8949 0.272363 44.0073 0.360792 42.1216C0.38909 41.5159 0.498742 40.8849 0.719816 40.3262C1.00456 39.6066 1.57758 39.1022 2.32039 38.793C2.55384 38.0734 3.06143 37.5581 3.69281 37.1531C3.75118 37.1151 3.82015 37.0862 3.88736 37.0699C4.51167 36.9181 5.12714 36.7481 5.78329 36.7481C15.5972 36.7517 25.4111 36.7427 35.225 36.7355C35.3116 36.7355 35.4054 36.712 35.4814 36.7409C36.1252 36.985 36.7831 36.8241 37.4357 36.8168C41.0171 36.7861 44.5985 36.7373 48.1799 36.7264C50.2704 36.721 52.3626 36.7535 54.4531 36.8222C55.0279 36.8403 55.6363 36.9597 56.1615 37.1929C56.8389 37.4948 57.3377 38.0589 57.61 38.7948C58.3316 39.0316 59.0585 39.7205 59.3857 40.5811C59.5908 40.5468 59.7536 40.5233 59.872 40.2629C60.1709 39.603 60.8182 39.0407 61.4178 38.8002C61.8405 37.8998 62.41 37.2309 63.3898 36.9868C63.9805 36.8403 64.5694 36.7897 65.1743 36.7897C73.499 36.7951 81.822 36.7933 90.1468 36.7933H90.6844C90.7428 36.5691 90.8117 36.363 90.8506 36.1515C90.9638 35.5584 91.3211 35.1372 91.7509 34.7575C92.453 34.1373 93.309 34.0017 94.188 33.9529C94.6602 33.9276 95.1342 33.9511 95.6064 33.9493C95.716 33.9493 95.8275 33.9385 95.9495 33.9312C95.9707 33.604 96.0043 33.3038 96.0061 33.0037C96.0114 30.7075 95.9955 28.4131 96.022 26.1188C96.0308 25.2654 96.1936 24.4337 96.7648 23.7503C97.1238 23.3199 97.543 22.9963 98.093 22.8481C98.7509 22.6709 99.4106 22.5931 100.088 22.6221C100.53 22.6401 100.972 22.6257 101.423 22.6257C101.453 22.4991 101.496 22.4015 101.496 22.3038C101.513 20.7417 101.531 19.1814 101.54 17.6193C101.547 16.3753 101.547 15.1314 101.542 13.8875C101.538 12.819 101.513 11.7522 101.519 10.6837C101.522 10.0418 101.515 9.39277 101.602 8.75996C101.703 8.02952 101.798 7.27377 102.343 6.70063C102.693 6.33179 103.07 6.02804 103.57 5.86713C104.41 5.59774 105.265 5.62124 106.122 5.62666C106.405 5.62666 106.688 5.62666 107.014 5.62666C107.023 4.91973 107.051 4.24895 107.035 3.58179C107.019 2.9526 107.187 2.36138 107.368 1.78281C107.467 1.4646 107.696 1.15543 107.941 0.922195C108.28 0.598559 108.657 0.312892 109.148 0.209835C109.739 0.0868897 110.323 -0.00351129 110.931 0.00010475C114.155 0.0163769 117.378 0.0163769 120.602 0.00914485C121.187 0.00914485 121.744 0.155594 122.277 0.343629C122.623 0.466574 122.94 0.754049 123.202 1.03248C123.548 1.40132 123.762 1.85152 123.886 2.37042C124.084 3.19668 124.045 4.02295 124.026 4.85464C124.021 5.10053 124.026 5.34642 124.026 5.64294C124.19 5.65017 124.357 5.66102 124.521 5.66102C128.246 5.66644 131.972 5.66644 135.697 5.67548C136.899 5.6791 138.102 5.7026 139.305 5.71526C139.444 5.71526 139.586 5.71526 139.75 5.71526C139.759 5.57062 139.773 5.45671 139.773 5.34461C139.775 4.84741 139.8 4.34839 139.77 3.85119C139.729 3.1786 139.874 2.53676 140.07 1.91299C140.171 1.59297 140.389 1.28018 140.629 1.04514C140.955 0.728737 141.307 0.441262 141.782 0.325548C142.442 0.164635 143.097 0.0724256 143.776 0.0832737C145.18 0.10497 146.584 0.0633855 147.987 0.10497C148.802 0.128474 149.612 0.282156 150.254 0.876995C150.625 1.22233 150.926 1.61467 151.064 2.13357C151.257 2.86039 151.338 3.59264 151.308 4.34478C151.29 4.79497 151.305 5.24517 151.305 5.74419C151.936 5.74419 152.534 5.76588 153.13 5.73876C153.789 5.70983 154.414 5.8834 155.019 6.0859C155.355 6.198 155.671 6.46197 155.921 6.73136C156.262 7.1002 156.524 7.5287 156.624 8.05845C156.736 8.64787 156.78 9.22643 156.773 9.82669C156.746 12.2115 156.762 14.5963 156.762 17.0118C156.874 17.0226 156.982 17.0425 157.09 17.0443C157.376 17.0497 157.664 17.0642 157.949 17.0425C158.676 16.9865 159.387 17.1022 160.061 17.339C161.011 17.6717 161.709 18.2973 161.971 19.3477C162.121 19.948 162.173 20.5519 162.169 21.1702C162.155 23.3218 162.162 25.4733 162.16 27.6248C162.16 27.8997 162.16 28.1745 162.16 28.4999C162.615 28.4999 163.055 28.5126 163.494 28.4963C164.199 28.4692 164.889 28.5469 165.574 28.7368C166.382 28.961 166.937 29.5197 167.254 30.2483C167.478 30.7654 167.553 31.3819 167.568 31.9569C167.609 33.3906 167.581 34.8262 167.579 36.26C167.579 36.4028 167.579 36.5474 167.579 36.7427C167.767 36.7427 167.919 36.7427 168.073 36.7427C173.76 36.7463 179.448 36.7481 185.136 36.7517C185.352 36.7517 185.566 36.7644 185.78 36.7517C186.515 36.7156 187.235 36.7951 187.946 36.994C188.102 37.0374 188.288 37.0428 188.443 36.9976C189.099 36.8114 189.764 36.7752 190.44 36.7752C200.167 36.7662 209.896 36.7499 219.623 36.7427C219.864 36.7427 220.104 36.8024 220.343 36.8331C220.511 36.8548 220.681 36.8928 220.851 36.8891C223.143 36.8403 225.433 36.7481 227.725 36.7409C234.587 36.7192 241.451 36.7264 248.313 36.73C249.201 36.73 250.093 36.7355 250.975 36.815C251.739 36.8837 252.503 37.0085 253.131 37.5527C253.522 37.8926 253.777 38.3193 254.042 38.7695C254.788 39.0081 255.345 39.5361 255.676 40.2521C255.885 40.7041 255.955 41.2338 256.023 41.7364C256.09 42.2409 256.09 42.758 256.09 43.2696C256.104 49.3446 256.111 55.4195 256.122 61.4927C256.122 61.6391 256.122 61.7856 256.122 61.9501C256.233 62.0369 256.343 62.1273 256.456 62.2123C256.994 62.6137 257.331 63.1307 257.499 63.8069C257.814 65.0671 257.892 66.3454 257.906 67.6363C257.912 68.045 257.917 68.4554 257.922 68.864C257.922 69.457 257.924 70.05 257.926 70.6431C257.95 71.077 257.975 71.5091 258 71.943V80.3756C257.975 81.2272 257.952 82.0788 257.927 82.9304C257.919 83.6156 257.906 84.3009 257.903 84.9861C257.897 86.0998 257.745 87.1937 257.461 88.2676C257.432 88.3779 257.386 88.4882 257.33 88.5859C256.951 89.2277 256.438 89.7123 255.77 89.9527C255.347 90.8567 254.774 91.5365 253.801 91.768C253.538 91.8294 253.278 91.9054 253.018 91.9759C253.004 91.9759 252.99 91.9723 252.975 91.9723C242.339 91.9723 231.701 91.9723 221.065 91.9723C220.937 91.9723 220.808 91.9868 220.681 91.994C220.43 91.8747 220.179 91.8367 219.926 91.9849C219.754 91.9795 219.583 91.9705 219.411 91.9705C212.096 91.9705 204.781 91.9705 197.468 91.9705C194.748 91.9705 192.03 91.9723 189.31 91.9741C188.509 91.6324 187.711 91.6468 186.913 91.9849C186.77 91.9795 186.629 91.9705 186.485 91.9705C177.137 91.9705 167.79 91.9705 158.441 91.9705C158.298 91.9705 158.156 91.9795 158.013 91.9849C157.726 91.9072 157.442 91.8204 157.152 91.7553C157.003 91.721 156.838 91.6866 156.693 91.7155C156.333 91.7879 155.981 91.8963 155.623 91.9904C155.466 91.9831 155.31 91.9705 155.153 91.9705C145.26 91.9705 135.366 91.9705 125.473 91.9705C125.315 91.9705 125.158 91.9795 125 91.9849C124.602 91.8819 124.204 91.7788 123.807 91.6721C123.739 91.6541 123.672 91.6197 123.612 91.5818C122.975 91.184 122.468 90.6705 122.208 89.9111C122.08 89.9346 121.96 89.9563 121.852 89.978C121.567 90.7645 120.757 91.627 119.87 91.777C119.603 91.8222 119.344 91.9126 119.083 91.9831C119.012 91.9777 118.941 91.9687 118.869 91.9687C112.804 91.9687 106.741 91.9687 100.677 91.9705C100.36 91.8855 100.042 91.8132 99.7307 91.7119C99.5185 91.6414 99.3063 91.5528 99.117 91.4353C98.5918 91.1117 98.2115 90.6542 97.9781 90.0684C97.9498 89.9961 97.8295 89.9238 97.7517 89.922C97.6756 89.9202 97.5695 89.9889 97.5235 90.0594C97.3591 90.3107 97.2441 90.5982 97.0566 90.8296C96.71 91.2581 96.2997 91.6089 95.739 91.73C95.4331 91.7951 95.1359 91.8927 94.8335 91.9759C94.6761 91.9759 94.5187 91.9723 94.3613 91.9723C75.1721 91.9723 55.9847 91.9723 36.7955 91.9723C36.6522 91.9723 36.509 91.9777 36.3657 91.9795C36.0491 91.8927 35.7273 91.8204 35.416 91.7155C35.1896 91.6396 34.9685 91.5384 34.7616 91.4154C34.2098 91.0882 33.8738 90.5675 33.6032 89.9997C33.1363 89.8876 32.779 89.5875 32.4554 89.2639C32.2361 89.0433 32.0132 88.7685 31.9283 88.4756C31.7621 87.906 31.6224 87.3112 31.5976 86.72C31.5269 85.0837 31.5233 83.4457 31.4897 81.8094C31.488 81.6828 31.472 81.5563 31.4632 81.4243H26.6544V81.8763C26.6544 83.2793 26.642 84.6842 26.6597 86.0872C26.6686 86.7652 26.6208 87.4287 26.4192 88.076C26.3679 88.2423 26.3431 88.4231 26.2582 88.5696C25.8638 89.2367 25.3456 89.7611 24.6099 89.9672C24.1801 90.8857 23.5877 91.5673 22.5849 91.777C22.3337 91.8295 22.0879 91.9054 21.8385 91.9705C21.7395 91.9651 21.6387 91.956 21.5396 91.956C16.1667 91.956 10.7919 91.956 5.41896 91.956C5.30577 91.956 5.19081 91.9669 5.07762 91.9705C4.76104 91.8855 4.43916 91.8132 4.12789 91.7119C3.91389 91.6432 3.70166 91.5528 3.51065 91.4371C2.98007 91.1153 2.59983 90.6524 2.35576 90.0721C2.33631 90.025 2.29563 89.978 2.25141 89.9491C1.98789 89.7792 1.68193 89.6544 1.46439 89.4374C1.17434 89.1463 0.855997 88.8191 0.721584 88.443C0.519965 87.8753 0.38909 87.2552 0.362561 86.6513C0.272363 84.6082 0.226379 82.5615 0.194545 80.5149C0.157404 78.1626 0.153867 75.8086 0.136181 73.4563C0.146793 73.3117 0.168016 73.1671 0.168016 73.0224C0.171553 66.9927 0.173322 60.9629 0.173322 54.9332C0.173322 54.7741 0.155636 54.6132 0.145024 54.4541L0.139719 54.4559ZM142.798 8.80516L142.806 8.79793C142.649 8.80516 142.493 8.81963 142.336 8.81963C138.385 8.8124 134.434 8.80516 130.483 8.79432C127.319 8.78708 124.157 8.77804 120.993 8.769L120.979 8.74188V3.16052C120.321 3.06289 110.409 3.06651 110.04 3.16956V8.71295L110.047 8.70391C109.89 8.71115 109.734 8.72561 109.576 8.72561C108.087 8.72561 106.596 8.72019 105.107 8.71657C104.953 8.71657 104.801 8.71657 104.626 8.71657C104.617 8.89737 104.605 9.02574 104.603 9.15411C104.591 10.9531 104.577 12.7539 104.571 14.5529C104.561 18.0948 104.555 21.6349 104.548 25.1768C104.548 25.3377 104.563 25.4968 104.57 25.6577C104.561 25.6903 104.552 25.721 104.543 25.7535C102.884 25.759 101.225 25.7626 99.5663 25.768C99.4018 25.768 99.2355 25.7825 99.0445 25.7915C99.0445 26.0049 99.0445 26.1658 99.0445 26.3249C99.0392 29.2177 99.0339 32.1105 99.0286 35.0034C99.0286 35.7049 99.0286 36.4064 99.0304 37.1061C99.0127 37.1043 99.0003 37.0934 98.995 37.0754C98.613 37.0501 98.231 37.0067 97.8472 37.003C96.5809 36.9922 95.3128 36.9958 94.0465 36.994C93.8979 36.994 93.76 37.0121 93.6857 37.1676C93.6645 37.3231 93.6238 37.4786 93.622 37.634C93.615 38.8056 93.6167 39.9754 93.6114 41.147C93.6114 41.2682 93.5902 41.3893 93.5743 41.5502C93.1923 41.3694 93.2913 41.0241 93.2082 40.7728C93.1144 40.4889 93.0808 40.1852 93.0242 39.8995H64.2299C64.129 40.4781 64.0282 41.0458 63.9221 41.6569H62.5408C62.463 42.2517 62.3923 42.7996 62.3162 43.3926H60.6962C60.6325 49.3229 60.5689 55.199 60.5052 61.0678C59.9339 61.1618 57.1785 61.1383 56.8478 61.0316C56.8478 60.8852 56.8478 60.7261 56.8478 60.567C56.8425 58.1949 56.8318 55.8245 56.8354 53.4524C56.8407 49.8364 56.8018 46.2221 56.6391 42.6097C56.6249 42.3042 56.5931 42.0004 56.5683 41.675C56.036 41.637 55.5284 41.599 55.0014 41.5611C54.9412 41.0024 54.8846 40.4817 54.8263 39.9266C54.6547 39.9121 54.5008 39.8941 54.347 39.8905C53.6165 39.867 52.8861 39.8272 52.1557 39.8308C47.2567 39.8507 42.3559 39.8778 37.4569 39.9067C37.105 39.9085 36.753 39.9592 36.3993 39.9863C36.3516 40.4998 36.3091 40.9644 36.2614 41.4689C35.9536 41.2754 35.8935 41.0223 35.8511 40.7601C35.8263 40.6155 35.8175 40.469 35.7856 40.328C35.6831 39.867 35.6371 39.8272 35.1843 39.8254C33.7942 39.8199 32.4041 39.8127 31.0157 39.8145C22.5194 39.8308 14.0231 39.8471 5.52684 39.8651C5.38889 39.8651 5.25094 39.8814 5.10415 39.8905C5.01926 40.4871 4.93967 41.0458 4.85478 41.6442H3.39746C3.37977 41.8413 3.35678 41.9968 3.35324 42.1541C3.30196 43.9965 3.22944 45.8407 3.20645 47.683C3.16401 51.1219 3.13394 54.5625 3.12687 58.0014C3.11802 62.7583 3.12156 67.5152 3.14632 72.2739C3.16754 76.4016 3.22237 80.5293 3.27189 84.657C3.28073 85.3875 3.32672 86.1197 3.36032 86.8502C3.36562 86.946 3.401 87.0382 3.43106 87.1666H4.87069C4.94851 87.7614 5.02279 88.3183 5.0953 88.8679H21.8032C21.8792 88.2785 21.95 87.7198 22.026 87.125H23.6443V78.376H34.4769C34.4769 79.1371 34.4698 79.8658 34.4786 80.5944C34.4875 81.3267 34.5158 82.0571 34.5299 82.7893C34.5441 83.5216 34.5494 84.2538 34.56 84.9843C34.5724 85.7093 34.5635 86.4361 34.606 87.2045H36.249C36.3021 87.7958 36.3533 88.34 36.4011 88.8751H94.7716C94.8406 88.3147 94.9043 87.7813 94.9732 87.2136C95.5321 87.1738 96.0698 87.1376 96.6322 87.0979C96.7188 83.5614 96.8037 80.0574 96.8886 76.5444H98.7828C98.9013 80.09 98.8234 83.6102 98.9649 87.1232C99.5645 87.1666 100.116 87.2063 100.675 87.2461C100.732 87.8175 100.654 88.3562 100.723 88.8824H119.051C119.104 88.302 119.153 87.7415 119.208 87.1376H120.837C120.876 86.3891 120.936 85.6894 120.945 84.9897C120.98 82.341 121 79.6922 121.025 77.0417C121.025 76.8735 121.039 76.7054 121.046 76.5426H123.099C123.099 76.7126 123.099 76.8554 123.099 76.9983C123.099 78.1554 123.087 79.3107 123.099 80.4679C123.12 82.2668 123.15 84.0676 123.193 85.8666C123.203 86.2843 123.278 86.6983 123.324 87.1141C123.861 87.1629 124.344 87.2063 124.859 87.2534C124.908 87.7994 124.958 88.3309 125.007 88.8824H155.608C155.691 88.3291 155.77 87.7867 155.85 87.2552H157.901C157.949 87.8193 157.993 88.3526 158.038 88.8806H186.885C186.979 88.3327 187.069 87.8048 187.159 87.2732H189.232C189.281 87.8247 189.329 88.3544 189.375 88.8715C190.355 88.9656 219.569 88.924 219.894 88.8318C219.928 88.4882 219.958 88.1393 219.995 87.7903C220.041 87.3401 220.161 87.2588 220.669 87.3709V88.8733H252.951C253.025 88.2857 253.097 87.7252 253.174 87.1232H254.709C254.751 86.7471 254.809 86.4162 254.824 86.0818C254.877 84.8541 254.939 83.6247 254.956 82.397C255.027 77.2442 255.045 72.0931 254.875 66.9421C254.861 66.5334 254.843 66.123 254.808 65.7144C254.776 65.3691 254.716 65.0256 254.661 64.6441H253.103C253.103 64.456 253.103 64.3114 253.103 64.1685C253.103 62.4419 253.101 60.7134 253.097 58.9868C253.09 53.6585 253.083 48.3303 253.071 43.0021C253.071 42.5555 253.028 42.1071 253.004 41.6153H251.416C251.347 41.0223 251.283 40.4763 251.219 39.9194C251.071 39.9049 250.959 39.8868 250.846 39.885C249.815 39.8579 248.784 39.8091 247.753 39.8109C239.63 39.8326 231.507 39.8597 223.382 39.8941C222.58 39.8977 221.778 39.9447 220.976 39.9736C220.879 39.9772 220.784 40.0007 220.654 40.0188C220.608 40.5016 220.563 40.9753 220.518 41.4363C220.071 41.5032 220.004 41.458 219.995 41.0783C219.986 40.686 219.993 40.2954 219.993 39.914C219.275 39.7639 190.438 39.7711 189.372 39.9176C189.308 40.4509 189.244 40.9933 189.181 41.5303H187.161C187.076 40.9662 186.996 40.4238 186.91 39.8453H164.527V31.6188C164.328 31.6188 164.173 31.6188 164.019 31.6188C162.544 31.6151 161.067 31.6133 159.592 31.6079C159.437 31.6079 159.279 31.5898 159.123 31.5808L159.129 31.588C159.123 31.4126 159.116 31.2391 159.116 31.0637C159.122 27.6483 159.129 24.233 159.132 20.8195C159.132 20.6459 159.113 20.4723 159.102 20.2969C158.968 20.089 158.759 20.1234 158.563 20.1234C156.95 20.1179 155.339 20.1125 153.726 20.1089C153.72 19.8612 153.712 19.6117 153.712 19.364C153.717 16.0463 153.722 12.7286 153.729 9.40904C153.729 9.23909 153.729 9.06913 153.729 8.86121C153.498 8.86121 153.33 8.86121 153.162 8.86121C151.517 8.85217 149.872 8.84313 148.227 8.83409V8.82686C148.314 6.84889 148.301 3.61614 148.199 3.20572H142.796V8.79793L142.798 8.80516Z" fill="white"/>
<path d="M253.014 91.9795C253.276 91.9108 253.536 91.8349 253.798 91.7716C254.771 91.5402 255.345 90.8622 255.766 89.9563C256.435 89.7159 256.948 89.2313 257.326 88.5895C257.385 88.4918 257.429 88.3816 257.457 88.2713C257.74 87.1973 257.892 86.1035 257.899 84.9897C257.903 84.3045 257.915 83.6192 257.924 82.934H257.961L257.996 82.9268V92.0609H253.011C253.013 92.0338 253.014 92.0048 253.013 91.9777L253.014 91.9795Z" fill="white"/>
<path d="M36.3657 92.0627C36.3622 92.0356 36.3604 92.0103 36.3604 91.9831C36.5037 91.9795 36.6469 91.9759 36.7902 91.9759C55.9794 91.9759 75.1668 91.9759 94.356 91.9759C94.5134 91.9759 94.6708 91.9777 94.8282 91.9795C94.8282 92.0066 94.8282 92.0356 94.8264 92.0627H36.3657Z" fill="#FFA4A4"/>
<path d="M0.130876 73.4582C0.0866609 73.4527 0.0442147 73.4473 0 73.4419C0 67.1174 0 60.7948 0 54.4703C0.0459833 54.4649 0.0919666 54.4613 0.139719 54.4559C0.15033 54.615 0.168016 54.7759 0.168016 54.935C0.168016 60.9647 0.168016 66.9945 0.16271 73.0242C0.16271 73.1689 0.141487 73.3135 0.130876 73.4582Z" fill="#FFA4A4"/>
<path d="M253.014 91.9795C253.014 92.0066 253.014 92.0356 253.013 92.0627H220.688C220.669 92.0446 220.667 92.0229 220.677 91.9994C220.805 91.9922 220.934 91.9777 221.061 91.9777C231.698 91.9777 242.336 91.9777 252.972 91.9777C252.986 91.9777 253 91.9813 253.014 91.9813V91.9795Z" fill="#FFA4A4"/>
<path d="M189.304 91.9795C192.025 91.9795 194.743 91.9759 197.463 91.9759C204.778 91.9759 212.093 91.9759 219.406 91.9759C219.577 91.9759 219.749 91.9849 219.921 91.9904C219.926 92.0157 219.924 92.0392 219.912 92.0627H189.306C189.304 92.0356 189.303 92.0066 189.304 91.9795Z" fill="#FFA4A4"/>
<path d="M125.002 92.0627C124.992 92.0392 124.99 92.0157 124.993 91.9904C125.151 91.9849 125.308 91.9759 125.465 91.9759C135.359 91.9759 145.252 91.9759 155.146 91.9759C155.303 91.9759 155.459 91.9886 155.616 91.9958C155.625 92.0193 155.623 92.0428 155.606 92.0627H125H125.002Z" fill="#FFA4A4"/>
<path d="M158.006 91.9904C158.149 91.9849 158.291 91.9759 158.434 91.9759C167.783 91.9759 177.13 91.9759 186.478 91.9759C186.622 91.9759 186.763 91.9849 186.906 91.9904C186.912 92.0157 186.91 92.0392 186.899 92.0627H158.013C158.002 92.0392 157.999 92.0157 158.006 91.9904Z" fill="#FFA4A4"/>
<path d="M100.672 92.0627C100.672 92.0338 100.672 92.0048 100.672 91.9759C106.736 91.9759 112.799 91.9741 118.863 91.9741C118.934 91.9741 119.005 91.9831 119.077 91.9886C119.081 92.0139 119.079 92.0392 119.07 92.0645H100.673L100.672 92.0627Z" fill="#FFA4A4"/>
<path d="M5.07231 92.0627C5.07231 92.0338 5.07231 92.003 5.07231 91.9741C5.1855 91.9687 5.30046 91.9596 5.41365 91.9596C10.7866 91.9596 16.1614 91.9596 21.5343 91.9596C21.6334 91.9596 21.7342 91.9687 21.8332 91.9741C21.8332 92.0048 21.8332 92.0338 21.8332 92.0645H5.07231V92.0627Z" fill="#FFA4A4"/>
<path d="M158.006 91.9904C157.999 92.0157 158.002 92.0392 158.013 92.0627H155.606C155.622 92.0428 155.625 92.0211 155.616 91.9958C155.972 91.9018 156.326 91.7933 156.686 91.721C156.831 91.692 156.996 91.7264 157.144 91.7608C157.434 91.8276 157.719 91.9126 158.006 91.9904Z" fill="white"/>
<path d="M257.998 82.9286L257.963 82.9358H257.926C257.951 82.0842 257.974 81.2326 257.998 80.3811V82.9286Z" fill="#FFA4A4"/>
<path d="M257.924 70.6503C257.924 70.0573 257.922 69.4642 257.92 68.8712C257.945 68.8784 257.972 68.8803 257.996 68.8766V70.634C257.972 70.6395 257.947 70.6449 257.922 70.6521L257.924 70.6503Z" fill="#FFA4A4"/>
<path d="M219.913 92.0627C219.924 92.0392 219.928 92.0157 219.922 91.9904C220.175 91.8403 220.426 91.8783 220.677 91.9994C220.665 92.0229 220.669 92.0446 220.688 92.0627H219.913Z" fill="white"/>
<path d="M257.924 70.6503C257.949 70.6431 257.974 70.6376 257.998 70.6322V71.9503C257.974 71.5163 257.949 71.0842 257.924 70.6503Z" fill="#CA5B23"/>
<path d="M98.9985 37.0808C99.0038 37.0989 99.0162 37.1079 99.0339 37.1115L99.0357 37.1188C99.0304 37.1549 99.0233 37.1911 99.018 37.2291C99.0251 38.0915 99.0321 38.9557 99.0374 39.8181C99.2178 39.8416 99.3965 39.8868 99.5769 39.8868C113.764 39.8905 127.952 39.8905 142.14 39.8887C142.269 39.8887 142.398 39.8977 142.525 39.8832C142.587 39.876 142.644 39.8218 142.704 39.7874C142.711 39.0009 142.72 38.2144 142.727 37.4279C142.893 37.399 143.058 37.3466 143.224 37.3466C144.708 37.3393 146.19 37.3466 147.674 37.3393C147.824 37.3393 147.974 37.2941 148.126 37.2706C148.148 37.2074 148.169 37.1441 148.188 37.079C148.408 37.0121 148.39 36.8277 148.381 36.6541C148.356 36.1967 148.33 35.7392 148.294 35.2818C148.286 35.1751 148.236 35.0721 148.206 34.9672C148.208 33.8842 148.21 32.803 148.211 31.72C148.378 31.6911 148.544 31.6368 148.71 31.6368C150.355 31.6314 151.998 31.635 153.643 31.6368C153.648 31.9334 153.655 32.2281 153.66 32.5246C153.653 32.6276 153.646 32.7307 153.639 32.8338L153.65 32.8645C153.508 32.8717 153.455 32.9549 153.455 33.0923C153.455 33.9023 153.455 34.7141 153.455 35.5241C153.455 35.6579 153.494 35.7501 153.639 35.7609C153.648 35.9056 153.664 36.0502 153.664 36.1949C153.664 37.2616 153.657 38.3283 153.655 39.3951C153.655 39.5234 153.666 39.65 153.674 39.8199H155.627C155.698 40.4202 155.765 40.9807 155.829 41.5249H157.9C157.962 40.9482 158.02 40.4021 158.082 39.8236H159.097C159.097 39.1112 159.095 38.4404 159.097 37.7696C159.106 35.7085 159.115 33.6474 159.125 31.588C159.281 31.5971 159.438 31.6151 159.594 31.6151C161.069 31.6206 162.546 31.6224 164.021 31.626C164.175 31.626 164.33 31.626 164.528 31.626V39.8525H186.912C186.998 40.4311 187.08 40.9735 187.163 41.5376H189.182C189.246 41.0006 189.312 40.4582 189.373 39.9248C190.442 39.7784 219.279 39.7711 219.995 39.9212C219.995 40.3027 219.988 40.6932 219.997 41.0856C220.005 41.4634 220.073 41.5086 220.52 41.4435C220.564 40.9825 220.61 40.5088 220.656 40.0261C220.785 40.008 220.883 39.9845 220.978 39.9809C221.779 39.9519 222.582 39.9049 223.383 39.9013C231.507 39.8688 239.63 39.8398 247.755 39.8181C248.786 39.8163 249.817 39.8633 250.848 39.8923C250.959 39.8959 251.072 39.9122 251.221 39.9266C251.286 40.4835 251.348 41.0295 251.417 41.6225H253.006C253.03 42.1143 253.073 42.5627 253.073 43.0093C253.085 48.3375 253.092 53.6658 253.099 58.994C253.101 60.7207 253.103 62.4491 253.105 64.1758C253.105 64.3186 253.105 64.4615 253.105 64.6513H254.663C254.716 65.0346 254.778 65.3763 254.809 65.7216C254.847 66.1303 254.864 66.5389 254.877 66.9493C255.046 72.1003 255.027 77.2532 254.958 82.4042C254.942 83.6337 254.878 84.8614 254.825 86.089C254.811 86.4217 254.753 86.7543 254.71 87.1304H253.175C253.099 87.7325 253.027 88.293 252.952 88.8806H220.67V87.3781C220.165 87.266 220.043 87.3474 219.997 87.7976C219.961 88.1465 219.929 88.4955 219.896 88.839C219.569 88.933 190.357 88.9728 189.377 88.8788C189.331 88.3617 189.283 87.8319 189.234 87.2805H187.161C187.071 87.812 186.981 88.34 186.887 88.8878H158.039C157.995 88.3599 157.951 87.8265 157.903 87.2624H155.852C155.772 87.7921 155.692 88.3346 155.609 88.8896H125.009C124.958 88.3382 124.91 87.8066 124.861 87.2606C124.346 87.2136 123.863 87.1702 123.325 87.1214C123.279 86.7055 123.203 86.2897 123.195 85.8738C123.152 84.0749 123.122 82.2741 123.101 80.4751C123.088 79.318 123.101 78.1626 123.101 77.0055C123.101 76.8627 123.101 76.7198 123.101 76.5499H121.048C121.04 76.7108 121.028 76.8789 121.026 77.0489C121 79.6976 120.982 82.3482 120.947 84.9969C120.938 85.6966 120.878 86.3964 120.839 87.1449H119.21C119.155 87.7506 119.106 88.3111 119.053 88.8896H100.725C100.656 88.3617 100.734 87.8229 100.677 87.2534C100.12 87.2136 99.5663 87.1738 98.9667 87.1304C98.8252 83.6174 98.903 80.0972 98.7845 76.5517H96.8904C96.8055 80.0647 96.7188 83.5686 96.6339 87.1051C96.0698 87.1449 95.5339 87.181 94.975 87.2208C94.906 87.7885 94.8406 88.3219 94.7734 88.8824H36.4046C36.3551 88.349 36.3056 87.803 36.2525 87.2118H34.6095C34.5671 86.4434 34.5759 85.7165 34.5635 84.9915C34.5512 84.2593 34.5476 83.527 34.5335 82.7966C34.5193 82.0643 34.491 81.3339 34.4822 80.6017C34.4733 79.873 34.4804 79.1426 34.4804 78.3832H23.6478V87.1322H22.0295C21.9535 87.7252 21.8828 88.2857 21.8067 88.8752H5.09884C5.02633 88.3255 4.95205 87.7686 4.87423 87.1738H3.4346C3.40453 87.0472 3.36916 86.9532 3.36386 86.8574C3.33025 86.127 3.28427 85.3965 3.27543 84.6643C3.22768 80.5366 3.17285 76.4089 3.14986 72.2811C3.1251 67.5242 3.12156 62.7673 3.1304 58.0086C3.13748 54.568 3.16577 51.1291 3.20999 47.6903C3.23298 45.8461 3.30549 44.0037 3.35678 42.1613C3.36209 42.004 3.38331 41.8485 3.401 41.6515H4.85831C4.94321 41.053 5.02279 40.4925 5.10769 39.8977C5.25448 39.8887 5.39243 39.8724 5.53038 39.8724C14.0267 39.8543 22.523 39.8362 31.0193 39.8217C32.4094 39.8199 33.7995 39.8272 35.1879 39.8326C35.6406 39.8344 35.6884 39.8742 35.7892 40.3352C35.821 40.4781 35.8316 40.6245 35.8546 40.7673C35.8988 41.0295 35.959 41.2826 36.2649 41.4761C36.3109 40.9717 36.3551 40.507 36.4029 39.9935C36.7566 39.9664 37.1085 39.9158 37.4605 39.914C42.3595 39.8832 47.2602 39.8561 52.1592 39.838C52.8897 39.8344 53.6201 39.8742 54.3505 39.8977C54.5044 39.9031 54.6582 39.9212 54.8298 39.9338C54.8899 40.4889 54.9448 41.0096 55.0049 41.5683C55.5319 41.6063 56.0395 41.6442 56.5719 41.6822C56.5966 42.0077 56.6285 42.3114 56.6426 42.617C56.8053 46.2294 56.8425 49.8436 56.8389 53.4597C56.8354 55.8318 56.8478 58.2021 56.8513 60.5742C56.8513 60.7333 56.8513 60.8924 56.8513 61.0389C57.1803 61.1455 59.9375 61.169 60.5087 61.075C60.5724 55.2062 60.6361 49.3301 60.6997 43.3998H62.3198C62.3976 42.8068 62.4683 42.2608 62.5444 41.6641H63.9257C64.0335 41.053 64.1326 40.4853 64.2334 39.9067H93.0278C93.0861 40.1942 93.1198 40.498 93.2117 40.78C93.2948 41.0313 93.1958 41.3766 93.5778 41.5575C93.5937 41.3965 93.615 41.2754 93.615 41.1543C93.6203 39.9827 93.6185 38.8129 93.6256 37.6413C93.6256 37.4858 93.6662 37.3303 93.6892 37.1748C93.7281 37.1857 93.7671 37.1983 93.806 37.2092C93.9457 37.2254 94.0854 37.2544 94.2251 37.2544C95.0528 37.258 95.8805 37.2598 96.7082 37.2544C97.4493 37.2507 98.1921 37.2417 98.9331 37.2363C98.9543 37.1857 98.9756 37.1332 98.9985 37.0826V37.0808ZM127.234 74.1235H128.93V75.7869C129.134 75.805 129.298 75.8303 129.464 75.8303C136.555 75.8429 143.645 75.8556 150.735 75.8646C150.949 75.8646 151.165 75.8484 151.377 75.8249C151.72 75.7869 151.722 75.7833 151.754 75.4398C151.794 74.9932 151.828 74.5448 151.869 74.0494H153.455C153.492 73.4347 153.528 72.8706 153.565 72.2757H155.16V47.2401H153.452V45.5387C152.873 45.4953 152.337 45.4555 151.759 45.4122V43.6963C144.144 43.6783 136.572 43.6638 128.992 43.7144C128.946 44.3346 128.904 44.8951 128.858 45.4971H127.736C127.736 45.6852 127.736 45.828 127.736 45.9726C127.736 51.6806 127.736 57.3867 127.743 63.0946C127.743 63.5574 127.708 63.9751 127.234 64.1595V74.1235ZM64.7127 47.307C64.6932 47.4082 64.672 47.4769 64.6702 47.5456C64.6384 48.305 64.5889 49.0662 64.5853 49.8255C64.5694 53.8936 64.5676 57.9634 64.5553 62.0315C64.5553 62.5124 64.6667 62.8993 65.1796 63.053C65.1796 63.2374 65.1796 63.3965 65.1796 63.5556C65.1796 65.9115 65.1796 68.2691 65.1796 70.625C65.1796 71.6339 65.1796 72.6446 65.1814 73.6534C65.1814 73.7782 65.2079 73.9047 65.2238 74.0385C65.597 74.0928 65.933 74.1416 66.3044 74.1958C66.3415 74.7003 66.3787 75.192 66.4141 75.6748C67.1657 75.9514 74.21 76.0039 75.2358 75.7381C75.28 75.2192 75.326 74.6876 75.3755 74.1054H77.0504C77.0733 70.5454 77.0132 67.0397 77.1299 63.5249H80.2267C80.2267 64.1378 80.2267 64.7218 80.2267 65.304V70.5292C80.2267 71.115 80.2267 71.7008 80.2267 72.2848C80.2267 72.8633 80.2321 73.4419 80.2356 74.0259C80.8334 74.0855 81.371 74.138 81.9299 74.1922C81.9741 74.7147 82.0148 75.2065 82.059 75.7146C82.2765 75.7453 82.4746 75.7851 82.6727 75.7959C83.4014 75.8339 84.1318 75.8918 84.8604 75.8881C86.6361 75.8791 88.41 75.8429 90.1857 75.8104C90.4103 75.8068 90.6331 75.758 90.886 75.7254C90.9515 75.1649 91.0116 74.637 91.077 74.0711H92.552C92.644 73.5757 92.6299 47.6884 92.5432 47.3485C92.0108 47.3124 91.4714 47.2762 90.8825 47.2346V45.5568C90.3095 45.5062 89.7895 45.4592 89.2253 45.4085V43.8428C89.029 43.8121 88.8751 43.7723 88.7213 43.7669C87.6336 43.7325 86.5459 43.6783 85.4582 43.6801C80.9749 43.6891 76.4915 43.7108 72.0081 43.7434C70.878 43.7506 69.7478 43.8102 68.6177 43.8554C68.4532 43.8627 68.2923 43.9169 68.0871 43.9567V45.4103C67.4911 45.4646 66.9446 45.5152 66.3999 45.5658C66.361 46.1209 66.3256 46.6271 66.2903 47.1497C65.7544 47.2021 65.2592 47.2509 64.718 47.3033L64.7127 47.307ZM159.15 47.3268V72.2649C159.491 72.3426 159.817 72.4167 160.13 72.4891C160.163 73.0333 160.195 73.5251 160.227 74.0349C160.812 74.0874 161.348 74.1344 161.925 74.1868C161.939 74.7003 161.953 75.2011 161.969 75.7435C163.135 75.7905 164.249 75.8683 165.363 75.8755C171.007 75.9153 176.65 75.9876 182.292 75.7977C182.527 75.7905 182.762 75.7417 182.998 75.7128C183.035 75.1704 183.067 74.6786 183.1 74.1741C183.68 74.1326 184.218 74.0964 184.791 74.0548C184.818 73.4726 184.842 72.9266 184.869 72.3444C185.442 72.3173 185.976 72.292 186.514 72.2667C186.528 72.1058 186.542 72.0063 186.544 71.9051C186.572 70.6467 186.622 69.3883 186.622 68.1317C186.618 64.0637 186.606 59.9956 186.576 55.9276C186.556 53.2788 186.499 50.6319 186.455 47.9832C186.452 47.7553 186.411 47.5275 186.383 47.2599H184.807V45.5568C184.218 45.5188 183.68 45.4827 183.12 45.4465C183.074 44.8969 183.033 44.3924 182.989 43.8609C182.648 43.8301 182.324 43.7831 181.998 43.7741C180.709 43.7415 179.422 43.6963 178.132 43.6982C173.621 43.7054 169.109 43.7307 164.597 43.7506C164.168 43.7524 163.738 43.7596 163.308 43.7795C162.871 43.7994 162.434 43.841 162.001 43.8717C161.962 44.4159 161.928 44.9077 161.893 45.4176C161.301 45.4682 160.752 45.5152 160.16 45.5676V47.128C159.806 47.1985 159.5 47.2581 159.148 47.3287L159.15 47.3268ZM217.752 50.9194C217.849 50.5505 217.855 45.9491 217.758 45.5423C217.23 45.4989 216.693 45.4537 216.106 45.4049C216.076 44.886 216.046 44.3816 216.015 43.8428C215.886 43.8157 215.764 43.7741 215.642 43.7669C215.014 43.7343 214.385 43.6909 213.755 43.6855C212.351 43.6728 210.947 43.6783 209.542 43.6765C204.442 43.6728 199.341 43.6692 194.242 43.6728C193.92 43.6728 193.599 43.7235 193.275 43.7506C193.217 44.3418 193.165 44.8716 193.116 45.3905C192.566 45.4357 192.072 45.4754 191.586 45.5152C191.48 46.0793 191.616 46.6163 191.439 47.1225C191.096 47.2111 190.767 47.2961 190.443 47.3793V72.1962C190.79 72.254 191.121 72.3101 191.46 72.3679C191.499 72.9519 191.536 73.5016 191.577 74.0892H193.286V75.7797H216.04C216.083 75.221 216.123 74.6894 216.166 74.1344C216.735 74.0946 217.271 74.0584 217.814 74.0205C217.855 73.4365 217.892 72.8904 217.929 72.3318C218.474 72.2974 218.967 72.2667 219.507 72.2323C219.526 71.6556 219.563 71.1331 219.56 70.6087C219.535 66.6437 219.505 62.6769 219.47 58.712C219.468 58.4679 219.418 58.222 219.388 57.9453C218.868 57.9074 218.375 57.8712 217.842 57.8332V56.235C217.673 56.2006 217.538 56.1572 217.4 56.1482C216.886 56.1138 216.371 56.0722 215.856 56.0686C212.561 56.0415 209.267 55.9746 205.975 56.1446C205.812 56.1536 205.652 56.2024 205.503 56.2313C205.459 56.79 205.418 57.2945 205.377 57.8224C204.801 57.8748 204.263 57.9236 203.718 57.9725V61.5885H205.409C205.446 62.2141 205.48 62.8035 205.515 63.3857C206.062 63.4725 206.564 63.3531 207.045 63.4616C207.128 64.1523 207.098 66.3255 206.999 66.6564C205.427 66.8101 203.849 66.801 202.288 66.5859C202.189 66.0832 202.208 53.0456 202.305 52.7057H212.652C213.239 52.7057 213.826 52.7057 214.413 52.7057C214.979 52.7057 215.547 52.6985 216.152 52.6949V51.0478C216.716 51.0007 217.239 50.9592 217.754 50.9158L217.752 50.9194ZM249.053 50.9754V45.4772H247.346V43.7976C247.203 43.7813 247.093 43.7614 246.982 43.7578C246.181 43.7307 245.378 43.6819 244.576 43.6837C238.917 43.7018 233.257 43.7271 227.598 43.7596C226.71 43.765 225.822 43.8157 224.934 43.8482C224.812 43.8536 224.69 43.8789 224.565 43.8952C224.529 44.4431 224.496 44.9511 224.46 45.5062H222.826V53.937C223.028 54.0129 223.214 54.0834 223.431 54.1648V74.0584C223.817 74.0964 224.165 74.1289 224.552 74.1669V75.7652H249.1C249.129 75.2047 249.154 74.6713 249.182 74.0946H250.765V68.5548H249.104V66.7161H240.777C239.845 66.7161 238.915 66.7179 237.983 66.7161C237.074 66.7124 236.163 66.7305 235.228 66.7034C235.233 65.5716 235.196 64.4958 235.302 63.3911H245.655V61.6482H247.307V57.996C246.727 57.9417 246.179 57.8911 245.592 57.8387V56.1138H235.24C235.228 54.9784 235.208 53.8755 235.245 52.7292C236.092 52.7292 236.892 52.7292 237.689 52.7292H242.546C243.363 52.7292 244.18 52.7292 244.996 52.7292C245.791 52.7292 246.586 52.731 247.415 52.7274V50.9754H249.053ZM7.34849 45.4411C7.3308 45.5658 7.30958 45.649 7.30604 45.734C7.28128 46.4066 7.23884 47.0791 7.2406 47.7517C7.26006 55.8028 7.28659 63.8522 7.31312 71.9033C7.31312 72.2396 7.31312 72.5777 7.32726 72.914C7.34495 73.2882 7.38386 73.6625 7.41393 74.0494C7.96042 74.0964 8.46977 74.1398 9.03572 74.1886V75.7055C9.73785 75.7996 17.5373 75.7652 17.8433 75.6712C17.8857 75.174 17.93 74.6732 17.9724 74.176C18.5649 74.1253 19.1025 74.0783 19.6791 74.0295C19.6791 73.827 19.6791 73.6552 19.6791 73.4817C19.6826 70.9794 19.6862 68.4753 19.695 65.973C19.695 65.7451 19.7339 65.5191 19.7569 65.2733C20.3618 65.2534 20.9189 65.219 21.4742 65.2172C24.7408 65.21 28.0074 65.21 31.274 65.2064C31.4402 65.2064 31.6065 65.1937 31.8063 65.1847C31.8063 64.8194 31.801 64.4994 31.8063 64.1812C31.8187 63.6081 31.9584 63.467 32.5208 63.4273C32.8303 63.4056 33.1398 63.3712 33.4652 63.3405C33.5289 62.7981 33.5873 62.2936 33.6474 61.7838C34.1656 61.7042 34.6555 61.6265 35.156 61.5505C35.1843 61.3625 35.2215 61.2052 35.2285 61.0479C35.2604 60.3464 35.3046 59.6449 35.3081 58.9434C35.3276 55.2261 35.4089 51.5088 35.2497 47.7933C35.2285 47.3106 35.2303 47.3178 34.7705 47.2726C34.392 47.2364 34.0153 47.1768 33.6386 47.128C33.5855 46.5711 33.536 46.0667 33.4865 45.5387C32.9276 45.4917 32.3917 45.4465 31.8151 45.3959V43.973C31.0493 43.7922 30.3118 43.7054 29.5708 43.7036C23.0376 43.6891 16.5045 43.6837 9.96954 43.6819C9.64412 43.6819 9.32047 43.7397 8.94552 43.7741V45.4465H7.34672L7.34849 45.4411ZM122.255 59.9414C122.844 59.8763 123.391 59.8148 123.959 59.7516C123.959 59.2978 123.959 58.9054 123.959 58.5113C123.959 54.5011 123.96 50.4909 123.959 46.4807C123.959 45.6996 123.748 45.4881 122.995 45.4863C122.756 45.4863 122.517 45.4863 122.241 45.4863C122.201 44.8824 122.162 44.3346 122.123 43.7596H113.23V45.4429H111.492V49.878C111.492 50.6102 111.492 51.3425 111.492 52.0729C111.492 52.7979 111.487 53.5229 111.485 54.2516H108.425C108.413 54.1539 108.399 54.0834 108.399 54.0129C108.379 53.004 108.354 51.9952 108.344 50.9845C108.328 49.5362 108.326 48.0862 108.307 46.638C108.301 46.2619 108.25 45.8859 108.215 45.4519H106.611C106.584 45.0035 106.57 44.6112 106.536 44.2225C106.492 43.7253 106.435 43.6692 105.963 43.6692C103.455 43.6674 100.949 43.6656 98.4414 43.6728C98.1903 43.6728 97.9391 43.7307 97.688 43.7632C97.6403 44.3436 97.5978 44.8752 97.5536 45.4103C97.1787 45.4664 96.8426 45.517 96.5172 45.5658C96.3969 46.2004 96.4412 59.4388 96.5597 59.795C96.9204 59.8402 97.2848 59.8854 97.6915 59.936C97.665 60.3084 97.6509 60.6429 97.6155 60.972C97.5766 61.3372 97.6898 61.5306 98.0453 61.5957C98.254 61.6337 98.4697 61.6301 98.6837 61.6265C98.8942 61.6247 99.1046 61.6012 99.3452 61.5849C99.3788 62.2159 99.4106 62.8053 99.4442 63.4399H102.836V74.1181C103.461 74.1615 104.043 74.1036 104.616 74.1543C104.672 74.7129 104.593 75.2246 104.665 75.7146C105.429 75.805 114.873 75.7688 115.194 75.6748C115.234 75.1487 115.277 74.6171 115.321 74.0458H116.99C116.997 73.874 117.01 73.7438 117.01 73.6155C117.01 72.8398 117.005 72.0642 117.012 71.2885C117.033 68.7429 117.058 66.1972 117.084 63.6515C117.084 63.5683 117.107 63.4869 117.125 63.3567H120.524V61.6898C120.957 61.6518 121.341 61.6138 121.725 61.5867C122.126 61.5596 122.128 61.5596 122.156 61.16C122.185 60.7677 122.22 60.3753 122.257 59.9414H122.255ZM38.4827 65.8084C38.5411 68.5783 38.4615 71.3084 38.5376 74.0421C39.1583 74.0892 39.7243 74.1308 40.315 74.176V75.7598H59.6262C59.674 75.1975 59.7199 74.6641 59.7677 74.0892H61.2851V66.7251H59.7642C59.7129 66.1357 59.6651 65.5878 59.6156 65.0147H52.7464C52.665 58.5058 52.7588 52.0295 52.6845 45.5369C52.0743 45.4989 51.5084 45.4646 50.9035 45.4284V43.7813H40.2283V45.4103C39.8339 45.4447 39.4802 45.4736 39.0858 45.508V65.6294C38.8701 65.6945 38.695 65.747 38.4827 65.8102V65.8084Z" fill="#030202"/>
<path d="M120.994 8.77081C124.158 8.77985 127.321 8.78889 130.485 8.79612C134.436 8.80516 138.387 8.8142 142.338 8.82144C142.495 8.82144 142.651 8.80697 142.808 8.79974C142.799 10.6783 142.791 12.555 142.782 14.4335C142.57 14.4498 142.357 14.4823 142.143 14.4823C135.226 14.4643 128.308 14.4408 121.391 14.4191C121.247 14.4191 121.106 14.4046 120.963 14.3974C120.973 12.5225 120.986 10.6475 120.996 8.77262L120.994 8.77081Z" fill="#050404"/>
<path d="M120.994 8.77081C120.984 10.6457 120.971 12.5206 120.961 14.3956C120.045 14.3956 119.13 14.3883 118.214 14.3956C117.307 14.4028 116.398 14.3558 115.459 14.4191C115.459 15.0935 115.459 15.7208 115.459 16.3464C115.459 16.9756 115.459 17.603 115.455 18.2322C115.454 18.8541 115.448 19.4761 115.443 20.1161H110.065C110.054 19.9263 110.031 19.7383 110.031 19.5484C110.035 15.9342 110.042 12.32 110.047 8.70572L110.04 8.71476C110.24 8.71476 110.44 8.71295 110.641 8.71476C114.086 8.7238 117.533 8.73465 120.979 8.74369L120.993 8.77081H120.994Z" fill="white"/>
<path d="M110.049 8.70753C110.043 12.3218 110.036 15.936 110.033 19.5502C110.033 19.7401 110.054 19.9281 110.066 20.1179C110.058 20.2789 110.04 20.438 110.038 20.5989C110.029 22.1502 110.026 23.6996 110.012 25.2509C110.012 25.4173 109.964 25.5836 109.937 25.7517C109.453 25.7517 108.968 25.759 108.483 25.7445C108.017 25.73 107.55 25.6848 107.083 25.6704C106.98 25.6668 106.874 25.7282 106.771 25.759C106.085 25.759 105.397 25.7554 104.711 25.7535C104.665 25.7246 104.619 25.6939 104.571 25.665C104.564 25.504 104.55 25.3449 104.55 25.184C104.557 21.6421 104.563 18.102 104.573 14.5601C104.578 12.7611 104.593 10.9603 104.605 9.16134C104.605 9.03297 104.617 8.9046 104.628 8.7238C104.803 8.7238 104.955 8.7238 105.109 8.7238C106.598 8.72742 108.089 8.73103 109.578 8.73284C109.736 8.73284 109.891 8.71838 110.049 8.71115V8.70753Z" fill="#030202"/>
<path d="M159.129 31.5898C159.12 33.651 159.109 35.7121 159.101 37.7715C159.097 38.4422 159.101 39.113 159.101 39.8254H158.085C158.023 40.4039 157.965 40.95 157.903 41.5267H155.832C155.767 40.9807 155.701 40.4202 155.631 39.8217H153.678C153.671 39.6518 153.659 39.5252 153.659 39.3969C153.66 38.3301 153.667 37.2634 153.667 36.1967C153.667 36.052 153.651 35.9074 153.643 35.7627C153.646 34.7973 153.65 33.8318 153.652 32.8645L153.641 32.8338C153.648 32.7307 153.655 32.6276 153.662 32.5246C153.657 32.2281 153.65 31.9334 153.644 31.6368C153.508 31.6151 153.374 31.5772 153.238 31.5754C151.563 31.5609 149.888 31.5501 148.213 31.5392L148.22 31.5464C148.21 31.3873 148.188 31.23 148.188 31.0709C148.188 29.3569 148.192 27.6429 148.194 25.9271C148.323 25.9199 148.45 25.9036 148.579 25.9036C150.27 25.9072 151.961 25.9145 153.65 25.9199C153.659 26.079 153.674 26.2399 153.674 26.399C153.683 27.9919 153.69 29.5865 153.701 31.1794C153.701 31.3042 153.717 31.4289 153.728 31.5681C154.729 31.5681 155.687 31.5645 156.646 31.5681C157.475 31.5718 158.305 31.5844 159.134 31.5935L159.129 31.5862V31.5898Z" fill="white"/>
<path d="M99.0375 37.1188L99.0357 37.1115C99.0357 36.41 99.0322 35.7085 99.0339 35.0088C99.0392 32.116 99.0445 29.2231 99.0498 26.3303C99.0498 26.1712 99.0498 26.0121 99.0498 25.7969C99.2408 25.7879 99.4071 25.7734 99.5716 25.7734C101.231 25.7662 102.889 25.7626 104.548 25.759L104.543 25.7535C104.543 26.0302 104.547 26.3068 104.547 26.5852C104.54 29.9319 104.534 33.2767 104.525 36.6234C104.525 36.7915 104.517 36.9597 104.509 37.1622C104.271 37.1622 104.087 37.1622 103.901 37.1622C103.015 37.1603 102.127 37.1549 101.241 37.1567C100.555 37.1567 99.8687 37.1676 99.1825 37.173C99.1347 37.1567 99.0852 37.1405 99.0375 37.1242V37.1188Z" fill="#050404"/>
<path d="M148.231 8.84133C149.876 8.85037 151.52 8.8594 153.165 8.86844C153.333 8.86844 153.503 8.86844 153.733 8.86844C153.733 9.07637 153.733 9.24632 153.733 9.41627C153.728 12.734 153.72 16.0517 153.715 19.3712C153.715 19.6189 153.724 19.8684 153.729 20.1161C153.6 20.1487 153.473 20.2047 153.342 20.2083C152.702 20.2228 152.06 20.2246 151.42 20.23C150.369 20.221 149.318 20.212 148.218 20.2029C148.218 19.9697 148.218 19.7835 148.218 19.5972C148.222 18.1544 148.227 16.7098 148.225 15.267C148.225 15.0049 148.204 14.7445 148.194 14.4823C148.201 14.3956 148.215 14.3088 148.215 14.222C148.22 12.4284 148.224 10.6331 148.229 8.83952L148.231 8.84133Z" fill="#050404"/>
<path d="M120.98 8.74369C117.535 8.73465 114.088 8.7238 110.643 8.71476C110.443 8.71476 110.243 8.71476 110.042 8.71476V3.17137C110.411 3.06832 120.322 3.0647 120.98 3.16233V8.74369Z" fill="#050404"/>
<path d="M159.134 31.5971C158.305 31.588 157.475 31.5754 156.646 31.5718C155.687 31.5681 154.729 31.5718 153.728 31.5718C153.717 31.4325 153.703 31.3078 153.701 31.183C153.692 29.5902 153.685 27.9955 153.674 26.4026C153.674 26.2435 153.659 26.0826 153.65 25.9235C153.66 25.8674 153.678 25.8114 153.678 25.7535C153.692 23.9365 153.705 22.1176 153.717 20.3006C155.514 20.3024 157.309 20.3042 159.106 20.3078C159.116 20.4814 159.138 20.6549 159.136 20.8303C159.132 24.2457 159.125 27.661 159.12 31.0745C159.12 31.2499 159.129 31.4235 159.132 31.5989L159.134 31.5971Z" fill="#050404"/>
<path d="M148.231 8.84133C148.227 10.6349 148.222 12.4302 148.217 14.2238C148.217 14.3106 148.202 14.3974 148.195 14.4842C146.531 14.4805 144.867 14.4787 143.203 14.4715C143.063 14.4715 142.921 14.4462 142.782 14.4317C142.791 12.5532 142.799 10.6765 142.808 8.79793L142.799 8.80516C144.039 8.80697 145.281 8.80516 146.521 8.8124C147.09 8.8142 147.66 8.82686 148.231 8.8359V8.84313V8.84133Z" fill="white"/>
<path d="M148.229 8.8359C147.66 8.82867 147.09 8.81601 146.519 8.8124C145.279 8.80697 144.037 8.80697 142.798 8.80516L142.798 3.21296H148.201C148.303 3.62519 148.316 6.85793 148.229 8.83409V8.8359Z" fill="#050404"/>
<path d="M159.106 20.306C157.309 20.3042 155.514 20.3024 153.717 20.3006C153.089 20.2969 152.459 20.2987 151.832 20.2897C151.694 20.2879 151.557 20.2535 151.42 20.2337C152.06 20.2282 152.702 20.2264 153.342 20.212C153.471 20.2083 153.6 20.1523 153.729 20.1198C155.342 20.1252 156.953 20.1288 158.566 20.1342C158.763 20.1342 158.973 20.1017 159.106 20.3078L159.106 20.306Z" fill="#CA5B23"/>
<path d="M98.9985 37.0808C98.9773 37.1314 98.9561 37.1838 98.9331 37.2345C98.8075 37.22 98.682 37.1947 98.5564 37.1929C97.9286 37.1857 97.3007 37.1784 96.6729 37.182C95.7178 37.1857 94.7628 37.1983 93.806 37.2074C93.7671 37.1965 93.7281 37.1838 93.6892 37.173C93.7635 37.0175 93.9015 36.9976 94.05 36.9994C95.3163 37.003 96.5844 36.9994 97.8507 37.0085C98.2327 37.0121 98.6165 37.0555 98.9985 37.0808Z" fill="#CA5B23"/>
<path d="M104.573 25.6613C104.619 25.6903 104.665 25.721 104.713 25.7499C104.656 25.7499 104.6 25.7499 104.543 25.7499L104.548 25.7554C104.557 25.7228 104.566 25.6921 104.575 25.6595L104.573 25.6613Z" fill="#050404"/>
<path d="M104.541 25.7517C104.598 25.7517 104.654 25.7517 104.711 25.7517C105.397 25.7517 106.085 25.7554 106.771 25.7572C107.815 25.7644 108.858 25.7698 109.902 25.7752C109.912 25.7752 109.925 25.759 109.935 25.7499C109.96 25.5836 110.008 25.4173 110.01 25.2491C110.022 23.6978 110.026 22.1484 110.036 20.5971C110.036 20.4362 110.054 20.2771 110.065 20.1161C111.837 20.1161 113.609 20.1161 115.443 20.1161C115.446 19.4761 115.452 18.8541 115.455 18.2322C115.457 17.603 115.459 16.9756 115.459 16.3464C115.459 15.719 115.459 15.0935 115.459 14.4191C116.398 14.3558 117.307 14.401 118.214 14.3956C119.13 14.3883 120.045 14.3956 120.961 14.3956C121.104 14.4028 121.246 14.4173 121.389 14.4173C128.306 14.4408 135.225 14.4625 142.142 14.4805C142.354 14.4805 142.566 14.448 142.78 14.4317C142.92 14.4462 143.061 14.4715 143.201 14.4715C144.865 14.4769 146.529 14.4805 148.194 14.4842C148.204 14.7463 148.225 15.0067 148.225 15.2688C148.225 16.7116 148.22 18.1562 148.218 19.599C148.218 19.7853 148.218 19.9715 148.218 20.2047C149.318 20.2138 150.369 20.2228 151.42 20.2319C151.557 20.2517 151.694 20.2861 151.832 20.2879C152.459 20.2969 153.087 20.2969 153.717 20.2987C153.705 22.1158 153.692 23.9347 153.678 25.7517C153.678 25.8078 153.659 25.8656 153.65 25.9217C151.959 25.9163 150.268 25.909 148.579 25.9054C148.45 25.9054 148.323 25.9199 148.194 25.9289C148.123 25.9217 148.052 25.909 147.98 25.909C146.307 25.9018 144.632 25.8946 142.959 25.891C142.906 25.891 142.851 25.9145 142.775 25.9325C142.759 27.8038 142.741 29.6643 142.753 31.5482H148.22L148.213 31.541C148.213 31.6025 148.213 31.6622 148.213 31.7236C148.211 32.8066 148.21 33.8878 148.208 34.9708C148.202 35.6742 148.195 36.3793 148.19 37.0826C148.169 37.1459 148.148 37.2092 148.128 37.2743C146.567 37.2724 145.005 37.2688 143.443 37.2688C143.201 37.2688 142.957 37.2923 142.715 37.3068C142.515 37.2959 142.315 37.2761 142.117 37.2743C138.854 37.267 135.591 37.2616 132.329 37.2544C131.811 37.2544 131.79 37.2291 131.79 36.7174C131.79 34.9925 131.79 33.2677 131.79 31.5428C131.875 31.5338 131.96 31.5175 132.045 31.5175C133.52 31.5211 134.995 31.5266 136.471 31.5302C136.724 31.5302 136.977 31.5211 137.216 31.5157C137.322 31.0058 137.312 26.182 137.207 25.8512C137.075 25.8512 136.931 25.8512 136.79 25.8512C135.286 25.8494 133.781 25.8458 132.278 25.8458C132.121 25.8458 131.963 25.8602 131.808 25.8693C130.048 25.862 128.288 25.853 126.53 25.8476C126.491 25.8476 126.454 25.8783 126.364 25.9145V31.4578C126.221 31.4633 126.079 31.4741 125.936 31.4741C124.449 31.4741 122.959 31.4705 121.472 31.4705C121.306 31.4705 121.14 31.4795 120.966 31.485C120.956 31.6387 120.943 31.7381 120.941 31.8393C120.927 33.3599 120.913 34.8786 120.903 36.3992C120.897 37.2507 120.901 37.2417 120.077 37.229C118.718 37.2092 117.358 37.2001 116 37.1929C115.823 37.1929 115.645 37.2309 115.459 37.2526V39.7964C115.374 39.8019 115.287 39.8127 115.202 39.8127C109.815 39.8145 104.43 39.8163 99.0428 39.8163C99.0357 38.9539 99.0286 38.0897 99.0233 37.2272C99.0781 37.2074 99.133 37.1875 99.1878 37.1676C99.874 37.1622 100.56 37.1531 101.246 37.1513C102.132 37.1513 103.02 37.1549 103.906 37.1567C104.09 37.1567 104.276 37.1567 104.515 37.1567C104.52 36.956 104.531 36.7879 104.531 36.6179C104.538 33.2713 104.545 29.9265 104.552 26.5798C104.552 26.3032 104.55 26.0266 104.548 25.7481L104.541 25.7517Z" fill="#FEB444"/>
<path d="M127.234 74.1235V64.1595C127.71 63.9733 127.745 63.5574 127.743 63.0946C127.736 57.3867 127.738 51.6806 127.736 45.9726C127.736 45.828 127.736 45.6852 127.736 45.4971H128.858C128.902 44.8969 128.944 44.3346 128.992 43.7144C136.574 43.6638 144.144 43.6783 151.759 43.6963V45.4122C152.337 45.4555 152.873 45.4953 153.452 45.5387V47.2401H155.16V72.2757H153.565C153.528 72.8706 153.494 73.4347 153.455 74.0494H151.869C151.828 74.5448 151.794 74.9914 151.754 75.4398C151.722 75.7833 151.72 75.7887 151.377 75.8249C151.165 75.8484 150.949 75.8646 150.735 75.8646C143.645 75.8556 136.555 75.8447 129.464 75.8303C129.3 75.8303 129.134 75.8032 128.93 75.7869V74.1235H127.234ZM142.761 66.7016V52.7292C141.719 52.7473 140.709 52.6786 139.715 52.8323V66.7034H142.761V66.7016ZM130.584 68.515C130.61 67.6363 130.651 66.8046 130.656 65.973C130.67 63.1778 130.685 60.3826 130.67 57.5874C130.656 54.5589 130.614 51.5287 130.578 48.5003C130.575 48.1567 130.538 47.8132 130.517 47.4624C130.064 47.4444 129.669 47.3901 129.263 47.5257V68.5168H130.584V68.515ZM130.985 47.1641H146.22V45.7701C144.699 45.6779 131.342 45.7231 130.985 45.8244V47.1641ZM130.614 72.0678V70.5671H129.309V72.0678H130.614ZM149.738 47.1569V45.7557H148.42V47.1569H149.738Z" fill="#CA5EFE"/>
<path d="M64.7127 47.307C65.2539 47.2545 65.7491 47.2057 66.285 47.1533C66.3221 46.6308 66.3557 46.1245 66.3946 45.5694C66.9376 45.5188 67.4858 45.4682 68.0818 45.414V43.9603C68.287 43.9205 68.4479 43.8663 68.6124 43.8591C69.7425 43.8157 70.8727 43.756 72.0028 43.747C76.4862 43.7144 80.9695 43.6945 85.4529 43.6837C86.5406 43.6819 87.6283 43.7361 88.716 43.7705C88.8698 43.7759 89.0237 43.8157 89.22 43.8464V45.4122C89.7842 45.4628 90.3042 45.5098 90.8772 45.5604V47.2383C91.4679 47.278 92.0055 47.316 92.5379 47.3522C92.6263 47.6921 92.6387 73.5811 92.5467 74.0747H91.0717C91.0063 74.6406 90.9444 75.1685 90.8807 75.729C90.6278 75.7616 90.4032 75.8104 90.1804 75.814C88.4047 75.8466 86.6308 75.8827 84.8551 75.8918C84.1265 75.8954 83.396 75.8375 82.6674 75.7995C82.4693 75.7887 82.273 75.7471 82.0537 75.7182C82.0112 75.2101 81.9688 74.7202 81.9246 74.1958C81.3657 74.1398 80.8281 74.0873 80.2303 74.0295C80.2267 73.4455 80.2232 72.8669 80.2214 72.2884C80.2214 71.7026 80.2214 71.1168 80.2214 70.5328V65.3076C80.2214 64.7254 80.2214 64.1414 80.2214 63.5285H77.1246C77.0079 67.0433 77.068 70.549 77.045 74.109H75.3702C75.3207 74.6912 75.2747 75.2228 75.2305 75.7417C74.2029 76.0075 67.1604 75.955 66.4088 75.6784C66.3734 75.1957 66.3362 74.7021 66.2991 74.1994C65.9277 74.1452 65.5917 74.0964 65.2185 74.0421C65.2026 73.9065 65.176 73.7818 65.176 73.657C65.1725 72.6482 65.1743 71.6375 65.1743 70.6286C65.1743 68.2728 65.1743 65.9151 65.1743 63.5593C65.1743 63.4001 65.1743 63.2392 65.1743 63.0566C64.6632 62.9048 64.5482 62.516 64.55 62.0351C64.5623 57.967 64.5641 53.8972 64.58 49.8291C64.5836 49.0698 64.6331 48.3086 64.6649 47.5492C64.6685 47.4787 64.6897 47.41 64.7074 47.3106L64.7127 47.307ZM68.0783 66.7233C68.0854 66.5714 68.096 66.4702 68.096 66.3689C68.096 60.9268 68.096 55.4828 68.0924 50.0407C68.0924 49.8942 68.0889 49.7478 68.0677 49.6031C68.0412 49.4169 67.9439 49.2542 67.7529 49.2307C67.3903 49.1855 67.0171 49.1168 66.6847 49.3265C66.5945 50.2016 66.6351 66.3924 66.7306 66.7233H68.0783ZM83.6136 47.2184C83.6649 46.7067 83.6437 46.2529 83.633 45.7882H70.1546C70.1599 46.2836 70.1334 46.7555 70.1688 47.2184H83.6136ZM80.1418 56.1265C80.2232 55.5714 80.2055 53.1306 80.1189 52.7997C79.1444 52.7473 78.1628 52.7093 77.1759 52.7997V56.1283H80.1418V56.1265ZM87.1649 47.1732C87.202 46.6778 87.2003 46.2077 87.1684 45.7304H85.8349V47.1732H87.1649ZM68.0235 68.7971C67.5566 68.7627 67.1409 68.7663 66.697 68.7899C66.7129 69.3304 66.6705 69.8186 66.7253 70.3429C67.0861 70.3429 67.4098 70.3592 67.7317 70.3357C67.9138 70.323 68.0341 70.211 68.0252 69.985C68.0111 69.6071 68.0217 69.2292 68.0217 68.7971H68.0235ZM69.6347 47.6035H68.4957V48.9866C68.7963 48.9866 69.0669 49.0191 69.3287 48.9794C69.6683 48.9269 69.8204 48.7082 69.7832 48.3574C69.7567 48.1007 69.6842 47.8512 69.6347 47.6035Z" fill="#B6FF5C"/>
<path d="M159.15 47.3268C159.502 47.2581 159.808 47.1967 160.162 47.1262V45.5658C160.752 45.5152 161.302 45.4682 161.895 45.4158C161.93 44.9059 161.966 44.4141 162.003 43.8699C162.436 43.8392 162.873 43.7976 163.31 43.7777C163.74 43.7578 164.169 43.7506 164.599 43.7488C169.111 43.7289 173.622 43.7036 178.134 43.6963C179.423 43.6945 180.711 43.7379 182 43.7723C182.326 43.7813 182.649 43.8283 182.991 43.8591C183.035 44.3924 183.076 44.8969 183.121 45.4447C183.682 45.4809 184.22 45.517 184.809 45.555V47.2581H186.385C186.413 47.5257 186.454 47.7535 186.457 47.9813C186.501 50.6301 186.558 53.277 186.577 55.9258C186.607 59.9938 186.62 64.0619 186.623 68.1299C186.623 69.3883 186.574 70.6467 186.545 71.9033C186.544 72.0045 186.53 72.104 186.515 72.2649C185.976 72.2902 185.444 72.3155 184.871 72.3426C184.844 72.9248 184.819 73.4726 184.793 74.053C184.222 74.0928 183.682 74.1307 183.102 74.1723C183.068 74.6768 183.035 75.1685 182.999 75.711C182.764 75.7399 182.531 75.7887 182.294 75.7959C176.652 75.9876 171.008 75.9135 165.365 75.8737C164.251 75.8664 163.136 75.7887 161.971 75.7417C161.955 75.2011 161.941 74.7003 161.927 74.185C161.35 74.1344 160.813 74.0855 160.229 74.0331C160.197 73.5214 160.167 73.0297 160.132 72.4873C159.82 72.4167 159.493 72.3408 159.152 72.2631V47.325L159.15 47.3268ZM174.061 66.745V52.8449H170.97C170.858 53.494 170.895 66.3743 171.003 66.745H174.061ZM160.533 49.2144C160.457 55.0995 160.37 60.8997 160.561 66.7179H161.934C161.943 66.5642 161.955 66.4358 161.955 66.3074C161.957 60.8653 161.957 55.4213 161.959 49.9792C161.959 49.8617 161.964 49.7442 161.944 49.6285C161.9 49.3627 161.783 49.2379 161.516 49.2198C161.207 49.2 160.896 49.2144 160.535 49.2144H160.533ZM164.061 47.1388C164.21 47.1533 164.32 47.1713 164.431 47.175C165.303 47.1967 166.177 47.2346 167.049 47.231C169.91 47.2202 172.773 47.193 175.635 47.1732C175.907 47.1714 176.18 47.1695 176.45 47.1551C176.804 47.1352 177.156 47.1008 177.517 47.0719V45.7991C176.836 45.7105 164.371 45.743 164.06 45.8334V47.1406L164.061 47.1388ZM179.703 47.2039H181.01V45.7647H179.703V47.2039ZM161.897 68.8206H160.613C160.597 69.3359 160.593 69.8204 160.613 70.3086H161.898V68.8206H161.897ZM162.259 47.5709V48.9956H163.584V47.5709H162.259Z" fill="#B6FF5C"/>
<path d="M217.752 50.9194C217.238 50.961 216.714 51.0044 216.15 51.0514V52.6985C215.543 52.7021 214.977 52.7075 214.411 52.7093C213.824 52.7093 213.237 52.7093 212.65 52.7093H202.304C202.206 53.0474 202.187 66.0851 202.286 66.5895C203.848 66.8046 205.425 66.8137 206.997 66.66C207.098 66.3309 207.127 64.1577 207.043 63.4652C206.562 63.3568 206.06 63.4761 205.514 63.3893C205.48 62.8071 205.445 62.2177 205.407 61.5921H203.717V57.9761C204.261 57.9273 204.799 57.8785 205.376 57.826C205.418 57.2999 205.457 56.7936 205.501 56.235C205.65 56.206 205.811 56.1554 205.973 56.1482C209.267 55.9782 212.561 56.0451 215.855 56.0722C216.369 56.0759 216.884 56.1192 217.399 56.1518C217.536 56.1608 217.671 56.2042 217.841 56.2386V57.8369C218.371 57.8748 218.865 57.911 219.386 57.949C219.416 58.2256 219.466 58.4697 219.468 58.7156C219.503 62.6806 219.533 66.6473 219.558 70.6123C219.562 71.1349 219.524 71.6592 219.505 72.2359C218.965 72.2703 218.472 72.301 217.927 72.3354C217.888 72.8941 217.851 73.4401 217.812 74.0241C217.269 74.062 216.732 74.0982 216.164 74.138C216.122 74.693 216.081 75.2246 216.038 75.7833H193.284V74.0928H191.575C191.536 73.5052 191.499 72.9555 191.459 72.3715C191.119 72.3137 190.788 72.2594 190.442 72.1998V47.3829C190.767 47.2997 191.094 47.2147 191.437 47.1262C191.614 46.6199 191.478 46.0829 191.584 45.5188C192.071 45.4791 192.564 45.4393 193.114 45.3941C193.165 44.8752 193.217 44.3454 193.273 43.7542C193.597 43.7271 193.919 43.6765 194.241 43.6765C199.341 43.6746 204.442 43.6765 209.541 43.6801C210.945 43.6801 212.349 43.6746 213.753 43.6891C214.383 43.6945 215.011 43.7379 215.641 43.7705C215.764 43.7777 215.886 43.8193 216.014 43.8464C216.046 44.3834 216.074 44.8896 216.104 45.4085C216.691 45.4573 217.229 45.5026 217.756 45.5459C217.853 45.9509 217.85 50.5524 217.75 50.923L217.752 50.9194ZM193.158 66.6763C193.19 66.0145 193.243 65.4034 193.245 64.7905C193.256 60.6917 193.261 56.5929 193.255 52.4942C193.255 51.5142 193.204 50.5343 193.174 49.5543C193.171 49.4422 193.142 49.3301 193.128 49.2253H191.835C191.816 49.3283 191.798 49.3826 191.796 49.4404C191.77 50.1998 191.722 50.961 191.726 51.7203C191.747 56.5206 191.781 61.3209 191.814 66.1212C191.814 66.3038 191.853 66.4864 191.876 66.7016C192.205 66.7016 192.49 66.7034 192.774 66.7016C192.886 66.7016 192.999 66.6871 193.16 66.6745L193.158 66.6763ZM210.634 45.7539C210.029 45.6544 195.648 45.6815 195.353 45.7719V47.1388H210.51C210.552 46.6705 210.593 46.224 210.635 45.7539H210.634ZM193.225 70.3429C193.225 69.777 193.261 69.278 193.202 68.7591H191.857C191.717 69.2111 191.667 69.6342 191.798 70.0717C191.849 70.2435 191.927 70.352 192.124 70.3466C192.465 70.3375 192.806 70.3447 193.225 70.3447V70.3429ZM214.081 47.0882C214.047 46.6344 214.121 46.1878 214.031 45.7249C213.573 45.7051 213.14 45.696 212.701 45.7249V47.1081C213.258 47.3341 213.605 47.3323 214.079 47.0864L214.081 47.0882ZM193.551 48.8329C193.832 48.9685 194.122 49.0192 194.419 48.9956C194.734 48.9703 194.918 48.7913 194.952 48.4713C194.987 48.1531 194.93 47.8439 194.789 47.5384C194.37 47.542 193.965 47.5113 193.551 47.5583V48.8329Z" fill="#68C8FE"/>
<path d="M249.053 50.9754H247.42V52.7274C246.593 52.7328 245.797 52.7292 245.001 52.7292C244.184 52.7292 243.367 52.7292 242.551 52.7292H237.695C236.897 52.7292 236.098 52.7292 235.251 52.7292C235.214 53.8755 235.233 54.9784 235.245 56.1138H245.597V57.8387C246.184 57.8929 246.732 57.9435 247.312 57.996V61.6482H245.661V63.3911H235.307C235.201 64.4958 235.238 65.5698 235.233 66.7034C236.17 66.7305 237.079 66.7124 237.988 66.716C238.92 66.7197 239.851 66.716 240.783 66.716H249.109V68.5548H250.77V74.0946H249.187C249.159 74.6713 249.132 75.2029 249.106 75.7652H224.558V74.1669C224.17 74.1289 223.82 74.0946 223.436 74.0584V54.1648C223.219 54.0834 223.033 54.0129 222.832 53.937V45.5062H224.466C224.501 44.9511 224.535 44.443 224.57 43.8952C224.696 43.8789 224.816 43.8536 224.94 43.8482C225.828 43.8157 226.715 43.765 227.603 43.7596C233.263 43.7271 238.922 43.7018 244.582 43.6837C245.383 43.6819 246.186 43.7307 246.987 43.7578C247.098 43.7614 247.208 43.7813 247.351 43.7976V45.4772H249.058V50.9754H249.053ZM224.92 47.4914C224.89 48.2128 224.848 48.8835 224.837 49.5543C224.754 55.4955 224.728 61.4366 224.835 67.376C224.843 67.752 224.88 68.1263 224.904 68.5024H226.192V47.4914H224.92ZM241.84 47.2256V45.6689C236.745 45.6996 231.696 45.6128 226.631 45.7774V47.1714C231.705 47.2256 236.754 47.2599 241.84 47.2256ZM226.217 70.5671H224.844V72.0497H226.217V70.5671ZM245.365 47.1659C245.365 46.6579 245.379 46.186 245.358 45.7267H243.989V47.1659H245.365Z" fill="#FFED8E"/>
<path d="M7.34849 45.4411H8.94729V43.7687C9.32223 43.7343 9.64588 43.6765 9.9713 43.6765C16.5045 43.6765 23.0376 43.6837 29.5726 43.6982C30.3136 43.6982 31.0511 43.7867 31.8169 43.9675V45.3905C32.3935 45.4393 32.9294 45.4845 33.4882 45.5333C33.5395 46.0612 33.5873 46.5657 33.6403 47.1225C34.017 47.1714 34.3938 47.231 34.7722 47.2672C35.2321 47.3124 35.2303 47.3051 35.2515 47.7879C35.4107 51.5034 35.3293 55.2225 35.3099 58.938C35.3063 59.6395 35.2621 60.341 35.2303 61.0425C35.2232 61.2016 35.1861 61.3589 35.1578 61.5451C34.6573 61.6229 34.1674 61.6988 33.6492 61.7784C33.589 62.2882 33.5307 62.7908 33.467 63.3351C33.1416 63.3658 32.8339 63.4001 32.5226 63.4218C31.9602 63.4616 31.8205 63.6008 31.8081 64.1758C31.801 64.4958 31.8081 64.814 31.8081 65.1792C31.6082 65.1883 31.442 65.2009 31.2757 65.2009C28.0091 65.2045 24.7426 65.2045 21.476 65.2118C20.9206 65.2118 20.3635 65.2479 19.7587 65.2678C19.7357 65.5137 19.6968 65.7397 19.6968 65.9675C19.6879 68.4698 19.6862 70.9739 19.6809 73.4762C19.6809 73.648 19.6809 73.8216 19.6809 74.0241C19.1043 74.0729 18.5666 74.1199 17.9742 74.1705C17.9317 74.6677 17.8875 75.1685 17.8451 75.6658C17.5409 75.7598 9.73962 75.7941 9.03749 75.7001V74.1832C8.47331 74.1344 7.96396 74.091 7.41569 74.044C7.38563 73.657 7.34672 73.2846 7.32903 72.9085C7.31312 72.5722 7.31488 72.2359 7.31488 71.8978C7.29012 63.8467 7.2636 55.7974 7.24237 47.7463C7.24237 47.0737 7.28305 46.4011 7.30781 45.7286C7.31135 45.6454 7.3308 45.5604 7.35026 45.4357L7.34849 45.4411ZM9.27802 47.448C9.27802 53.7544 9.27802 60.0119 9.27802 66.2695C9.27802 66.3997 9.29217 66.5316 9.30101 66.6618C9.30101 66.6745 9.31339 66.6871 9.324 66.6962C9.33285 66.707 9.34522 66.7161 9.3576 66.7251H10.7318C10.7424 66.5859 10.7566 66.472 10.7566 66.3581C10.7742 60.4061 10.7919 54.4559 10.8043 48.5039C10.8043 48.2562 10.7689 48.0085 10.7513 47.7608C10.7371 47.5673 10.6522 47.3992 10.4612 47.3739C10.081 47.325 9.69541 47.307 9.27625 47.4462L9.27802 47.448ZM26.3042 45.7647C25.664 45.6725 11.2889 45.7014 10.9263 45.8063C10.9511 46.233 10.9759 46.676 11.0024 47.1026C11.5772 47.193 25.9841 47.1695 26.3042 47.0828V45.7647ZM19.7693 56.0596C20.8287 55.9764 21.835 56.2982 22.8431 56.0361V52.8232H19.7693V56.0596ZM29.7247 47.2871V45.7484H28.4088V47.2166C28.8457 47.2401 29.2648 47.2636 29.7247 47.2871ZM10.7035 68.8097H9.38767V70.2724H10.7035V68.8097Z" fill="#CA5EFE"/>
<path d="M122.255 59.9414C122.22 60.3753 122.183 60.7677 122.155 61.16C122.126 61.5596 122.125 61.5596 121.723 61.5867C121.339 61.612 120.957 61.6518 120.522 61.6898V63.3567H117.123C117.104 63.4869 117.082 63.5701 117.082 63.6514C117.058 66.1971 117.031 68.7428 117.01 71.2885C117.003 72.0642 117.01 72.8398 117.008 73.6155C117.008 73.7438 116.997 73.874 116.989 74.0458H115.319C115.275 74.6171 115.232 75.1487 115.192 75.6748C114.873 75.7688 105.427 75.805 104.663 75.7146C104.589 75.2246 104.67 74.7129 104.614 74.1542C104.041 74.1036 103.459 74.1615 102.835 74.1181V63.4399H99.4425C99.4089 62.8053 99.377 62.2159 99.3434 61.5849C99.1029 61.6012 98.8924 61.6247 98.682 61.6265C98.4697 61.6283 98.2522 61.6337 98.0435 61.5957C97.6863 61.5306 97.5748 61.3354 97.6137 60.972C97.6491 60.6411 97.6633 60.3084 97.6898 59.936C97.2813 59.8853 96.9187 59.8401 96.5579 59.7949C96.4394 59.4388 96.3952 46.2023 96.5154 45.5658C96.8409 45.517 97.1751 45.4664 97.5518 45.4103C97.5961 44.8752 97.6385 44.3436 97.6863 43.7632C97.9374 43.7325 98.1885 43.6746 98.4397 43.6728C100.948 43.6656 103.454 43.6674 105.961 43.6692C106.434 43.6692 106.49 43.7253 106.535 44.2225C106.568 44.6112 106.582 45.0017 106.609 45.4519H108.213C108.248 45.8859 108.3 46.2619 108.305 46.638C108.324 48.0862 108.326 49.5362 108.342 50.9845C108.353 51.9933 108.377 53.0022 108.397 54.0129C108.397 54.0834 108.413 54.1539 108.423 54.2516H111.483C111.485 53.5247 111.488 52.7979 111.49 52.0729C111.49 51.3407 111.49 50.6084 111.49 49.878V45.4429H113.229V43.7596H122.121C122.16 44.3346 122.197 44.8842 122.24 45.4863C122.514 45.4863 122.754 45.4863 122.993 45.4863C123.746 45.4863 123.957 45.6996 123.957 46.4807C123.957 50.4909 123.957 54.5011 123.957 58.5113C123.957 58.9054 123.957 59.2996 123.957 59.7516C123.391 59.8148 122.844 59.8763 122.254 59.9414H122.255ZM99.3116 54.2877C99.4018 53.5754 99.3717 47.6903 99.2709 47.354C98.8429 47.3919 98.4096 47.4299 97.9834 47.4661C97.8914 48.1097 97.9215 53.9695 98.0152 54.2877H99.3116ZM113.586 47.4624V54.2823H114.992V47.4624H113.586ZM104.525 47.0249V45.7285H99.6529V47.0773C100.244 47.2581 103.705 47.2202 104.525 47.0249ZM120.131 45.8027C119.843 45.6924 115.874 45.6653 115.383 45.7738V47.128H120.131V45.8027ZM98.017 56.4248V57.8423H99.278V56.3344C98.8394 56.3235 98.4291 56.2657 98.017 56.4248Z" fill="#68C8FE"/>
<path d="M38.4827 65.8084C38.695 65.7452 38.8718 65.6927 39.0858 65.6276V45.5062C39.4802 45.4718 39.8322 45.4429 40.2283 45.4085V43.7795H50.9035V45.4266C51.5084 45.4628 52.0726 45.4971 52.6845 45.5351C52.7588 52.0277 52.665 58.504 52.7464 65.0129H59.6156C59.6651 65.586 59.7129 66.1339 59.7642 66.7233H61.2852V74.0873H59.7677C59.7182 74.6623 59.674 75.1957 59.6262 75.758H40.315V74.1741C39.7243 74.1289 39.1601 74.0873 38.5376 74.0403C38.4615 71.3066 38.5411 68.5765 38.4827 65.8066L38.4827 65.8084ZM40.6829 47.4661C40.4229 48.4786 40.4582 65.5824 40.7218 66.6889C41.1621 66.7649 41.6326 66.754 41.9315 66.6618V47.4661H40.6829ZM42.3064 47.1478H47.1877C47.2107 46.6832 47.2319 46.2493 47.2549 45.7683C45.5872 45.6382 43.9547 45.6165 42.3047 45.819V47.1478H42.3064ZM40.6192 68.8097V70.267H41.981V68.8097H40.6192Z" fill="#FFED8E"/>
<path d="M131.79 31.541C131.79 33.2659 131.788 34.9907 131.79 36.7156C131.79 37.2272 131.811 37.2507 132.329 37.2526C135.592 37.2598 138.855 37.2652 142.117 37.2724C142.317 37.2724 142.516 37.2941 142.715 37.3032C142.72 37.3448 142.725 37.3864 142.73 37.4279C142.723 38.2144 142.715 39.0009 142.707 39.7874C142.55 39.7928 142.393 39.8037 142.237 39.8037C134.469 39.8055 126.7 39.8073 118.932 39.8073C117.774 39.8073 116.615 39.8001 115.457 39.7964V37.2526C115.643 37.2309 115.821 37.1929 115.998 37.1929C117.356 37.2001 118.717 37.2092 120.075 37.2291C120.899 37.2417 120.895 37.2507 120.901 36.3992C120.911 34.8786 120.926 33.3599 120.94 31.8393C120.94 31.7381 120.954 31.6368 120.964 31.485C121.138 31.4795 121.304 31.4705 121.47 31.4705C122.958 31.4705 124.447 31.4741 125.934 31.4741C126.077 31.4741 126.219 31.4633 126.362 31.4578C126.917 31.4705 127.471 31.4886 128.026 31.4976C129.28 31.5139 130.534 31.5266 131.788 31.5392L131.79 31.541Z" fill="white"/>
<path d="M115.455 39.7982C116.614 39.8019 117.772 39.8091 118.931 39.8091C126.698 39.8091 134.468 39.8073 142.235 39.8055C142.393 39.8055 142.55 39.7946 142.706 39.7892C142.646 39.8218 142.589 39.8778 142.527 39.885C142.4 39.9013 142.271 39.8905 142.142 39.8905C127.954 39.8905 113.766 39.8905 99.5786 39.8886C99.3982 39.8886 99.2196 39.8434 99.0392 39.8199C104.426 39.8199 109.812 39.8181 115.199 39.8163C115.284 39.8163 115.37 39.8055 115.455 39.8V39.7982Z" fill="#050404"/>
<path d="M153.652 32.8645C153.648 33.83 153.644 34.7955 153.643 35.7627C153.498 35.7519 153.457 35.6597 153.459 35.5259C153.46 34.7159 153.46 33.9041 153.459 33.0941C153.459 32.9567 153.51 32.8735 153.653 32.8663L153.652 32.8645Z" fill="#050404"/>
<path d="M148.213 31.7218C148.213 31.6603 148.213 31.6007 148.213 31.5392C149.888 31.5501 151.563 31.5591 153.238 31.5754C153.374 31.5754 153.508 31.6151 153.644 31.6368C152 31.6368 150.357 31.6332 148.712 31.6368C148.546 31.6368 148.379 31.6911 148.213 31.72V31.7218Z" fill="#050404"/>
<path d="M142.73 37.4279C142.725 37.3864 142.72 37.3448 142.715 37.3032C142.957 37.2905 143.201 37.267 143.443 37.267C145.005 37.267 146.567 37.2688 148.128 37.2724C147.978 37.2959 147.828 37.3411 147.675 37.3411C146.192 37.3466 144.71 37.3411 143.226 37.3484C143.059 37.3484 142.895 37.4008 142.729 37.4297L142.73 37.4279Z" fill="#050404"/>
<path d="M93.806 37.2074C94.761 37.1983 95.716 37.1857 96.6729 37.182C97.3007 37.1784 97.9286 37.1857 98.5564 37.1929C98.682 37.1929 98.8075 37.22 98.9331 37.2345C98.1921 37.2417 97.4493 37.2507 96.7082 37.2526C95.8805 37.2562 95.0528 37.2562 94.2251 37.2526C94.0854 37.2526 93.9457 37.2236 93.806 37.2074Z" fill="#050404"/>
<path d="M148.19 37.0808C148.195 36.3775 148.202 35.6723 148.208 34.969C148.238 35.0739 148.287 35.1769 148.296 35.2836C148.332 35.741 148.358 36.1985 148.383 36.6559C148.392 36.8295 148.409 37.0121 148.19 37.0808Z" fill="#050404"/>
<path d="M99.1825 37.1694C99.1277 37.1893 99.0728 37.2092 99.018 37.2291C99.0233 37.1929 99.0304 37.1549 99.0357 37.1188C99.0834 37.135 99.133 37.1513 99.1807 37.1676L99.1825 37.1694Z" fill="#CA5B23"/>
<path d="M109.939 25.7481C109.928 25.7572 109.916 25.7734 109.905 25.7734C108.862 25.768 107.818 25.7608 106.775 25.7554C106.879 25.7246 106.984 25.6631 107.086 25.6668C107.553 25.683 108.02 25.7282 108.487 25.7409C108.972 25.7554 109.456 25.7463 109.941 25.7481H109.939Z" fill="#050404"/>
<path d="M148.22 31.5464H142.753C142.741 29.6643 142.759 27.802 142.775 25.9307C142.851 25.9127 142.904 25.8891 142.959 25.8891C144.632 25.8928 146.307 25.9 147.98 25.9072C148.05 25.9072 148.121 25.9199 148.194 25.9271C148.192 27.6411 148.188 29.3551 148.188 31.0709C148.188 31.23 148.21 31.3873 148.22 31.5464Z" fill="#050404"/>
<path d="M131.806 25.8693C131.963 25.8602 132.121 25.8458 132.276 25.8458C133.78 25.8458 135.285 25.8494 136.788 25.8512C136.929 25.8512 137.071 25.8512 137.205 25.8512C137.31 26.1802 137.32 31.0058 137.214 31.5157C136.975 31.5211 136.723 31.5302 136.47 31.5302C134.995 31.5266 133.52 31.5211 132.043 31.5175C131.958 31.5175 131.873 31.5338 131.788 31.5428C131.793 29.6534 131.801 27.7623 131.806 25.8729V25.8693Z" fill="white"/>
<path d="M131.806 25.8693C131.801 27.7586 131.793 29.6498 131.788 31.5392C130.534 31.5247 129.28 31.5139 128.026 31.4976C127.471 31.4904 126.917 31.4723 126.362 31.4578C126.362 29.6046 126.362 27.7532 126.362 25.9145C126.452 25.8765 126.491 25.8458 126.528 25.8476C128.288 25.853 130.048 25.8602 131.806 25.8693Z" fill="#050404"/>
<path d="M142.761 66.7016L139.715 66.7016V52.8305C140.711 52.6768 141.721 52.7473 142.761 52.7274V66.7016Z" fill="#050404"/>
<path d="M130.584 68.515H129.263V47.5239C129.668 47.3883 130.064 47.4426 130.517 47.4606C130.538 47.8114 130.575 48.1549 130.578 48.4984C130.614 51.5269 130.656 54.5571 130.67 57.5856C130.683 60.3808 130.67 63.1759 130.656 65.9711C130.653 66.8028 130.61 67.6345 130.584 68.5132L130.584 68.515Z" fill="#050404"/>
<path d="M130.985 47.1641V45.8244C131.342 45.7231 144.697 45.6761 146.22 45.7701V47.1641H130.985Z" fill="#030202"/>
<path d="M130.614 72.0678H129.309V70.5671H130.614V72.0678Z" fill="#050404"/>
<path d="M149.738 47.1569H148.42V45.7557H149.738V47.1569Z" fill="#050404"/>
<path d="M68.0783 66.7233H66.7306C66.6351 66.3942 66.5945 50.2034 66.6847 49.3265C67.0189 49.115 67.3903 49.1837 67.7529 49.2307C67.9439 49.2542 68.0412 49.4169 68.0677 49.6031C68.0889 49.7478 68.0924 49.8942 68.0924 50.0407C68.0942 55.4828 68.096 60.9268 68.096 66.3689C68.096 66.4702 68.0854 66.5714 68.0783 66.7233Z" fill="#050404"/>
<path d="M83.6136 47.2184H70.1688C70.1334 46.7537 70.1582 46.2836 70.1546 45.7882H83.633C83.6437 46.2529 83.6666 46.7067 83.6136 47.2184Z" fill="#030202"/>
<path d="M80.1418 56.1265L77.1759 56.1265V52.7979C78.1628 52.7075 79.1444 52.7473 80.1189 52.7979C80.2055 53.1306 80.225 55.5696 80.1419 56.1247L80.1418 56.1265Z" fill="#050404"/>
<path d="M87.1649 47.1732H85.8349V45.7304H87.1684C87.2021 46.2095 87.202 46.6796 87.1649 47.1732Z" fill="#050404"/>
<path d="M68.0235 68.7971C68.0235 69.2292 68.0129 69.6071 68.027 69.985C68.0359 70.211 67.9156 70.323 67.7334 70.3357C67.4115 70.3592 67.0879 70.3429 66.7271 70.3429C66.6723 69.8186 66.713 69.3304 66.6988 68.7899C67.141 68.7663 67.5566 68.7627 68.0253 68.7971H68.0235Z" fill="#030202"/>
<path d="M69.6347 47.6035C69.6859 47.8494 69.7585 48.1007 69.7832 48.3574C69.8186 48.7082 69.6665 48.9269 69.3287 48.9794C69.0687 49.0191 68.7963 48.9866 68.4957 48.9866V47.6035H69.6347Z" fill="#050404"/>
<path d="M174.061 66.745H171.003C170.895 66.3743 170.858 53.494 170.97 52.8449H174.061V66.745Z" fill="#030202"/>
<path d="M160.533 49.2144C160.894 49.2144 161.205 49.1981 161.515 49.2198C161.782 49.2379 161.897 49.3627 161.943 49.6285C161.962 49.7424 161.957 49.8617 161.957 49.9792C161.957 55.4213 161.957 60.8653 161.953 66.3074C161.953 66.4358 161.941 66.5642 161.932 66.7179H160.56C160.369 60.8997 160.455 55.0995 160.531 49.2144H160.533Z" fill="#050404"/>
<path d="M164.061 47.1388L164.061 45.8316C164.373 45.7412 176.836 45.7087 177.519 45.7973V47.0701C177.158 47.099 176.806 47.1334 176.452 47.1533C176.182 47.1695 175.909 47.1695 175.637 47.1714C172.775 47.1931 169.912 47.2184 167.05 47.2292C166.178 47.2328 165.305 47.1949 164.433 47.1732C164.321 47.1695 164.21 47.1515 164.063 47.137L164.061 47.1388Z" fill="#030202"/>
<path d="M179.703 47.2039V45.7647H181.01V47.2039H179.703Z" fill="#050404"/>
<path d="M161.897 68.8206V70.3086H160.611C160.593 69.8204 160.595 69.3341 160.611 68.8206H161.897Z" fill="#050404"/>
<path d="M162.259 47.5709H163.584V48.9956H162.259V47.5709Z" fill="#050404"/>
<path d="M193.158 66.6763C192.997 66.6871 192.886 66.7016 192.773 66.7034C192.488 66.707 192.203 66.7034 191.874 66.7034C191.849 66.4864 191.812 66.3056 191.812 66.123C191.779 61.3227 191.747 56.5224 191.724 51.7221C191.72 50.9628 191.768 50.2016 191.795 49.4422C191.796 49.3862 191.814 49.3301 191.834 49.2271H193.126C193.142 49.3301 193.169 49.4422 193.172 49.5561C193.202 50.5361 193.252 51.516 193.254 52.496C193.259 56.5948 193.254 60.6935 193.243 64.7923C193.243 65.4034 193.188 66.0163 193.156 66.6781L193.158 66.6763Z" fill="#050404"/>
<path d="M210.634 45.7539C210.591 46.224 210.551 46.6705 210.508 47.1388H195.351V45.7719C195.647 45.6815 210.027 45.6544 210.632 45.7539L210.634 45.7539Z" fill="#050404"/>
<path d="M193.225 70.3429C192.806 70.3429 192.465 70.3357 192.124 70.3447C191.926 70.3502 191.849 70.2417 191.798 70.0699C191.667 69.6342 191.717 69.2093 191.857 68.7573H193.202C193.263 69.2762 193.225 69.7752 193.225 70.3411V70.3429Z" fill="#050404"/>
<path d="M214.081 47.0882C213.607 47.3341 213.26 47.3359 212.703 47.1099V45.7267C213.14 45.696 213.573 45.7051 214.033 45.7267C214.123 46.1896 214.049 46.6362 214.082 47.09L214.081 47.0882Z" fill="#050404"/>
<path d="M193.551 48.8329V47.5583C193.966 47.5113 194.371 47.542 194.789 47.5384C194.93 47.8439 194.987 48.1531 194.952 48.4713C194.916 48.7913 194.734 48.9703 194.419 48.9956C194.122 49.0192 193.832 48.9685 193.551 48.8329Z" fill="#050404"/>
<path d="M224.92 47.4914H226.192V68.5024H224.904C224.881 68.1263 224.843 67.752 224.835 67.376C224.728 61.4348 224.754 55.4937 224.837 49.5543C224.846 48.8835 224.89 48.211 224.92 47.4914Z" fill="#050404"/>
<path d="M241.84 47.2256C236.752 47.2599 231.705 47.2256 226.631 47.1714V45.7774C231.698 45.6128 236.745 45.6996 241.84 45.6689V47.2256Z" fill="#050404"/>
<path d="M226.217 70.5671V72.0497H224.844V70.5671H226.217Z" fill="#050404"/>
<path d="M245.365 47.1659H243.989V45.7267H245.358C245.379 46.1842 245.365 46.6561 245.365 47.1659Z" fill="#050404"/>
<path d="M9.27802 47.448C9.69717 47.3088 10.0827 47.3286 10.463 47.3757C10.654 47.3992 10.7389 47.5673 10.753 47.7626C10.7725 48.0103 10.8078 48.258 10.8061 48.5057C10.7919 54.4577 10.776 60.4079 10.7583 66.3599C10.7583 66.4738 10.7424 66.5877 10.7336 66.7269C10.2631 66.7269 9.81036 66.7269 9.35937 66.7269C9.34876 66.7179 9.33638 66.7088 9.32577 66.698C9.31693 66.6871 9.30455 66.6763 9.30278 66.6636C9.29394 66.5334 9.27979 66.4015 9.27979 66.2713C9.27979 60.0137 9.27979 53.7562 9.27979 47.4498L9.27802 47.448Z" fill="#030202"/>
<path d="M26.3042 45.7647V47.0828C25.9823 47.1695 11.5772 47.193 11.0024 47.1026C10.9776 46.6741 10.9529 46.233 10.9263 45.8063C11.2889 45.7014 25.664 45.6725 26.3042 45.7647Z" fill="#050404"/>
<path d="M19.7693 56.0596V52.8232H22.8431V56.0361C21.835 56.2982 20.8287 55.9782 19.7693 56.0596Z" fill="#030202"/>
<path d="M29.7247 47.2871C29.2648 47.2618 28.8457 47.2401 28.4088 47.2166V45.7484H29.7247V47.2871Z" fill="#050404"/>
<path d="M10.7035 68.8097V70.2724H9.38767V68.8097H10.7035Z" fill="#050404"/>
<path d="M99.3116 54.2877H98.017C97.9215 53.9695 97.8932 48.1097 97.9852 47.4661C98.4114 47.4281 98.8447 47.3901 99.2727 47.354C99.3717 47.6903 99.4036 53.5754 99.3134 54.2877H99.3116Z" fill="#050404"/>
<path d="M113.586 47.4624H114.992V54.2823H113.586V47.4624Z" fill="#050404"/>
<path d="M104.525 47.0249C103.705 47.2202 100.244 47.2581 99.6529 47.0773V45.7285H104.525V47.0249Z" fill="#050404"/>
<path d="M120.131 45.8027V47.128H115.383V45.7738C115.874 45.6653 119.843 45.6924 120.131 45.8027Z" fill="#050404"/>
<path d="M98.017 56.4248C98.4291 56.2639 98.8394 56.3217 99.278 56.3344V57.8423H98.017V56.4248Z" fill="#050404"/>
<path d="M40.6829 47.4661H41.9315V66.6618C41.6326 66.754 41.1621 66.7649 40.7218 66.6889C40.4582 65.5824 40.4246 48.4786 40.6829 47.4661Z" fill="#050404"/>
<path d="M42.3064 47.1478V45.8189C43.9565 45.6165 45.5889 45.6382 47.2567 45.7683C47.2337 46.2493 47.2125 46.6832 47.1895 47.1478H42.3064Z" fill="#050404"/>
<path d="M40.6192 68.8097H41.981V70.267H40.6192V68.8097Z" fill="#050404"/>
</svg>
