<svg width="410" height="144" viewBox="0 0 410 144" fill="none" xmlns="http://www.w3.org/2000/svg">
<path d="M0.222033 85.1756C0.252949 81.6972 0.261381 78.2159 0.317592 74.7375C0.365371 71.7852 0.432824 68.8328 0.573352 65.8832C0.618321 64.9358 0.792575 63.9489 1.14389 63.075C1.59639 61.9495 2.50701 61.1605 3.68744 60.6769C4.05843 59.5514 4.86506 58.7454 5.86843 58.112C5.96117 58.0526 6.07078 58.0073 6.17759 57.9819C7.16971 57.7443 8.14778 57.4785 9.19049 57.4785C24.7862 57.4841 40.382 57.47 55.9777 57.4587C56.1154 57.4587 56.2644 57.4219 56.3852 57.4672C57.4083 57.8489 58.4538 57.5973 59.4909 57.586C65.1822 57.5379 70.8736 57.4615 76.565 57.4446C79.887 57.4361 83.2119 57.487 86.534 57.5944C87.4474 57.6227 88.4142 57.8094 89.249 58.1742C90.3254 58.6464 91.118 59.5288 91.5508 60.6797C92.6975 61.0502 93.8527 62.1277 94.3726 63.4738C94.6986 63.42 94.9572 63.3833 95.1455 62.9761C95.6205 61.9438 96.6491 61.0643 97.6019 60.6882C98.2736 59.2799 99.1786 58.2336 100.736 57.8518C101.674 57.6227 102.61 57.5435 103.572 57.5435C116.801 57.552 130.027 57.5492 143.256 57.5492H144.111C144.204 57.1985 144.313 56.8761 144.375 56.5453C144.555 55.6177 145.123 54.9588 145.806 54.3649C146.921 53.3949 148.282 53.1828 149.679 53.1065C150.429 53.0669 151.182 53.1036 151.933 53.1008C152.107 53.1008 152.284 53.0838 152.478 53.0725C152.512 52.5607 152.565 52.0912 152.568 51.6218C152.576 48.0303 152.551 44.4416 152.593 40.8529C152.607 39.5181 152.866 38.2172 153.774 37.1483C154.344 36.4752 155.01 35.969 155.884 35.7371C156.93 35.46 157.978 35.3384 159.055 35.3836C159.757 35.4119 160.46 35.3893 161.177 35.3893C161.224 35.1913 161.292 35.0386 161.292 34.8859C161.32 32.4425 161.348 30.002 161.362 27.5587C161.373 25.613 161.373 23.6674 161.365 21.7217C161.359 20.0504 161.32 18.3819 161.328 16.7106C161.334 15.7067 161.323 14.6914 161.46 13.7016C161.621 12.5591 161.772 11.3771 162.638 10.4806C163.195 9.90369 163.793 9.42859 164.589 9.1769C165.924 8.75553 167.281 8.7923 168.644 8.80078C169.094 8.80078 169.544 8.80078 170.061 8.80078C170.075 7.69505 170.12 6.64587 170.094 5.60236C170.069 4.61823 170.336 3.69348 170.623 2.78853C170.78 2.29081 171.146 1.80723 171.533 1.44242C172.073 0.936219 172.672 0.489401 173.453 0.328207C174.392 0.135906 175.319 -0.00549208 176.286 0.000163842C181.41 0.0256155 186.53 0.0256155 191.654 0.0143037C192.584 0.0143037 193.47 0.243369 194.316 0.537477C194.867 0.729778 195.37 1.17942 195.786 1.61493C196.336 2.19183 196.677 2.896 196.873 3.70762C197.188 5 197.126 6.29238 197.095 7.59324C197.087 7.97785 197.095 8.36245 197.095 8.82623C197.357 8.83755 197.621 8.85451 197.882 8.85451C203.801 8.863 209.723 8.863 215.642 8.87714C217.553 8.88279 219.464 8.91956 221.376 8.93935C221.598 8.93935 221.823 8.93935 222.084 8.93935C222.098 8.71311 222.12 8.53495 222.12 8.35962C222.123 7.58193 222.163 6.80141 222.115 6.02372C222.05 4.97172 222.281 3.96779 222.593 2.99215C222.753 2.4916 223.099 2.00236 223.481 1.63473C223.998 1.13983 224.557 0.690187 225.313 0.509197C226.362 0.257508 227.401 0.113282 228.481 0.13025C230.712 0.164186 232.944 0.0991425 235.173 0.164186C236.468 0.200949 237.756 0.441326 238.776 1.37173C239.366 1.91187 239.844 2.52553 240.063 3.33716C240.369 4.474 240.499 5.61932 240.451 6.79576C240.423 7.49992 240.445 8.20408 240.445 8.9846C241.449 8.9846 242.399 9.01854 243.346 8.97612C244.394 8.93087 245.386 9.20235 246.347 9.51908C246.881 9.69442 247.384 10.1073 247.781 10.5287C248.323 11.1056 248.739 11.7758 248.899 12.6044C249.076 13.5263 249.147 14.4313 249.135 15.3701C249.093 19.1002 249.119 22.8303 249.119 26.6085C249.296 26.6254 249.467 26.6565 249.639 26.6594C250.094 26.6678 250.552 26.6905 251.004 26.6565C252.16 26.5689 253.289 26.7499 254.36 27.1203C255.87 27.6407 256.98 28.6191 257.396 30.2622C257.635 31.2011 257.716 32.1456 257.71 33.1128C257.688 36.4781 257.699 39.8433 257.696 43.2086C257.696 43.6384 257.696 44.0683 257.696 44.5773C258.419 44.5773 259.118 44.5971 259.816 44.5717C260.937 44.5293 262.033 44.6509 263.121 44.9478C264.405 45.2985 265.288 46.1723 265.791 47.312C266.148 48.1208 266.266 49.0851 266.291 49.9844C266.356 52.227 266.311 54.4724 266.308 56.7149C266.308 56.9384 266.308 57.1646 266.308 57.47C266.606 57.47 266.848 57.47 267.092 57.47C276.131 57.4757 285.17 57.4785 294.208 57.4841C294.551 57.4841 294.891 57.5039 295.231 57.4841C296.4 57.4276 297.544 57.552 298.674 57.8631C298.922 57.931 299.217 57.9394 299.464 57.8687C300.507 57.5775 301.563 57.5209 302.637 57.5209C318.095 57.5068 333.556 57.4813 349.014 57.47C349.396 57.47 349.778 57.5633 350.158 57.6114C350.425 57.6453 350.695 57.7047 350.964 57.6991C354.607 57.6227 358.247 57.4785 361.889 57.4672C372.794 57.4332 383.702 57.4446 394.607 57.4502C396.018 57.4502 397.434 57.4587 398.837 57.5831C400.051 57.6906 401.265 57.8857 402.263 58.7369C402.884 59.2686 403.288 59.936 403.71 60.6402C404.896 61.0134 405.781 61.8392 406.307 62.9591C406.639 63.6661 406.751 64.4947 406.858 65.2808C406.965 66.0698 406.965 66.8786 406.965 67.679C406.987 77.1809 406.998 86.6829 407.015 96.182C407.015 96.411 407.015 96.6401 407.015 96.8975C407.192 97.0332 407.367 97.1746 407.546 97.3075C408.401 97.9353 408.938 98.7441 409.205 99.8018C409.705 101.773 409.829 103.772 409.851 105.791C409.859 106.431 409.868 107.072 409.876 107.712C409.876 108.639 409.879 109.567 409.882 110.494C409.921 111.173 409.961 111.849 410 112.528V125.717C409.961 127.049 409.924 128.381 409.885 129.713C409.871 130.785 409.851 131.857 409.845 132.929C409.837 134.671 409.595 136.381 409.143 138.061C409.098 138.234 409.025 138.406 408.935 138.559C408.333 139.563 407.518 140.321 406.456 140.697C405.784 142.111 404.874 143.174 403.328 143.536C402.909 143.632 402.496 143.751 402.083 143.861C402.06 143.861 402.038 143.856 402.015 143.856C385.113 143.856 368.207 143.856 351.305 143.856C351.102 143.856 350.897 143.878 350.695 143.89C350.296 143.703 349.896 143.644 349.495 143.876C349.222 143.867 348.949 143.853 348.677 143.853C337.052 143.853 325.428 143.853 313.806 143.853C309.484 143.853 305.164 143.856 300.841 143.859C299.568 143.324 298.3 143.347 297.033 143.876C296.805 143.867 296.58 143.853 296.353 143.853C281.496 143.853 266.642 143.853 251.786 143.853C251.558 143.853 251.333 143.867 251.106 143.876C250.65 143.754 250.198 143.618 249.737 143.516C249.501 143.463 249.239 143.409 249.009 143.454C248.436 143.567 247.876 143.737 247.309 143.884C247.058 143.873 246.811 143.853 246.561 143.853C230.839 143.853 215.117 143.853 199.394 143.853C199.144 143.853 198.894 143.867 198.644 143.876C198.012 143.714 197.379 143.553 196.747 143.386C196.64 143.358 196.533 143.304 196.438 143.245C195.426 142.623 194.619 141.82 194.206 140.632C194.004 140.669 193.813 140.703 193.641 140.737C193.189 141.967 191.901 143.316 190.491 143.55C190.066 143.621 189.656 143.762 189.24 143.873C189.127 143.864 189.015 143.85 188.9 143.85C179.262 143.85 169.628 143.85 159.99 143.853C159.487 143.72 158.982 143.607 158.487 143.449C158.15 143.338 157.812 143.2 157.512 143.016C156.677 142.51 156.073 141.794 155.702 140.878C155.657 140.765 155.465 140.652 155.342 140.649C155.221 140.646 155.052 140.753 154.979 140.864C154.718 141.257 154.535 141.707 154.237 142.068C153.686 142.739 153.034 143.287 152.143 143.477C151.657 143.579 151.185 143.731 150.704 143.861C150.454 143.861 150.204 143.856 149.954 143.856C119.46 143.856 88.9679 143.856 58.4735 143.856C58.2458 143.856 58.0182 143.864 57.7905 143.867C57.2874 143.731 56.7759 143.618 56.2812 143.454C55.9215 143.335 55.5702 143.177 55.2413 142.985C54.3644 142.473 53.8304 141.658 53.4004 140.77C52.6584 140.595 52.0907 140.126 51.5764 139.619C51.2279 139.274 50.8737 138.845 50.7388 138.386C50.4746 137.496 50.2526 136.565 50.2133 135.641C50.1008 133.081 50.0952 130.519 50.0418 127.96C50.039 127.762 50.0137 127.564 49.9997 127.357H42.3578V128.064C42.3578 130.259 42.3381 132.456 42.3662 134.651C42.3803 135.711 42.3044 136.749 41.984 137.762C41.9025 138.022 41.8631 138.304 41.7282 138.534C41.1015 139.577 40.278 140.397 39.1088 140.72C38.4258 142.156 37.4843 143.222 35.8907 143.55C35.4916 143.632 35.1009 143.751 34.7047 143.853C34.5473 143.844 34.3871 143.83 34.2297 143.83C25.6912 143.83 17.15 143.83 8.61152 143.83C8.43165 143.83 8.24896 143.847 8.06909 143.853C7.566 143.72 7.05448 143.607 6.55982 143.449C6.21974 143.341 5.88248 143.2 5.57894 143.019C4.73577 142.515 4.13151 141.791 3.74365 140.884C3.71273 140.81 3.64809 140.737 3.57783 140.691C3.15906 140.425 2.67283 140.23 2.32713 139.891C1.8662 139.436 1.36031 138.924 1.1467 138.336C0.826301 137.448 0.618321 136.478 0.576162 135.533C0.432824 132.337 0.35975 129.136 0.30916 125.935C0.250139 122.256 0.244518 118.574 0.216412 114.895C0.233276 114.668 0.267002 114.442 0.267002 114.216C0.272623 104.785 0.275434 95.3534 0.275434 85.9221C0.275434 85.6733 0.247328 85.4216 0.230465 85.1727L0.222033 85.1756ZM226.926 13.7723L226.941 13.761C226.69 13.7723 226.443 13.795 226.193 13.795C219.914 13.7837 213.635 13.7723 207.357 13.7554C202.329 13.7441 197.303 13.7299 192.275 13.7158L192.253 13.6734V4.94344C191.207 4.79073 175.457 4.79639 174.87 4.95758V13.6281L174.881 13.614C174.631 13.6253 174.383 13.6479 174.133 13.6479C171.767 13.6479 169.397 13.6394 167.031 13.6338C166.786 13.6338 166.545 13.6338 166.266 13.6338C166.252 13.9166 166.233 14.1174 166.23 14.3181C166.21 17.132 166.188 19.9486 166.179 22.7624C166.162 28.3024 166.154 33.8396 166.143 39.3795C166.143 39.6312 166.165 39.8801 166.176 40.1318C166.162 40.1827 166.148 40.2308 166.134 40.2817C163.498 40.2901 160.862 40.2958 158.225 40.3043C157.964 40.3043 157.7 40.3269 157.396 40.341C157.396 40.6747 157.396 40.9264 157.396 41.1753C157.388 45.7 157.379 50.2248 157.371 54.7495C157.371 55.8468 157.371 56.944 157.374 58.0384C157.346 58.0356 157.326 58.0186 157.318 57.9903C156.711 57.9508 156.103 57.8829 155.494 57.8772C153.481 57.8603 151.466 57.8659 149.454 57.8631C149.218 57.8631 148.998 57.8914 148.88 58.1346C148.847 58.3778 148.782 58.621 148.779 58.8642C148.768 60.6967 148.771 62.5264 148.762 64.3589C148.762 64.5484 148.729 64.7379 148.703 64.9896C148.096 64.7068 148.254 64.1666 148.122 63.7735C147.973 63.3295 147.919 62.8544 147.829 62.4076H102.071C101.91 63.3126 101.75 64.2006 101.582 65.1564H99.3866C99.263 66.0868 99.1505 66.9437 99.0297 67.8713H96.4552C96.354 77.147 96.2529 86.3379 96.1517 95.5174C95.2439 95.6645 90.865 95.6277 90.3395 95.4609C90.3395 95.2318 90.3395 94.9829 90.3395 94.7341C90.331 91.0238 90.3142 87.3163 90.3198 83.606C90.3282 77.9501 90.2664 72.297 90.0078 66.6468C89.9853 66.1688 89.9348 65.6937 89.8954 65.1847C89.0494 65.1253 88.2428 65.0659 87.4053 65.0065C87.3097 64.1327 87.2198 63.3182 87.127 62.45C86.8544 62.4274 86.6099 62.3991 86.3654 62.3935C85.2046 62.3567 84.0438 62.2945 82.8831 62.3002C75.0979 62.3313 67.3098 62.3737 59.5246 62.4189C58.9653 62.4218 58.406 62.501 57.8439 62.5434C57.768 63.3465 57.7006 64.0733 57.6247 64.8623C57.1356 64.5597 57.0401 64.1638 56.9726 63.7537C56.9333 63.5275 56.9192 63.2984 56.8686 63.0779C56.7056 62.3567 56.6326 62.2945 55.9131 62.2917C53.704 62.2832 51.4949 62.2719 49.2886 62.2747C35.7867 62.3002 22.2848 62.3256 8.78296 62.3539C8.56374 62.3539 8.34452 62.3794 8.11124 62.3935C7.97634 63.3267 7.84986 64.2006 7.71496 65.1366H5.39906C5.37096 65.4449 5.33442 65.6881 5.3288 65.9341C5.24729 68.8158 5.13206 71.7003 5.09552 74.582C5.02807 79.9608 4.98029 85.3424 4.96905 90.7212C4.955 98.1616 4.96062 105.602 4.99997 113.045C5.03369 119.501 5.12082 125.958 5.19951 132.414C5.21357 133.556 5.28664 134.702 5.34004 135.844C5.34847 135.994 5.40469 136.138 5.45246 136.339H7.74025C7.86391 137.269 7.98196 138.14 8.09719 139H34.6484C34.7693 138.078 34.8817 137.204 35.0026 136.274H37.5742V122.589H54.7888C54.7888 123.78 54.7776 124.92 54.7916 126.059C54.8057 127.205 54.8507 128.347 54.8731 129.493C54.8956 130.638 54.9041 131.783 54.9209 132.926C54.9406 134.06 54.9265 135.197 54.994 136.398H57.605C57.6893 137.323 57.7708 138.174 57.8467 139.011H150.606C150.716 138.135 150.817 137.301 150.926 136.413C151.815 136.35 152.669 136.294 153.563 136.232C153.7 130.7 153.835 125.219 153.97 119.725H156.98C157.169 125.27 157.045 130.776 157.27 136.271C158.223 136.339 159.1 136.401 159.988 136.463C160.078 137.357 159.954 138.2 160.064 139.023H189.189C189.274 138.115 189.352 137.238 189.439 136.294H192.028C192.09 135.123 192.185 134.029 192.199 132.934C192.256 128.791 192.286 124.648 192.326 120.502C192.326 120.239 192.348 119.976 192.36 119.722H195.623C195.623 119.988 195.623 120.211 195.623 120.435C195.623 122.244 195.603 124.052 195.623 125.861C195.656 128.675 195.704 131.492 195.772 134.306C195.788 134.959 195.906 135.607 195.98 136.257C196.834 136.333 197.601 136.401 198.419 136.475C198.498 137.329 198.576 138.16 198.655 139.023H247.283C247.415 138.157 247.542 137.309 247.668 136.478H250.929C251.004 137.36 251.075 138.194 251.145 139.02H296.988C297.137 138.163 297.28 137.337 297.423 136.506H300.717C300.796 137.368 300.872 138.197 300.945 139.006C302.502 139.153 348.927 139.088 349.444 138.944C349.497 138.406 349.545 137.861 349.604 137.315C349.677 136.611 349.868 136.483 350.675 136.659V139.009H401.976C402.094 138.09 402.209 137.213 402.33 136.271H404.77C404.837 135.683 404.93 135.165 404.952 134.642C405.037 132.722 405.135 130.799 405.163 128.879C405.275 120.819 405.304 112.762 405.034 104.705C405.011 104.066 404.983 103.424 404.927 102.785C404.876 102.245 404.781 101.708 404.694 101.111H402.218C402.218 100.817 402.218 100.591 402.218 100.367C402.218 97.6667 402.215 94.9631 402.209 92.2624C402.198 83.9284 402.187 75.5944 402.167 67.2604C402.167 66.5619 402.1 65.8606 402.06 65.0914H399.536C399.427 64.1638 399.326 63.3097 399.224 62.4387C398.988 62.4161 398.811 62.3878 398.631 62.385C396.993 62.3426 395.354 62.2662 393.716 62.2691C380.807 62.303 367.898 62.3454 354.986 62.3991C353.713 62.4048 352.437 62.4783 351.164 62.5236C351.009 62.5292 350.858 62.566 350.652 62.5943C350.579 63.3493 350.506 64.0903 350.436 64.8114C349.725 64.916 349.618 64.8453 349.604 64.2515C349.59 63.6378 349.601 63.027 349.601 62.4303C348.46 62.1955 302.634 62.2068 300.939 62.4359C300.838 63.2702 300.737 64.1185 300.636 64.9585H297.426C297.291 64.0761 297.165 63.2277 297.027 62.3228H261.457V49.4556C261.142 49.4556 260.895 49.4556 260.65 49.4556C258.306 49.4499 255.959 49.4471 253.615 49.4386C253.368 49.4386 253.118 49.4103 252.871 49.3962L252.879 49.4075C252.871 49.1332 252.859 48.8617 252.859 48.5874C252.868 43.2454 252.879 37.9033 252.885 32.5641C252.885 32.2927 252.854 32.0212 252.837 31.7469C252.623 31.4216 252.292 31.4754 251.98 31.4754C249.417 31.4669 246.856 31.4584 244.293 31.4528C244.284 31.0653 244.27 30.6751 244.27 30.2876C244.279 25.0983 244.287 19.909 244.298 14.7169C244.298 14.451 244.298 14.1852 244.298 13.86C243.93 13.86 243.663 13.86 243.396 13.86C240.783 13.8459 238.169 13.8317 235.555 13.8176V13.8063C235.693 10.7125 235.673 5.65609 235.51 5.01414H226.924V13.761L226.926 13.7723Z" fill="white"/>
<path d="M402.077 143.867C402.493 143.76 402.906 143.641 403.322 143.542C404.868 143.18 405.781 142.119 406.45 140.703C407.513 140.326 408.328 139.569 408.929 138.565C409.022 138.412 409.092 138.239 409.137 138.067C409.587 136.387 409.829 134.676 409.84 132.934C409.845 131.862 409.865 130.791 409.879 129.719H409.938L409.994 129.707V143.994H402.071C402.074 143.952 402.077 143.907 402.074 143.864L402.077 143.867Z" fill="white"/>
<path d="M57.7905 143.997C57.7849 143.955 57.7821 143.915 57.7821 143.873C58.0097 143.867 58.2374 143.861 58.465 143.861C88.9595 143.861 119.451 143.861 149.946 143.861C150.196 143.861 150.446 143.864 150.696 143.867C150.696 143.91 150.696 143.955 150.693 143.997H57.7905Z" fill="#FFA4A4"/>
<path d="M0.207981 114.897C0.137717 114.889 0.0702637 114.88 0 114.872C0 104.98 0 95.0904 0 85.1982C0.0730743 85.1897 0.146149 85.184 0.222033 85.1756C0.238897 85.4244 0.267002 85.6761 0.267002 85.925C0.267002 95.3562 0.267002 104.787 0.258571 114.219C0.258571 114.445 0.224844 114.671 0.207981 114.897Z" fill="#FFA4A4"/>
<path d="M402.077 143.867C402.077 143.91 402.077 143.955 402.074 143.997H350.706C350.675 143.969 350.672 143.935 350.689 143.898C350.891 143.887 351.097 143.864 351.299 143.864C368.202 143.864 385.107 143.864 402.01 143.864C402.032 143.864 402.055 143.87 402.077 143.87V143.867Z" fill="#FFA4A4"/>
<path d="M300.833 143.867C305.155 143.867 309.475 143.861 313.798 143.861C325.422 143.861 337.047 143.861 348.668 143.861C348.941 143.861 349.213 143.876 349.486 143.884C349.495 143.924 349.492 143.96 349.472 143.997H300.836C300.833 143.955 300.83 143.91 300.833 143.867Z" fill="#FFA4A4"/>
<path d="M198.647 143.997C198.63 143.96 198.627 143.924 198.633 143.884C198.883 143.876 199.133 143.861 199.383 143.861C215.105 143.861 230.828 143.861 246.55 143.861C246.8 143.861 247.047 143.881 247.297 143.893C247.311 143.929 247.309 143.966 247.281 143.997H198.644H198.647Z" fill="#FFA4A4"/>
<path d="M251.094 143.884C251.322 143.876 251.547 143.861 251.775 143.861C266.631 143.861 281.485 143.861 296.341 143.861C296.569 143.861 296.794 143.876 297.022 143.884C297.03 143.924 297.027 143.96 297.01 143.997H251.106C251.089 143.96 251.083 143.924 251.094 143.884Z" fill="#FFA4A4"/>
<path d="M159.982 143.997C159.982 143.952 159.982 143.907 159.982 143.861C169.619 143.861 179.254 143.859 188.891 143.859C189.004 143.859 189.116 143.873 189.231 143.881C189.237 143.921 189.234 143.96 189.22 144H159.985L159.982 143.997Z" fill="#FFA4A4"/>
<path d="M8.06065 143.997C8.06065 143.952 8.06065 143.904 8.06065 143.859C8.24053 143.85 8.42321 143.836 8.60309 143.836C17.1415 143.836 25.6828 143.836 34.2212 143.836C34.3786 143.836 34.5388 143.85 34.6962 143.859C34.6962 143.907 34.6962 143.952 34.6962 144H8.06065V143.997Z" fill="#FFA4A4"/>
<path d="M251.094 143.884C251.083 143.924 251.089 143.96 251.106 143.997H247.281C247.306 143.966 247.311 143.932 247.297 143.893C247.862 143.745 248.424 143.576 248.998 143.463C249.228 143.417 249.49 143.471 249.726 143.525C250.187 143.63 250.639 143.762 251.094 143.884Z" fill="white"/>
<path d="M409.997 129.71L409.941 129.722H409.882C409.921 128.39 409.958 127.058 409.997 125.726V129.71Z" fill="#FFA4A4"/>
<path d="M409.879 110.506C409.879 109.578 409.876 108.65 409.874 107.723C409.913 107.734 409.955 107.737 409.994 107.731V110.48C409.955 110.489 409.916 110.497 409.876 110.508L409.879 110.506Z" fill="#FFA4A4"/>
<path d="M349.475 143.997C349.492 143.96 349.497 143.924 349.489 143.884C349.891 143.649 350.29 143.709 350.689 143.898C350.669 143.935 350.675 143.969 350.706 143.997H349.475Z" fill="white"/>
<path d="M409.879 110.506C409.919 110.494 409.958 110.486 409.997 110.477V112.539C409.958 111.86 409.919 111.184 409.879 110.506Z" fill="#CA5B23"/>
<path d="M157.323 57.9988C157.332 58.0271 157.351 58.0413 157.379 58.0469L157.382 58.0582C157.374 58.1148 157.363 58.1713 157.354 58.2307C157.365 59.5797 157.377 60.9314 157.385 62.2804C157.672 62.3171 157.956 62.3878 158.242 62.3878C180.789 62.3935 203.335 62.3935 225.881 62.3907C226.086 62.3907 226.291 62.4048 226.494 62.3822C226.592 62.3709 226.682 62.286 226.778 62.2323C226.789 61.0021 226.803 59.772 226.814 58.5418C227.078 58.4966 227.34 58.4145 227.604 58.4145C229.962 58.4032 232.317 58.4145 234.675 58.4032C234.914 58.4032 235.153 58.3325 235.395 58.2958C235.428 58.1968 235.462 58.0978 235.493 57.996C235.842 57.8914 235.813 57.6029 235.799 57.3314C235.76 56.616 235.718 55.9005 235.662 55.185C235.648 55.0182 235.569 54.857 235.521 54.693C235.524 52.999 235.527 51.3079 235.53 49.6139C235.794 49.5687 236.058 49.4838 236.322 49.4838C238.936 49.4754 241.547 49.481 244.161 49.4838C244.169 49.9476 244.18 50.4086 244.189 50.8724C244.178 51.0336 244.166 51.1948 244.155 51.356L244.172 51.404C243.947 51.4153 243.863 51.5454 243.863 51.7604C243.863 53.0273 243.863 54.297 243.863 55.564C243.863 55.7732 243.925 55.9175 244.155 55.9344C244.169 56.1607 244.194 56.3869 244.194 56.6131C244.194 58.2816 244.183 59.9501 244.18 61.6186C244.18 61.8194 244.197 62.0174 244.211 62.2832H247.314C247.427 63.2221 247.533 64.0988 247.635 64.95H250.926C251.024 64.0479 251.117 63.1938 251.215 62.2889H252.829C252.829 61.1746 252.826 60.1255 252.829 59.0763C252.843 55.8524 252.857 52.6285 252.873 49.4075C253.121 49.4216 253.371 49.4499 253.618 49.4499C255.962 49.4584 258.309 49.4612 260.653 49.4669C260.898 49.4669 261.145 49.4669 261.46 49.4669V62.3341H297.03C297.168 63.2391 297.297 64.0874 297.429 64.9698H300.639C300.74 64.1299 300.844 63.2815 300.942 62.4472C302.64 62.2182 348.466 62.2069 349.604 62.4416C349.604 63.0383 349.593 63.6491 349.607 64.2628C349.621 64.8538 349.728 64.9245 350.439 64.8227C350.509 64.1016 350.582 63.3607 350.655 62.6056C350.86 62.5773 351.015 62.5406 351.167 62.5349C352.44 62.4896 353.716 62.4161 354.989 62.4105C367.898 62.3596 380.807 62.3143 393.719 62.2804C395.357 62.2775 396.996 62.3511 398.634 62.3963C398.811 62.402 398.991 62.4274 399.227 62.4501C399.331 63.3211 399.43 64.1751 399.539 65.1027H402.063C402.102 65.8719 402.17 66.5732 402.17 67.2717C402.19 75.6057 402.201 83.9397 402.212 92.2737C402.215 94.9744 402.218 97.678 402.22 100.379C402.22 100.602 402.22 100.826 402.22 101.122H404.697C404.781 101.722 404.879 102.256 404.93 102.797C404.989 103.436 405.017 104.075 405.037 104.717C405.306 112.774 405.275 120.833 405.166 128.89C405.141 130.813 405.039 132.733 404.955 134.654C404.933 135.174 404.84 135.694 404.772 136.283H402.333C402.212 137.224 402.097 138.101 401.979 139.02H350.678V136.67C349.874 136.495 349.68 136.622 349.607 137.326C349.551 137.872 349.5 138.418 349.447 138.955C348.927 139.102 302.505 139.164 300.948 139.017C300.875 138.208 300.799 137.38 300.72 136.517H297.426C297.283 137.349 297.14 138.174 296.991 139.031H251.148C251.078 138.206 251.007 137.371 250.931 136.489H247.671C247.545 137.318 247.418 138.166 247.286 139.034H198.658C198.576 138.172 198.501 137.34 198.422 136.486C197.604 136.413 196.837 136.345 195.982 136.268C195.909 135.618 195.788 134.967 195.774 134.317C195.707 131.503 195.659 128.687 195.625 125.873C195.606 124.063 195.625 122.256 195.625 120.446C195.625 120.222 195.625 119.999 195.625 119.733H192.362C192.351 119.985 192.331 120.248 192.329 120.514C192.286 124.657 192.258 128.803 192.202 132.945C192.188 134.04 192.093 135.134 192.031 136.305H189.442C189.355 137.252 189.276 138.129 189.192 139.034H160.066C159.957 138.208 160.08 137.366 159.99 136.475C159.105 136.413 158.225 136.35 157.273 136.283C157.048 130.788 157.171 125.282 156.983 119.736H153.973C153.838 125.231 153.7 130.711 153.566 136.243C152.669 136.305 151.817 136.362 150.929 136.424C150.82 137.312 150.716 138.146 150.609 139.023H57.8523C57.7736 138.189 57.6949 137.334 57.6106 136.41H54.9996C54.9322 135.208 54.9462 134.071 54.9265 132.937C54.9069 131.792 54.9012 130.646 54.8788 129.504C54.8563 128.359 54.8113 127.216 54.7973 126.071C54.7832 124.931 54.7945 123.789 54.7945 122.601H37.5798V136.285H35.0082C34.8873 137.213 34.7749 138.09 34.6541 139.011H8.10281C7.98758 138.152 7.86954 137.281 7.74587 136.35H5.45809C5.41031 136.152 5.35409 136.005 5.34566 135.855C5.29226 134.713 5.21919 133.57 5.20514 132.425C5.12925 125.969 5.04212 119.513 5.00559 113.056C4.96624 105.616 4.96062 98.1757 4.97467 90.7325C4.98591 85.3509 5.03088 79.9721 5.10115 74.5933C5.13768 71.7088 5.25292 68.8271 5.33442 65.9454C5.34285 65.6994 5.37658 65.4562 5.40469 65.1479H7.72058C7.85548 64.2119 7.98196 63.3352 8.11686 62.4048C8.35014 62.3907 8.56936 62.3652 8.78859 62.3652C22.2905 62.3369 35.7923 62.3087 49.2942 62.286C51.5033 62.2832 53.7124 62.2945 55.9187 62.303C56.6382 62.3058 56.7141 62.368 56.8743 63.0892C56.9249 63.3126 56.9417 63.5416 56.9782 63.7651C57.0485 64.1751 57.1441 64.571 57.6303 64.8736C57.7034 64.0846 57.7736 63.3578 57.8495 62.5547C58.4116 62.5123 58.9709 62.4331 59.5302 62.4303C67.3154 62.3822 75.1035 62.3398 82.8887 62.3115C84.0495 62.3058 85.2102 62.368 86.371 62.4048C86.6155 62.4133 86.86 62.4416 87.1326 62.4614C87.2282 63.3295 87.3153 64.144 87.4109 65.0178C88.2484 65.0772 89.055 65.1366 89.901 65.196C89.9404 65.705 89.991 66.1801 90.0134 66.6581C90.272 72.3083 90.331 77.9614 90.3254 83.6174C90.3198 87.3276 90.3395 91.0351 90.3451 94.7454C90.3451 94.9942 90.3451 95.2431 90.3451 95.4722C90.8679 95.639 95.2495 95.6758 96.1573 95.5287C96.2585 86.3492 96.3597 77.1583 96.4608 67.8826H99.0353C99.159 66.955 99.2714 66.101 99.3922 65.1677H101.587C101.759 64.2119 101.916 63.3239 102.076 62.4189H147.835C147.928 62.8686 147.981 63.3437 148.127 63.7849C148.259 64.1779 148.102 64.7181 148.709 65.0009C148.734 64.7492 148.768 64.5597 148.768 64.3702C148.776 62.5377 148.774 60.708 148.785 58.8755C148.785 58.6323 148.849 58.3891 148.886 58.1459C148.948 58.1629 149.01 58.1827 149.071 58.1996C149.294 58.2251 149.516 58.2703 149.738 58.2703C151.053 58.276 152.368 58.2788 153.684 58.2703C154.861 58.2647 156.042 58.2505 157.219 58.242C157.253 58.1629 157.287 58.0809 157.323 58.0017V57.9988ZM202.194 115.938H204.889V118.54C205.212 118.568 205.474 118.608 205.738 118.608C217.005 118.628 228.273 118.647 239.54 118.661C239.88 118.661 240.223 118.636 240.56 118.599C241.106 118.54 241.109 118.534 241.159 117.997C241.224 117.298 241.277 116.597 241.342 115.822H243.863C243.922 114.861 243.978 113.978 244.037 113.048H246.572V73.8892H243.857V71.2281C242.938 71.1602 242.087 71.098 241.168 71.0301V68.3464C229.065 68.3181 217.033 68.2955 204.987 68.3746C204.914 69.3446 204.847 70.2213 204.774 71.163H202.992C202.992 71.4571 202.992 71.6805 202.992 71.9068C202.992 80.8346 202.992 89.7597 203.003 98.6876C203.003 99.4115 202.947 100.065 202.194 100.353V115.938ZM102.838 73.9938C102.807 74.1522 102.773 74.2596 102.771 74.3671C102.72 75.5548 102.641 76.7454 102.636 77.9331C102.61 84.2961 102.608 90.6618 102.588 97.0247C102.588 97.777 102.765 98.3821 103.58 98.6225C103.58 98.911 103.58 99.1598 103.58 99.4087C103.58 103.094 103.58 106.781 103.58 110.466C103.58 112.044 103.58 113.625 103.583 115.203C103.583 115.398 103.625 115.596 103.65 115.805C104.243 115.89 104.777 115.966 105.367 116.051C105.426 116.84 105.486 117.609 105.542 118.365C106.736 118.797 117.931 118.879 119.561 118.464C119.631 117.652 119.704 116.82 119.783 115.91H122.444C122.481 110.342 122.385 104.858 122.571 99.3606H127.492C127.492 100.319 127.492 101.233 127.492 102.143V110.316C127.492 111.232 127.492 112.149 127.492 113.062C127.492 113.967 127.501 114.872 127.506 115.785C128.456 115.879 129.311 115.961 130.199 116.046C130.269 116.863 130.334 117.632 130.404 118.427C130.75 118.475 131.064 118.537 131.379 118.554C132.537 118.613 133.698 118.704 134.856 118.698C137.678 118.684 140.497 118.628 143.318 118.577C143.675 118.571 144.029 118.495 144.431 118.444C144.535 117.567 144.631 116.741 144.735 115.856H147.079C147.225 115.081 147.202 74.5905 147.065 74.0588C146.219 74.0023 145.362 73.9457 144.426 73.8807V71.2563C143.515 71.1771 142.689 71.1036 141.792 71.0244V68.5754C141.48 68.5273 141.236 68.4651 140.991 68.4566C139.263 68.4029 137.534 68.3181 135.806 68.3209C128.681 68.335 121.556 68.369 114.431 68.4199C112.636 68.4312 110.84 68.5245 109.044 68.5952C108.782 68.6065 108.527 68.6914 108.201 68.7536V71.0273C107.253 71.1121 106.385 71.1913 105.519 71.2705C105.457 72.1387 105.401 72.9305 105.345 73.7478C104.493 73.8298 103.706 73.9061 102.846 73.9881L102.838 73.9938ZM252.913 74.0249V113.031C253.455 113.153 253.972 113.269 254.47 113.382C254.523 114.233 254.574 115.002 254.624 115.8C255.555 115.882 256.406 115.955 257.323 116.037C257.345 116.84 257.368 117.624 257.393 118.472C259.245 118.546 261.016 118.667 262.786 118.678C271.755 118.741 280.723 118.854 289.689 118.557C290.063 118.546 290.436 118.469 290.81 118.424C290.869 117.576 290.92 116.806 290.973 116.017C291.895 115.952 292.75 115.896 293.66 115.831C293.702 114.92 293.742 114.066 293.784 113.155C294.694 113.113 295.543 113.073 296.398 113.034C296.42 112.782 296.443 112.627 296.445 112.468C296.49 110.5 296.569 108.532 296.569 106.566C296.563 100.203 296.544 93.8404 296.496 87.4775C296.465 83.3346 296.375 79.1944 296.305 75.0514C296.299 74.6951 296.235 74.3388 296.19 73.9203H293.685V71.2563C292.75 71.1969 291.895 71.1404 291.004 71.0838C290.931 70.2241 290.866 69.4351 290.796 68.6037C290.254 68.5556 289.739 68.4821 289.222 68.468C287.173 68.4171 285.127 68.3464 283.078 68.3492C275.909 68.3605 268.739 68.4001 261.569 68.4312C260.886 68.434 260.203 68.4453 259.52 68.4764C258.826 68.5076 258.132 68.5726 257.443 68.6207C257.382 69.4719 257.328 70.2411 257.272 71.0386C256.33 71.1178 255.459 71.1913 254.518 71.2733V73.7138C253.956 73.8241 253.469 73.9174 252.91 74.0277L252.913 74.0249ZM346.04 79.6441C346.195 79.0672 346.203 71.87 346.049 71.2337C345.211 71.1658 344.357 71.0951 343.424 71.0188C343.376 70.2072 343.328 69.4182 343.28 68.5754C343.075 68.533 342.881 68.468 342.687 68.4566C341.69 68.4057 340.689 68.3379 339.689 68.3294C337.457 68.3096 335.225 68.3181 332.994 68.3153C324.888 68.3096 316.783 68.3039 308.68 68.3096C308.168 68.3096 307.657 68.3888 307.142 68.4312C307.05 69.3559 306.968 70.1845 306.889 70.9962C306.015 71.0669 305.231 71.1291 304.458 71.1913C304.29 72.0736 304.506 72.9135 304.225 73.7054C303.68 73.8439 303.157 73.9768 302.643 74.1069V112.924C303.194 113.014 303.719 113.102 304.259 113.192C304.321 114.106 304.38 114.965 304.444 115.884H307.159V118.529H343.32C343.387 117.655 343.452 116.823 343.519 115.955C344.424 115.893 345.276 115.836 346.139 115.777C346.203 114.864 346.262 114.009 346.321 113.136C347.187 113.082 347.971 113.034 348.828 112.98C348.859 112.078 348.918 111.261 348.913 110.441C348.873 104.239 348.826 98.0343 348.769 91.8326C348.767 91.4508 348.688 91.0662 348.64 90.6335C347.814 90.5741 347.03 90.5176 346.184 90.4582V87.9583C345.914 87.9045 345.7 87.8367 345.481 87.8225C344.663 87.7688 343.845 87.7038 343.027 87.6981C337.791 87.6557 332.555 87.5511 327.325 87.8169C327.066 87.831 326.811 87.9074 326.574 87.9526C326.504 88.8265 326.44 89.6155 326.375 90.4412C325.459 90.5232 324.604 90.5996 323.739 90.6759V96.3319H326.426C326.485 97.3103 326.538 98.2323 326.594 99.1429C327.463 99.2786 328.261 99.092 329.025 99.2616C329.157 100.342 329.11 103.741 328.952 104.259C326.454 104.499 323.947 104.485 321.465 104.148C321.308 103.362 321.338 82.9697 321.493 82.4381H337.935C338.868 82.4381 339.801 82.4381 340.734 82.4381C341.633 82.4381 342.536 82.4268 343.497 82.4211V79.8449C344.393 79.7713 345.225 79.7063 346.043 79.6384L346.04 79.6441ZM395.781 79.7317V71.1319H393.069V68.5047C392.842 68.4793 392.667 68.4482 392.49 68.4425C391.217 68.4001 389.941 68.3237 388.668 68.3266C379.674 68.3548 370.68 68.3944 361.687 68.4453C360.276 68.4538 358.865 68.533 357.454 68.5839C357.26 68.5924 357.066 68.632 356.867 68.6574C356.81 69.5143 356.757 70.309 356.701 71.1771H354.104V84.3639C354.424 84.4827 354.719 84.593 355.065 84.7203V115.836C355.678 115.896 356.231 115.947 356.847 116.006V118.506H395.857C395.902 117.629 395.942 116.795 395.987 115.893H398.502V107.228H395.863V104.352H382.631C381.15 104.352 379.671 104.355 378.19 104.352C376.746 104.346 375.298 104.375 373.811 104.332C373.82 102.562 373.761 100.879 373.929 99.1513H390.382V96.4252H393.007V90.7127C392.086 90.6279 391.214 90.5487 390.281 90.4667V87.7688H373.831C373.811 85.9928 373.78 84.2678 373.839 82.4749C375.186 82.4749 376.456 82.4749 377.724 82.4749H385.441C386.74 82.4749 388.038 82.4749 389.334 82.4749C390.599 82.4749 391.861 82.4777 393.179 82.472V79.7317H395.781ZM11.6778 71.0753C11.6497 71.2705 11.616 71.4006 11.6104 71.5335C11.571 72.5855 11.5036 73.6375 11.5064 74.6895C11.5373 87.2824 11.5795 99.8725 11.6216 112.465C11.6216 112.991 11.6216 113.52 11.6441 114.046C11.6722 114.632 11.734 115.217 11.7818 115.822C12.6503 115.896 13.4597 115.964 14.3591 116.04V118.413C15.4749 118.56 27.8694 118.506 28.3556 118.359C28.4231 117.581 28.4933 116.798 28.5608 116.02C29.5023 115.941 30.3567 115.867 31.273 115.791C31.273 115.474 31.273 115.206 31.273 114.934C31.2786 111.02 31.2842 107.104 31.2983 103.19C31.2983 102.833 31.3601 102.48 31.3966 102.095C32.3578 102.064 33.2432 102.01 34.1257 102.008C39.3168 101.996 44.5079 101.996 49.6989 101.991C49.9631 101.991 50.2273 101.971 50.5449 101.957C50.5449 101.385 50.5365 100.885 50.5449 100.387C50.5646 99.4907 50.7866 99.2701 51.6804 99.2079C52.1722 99.174 52.6641 99.1202 53.1812 99.0722C53.2824 98.2238 53.3751 97.4348 53.4707 96.6373C54.2942 96.5129 55.0727 96.3913 55.8681 96.2725C55.9131 95.9784 55.9721 95.7323 55.9833 95.4863C56.0339 94.3891 56.1042 93.2918 56.1098 92.1946C56.1407 86.3803 56.27 80.566 56.017 74.7545C55.9833 73.9995 55.9861 74.0108 55.2554 73.9401C54.6539 73.8835 54.0553 73.7902 53.4566 73.7138C53.3723 72.8428 53.2936 72.0538 53.2149 71.2281C52.3268 71.1545 51.4752 71.0838 50.559 71.0046V68.779C49.342 68.4962 48.17 68.3605 46.9924 68.3577C36.6102 68.335 26.228 68.3266 15.8431 68.3237C15.3259 68.3237 14.8116 68.4142 14.2158 68.468V71.0838H11.675L11.6778 71.0753ZM194.282 93.7556C195.218 93.6538 196.086 93.5576 196.989 93.4587C196.989 92.7488 196.989 92.1352 196.989 91.5187C196.989 85.2463 196.991 78.9738 196.989 72.7014C196.989 71.4797 196.654 71.1489 195.457 71.146C195.077 71.146 194.698 71.146 194.259 71.146C194.195 70.2015 194.133 69.3446 194.071 68.4453H179.94V71.0782H177.177V78.0152C177.177 79.1605 177.177 80.3058 177.177 81.4483C177.177 82.5823 177.169 83.7163 177.166 84.856H172.303C172.284 84.7033 172.261 84.593 172.261 84.4827C172.23 82.9047 172.191 81.3267 172.174 79.7459C172.149 77.4807 172.146 75.2126 172.115 72.9474C172.107 72.3592 172.025 71.771 171.969 71.0923H169.42C169.378 70.391 169.355 69.7773 169.302 69.1693C169.232 68.3916 169.142 68.3039 168.391 68.3039C164.406 68.3011 160.423 68.2983 156.438 68.3096C156.039 68.3096 155.64 68.4001 155.241 68.451C155.165 69.3588 155.097 70.1902 155.027 71.0273C154.431 71.1149 153.897 71.1941 153.38 71.2705C153.189 72.2631 153.259 92.9694 153.448 93.5265C154.021 93.5972 154.6 93.6679 155.246 93.7471C155.204 94.3297 155.182 94.8529 155.125 95.3675C155.064 95.9388 155.243 96.2414 155.808 96.3432C156.14 96.4026 156.483 96.3969 156.823 96.3913C157.157 96.3884 157.492 96.3517 157.874 96.3262C157.928 97.3132 157.978 98.2351 158.032 99.2277H163.422V115.93C164.414 115.998 165.339 115.907 166.25 115.986C166.34 116.86 166.213 117.66 166.328 118.427C167.542 118.568 182.551 118.512 183.059 118.365C183.124 117.542 183.192 116.71 183.262 115.817H185.915C185.926 115.548 185.946 115.344 185.946 115.143C185.946 113.93 185.937 112.717 185.949 111.504C185.982 107.522 186.022 103.54 186.064 99.5586C186.064 99.4285 186.1 99.3012 186.129 99.0976H191.53V96.4902C192.219 96.4308 192.829 96.3715 193.439 96.329C194.077 96.2866 194.08 96.2866 194.125 95.6616C194.17 95.048 194.226 94.4343 194.285 93.7556H194.282ZM61.1547 102.932C61.2475 107.265 61.121 111.535 61.2419 115.811C62.2284 115.884 63.1277 115.949 64.0665 116.02V118.497H94.7548C94.8307 117.618 94.9038 116.784 94.9797 115.884H97.3911V104.366H94.9741C94.8926 103.444 94.8167 102.587 94.738 101.691H83.8218C83.6925 91.5102 83.8415 81.3804 83.7234 71.2252C82.7538 71.1658 81.8544 71.1121 80.8932 71.0555V68.4793H63.9287V71.0273C63.302 71.081 62.7399 71.1262 62.1131 71.18V102.652C61.7702 102.754 61.492 102.836 61.1547 102.935V102.932Z" fill="#030202"/>
<path d="M192.278 13.7186C197.306 13.7327 202.331 13.7469 207.359 13.7582C213.638 13.7723 219.917 13.7865 226.196 13.7978C226.446 13.7978 226.693 13.7752 226.943 13.7639C226.929 16.7021 226.915 19.6375 226.901 22.5758C226.564 22.6012 226.227 22.6521 225.887 22.6521C214.895 22.6239 203.9 22.5871 192.908 22.5532C192.68 22.5532 192.455 22.5305 192.227 22.5192C192.244 19.5866 192.264 16.654 192.281 13.7214L192.278 13.7186Z" fill="#050404"/>
<path d="M192.278 13.7186C192.261 16.6512 192.242 19.5838 192.225 22.5164C190.769 22.5164 189.316 22.5051 187.86 22.5164C186.418 22.5277 184.973 22.4542 183.481 22.5532C183.481 23.608 183.481 24.5893 183.481 25.5678C183.481 26.5519 183.481 27.5332 183.475 28.5173C183.473 29.4902 183.464 30.463 183.456 31.4641H174.909C174.892 31.1671 174.855 30.873 174.855 30.5761C174.861 24.923 174.872 19.2699 174.881 13.6168L174.87 13.6309C175.187 13.6309 175.505 13.6281 175.825 13.6309C181.3 13.6451 186.778 13.662 192.253 13.6762L192.275 13.7186H192.278Z" fill="white"/>
<path d="M174.884 13.6196C174.875 19.2727 174.864 24.9258 174.858 30.5789C174.858 30.8759 174.892 31.17 174.912 31.4669C174.898 31.7186 174.87 31.9674 174.867 32.2191C174.853 34.6455 174.847 37.0691 174.825 39.4955C174.825 39.7557 174.749 40.0158 174.707 40.2788C173.936 40.2788 173.166 40.2901 172.396 40.2675C171.654 40.2449 170.912 40.1742 170.17 40.1516C170.007 40.1459 169.839 40.2421 169.676 40.2901C168.585 40.2901 167.492 40.2845 166.401 40.2817C166.328 40.2364 166.255 40.1883 166.179 40.1431C166.168 39.8914 166.146 39.6425 166.146 39.3908C166.157 33.8509 166.165 28.3137 166.182 22.7737C166.191 19.9599 166.213 17.1433 166.233 14.3294C166.233 14.1287 166.252 13.9279 166.269 13.6451C166.548 13.6451 166.789 13.6451 167.034 13.6451C169.4 13.6507 171.77 13.6564 174.136 13.6592C174.386 13.6592 174.633 13.6366 174.884 13.6253V13.6196Z" fill="#030202"/>
<path d="M252.879 49.4103C252.865 52.6342 252.848 55.8581 252.834 59.0791C252.829 60.1283 252.834 61.1775 252.834 62.2917H251.221C251.123 63.1966 251.03 64.0507 250.931 64.9528H247.64C247.536 64.0988 247.432 63.2221 247.32 62.286H244.217C244.206 62.0202 244.186 61.8222 244.186 61.6215C244.189 59.953 244.2 58.2845 244.2 56.616C244.2 56.3897 244.175 56.1635 244.161 55.9373C244.166 54.4271 244.172 52.917 244.175 51.404L244.158 51.356C244.169 51.1948 244.18 51.0336 244.192 50.8724C244.183 50.4086 244.172 49.9476 244.164 49.4838C243.947 49.4499 243.734 49.3905 243.517 49.3877C240.856 49.3651 238.194 49.3481 235.532 49.3311L235.544 49.3424C235.527 49.0936 235.493 48.8475 235.493 48.5987C235.493 45.9178 235.499 43.2369 235.501 40.5531C235.707 40.5418 235.909 40.5164 236.114 40.5164C238.801 40.522 241.488 40.5333 244.172 40.5418C244.186 40.7907 244.211 41.0424 244.211 41.2912C244.225 43.7827 244.237 46.2769 244.254 48.7684C244.254 48.9635 244.279 49.1586 244.296 49.3764C245.886 49.3764 247.41 49.3707 248.933 49.3764C250.251 49.382 251.569 49.4018 252.888 49.416L252.879 49.4047V49.4103Z" fill="white"/>
<path d="M157.385 58.0582L157.382 58.0469C157.382 56.9497 157.377 55.8524 157.379 54.758C157.388 50.2333 157.396 45.7085 157.405 41.1838C157.405 40.9349 157.405 40.6861 157.405 40.3495C157.708 40.3354 157.973 40.3128 158.234 40.3128C160.87 40.3015 163.506 40.2958 166.143 40.2901L166.134 40.2817C166.134 40.7143 166.14 41.147 166.14 41.5825C166.129 46.8171 166.12 52.0488 166.106 57.2834C166.106 57.5464 166.092 57.8094 166.081 58.1261C165.702 58.1261 165.409 58.1261 165.114 58.1261C163.706 58.1233 162.295 58.1148 160.887 58.1176C159.797 58.1176 158.706 58.1346 157.616 58.1431C157.54 58.1176 157.461 58.0922 157.385 58.0667V58.0582Z" fill="#050404"/>
<path d="M235.561 13.8289C238.174 13.843 240.788 13.8572 243.402 13.8713C243.669 13.8713 243.939 13.8713 244.304 13.8713C244.304 14.1965 244.304 14.4624 244.304 14.7282C244.296 19.9175 244.284 25.1068 244.276 30.299C244.276 30.6864 244.29 31.0766 244.298 31.4641C244.093 31.515 243.891 31.6026 243.683 31.6083C242.666 31.6309 241.645 31.6337 240.628 31.6422C238.958 31.6281 237.289 31.614 235.541 31.5998C235.541 31.235 235.541 30.9437 235.541 30.6524C235.546 28.3957 235.555 26.1362 235.552 23.8795C235.552 23.4694 235.518 23.0622 235.501 22.6521C235.513 22.5164 235.535 22.3807 235.535 22.2449C235.544 19.4396 235.549 16.6314 235.558 13.8261L235.561 13.8289Z" fill="#050404"/>
<path d="M192.256 13.6762C186.781 13.662 181.303 13.6451 175.828 13.6309C175.51 13.6309 175.193 13.6309 174.872 13.6309V4.96041C175.46 4.79922 191.21 4.79356 192.256 4.94627V13.6762Z" fill="#050404"/>
<path d="M252.888 49.4216C251.569 49.4075 250.251 49.3877 248.933 49.382C247.41 49.3764 245.886 49.382 244.296 49.382C244.279 49.1643 244.256 48.9692 244.254 48.774C244.239 46.2826 244.228 43.7883 244.211 41.2969C244.211 41.048 244.186 40.7963 244.172 40.5475C244.189 40.4598 244.217 40.3722 244.217 40.2817C244.239 37.4396 244.259 34.5946 244.279 31.7525C247.134 31.7553 249.987 31.7582 252.843 31.7638C252.859 32.0353 252.893 32.3068 252.89 32.5811C252.885 37.9231 252.874 43.2652 252.865 48.6043C252.865 48.8787 252.879 49.1501 252.885 49.4245L252.888 49.4216Z" fill="#050404"/>
<path d="M235.561 13.8289C235.555 16.6342 235.546 19.4424 235.538 22.2477C235.538 22.3835 235.516 22.5192 235.504 22.655C232.86 22.6493 230.215 22.6465 227.57 22.6352C227.348 22.6352 227.123 22.5956 226.901 22.573C226.915 19.6347 226.929 16.6993 226.943 13.761L226.929 13.7723C228.9 13.7752 230.873 13.7723 232.843 13.7837C233.748 13.7865 234.653 13.8063 235.561 13.8204V13.8317V13.8289Z" fill="white"/>
<path d="M235.558 13.8204C234.653 13.8091 233.748 13.7893 232.84 13.7837C230.87 13.7752 228.897 13.7752 226.926 13.7723L226.927 5.02545H235.513C235.676 5.67023 235.695 10.7266 235.558 13.8176V13.8204Z" fill="#050404"/>
<path d="M252.843 31.761C249.987 31.7582 247.134 31.7553 244.279 31.7525C243.281 31.7469 242.281 31.7497 241.283 31.7356C241.064 31.7327 240.847 31.679 240.628 31.6479C241.645 31.6394 242.666 31.6366 243.683 31.614C243.888 31.6083 244.093 31.5206 244.298 31.4697C246.862 31.4782 249.422 31.4839 251.985 31.4923C252.297 31.4923 252.632 31.4414 252.843 31.7638L252.843 31.761Z" fill="#CA5B23"/>
<path d="M157.323 57.9988C157.29 58.078 157.256 58.16 157.219 58.2392C157.02 58.2166 156.82 58.177 156.621 58.1742C155.623 58.1629 154.625 58.1516 153.627 58.1572C152.11 58.1629 150.592 58.1827 149.072 58.1968C149.01 58.1798 148.948 58.16 148.886 58.1431C149.004 57.8999 149.223 57.8688 149.459 57.8716C151.472 57.8772 153.487 57.8716 155.499 57.8857C156.106 57.8914 156.716 57.9593 157.323 57.9988Z" fill="#CA5B23"/>
<path d="M166.182 40.1374C166.255 40.1827 166.328 40.2308 166.404 40.276C166.314 40.276 166.224 40.276 166.134 40.276L166.143 40.2845C166.157 40.2336 166.171 40.1855 166.185 40.1346L166.182 40.1374Z" fill="#050404"/>
<path d="M166.132 40.2788C166.221 40.2788 166.311 40.2788 166.401 40.2788C167.492 40.2788 168.585 40.2845 169.676 40.2873C171.334 40.2986 172.992 40.3071 174.65 40.3156C174.667 40.3156 174.687 40.2901 174.704 40.276C174.743 40.0158 174.819 39.7557 174.822 39.4927C174.841 37.0663 174.847 34.6427 174.864 32.2163C174.864 31.9646 174.892 31.7158 174.909 31.4641C177.725 31.4641 180.541 31.4641 183.456 31.4641C183.461 30.463 183.47 29.4902 183.475 28.5173C183.478 27.5332 183.481 26.5519 183.481 25.5678C183.481 24.5865 183.481 23.608 183.481 22.5532C184.973 22.4542 186.418 22.5249 187.86 22.5164C189.316 22.5051 190.769 22.5164 192.225 22.5164C192.452 22.5277 192.677 22.5503 192.905 22.5503C203.897 22.5871 214.892 22.621 225.884 22.6493C226.221 22.6493 226.558 22.5984 226.898 22.573C227.12 22.5956 227.345 22.6352 227.567 22.6352C230.212 22.6437 232.857 22.6493 235.501 22.655C235.518 23.065 235.552 23.4723 235.552 23.8823C235.552 26.139 235.544 28.3986 235.541 30.6553C235.541 30.9466 235.541 31.2378 235.541 31.6026C237.289 31.6168 238.958 31.6309 240.628 31.6451C240.847 31.6762 241.064 31.7299 241.283 31.7327C242.281 31.7469 243.278 31.7469 244.279 31.7497C244.259 34.5918 244.239 37.4367 244.217 40.2788C244.217 40.3665 244.186 40.457 244.172 40.5447C241.485 40.5362 238.798 40.5249 236.114 40.5192C235.909 40.5192 235.707 40.5418 235.501 40.556C235.389 40.5447 235.277 40.5249 235.161 40.5249C232.503 40.5136 229.841 40.5022 227.182 40.4966C227.098 40.4966 227.011 40.5333 226.89 40.5616C226.865 43.4886 226.837 46.3985 226.856 49.3453H235.544L235.532 49.334C235.532 49.4301 235.532 49.5234 235.532 49.6196C235.53 51.3135 235.527 53.0047 235.524 54.6986C235.516 55.7987 235.504 56.9016 235.496 58.0017C235.462 58.1006 235.428 58.1996 235.397 58.3014C232.916 58.2986 230.434 58.2929 227.952 58.2929C227.567 58.2929 227.179 58.3297 226.794 58.3523C226.477 58.3354 226.159 58.3043 225.844 58.3014C220.659 58.2901 215.473 58.2816 210.291 58.2703C209.467 58.2703 209.434 58.2307 209.434 57.4304C209.434 54.7325 209.434 52.0347 209.434 49.3368C209.569 49.3226 209.703 49.2972 209.838 49.2972C212.182 49.3028 214.526 49.3113 216.873 49.317C217.275 49.317 217.677 49.3029 218.056 49.2944C218.225 48.4969 218.208 40.9519 218.042 40.4344C217.832 40.4344 217.604 40.4344 217.379 40.4344C214.99 40.4315 212.598 40.4259 210.209 40.4259C209.959 40.4259 209.709 40.4485 209.462 40.4626C206.665 40.4513 203.869 40.4372 201.075 40.4287C201.013 40.4287 200.954 40.4768 200.811 40.5333V49.2039C200.583 49.2124 200.358 49.2293 200.131 49.2293C197.767 49.2293 195.401 49.2237 193.037 49.2237C192.773 49.2237 192.509 49.2378 192.233 49.2463C192.216 49.4867 192.197 49.6422 192.194 49.8006C192.171 52.1789 192.149 54.5544 192.132 56.9327C192.123 58.2647 192.129 58.2505 190.819 58.2307C188.661 58.1996 186.5 58.1855 184.341 58.1742C184.06 58.1742 183.776 58.2336 183.481 58.2675V62.2464C183.346 62.2549 183.208 62.2719 183.074 62.2719C174.513 62.2747 165.954 62.2775 157.394 62.2775C157.382 60.9286 157.371 59.5768 157.363 58.2279C157.45 58.1968 157.537 58.1657 157.624 58.1346C158.714 58.1261 159.805 58.112 160.895 58.1091C162.304 58.1091 163.714 58.1148 165.123 58.1176C165.415 58.1176 165.71 58.1176 166.089 58.1176C166.098 57.8037 166.115 57.5407 166.115 57.2749C166.126 52.0403 166.137 46.8086 166.148 41.574C166.148 41.1414 166.146 40.7087 166.143 40.2732L166.132 40.2788Z" fill="#FEB444"/>
<path d="M202.194 115.938V100.353C202.95 100.062 203.006 99.4115 203.003 98.6876C202.992 89.7597 202.995 80.8346 202.992 71.9068C202.992 71.6805 202.992 71.4571 202.992 71.163H204.774C204.844 70.2241 204.911 69.3446 204.987 68.3746C217.036 68.2955 229.065 68.3181 241.168 68.3464V71.0301C242.087 71.098 242.938 71.1602 243.857 71.2281V73.8892H246.572V113.048H244.037C243.978 113.978 243.925 114.861 243.863 115.822H241.342C241.277 116.597 241.224 117.296 241.159 117.997C241.109 118.534 241.106 118.543 240.56 118.599C240.223 118.636 239.88 118.661 239.54 118.661C228.273 118.647 217.005 118.63 205.738 118.608C205.476 118.608 205.212 118.565 204.889 118.54V115.938H202.194ZM226.868 104.329V82.4749C225.212 82.5031 223.607 82.3957 222.028 82.636V104.332H226.868V104.329ZM207.517 107.166C207.559 105.791 207.624 104.491 207.632 103.19C207.655 98.8176 207.677 94.4456 207.655 90.0736C207.632 85.3368 207.565 80.5971 207.508 75.8603C207.503 75.3229 207.444 74.7856 207.41 74.237C206.691 74.2087 206.064 74.1239 205.417 74.336V107.169H207.517V107.166ZM208.155 73.7704H232.365V71.59C229.948 71.4458 208.723 71.5165 208.155 71.6749V73.7704ZM207.565 112.723V110.376H205.49V112.723H207.565ZM237.955 73.7591V71.5674H235.861V73.7591H237.955Z" fill="#CA5EFE"/>
<path d="M102.838 73.9938C103.698 73.9118 104.485 73.8354 105.337 73.7534C105.396 72.9361 105.449 72.1443 105.511 71.2761C106.374 71.1969 107.245 71.1178 108.192 71.0329V68.7592C108.518 68.697 108.774 68.6122 109.035 68.6009C110.831 68.533 112.627 68.4397 114.423 68.4255C121.548 68.3746 128.673 68.3435 135.797 68.3266C137.526 68.3237 139.254 68.4086 140.983 68.4623C141.227 68.4708 141.472 68.533 141.784 68.5811V71.0301C142.68 71.1093 143.507 71.1828 144.417 71.262V73.8863C145.356 73.9485 146.21 74.0079 147.056 74.0645C147.197 74.5962 147.217 115.09 147.07 115.862H144.726C144.622 116.747 144.524 117.573 144.423 118.449C144.021 118.5 143.664 118.577 143.31 118.582C140.488 118.633 137.669 118.69 134.847 118.704C133.689 118.71 132.529 118.619 131.371 118.56C131.056 118.543 130.744 118.478 130.395 118.432C130.328 117.638 130.261 116.871 130.19 116.051C129.302 115.964 128.448 115.882 127.498 115.791C127.492 114.878 127.486 113.973 127.484 113.068C127.484 112.151 127.484 111.235 127.484 110.322V102.149C127.484 101.238 127.484 100.325 127.484 99.3663H122.562C122.377 104.864 122.472 110.347 122.436 115.915H119.774C119.696 116.826 119.623 117.658 119.552 118.469C117.919 118.885 106.728 118.803 105.533 118.37C105.477 117.615 105.418 116.843 105.359 116.057C104.769 115.972 104.235 115.896 103.642 115.811C103.616 115.599 103.574 115.404 103.574 115.209C103.569 113.631 103.572 112.05 103.572 110.472C103.572 106.787 103.572 103.099 103.572 99.4144C103.572 99.1655 103.572 98.9138 103.572 98.6282C102.759 98.3906 102.577 97.7826 102.579 97.0304C102.599 90.6674 102.602 84.3017 102.627 77.9388C102.633 76.7511 102.712 75.5605 102.762 74.3727C102.768 74.2624 102.801 74.155 102.83 73.9995L102.838 73.9938ZM108.186 104.363C108.198 104.126 108.215 103.967 108.215 103.809C108.215 95.2968 108.215 86.7818 108.209 78.2697C108.209 78.0406 108.203 77.8115 108.17 77.5853C108.127 77.294 107.973 77.0395 107.669 77.0027C107.093 76.932 106.5 76.8246 105.972 77.1526C105.828 78.5214 105.893 103.846 106.045 104.363H108.186ZM132.874 73.8552C132.956 73.0549 132.922 72.3451 132.905 71.6183H111.486C111.494 72.3932 111.452 73.1313 111.509 73.8552H132.874ZM127.357 87.7886C127.486 86.9204 127.458 83.1027 127.321 82.5852C125.772 82.5031 124.212 82.4437 122.644 82.5852V87.7914H127.357V87.7886ZM138.518 73.7845C138.577 73.0097 138.574 72.2744 138.524 71.5278H136.404V73.7845H138.518ZM108.099 107.607C107.357 107.553 106.697 107.559 105.991 107.596C106.017 108.441 105.949 109.205 106.036 110.025C106.61 110.025 107.124 110.05 107.636 110.014C107.925 109.994 108.116 109.818 108.102 109.465C108.08 108.874 108.096 108.283 108.096 107.607H108.099ZM110.66 74.4576H108.85V76.621C109.328 76.621 109.758 76.6719 110.174 76.6097C110.713 76.5276 110.955 76.1855 110.896 75.6368C110.854 75.2353 110.738 74.845 110.66 74.4576Z" fill="#B6FF5C"/>
<path d="M252.913 74.0249C253.472 73.9174 253.958 73.8213 254.52 73.711V71.2705C255.459 71.1913 256.333 71.1178 257.275 71.0357C257.331 70.2383 257.387 69.4691 257.446 68.6178C258.135 68.5698 258.829 68.5047 259.523 68.4736C260.206 68.4425 260.889 68.4312 261.572 68.4284C268.742 68.3973 275.912 68.3577 283.081 68.3464C285.13 68.3435 287.176 68.4114 289.225 68.4651C289.742 68.4793 290.257 68.5528 290.799 68.6009C290.869 69.4351 290.934 70.2241 291.007 71.081C291.898 71.1376 292.752 71.1941 293.688 71.2535V73.9174H296.192C296.237 74.336 296.302 74.6923 296.308 75.0486C296.378 79.1916 296.468 83.3317 296.499 87.4747C296.547 93.8376 296.566 100.201 296.572 106.563C296.572 108.532 296.493 110.5 296.448 112.465C296.445 112.624 296.423 112.779 296.4 113.031C295.543 113.071 294.697 113.11 293.787 113.153C293.745 114.063 293.705 114.92 293.663 115.828C292.755 115.89 291.898 115.949 290.976 116.014C290.923 116.803 290.869 117.573 290.813 118.421C290.439 118.466 290.068 118.543 289.692 118.554C280.726 118.854 271.758 118.738 262.789 118.676C261.018 118.664 259.248 118.543 257.396 118.469C257.37 117.624 257.348 116.84 257.325 116.034C256.409 115.955 255.555 115.879 254.627 115.797C254.577 114.996 254.529 114.227 254.473 113.379C253.978 113.269 253.458 113.15 252.916 113.028V74.0221L252.913 74.0249ZM276.609 104.397V82.6558H271.696C271.519 83.6711 271.578 103.817 271.749 104.397H276.609ZM255.111 76.9773C254.99 86.1823 254.852 95.2544 255.156 104.355H257.337C257.351 104.114 257.37 103.914 257.37 103.713C257.373 95.2007 257.373 86.6857 257.376 78.1735C257.376 77.9897 257.384 77.8059 257.354 77.6249C257.283 77.2092 257.098 77.0141 256.673 76.9858C256.182 76.9547 255.687 76.9773 255.114 76.9773H255.111ZM260.718 73.7308C260.954 73.7534 261.128 73.7817 261.305 73.7873C262.691 73.8213 264.079 73.8807 265.465 73.875C270.012 73.8581 274.562 73.8156 279.11 73.7845C279.543 73.7817 279.976 73.7789 280.406 73.7562C280.968 73.7251 281.527 73.6714 282.1 73.6262V71.6353C281.018 71.4967 261.21 71.5476 260.715 71.689V73.7336L260.718 73.7308ZM285.574 73.8326H287.651V71.5815H285.574V73.8326ZM257.278 107.644H255.237C255.212 108.45 255.206 109.208 255.237 109.971H257.28V107.644H257.278ZM257.854 74.4067V76.6351H259.959V74.4067H257.854Z" fill="#B6FF5C"/>
<path d="M346.04 79.6441C345.222 79.7091 344.391 79.777 343.494 79.8505V82.4268C342.53 82.4324 341.631 82.4409 340.731 82.4437C339.798 82.4437 338.865 82.4437 337.932 82.4437H321.49C321.336 82.9726 321.305 103.365 321.462 104.154C323.944 104.491 326.451 104.505 328.949 104.264C329.11 103.75 329.155 100.35 329.023 99.2673C328.258 99.0976 327.46 99.2843 326.591 99.1485C326.538 98.2379 326.482 97.316 326.423 96.3375H323.736V90.6816C324.602 90.6052 325.456 90.5289 326.372 90.4469C326.44 89.6239 326.501 88.8321 326.572 87.9583C326.808 87.913 327.064 87.8338 327.322 87.8225C332.555 87.5567 337.791 87.6613 343.025 87.7038C343.843 87.7094 344.66 87.7773 345.478 87.8282C345.697 87.8423 345.911 87.9102 346.181 87.9639V90.4638C347.024 90.5232 347.808 90.5798 348.637 90.6392C348.685 91.0719 348.764 91.4536 348.767 91.8382C348.823 98.04 348.871 104.244 348.91 110.446C348.916 111.264 348.857 112.084 348.826 112.986C347.968 113.039 347.184 113.088 346.319 113.141C346.257 114.015 346.198 114.869 346.136 115.783C345.273 115.842 344.419 115.899 343.516 115.961C343.449 116.829 343.384 117.66 343.317 118.534H307.156V115.89H304.441C304.38 114.971 304.321 114.111 304.256 113.198C303.716 113.107 303.191 113.022 302.64 112.929V74.1126C303.157 73.9825 303.677 73.8496 304.222 73.711C304.503 72.9192 304.287 72.0793 304.456 71.1969C305.228 71.1347 306.013 71.0725 306.887 71.0018C306.968 70.1902 307.05 69.3616 307.14 68.4369C307.654 68.3944 308.165 68.3153 308.677 68.3153C316.783 68.3124 324.888 68.3152 332.991 68.3209C335.223 68.3209 337.454 68.3124 339.686 68.335C340.686 68.3435 341.684 68.4114 342.685 68.4623C342.881 68.4736 343.075 68.5387 343.278 68.5811C343.328 69.421 343.373 70.2128 343.421 71.0244C344.354 71.1008 345.208 71.1715 346.046 71.2394C346.201 71.8728 346.195 79.07 346.038 79.6497L346.04 79.6441ZM306.957 104.29C307.007 103.255 307.092 102.299 307.095 101.34C307.111 94.9292 307.12 88.5182 307.111 82.1072C307.111 80.5745 307.03 79.0417 306.982 77.5089C306.977 77.3336 306.932 77.1583 306.909 76.9943H304.855C304.824 77.1555 304.796 77.2403 304.793 77.3308C304.751 78.5185 304.675 79.7091 304.68 80.8969C304.714 88.4051 304.767 95.9133 304.821 103.422C304.821 103.707 304.883 103.993 304.919 104.329C305.442 104.329 305.895 104.332 306.347 104.329C306.524 104.329 306.704 104.307 306.96 104.287L306.957 104.29ZM334.728 71.5646C333.767 71.409 310.914 71.4515 310.445 71.5929V73.7308H334.531C334.599 72.9984 334.663 72.2999 334.731 71.5646H334.728ZM307.064 110.025C307.064 109.14 307.12 108.359 307.027 107.548H304.888C304.666 108.255 304.588 108.916 304.796 109.601C304.877 109.869 305.001 110.039 305.313 110.031C305.855 110.016 306.398 110.028 307.064 110.028V110.025ZM340.206 73.6516C340.152 72.9418 340.27 72.2433 340.127 71.5193C339.399 71.4882 338.71 71.4741 338.013 71.5193V73.6827C338.899 74.0362 339.45 74.0334 340.203 73.6488L340.206 73.6516ZM307.581 76.3806C308.028 76.5927 308.489 76.6719 308.961 76.6351C309.461 76.5955 309.753 76.3156 309.807 75.815C309.863 75.3173 309.773 74.8337 309.548 74.3558C308.882 74.3614 308.238 74.3134 307.581 74.3869V76.3806Z" fill="#68C8FE"/>
<path d="M395.781 79.7317H393.187V82.472C391.872 82.4805 390.607 82.4748 389.343 82.4748C388.044 82.4748 386.746 82.4748 385.45 82.4748H377.732C376.465 82.4748 375.194 82.4748 373.848 82.4748C373.789 84.2678 373.82 85.9928 373.84 87.7688H390.29V90.4667C391.223 90.5515 392.094 90.6307 393.016 90.7127V96.4252H390.391V99.1513H373.938C373.769 100.879 373.828 102.559 373.82 104.332C375.309 104.375 376.754 104.346 378.199 104.352C379.68 104.358 381.158 104.352 382.639 104.352H395.871V107.228H398.51V115.893H395.995C395.95 116.795 395.908 117.626 395.866 118.506H356.855V116.006C356.24 115.947 355.683 115.893 355.073 115.836V84.7203C354.728 84.593 354.433 84.4827 354.112 84.3639V71.1771H356.709C356.765 70.309 356.819 69.5143 356.875 68.6574C357.075 68.632 357.266 68.5924 357.462 68.5839C358.873 68.533 360.284 68.4538 361.695 68.4453C370.689 68.3944 379.683 68.3548 388.676 68.3266C389.95 68.3237 391.226 68.4001 392.499 68.4425C392.676 68.4482 392.85 68.4793 393.078 68.5047V71.1319H395.79V79.7317H395.781ZM357.432 74.2822C357.384 75.4106 357.316 76.4598 357.299 77.5089C357.167 86.8016 357.125 96.0943 357.297 105.384C357.308 105.972 357.367 106.558 357.406 107.146H359.452V74.2822H357.432ZM384.32 73.8665V71.4317C376.223 71.4797 368.199 71.344 360.149 71.6013V73.7817C368.213 73.8665 376.237 73.9203 384.32 73.8665ZM359.492 110.376H357.311V112.694H359.492V110.376ZM389.921 73.7732C389.921 72.9786 389.944 72.2405 389.91 71.5222H387.735V73.7732H389.921Z" fill="#FFED8E"/>
<path d="M11.6778 71.0753H14.2186V68.4595C14.8144 68.4057 15.3287 68.3153 15.8459 68.3153C26.228 68.3153 36.6102 68.3266 46.9952 68.3492C48.1728 68.3492 49.3448 68.4877 50.5618 68.7705V70.9962C51.478 71.0725 52.3296 71.1432 53.2177 71.2196C53.2992 72.0453 53.3751 72.8343 53.4594 73.7054C54.0581 73.7817 54.6567 73.875 55.2582 73.9316C55.9889 74.0023 55.9861 73.991 56.0199 74.746C56.2728 80.5575 56.1435 86.3746 56.1126 92.1861C56.107 93.2833 56.0367 94.3806 55.9861 95.4778C55.9749 95.7267 55.9159 95.9727 55.8709 96.264C55.0755 96.3856 54.297 96.5044 53.4735 96.6288C53.3779 97.4263 53.2852 98.2125 53.184 99.0637C52.6669 99.1118 52.1778 99.1655 51.6832 99.1994C50.7894 99.2616 50.5674 99.4794 50.5477 100.379C50.5365 100.879 50.5477 101.377 50.5477 101.948C50.2301 101.962 49.9659 101.982 49.7017 101.982C44.5107 101.988 39.3196 101.988 34.1285 101.999C33.246 101.999 32.3607 102.056 31.3995 102.087C31.3629 102.471 31.3011 102.825 31.3011 103.181C31.287 107.095 31.2842 111.012 31.2758 114.926C31.2758 115.194 31.2758 115.466 31.2758 115.783C30.3595 115.859 29.5051 115.932 28.5636 116.012C28.4962 116.789 28.4259 117.573 28.3584 118.35C27.875 118.497 15.4777 118.551 14.3619 118.404V116.031C13.4653 115.955 12.6559 115.887 11.7846 115.814C11.7369 115.209 11.675 114.626 11.6469 114.038C11.6216 113.512 11.6244 112.986 11.6244 112.457C11.5851 99.864 11.5429 87.2739 11.5092 74.681C11.5092 73.629 11.5738 72.577 11.6132 71.525C11.6188 71.3949 11.6497 71.262 11.6806 71.0668L11.6778 71.0753ZM14.7441 74.2144C14.7441 84.0783 14.7441 93.8659 14.7441 103.653C14.7441 103.857 14.7666 104.064 14.7807 104.267C14.7807 104.287 14.8004 104.307 14.8172 104.321C14.8313 104.338 14.8509 104.352 14.8706 104.366H17.0544C17.0713 104.148 17.0938 103.97 17.0938 103.792C17.1219 94.4824 17.15 85.1756 17.1696 75.8659C17.1696 75.4785 17.1134 75.091 17.0853 74.7036C17.0628 74.401 16.9279 74.138 16.6244 74.0984C16.0201 74.0221 15.4074 73.9938 14.7413 74.2115L14.7441 74.2144ZM41.8013 71.5815C40.7839 71.4373 17.9397 71.4826 17.3636 71.6466C17.4029 72.314 17.4423 73.0068 17.4844 73.6742C18.3979 73.8156 41.2926 73.7789 41.8013 73.6431V71.5815ZM31.4163 87.684C33.0998 87.5539 34.699 88.0573 36.301 87.6472V82.6219H31.4163V87.684ZM47.2369 73.9627V71.5561H45.1458V73.8524C45.84 73.8892 46.5062 73.9259 47.2369 73.9627ZM17.0094 107.627H14.9184V109.915H17.0094V107.627Z" fill="#CA5EFE"/>
<path d="M194.282 93.7556C194.226 94.4343 194.167 95.048 194.122 95.6616C194.077 96.2866 194.074 96.2866 193.436 96.329C192.826 96.3686 192.219 96.4308 191.528 96.4902V99.0976H186.126C186.095 99.3012 186.061 99.4313 186.061 99.5586C186.022 103.54 185.98 107.522 185.946 111.504C185.935 112.717 185.946 113.93 185.943 115.143C185.943 115.344 185.926 115.548 185.912 115.817H183.259C183.189 116.71 183.121 117.542 183.057 118.365C182.551 118.512 167.54 118.568 166.325 118.427C166.207 117.66 166.337 116.86 166.247 115.986C165.336 115.907 164.411 115.998 163.419 115.93V99.2277H158.029C157.975 98.2351 157.925 97.3132 157.871 96.3262C157.489 96.3517 157.155 96.3884 156.82 96.3913C156.483 96.3941 156.137 96.4026 155.806 96.3432C155.238 96.2414 155.061 95.936 155.123 95.3675C155.179 94.85 155.201 94.3297 155.243 93.7471C154.594 93.6679 154.018 93.5972 153.445 93.5265C153.256 92.9694 153.186 72.2659 153.377 71.2705C153.894 71.1941 154.426 71.1149 155.024 71.0273C155.095 70.1902 155.162 69.3588 155.238 68.451C155.637 68.4029 156.036 68.3124 156.435 68.3096C160.42 68.2983 164.403 68.3011 168.388 68.3039C169.139 68.3039 169.229 68.3916 169.299 69.1693C169.352 69.7773 169.375 70.3881 169.417 71.0923H171.966C172.022 71.771 172.104 72.3592 172.112 72.9474C172.143 75.2126 172.146 77.4807 172.171 79.7459C172.188 81.3239 172.228 82.9019 172.259 84.4827C172.259 84.593 172.284 84.7033 172.301 84.856H177.163C177.166 83.7192 177.171 82.5823 177.174 81.4483C177.174 80.303 177.174 79.1576 177.174 78.0152V71.0782H179.937V68.4453H194.068C194.13 69.3446 194.189 70.2043 194.257 71.146C194.692 71.146 195.075 71.146 195.454 71.146C196.651 71.146 196.986 71.4797 196.986 72.7014C196.986 78.9738 196.986 85.2462 196.986 91.5187C196.986 92.1352 196.986 92.7517 196.986 93.4587C196.086 93.5576 195.218 93.6538 194.279 93.7556H194.282ZM157.821 84.9126C157.964 83.7983 157.916 74.5933 157.756 74.0673C157.076 74.1267 156.387 74.1861 155.71 74.2427C155.564 75.2494 155.612 84.4148 155.761 84.9126H157.821ZM180.505 74.237V84.9041H182.739V74.237H180.505ZM166.106 73.5526V71.525H158.363V73.6346C159.302 73.9174 164.802 73.8581 166.106 73.5526ZM190.907 71.6409C190.448 71.4684 184.142 71.426 183.36 71.5957V73.7138H190.907V71.6409ZM155.763 88.2552V90.4723H157.767V88.1138C157.07 88.0968 156.418 88.0063 155.763 88.2552Z" fill="#68C8FE"/>
<path d="M61.1547 102.932C61.492 102.833 61.7731 102.751 62.1131 102.65V71.1771C62.7399 71.1234 63.2992 71.0782 63.9287 71.0244V68.4764H80.8932V71.0527C81.8544 71.1093 82.751 71.163 83.7234 71.2224C83.8415 81.3776 83.6925 91.5074 83.8218 101.688H94.738C94.8167 102.584 94.8926 103.441 94.9741 104.363H97.3911V115.882H94.9797C94.901 116.781 94.8307 117.615 94.7548 118.495H64.0665V116.017C63.1277 115.947 62.2312 115.882 61.2419 115.808C61.121 111.532 61.2475 107.262 61.1547 102.929L61.1547 102.932ZM64.6511 74.2427C64.2379 75.8263 64.2941 102.579 64.7129 104.31C65.4127 104.428 66.1603 104.411 66.6353 104.267V74.2427H64.6511ZM67.2311 73.7449H74.9883C75.0248 73.0181 75.0585 72.3394 75.0951 71.5872C72.4447 71.3836 69.8506 71.3497 67.2283 71.6664V73.7449H67.2311ZM64.5499 107.627V109.906H66.714V107.627H64.5499Z" fill="#FFED8E"/>
<path d="M209.434 49.334C209.434 52.0318 209.431 54.7297 209.434 57.4276C209.434 58.2279 209.467 58.2647 210.291 58.2675C215.476 58.2788 220.662 58.2873 225.844 58.2986C226.162 58.2986 226.48 58.3325 226.794 58.3467C226.803 58.4117 226.811 58.4768 226.82 58.5418C226.808 59.772 226.794 61.0021 226.783 62.2323C226.533 62.2408 226.283 62.2578 226.036 62.2578C213.692 62.2606 201.345 62.2634 189.001 62.2634C187.16 62.2634 185.319 62.2521 183.478 62.2464V58.2675C183.773 58.2336 184.057 58.1742 184.338 58.1742C186.497 58.1855 188.658 58.1996 190.817 58.2307C192.126 58.2505 192.121 58.2647 192.129 56.9327C192.146 54.5544 192.168 52.1789 192.191 49.8006C192.191 49.6422 192.213 49.4838 192.23 49.2463C192.506 49.2378 192.77 49.2237 193.034 49.2237C195.398 49.2237 197.764 49.2293 200.128 49.2293C200.356 49.2293 200.58 49.2124 200.808 49.2039C201.691 49.2237 202.57 49.252 203.453 49.2661C205.445 49.2915 207.438 49.3113 209.431 49.3311L209.434 49.334Z" fill="white"/>
<path d="M183.475 62.2493C185.316 62.2549 187.157 62.2662 188.998 62.2662C201.342 62.2662 213.689 62.2634 226.033 62.2606C226.283 62.2606 226.533 62.2436 226.78 62.2351C226.685 62.286 226.595 62.3737 226.497 62.385C226.294 62.4105 226.089 62.3935 225.884 62.3935C203.338 62.3935 180.791 62.3935 158.245 62.3907C157.958 62.3907 157.675 62.32 157.388 62.2832C165.949 62.2832 174.507 62.2804 183.068 62.2775C183.203 62.2775 183.341 62.2606 183.475 62.2521V62.2493Z" fill="#050404"/>
<path d="M244.175 51.404C244.169 52.9142 244.164 54.4243 244.161 55.9373C243.93 55.9203 243.866 55.7761 243.868 55.5668C243.871 54.2999 243.871 53.0301 243.868 51.7632C243.868 51.5483 243.95 51.4182 244.178 51.4069L244.175 51.404Z" fill="#050404"/>
<path d="M235.532 49.6168C235.532 49.5206 235.532 49.4273 235.532 49.3311C238.194 49.3481 240.856 49.3622 243.517 49.3877C243.734 49.3877 243.947 49.4499 244.164 49.4838C241.55 49.4838 238.939 49.4782 236.325 49.4838C236.061 49.4838 235.797 49.5687 235.532 49.6139V49.6168Z" fill="#050404"/>
<path d="M226.82 58.5418C226.811 58.4768 226.803 58.4117 226.794 58.3467C227.179 58.3269 227.567 58.2901 227.952 58.2901C230.434 58.2901 232.916 58.2929 235.397 58.2986C235.159 58.3354 234.92 58.4061 234.678 58.4061C232.32 58.4146 229.965 58.4061 227.607 58.4174C227.342 58.4174 227.081 58.4994 226.817 58.5446L226.82 58.5418Z" fill="#050404"/>
<path d="M149.072 58.1968C150.589 58.1827 152.107 58.1629 153.627 58.1572C154.625 58.1516 155.623 58.1629 156.621 58.1742C156.82 58.1742 157.02 58.2166 157.219 58.2392C156.042 58.2505 154.861 58.2647 153.684 58.2675C152.368 58.2732 151.053 58.2732 149.738 58.2675C149.516 58.2675 149.294 58.2223 149.072 58.1968Z" fill="#050404"/>
<path d="M235.496 57.9988C235.504 56.8988 235.516 55.7959 235.524 54.6958C235.572 54.8598 235.65 55.021 235.665 55.1878C235.721 55.9033 235.763 56.6188 235.802 57.3343C235.816 57.6057 235.844 57.8914 235.496 57.9988Z" fill="#050404"/>
<path d="M157.616 58.1374C157.528 58.1685 157.441 58.1996 157.354 58.2307C157.363 58.1742 157.374 58.1148 157.382 58.0582C157.458 58.0837 157.537 58.1091 157.613 58.1346L157.616 58.1374Z" fill="#CA5B23"/>
<path d="M174.709 40.2732C174.692 40.2873 174.673 40.3128 174.656 40.3128C172.998 40.3043 171.339 40.293 169.681 40.2845C169.847 40.2364 170.013 40.1403 170.176 40.1459C170.918 40.1714 171.66 40.2421 172.402 40.2619C173.172 40.2845 173.942 40.2703 174.712 40.2732H174.709Z" fill="#050404"/>
<path d="M235.544 49.3424H226.856C226.837 46.3985 226.865 43.4857 226.89 40.5588C227.011 40.5305 227.095 40.4938 227.182 40.4938C229.841 40.4994 232.503 40.5107 235.161 40.522C235.274 40.522 235.386 40.5418 235.501 40.5531C235.499 43.2341 235.493 45.915 235.493 48.5987C235.493 48.8475 235.527 49.0936 235.544 49.3424Z" fill="#050404"/>
<path d="M209.459 40.4626C209.709 40.4485 209.959 40.4259 210.207 40.4259C212.596 40.4259 214.987 40.4315 217.376 40.4344C217.601 40.4344 217.826 40.4344 218.04 40.4344C218.205 40.9491 218.222 48.4969 218.054 49.2944C217.674 49.3029 217.272 49.317 216.87 49.317C214.526 49.3113 212.182 49.3028 209.836 49.2972C209.701 49.2972 209.566 49.3226 209.431 49.3368C209.439 46.3816 209.451 43.4235 209.459 40.4683V40.4626Z" fill="white"/>
<path d="M209.459 40.4626C209.451 43.4179 209.439 46.3759 209.431 49.3311C207.438 49.3085 205.445 49.2915 203.453 49.2661C202.57 49.2548 201.691 49.2265 200.808 49.2039C200.808 46.3052 200.808 43.4094 200.808 40.5333C200.951 40.474 201.013 40.4259 201.072 40.4287C203.869 40.4372 206.665 40.4485 209.459 40.4626Z" fill="#050404"/>
<path d="M226.868 104.329L222.028 104.329V82.6332C223.61 82.3928 225.215 82.5031 226.868 82.472V104.329Z" fill="#050404"/>
<path d="M207.517 107.166H205.417V74.3332C206.061 74.1211 206.691 74.2059 207.41 74.2342C207.444 74.7828 207.503 75.3201 207.508 75.8574C207.565 80.5943 207.632 85.3339 207.655 90.0708C207.674 94.4428 207.655 98.8148 207.632 103.187C207.626 104.488 207.559 105.789 207.517 107.163L207.517 107.166Z" fill="#050404"/>
<path d="M208.155 73.7704V71.6749C208.723 71.5165 229.945 71.443 232.365 71.59V73.7704H208.155Z" fill="#030202"/>
<path d="M207.565 112.723H205.49V110.376H207.565V112.723Z" fill="#050404"/>
<path d="M237.955 73.7591H235.861V71.5674H237.955V73.7591Z" fill="#050404"/>
<path d="M108.186 104.363H106.045C105.893 103.849 105.828 78.5242 105.972 77.1526C106.503 76.8218 107.093 76.9292 107.669 77.0027C107.973 77.0395 108.127 77.294 108.17 77.5853C108.203 77.8115 108.209 78.0406 108.209 78.2697C108.212 86.7818 108.215 95.2968 108.215 103.809C108.215 103.967 108.198 104.126 108.186 104.363Z" fill="#050404"/>
<path d="M132.874 73.8552H111.509C111.452 73.1284 111.492 72.3932 111.486 71.6183H132.905C132.922 72.3451 132.959 73.0549 132.874 73.8552Z" fill="#030202"/>
<path d="M127.357 87.7886L122.644 87.7886V82.5823C124.212 82.4409 125.772 82.5031 127.321 82.5823C127.458 83.1027 127.489 86.9176 127.357 87.7858L127.357 87.7886Z" fill="#050404"/>
<path d="M138.518 73.7845H136.404V71.5278H138.524C138.577 72.2772 138.577 73.0125 138.518 73.7845Z" fill="#050404"/>
<path d="M108.099 107.607C108.099 108.283 108.082 108.874 108.105 109.465C108.119 109.818 107.928 109.994 107.638 110.014C107.127 110.05 106.613 110.025 106.039 110.025C105.952 109.205 106.017 108.441 105.994 107.596C106.697 107.559 107.357 107.553 108.102 107.607H108.099Z" fill="#030202"/>
<path d="M110.66 74.4576C110.741 74.8422 110.856 75.2353 110.896 75.6368C110.952 76.1855 110.71 76.5276 110.174 76.6097C109.76 76.6719 109.328 76.621 108.85 76.621V74.4576H110.66Z" fill="#050404"/>
<path d="M276.609 104.397H271.749C271.578 103.817 271.519 83.6711 271.696 82.6558H276.609V104.397Z" fill="#030202"/>
<path d="M255.111 76.9773C255.684 76.9773 256.179 76.9518 256.671 76.9858C257.095 77.0141 257.278 77.2092 257.351 77.6249C257.382 77.8031 257.373 77.9897 257.373 78.1735C257.373 86.6857 257.373 95.2007 257.368 103.713C257.368 103.914 257.348 104.114 257.334 104.355H255.153C254.849 95.2544 254.987 86.1823 255.108 76.9773H255.111Z" fill="#050404"/>
<path d="M260.718 73.7308L260.718 71.6862C261.212 71.5448 281.018 71.4939 282.103 71.6325V73.6233C281.53 73.6686 280.971 73.7223 280.408 73.7534C279.978 73.7789 279.546 73.7789 279.113 73.7817C274.565 73.8156 270.015 73.8552 265.468 73.8722C264.082 73.8778 262.694 73.8185 261.308 73.7845C261.131 73.7789 260.954 73.7506 260.721 73.728L260.718 73.7308Z" fill="#030202"/>
<path d="M285.574 73.8326V71.5815H287.651V73.8326H285.574Z" fill="#050404"/>
<path d="M257.278 107.644V109.971H255.234C255.206 109.208 255.209 108.447 255.234 107.644H257.278Z" fill="#050404"/>
<path d="M257.854 74.4067H259.959V76.6351H257.854V74.4067Z" fill="#050404"/>
<path d="M306.957 104.29C306.701 104.307 306.524 104.329 306.344 104.332C305.892 104.338 305.439 104.332 304.916 104.332C304.877 103.993 304.818 103.71 304.818 103.424C304.765 95.9162 304.714 88.4079 304.678 80.8997C304.672 79.7119 304.748 78.5214 304.79 77.3336C304.793 77.2459 304.821 77.1583 304.852 76.9971H306.906C306.932 77.1583 306.974 77.3336 306.979 77.5118C307.027 79.0445 307.106 80.5773 307.109 82.11C307.117 88.521 307.109 94.932 307.092 101.343C307.092 102.299 307.005 103.258 306.954 104.293L306.957 104.29Z" fill="#050404"/>
<path d="M334.728 71.5646C334.66 72.2999 334.596 72.9983 334.528 73.7308H310.442V71.5929C310.911 71.4515 333.764 71.409 334.725 71.5646L334.728 71.5646Z" fill="#050404"/>
<path d="M307.064 110.025C306.398 110.025 305.855 110.014 305.313 110.028C304.998 110.036 304.877 109.866 304.796 109.598C304.588 108.916 304.666 108.252 304.888 107.545H307.027C307.123 108.356 307.064 109.137 307.064 110.022V110.025Z" fill="#050404"/>
<path d="M340.206 73.6516C339.452 74.0362 338.902 74.039 338.016 73.6855V71.5222C338.71 71.4741 339.399 71.4882 340.13 71.5222C340.273 72.2461 340.155 72.9446 340.208 73.6544L340.206 73.6516Z" fill="#050404"/>
<path d="M307.581 76.3806V74.3869C308.241 74.3134 308.885 74.3614 309.548 74.3558C309.773 74.8337 309.863 75.3173 309.807 75.815C309.751 76.3156 309.461 76.5955 308.961 76.6351C308.489 76.6719 308.028 76.5927 307.581 76.3806Z" fill="#050404"/>
<path d="M357.432 74.2822H359.452V107.146H357.406C357.37 106.558 357.308 105.972 357.297 105.384C357.125 96.0915 357.167 86.7988 357.299 77.5089C357.314 76.4598 357.384 75.4078 357.432 74.2822Z" fill="#050404"/>
<path d="M384.32 73.8665C376.234 73.9203 368.213 73.8665 360.149 73.7817V71.6013C368.202 71.344 376.223 71.4797 384.32 71.4317V73.8665Z" fill="#050404"/>
<path d="M359.492 110.376V112.694H357.311V110.376H359.492Z" fill="#050404"/>
<path d="M389.921 73.7732H387.735V71.5222H389.91C389.944 72.2376 389.921 72.9757 389.921 73.7732Z" fill="#050404"/>
<path d="M14.7441 74.2144C15.4102 73.9966 16.0229 74.0277 16.6272 74.1012C16.9307 74.138 17.0657 74.401 17.0881 74.7064C17.1191 75.0939 17.1753 75.4813 17.1725 75.8687C17.15 85.1784 17.1247 94.4852 17.0966 103.795C17.0966 103.973 17.0713 104.151 17.0572 104.369C16.3096 104.369 15.5901 104.369 14.8734 104.369C14.8566 104.355 14.8369 104.341 14.82 104.324C14.806 104.307 14.7863 104.29 14.7835 104.27C14.7694 104.066 14.7469 103.86 14.7469 103.656C14.7469 93.8687 14.7469 84.0811 14.7469 74.2172L14.7441 74.2144Z" fill="#030202"/>
<path d="M41.8013 71.5815V73.6431C41.2898 73.7789 18.3979 73.8156 17.4844 73.6742C17.4451 73.004 17.4057 72.314 17.3636 71.6466C17.9397 71.4826 40.7839 71.4373 41.8013 71.5815Z" fill="#050404"/>
<path d="M31.4163 87.684V82.6219H36.301V87.6472C34.699 88.0573 33.0998 87.5567 31.4163 87.684Z" fill="#030202"/>
<path d="M47.2369 73.9627C46.5062 73.9231 45.84 73.8892 45.1458 73.8524V71.5561H47.2369V73.9627Z" fill="#050404"/>
<path d="M17.0094 107.627V109.915H14.9184V107.627H17.0094Z" fill="#050404"/>
<path d="M157.821 84.9126H155.763C155.612 84.4148 155.567 75.2494 155.713 74.2427C156.39 74.1833 157.079 74.1239 157.759 74.0673C157.916 74.5933 157.967 83.7983 157.824 84.9126H157.821Z" fill="#050404"/>
<path d="M180.505 74.237H182.739V84.9041H180.505V74.237Z" fill="#050404"/>
<path d="M166.106 73.5526C164.802 73.8581 159.302 73.9174 158.363 73.6346V71.525H166.106V73.5526Z" fill="#050404"/>
<path d="M190.907 71.6409V73.7138H183.36V71.5957C184.142 71.426 190.448 71.4684 190.907 71.6409Z" fill="#050404"/>
<path d="M155.763 88.2552C156.418 88.0035 157.07 88.094 157.767 88.1138V90.4723H155.763V88.2552Z" fill="#050404"/>
<path d="M64.6511 74.2427H66.6353V104.267C66.1603 104.411 65.4127 104.428 64.7129 104.31C64.2941 102.579 64.2407 75.8263 64.6511 74.2427Z" fill="#050404"/>
<path d="M67.2311 73.7449V71.6664C69.8534 71.3496 72.4475 71.3836 75.0979 71.5872C75.0613 72.3394 75.0276 73.0181 74.9911 73.7449H67.2311Z" fill="#050404"/>
<path d="M64.5499 107.627H66.714V109.906H64.5499V107.627Z" fill="#050404"/>
</svg>
