<svg width="17" height="17" viewBox="0 0 17 17" fill="none" xmlns="http://www.w3.org/2000/svg">
<path d="M2.07354 2.89622H1.1554V14.0279H2.07354V14.9366H2.99169V15.8453H14.1625V14.8608H15.0806V14.0279H15.9222V3.04768H15.0806V2.06325H14.1625V1.15454H2.99169V2.06325H2.07354V2.89622Z" stroke="black" stroke-width="2"/>
<path d="M1.93264 2.77835H1V14.1443H1.93264V15.0722H2.86529V16H14.2124V14.9948H15.1451V14.1443H16V2.93299H15.1451V1.92783H14.2124V1H2.86529V1.92783H1.93264V2.77835Z" stroke="black"/>
<path d="M5.66317 7.49479H3.79788V8.42262H4.73052V9.42778H6.59581V8.42262H8.38337V7.49479H9.39374V6.48963H10.4041V5.71644H11.4145V6.72159H10.4041V7.72675H9.54918V8.65458H8.38337V9.5051H7.60617V11.2834H8.53881V12.2886H9.39374V13.1391H10.4041V11.2061H11.4145V8.42262H12.2694V5.40716H13.1243V3.78345H11.4145V4.7886H9.39374V5.71644H7.60617V6.72159H5.66317V7.49479Z" fill="black" stroke="black" stroke-width="0.57732"/>
</svg>
