<svg width="547" height="95" viewBox="0 0 547 95" fill="none" xmlns="http://www.w3.org/2000/svg">
<g clip-path="url(#clip0_761_1598)">
<path d="M0.560547 47.2057V76.9116H30.2664H59.9723V47.2057V17.4999H30.2664H0.560547V47.2057ZM54.6782 36.5587C54.6782 40.7351 53.8547 42.1469 53.2664 39.0881C52.737 36.2057 50.6782 34.6175 47.1488 34.1469L44.09 33.794V47.0881V60.441L45.4429 60.6763C46.1488 60.8528 47.2664 61.0881 47.9135 61.2057C48.5605 61.3822 45.9135 61.4999 42.0311 61.4999C38.1488 61.4999 35.2664 61.441 35.5605 61.3234C35.9135 61.2057 36.8547 60.9704 37.7958 60.794L39.3841 60.441V47.0881V33.794L37.0311 34.1469C33.5605 34.6175 31.9135 35.9116 31.09 38.794L30.3841 41.3234L29.8547 39.2646C28.9723 36.0881 28.5605 35.4999 26.3841 34.7351C23.9135 33.8528 17.3253 33.794 15.7958 34.5587C14.7958 35.0881 14.6782 35.8528 14.6782 40.441V45.7352H18.6782C23.09 45.7352 24.09 45.2057 24.09 42.6763C24.09 41.794 24.3841 41.0293 24.6782 41.0293C25.0311 41.0293 25.2664 43.2646 25.2664 46.6175C25.2664 49.9704 25.0311 52.2057 24.6782 52.2057C24.3841 52.2057 24.09 51.441 24.09 50.5587C24.09 48.0293 23.09 47.4999 18.6782 47.4999H14.6782V53.2646C14.6782 56.9704 14.9135 59.2646 15.3841 59.7352C15.7958 60.1469 17.737 60.441 19.9723 60.441C24.9135 60.3822 28.6194 58.8528 29.5605 56.3234C30.6194 53.6175 31.1488 54.2057 31.1488 58.0881V61.6175L18.6782 61.5587C11.7958 61.4999 6.97231 61.3234 7.91349 61.0881L9.67819 60.7352L9.85466 47.3822L9.97231 34.0293L8.08996 33.441C6.79584 33.0881 14.1488 32.9116 30.4429 32.8528L54.6782 32.794V36.5587Z" fill="black" fill-opacity="0.75"/>
<path d="M71.2077 32.3233L71.2666 38.9704L71.9725 35.6763C73.2666 29.6175 75.5607 27.5586 81.443 27.0292L85.2666 26.7351V46.1469C85.2666 62.9704 85.1489 65.6763 84.3842 66.3233C83.8548 66.7351 81.796 67.2645 79.796 67.4998C77.5019 67.7939 81.0901 67.9116 89.3842 67.9116C98.9725 67.9704 101.737 67.7939 99.3842 67.441C97.6195 67.1469 95.5607 66.7939 94.8548 66.6175L93.5019 66.3233V46.6175V26.9116H97.2078C103.561 26.9116 106.62 29.3233 107.561 35.1469C108.031 38.1469 108.09 37.9116 108.149 32.0292L108.208 25.7351H89.6783H71.1489L71.2077 32.3233Z" fill="black" fill-opacity="0.75"/>
<path d="M179.972 26.3233C179.972 26.6174 181.384 26.9115 183.148 26.9115C188.442 26.9115 188.207 26.088 188.207 46.3821C188.207 57.1468 187.972 64.4998 187.619 65.1468C187.207 65.9704 186.089 66.3821 183.501 66.6762C175.266 67.6174 181.325 68.088 200.854 68.088H221.737V59.2645C221.737 54.3821 221.501 50.441 221.207 50.441C220.972 50.441 220.384 51.9704 220.031 53.9115C219.678 55.7939 218.619 58.7939 217.737 60.4998C216.442 63.088 215.619 63.9704 213.207 65.1468C210.678 66.3821 209.442 66.6174 204.384 66.6174C201.148 66.6174 198.031 66.441 197.501 66.2057C196.56 65.7939 196.442 64.7351 196.442 56.0292V46.3233H199.089C204.972 46.3233 207.089 48.441 207.913 55.2645C208.795 62.1468 209.384 58.3821 209.384 46.3233C209.384 39.1468 209.148 33.9704 208.854 33.9704C208.56 33.9704 208.089 35.3821 207.913 37.1468C207.148 42.9704 204.678 45.1468 198.678 45.1468H196.442V36.9704C196.442 32.441 196.619 28.3821 196.795 27.8527C197.089 27.088 198.148 26.9115 202.56 26.9115C212.031 26.9115 215.031 28.6174 217.031 34.9704C217.678 37.088 218.207 39.5586 218.207 40.4998C218.207 41.6174 218.501 42.2057 219.089 42.2057C219.854 42.2057 219.972 40.9115 219.972 33.9704V25.7351H199.972C187.031 25.7351 179.972 25.9704 179.972 26.3233Z" fill="black" fill-opacity="0.75"/>
<path d="M410.031 32.3234L410.09 38.9705L410.796 35.6764C412.09 29.6175 414.384 27.5587 420.266 27.0293L424.09 26.7352V46.147C424.09 60.3823 423.913 65.6764 423.384 66.2058C422.972 66.6175 421.09 66.9117 418.972 66.9117C416.913 66.9117 415.266 67.147 415.266 67.4999C415.266 67.8528 419.972 68.0881 428.266 68.0881C436.737 68.0881 441.09 67.9117 440.855 67.4999C440.678 67.147 439.325 66.9117 437.913 66.9117C436.502 66.9117 434.678 66.6764 433.855 66.3234L432.325 65.7352V46.2646V26.794L436.678 27.0293C443.207 27.3234 445.502 29.4411 446.266 35.7352L446.619 38.6764H444.502C443.325 38.6764 442.207 38.9117 442.031 39.2646C441.796 39.6175 442.443 39.8528 443.619 39.8528C447.207 39.8528 447.325 40.0881 447.502 50.2646C447.619 55.3823 447.56 61.2058 447.325 63.2646C446.913 66.9117 446.913 66.9117 445.09 66.9117C444.031 66.9117 442.796 67.2058 442.325 67.4999C441.737 67.9117 444.266 68.0881 449.972 68.0881C455.207 68.0881 458.207 67.8528 457.913 67.5587C457.56 67.2646 456.384 66.9117 455.266 66.794L453.207 66.6175L453.031 53.7352C452.855 39.6764 452.796 39.8528 456.325 39.8528C457.325 39.8528 458.207 39.5587 458.207 39.2058C458.207 38.7352 457.09 38.6175 454.502 38.9117C452.443 39.0881 449.913 39.0881 448.913 38.9117L447.031 38.4999V32.147V25.7352H428.502H409.972L410.031 32.3234Z" fill="black" fill-opacity="0.75"/>
<path d="M233.267 38.6763C226.914 40.6175 222.914 47.7352 223.678 55.8528C224.325 63.2058 228.561 67.9116 235.09 68.4999C239.972 68.9705 243.443 67.3822 245.443 63.9116C247.09 61.0293 248.149 55.7352 247.09 55.7352C246.737 55.7352 246.443 56.441 246.443 57.2646C246.443 60.1469 245.149 63.2646 243.149 65.2058C241.561 66.7352 240.619 67.1469 238.031 67.3822C235.325 67.6175 234.678 67.441 233.031 66.0293C230.561 63.9705 229.384 59.8528 229.384 53.3822C229.384 43.6175 232.208 38.8528 237.561 39.441C239.561 39.6763 240.619 40.2058 241.855 41.5587C243.384 43.2646 245.267 48.2646 245.267 50.5587C245.267 51.1469 245.561 51.6175 245.855 51.6175C246.208 51.6175 246.443 48.9705 246.443 44.8528C246.443 40.7352 246.208 38.0881 245.855 38.0881C245.561 38.0881 245.267 38.3234 245.267 38.5587C245.267 38.8528 244.914 39.4999 244.502 40.0881C243.796 41.0881 243.561 41.0293 240.914 39.6175C237.914 38.0293 236.208 37.8528 233.267 38.6763Z" fill="black" fill-opacity="0.75"/>
<path d="M258.031 38.9116C248.619 42.3822 245.443 56.1469 252.208 64.0292C258.855 71.7351 270.913 69.2057 274.443 59.3233C275.443 56.6175 275.502 50.6175 274.561 48.0292C272.031 40.6175 264.502 36.4998 258.031 38.9116ZM265.855 41.0292C268.09 43.441 269.09 47.441 269.09 54.2645C269.09 63.6763 267.031 67.4998 262.031 67.4998C259.208 67.4998 257.678 66.2057 256.09 62.4998C254.796 59.3822 254.325 51.0292 255.266 46.6175C256.678 39.9116 262.09 36.9704 265.855 41.0292Z" fill="black" fill-opacity="0.75"/>
<path d="M309.266 38.9116C305.855 40.1469 304.149 41.441 302.266 44.441C299.972 48.0881 299.208 51.2057 299.561 55.2645C300.619 67.0881 312.972 72.794 321.266 65.2645C327.972 59.2057 328.208 48.794 321.796 42.2057C318.031 38.2645 313.972 37.2645 309.266 38.9116ZM316.678 40.9704C318.972 43.3234 320.031 47.441 320.09 53.9704C320.149 60.6175 319.208 64.0881 316.855 66.0881C312.972 69.3822 308.443 67.2057 306.678 61.2057C305.325 56.4998 305.737 46.2645 307.384 43.0881C309.561 38.9704 313.796 37.9704 316.678 40.9704Z" fill="black" fill-opacity="0.75"/>
<path d="M386.208 38.9704C382.796 40.2057 381.208 41.5587 379.208 45.0881C377.855 47.4998 377.384 49.1469 377.149 52.441C376.855 57.4998 377.62 60.6175 380.031 63.9116C384.796 70.5587 395.796 70.2057 399.149 63.3234C400.62 60.3822 401.502 55.7351 400.561 55.7351C400.267 55.7351 399.973 56.3234 399.973 57.0292C399.973 59.7351 398.679 62.9704 396.796 64.9704C395.149 66.7939 394.443 67.1469 391.561 67.3822C388.384 67.6175 388.149 67.5587 386.208 65.6175C383.443 62.8528 382.737 59.7939 383.031 51.9116C383.326 44.3822 384.502 41.1469 387.62 39.8528C390.267 38.7351 393.502 39.4998 395.384 41.5587C396.914 43.2645 398.796 48.2645 398.796 50.5587C398.796 51.1469 399.09 51.6175 399.384 51.6175C399.737 51.6175 399.973 48.9704 399.973 44.8528C399.973 41.1469 399.796 38.0881 399.561 38.0881C399.267 38.0881 398.62 38.9116 398.031 39.9116L396.973 41.7939L395.679 40.5587C393.031 38.0881 390.09 37.5587 386.208 38.9704Z" fill="black" fill-opacity="0.75"/>
<path d="M528.266 39.1468C524.384 41.2645 522.972 46.4997 525.266 50.3233C526.795 52.8527 529.09 54.1468 534.737 55.735C540.619 57.4409 542.325 58.9115 542.325 62.3821C542.325 66.8527 538.56 69.0292 533.795 67.2645C530.854 66.088 528.737 63.6762 526.972 59.1468C526.325 57.4409 525.619 55.9115 525.501 55.7939C525.384 55.6762 525.266 58.5586 525.266 62.2645L525.325 68.9703L526.501 66.735C527.148 65.5586 527.795 64.5586 527.913 64.5586C528.09 64.5586 529.384 65.4997 530.913 66.6174C533.148 68.3821 534.09 68.6762 536.619 68.6762C542.266 68.6762 545.501 65.2645 545.443 59.3821C545.384 54.088 542.795 51.7939 534.795 49.7939C529.031 48.3233 527.384 47.2056 527.148 44.2645C526.854 40.9115 528.678 39.2645 532.737 39.2645C535.501 39.2645 536.148 39.4997 538.148 41.3821C539.678 42.735 540.854 44.4997 541.443 46.3821C541.972 47.9703 542.501 49.2645 542.678 49.2645C542.795 49.2645 542.913 46.6762 542.913 43.4997C542.913 37.9703 542.854 37.8527 541.972 39.5586C541.501 40.4997 540.972 41.3821 540.913 41.4997C540.795 41.6174 539.443 40.8527 537.854 39.9115C534.56 37.7939 531.266 37.5586 528.266 39.1468Z" fill="black" fill-opacity="0.75"/>
<path d="M103.502 39.3822C103.502 39.6763 104.267 39.8527 105.208 39.8527C108.914 39.8527 108.796 39.3233 108.796 53.6175V66.7351L106.031 67.3233C103.561 67.8527 104.325 67.9116 111.678 68.0292C119.855 68.088 121.855 67.7351 117.208 66.9704L114.973 66.6175L114.796 60.2645L114.62 53.9704H121.149H127.678L127.502 60.2645L127.325 66.5586L124.678 67.2645C122.267 67.9116 122.855 67.9704 130.561 67.9704C138.267 67.9704 138.855 67.9116 136.443 67.2645L133.796 66.5586L133.62 53.6763C133.443 39.6763 133.384 39.8527 136.914 39.8527C137.914 39.8527 138.796 39.6763 138.796 39.3822C138.796 38.9116 122.973 38.9704 122.502 39.4998C122.267 39.6763 122.796 39.8527 123.561 39.8527C127.502 39.9116 127.62 40.0292 127.62 46.3822V52.2057H121.149H114.678V46.6175C114.678 40.5586 115.09 39.8527 118.561 39.8527C119.443 39.8527 120.031 39.6763 119.796 39.4998C119.325 38.9704 103.502 38.9116 103.502 39.3822Z" fill="black" fill-opacity="0.75"/>
<path d="M139.678 39.2645C139.443 39.6174 140.208 39.8527 141.561 39.8527C145.384 39.8527 145.326 39.4998 145.149 53.7351L144.973 66.6174L142.62 66.7939C141.326 66.9115 140.031 67.2645 139.678 67.5586C139.384 67.8527 144.796 68.088 153.973 68.088H168.796V62.2645C168.796 56.2057 168.031 54.0292 167.326 57.9704C166.031 65.088 163.502 67.088 155.973 66.7939L151.443 66.6174L151.267 59.9704L151.09 53.3821H153.443C156.796 53.3821 158.267 54.8527 158.678 58.5586C159.208 64.5586 159.973 61.4998 159.973 53.088C159.973 47.7939 159.737 44.5586 159.384 44.5586C159.09 44.5586 158.796 45.6174 158.796 46.9115C158.796 50.2057 156.796 52.2057 153.502 52.2057H151.09L151.267 46.1468L151.443 40.1468L154.796 39.9704C161.561 39.6174 164.678 41.6174 165.62 46.9115C166.443 51.441 166.973 50.5586 167.031 44.6762V38.6762H153.561C145.149 38.6762 139.914 38.9115 139.678 39.2645Z" fill="black" fill-opacity="0.75"/>
<path d="M271.737 39.2058C271.737 39.5587 272.502 39.8529 273.384 39.8529C274.384 39.8529 275.56 40.4411 276.325 41.2058C277.56 42.4999 277.619 43.0882 277.619 53.4999V64.4999L276.09 65.6764C275.207 66.3823 274.031 66.9117 273.443 66.9117C272.796 66.9117 272.325 67.147 272.325 67.4999C272.325 67.8529 274.854 68.0882 278.796 68.0882C282.737 68.0882 285.266 67.8529 285.266 67.4999C285.266 67.147 284.502 66.9117 283.56 66.9117C282.619 66.9117 281.266 66.4411 280.502 65.794C279.207 64.7352 279.09 64.2058 278.678 54.794C278.266 45.9117 278.325 43.794 278.972 44.6176C281.325 47.4999 294.207 64.8529 295.149 66.4411C297.502 70.2646 297.796 69.4411 297.325 59.5587C296.854 49.794 297.325 42.8529 298.443 41.3234C298.854 40.794 300.09 40.147 301.149 39.9117C302.737 39.5587 301.796 39.3823 297.031 39.0881C290.854 38.7352 287.796 39.3234 292.325 40.0881C295.854 40.6176 296.502 42.6176 296.325 51.7352L296.149 58.794L288.796 49.0293C281.678 39.5587 281.384 39.2646 279.325 39.2646C278.149 39.2646 275.972 39.0881 274.443 38.9117C272.619 38.6176 271.737 38.7352 271.737 39.2058Z" fill="black" fill-opacity="0.75"/>
<path d="M324.678 39.2645C324.678 39.5586 325.207 39.8527 325.795 39.8527C326.384 39.8527 327.442 40.3233 328.148 40.8527C329.325 41.8527 329.442 42.6174 329.795 52.9115C330.207 65.2645 329.972 66.2056 326.325 67.3233C324.678 67.8527 325.325 67.9704 330.737 68.0292C334.854 68.088 336.972 67.8527 336.737 67.4998C336.56 67.1468 335.737 66.9115 334.913 66.9115C331.207 66.9115 330.384 63.2056 330.678 48.6762L330.854 40.1468L335.266 54.088C339.325 67.0292 340.619 69.7939 341.442 67.3233C341.56 66.9704 343.266 61.088 345.266 54.2645C347.266 47.4409 349.148 41.6762 349.442 41.3233C349.795 40.9704 349.913 45.9115 349.854 53.6762L349.678 66.6174L347.325 66.7939C346.031 66.9115 344.737 67.2645 344.442 67.5586C344.09 67.8527 347.031 68.088 352.207 68.088C357.031 68.088 360.56 67.8527 360.56 67.5586C360.56 67.2056 359.442 66.9115 358.09 66.7939L355.56 66.6174L355.384 53.7351C355.207 39.6762 355.148 39.8527 358.678 39.8527C359.678 39.8527 360.56 39.5586 360.56 39.2645C360.56 38.8527 358.501 38.6762 354.854 38.7939L349.09 38.9704L348.325 41.3233C347.854 42.6174 346.384 47.2645 345.031 51.6174L342.56 59.5586L339.207 49.088L335.795 38.6762H330.266C326.913 38.6762 324.678 38.9115 324.678 39.2645Z" fill="black" fill-opacity="0.75"/>
<path d="M361.972 39.3821C361.796 39.6174 362.619 39.8527 363.737 39.8527C367.443 39.8527 367.619 40.441 367.619 52.441C367.619 58.3821 367.443 64.088 367.266 65.088C366.913 66.7939 366.737 66.9115 364.325 66.9115C362.913 66.9115 361.737 67.1468 361.737 67.4998C361.737 67.8527 364.972 68.088 370.266 68.088C375.56 68.088 378.796 67.8527 378.796 67.4998C378.796 67.1468 377.737 66.9115 376.443 66.9115C374.737 66.9115 373.972 66.6174 373.502 65.7939C373.149 65.088 372.913 59.9704 372.913 53.1468C372.913 40.3821 373.09 39.8527 376.796 39.8527C377.913 39.8527 378.796 39.6762 378.796 39.3821C378.796 38.7939 362.325 38.7351 361.972 39.3821Z" fill="black" fill-opacity="0.75"/>
<path d="M459.384 39.2646C459.384 39.5587 460.031 39.8528 460.737 39.8528C463.678 39.8528 464.09 41.1469 464.502 52.9705C464.914 65.2646 464.62 66.3822 460.973 67.4411C459.502 67.8528 460.384 67.9705 465.267 68.0293C469.443 68.0293 471.149 67.9116 470.561 67.4999C470.09 67.2058 469.208 66.9116 468.678 66.9116C468.09 66.9116 467.149 66.2058 466.62 65.3234C465.678 63.9705 465.561 62.0881 465.443 51.9116L465.325 40.1469L467.62 47.2058C468.855 51.0881 470.855 57.3822 472.031 61.1469C474.208 68.2646 475.443 69.794 476.208 66.4999C477.09 62.9116 483.443 41.4411 483.796 41.1469C483.973 40.9705 484.09 46.6763 484.09 53.8528V66.8528L481.914 67.2058C477.855 67.9116 478.443 67.9705 486.737 67.9705C494.149 67.9705 494.678 67.9116 492.325 67.3234L489.678 66.6175L489.502 54.0293C489.384 45.2646 489.561 41.2058 490.031 40.6763C490.384 40.2058 491.62 39.8528 492.678 39.8528C493.796 39.8528 494.678 39.5587 494.678 39.2646C494.678 38.8528 492.62 38.6763 488.973 38.794L483.208 38.9705L480.443 48.3234C478.914 53.4999 477.502 58.0881 477.267 58.6175C476.914 59.4999 476.325 57.9116 471.914 43.4999L470.443 38.6763H464.914C461.62 38.6763 459.384 38.9116 459.384 39.2646Z" fill="black" fill-opacity="0.75"/>
<path d="M495.854 39.2645C495.854 39.5586 496.737 39.8527 497.796 39.8527C501.266 39.8527 501.207 39.6762 501.031 53.7351L500.854 66.6174L498.384 66.7939C496.972 66.9115 495.854 67.2057 495.854 67.5586C495.854 67.8527 501.443 68.088 509.678 68.088H523.502V61.9115C523.502 55.6174 522.796 53.7351 522.09 58.1468C521.031 64.8527 518.56 66.9115 511.678 66.9115H507.207L506.796 64.2057C506.619 62.6762 506.443 59.6174 506.443 57.441V53.3821H508.972C512.266 53.3821 513.56 54.7351 513.972 58.6762C514.502 64.5586 515.266 61.3821 515.266 53.088C515.266 44.7939 514.56 41.7351 513.913 47.3233C513.56 50.7351 511.972 52.2057 508.737 52.2057H506.443V48.2057C506.443 46.0292 506.619 43.2645 506.854 41.9704L507.207 39.7351L511.678 39.9704C514.149 40.1468 516.737 40.6174 517.502 41.088C518.737 41.8527 519.913 44.3233 521.09 48.6762C521.502 50.3233 521.619 49.6174 521.678 44.6762L521.737 38.6762H508.796C500.56 38.6762 495.854 38.9115 495.854 39.2645Z" fill="black" fill-opacity="0.75"/>
</g>
<defs>
<clipPath id="clip0_761_1598">
<rect width="545.882" height="60" fill="white" transform="translate(0.558594 17.5)"/>
</clipPath>
</defs>
</svg>
