<svg width="266" height="270" viewBox="0 0 266 270" fill="none" xmlns="http://www.w3.org/2000/svg">
<path fill-rule="evenodd" clip-rule="evenodd" d="M20 1H22V2V21H20H19H18H17H16H15H14H13H12H11V20H12V17H13V14H14V11H15V8H16V5H17V3H18V2H20V1Z" fill="#D1F686"/>
<rect x="10" y="20" width="1" height="1" fill="#262626"/>
<rect x="11" y="17" width="1" height="3" fill="#262626"/>
<rect x="12" y="14" width="1" height="3" fill="#262626"/>
<rect x="13" y="11" width="1" height="3" fill="#262626"/>
<rect x="14" y="8" width="1" height="3" fill="#262626"/>
<rect x="15" y="5" width="1" height="3" fill="#262626"/>
<rect x="16" y="3" width="1" height="2" fill="#262626"/>
<rect x="17" y="2" width="1" height="1" fill="#262626"/>
<rect x="18" y="1" width="2" height="1" fill="#262626"/>
<rect x="20" width="2" height="1" fill="#262626"/>
<rect x="10" y="21" width="12" height="1" fill="#D1F686"/>
<rect width="136" height="22" transform="translate(22)" fill="#D1F686"/>
<rect x="22" width="136" height="1" fill="#262626"/>
<path d="M28 7V7.996H25.996V16H24.004V7.996H22V7H28ZM31.468 16C31.196 16 30.936 15.948 30.688 15.844C30.448 15.732 30.232 15.584 30.04 15.4C29.856 15.208 29.708 14.992 29.596 14.752C29.484 14.504 29.428 14.244 29.428 13.972V9.028C29.428 8.772 29.48 8.524 29.584 8.284C29.696 8.036 29.844 7.82 30.028 7.636C30.212 7.444 30.428 7.292 30.676 7.18C30.924 7.06 31.188 7 31.468 7H33.376C33.656 7 33.92 7.06 34.168 7.18C34.416 7.292 34.632 7.444 34.816 7.636C35 7.82 35.144 8.036 35.248 8.284C35.36 8.524 35.416 8.772 35.416 9.028V13.972C35.416 14.244 35.36 14.504 35.248 14.752C35.136 14.992 34.984 15.208 34.792 15.4C34.608 15.584 34.392 15.732 34.144 15.844C33.904 15.948 33.648 16 33.376 16H31.468ZM33.424 14.992V7.996H31.42V14.992H33.424ZM42.8439 7H44.8479L40.2999 11.308L44.8479 16H42.8439L39.8439 12.964V16H37.8519V7H39.8439V10.024L42.8439 7ZM51.2679 12.004H49.2639V14.992H52.2639V16H47.2719V7H52.2639V7.996H49.2639V10.984H51.2679V12.004ZM55.684 10.744V16H54.688V7H55.156L60.676 12.208V7H61.684V16H61.204L55.684 10.744ZM68.3718 16V7H72.3198C72.5838 7 72.8398 7.056 73.0878 7.168C73.3358 7.272 73.5518 7.42 73.7358 7.612C73.9278 7.796 74.0798 8.012 74.1918 8.26C74.3038 8.508 74.3598 8.768 74.3598 9.04V13.96C74.3598 14.232 74.3038 14.492 74.1918 14.74C74.0798 14.988 73.9278 15.204 73.7358 15.388C73.5518 15.572 73.3358 15.72 73.0878 15.832C72.8398 15.944 72.5838 16 72.3198 16H68.3718ZM70.3638 14.992H72.3678V7.996H70.3638V14.992ZM79.7837 16H77.7917V7H79.7837V16ZM83.2157 9.748V9.028C83.2157 8.74 83.2677 8.476 83.3717 8.236C83.4837 7.988 83.6317 7.772 83.8157 7.588C84.0077 7.404 84.2277 7.26 84.4757 7.156C84.7317 7.052 85.0037 7 85.2917 7H86.1437C86.4237 7 86.6877 7.056 86.9357 7.168C87.1837 7.272 87.3997 7.416 87.5837 7.6C87.7757 7.776 87.9237 7.988 88.0277 8.236C88.1397 8.476 88.1957 8.732 88.1957 9.004H87.2117C87.2117 8.684 87.1037 8.436 86.8877 8.26C86.6797 8.076 86.3837 7.984 85.9997 7.984H85.2077V9.4C85.2077 9.52 85.2797 9.664 85.4237 9.832C85.5757 10 85.7597 10.188 85.9757 10.396C86.1997 10.596 86.4397 10.812 86.6957 11.044C86.9517 11.276 87.1877 11.516 87.4037 11.764C87.6277 12.004 87.8117 12.252 87.9557 12.508C88.1077 12.756 88.1837 13 88.1837 13.24V13.972C88.1837 14.244 88.1317 14.504 88.0277 14.752C87.9317 14.992 87.7917 15.208 87.6077 15.4C87.4317 15.584 87.2157 15.732 86.9597 15.844C86.7117 15.948 86.4357 16 86.1317 16H85.2917C85.0037 16 84.7317 15.948 84.4757 15.844C84.2277 15.732 84.0077 15.584 83.8157 15.4C83.6317 15.216 83.4837 15.004 83.3717 14.764C83.2677 14.516 83.2157 14.252 83.2157 13.972H84.2237C84.2237 14.276 84.3197 14.524 84.5117 14.716C84.7117 14.908 84.9717 15.004 85.2917 15.004H86.2037V13.54C86.2037 13.396 86.1277 13.232 85.9757 13.048C85.8317 12.856 85.6477 12.656 85.4237 12.448C85.2077 12.24 84.9677 12.024 84.7037 11.8C84.4477 11.568 84.2077 11.336 83.9837 11.104C83.7677 10.872 83.5837 10.644 83.4317 10.42C83.2877 10.188 83.2157 9.964 83.2157 9.748ZM95.6003 7V7.996H93.5963V16H91.6043V7.996H89.6003V7H95.6003ZM99.0203 10.984H101.024V7.984H99.0203V10.984ZM97.0283 16V7H101.024C101.328 7 101.6 7.048 101.84 7.144C102.088 7.24 102.3 7.376 102.476 7.552C102.652 7.728 102.784 7.94 102.872 8.188C102.968 8.436 103.016 8.708 103.016 9.004V9.868C103.016 10.212 102.96 10.492 102.848 10.708C102.736 10.916 102.612 11.08 102.476 11.2C102.348 11.312 102.228 11.388 102.116 11.428C102.004 11.468 101.948 11.488 101.948 11.488C101.948 11.488 102.004 11.516 102.116 11.572C102.228 11.62 102.348 11.712 102.476 11.848C102.612 11.976 102.736 12.152 102.848 12.376C102.96 12.592 103.016 12.872 103.016 13.216V16H101.024V12.004H99.0203V16H97.0283ZM108.44 16H106.448V7H108.44V16ZM112.028 16V7H116C116.272 7 116.532 7.048 116.78 7.144C117.028 7.24 117.24 7.376 117.416 7.552C117.6 7.728 117.744 7.94 117.848 8.188C117.96 8.436 118.016 8.712 118.016 9.016V10.084C118.016 10.372 117.96 10.608 117.848 10.792C117.744 10.976 117.628 11.12 117.5 11.224C117.372 11.32 117.252 11.388 117.14 11.428C117.036 11.468 116.984 11.488 116.984 11.488C116.984 11.488 117.036 11.512 117.14 11.56C117.252 11.608 117.372 11.692 117.5 11.812C117.628 11.924 117.744 12.076 117.848 12.268C117.96 12.452 118.016 12.68 118.016 12.952V13.972C118.016 14.236 117.968 14.492 117.872 14.74C117.776 14.988 117.64 15.204 117.464 15.388C117.288 15.572 117.076 15.72 116.828 15.832C116.58 15.944 116.304 16 116 16H112.028ZM114.02 14.992H116.024V11.992H114.02V14.992ZM114.02 10.984H116.024V7.984H114.02V10.984ZM122.288 7V15.004H124.292V7H126.284V13.972C126.284 14.228 126.228 14.48 126.116 14.728C126.012 14.968 125.868 15.184 125.684 15.376C125.5 15.56 125.284 15.712 125.036 15.832C124.788 15.944 124.524 16 124.244 16H122.336C122.056 16 121.792 15.944 121.544 15.832C121.296 15.712 121.08 15.56 120.896 15.376C120.712 15.184 120.564 14.968 120.452 14.728C120.348 14.48 120.296 14.228 120.296 13.972V7H122.288ZM133.712 7V7.996H131.708V16H129.716V7.996H127.712V7H133.712ZM138.128 16H136.136V7H138.128V16ZM143.6 16C143.328 16 143.068 15.948 142.82 15.844C142.58 15.732 142.364 15.584 142.172 15.4C141.988 15.208 141.84 14.992 141.728 14.752C141.616 14.504 141.56 14.244 141.56 13.972V9.028C141.56 8.772 141.612 8.524 141.716 8.284C141.828 8.036 141.976 7.82 142.16 7.636C142.344 7.444 142.56 7.292 142.808 7.18C143.056 7.06 143.32 7 143.6 7H145.508C145.788 7 146.052 7.06 146.3 7.18C146.548 7.292 146.764 7.444 146.948 7.636C147.132 7.82 147.276 8.036 147.38 8.284C147.492 8.524 147.548 8.772 147.548 9.028V13.972C147.548 14.244 147.492 14.504 147.38 14.752C147.268 14.992 147.116 15.208 146.924 15.4C146.74 15.584 146.524 15.732 146.276 15.844C146.036 15.948 145.78 16 145.508 16H143.6ZM145.556 14.992V7.996H143.552V14.992H145.556ZM150.98 10.744V16H149.984V7H150.452L155.972 12.208V7H156.98V16H156.5L150.98 10.744Z" fill="#262626"/>
<rect x="22" y="21" width="136" height="1" fill="#D1F686"/>
<path fill-rule="evenodd" clip-rule="evenodd" d="M160 1H158V21H160H161H162H163H164H165H166H167H168H169V20H168V17H167V14H166V11H165V8H164V5H163V3H162V2H160V1Z" fill="#D1F686"/>
<rect x="169" y="20" width="1" height="1" fill="#262626"/>
<rect x="168" y="17" width="1" height="3" fill="#262626"/>
<rect x="167" y="14" width="1" height="3" fill="#262626"/>
<rect x="166" y="11" width="1" height="3" fill="#262626"/>
<rect x="165" y="8" width="1" height="3" fill="#262626"/>
<rect x="164" y="5" width="1" height="3" fill="#262626"/>
<rect x="163" y="3" width="1" height="2" fill="#262626"/>
<rect x="162" y="2" width="1" height="1" fill="#262626"/>
<rect x="160" y="1" width="2" height="1" fill="#262626"/>
<rect x="158" width="2" height="1" fill="#262626"/>
<rect x="158" y="21" width="12" height="1" fill="#D1F686"/>
<g filter="url(#filter0_d_976_43604)">
<rect x="4" y="22" width="262" height="229" rx="7" fill="#FBFFF2"/>
<rect x="4.5" y="22.5" width="261" height="228" rx="6.5" stroke="black"/>
<mask id="path-30-outside-1_976_43604" maskUnits="userSpaceOnUse" x="39.5" y="41" width="191" height="97" fill="black">
<rect fill="white" x="39.5" y="41" width="191" height="97"/>
<path d="M40.5 136.5C40.5 124.09 42.9443 111.802 47.6934 100.336C52.4425 88.8711 59.4033 78.4535 68.1784 69.6784C76.9536 60.9033 87.3712 53.9424 98.8364 49.1934C110.302 44.4443 122.59 42 135 42C147.41 42 159.698 44.4443 171.164 49.1934C182.629 53.9425 193.046 60.9033 201.822 69.6784C210.597 78.4536 217.558 88.8712 222.307 100.336C227.056 111.802 229.5 124.09 229.5 136.5L183.361 136.5C183.361 130.149 182.11 123.861 179.679 117.993C177.249 112.126 173.687 106.795 169.196 102.304C164.705 97.8132 159.374 94.251 153.507 91.8207C147.639 89.3903 141.351 88.1394 135 88.1394C128.649 88.1394 122.361 89.3903 116.493 91.8207C110.626 94.251 105.295 97.8132 100.804 102.304C96.3132 106.795 92.751 112.126 90.3207 117.993C87.8903 123.861 86.6394 130.149 86.6394 136.5L40.5 136.5Z"/>
</mask>
<path d="M40.5 136.5C40.5 124.09 42.9443 111.802 47.6934 100.336C52.4425 88.8711 59.4033 78.4535 68.1784 69.6784C76.9536 60.9033 87.3712 53.9424 98.8364 49.1934C110.302 44.4443 122.59 42 135 42C147.41 42 159.698 44.4443 171.164 49.1934C182.629 53.9425 193.046 60.9033 201.822 69.6784C210.597 78.4536 217.558 88.8712 222.307 100.336C227.056 111.802 229.5 124.09 229.5 136.5L183.361 136.5C183.361 130.149 182.11 123.861 179.679 117.993C177.249 112.126 173.687 106.795 169.196 102.304C164.705 97.8132 159.374 94.251 153.507 91.8207C147.639 89.3903 141.351 88.1394 135 88.1394C128.649 88.1394 122.361 89.3903 116.493 91.8207C110.626 94.251 105.295 97.8132 100.804 102.304C96.3132 106.795 92.751 112.126 90.3207 117.993C87.8903 123.861 86.6394 130.149 86.6394 136.5L40.5 136.5Z" fill="#AD00FF"/>
<path d="M40.5 136.5C40.5 124.09 42.9443 111.802 47.6934 100.336C52.4425 88.8711 59.4033 78.4535 68.1784 69.6784C76.9536 60.9033 87.3712 53.9424 98.8364 49.1934C110.302 44.4443 122.59 42 135 42C147.41 42 159.698 44.4443 171.164 49.1934C182.629 53.9425 193.046 60.9033 201.822 69.6784C210.597 78.4536 217.558 88.8712 222.307 100.336C227.056 111.802 229.5 124.09 229.5 136.5L183.361 136.5C183.361 130.149 182.11 123.861 179.679 117.993C177.249 112.126 173.687 106.795 169.196 102.304C164.705 97.8132 159.374 94.251 153.507 91.8207C147.639 89.3903 141.351 88.1394 135 88.1394C128.649 88.1394 122.361 89.3903 116.493 91.8207C110.626 94.251 105.295 97.8132 100.804 102.304C96.3132 106.795 92.751 112.126 90.3207 117.993C87.8903 123.861 86.6394 130.149 86.6394 136.5L40.5 136.5Z" stroke="black" stroke-width="2" mask="url(#path-30-outside-1_976_43604)"/>
<mask id="path-31-outside-2_976_43604" maskUnits="userSpaceOnUse" x="31.7462" y="130.587" width="74.4334" height="78.8599" fill="black">
<rect fill="white" x="31.7462" y="130.587" width="74.4334" height="78.8599"/>
<path d="M40.5054 137.513C40.774 162.574 50.9873 186.503 68.8985 204.034L101.128 171.106C91.9494 162.123 86.7158 149.861 86.5781 137.019L40.5054 137.513Z"/>
</mask>
<path d="M40.5054 137.513C40.774 162.574 50.9873 186.503 68.8985 204.034L101.128 171.106C91.9494 162.123 86.7158 149.861 86.5781 137.019L40.5054 137.513Z" fill="#FFC47F"/>
<path d="M40.5054 137.513C40.774 162.574 50.9873 186.503 68.8985 204.034L101.128 171.106C91.9494 162.123 86.7158 149.861 86.5781 137.019L40.5054 137.513Z" stroke="black" stroke-width="2" mask="url(#path-31-outside-2_976_43604)"/>
<mask id="path-32-outside-3_976_43604" maskUnits="userSpaceOnUse" x="64.9791" y="167.899" width="71.0002" height="64.1132" fill="black">
<rect fill="white" x="64.9791" y="167.899" width="71.0002" height="64.1132"/>
<path d="M67.1167 202.243C84.5527 220.246 108.427 230.586 133.486 230.988L134.224 184.918C121.383 184.713 109.149 179.414 100.215 170.188L67.1167 202.243Z"/>
</mask>
<path d="M67.1167 202.243C84.5527 220.246 108.427 230.586 133.486 230.988L134.224 184.918C121.383 184.713 109.149 179.414 100.215 170.188L67.1167 202.243Z" fill="#03045E"/>
<path d="M67.1167 202.243C84.5527 220.246 108.427 230.586 133.486 230.988L134.224 184.918C121.383 184.713 109.149 179.414 100.215 170.188L67.1167 202.243Z" stroke="black" stroke-width="2" mask="url(#path-32-outside-3_976_43604)"/>
<mask id="path-33-outside-4_976_43604" maskUnits="userSpaceOnUse" x="118.245" y="173.859" width="65.1671" height="70.0512" fill="black">
<rect fill="white" x="118.245" y="173.859" width="65.1671" height="70.0512"/>
<path d="M134.465 230.999C146.376 231.066 158.191 228.881 169.29 224.56L152.571 181.624C146.884 183.839 140.829 184.959 134.726 184.924L134.465 230.999Z"/>
</mask>
<path d="M134.465 230.999C146.376 231.066 158.191 228.881 169.29 224.56L152.571 181.624C146.884 183.839 140.829 184.959 134.726 184.924L134.465 230.999Z" fill="#DFFFD3"/>
<path d="M134.465 230.999C146.376 231.066 158.191 228.881 169.29 224.56L152.571 181.624C146.884 183.839 140.829 184.959 134.726 184.924L134.465 230.999Z" stroke="black" stroke-width="2" mask="url(#path-33-outside-4_976_43604)"/>
<mask id="path-34-outside-5_976_43604" maskUnits="userSpaceOnUse" x="136.186" y="149.573" width="84.7782" height="87.5648" fill="black">
<rect fill="white" x="136.186" y="149.573" width="84.7782" height="87.5648"/>
<path d="M170.018 224.273C191.391 215.745 208.919 199.712 219.312 179.181L178.204 158.371C172.878 168.892 163.897 177.108 152.944 181.477L170.018 224.273Z"/>
</mask>
<path d="M170.018 224.273C191.391 215.745 208.919 199.712 219.312 179.181L178.204 158.371C172.878 168.892 163.897 177.108 152.944 181.477L170.018 224.273Z" fill="#FFF57F"/>
<path d="M170.018 224.273C191.391 215.745 208.919 199.712 219.312 179.181L178.204 158.371C172.878 168.892 163.897 177.108 152.944 181.477L170.018 224.273Z" stroke="black" stroke-width="2" mask="url(#path-34-outside-5_976_43604)"/>
<mask id="path-35-outside-6_976_43604" maskUnits="userSpaceOnUse" x="168.252" y="113.171" width="76.8193" height="75.8378" fill="black">
<rect fill="white" x="168.252" y="113.171" width="76.8193" height="75.8378"/>
<path d="M218.405 180.928C225.416 167.766 229.213 153.132 229.484 138.221L183.417 137.382C183.277 145.023 181.332 152.522 177.739 159.266L218.405 180.928Z"/>
</mask>
<path d="M218.405 180.928C225.416 167.766 229.213 153.132 229.484 138.221L183.417 137.382C183.277 145.023 181.332 152.522 177.739 159.266L218.405 180.928Z" fill="#333399"/>
<path d="M218.405 180.928C225.416 167.766 229.213 153.132 229.484 138.221L183.417 137.382C183.277 145.023 181.332 152.522 177.739 159.266L218.405 180.928Z" stroke="black" stroke-width="2" mask="url(#path-35-outside-6_976_43604)"/>
<path d="M128 68.012L129.968 68.012C130.224 68.012 130.472 68.072 130.712 68.192C130.96 68.312 131.176 68.468 131.36 68.66C131.552 68.852 131.704 69.072 131.816 69.32C131.936 69.568 131.996 69.816 131.996 70.064V71.972C131.996 72.228 131.936 72.48 131.816 72.728C131.704 72.968 131.552 73.184 131.36 73.376C131.176 73.56 130.96 73.712 130.712 73.832C130.472 73.944 130.224 74 129.968 74L128.072 74C127.808 74 127.552 73.944 127.304 73.832C127.056 73.712 126.836 73.56 126.644 73.376C126.452 73.184 126.296 72.968 126.176 72.728C126.064 72.48 126.008 72.228 126.008 71.972L126.98 71.972C126.98 72.276 127.08 72.524 127.28 72.716C127.488 72.908 127.752 73.004 128.072 73.004L130.004 73.004L130.004 68.996L126.008 68.996L126.008 65L131.948 65L131.948 65.996L128 65.996V68.012ZM136.472 74C136.2 74 135.94 73.948 135.692 73.844C135.444 73.732 135.228 73.584 135.044 73.4C134.86 73.208 134.712 72.992 134.6 72.752C134.488 72.504 134.432 72.244 134.432 71.972L134.432 67.028C134.432 66.772 134.488 66.524 134.6 66.284C134.712 66.036 134.86 65.82 135.044 65.636C135.228 65.444 135.444 65.292 135.692 65.18C135.94 65.06 136.2 65 136.472 65L138.38 65C138.652 65 138.908 65.06 139.148 65.18C139.396 65.292 139.612 65.444 139.796 65.636C139.988 65.82 140.14 66.036 140.252 66.284C140.364 66.524 140.42 66.772 140.42 67.028L140.42 71.972C140.42 72.244 140.364 72.504 140.252 72.752C140.14 72.992 139.988 73.208 139.796 73.4C139.612 73.584 139.396 73.732 139.148 73.844C138.908 73.948 138.652 74 138.38 74L136.472 74ZM138.428 72.992L138.428 65.996L136.424 65.996L136.424 72.992L138.428 72.992ZM143.696 66.74C143.696 66.868 143.72 66.988 143.768 67.1C143.816 67.212 143.88 67.312 143.96 67.4C144.048 67.48 144.148 67.544 144.26 67.592C144.38 67.64 144.504 67.664 144.632 67.664C144.76 67.664 144.88 67.64 144.992 67.592C145.112 67.536 145.212 67.468 145.292 67.388C145.38 67.3 145.448 67.2 145.496 67.088C145.544 66.976 145.568 66.86 145.568 66.74C145.568 66.484 145.476 66.264 145.292 66.08C145.108 65.888 144.888 65.792 144.632 65.792C144.376 65.792 144.156 65.884 143.972 66.068C143.788 66.252 143.696 66.476 143.696 66.74ZM146.408 66.74C146.408 66.98 146.36 67.208 146.264 67.424C146.176 67.64 146.052 67.832 145.892 68C145.732 68.16 145.544 68.288 145.328 68.384C145.112 68.472 144.88 68.516 144.632 68.516C144.384 68.516 144.152 68.472 143.936 68.384C143.72 68.288 143.532 68.16 143.372 68C143.212 67.832 143.084 67.64 142.988 67.424C142.9 67.208 142.856 66.98 142.856 66.74C142.856 66.492 142.9 66.26 142.988 66.044C143.084 65.828 143.212 65.64 143.372 65.48C143.54 65.32 143.732 65.192 143.948 65.096C144.164 65 144.392 64.952 144.632 64.952L149.576 64.952L145.196 74L144.008 74L147.992 65.852L146.18 65.852C146.26 66.012 146.316 66.156 146.348 66.284C146.388 66.404 146.408 66.556 146.408 66.74ZM149.156 70.424C149.404 70.424 149.636 70.472 149.852 70.568C150.068 70.664 150.256 70.792 150.416 70.952C150.584 71.112 150.712 71.3 150.8 71.516C150.896 71.732 150.944 71.964 150.944 72.212C150.944 72.46 150.896 72.692 150.8 72.908C150.712 73.124 150.584 73.316 150.416 73.484C150.256 73.644 150.068 73.772 149.852 73.868C149.636 73.956 149.404 74 149.156 74C148.908 74 148.676 73.956 148.46 73.868C148.244 73.772 148.052 73.644 147.884 73.484C147.724 73.316 147.596 73.124 147.5 72.908C147.412 72.692 147.368 72.46 147.368 72.212C147.368 71.964 147.412 71.732 147.5 71.516C147.596 71.3 147.724 71.112 147.884 70.952C148.052 70.792 148.244 70.664 148.46 70.568C148.676 70.472 148.908 70.424 149.156 70.424ZM148.196 72.212C148.196 72.468 148.288 72.692 148.472 72.884C148.664 73.068 148.892 73.16 149.156 73.16C149.284 73.16 149.404 73.136 149.516 73.088C149.636 73.032 149.74 72.964 149.828 72.884C149.924 72.796 149.996 72.696 150.044 72.584C150.1 72.464 150.128 72.34 150.128 72.212C150.128 71.94 150.032 71.712 149.84 71.528C149.648 71.336 149.42 71.24 149.156 71.24C148.884 71.24 148.656 71.336 148.472 71.528C148.288 71.712 148.196 71.94 148.196 72.212Z" fill="white"/>
<path d="M55.004 167H53L53 158.984L52.004 160.004L52.004 158.984L53 158H55.004L55.004 167ZM61.4719 167C61.1999 167 60.9399 166.948 60.6919 166.844C60.4439 166.732 60.2279 166.584 60.0439 166.4C59.8599 166.208 59.7119 165.992 59.5999 165.752C59.4879 165.504 59.4319 165.244 59.4319 164.972L59.4319 160.028C59.4319 159.772 59.4879 159.524 59.5999 159.284C59.7119 159.036 59.8599 158.82 60.0439 158.636C60.2279 158.444 60.4439 158.292 60.6919 158.18C60.9399 158.06 61.1999 158 61.4719 158L63.3799 158C63.6519 158 63.9079 158.06 64.1479 158.18C64.3959 158.292 64.6119 158.444 64.7959 158.636C64.9879 158.82 65.1399 159.036 65.2519 159.284C65.3639 159.524 65.4199 159.772 65.4199 160.028L65.4199 164.972C65.4199 165.244 65.3639 165.504 65.2519 165.752C65.1399 165.992 64.9879 166.208 64.7959 166.4C64.6119 166.584 64.3959 166.732 64.1479 166.844C63.9079 166.948 63.6519 167 63.3799 167L61.4719 167ZM63.4279 165.992L63.4279 158.996L61.4239 158.996L61.4239 165.992L63.4279 165.992ZM68.6958 159.74C68.6958 159.868 68.7198 159.988 68.7678 160.1C68.8158 160.212 68.8798 160.312 68.9598 160.4C69.0478 160.48 69.1478 160.544 69.2598 160.592C69.3798 160.64 69.5038 160.664 69.6318 160.664C69.7598 160.664 69.8798 160.64 69.9918 160.592C70.1118 160.536 70.2118 160.468 70.2918 160.388C70.3798 160.3 70.4478 160.2 70.4958 160.088C70.5438 159.976 70.5678 159.86 70.5678 159.74C70.5678 159.484 70.4758 159.264 70.2918 159.08C70.1078 158.888 69.8878 158.792 69.6318 158.792C69.3758 158.792 69.1558 158.884 68.9718 159.068C68.7878 159.252 68.6958 159.476 68.6958 159.74ZM71.4078 159.74C71.4078 159.98 71.3598 160.208 71.2638 160.424C71.1758 160.64 71.0518 160.832 70.8918 161C70.7318 161.16 70.5438 161.288 70.3278 161.384C70.1118 161.472 69.8798 161.516 69.6318 161.516C69.3838 161.516 69.1518 161.472 68.9358 161.384C68.7198 161.288 68.5318 161.16 68.3718 161C68.2118 160.832 68.0838 160.64 67.9878 160.424C67.8998 160.208 67.8558 159.98 67.8558 159.74C67.8558 159.492 67.8998 159.26 67.9878 159.044C68.0838 158.828 68.2118 158.64 68.3718 158.48C68.5398 158.32 68.7318 158.192 68.9478 158.096C69.1638 158 69.3918 157.952 69.6318 157.952L74.5758 157.952L70.1958 167H69.0078L72.9918 158.852L71.1798 158.852C71.2598 159.012 71.3158 159.156 71.3478 159.284C71.3878 159.404 71.4078 159.556 71.4078 159.74ZM74.1558 163.424C74.4038 163.424 74.6358 163.472 74.8518 163.568C75.0678 163.664 75.2558 163.792 75.4158 163.952C75.5838 164.112 75.7118 164.3 75.7998 164.516C75.8958 164.732 75.9438 164.964 75.9438 165.212C75.9438 165.46 75.8958 165.692 75.7998 165.908C75.7118 166.124 75.5838 166.316 75.4158 166.484C75.2558 166.644 75.0678 166.772 74.8518 166.868C74.6358 166.956 74.4038 167 74.1558 167C73.9078 167 73.6758 166.956 73.4598 166.868C73.2438 166.772 73.0518 166.644 72.8838 166.484C72.7238 166.316 72.5958 166.124 72.4998 165.908C72.4118 165.692 72.3678 165.46 72.3678 165.212C72.3678 164.964 72.4118 164.732 72.4998 164.516C72.5958 164.3 72.7238 164.112 72.8838 163.952C73.0518 163.792 73.2438 163.664 73.4598 163.568C73.6758 163.472 73.9078 163.424 74.1558 163.424ZM73.1958 165.212C73.1958 165.468 73.2878 165.692 73.4718 165.884C73.6638 166.068 73.8918 166.16 74.1558 166.16C74.2838 166.16 74.4038 166.136 74.5158 166.088C74.6358 166.032 74.7398 165.964 74.8278 165.884C74.9238 165.796 74.9958 165.696 75.0438 165.584C75.0998 165.464 75.1278 165.34 75.1278 165.212C75.1278 164.94 75.0318 164.712 74.8398 164.528C74.6478 164.336 74.4198 164.24 74.1558 164.24C73.8838 164.24 73.6558 164.336 73.4718 164.528C73.2878 164.712 73.1958 164.94 73.1958 165.212Z" fill="black"/>
<path d="M195.004 157.004L195.004 152.996H193L193 157.004H195.004ZM196.06 149.996L194.62 149.996L193 151.592V152.012H194.956C195.228 152.012 195.484 152.072 195.724 152.192C195.972 152.312 196.188 152.468 196.372 152.66C196.564 152.852 196.716 153.072 196.828 153.32C196.94 153.568 196.996 153.816 196.996 154.064V155.972C196.996 156.244 196.94 156.504 196.828 156.752C196.716 156.992 196.564 157.208 196.372 157.4C196.188 157.584 195.972 157.732 195.724 157.844C195.484 157.948 195.228 158 194.956 158H193.048C192.776 158 192.516 157.948 192.268 157.844C192.02 157.732 191.804 157.584 191.62 157.4C191.436 157.208 191.288 156.992 191.176 156.752C191.064 156.504 191.008 156.244 191.008 155.972L191.008 151.964L193.984 149L196.06 149L196.06 149.996ZM201.424 158L199.432 158L199.432 155.996L201.424 155.996L201.424 158ZM205.84 152.012L207.808 152.012C208.064 152.012 208.312 152.072 208.552 152.192C208.8 152.312 209.016 152.468 209.2 152.66C209.392 152.852 209.544 153.072 209.656 153.32C209.776 153.568 209.836 153.816 209.836 154.064V155.972C209.836 156.228 209.776 156.48 209.656 156.728C209.544 156.968 209.392 157.184 209.2 157.376C209.016 157.56 208.8 157.712 208.552 157.832C208.312 157.944 208.064 158 207.808 158L205.912 158C205.648 158 205.392 157.944 205.144 157.832C204.896 157.712 204.676 157.56 204.484 157.376C204.292 157.184 204.136 156.968 204.016 156.728C203.904 156.48 203.848 156.228 203.848 155.972H204.82C204.82 156.276 204.92 156.524 205.12 156.716C205.328 156.908 205.592 157.004 205.912 157.004L207.844 157.004L207.844 152.996L203.848 152.996L203.848 149L209.788 149L209.788 149.996L205.84 149.996V152.012ZM213.112 150.74C213.112 150.868 213.136 150.988 213.184 151.1C213.232 151.212 213.296 151.312 213.376 151.4C213.464 151.48 213.564 151.544 213.676 151.592C213.796 151.64 213.92 151.664 214.048 151.664C214.176 151.664 214.296 151.64 214.408 151.592C214.528 151.536 214.628 151.468 214.708 151.388C214.796 151.3 214.864 151.2 214.912 151.088C214.96 150.976 214.984 150.86 214.984 150.74C214.984 150.484 214.892 150.264 214.708 150.08C214.524 149.888 214.304 149.792 214.048 149.792C213.792 149.792 213.572 149.884 213.388 150.068C213.204 150.252 213.112 150.476 213.112 150.74ZM215.824 150.74C215.824 150.98 215.776 151.208 215.68 151.424C215.592 151.64 215.468 151.832 215.308 152C215.148 152.16 214.96 152.288 214.744 152.384C214.528 152.472 214.296 152.516 214.048 152.516C213.8 152.516 213.568 152.472 213.352 152.384C213.136 152.288 212.948 152.16 212.788 152C212.628 151.832 212.5 151.64 212.404 151.424C212.316 151.208 212.272 150.98 212.272 150.74C212.272 150.492 212.316 150.26 212.404 150.044C212.5 149.828 212.628 149.64 212.788 149.48C212.956 149.32 213.148 149.192 213.364 149.096C213.58 149 213.808 148.952 214.048 148.952L218.992 148.952L214.612 158H213.424L217.408 149.852L215.596 149.852C215.676 150.012 215.732 150.156 215.764 150.284C215.804 150.404 215.824 150.556 215.824 150.74ZM218.572 154.424C218.82 154.424 219.052 154.472 219.268 154.568C219.484 154.664 219.672 154.792 219.832 154.952C220 155.112 220.128 155.3 220.216 155.516C220.312 155.732 220.36 155.964 220.36 156.212C220.36 156.46 220.312 156.692 220.216 156.908C220.128 157.124 220 157.316 219.832 157.484C219.672 157.644 219.484 157.772 219.268 157.868C219.052 157.956 218.82 158 218.572 158C218.324 158 218.092 157.956 217.876 157.868C217.66 157.772 217.468 157.644 217.3 157.484C217.14 157.316 217.012 157.124 216.916 156.908C216.828 156.692 216.784 156.46 216.784 156.212C216.784 155.964 216.828 155.732 216.916 155.516C217.012 155.3 217.14 155.112 217.3 154.952C217.468 154.792 217.66 154.664 217.876 154.568C218.092 154.472 218.324 154.424 218.572 154.424ZM217.612 156.212C217.612 156.468 217.704 156.692 217.888 156.884C218.08 157.068 218.308 157.16 218.572 157.16C218.7 157.16 218.82 157.136 218.932 157.088C219.052 157.032 219.156 156.964 219.244 156.884C219.34 156.796 219.412 156.696 219.46 156.584C219.516 156.464 219.544 156.34 219.544 156.212C219.544 155.94 219.448 155.712 219.256 155.528C219.064 155.336 218.836 155.24 218.572 155.24C218.3 155.24 218.072 155.336 217.888 155.528C217.704 155.712 217.612 155.94 217.612 156.212Z" fill="white"/>
<path d="M170.004 194H168L168 185.984L167.004 187.004L167.004 185.984L168 185H170.004L170.004 194ZM178.428 194L176.424 194L176.424 185.984L175.428 187.004V185.984L176.424 185L178.428 185L178.428 194ZM184.848 194L182.856 194L182.856 191.996L184.848 191.996L184.848 194ZM189.264 188.012L191.232 188.012C191.488 188.012 191.736 188.072 191.976 188.192C192.224 188.312 192.44 188.468 192.624 188.66C192.816 188.852 192.968 189.072 193.08 189.32C193.2 189.568 193.26 189.816 193.26 190.064V191.972C193.26 192.228 193.2 192.48 193.08 192.728C192.968 192.968 192.816 193.184 192.624 193.376C192.44 193.56 192.224 193.712 191.976 193.832C191.736 193.944 191.488 194 191.232 194L189.336 194C189.072 194 188.816 193.944 188.568 193.832C188.32 193.712 188.1 193.56 187.908 193.376C187.716 193.184 187.56 192.968 187.44 192.728C187.328 192.48 187.272 192.228 187.272 191.972L188.244 191.972C188.244 192.276 188.344 192.524 188.544 192.716C188.752 192.908 189.016 193.004 189.336 193.004L191.268 193.004L191.268 188.996L187.272 188.996L187.272 185L193.212 185L193.212 185.996L189.264 185.996V188.012ZM196.536 186.74C196.536 186.868 196.56 186.988 196.608 187.1C196.656 187.212 196.72 187.312 196.8 187.4C196.888 187.48 196.988 187.544 197.1 187.592C197.22 187.64 197.344 187.664 197.472 187.664C197.6 187.664 197.72 187.64 197.832 187.592C197.952 187.536 198.052 187.468 198.132 187.388C198.22 187.3 198.288 187.2 198.336 187.088C198.384 186.976 198.408 186.86 198.408 186.74C198.408 186.484 198.316 186.264 198.132 186.08C197.948 185.888 197.728 185.792 197.472 185.792C197.216 185.792 196.996 185.884 196.812 186.068C196.628 186.252 196.536 186.476 196.536 186.74ZM199.248 186.74C199.248 186.98 199.2 187.208 199.104 187.424C199.016 187.64 198.892 187.832 198.732 188C198.572 188.16 198.384 188.288 198.168 188.384C197.952 188.472 197.72 188.516 197.472 188.516C197.224 188.516 196.992 188.472 196.776 188.384C196.56 188.288 196.372 188.16 196.212 188C196.052 187.832 195.924 187.64 195.828 187.424C195.74 187.208 195.696 186.98 195.696 186.74C195.696 186.492 195.74 186.26 195.828 186.044C195.924 185.828 196.052 185.64 196.212 185.48C196.38 185.32 196.572 185.192 196.788 185.096C197.004 185 197.232 184.952 197.472 184.952L202.416 184.952L198.036 194H196.848L200.832 185.852L199.02 185.852C199.1 186.012 199.156 186.156 199.188 186.284C199.228 186.404 199.248 186.556 199.248 186.74ZM201.996 190.424C202.244 190.424 202.476 190.472 202.692 190.568C202.908 190.664 203.096 190.792 203.256 190.952C203.424 191.112 203.552 191.3 203.64 191.516C203.736 191.732 203.784 191.964 203.784 192.212C203.784 192.46 203.736 192.692 203.64 192.908C203.552 193.124 203.424 193.316 203.256 193.484C203.096 193.644 202.908 193.772 202.692 193.868C202.476 193.956 202.244 194 201.996 194C201.748 194 201.516 193.956 201.3 193.868C201.084 193.772 200.892 193.644 200.724 193.484C200.564 193.316 200.436 193.124 200.34 192.908C200.252 192.692 200.208 192.46 200.208 192.212C200.208 191.964 200.252 191.732 200.34 191.516C200.436 191.3 200.564 191.112 200.724 190.952C200.892 190.792 201.084 190.664 201.3 190.568C201.516 190.472 201.748 190.424 201.996 190.424ZM201.036 192.212C201.036 192.468 201.128 192.692 201.312 192.884C201.504 193.068 201.732 193.16 201.996 193.16C202.124 193.16 202.244 193.136 202.356 193.088C202.476 193.032 202.58 192.964 202.668 192.884C202.764 192.796 202.836 192.696 202.884 192.584C202.94 192.464 202.968 192.34 202.968 192.212C202.968 191.94 202.872 191.712 202.68 191.528C202.488 191.336 202.26 191.24 201.996 191.24C201.724 191.24 201.496 191.336 201.312 191.528C201.128 191.712 201.036 191.94 201.036 192.212Z" fill="#0B0B06"/>
<path d="M90.004 208H88L88 199.984L87.004 201.004L87.004 199.984L88 199H90.004L90.004 208ZM96.4719 208C96.1999 208 95.9399 207.948 95.6919 207.844C95.4439 207.732 95.2279 207.584 95.0439 207.4C94.8599 207.208 94.7119 206.992 94.5999 206.752C94.4879 206.504 94.4319 206.244 94.4319 205.972L94.4319 201.028C94.4319 200.772 94.4879 200.524 94.5999 200.284C94.7119 200.036 94.8599 199.82 95.0439 199.636C95.2279 199.444 95.4439 199.292 95.6919 199.18C95.9399 199.06 96.1999 199 96.4719 199L98.3799 199C98.6519 199 98.9079 199.06 99.1479 199.18C99.3959 199.292 99.6119 199.444 99.7959 199.636C99.9879 199.82 100.14 200.036 100.252 200.284C100.364 200.524 100.42 200.772 100.42 201.028L100.42 205.972C100.42 206.244 100.364 206.504 100.252 206.752C100.14 206.992 99.9879 207.208 99.7959 207.4C99.6119 207.584 99.3959 207.732 99.1479 207.844C98.9079 207.948 98.6519 208 98.3799 208L96.4719 208ZM98.4279 206.992L98.4279 199.996L96.4239 199.996L96.4239 206.992L98.4279 206.992ZM103.696 200.74C103.696 200.868 103.72 200.988 103.768 201.1C103.816 201.212 103.88 201.312 103.96 201.4C104.048 201.48 104.148 201.544 104.26 201.592C104.38 201.64 104.504 201.664 104.632 201.664C104.76 201.664 104.88 201.64 104.992 201.592C105.112 201.536 105.212 201.468 105.292 201.388C105.38 201.3 105.448 201.2 105.496 201.088C105.544 200.976 105.568 200.86 105.568 200.74C105.568 200.484 105.476 200.264 105.292 200.08C105.108 199.888 104.888 199.792 104.632 199.792C104.376 199.792 104.156 199.884 103.972 200.068C103.788 200.252 103.696 200.476 103.696 200.74ZM106.408 200.74C106.408 200.98 106.36 201.208 106.264 201.424C106.176 201.64 106.052 201.832 105.892 202C105.732 202.16 105.544 202.288 105.328 202.384C105.112 202.472 104.88 202.516 104.632 202.516C104.384 202.516 104.152 202.472 103.936 202.384C103.72 202.288 103.532 202.16 103.372 202C103.212 201.832 103.084 201.64 102.988 201.424C102.9 201.208 102.856 200.98 102.856 200.74C102.856 200.492 102.9 200.26 102.988 200.044C103.084 199.828 103.212 199.64 103.372 199.48C103.54 199.32 103.732 199.192 103.948 199.096C104.164 199 104.392 198.952 104.632 198.952L109.576 198.952L105.196 208H104.008L107.992 199.852L106.18 199.852C106.26 200.012 106.316 200.156 106.348 200.284C106.388 200.404 106.408 200.556 106.408 200.74ZM109.156 204.424C109.404 204.424 109.636 204.472 109.852 204.568C110.068 204.664 110.256 204.792 110.416 204.952C110.584 205.112 110.712 205.3 110.8 205.516C110.896 205.732 110.944 205.964 110.944 206.212C110.944 206.46 110.896 206.692 110.8 206.908C110.712 207.124 110.584 207.316 110.416 207.484C110.256 207.644 110.068 207.772 109.852 207.868C109.636 207.956 109.404 208 109.156 208C108.908 208 108.676 207.956 108.46 207.868C108.244 207.772 108.052 207.644 107.884 207.484C107.724 207.316 107.596 207.124 107.5 206.908C107.412 206.692 107.368 206.46 107.368 206.212C107.368 205.964 107.412 205.732 107.5 205.516C107.596 205.3 107.724 205.112 107.884 204.952C108.052 204.792 108.244 204.664 108.46 204.568C108.676 204.472 108.908 204.424 109.156 204.424ZM108.196 206.212C108.196 206.468 108.288 206.692 108.472 206.884C108.664 207.068 108.892 207.16 109.156 207.16C109.284 207.16 109.404 207.136 109.516 207.088C109.636 207.032 109.74 206.964 109.828 206.884C109.924 206.796 109.996 206.696 110.044 206.584C110.1 206.464 110.128 206.34 110.128 206.212C110.128 205.94 110.032 205.712 109.84 205.528C109.648 205.336 109.42 205.24 109.156 205.24C108.884 205.24 108.656 205.336 108.472 205.528C108.288 205.712 108.196 205.94 108.196 206.212Z" fill="white"/>
<path d="M141.004 214H139L139 205.984L138.004 207.004L138.004 205.984L139 205H141.004L141.004 214ZM148.648 205.984L146.716 205.984C146.58 205.984 146.448 206.012 146.32 206.068C146.192 206.124 146.076 206.2 145.972 206.296C145.868 206.384 145.784 206.492 145.72 206.62C145.656 206.74 145.624 206.868 145.624 207.004L144.652 207.004C144.652 206.74 144.708 206.488 144.82 206.248C144.94 206.008 145.096 205.796 145.288 205.612C145.48 205.428 145.7 205.28 145.948 205.168C146.196 205.056 146.452 205 146.716 205L148.564 205C148.828 205 149.084 205.06 149.332 205.18C149.58 205.292 149.8 205.444 149.992 205.636C150.192 205.828 150.348 206.048 150.46 206.296C150.58 206.536 150.64 206.788 150.64 207.052L150.64 208.444L146.668 212.5V213.004L150.64 213.004L150.64 214L144.652 214L144.652 212.608L148.648 208.516L148.648 205.984ZM153.136 206.74C153.136 206.868 153.16 206.988 153.208 207.1C153.256 207.212 153.32 207.312 153.4 207.4C153.488 207.48 153.588 207.544 153.7 207.592C153.82 207.64 153.944 207.664 154.072 207.664C154.2 207.664 154.32 207.64 154.432 207.592C154.552 207.536 154.652 207.468 154.732 207.388C154.82 207.3 154.888 207.2 154.936 207.088C154.984 206.976 155.008 206.86 155.008 206.74C155.008 206.484 154.916 206.264 154.732 206.08C154.548 205.888 154.328 205.792 154.072 205.792C153.816 205.792 153.596 205.884 153.412 206.068C153.228 206.252 153.136 206.476 153.136 206.74ZM155.848 206.74C155.848 206.98 155.8 207.208 155.704 207.424C155.616 207.64 155.492 207.832 155.332 208C155.172 208.16 154.984 208.288 154.768 208.384C154.552 208.472 154.32 208.516 154.072 208.516C153.824 208.516 153.592 208.472 153.376 208.384C153.16 208.288 152.972 208.16 152.812 208C152.652 207.832 152.524 207.64 152.428 207.424C152.34 207.208 152.296 206.98 152.296 206.74C152.296 206.492 152.34 206.26 152.428 206.044C152.524 205.828 152.652 205.64 152.812 205.48C152.98 205.32 153.172 205.192 153.388 205.096C153.604 205 153.832 204.952 154.072 204.952L159.016 204.952L154.636 214H153.448L157.432 205.852L155.62 205.852C155.7 206.012 155.756 206.156 155.788 206.284C155.828 206.404 155.848 206.556 155.848 206.74ZM158.596 210.424C158.844 210.424 159.076 210.472 159.292 210.568C159.508 210.664 159.696 210.792 159.856 210.952C160.024 211.112 160.152 211.3 160.24 211.516C160.336 211.732 160.384 211.964 160.384 212.212C160.384 212.46 160.336 212.692 160.24 212.908C160.152 213.124 160.024 213.316 159.856 213.484C159.696 213.644 159.508 213.772 159.292 213.868C159.076 213.956 158.844 214 158.596 214C158.348 214 158.116 213.956 157.9 213.868C157.684 213.772 157.492 213.644 157.324 213.484C157.164 213.316 157.036 213.124 156.94 212.908C156.852 212.692 156.808 212.46 156.808 212.212C156.808 211.964 156.852 211.732 156.94 211.516C157.036 211.3 157.164 211.112 157.324 210.952C157.492 210.792 157.684 210.664 157.9 210.568C158.116 210.472 158.348 210.424 158.596 210.424ZM157.636 212.212C157.636 212.468 157.728 212.692 157.912 212.884C158.104 213.068 158.332 213.16 158.596 213.16C158.724 213.16 158.844 213.136 158.956 213.088C159.076 213.032 159.18 212.964 159.268 212.884C159.364 212.796 159.436 212.696 159.484 212.584C159.54 212.464 159.568 212.34 159.568 212.212C159.568 211.94 159.472 211.712 159.28 211.528C159.088 211.336 158.86 211.24 158.596 211.24C158.324 211.24 158.096 211.336 157.912 211.528C157.728 211.712 157.636 211.94 157.636 212.212Z" fill="#1B2010"/>
</g>
<defs>
<filter id="filter0_d_976_43604" x="0" y="22" width="266" height="234" filterUnits="userSpaceOnUse" color-interpolation-filters="sRGB">
<feFlood flood-opacity="0" result="BackgroundImageFix"/>
<feColorMatrix in="SourceAlpha" type="matrix" values="0 0 0 0 0 0 0 0 0 0 0 0 0 0 0 0 0 0 127 0" result="hardAlpha"/>
<feOffset dx="-4" dy="5"/>
<feComposite in2="hardAlpha" operator="out"/>
<feColorMatrix type="matrix" values="0 0 0 0 0 0 0 0 0 0 0 0 0 0 0 0 0 0 0.05 0"/>
<feBlend mode="normal" in2="BackgroundImageFix" result="effect1_dropShadow_976_43604"/>
<feBlend mode="normal" in="SourceGraphic" in2="effect1_dropShadow_976_43604" result="shape"/>
</filter>
</defs>
</svg>
