<svg width="411" height="95" viewBox="0 0 411 95" fill="none" xmlns="http://www.w3.org/2000/svg">
<g clip-path="url(#clip0_761_1791)">
<path d="M30.8569 64.6437H15.8569V41.0723H0.856934V26.0723H30.8569V64.6437ZM60.8569 64.6437H43.7141L59.7855 26.0723H76.9284L60.8569 64.6437Z" fill="black" fill-opacity="0.75"/>
<path d="M43.7164 43.2171C48.4503 43.2171 52.2879 39.3795 52.2879 34.6456C52.2879 29.9118 48.4503 26.0742 43.7164 26.0742C38.9826 26.0742 35.145 29.9118 35.145 34.6456C35.145 39.3795 38.9826 43.2171 43.7164 43.2171Z" fill="black" fill-opacity="0.75"/>
</g>
<g clip-path="url(#clip1_761_1791)">
<path d="M105.413 64.694H113.346V33.6118H123.724V26.114H95.1426V33.614H105.413V64.694ZM123.735 64.694H131.179V51.7082C131.179 47.1975 133.515 44.4804 137.05 44.4804C138.298 44.4804 139.277 44.6968 140.417 45.0782V37.5247C139.605 37.29 138.763 37.1802 137.918 37.199C134.875 37.199 132.105 39.209 131.179 41.8704V37.5268H123.735V64.694ZM154.705 65.2918C158.455 65.2918 161.28 63.389 162.531 61.649V64.6918H169.975V37.5268H162.531V40.5697C161.28 38.8318 158.455 36.929 154.705 36.929C147.48 36.929 141.936 43.4497 141.936 51.1104C141.936 58.7732 147.48 65.294 154.708 65.294L154.705 65.2918ZM156.283 58.499C152.151 58.499 149.434 55.4025 149.434 51.1104C149.434 46.8161 152.151 43.7175 156.283 43.7175C160.412 43.7175 163.129 46.8161 163.129 51.1104C163.129 55.4025 160.412 58.499 156.283 58.499ZM187.699 65.2918C191.449 65.2918 194.273 63.389 195.523 61.649V64.6918H202.967V23.9432H195.523V40.5718C194.273 38.8318 191.449 36.929 187.699 36.929C180.471 36.929 174.928 43.4497 174.928 51.1104C174.928 58.7732 180.471 65.294 187.699 65.294V65.2918ZM189.274 58.499C185.145 58.499 182.428 55.4025 182.428 51.1104C182.428 46.8161 185.145 43.7175 189.274 43.7175C193.403 43.7175 196.12 46.8161 196.12 51.1104C196.12 55.4025 193.403 58.499 189.274 58.499ZM213.355 33.3825C213.98 33.3879 214.6 33.2697 215.179 33.0347C215.758 32.7998 216.285 32.4526 216.73 32.0134C217.174 31.5741 217.527 31.0512 217.769 30.475C218.011 29.8987 218.136 29.2803 218.138 28.6554C218.136 28.0305 218.011 27.4121 217.769 26.8358C217.527 26.2595 217.174 25.7367 216.73 25.2974C216.285 24.8581 215.758 24.511 215.179 24.2761C214.6 24.0411 213.98 23.9229 213.355 23.9282C212.105 23.9383 210.908 24.4396 210.024 25.3239C209.14 26.2083 208.638 27.4048 208.628 28.6554C208.638 29.906 209.14 31.1025 210.024 31.9868C210.908 32.8712 212.105 33.3725 213.355 33.3825ZM209.661 64.694H217.105V37.8354H209.661V64.694ZM223.71 64.694H231.154V51.4361C231.154 46.2182 233.708 43.7197 237.186 43.7197C240.283 43.7197 241.969 46.1111 241.969 50.0218V64.694H249.413V48.7725C249.413 41.7097 245.5 36.9268 238.926 36.9268C235.393 36.9268 232.622 38.4482 231.154 40.6211V37.5247H223.71V64.694ZM268.356 57.464C264.606 57.464 261.456 54.6375 261.456 50.5082C261.456 46.3254 264.606 43.5525 268.356 43.5525C272.106 43.5525 275.256 46.3254 275.256 50.5082C275.256 54.6375 272.106 57.464 268.356 57.464ZM267.486 76.4282C275.8 76.4282 282.105 72.1897 282.105 62.4075V37.3597H274.66V40.4025C273.193 38.2854 270.257 36.764 266.781 36.764C259.663 36.764 253.956 42.8497 253.956 50.5104C253.956 58.1175 259.663 64.2032 266.781 64.2032C270.259 64.2032 273.193 62.6282 274.66 60.6182V62.4654C274.66 66.8132 271.78 69.9097 267.379 69.9097C264.336 69.9097 261.293 68.8768 258.902 66.5411L254.826 72.0825C257.923 75.0718 262.759 76.4282 267.486 76.4282ZM297.844 64.694H304.851L320.828 26.114H312.135L301.375 52.9018L290.453 26.114H281.923L297.844 64.694ZM327.66 33.0697C328.284 33.0748 328.904 32.9564 329.483 32.7213C330.062 32.4862 330.588 32.139 331.033 31.6997C331.477 31.2605 331.83 30.7377 332.072 30.1616C332.313 29.5855 332.438 28.9673 332.44 28.3425C332.438 27.7178 332.313 27.0996 332.072 26.5235C331.83 25.9473 331.477 25.4246 331.033 24.9853C330.588 24.5461 330.062 24.1989 329.483 23.9638C328.904 23.7287 328.284 23.6103 327.66 23.6154C325.105 23.6154 322.93 25.7325 322.93 28.3425C322.93 30.9504 325.105 33.0697 327.66 33.0697ZM323.963 64.694H331.408V37.5247H323.963V64.694ZM350.674 65.2918C356.378 65.2918 360.726 62.9004 363.28 59.2061L357.737 55.0768C356.488 56.9775 354.152 58.499 350.728 58.499C347.143 58.499 343.937 56.489 343.502 52.8482H363.823C363.985 51.7061 363.932 50.9454 363.932 50.294C363.932 41.4375 357.683 36.9268 350.565 36.9268C342.306 36.9268 336.274 43.0661 336.274 51.1082C336.274 59.6947 342.578 65.2918 350.674 65.2918ZM343.772 47.7954C344.479 44.4804 347.575 43.0661 350.348 43.0661C353.119 43.0661 355.836 44.534 356.488 47.7954H343.772ZM391.821 64.694H399.212L408.178 37.5247H400.189L395.083 54.9118L389.539 37.5247H383.835L378.347 54.9118L373.185 37.5247H365.25L374.271 64.694H381.66L386.715 49.2611L391.821 64.694Z" fill="black" fill-opacity="0.75"/>
</g>
<defs>
<clipPath id="clip0_761_1791">
<rect width="77.1429" height="60" fill="white" transform="translate(0.856934 17.5)"/>
</clipPath>
<clipPath id="clip1_761_1791">
<rect width="315" height="60" fill="white" transform="translate(95.1426 17.5)"/>
</clipPath>
</defs>
</svg>
