<svg width="36" height="33" viewBox="0 0 36 33" fill="none" xmlns="http://www.w3.org/2000/svg">
<rect x="7.21875" y="0.5" width="17.9427" height="17.2411" fill="white" stroke="black"/>
<rect x="2.00195" y="18.0391" width="32.6759" height="9.52373" stroke="black"/>
<rect x="1.34375" y="18.0391" width="29.168" height="13.7332" fill="#E8B8FF" stroke="black"/>
<rect x="4.93945" y="18.0391" width="22.1522" height="3.91107" stroke="black"/>
<rect x="1.31055" y="18.0391" width="29.168" height="1.80633" stroke="black"/>
<rect x="1.32227" y="18.0391" width="29.168" height="7.41898" fill="#E8B8FF" stroke="black"/>
<path fill-rule="evenodd" clip-rule="evenodd" d="M14.7883 4.21094H17.5946V4.91252H14.7883V4.21094ZM14.0868 4.21096H12.6836V4.91254H14.0868V4.21096ZM15.4899 6.3157H12.6836V7.01728H15.4899V6.3157ZM12.6836 8.42046H16.1915V9.12204H12.6836V8.42046ZM18.2963 11.2267V10.5252H12.6836V11.2267H18.2963ZM12.6836 12.6299H16.1915V13.3315H12.6836V12.6299ZM20.401 8.42046H16.8931V9.12204H20.401V8.42046ZM18.2962 6.3157H16.1915V7.01728H18.2962V6.3157ZM18.2962 4.21094H20.4009V4.91252H18.2962V4.21094ZM20.401 6.3157H18.9978V7.01728H20.401V6.3157ZM18.9978 10.5252H20.401V11.2267H18.9978V10.5252ZM20.401 12.6299H16.8931V13.3315H20.401V12.6299Z" fill="black"/>
<path fill-rule="evenodd" clip-rule="evenodd" d="M9.17383 2.10547H9.87541V2.80705H9.17383V2.10547ZM9.17385 4.21025H9.87543V4.91183H9.17385V4.21025ZM9.87543 6.31501H9.17385V7.01659H9.87543V6.31501ZM9.17385 8.41971H9.87543V9.12129H9.17385V8.41971ZM9.87543 10.5245H9.17385V11.2261H9.87543V10.5245ZM9.17385 12.6292H9.87543V13.3308H9.17385V12.6292ZM9.87543 14.7339H9.17385V15.4355H9.87543V14.7339Z" fill="black"/>
<path fill-rule="evenodd" clip-rule="evenodd" d="M23.207 2.10547H23.9086V2.80705H23.207V2.10547ZM23.2071 4.21025H23.9086V4.91183H23.2071V4.21025ZM23.9086 6.31501H23.2071V7.01659H23.9086V6.31501ZM23.2071 8.41971H23.9086V9.12129H23.2071V8.41971ZM23.9086 10.5245H23.2071V11.2261H23.9086V10.5245ZM23.2071 12.6292H23.9086V13.3308H23.2071V12.6292ZM23.9086 14.7339H23.2071V15.4355H23.9086V14.7339Z" fill="black"/>
<rect x="4.26367" y="28.7656" width="0.701582" height="0.701582" fill="black"/>
</svg>
