<svg width="15" height="15" viewBox="0 0 15 15" fill="none" xmlns="http://www.w3.org/2000/svg">
<path d="M15 12.6943H14.4315V13.8533H13.8548V14.4275H12.6986V15H2.30665V14.4376H1.15617V13.8769C1.10238 13.8625 1.06215 13.852 1.04204 13.8467C1.08708 13.7355 1.13124 13.6268 1.17541 13.5182C1.15792 13.4989 1.14086 13.4797 1.12337 13.4604C1.00618 13.6098 0.93228 13.8682 0.699647 13.5984C0.488004 13.3531 0.633618 13.2694 0.835204 13.1586H0.574148V12.697H0V2.29603H0.566714V1.13356H1.1448V0.559773H2.3014V0C3.97487 0 5.62604 0 7.27721 0C9.07486 0 10.8725 0 12.6929 0V0.554955H13.8456V1.01705C14.0494 1.27285 14.2098 1.47433 14.3703 1.67538C14.3909 1.65961 14.411 1.64428 14.4315 1.62851V2.29078H15V12.6943ZM9.23709 7.48467H8.67475V6.91745H9.24147V6.33402H9.81999V5.76286H10.3915V5.18513H10.9727V4.59689H11.5573V4.02485H12.1275V3.44449H12.6973V2.86588H10.9591V3.43923H10.3815V4.02135H9.80512V4.59382H9.22747V5.1825H8.64064V5.73965H7.49716V5.17111H6.92476V4.59514H6.34711V4.01434H5.76553V3.4331H5.18963V2.86851H2.30271V4.03142H2.87861V4.61047H3.45232V5.18907H4.03434V5.76549H4.6063V6.33797H5.18264V6.92052H5.76072V7.4965H6.32306V8.07291H5.75547V8.64846H5.17695V9.22531H4.60543V9.80304H4.02691V10.3847H3.44358V10.9677H2.86637V11.5424H2.30097V12.1153H4.03784V11.5503H4.61417V10.9686H5.19488V10.3878H5.7769V9.80436H6.35455V9.24327H7.49541V9.81049H8.07174V10.3935H8.65332V10.976H9.23097V11.5507H9.80512V12.114H12.696V10.9765C12.6487 10.9633 12.612 10.9528 12.6522 10.9642C12.5613 10.8315 12.518 10.7452 12.452 10.683C12.4227 10.6554 12.3081 10.6589 12.2998 10.6782C12.2635 10.7597 12.2526 10.8525 12.232 10.9436C12.2132 10.9283 12.1699 10.8941 12.1179 10.8521V10.3795H11.5477V9.79998H10.9665V9.22443H10.3915V8.64145H9.81561V8.06415H9.23666V7.48555L9.23709 7.48467ZM13.2745 1.4117C13.4888 1.65567 13.6943 1.89 13.9072 2.13266C13.9392 2.10463 13.9671 2.08053 14.0021 2.04987C13.8793 1.90533 13.7647 1.77043 13.6339 1.61669C13.6903 1.56412 13.7664 1.47346 13.7809 1.48222C13.9462 1.58427 14.1014 1.70166 14.2846 1.83262C14.2864 1.83131 14.3108 1.80941 14.3331 1.7897C13.9877 1.35388 13.8876 1.17999 13.5469 1.5177C13.4848 1.45944 13.4227 1.40119 13.3576 1.33986C13.3274 1.36571 13.306 1.3841 13.2741 1.4117H13.2745ZM0.668163 12.7727C0.885491 13.0263 1.09845 13.2747 1.32889 13.5436C1.37087 13.4994 1.3923 13.4766 1.4111 13.4569C1.34857 13.368 1.29828 13.2962 1.22963 13.1985C1.4181 13.2072 1.56109 13.2138 1.70408 13.2204C1.70495 13.1958 1.70626 13.1718 1.70714 13.1472C1.56065 13.1131 1.41416 13.0789 1.25543 13.0417V12.6593C1.23225 12.6562 1.20908 12.6527 1.1859 12.6497C1.16404 12.7903 1.14261 12.9313 1.1155 13.1065C0.983879 12.9567 0.871061 12.8284 0.754307 12.6952C0.724135 12.7224 0.70402 12.7408 0.6686 12.7732L0.668163 12.7727ZM13.3698 1.7332C13.323 1.75422 13.2736 1.75991 13.2605 1.78444C13.1988 1.90358 13.0764 2.04987 13.1066 2.14536C13.1652 2.33064 13.3191 2.22245 13.4402 2.16507C13.4822 2.14492 13.5347 2.14667 13.5823 2.13835C13.6077 2.17033 13.6331 2.2023 13.6584 2.23428C13.5635 2.31224 13.4686 2.38977 13.3445 2.49182C13.3414 2.47693 13.3475 2.50847 13.3589 2.56672C13.4494 2.50672 13.5452 2.47518 13.5858 2.40904C13.6449 2.31355 13.6645 2.1931 13.7008 2.0836C13.5911 2.0801 13.4813 2.07353 13.3716 2.07396C13.3147 2.07396 13.2579 2.08667 13.201 2.09368C13.1918 2.07134 13.1827 2.049 13.1739 2.02666C13.2504 1.95833 13.327 1.89 13.4087 1.81642C13.3991 1.79539 13.3873 1.77086 13.3698 1.73276V1.7332ZM7.60342 0.0613211C7.58855 0.125708 7.57849 0.170385 7.56843 0.215062C7.51377 0.22645 7.46917 0.236086 7.33187 0.264994C7.45343 0.308357 7.52427 0.352158 7.54089 0.336828C7.61347 0.269375 7.67076 0.184401 7.7792 0.0486188C7.65283 0.057817 7.62747 0.059569 7.60342 0.0613211Z" fill="black"/>
<path d="M14.4189 1.48528C14.299 1.3587 14.209 1.26365 14.0966 1.14495H14.4189V1.48528Z" fill="black"/>
<path d="M0.711017 13.8765C0.658106 13.8204 0.605195 13.7644 0.552721 13.7083C0.568901 13.6925 0.58508 13.6772 0.600822 13.6614C0.647174 13.7215 0.693963 13.781 0.740314 13.841C0.730694 13.8529 0.720637 13.8647 0.711017 13.8765Z" fill="black"/>
<path d="M11.2792 11.3321C11.2429 11.3917 11.2066 11.4513 11.1589 11.5292H10.3946V10.9633H9.82348V10.386H9.24147V9.80523H8.66513V9.22443H8.08355V8.64539H7.50678V8.07291H6.92826V6.90957H6.35148V6.3349H5.77471V5.75454H5.19663V5.18119H4.6203V4.59864H4.04046V4.01872H3.47506V3.45544H4.60237V4.02573H5.17826V4.59952H5.75635V5.18338H6.33181V5.7598H6.91426V6.33402H7.48972V6.9192H8.07218V8.07642H8.64633V8.64977H9.22529V9.22838H9.79856V9.80655H10.3788V10.3882H10.9587V10.969H11.5529C11.5332 11.1355 11.5158 11.2813 11.4948 11.4578C11.49 11.4521 11.5118 11.4771 11.5512 11.5213C11.4917 11.5301 11.4524 11.5362 11.4073 11.5428C11.3955 11.5148 11.3868 11.4929 11.3771 11.4697C11.3478 11.471 11.3177 11.4727 11.2656 11.4754C11.2888 11.4272 11.3041 11.3948 11.3199 11.3628C11.3063 11.3523 11.2923 11.3422 11.2788 11.3317L11.2792 11.3321ZM7.44293 7.77507C7.54613 7.81931 7.60691 7.86442 7.62703 7.85041C7.68431 7.81099 7.7381 7.75317 7.76696 7.69097C7.78139 7.66031 7.73766 7.60249 7.72061 7.55738C7.70574 7.56307 7.69131 7.56833 7.67644 7.57402C7.66988 7.62264 7.66289 7.67082 7.65545 7.7247C7.61041 7.73521 7.56931 7.74528 7.44293 7.77551V7.77507ZM7.51902 7.34757C7.52514 7.33005 7.53127 7.31253 7.53739 7.29501C7.48885 7.28056 7.41582 7.23939 7.39702 7.25691C7.3428 7.30728 7.30301 7.37823 7.27502 7.44788C7.26671 7.46803 7.317 7.51183 7.36685 7.58191C7.38215 7.47284 7.38915 7.42422 7.39571 7.37561C7.44293 7.36466 7.48098 7.3559 7.51902 7.3467V7.34757Z" fill="black"/>
<path d="M12.4161 10.9524C12.3728 10.8893 12.3295 10.8258 12.2862 10.7627C12.3029 10.7452 12.3195 10.7277 12.3361 10.7102C12.3851 10.7452 12.4428 10.7737 12.4795 10.8188C12.4992 10.8429 12.483 10.8963 12.483 10.9366C12.4607 10.9419 12.4384 10.9471 12.4161 10.9524Z" fill="black"/>
<path d="M7.13103 7.12874H7.9756V7.97585H7.13103V7.12874Z" fill="black"/>
<path d="M0.569338 12.4721H1.73875V13.9056H0.569338V12.4721Z" fill="black"/>
<path d="M13.043 1.00345H14.4723V2.56736H13.043V1.00345Z" fill="black"/>
<path d="M6.74123 0.0260148H8.17051V1.58992H6.74123V0.0260148Z" fill="black"/>
<path d="M12.0685 9.53975H13.238V10.9733H12.0685V9.53975Z" fill="black"/>
<path d="M10.3794 10.9082H11.6138V11.5598H10.3794V10.9082Z" fill="black"/>
</svg>
