<svg width="116" height="44" viewBox="0 0 116 44" fill="none" xmlns="http://www.w3.org/2000/svg">
<g clip-path="url(#clip0_1045_942)">
<path d="M112.809 13.3671C111.706 13.3671 110.673 12.4715 110.673 11.2314C110.673 9.99133 111.637 9.0957 112.809 9.0957C113.98 9.0957 114.944 9.99133 114.944 11.2314C114.944 12.4026 114.049 13.3671 112.809 13.3671ZM112.809 9.30239C111.775 9.30239 110.88 10.1291 110.88 11.2314C110.88 12.3337 111.775 13.1605 112.809 13.1605C113.911 13.1605 114.738 12.2648 114.738 11.2314C114.738 10.198 113.911 9.30239 112.809 9.30239ZM112.809 9.85354C113.084 9.85354 113.291 9.85354 113.429 9.92243C113.704 9.99133 113.842 10.2669 113.842 10.5425C113.842 10.7492 113.773 11.0247 113.291 11.1625C113.566 11.3003 113.635 11.4381 113.704 11.7137C113.773 12.0582 113.773 12.2648 113.911 12.5404H113.36C113.291 12.4026 113.291 12.2648 113.222 11.9204C113.084 11.4381 113.084 11.3692 112.395 11.3692V12.6093H111.913V9.85354H112.809ZM112.395 10.9558H112.809C113.015 10.9558 113.36 10.9558 113.36 10.6114C113.36 10.4736 113.291 10.3358 113.153 10.2669C113.084 10.198 112.946 10.198 112.671 10.198H112.395V10.9558Z" fill="white"/>
<path d="M107.572 33.6221C107.435 33.2777 107.297 32.7265 107.297 32.7265L104.679 25.906C104.61 25.7682 104.472 25.6993 104.334 25.6993H97.1694C97.0316 25.6993 96.9627 25.7682 96.8938 25.9749L95.1715 30.5908C94.827 31.3486 94.6203 32.0376 94.6203 32.5198C94.6203 32.8643 94.6892 33.071 94.8959 33.2777C95.1026 33.4843 95.447 33.5532 95.9293 33.5532H96.4116C96.756 33.5532 96.8938 33.6221 96.8938 33.8288C96.8938 34.0355 96.6871 34.1733 96.3427 34.1733C95.9293 34.1733 95.3781 34.1733 94.6203 34.1733C93.7936 34.1044 93.2424 34.1044 92.9668 34.1044C92.898 34.1044 92.6913 34.1044 92.2779 34.1044C91.9334 34.1044 91.5201 34.1044 90.9 34.1044C90.28 34.1044 89.7288 34.1044 89.1777 34.1044C88.7643 34.1044 88.5576 33.9666 88.5576 33.7599C88.5576 33.6221 88.6954 33.4843 88.971 33.4843C89.3155 33.4843 89.6599 33.4843 90.0044 33.4154C90.6933 33.3465 91.2445 33.071 91.589 32.5887C92.0023 32.1065 92.3468 31.4175 92.6913 30.5219L100.752 10.267C100.959 9.78474 101.096 9.44027 101.234 9.23358C101.372 9.0269 101.51 8.95801 101.648 8.95801C101.923 8.95801 102.13 9.30248 102.474 9.99142C102.612 10.3359 102.957 11.0937 103.439 12.3338L105.368 17.2253L108.468 24.8726L109.295 27.0083L110.466 29.8329C111.017 31.1419 111.499 32.0376 111.982 32.4509C112.464 32.9332 112.877 33.2088 113.36 33.3465C113.773 33.4154 114.255 33.4843 114.737 33.4843C115.013 33.4843 115.151 33.5532 115.151 33.7599C115.151 33.8977 115.082 33.9666 114.875 34.0355C114.6 34.1044 114.186 34.1044 113.635 34.1044L110.535 34.0355C109.639 34.0355 108.675 34.1044 107.986 34.1044C107.779 34.1044 107.71 33.9666 107.572 33.6221ZM97.7894 24.0458H103.714C103.852 24.0458 103.852 23.9769 103.852 23.8392L100.959 15.8474C100.89 15.6407 100.89 15.5718 100.821 15.5718C100.752 15.5718 100.683 15.6407 100.614 15.8474L97.6516 23.8392C97.6516 23.9769 97.7205 24.0458 97.7894 24.0458Z" fill="white"/>
<path d="M67.9579 21.841C67.9579 21.9099 67.9579 24.1145 67.9579 24.1145C67.9579 24.7345 67.9579 26.5258 67.9579 28.4548V31.9684C67.9579 32.3818 67.9579 32.6574 67.889 32.7952C67.8201 32.9329 67.7512 33.0018 67.5446 33.1396C66.58 33.6219 65.4088 33.9664 64.031 34.2419C62.6531 34.4486 61.2063 34.5864 59.8284 34.5864C57.7616 34.5864 55.9014 34.3108 54.1102 33.8286C52.3189 33.3463 50.7344 32.5885 49.3565 31.5551C47.9786 30.5217 46.8763 29.2127 46.1185 27.5592C45.3606 25.9746 44.9473 24.0456 44.9473 21.9099C44.9473 19.4986 45.4984 17.3629 46.5318 15.5716C47.4964 13.7804 48.8053 12.3336 50.4588 11.3691C51.8367 10.5423 53.2146 9.99119 54.5925 9.71561C55.9703 9.44003 57.486 9.30225 59.1395 9.30225C59.6906 9.30225 60.2418 9.30225 60.7929 9.37114C61.3441 9.37114 61.9641 9.44003 62.5153 9.50893C63.1353 9.57782 63.6176 9.64672 64.031 9.71561C64.4443 9.78451 64.7199 9.78451 64.8577 9.8534C65.2711 9.92229 65.7533 9.99119 66.2356 10.0601C66.7178 10.129 67.1312 10.1979 67.4068 10.1979C67.6823 10.1979 67.889 10.3357 67.889 10.6112C67.889 10.6801 67.889 10.8179 67.889 10.9557C67.7512 11.3691 67.6823 11.9891 67.6823 12.6781C67.6823 13.367 67.6135 14.4693 67.6135 15.8472C67.6135 16.3295 67.4757 16.5361 67.269 16.5361C67.1312 16.5361 66.9934 16.3983 66.9245 16.1228C66.8556 15.6405 66.7867 15.1583 66.58 14.676C66.4423 14.2626 66.1667 13.8493 65.8222 13.4359C65.2711 12.8158 64.3065 12.2647 63.0664 11.7135C61.7574 11.1624 60.3107 10.9557 58.6572 10.9557C57.486 10.9557 56.3837 11.0935 55.3503 11.3002C54.3169 11.5758 53.2835 12.058 52.3189 12.9536C51.3544 13.7804 50.6655 14.8138 50.1143 16.0539C49.6321 17.3629 49.3565 18.9474 49.3565 20.8765C49.3565 22.5988 49.6321 24.1834 50.1143 25.6991C50.6655 27.2147 51.4233 28.4548 52.3878 29.5571C53.3524 30.6594 54.5925 31.4862 55.9703 32.1062C57.3482 32.7263 58.8639 33.0018 60.5862 33.0018C61.2063 33.0018 61.6886 33.0018 62.1708 32.9329C62.5842 32.8641 62.9975 32.7952 63.342 32.6574C63.7554 32.4507 63.9621 32.0373 63.9621 31.4862V28.4548C63.9621 26.5947 63.9621 24.8723 63.9621 24.1834C63.9621 23.6322 63.8243 23.2189 63.6176 22.9433C63.4109 22.6677 63.0664 22.461 62.5842 22.3921C62.3086 22.3232 61.8952 22.3232 61.3441 22.3232C60.9996 22.3232 60.8618 22.2544 60.8618 22.0477C60.8618 21.841 61.0685 21.7032 61.5508 21.7032C62.1019 21.7032 63.1353 21.7032 64.5132 21.7721C65.4777 21.7721 66.0289 21.7721 66.2356 21.7721C66.5111 21.7721 67.0623 21.7721 67.9579 21.7032C67.9579 21.6343 67.9579 21.7721 67.9579 21.841ZM78.0854 24.8034V19.1541V14.1248C78.0854 13.4359 78.0854 12.8158 78.0165 12.2647C77.9476 11.2313 77.6031 10.6112 76.9142 10.4734C76.5697 10.4046 76.2252 10.3357 75.743 10.3357C75.3985 10.3357 75.2607 10.1979 75.2607 9.99119C75.2607 9.78451 75.5363 9.71561 76.0185 9.71561C76.4319 9.71561 77.1897 9.71561 78.3609 9.78451C79.2566 9.78451 79.8766 9.78451 80.2211 9.78451C80.4967 9.78451 80.9789 9.78451 81.8057 9.78451C82.908 9.71561 83.7347 9.71561 84.1481 9.71561C84.6303 9.71561 84.837 9.78451 84.837 9.99119C84.837 10.1979 84.6992 10.3357 84.3547 10.3357C84.0792 10.3357 83.8036 10.3357 83.3902 10.4046C82.908 10.5423 82.6324 10.6801 82.4257 10.9557C82.2879 11.2313 82.1501 11.6446 82.1501 12.2647C82.0812 12.8158 82.0812 13.4359 82.0812 14.1248V19.0852V24.7345C82.0812 26.7325 82.0812 28.2481 82.0812 29.2816C82.0812 30.315 82.1501 31.1417 82.219 31.7617C82.2879 32.244 82.4257 32.6574 82.5635 32.8641C82.7013 33.1396 83.0458 33.2774 83.528 33.3463C83.7347 33.3463 84.0103 33.4152 84.3547 33.4152C84.6303 33.4152 84.9059 33.4841 85.1815 33.4841C85.5259 33.4841 85.7326 33.553 85.7326 33.7597C85.7326 33.9664 85.5259 34.1042 85.1126 34.1042C84.217 34.1042 83.0458 34.1042 81.599 34.0353C80.91 34.0353 80.4278 34.0353 80.0833 34.0353C79.9455 34.0353 79.3944 34.0353 78.5676 34.0353C77.3275 34.1042 76.5008 34.1042 76.0185 34.1042C75.6052 34.1042 75.3985 33.9664 75.3985 33.7597C75.3985 33.6219 75.5363 33.4841 75.8808 33.4841C76.2941 33.4841 76.6386 33.4152 77.052 33.3463C77.5342 33.2085 77.8787 32.7263 78.0165 31.7617C78.0854 31.1417 78.1543 30.315 78.1543 29.2816C78.0854 28.2481 78.0854 26.7325 78.0854 24.8034Z" fill="white"/>
<path d="M25.6445 12.6004L26.609 12.1182L26.3334 11.9115L25.7134 12.256L25.8511 11.567L25.5756 11.3604L25.4378 12.3938L25.0244 12.9449L25.3 13.1516L25.6445 12.6004Z" fill="white"/>
<path d="M20.7532 10.6023L20.9599 10.6712L21.1666 11.3601L21.511 11.429L21.3044 10.6712C21.3733 10.6712 21.3733 10.6712 21.4422 10.6023C21.511 10.6023 21.511 10.5334 21.5799 10.5334C21.5799 10.5334 21.6488 10.4645 21.6488 10.3956C21.6488 10.3267 21.7177 10.3267 21.7177 10.2578C21.7177 10.1889 21.7177 10.12 21.7177 10.0511C21.7177 9.98221 21.6488 9.91332 21.6488 9.91332C21.5799 9.84442 21.5799 9.84442 21.511 9.77553C21.4422 9.70664 21.3733 9.70664 21.3044 9.70664L20.6843 9.56885L20.3398 11.1534L20.6154 11.2223L20.7532 10.6023ZM20.8221 9.91332L21.0977 9.98221C21.1666 9.98221 21.2355 10.0511 21.2355 10.0511C21.2355 10.12 21.3044 10.12 21.2355 10.1889C21.2355 10.2578 21.1666 10.3267 21.1666 10.3267C21.0977 10.3267 21.0977 10.3956 21.0288 10.3267L20.7532 10.2578L20.8221 9.91332Z" fill="white"/>
<path d="M27.7799 13.4961L27.022 13.4272L26.9531 14.1851L27.711 14.254L27.7799 13.4961Z" fill="white"/>
<path d="M8.14511 21.0743L7.86954 21.0054V21.7632H7.45617V21.1432H7.18059V21.7632H6.83612V21.0054H6.56055V22.0388L8.07622 22.1077L8.14511 21.0743Z" fill="white"/>
<path d="M20.2706 27.688L20.1328 28.1014H22.4752L22.4063 27.688H20.2706Z" fill="white"/>
<path d="M23.7844 12.1872L24.3355 11.016L24.68 11.2227L24.8178 10.9471L23.7844 10.4648L23.7155 10.7404L24.0599 10.8782L23.5088 12.0494L23.7844 12.1872Z" fill="white"/>
<path d="M25.3682 30.7197L25.5748 30.9264L26.126 30.4441L26.4016 30.7886L25.9193 31.1331L26.0571 31.3397L26.5394 30.9953L26.8149 31.2709L26.1949 31.7531L26.4016 31.9598L27.2283 31.2709L26.1949 30.0308L25.3682 30.7197Z" fill="white"/>
<path d="M28.7441 17.0785L28.8819 17.423L29.502 17.4919L29.0886 17.9741L29.2264 18.3186L29.7776 17.5608L30.6732 17.6985L30.5354 17.3541L29.9842 17.2852L30.3287 16.8718L30.1909 16.5273L29.6398 17.2163L28.7441 17.0785Z" fill="white"/>
<path d="M26.4159 16.4859L11.4659 16.417V16.4859C11.4659 16.4859 10.9836 19.4483 11.6725 22.7553C12.2926 25.7866 14.0838 29.8514 18.9753 31.7115C23.9357 29.7825 25.727 25.7177 26.347 22.6864C26.9671 19.3794 26.4159 16.4859 26.4159 16.4859ZM20.6977 22.273C20.6977 22.273 20.7666 22.273 20.7666 22.3419C20.7666 22.3419 20.8355 22.4108 20.8355 22.4797C20.8355 22.4797 20.9044 22.5486 20.8355 22.5486L20.7666 22.6175C20.7666 22.6175 20.7666 22.6175 20.6977 22.6175C20.6288 22.6175 20.5599 22.6175 20.5599 22.6175C20.5599 22.6175 20.491 22.6175 20.4221 22.6864C20.4221 22.5486 20.4221 22.4108 20.3532 22.273C20.491 22.273 20.5599 22.273 20.6977 22.273ZM15.3239 22.4108C15.3239 22.5486 15.1173 22.5486 15.1861 22.6864C15.255 22.7553 15.1861 22.8242 15.1173 22.893H14.7039C14.7039 22.7553 14.7039 22.6864 14.7039 22.5486C14.9106 22.4108 15.0484 22.3419 15.255 22.273C15.3239 22.3419 15.3239 22.4108 15.3239 22.4108ZM23.7979 22.4797C23.7979 22.5486 23.8668 22.5486 23.8668 22.6175C23.8668 22.6864 23.8668 22.8242 23.8668 22.8242H23.1779C23.1779 22.7553 23.1779 22.6864 23.109 22.6175C23.109 22.5486 23.0401 22.4108 23.0401 22.3419C23.109 22.3419 23.1779 22.3419 23.1779 22.4108V22.4797C23.1779 22.4797 23.2468 22.4797 23.2468 22.5486V22.6175C23.3157 22.6175 23.3157 22.6175 23.3157 22.6175C23.3846 22.6864 23.3846 22.5486 23.4534 22.5486C23.5223 22.5486 23.5223 22.5486 23.5912 22.5486C23.6601 22.5486 23.729 22.4797 23.7979 22.4797C23.7979 22.4108 23.7979 22.4108 23.7979 22.4108C23.8668 22.4108 23.7979 22.4797 23.7979 22.4797ZM16.6329 22.6175C16.564 22.6175 16.4951 22.6175 16.4262 22.6175L16.2885 22.5486C16.2885 22.5486 16.2885 22.5486 16.3573 22.5486C16.3573 22.4797 16.2885 22.4108 16.2885 22.4108C16.2885 22.4108 16.2885 22.4108 16.2196 22.3419L16.1507 22.273C16.1507 22.2041 16.1507 22.2041 16.0818 22.1352C16.0818 22.1352 15.944 22.273 15.8751 22.273C15.8751 22.2041 15.8751 22.0663 15.8751 21.9974C16.4262 21.7907 16.564 21.7907 17.0463 21.653C17.1152 21.9974 17.1841 22.3419 17.253 22.6864C17.1152 22.7553 16.9085 22.8242 16.7707 22.8242V22.7553L16.6329 22.6175ZM14.0838 21.9285C14.0149 21.9285 14.0149 21.9285 14.0838 21.9285L14.0149 21.9974L13.9461 22.1352H13.8772C13.8772 21.9974 13.9461 21.9285 13.9461 21.7907C14.0149 21.7907 14.0149 21.7218 14.0838 21.7218C14.1527 21.8596 14.0838 21.9285 14.0838 21.9285ZM13.9461 21.653C14.0149 21.5152 14.0838 21.3085 14.0838 21.1707C14.1527 21.2396 14.2216 21.2396 14.2216 21.3085C14.2216 21.3774 14.1527 21.3774 14.1527 21.4463C14.1527 21.5152 14.1527 21.5152 14.0838 21.5152C14.0838 21.5841 14.0149 21.5841 13.9461 21.653ZM14.7039 20.7573C14.7039 20.8262 14.635 20.7573 14.7039 20.7573C14.635 20.8262 14.4972 20.964 14.5661 20.964C14.5661 21.0329 14.4972 21.1707 14.5661 21.1707C14.635 21.1707 14.5661 21.2396 14.5661 21.2396C14.5661 21.2396 14.4972 21.2396 14.4283 21.1707C14.3594 21.1018 14.4283 20.964 14.4283 20.964C14.3594 21.0329 14.2905 20.964 14.2216 20.964C14.2216 20.964 14.2216 20.8951 14.2905 20.8951C14.4283 20.8262 14.635 20.6884 14.8417 20.6195C14.8417 20.6884 14.7728 20.7573 14.7728 20.8262C14.7039 20.7573 14.7039 20.7573 14.7039 20.7573ZM15.0484 20.4817C15.255 20.4129 15.5306 20.2751 15.7373 20.2062H15.8062C15.7373 20.4129 15.7373 20.6195 15.7373 20.8951C15.7373 20.8951 15.6684 20.8951 15.6684 20.964C15.6684 20.964 15.5995 20.8951 15.5995 20.8262H15.5306C15.5306 20.8262 15.5306 20.7573 15.4617 20.7573C15.4617 20.7573 15.3239 20.7573 15.3239 20.6884C15.3239 20.6884 15.1861 20.6195 15.1173 20.6195H15.0484C14.9795 20.5506 15.0484 20.5506 15.0484 20.4817ZM15.0484 22.2041C14.9795 22.1352 14.9795 22.1352 14.9795 22.0663L14.9106 21.9974C14.8417 21.9285 14.8417 21.7907 14.9106 21.7907C14.9795 21.7907 15.1173 21.5841 15.0484 21.5841C14.9106 21.5152 15.1173 21.3085 15.1861 21.3774C15.255 21.3774 15.3239 21.2396 15.3928 21.2396C15.4617 21.2396 15.4617 21.2396 15.4617 21.3085C15.4617 21.3774 15.4617 21.3774 15.4617 21.4463C15.4617 21.5152 15.3928 21.5152 15.3928 21.5841C15.3928 21.653 15.255 21.8596 15.1861 21.8596C15.1173 21.8596 15.1173 21.9974 15.255 21.9974C15.3239 21.9974 15.3928 22.0663 15.3928 22.0663C15.255 22.1352 15.1173 22.1352 15.0484 22.2041ZM16.3573 20.1373L16.4262 20.2751C16.4951 20.2751 16.4951 20.2751 16.4951 20.2751C16.4951 20.2751 16.4951 20.2751 16.564 20.2751V20.344C16.564 20.344 16.564 20.4129 16.4951 20.4129C16.4951 20.4129 16.3573 20.344 16.4262 20.5506C16.4262 20.6195 16.4262 20.6195 16.4951 20.6195C16.2885 20.6884 16.1507 20.7573 15.8751 20.8262C15.8751 20.5506 15.944 20.344 15.944 20.1373C16.1507 20.0684 16.2885 19.9995 16.4262 19.9995C16.3573 19.9995 16.3573 20.0684 16.3573 20.1373ZM23.5223 21.9285C23.4534 21.9285 23.3846 21.9285 23.3157 21.9974C23.1779 21.9974 23.109 21.9974 22.9712 21.9974C23.0401 21.8596 22.9712 21.7907 23.0401 21.653C23.0401 21.653 23.109 21.5841 23.1779 21.5841C23.1779 21.5841 23.1779 21.653 23.2468 21.653C23.2468 21.653 23.2468 21.653 23.2468 21.7218H23.3157C23.3846 21.7218 23.3846 21.7907 23.4534 21.7218C23.5223 21.7218 23.5223 21.653 23.5912 21.653C23.6601 21.7907 23.6601 21.8596 23.729 21.9974C23.6601 21.9285 23.5912 21.9285 23.5223 21.9285ZM22.2822 22.4797C22.3511 22.4797 22.3511 22.4108 22.3511 22.4108C22.3511 22.4108 22.2134 22.3419 22.1445 22.3419V22.273C22.0756 22.273 22.0067 22.273 21.9378 22.2041C21.8689 22.1352 21.9378 22.0663 21.9378 22.0663C22.0067 22.0663 22.0756 22.1352 22.2134 22.1352H22.3511C22.3511 22.1352 22.3511 22.273 22.42 22.273C22.4889 22.4108 22.4889 22.4797 22.5578 22.4797C22.5578 22.4797 22.6267 22.4797 22.6267 22.5486C22.6956 22.6175 22.6956 22.6864 22.7645 22.6864C22.8334 22.7553 22.9023 22.7553 22.9023 22.6864C22.9023 22.7553 22.9023 22.8242 22.9023 22.8242H22.2822V22.7553C22.2822 22.6864 22.3511 22.6864 22.3511 22.6175C22.3511 22.6175 22.2822 22.5486 22.2822 22.4797ZM21.111 21.1018C21.1799 21.2396 21.1799 21.2396 21.0422 21.3085C20.9733 21.3085 20.9044 21.3774 20.9044 21.4463C20.9044 21.5152 20.9733 21.5152 20.9044 21.5841C20.9044 21.5841 20.7666 21.7218 20.7666 21.653C20.7666 21.5841 20.7666 21.5152 20.7666 21.5152H20.6977C20.6288 21.3774 20.4221 21.3085 20.3532 21.2396V21.1707C20.6288 21.0329 20.7666 21.0329 21.1799 20.964C21.1799 21.0329 21.111 21.0329 21.111 21.1018ZM18.4931 21.3774C18.562 21.7218 18.6309 21.9974 18.6997 22.3419C18.2864 22.4108 17.873 22.5486 17.4597 22.6175C17.3908 22.273 17.3219 21.9285 17.253 21.5841C17.6663 21.5152 18.0797 21.4463 18.4931 21.3774ZM18.2864 19.1039C18.2864 19.035 18.2864 18.9661 18.2175 18.9661C18.2175 18.9661 18.2175 18.9661 18.1486 18.8972C18.3553 18.8972 18.4931 18.8283 18.6997 18.8283C18.7686 18.9661 18.9064 19.035 18.9753 19.2417C18.6997 19.3105 18.4931 19.3105 18.2175 19.3794C18.2175 19.3105 18.2175 19.2417 18.2864 19.1039ZM21.3177 19.7928C21.3177 19.7239 21.3866 19.7239 21.3866 19.5861C21.3866 19.5861 21.3866 19.5861 21.4555 19.5172C21.5244 19.5861 21.5933 19.655 21.6622 19.7239C21.5933 19.7239 21.5244 19.7239 21.4555 19.7239C21.3866 19.7928 21.3866 19.7928 21.3177 19.7928ZM20.6977 20.2062C20.6977 20.2062 20.6288 20.2751 20.6288 20.344C20.5599 20.4817 20.7666 20.6195 20.6977 20.6195L20.7666 20.6884C20.7666 20.6884 20.8355 20.6884 20.8355 20.7573C20.8355 20.7573 20.8355 20.7573 20.9044 20.7573C20.9044 20.7573 20.9733 20.7573 20.9733 20.6884C20.9733 20.7573 21.0422 20.7573 21.0422 20.8262C20.6288 20.8262 20.491 20.8951 20.1465 20.8951L20.0776 20.8262L19.9398 20.8951C19.871 20.6195 19.7332 20.344 19.6643 20.1373C20.0087 20.0684 20.3532 20.0684 20.6977 20.0684V20.1373C20.6288 20.1373 20.6977 20.1373 20.6977 20.2062ZM17.253 21.3774C17.3219 21.3774 17.3219 21.3774 17.3908 21.3085C17.3908 21.2396 17.3908 21.2396 17.3908 21.1707C17.3908 21.1018 17.4597 20.8951 17.4597 20.8262C17.3908 20.7573 17.5285 20.6195 17.5974 20.6195C17.6663 20.6195 17.6663 20.6195 17.6663 20.5506C17.6663 20.5506 17.6663 20.4817 17.6663 20.4129C17.873 20.344 18.0108 20.344 18.2175 20.2751C18.2864 20.5506 18.3553 20.8262 18.4242 21.1018C17.873 21.2396 17.7352 21.2396 17.253 21.3774ZM18.3553 19.655L18.2864 19.5172C18.562 19.4483 18.8375 19.4483 19.1131 19.3794C19.2509 19.5861 19.3198 19.7928 19.3887 19.9995C19.0442 20.0684 18.6997 20.1373 18.3553 20.2062C18.3553 20.0684 18.2864 19.9995 18.2864 19.8617C18.3553 19.7928 18.3553 19.7239 18.3553 19.655ZM20.5599 19.8617C20.1465 19.8617 20.0087 19.9306 19.5954 19.9306C19.5265 19.7239 19.3887 19.5172 19.3198 19.3105C19.5954 19.2417 19.871 19.2417 20.1465 19.2417C20.2843 19.4483 20.4221 19.655 20.5599 19.8617ZM20.2154 19.1039C20.0776 18.9661 19.9398 18.8283 19.8021 18.7594C19.9398 18.7594 20.1465 18.7594 20.2843 18.7594C20.491 18.8283 20.6288 18.9661 20.8355 19.1039C20.6288 19.1039 20.4221 19.1039 20.2154 19.1039ZM20.0087 19.1039C19.7332 19.1039 19.4576 19.1728 19.2509 19.1728C19.182 19.035 19.0442 18.8972 18.9753 18.7594C19.2509 18.7594 19.3198 18.6905 19.5954 18.6905C19.7332 18.8283 19.871 18.9661 20.0087 19.1039ZM18.1486 20.2062C18.0108 20.2062 17.873 20.2751 17.8041 20.2751C17.873 20.0684 18.0108 19.9995 18.1486 19.9995C18.1486 20.0684 18.1486 20.1373 18.1486 20.2062ZM18.7686 20.2751C18.6998 20.2751 18.6309 20.344 18.6309 20.344C18.6309 20.344 18.562 20.4817 18.562 20.5506C18.562 20.6195 18.6309 20.6195 18.6309 20.6884L18.7686 20.6195C18.7686 20.6884 18.9064 20.6195 18.9064 20.5506C18.9753 20.4817 19.0442 20.344 19.182 20.2751C19.182 20.2751 19.1131 20.2062 19.0442 20.1373C19.182 20.1373 19.3198 20.0684 19.4576 20.0684C19.5954 20.344 19.6643 20.5506 19.7332 20.8951C19.3887 21.0329 19.0442 21.1018 18.6309 21.1707C18.562 20.8951 18.4931 20.6195 18.4242 20.344C18.562 20.2751 18.6309 20.2751 18.7686 20.2751ZM21.5244 20.6195C21.5933 20.5506 21.5244 20.5506 21.4555 20.4817C21.4555 20.4817 21.5933 20.344 21.5244 20.2751L21.3866 20.2062V20.0684C21.5244 20.0684 21.5933 20.0684 21.6622 20.0684V20.1373C21.6622 20.2062 21.8 20.2062 21.8 20.2062C21.8 20.2062 21.8 20.2062 21.8689 20.2062C21.9378 20.2751 21.9378 20.344 22.0067 20.4129C21.9378 20.4129 21.9378 20.6195 21.9378 20.6195C21.9378 20.8262 22.0067 20.6884 22.0067 20.7573V20.8262C21.8689 20.8262 21.6622 20.8262 21.5244 20.8262C21.4555 20.6884 21.5933 20.7573 21.5244 20.6195ZM22.2822 20.0684C22.2822 20.0684 22.42 20.2751 22.3511 20.344C22.3511 20.4129 22.2134 20.344 22.1445 20.344C22.0756 20.2751 22.0756 20.2062 22.0067 20.1373C22.0067 20.1373 22.0756 20.0684 22.1445 20.0684C22.2134 19.9995 22.2822 19.9995 22.2822 20.0684ZM21.7311 19.7239C21.6622 19.655 21.5933 19.5172 21.5244 19.4483C21.5933 19.3794 21.7311 19.3105 21.8 19.3794C21.8689 19.4483 21.7311 19.655 21.7311 19.7239ZM20.9733 19.3105C21.0422 19.4483 20.9733 19.4483 20.9044 19.5172C20.9044 19.655 20.9733 19.5861 20.8355 19.655C20.8355 19.655 20.8355 19.7239 20.7666 19.7239C20.7666 19.7239 20.7666 19.7239 20.6977 19.7239C20.5599 19.5172 20.4221 19.3105 20.2843 19.1728C20.5599 19.1728 20.6977 19.1728 20.9044 19.1728C20.9733 19.3105 20.9733 19.3105 20.9733 19.3105ZM19.5954 18.6216C19.5265 18.5527 19.4576 18.5527 19.3887 18.4838H19.4576C19.5954 18.4838 19.7332 18.5527 19.871 18.5527C19.8021 18.5527 19.7332 18.5527 19.5954 18.6216ZM18.7686 18.6905C18.6998 18.6216 18.6309 18.5527 18.562 18.5527C18.6998 18.5527 18.7686 18.5527 18.9064 18.5527C19.0442 18.5527 19.1131 18.6216 19.2509 18.6905C19.1131 18.6216 18.9753 18.6216 18.7686 18.6905ZM19.871 21.1018C19.871 21.1707 19.9398 21.2396 19.9398 21.3774H19.871C19.8021 21.3774 19.871 21.5152 19.871 21.5152V21.5841C19.871 21.653 19.9398 21.5841 19.9398 21.5841C19.9398 21.653 19.871 21.7907 19.9398 21.7907C19.9398 21.7907 20.0087 21.7907 20.0087 21.7218C20.0087 21.7907 20.0776 21.9285 20.0776 22.0663C19.6643 22.1352 19.2509 22.2041 18.8375 22.273C18.7686 21.8596 18.6997 21.5841 18.6309 21.3085C19.0442 21.2396 19.4576 21.1707 19.871 21.1018ZM20.3532 22.0663C20.2843 21.8596 20.2843 21.7218 20.2154 21.5841C20.4221 21.5152 20.3532 21.7218 20.4221 21.653C20.4221 21.653 20.491 21.7218 20.4221 21.7218C20.3532 21.7218 20.4221 21.7907 20.491 21.7907C20.5599 21.8596 20.6288 21.5152 20.7666 21.653C20.7666 21.653 20.7666 21.653 20.7666 21.7218C20.7666 21.7218 20.7666 21.7218 20.6977 21.7907C20.6977 21.7907 20.6288 21.7907 20.6288 21.8596V21.9285C20.6288 21.9974 20.5599 21.9974 20.491 22.0663C20.4221 22.0663 20.3532 22.0663 20.3532 22.0663ZM21.8689 22.6864C21.8 22.5486 21.8 22.4797 21.8 22.3419C21.8 22.4108 21.8689 22.4797 21.9378 22.4797H22.0067L22.0756 22.5486C22.1445 22.5486 22.1445 22.6175 22.1445 22.6864C22.1445 22.6864 22.1445 22.7553 22.1445 22.8242C22.0756 22.8242 22.0756 22.8242 22.0067 22.8242C22.0067 22.8242 21.9378 22.8242 21.9378 22.893H21.8C21.8689 22.8242 21.8689 22.7553 21.8689 22.6864ZM23.729 21.653C23.8668 21.653 24.1424 21.6529 24.2113 21.8596C24.2802 22.0663 24.0046 21.9285 23.8668 21.9285C23.8668 21.7907 23.7979 21.7218 23.729 21.653ZM21.2488 18.9661C21.2488 18.9661 21.1799 18.9661 21.111 18.9661V19.035C20.9733 18.8972 20.8355 18.8283 20.6977 18.7594C20.7666 18.7594 20.9044 18.7594 20.9733 18.7594C21.0422 18.8283 21.111 18.8972 21.2488 18.9661ZM18.3553 18.5527C18.4242 18.5527 18.4931 18.6216 18.562 18.6905C18.4242 18.6905 18.2864 18.7594 18.1486 18.7594C18.1486 18.7594 18.1486 18.7594 18.0797 18.7594C18.0108 18.7594 18.0108 18.7594 17.9419 18.7594C17.9419 18.7594 18.0108 18.7594 18.0797 18.6905C18.2175 18.5527 18.2864 18.5527 18.3553 18.5527ZM17.0463 21.5152C16.4951 21.6529 16.3573 21.7218 15.8751 21.8596C15.8751 21.7907 15.8751 21.7907 15.8751 21.7218C16.0129 21.7218 15.944 21.5841 15.944 21.5841L16.0129 21.4463C16.0818 21.4463 16.0818 21.2396 16.0818 21.2396C16.1507 21.1707 16.0818 21.1018 16.0129 21.1018L15.944 21.1707H15.8751C15.8751 21.1707 15.8751 21.1018 15.8062 21.1018V21.0329C16.1507 20.8951 16.2885 20.8951 16.4951 20.8262C16.4951 20.8951 16.4951 20.964 16.4951 21.0329C16.4951 21.0329 16.564 21.0329 16.564 21.1018C16.564 21.1018 16.564 21.1707 16.564 21.2396L16.6329 21.3085C16.7018 21.3774 16.7018 21.4463 16.7707 21.4463H16.8396H16.9085L17.0463 21.5152ZM16.4951 19.7928C16.3573 19.7928 16.2196 19.8617 16.0129 19.9306C16.0129 19.8617 16.0129 19.7928 16.0818 19.7928C16.3573 19.5861 16.4951 19.7928 16.4951 19.7928ZM15.5306 19.7928C15.5995 19.7928 15.6684 19.8617 15.6684 19.8617C15.7373 19.8617 15.8062 19.7928 15.8751 19.7928C15.8751 19.8617 15.8062 19.9306 15.8062 19.9995C15.7373 19.9995 15.7373 19.9995 15.6684 20.0684C15.4617 20.1373 15.3239 20.2062 15.1173 20.2751C15.1861 20.0684 15.3239 19.9306 15.5306 19.7928C15.4617 19.7239 15.4617 19.7239 15.5306 19.7928ZM14.8417 20.0684C14.9106 19.9995 15.0484 19.9306 15.1861 19.8617C15.1173 19.9995 15.0484 20.0684 14.9795 20.2062L14.9106 20.1373C14.9106 20.1373 14.8417 20.1373 14.8417 20.0684ZM14.635 20.344H14.8417C14.9106 20.344 14.9106 20.344 14.9106 20.344C14.7039 20.4129 14.5661 20.5506 14.4283 20.6195C14.4972 20.4817 14.5661 20.4129 14.635 20.344ZM13.7394 21.2396C13.8772 21.1707 13.9461 21.1018 14.0149 21.0329C13.8772 21.2396 13.8083 21.5152 13.7394 21.7218C13.6705 21.7907 13.6705 21.8596 13.6016 21.8596V21.7907C13.6016 21.7218 13.5327 21.7218 13.5327 21.653C13.6016 21.5152 13.6705 21.4463 13.7394 21.2396ZM14.4972 22.6175C14.4972 22.6864 14.4972 22.8242 14.4972 22.893H14.2216C14.2216 22.893 14.2216 22.8242 14.2216 22.7553C14.2905 22.6864 14.4283 22.6864 14.4972 22.6175ZM17.5285 22.893C17.4597 22.893 17.4597 22.8242 17.5285 22.893C17.9419 22.7553 18.3553 22.6175 18.7686 22.5486C18.7686 22.6864 18.8375 22.7553 18.8375 22.893H17.5285ZM19.0442 22.893C19.0442 22.8242 18.9753 22.6864 18.9753 22.6175V22.5486C19.5265 22.4108 19.7332 22.4108 20.2154 22.3419C20.2843 22.4797 20.2843 22.6864 20.3532 22.893C20.3532 22.893 20.3532 22.893 20.3532 22.9619H19.0442V22.893ZM21.0422 22.8242C21.111 22.8242 21.111 22.7553 21.111 22.6864C21.111 22.6175 21.1799 22.6175 21.1799 22.5486C21.1799 22.5486 21.111 22.4797 21.111 22.4108C21.111 22.4108 21.111 22.3419 21.1799 22.3419C21.2488 22.3419 21.3177 22.3419 21.3177 22.3419C21.3866 22.273 21.3866 22.2041 21.4555 22.1352C21.5244 22.273 21.5244 22.4108 21.5933 22.6175C21.5933 22.6864 21.5933 22.7553 21.6622 22.8242H21.0422ZM18.4931 30.5403C15.3928 29.1624 13.6016 27.0267 12.7748 23.8576H18.4931V30.5403ZM19.4576 30.4714V23.7887H25.1758C24.3491 26.4066 22.7645 28.9557 19.4576 30.4714ZM25.3825 22.893C24.5558 20.1373 21.9378 18.1393 18.9753 18.1393C16.0129 18.1393 13.3949 20.1373 12.5682 22.893C12.0859 20.5506 12.1548 18.4149 12.2926 17.3126H25.6581C25.7959 18.6216 25.8647 20.6884 25.3825 22.893ZM30.4807 18.5527C30.4118 18.5527 30.3429 18.5527 30.3429 18.5527C30.274 18.5527 30.2051 18.5527 30.1362 18.6216C30.0673 18.6216 29.9984 18.6216 29.9295 18.6905C29.8606 18.6905 29.7917 18.6905 29.7917 18.7594C29.7228 18.7594 29.7228 18.8283 29.6539 18.8283C29.585 18.8283 29.585 18.8972 29.585 18.9661C29.5161 19.035 29.5161 19.1039 29.5161 19.1728C29.5161 19.2417 29.5161 19.3105 29.5161 19.3794C29.5161 19.4483 29.585 19.5172 29.585 19.5861C29.6539 19.655 29.6539 19.7239 29.7228 19.7239C29.7917 19.7928 29.8606 19.7928 29.9295 19.7928C29.9984 19.7928 30.0673 19.7928 30.1362 19.7928L30.0673 19.5172C29.9984 19.5172 29.9295 19.5172 29.8606 19.4483C29.7917 19.4483 29.7917 19.3794 29.7228 19.3105C29.7228 19.2417 29.7228 19.2417 29.7228 19.1728C29.7228 19.1039 29.7228 19.1039 29.7917 19.1039C29.7917 19.1039 29.7917 19.035 29.8606 19.035C29.8606 19.035 29.9295 19.035 29.9295 18.9661C29.9295 18.9661 29.9984 18.9661 30.0673 18.8972C30.1362 18.8972 30.2051 18.8972 30.274 18.8283C30.3429 18.8283 30.4118 18.8283 30.4807 18.7594C30.5496 18.7594 30.5496 18.7594 30.6184 18.7594H30.6873H30.7562L30.8251 18.8283C30.8251 18.8283 30.894 18.8972 30.894 18.9661C30.894 19.035 30.894 19.1039 30.894 19.1728C30.894 19.2417 30.8251 19.2417 30.7562 19.3105L30.6873 19.655C30.7562 19.655 30.8251 19.5861 30.894 19.5172C30.9629 19.4483 30.9629 19.4483 31.0318 19.3794C31.0318 19.3105 31.1007 19.2417 31.1007 19.1728C31.1007 19.1039 31.1007 19.035 31.1007 18.9661C31.1007 18.8972 31.0318 18.8283 31.0318 18.7594C30.9629 18.6905 30.9629 18.6216 30.894 18.6216C30.8251 18.6216 30.8251 18.5527 30.7562 18.5527C30.6184 18.5527 30.5496 18.5527 30.4807 18.5527ZM28.4138 29.6447C28.4138 29.5758 28.3449 29.5758 28.3449 29.5069C28.3449 29.438 28.276 29.438 28.2071 29.3691C28.1383 29.3002 28.1383 29.3002 28.0694 29.2313C28.0005 29.1624 28.0005 29.1624 27.9316 29.0935C27.8627 29.0246 27.8627 29.0246 27.7938 29.0246C27.7249 29.0246 27.7249 28.9557 27.656 28.9557C27.5871 28.9557 27.5871 28.9557 27.5182 28.9557C27.4493 28.9557 27.3804 28.9557 27.3115 29.0246C27.2426 29.0246 27.1737 29.0935 27.1048 29.1624C27.0359 29.2313 27.0359 29.3002 26.9671 29.3691C26.9671 29.438 26.8982 29.5069 26.8982 29.5758C26.8982 29.6447 26.8982 29.7136 26.8982 29.7825C26.8982 29.8514 26.9671 29.9203 27.0359 29.9891L27.2426 29.7825C27.1737 29.7136 27.1737 29.6447 27.1737 29.6447C27.1737 29.5758 27.1737 29.5069 27.2426 29.438L27.3115 29.3691H27.3804H27.4493H27.5182L27.5871 29.438C27.656 29.438 27.656 29.5069 27.7249 29.5758C27.7938 29.6447 27.7938 29.6447 27.8627 29.7136C27.9316 29.7825 27.9316 29.7825 27.9316 29.7825C27.9316 29.7825 27.9316 29.8514 28.0005 29.8514V29.9203V29.9891C28.0005 30.058 28.0005 30.058 27.9316 30.058C27.8627 30.1269 27.7938 30.1269 27.7938 30.1269C27.7249 30.1269 27.656 30.1269 27.5871 30.058L27.3804 30.2647C27.4493 30.3336 27.5182 30.3336 27.5871 30.3336C27.656 30.3336 27.7249 30.3336 27.7938 30.3336C27.8627 30.3336 27.9316 30.3336 28.0005 30.2647C28.0694 30.2647 28.1383 30.1958 28.1383 30.1269C28.2071 30.058 28.2071 29.9891 28.276 29.9203C28.276 29.8514 28.276 29.7825 28.276 29.7136C28.4138 29.7136 28.4138 29.7136 28.4138 29.6447Z" fill="white"/>
<path d="M28.6754 16.4586L28.262 15.8385L28.6065 15.6319L28.9509 16.183L29.1576 15.9763L28.8131 15.4941L29.1576 15.2874L29.5021 15.9074L29.7777 15.7696L29.2265 14.874L27.8486 15.7008L28.4687 16.5964L28.6754 16.4586Z" fill="white"/>
<path d="M23.7148 32.9243L24.4038 33.131L24.6105 32.442L23.9215 32.2354L23.7148 32.9243Z" fill="white"/>
<path d="M22.9576 10.1891L22.6131 10.0513L22.1309 11.5669L22.4753 11.6358L22.9576 10.1891Z" fill="white"/>
<path d="M10.8321 14.1851V13.4272L10.0742 13.4961V14.254L10.8321 14.1851Z" fill="white"/>
<path d="M12.6233 13.1517L11.6588 11.9116L11.4521 12.0494L12.3478 13.3584L12.6233 13.1517Z" fill="white"/>
<path d="M13.5188 12.5315L13.0365 11.7048L14.0699 12.2559L14.3455 12.1181L13.5877 10.7402L13.3121 10.878L13.7254 11.7048L12.7609 11.1536L12.4854 11.2914L13.2432 12.6693L13.5188 12.5315Z" fill="white"/>
<path d="M9.93631 15.9073L9.72963 15.7006L9.31627 16.3896L9.04069 16.1829L9.31627 15.6317L9.10958 15.4939L8.76511 16.0451L8.48954 15.8384L8.83401 15.2184L8.62733 15.0806L8.07617 15.9762L9.38516 16.734L9.93631 15.9073Z" fill="white"/>
<path d="M35.3583 23.3086C36.1162 23.033 37.9074 22.4819 37.9074 22.4819L35.4272 21.5174C35.4272 21.5174 37.1496 20.7595 37.9074 20.415L35.2894 19.7261C35.9784 19.2438 37.6318 18.3482 37.6318 18.3482L34.945 17.9349L37.0807 16.3503L34.3938 16.2125L36.3229 14.3524L33.636 14.559C34.1871 13.939 34.8072 13.1123 35.3583 12.4922L32.7404 12.9745L34.256 10.7699L31.7069 11.4588C32.0514 10.701 32.947 9.0475 32.947 9.0475L30.6046 9.94313L31.4314 7.60073L29.089 8.90972C29.2957 8.08299 29.5712 7.11847 29.7779 6.36063L27.5733 7.9452C27.5733 7.9452 27.8489 6.08506 27.9867 5.25832L25.9887 7.04957L26.1265 4.3627L25.9887 4.50049C25.4376 5.12054 24.8864 5.80948 24.3353 6.36063L24.1975 3.74265L22.6129 5.87837C22.4751 5.05164 22.2684 4.08712 22.1996 3.26039L20.8217 5.6028L20.0638 3.05371L19.0304 5.46501L17.997 3.05371L17.2392 5.5339L15.9302 3.1915L15.4479 5.80948L13.9323 3.60486L13.7256 6.29174L11.9343 4.29381L12.0032 6.98068L10.0053 5.18943L10.4186 7.80741L8.28293 6.22284L8.97187 8.84082C8.97187 8.84082 7.3873 7.9452 6.62947 7.53183L7.59399 10.012L5.0449 9.0475L6.285 11.3899L3.73591 10.6321L5.25158 12.8367L2.6336 12.3544L4.35596 14.4213L1.73798 14.2146L3.66702 16.0747L0.980144 16.1436L3.11586 17.7971L0.497884 18.1415L2.77139 19.5194C2.01356 19.7261 0.980144 20.0017 0.153413 20.2084L2.56471 21.3107C1.73798 21.724 0.015625 22.413 0.015625 22.413C0.015625 22.413 1.80687 22.9641 2.56471 23.2397L0.153413 24.4798C0.153413 24.4798 2.01356 24.8932 2.77139 25.031C2.08245 25.5132 0.497884 26.5466 0.497884 26.5466L3.18476 26.8222C2.56471 27.3734 1.11793 28.5446 1.11793 28.5446H3.80481L1.94466 30.4736L4.63154 30.1291C4.14928 30.8181 2.97808 32.2648 2.97808 32.2648L5.59605 31.6448L4.21817 33.9183L6.76726 33.0227L5.59605 35.434C5.59605 35.434 7.31841 34.6072 8.00735 34.2628L7.11173 36.8119L9.38523 35.3651L8.97187 38.052L11.0387 36.3985L10.7631 39.0854L12.6922 37.1563V39.9121C12.6922 39.9121 13.8634 38.3964 14.4145 37.7764C14.5523 38.6031 14.759 40.4633 14.759 40.4633L16.2058 38.1897L16.7569 40.8077L16.8947 40.601L17.997 38.3275L18.8926 40.9455L19.8571 38.4653L21.0284 40.8766L21.6484 38.2586C21.6484 38.2586 22.6818 39.8432 23.0952 40.5321L23.4396 37.8453C23.4396 37.8453 24.6108 39.3609 25.0931 39.981L25.162 37.363L27.0221 39.2232L26.8155 36.6052L28.8823 38.2586C28.7445 37.5008 28.3311 35.5718 28.3311 35.5718C29.0201 36.054 29.9157 36.6052 30.6046 37.0185L29.7779 34.4695L32.1892 35.6407C32.1892 35.6407 31.3625 33.9183 31.0869 33.1605C31.8447 33.436 32.8782 33.7805 33.636 34.125C33.7049 34.1939 32.327 31.7826 32.327 31.7826L34.8761 32.4026L33.2915 30.2669L35.9095 30.6114L34.0494 28.6135L36.7362 28.6823L34.6694 26.96L37.3563 26.6844L35.1517 25.0998L37.7696 24.5487L35.3583 23.3086ZM37.2185 22.3441L33.7049 22.2063L35.2894 21.5862C35.9784 21.8618 36.5984 22.1374 37.2185 22.3441ZM33.0848 25.7199L34.3938 26.7533L32.7404 26.8911C32.7404 26.8222 32.947 26.1333 33.0848 25.7199ZM32.4648 16.2814H34.1182C33.7049 16.6259 33.2915 17.0392 32.8782 17.3837L32.4648 16.2814ZM32.947 17.7282L34.6005 18.0037C34.1182 18.3482 33.7738 18.6238 33.2226 18.9683L32.947 17.7282ZM33.4293 24.1353L34.8761 25.031L33.2226 25.3065L33.4293 24.1353ZM33.3604 19.3127L34.945 19.7261L33.5671 20.4839L33.3604 19.3127ZM33.5671 22.5508L35.1517 23.2397C34.6005 23.4464 34.0494 23.5153 33.4982 23.722L33.5671 22.5508ZM33.5671 20.8973L35.1517 21.4485C34.6694 21.6551 34.1182 21.8618 33.5671 22.0685V20.8973ZM37.1496 20.3461L33.636 20.6217L35.1517 19.795L37.1496 20.3461ZM36.874 18.3482L33.4293 18.9683L34.8072 18.0037L36.874 18.3482ZM36.3918 16.4192L33.0848 17.4526L34.3938 16.3503L36.3918 16.4192ZM35.7028 14.4901L32.4648 15.868L33.636 14.559C33.636 14.6279 35.0139 14.559 35.7028 14.4901ZM32.2581 15.868L31.7069 14.8346C32.2581 14.7657 33.3604 14.6968 33.3604 14.6968C33.3604 14.6968 32.6715 15.4547 32.2581 15.868ZM34.7383 12.7678L31.6381 14.559L32.6026 13.1812C33.2915 12.9745 34.0494 12.9056 34.7383 12.7678ZM31.5003 14.4213L30.8113 13.3878L32.3959 13.1812L31.5003 14.4213ZM33.7049 11.0454L30.8802 13.1123L31.7758 11.6655C32.3959 11.4588 33.0159 11.2521 33.7049 11.0454ZM30.6735 13.1123L29.9157 12.2166L31.5692 11.6655L30.6735 13.1123ZM32.3959 9.46087L29.7779 11.8722L30.4669 10.2187L32.3959 9.46087ZM29.5712 11.8722L28.6756 11.0454C29.1579 10.7699 29.709 10.5632 30.2602 10.2876L29.5712 11.8722ZM29.1579 9.1164L30.9491 8.08299L28.6067 10.7699L29.1579 9.1164ZM28.4689 10.7699L27.5044 10.0809L28.9512 9.18529C28.8134 9.66755 28.6067 10.2187 28.4689 10.7699ZM27.7111 8.08299L29.3645 6.91179L27.3666 9.80534L27.7111 8.08299ZM27.1599 9.80534C26.8155 9.66755 26.471 9.39198 26.1265 9.18529L27.5044 8.08299C27.3666 8.70303 27.2977 9.25419 27.1599 9.80534ZM26.0576 7.18736L27.5733 5.80948L25.9198 8.90972L26.0576 7.18736ZM24.4731 6.49842L25.8509 4.98275L24.542 8.22077C24.4731 7.66962 24.4042 7.04957 24.4731 6.49842ZM25.9198 7.25626L25.7821 8.97861L24.6797 8.49635L25.9198 7.25626ZM24.2664 6.56731V8.28967L23.1641 7.9452V7.8763L24.2664 6.56731ZM23.9219 4.29381L22.9574 7.66962L22.7507 5.94727L23.9219 4.29381ZM22.544 6.08506L22.7507 7.80741L21.5795 7.53183L22.544 6.08506ZM21.924 3.94934L21.3728 7.32515L20.9595 5.67169L21.924 3.94934ZM20.7528 5.80948L21.1661 7.46294L19.9949 7.39404L20.7528 5.80948ZM19.926 3.67376L19.7194 7.18736L19.0993 5.6028L19.926 3.67376ZM19.0304 5.80948C19.0304 5.80948 19.4438 6.774 19.6505 7.39404H18.4793L19.0304 5.80948ZM17.9281 3.67376L18.1348 7.18736L17.377 5.67169L17.9281 3.67376ZM17.2392 5.80948L17.997 7.32515L16.7569 7.46294L17.2392 5.80948ZM15.9302 3.88044C15.9302 3.88044 16.2747 6.22284 16.4813 7.32515L15.5857 5.87837L15.9302 3.88044ZM15.4479 6.08506L16.4124 7.53183L15.2412 7.80741L15.4479 6.08506ZM13.9323 4.3627L14.8968 7.73852L13.7945 6.42953L13.9323 4.3627ZM13.7945 6.63621L14.8279 7.8763C14.4834 8.01409 14.07 8.15188 13.7256 8.28967L13.7945 6.63621ZM13.3811 8.22077L12.141 7.11847L12.0721 4.98275L13.3811 8.22077ZM13.3811 8.49635L12.2788 8.97861L12.141 7.32515L13.3811 8.49635ZM4.42485 22.0685C3.8737 21.8618 3.32255 21.6551 2.84029 21.4485C3.39144 21.2418 3.94259 21.0351 4.49375 20.8973C4.35596 21.2418 4.42485 21.6551 4.42485 22.0685ZM4.49375 23.6531L2.84029 23.1708C2.84029 23.1708 3.8737 22.6886 4.42485 22.4819L4.49375 23.6531ZM2.97808 19.6572L4.63154 19.3127L4.49375 20.4839L2.97808 19.6572ZM4.56264 24.0664L4.76932 25.2376L3.11586 24.9621L4.56264 24.0664ZM3.32255 17.866C3.8737 17.7971 4.49375 17.7282 5.0449 17.6593L4.76932 18.8305L3.32255 17.866ZM4.83822 25.651C4.97601 25.9955 5.11379 26.4088 5.18269 26.8222L3.46033 26.7533L4.83822 25.651ZM5.11379 17.3837L3.94259 16.2814L5.52716 16.2125L5.11379 17.3837ZM10.5564 8.15188L11.9343 9.18529L10.832 9.80534L10.5564 8.15188ZM10.5564 10.012L9.59192 10.7699L9.10966 9.18529L10.5564 10.012ZM10.212 5.87837L11.8654 8.97861L10.4875 7.9452L10.212 5.87837ZM8.5585 6.91179L10.5564 9.80534L9.10966 8.97861L8.5585 6.91179ZM6.97394 8.15188L9.24745 10.8388L7.73177 10.1498L6.97394 8.15188ZM9.31634 10.9765L8.42072 11.8722L7.80067 10.3565L9.31634 10.9765ZM5.52716 9.52976C6.35389 10.3565 7.24951 11.1143 8.07624 11.9411L6.49168 11.4588L5.52716 9.52976ZM8.14514 12.1477C7.86956 12.4922 7.59399 12.7678 7.3873 13.1123L6.62947 11.7344L8.14514 12.1477ZM4.21817 11.1143C5.18269 11.8033 6.14721 12.4922 7.04283 13.2501L5.38937 12.9056L4.21817 11.1143ZM7.11173 13.3878L6.49168 14.4213L5.52716 13.0434L7.11173 13.3878ZM3.18476 12.8367L6.2161 14.559L4.56264 14.4213L3.18476 12.8367ZM6.285 14.7657L5.73384 15.868L4.63154 14.6279L6.285 14.7657ZM2.28913 14.6279C3.39144 15.1102 4.35596 15.5925 5.45827 16.0058L3.80481 16.0747L2.28913 14.6279ZM1.5313 16.4881L4.90711 17.5904L3.18476 17.7971L1.5313 16.4881ZM1.04904 18.4171L4.49375 19.1061L2.77139 19.4505L1.04904 18.4171ZM0.773461 20.415L4.28706 20.6906L2.6336 21.2418L0.773461 20.415ZM0.704567 22.413L4.21817 22.3441L2.7025 23.033L0.704567 22.413ZM0.911249 24.4798L4.35596 23.9975L2.90918 24.8932L0.911249 24.4798ZM1.25572 26.4088L4.63154 25.5821L3.32255 26.6155L1.25572 26.4088ZM1.87577 28.3379L5.18269 27.0978L4.01149 28.269L1.87577 28.3379ZM5.38937 27.1667L5.87163 28.269L4.14928 28.3379L5.38937 27.1667ZM2.7025 30.198L5.80274 28.6135L4.70043 29.9224L2.7025 30.198ZM6.00942 28.6823C6.2161 29.0268 6.42278 29.3713 6.62947 29.7158L4.90711 29.9913L6.00942 28.6823ZM3.73591 31.9204L6.62947 29.9913L5.73384 31.4381L3.73591 31.9204ZM6.83615 30.0602L7.52509 31.0247L5.87163 31.4381L6.83615 30.0602ZM4.90711 33.5738L7.66288 31.3692L6.90504 32.816L4.90711 33.5738ZM7.80067 31.3003L8.6274 32.196L7.11173 32.816L7.80067 31.3003ZM8.14514 34.0561L6.285 34.9517L8.76519 32.4715L8.14514 34.0561ZM8.90297 32.4715L9.7986 33.2294L8.28293 33.9872L8.90297 32.4715ZM9.52302 35.2273L7.80067 36.3296L9.93639 33.5738L9.52302 35.2273ZM10.1431 33.5049L11.1076 34.1939L9.72971 35.1584L10.1431 33.5049ZM11.1076 36.1918L9.45413 37.5008L11.3143 34.4695L11.1076 36.1918ZM11.4521 34.4695L12.4855 35.0206L11.1765 36.1229L11.4521 34.4695ZM11.2454 38.4653L12.761 35.2962V36.9496L11.2454 38.4653ZM13.0366 39.2232L14.2767 35.9162C14.3456 36.4674 14.4834 37.5697 14.4834 37.5697L13.0366 39.2232ZM12.8988 36.8119V35.1584L14.0011 35.6407L12.8988 36.8119ZM14.5523 37.363L14.3456 35.7784L15.4479 36.1229L14.5523 37.363ZM14.9657 39.7743L15.7924 36.3296L16.1369 37.9142L14.9657 39.7743ZM16.2747 37.7075L15.9302 36.1918L17.1014 36.3985L16.2747 37.7075ZM16.9636 40.0499L17.377 36.5363L17.8592 38.1897L16.9636 40.0499ZM18.0659 38.052L17.5836 36.4674L18.8237 36.5363L18.0659 38.052ZM19.0304 40.1877V36.6741L19.7194 38.2586L19.0304 40.1877ZM19.8571 38.052C19.8571 38.052 19.4438 37.0185 19.1682 36.4674C19.5816 36.4674 20.3394 36.3985 20.3394 36.3985L19.8571 38.052ZM21.0284 40.0499L20.6839 36.5363L21.5106 37.9831L21.0284 40.0499ZM21.6484 37.8453L20.8217 36.3985L21.9929 36.1918L21.6484 37.8453ZM23.0263 39.7054L22.2684 36.2607L23.3019 37.6386L23.0263 39.7054ZM23.3708 37.5008L22.3373 36.1229L23.4396 35.7784L23.3708 37.5008ZM24.9553 39.1543L23.853 35.8473L25.0242 37.1563L24.9553 39.1543ZM23.9219 35.6407L25.0242 35.1584V36.8119L23.9219 35.6407ZM18.9615 35.5718C11.3832 35.5718 5.32048 29.4402 5.32048 21.9307C5.32048 14.3524 11.4521 8.28967 18.9615 8.28967C26.5399 8.28967 32.6026 14.4213 32.6026 21.9307C32.6715 29.5091 26.5399 35.5718 18.9615 35.5718ZM33.7738 28.4068L32.1203 28.3379L32.6026 27.2356L33.7738 28.4068ZM32.947 29.9913L31.2936 29.7847C31.5692 29.3713 31.8447 28.7512 31.8447 28.7512L32.947 29.9913ZM31.9825 31.4381L30.3291 31.0247L31.018 30.0602L31.9825 31.4381ZM30.8802 32.8849L29.3645 32.2648L30.1224 31.3692L30.8802 32.8849ZM28.9512 32.5404L29.5712 34.125L28.0556 33.2983L28.9512 32.5404ZM27.78 33.5738L28.1933 35.2273L26.8155 34.2628L27.78 33.5738ZM26.6777 36.1229L25.4376 35.0206L26.471 34.4695L26.6777 36.1229ZM26.8155 38.4653L25.2998 35.2273L26.6088 36.3985L26.8155 38.4653ZM28.6067 37.4319L26.8155 34.4006L28.1933 35.3651L28.6067 37.4319ZM30.2602 36.3296L28.1245 33.5049L29.6401 34.3317L30.2602 36.3296ZM31.7758 34.9517L29.3645 32.4026L30.9491 33.0227L31.7758 34.9517ZM33.1537 33.5049L30.398 31.2314L32.0514 31.6448L33.1537 33.5049ZM34.3249 31.8515L31.3625 29.9224L33.0159 30.1291L34.3249 31.8515ZM35.2894 30.1291L32.1892 28.5446L33.8427 28.6135L35.2894 30.1291ZM36.1162 28.269L32.8093 27.0289L34.4627 26.8911L36.1162 28.269ZM36.7362 26.3399L33.2915 25.4443L35.0139 25.1687L36.7362 26.3399ZM33.5671 23.8598L35.2206 23.3775L37.0807 24.342L33.5671 23.8598Z" fill="white"/>
<path d="M14.8968 10.4647L15.379 11.7048L15.6546 11.6359L15.2412 10.3958L15.5857 10.258L15.5168 9.98242L14.4834 10.3269L14.5523 10.6025L14.8968 10.4647Z" fill="white"/>
<path d="M7.46103 17.9918C7.46103 18.0607 7.52992 18.0607 7.59882 18.0607C7.66771 18.1296 7.66771 18.1296 7.73661 18.1296C7.8055 18.1296 7.8744 18.1985 7.94329 18.1985C8.01218 18.1985 8.08108 18.2674 8.14997 18.2674C8.21887 18.2674 8.28776 18.3363 8.28776 18.3363C8.35666 18.3363 8.35665 18.3363 8.42555 18.3363C8.49444 18.3363 8.49444 18.3363 8.56334 18.2674C8.63223 18.2674 8.70113 18.1985 8.77002 18.1296C8.83891 18.0607 8.83891 17.9918 8.90781 17.9229C8.90781 17.854 8.9767 17.7851 8.9767 17.7162C8.9767 17.6473 8.9767 17.5785 8.90781 17.4407C8.90781 17.3718 8.83891 17.3029 8.77002 17.234C8.70113 17.3029 8.56334 17.234 8.49444 17.1651L8.28776 17.0962L8.08108 17.6473L8.28776 17.7162L8.42555 17.4407H8.49444C8.56334 17.4407 8.56334 17.4407 8.56334 17.5096L8.63223 17.5785C8.63223 17.5785 8.63223 17.6473 8.63223 17.7162C8.63223 17.7851 8.63223 17.7851 8.63223 17.854C8.63223 17.9229 8.56334 17.9229 8.56334 17.9918L8.49444 18.0607H8.42555H8.35666C8.35666 18.0607 8.28776 18.0607 8.21887 18.0607C8.14997 17.9918 8.08108 17.9918 8.01218 17.9229C7.94329 17.9229 7.8744 17.9229 7.8744 17.854C7.8055 17.854 7.8055 17.7851 7.73661 17.7851L7.66771 17.7162C7.66771 17.7162 7.66771 17.7162 7.59882 17.6473V17.5785C7.59882 17.5096 7.59882 17.5096 7.59882 17.4407C7.59882 17.3718 7.66771 17.3029 7.73661 17.3029C7.8055 17.3029 7.8744 17.234 7.94329 17.3029L8.08108 17.0273C8.01218 17.0273 7.94329 17.0273 7.8744 17.0273C7.8055 17.0273 7.73661 17.0273 7.66771 17.0962C7.59882 17.0962 7.52992 17.1651 7.52992 17.234C7.46103 17.234 7.39214 17.3029 7.39214 17.3718C7.39214 17.4407 7.32324 17.5096 7.32324 17.5785C7.32324 17.6473 7.32324 17.7162 7.39214 17.7851C7.39214 17.9229 7.46103 17.9229 7.46103 17.9918ZM15.6594 14.6849C15.7283 14.8227 15.8661 14.9605 16.0039 15.0983C16.1417 15.1672 16.2795 15.3049 16.4862 15.3049C16.6929 15.3738 16.8306 15.3738 17.0373 15.3738C17.1751 15.3738 17.3129 15.3738 17.4507 15.3049C17.5885 15.3049 17.7263 15.2361 17.7952 15.1672C17.7952 15.1672 17.8641 15.1672 17.8641 15.0983V15.0294V14.7538C17.8641 14.5471 17.8641 14.4093 17.8641 14.3404V14.1337C17.8641 14.1337 17.8641 14.0648 17.7952 14.0648C17.7263 14.0648 17.6574 14.0648 17.6574 14.0648C17.6574 14.0648 17.5885 14.0648 17.5196 14.0648C17.3818 14.0648 17.3129 14.0648 17.244 14.0648C17.1751 14.0648 17.1751 14.0648 17.1751 14.1337C17.1751 14.1337 17.1751 14.2026 17.244 14.2026C17.3129 14.2026 17.3129 14.2026 17.3818 14.2026C17.4507 14.2026 17.4507 14.2026 17.4507 14.2715C17.4507 14.2715 17.4507 14.3404 17.4507 14.4093C17.4507 14.4782 17.4507 14.616 17.4507 14.8227V15.0983C17.4507 15.1672 17.4507 15.1672 17.3818 15.1672C17.3818 15.1672 17.3129 15.1672 17.244 15.1672C17.1751 15.1672 17.1751 15.1672 17.1062 15.1672C16.9684 15.1672 16.8306 15.1672 16.6929 15.0983C16.5551 15.0294 16.4173 14.9605 16.3484 14.8227C16.2795 14.6849 16.2106 14.616 16.1417 14.4782C16.0728 14.3404 16.0728 14.2026 16.0728 13.996C16.0728 13.7893 16.0728 13.6515 16.1417 13.5137C16.2106 13.3759 16.2795 13.307 16.3484 13.2381C16.4173 13.2381 16.4862 13.1692 16.624 13.1003C16.8306 13.1003 17.1062 13.1003 17.3129 13.1692C17.4507 13.2381 17.5196 13.307 17.5885 13.307C17.5885 13.3759 17.6574 13.3759 17.6574 13.4448C17.6574 13.5137 17.6574 13.5137 17.6574 13.5826C17.6574 13.6515 17.6574 13.6515 17.7263 13.6515C17.7263 13.6515 17.7952 13.6515 17.7952 13.5826C17.7952 13.4448 17.7952 13.3759 17.7952 13.307C17.7952 13.2381 17.7952 13.1692 17.7952 13.1003C17.7952 13.1003 17.7952 13.1003 17.7952 13.0314C17.7952 13.0314 17.7952 12.9625 17.7263 12.9625C17.7263 12.9625 17.6574 12.9625 17.5885 12.9625C17.5196 12.9625 17.5196 12.9625 17.4507 12.9625H17.3818C17.3129 12.9625 17.3129 12.9625 17.244 12.9625C17.1751 12.9625 17.1062 12.9625 17.1062 12.9625C16.8995 12.9625 16.6929 12.9625 16.4862 13.0314C16.3484 13.0314 16.2106 13.1003 16.0728 13.1692C15.935 13.2381 15.7972 13.3759 15.6594 13.5826C15.5217 13.7893 15.5217 13.996 15.5217 14.2026C15.5217 14.3404 15.5905 14.5471 15.6594 14.6849ZM19.4486 15.2361H19.3797C19.3108 15.2361 19.3108 15.2361 19.3108 15.1672V15.0983C19.3108 15.0294 19.3108 14.9605 19.3108 14.8227C19.3108 14.7538 19.3108 14.5471 19.3108 14.4093V13.3759C19.3108 13.307 19.3108 13.2381 19.3108 13.1692C19.3108 13.1003 19.3108 13.1003 19.3108 13.0314L19.3797 12.9625C19.4486 12.9625 19.4486 12.9625 19.4486 12.9625C19.5175 12.9625 19.5175 12.8936 19.5175 12.8936C19.5175 12.8248 19.4486 12.8248 19.4486 12.8248C19.3797 12.8248 19.3108 12.8248 19.2419 12.8248C19.173 12.8248 19.1041 12.8248 19.1041 12.8248C19.1041 12.8248 19.0353 12.8248 18.8975 12.8248C18.7597 12.8248 18.6908 12.8248 18.6908 12.8248C18.6908 12.8248 18.6219 12.8248 18.6219 12.8936C18.6219 12.8936 18.6219 12.9625 18.6908 12.9625C18.7597 12.9625 18.7597 12.9625 18.8286 12.9625C18.8975 12.9625 18.8975 13.0314 18.8975 13.1003C18.8975 13.1692 18.8975 13.2381 18.8975 13.307V14.3404C18.8975 14.5471 18.8975 14.6849 18.8975 14.7538C18.8975 14.8227 18.8975 14.9605 18.8975 15.0294C18.8975 15.0983 18.8975 15.1672 18.8286 15.1672C18.7597 15.1672 18.7597 15.1672 18.6908 15.1672C18.6219 15.1672 18.6219 15.1672 18.6219 15.2361C18.6219 15.2361 18.6219 15.3049 18.6908 15.3049C18.7597 15.3049 18.8286 15.3049 18.9664 15.3049C19.0353 15.3049 19.1041 15.3049 19.1041 15.3049C19.1041 15.3049 19.173 15.3049 19.2419 15.3049C19.3797 15.3049 19.5175 15.3049 19.5864 15.3049C19.6553 15.3049 19.6553 15.3049 19.6553 15.2361C19.6553 15.2361 19.6553 15.1672 19.5864 15.1672C19.4486 15.2361 19.4486 15.2361 19.4486 15.2361ZM19.862 15.3738C19.9309 15.3738 19.9998 15.3738 19.9998 15.3738C20.0687 15.3738 20.0687 15.3738 20.1376 15.3738C20.2065 15.3738 20.2065 15.3738 20.2065 15.3738C20.2065 15.3738 20.2753 15.3738 20.3442 15.3738C20.4131 15.3738 20.482 15.3738 20.482 15.3738C20.5509 15.3738 20.5509 15.3738 20.5509 15.3049C20.5509 15.3049 20.5509 15.2361 20.482 15.2361H20.4131C20.3442 15.2361 20.3442 15.2361 20.3442 15.2361C20.3442 15.2361 20.3442 15.2361 20.3442 15.1672C20.3442 15.0983 20.3442 15.0294 20.4131 14.9605L20.6198 14.4782H21.3088L21.5843 15.1672V15.2361C21.5843 15.2361 21.5843 15.3049 21.6532 15.3049C21.6532 15.3049 21.7221 15.3049 21.791 15.3049C21.8599 15.3049 21.8599 15.3049 21.9288 15.3049H22.2044C22.2733 15.3049 22.2733 15.3049 22.3422 15.3049C22.4111 15.3049 22.4111 15.2361 22.4111 15.2361C22.4111 15.2361 22.4111 15.1672 22.3422 15.1672C22.2733 15.1672 22.2733 15.1672 22.2044 15.1672C22.1355 15.1672 22.1355 15.0983 22.0666 15.0983C21.9977 15.0294 21.9977 14.9605 21.9288 14.8227L21.2399 13.1003C21.171 12.9625 21.171 12.8936 21.171 12.8936C21.171 12.8248 21.1021 12.7559 21.1021 12.7559C21.1021 12.7559 21.0332 12.7559 21.0332 12.8248C21.0332 12.8248 21.0332 12.8936 20.9643 12.9625L20.2065 14.9605C20.2065 15.0983 20.1376 15.1672 20.1376 15.1672C20.1376 15.2361 20.0687 15.2361 19.9998 15.2361H19.9309C19.862 15.2361 19.862 15.3049 19.862 15.3049C19.7931 15.3049 19.7931 15.3738 19.862 15.3738ZM21.0332 13.5826L21.3088 14.3404H20.7576L21.0332 13.5826Z" fill="white"/>
<path d="M17.7211 11.1534L17.6522 10.8778L16.9633 11.0156L16.8944 10.6023L17.5144 10.5334L17.4455 10.2578L16.8255 10.3267V9.98221L17.5144 9.84442L17.4455 9.56885L16.4121 9.77553L16.6877 11.2912L17.7211 11.1534Z" fill="white"/>
<path d="M8.34336 19.7873C8.34336 19.7184 8.34336 19.6495 8.34336 19.5806C8.34336 19.5117 8.27446 19.4428 8.27446 19.3739C8.20557 19.305 8.20557 19.305 8.13667 19.2361C8.06778 19.2361 8.06778 19.1672 7.99888 19.1672C7.92999 19.1672 7.8611 19.0983 7.8611 19.0983L7.65441 19.0294H7.51663C7.44773 19.0294 7.37884 19.0294 7.37884 19.0294C7.30994 19.0294 7.24105 19.0294 7.24105 19.0294C7.17215 19.0294 7.10326 19.0983 7.10326 19.0983C7.03437 19.1672 6.96547 19.1672 6.96547 19.2361C6.89658 19.305 6.89658 19.3739 6.89658 19.4428L6.75879 19.9939L8.27446 20.3384L8.34336 19.7873ZM8.06778 19.7184L7.99888 19.925L7.03437 19.7873V19.5117C7.03437 19.4428 7.03437 19.4428 7.10326 19.3739L7.17215 19.305H7.24105H7.30994C7.30994 19.305 7.37884 19.305 7.44773 19.305C7.51663 19.305 7.51663 19.305 7.58552 19.305C7.72331 19.305 7.7922 19.3739 7.8611 19.3739C7.92999 19.3739 7.99888 19.4428 7.99888 19.4428C7.99888 19.4428 8.06778 19.5117 8.06778 19.5806C8.06778 19.6495 8.06778 19.6495 8.06778 19.7184ZM18.4019 10.4865C18.4019 10.5554 18.4019 10.6243 18.4019 10.6243C18.4019 10.6932 18.4019 10.6932 18.4708 10.7621C18.5397 10.831 18.5397 10.831 18.5397 10.8999C18.6086 10.9688 18.6775 10.9688 18.7464 11.0377C18.8153 11.0377 18.8842 11.1066 18.9531 11.1066C19.022 11.1066 19.0908 11.1066 19.1597 11.0377C19.2286 11.0377 19.2975 10.9688 19.3664 10.8999C19.4353 10.831 19.4353 10.7621 19.5042 10.6932C19.5042 10.6243 19.5042 10.5554 19.5042 10.4176V10.211H18.8842V10.4865H19.1597V10.5554C19.1597 10.6243 19.1597 10.6243 19.1597 10.6932C19.1597 10.7621 19.1597 10.7621 19.0908 10.7621L19.022 10.831C18.9531 10.831 18.9531 10.831 18.8842 10.831C18.8153 10.831 18.8153 10.831 18.7464 10.831C18.7464 10.831 18.6775 10.831 18.6775 10.7621C18.6775 10.7621 18.6775 10.7621 18.6086 10.6932V10.6243C18.6086 10.6243 18.6086 10.5554 18.6086 10.4865C18.6086 10.4176 18.6086 10.3487 18.6086 10.2799C18.6086 10.211 18.6086 10.1421 18.6086 10.0732C18.6086 10.0043 18.6086 10.0043 18.6086 9.93538C18.7464 9.93538 18.7464 9.93538 18.7464 9.93538C18.7464 9.93538 18.7464 9.86649 18.8153 9.86649L18.8842 9.7976C18.8842 9.7976 18.9531 9.7976 19.022 9.7976C19.0908 9.7976 19.1597 9.7976 19.2286 9.86649C19.2975 9.93538 19.2975 9.93538 19.2975 10.0043H19.5731C19.5731 9.93538 19.5731 9.86649 19.5042 9.7976C19.5042 9.7287 19.4353 9.65981 19.3664 9.65981C19.2975 9.59091 19.2286 9.59091 19.1597 9.52202C19.0908 9.52202 19.022 9.45312 18.8842 9.45312C18.8153 9.45312 18.7464 9.45312 18.6775 9.52202C18.6086 9.52202 18.5397 9.59091 18.4708 9.65981C18.4019 9.7287 18.4019 9.7287 18.4019 9.7976C18.4019 9.86649 18.333 9.86649 18.333 9.93538C18.333 10.0043 18.333 10.0732 18.333 10.0732C18.333 10.1421 18.333 10.211 18.333 10.2799C18.4019 10.3487 18.4019 10.4176 18.4019 10.4865Z" fill="white"/>
<path d="M29.4336 24.9323L29.7092 25.0012L29.847 24.3122L31.0871 24.5878L31.1559 24.3122L29.6403 23.9678L29.4336 24.9323Z" fill="white"/>
<path d="M8.14458 22.7969H7.869L7.9379 23.4858L6.62891 23.6925L6.6978 23.9681L8.28237 23.7614L8.14458 22.7969Z" fill="white"/>
<path d="M9.31662 28.1018C9.38551 28.1018 9.38551 28.0329 9.4544 28.0329C9.5233 28.0329 9.5233 27.964 9.59219 27.8951C9.59219 27.8262 9.66109 27.8262 9.66109 27.7573C9.66109 27.6884 9.66109 27.6195 9.66109 27.5506C9.66109 27.4817 9.59219 27.4128 9.59219 27.3439C9.5233 27.275 9.5233 27.2061 9.4544 27.1373C9.38551 27.0684 9.31662 27.0684 9.24772 27.0684C9.17883 27.0684 9.10993 27.0684 9.10993 27.0684C9.04104 27.0684 9.04104 27.0684 8.97214 27.0684C8.90325 27.0684 8.90325 27.1373 8.83436 27.1373C8.76546 27.1373 8.69657 27.2061 8.69657 27.2061C8.62767 27.2061 8.55878 27.275 8.55878 27.275C8.48989 27.275 8.48989 27.3439 8.42099 27.3439C8.3521 27.3439 8.3521 27.4128 8.3521 27.4817C8.3521 27.5506 8.2832 27.5506 8.2832 27.6195C8.2832 27.6884 8.2832 27.7573 8.2832 27.8262C8.2832 27.8951 8.2832 27.964 8.3521 28.0329C8.42099 28.1018 8.42099 28.1707 8.48989 28.2396C8.55878 28.3085 8.62767 28.3085 8.69657 28.3085C8.76546 28.3085 8.83436 28.3085 8.83436 28.3085C8.90325 28.3085 8.90325 28.3085 8.97214 28.3085C9.04104 28.3085 9.04104 28.2396 9.10993 28.2396C9.17883 28.2396 9.24772 28.1707 9.24772 28.1707C9.17883 28.1707 9.24772 28.1018 9.31662 28.1018ZM8.83436 28.0329C8.76546 28.0329 8.76546 28.1018 8.69657 28.1018H8.62767H8.55878C8.55878 28.1018 8.48989 28.1018 8.48989 28.0329L8.42099 27.964C8.42099 27.8951 8.42099 27.8951 8.3521 27.8262C8.3521 27.7573 8.3521 27.7573 8.3521 27.7573V27.6884C8.3521 27.6884 8.3521 27.6195 8.42099 27.6195L8.48989 27.5506C8.55878 27.5506 8.55878 27.4817 8.62767 27.4817C8.69657 27.4128 8.76546 27.4128 8.76546 27.4128C8.83436 27.4128 8.83436 27.3439 8.90325 27.3439H8.97214H9.04104C9.04104 27.3439 9.10993 27.3439 9.10993 27.4128L9.17883 27.4817C9.17883 27.5506 9.17883 27.5506 9.24772 27.6195C9.24772 27.6884 9.24772 27.6884 9.24772 27.6884V27.7573C9.24772 27.7573 9.24772 27.8262 9.17883 27.8262L9.10993 27.8951C9.04104 27.8951 9.04104 27.964 8.97214 27.964C8.90325 27.964 8.83436 27.964 8.83436 28.0329Z" fill="white"/>
<path d="M8.76497 25.6211L7.73156 25.69L8.55829 25.07L8.4894 24.8633L6.83594 24.9322L6.97373 25.2078L8.00714 25.1389L7.11151 25.7589L7.18041 25.9656L8.21382 25.8967L7.38709 26.4478L7.45599 26.7923L8.83387 25.8967L8.76497 25.6211Z" fill="white"/>
<path d="M28.8135 26.5168L29.0891 26.6546L29.3646 25.9656L29.7091 26.1034L29.5024 26.7234L29.7091 26.7923L29.9847 26.2412L30.3291 26.379L30.0536 26.999L30.2603 27.1368L30.6736 26.1723L29.2268 25.5522L28.8135 26.5168Z" fill="white"/>
<path d="M28.3313 27.4128L29.1581 27.895L28.0558 27.9639L27.918 28.1706L29.227 28.9974L29.3647 28.7218L28.538 28.2395H29.7092L29.847 27.9639L28.538 27.1372L28.3313 27.4128Z" fill="white"/>
<path d="M10.8323 29.1347L10.0744 29.7548L10.4189 28.6525L10.2122 28.4458L9.04102 29.4103L9.2477 29.6859L9.93664 29.0658L9.59217 30.1682L9.79885 30.3748L10.9701 29.3414L10.8323 29.1347Z" fill="white"/>
<path d="M20.4083 33.6129C20.3394 33.544 20.3394 33.544 20.2705 33.4751C20.3394 33.4751 20.3394 33.4062 20.4083 33.3373C20.4083 33.2684 20.4772 33.1995 20.4772 33.1307C20.4772 33.0618 20.4772 32.9929 20.4083 32.924C20.4083 32.8551 20.3394 32.8551 20.2705 32.7862C20.2016 32.7173 20.2016 32.7173 20.1327 32.7173C20.0638 32.7173 19.995 32.7173 19.9261 32.7173C19.8572 32.7173 19.7883 32.7173 19.7194 32.7862C19.6505 32.7862 19.5816 32.8551 19.5816 32.8551C19.5127 32.924 19.5127 32.924 19.5127 32.9929C19.5127 33.0618 19.5127 33.1307 19.5127 33.1995H19.7883C19.7883 33.1307 19.7883 33.0618 19.8572 33.0618C19.8572 32.9929 19.9261 32.9929 19.995 32.9929C20.0638 32.9929 20.0638 32.9929 20.1327 33.0618C20.2016 33.0618 20.2016 33.1307 20.2016 33.1995C20.2016 33.2684 20.2016 33.3373 20.2016 33.3373C20.2016 33.4062 20.1327 33.4062 20.0638 33.4062H19.995V33.6818H20.0638C20.1327 33.6818 20.2016 33.6818 20.2016 33.7507C20.2705 33.8196 20.2705 33.8196 20.2705 33.8885C20.2705 33.9574 20.2705 34.0263 20.2016 34.0263C20.1327 34.0952 20.1327 34.0952 20.0638 34.0952H19.995H19.9261L19.8572 34.0263V33.9574H19.5816C19.5816 34.0263 19.5816 34.0952 19.6505 34.1641C19.6505 34.233 19.7194 34.233 19.7883 34.3019C19.8572 34.3019 19.9261 34.3707 19.9261 34.3707C19.995 34.3707 20.0638 34.3707 20.1327 34.3707C20.2016 34.3707 20.2705 34.3707 20.3394 34.3019C20.4083 34.3019 20.4772 34.233 20.4772 34.233C20.5461 34.1641 20.5461 34.1641 20.5461 34.0952C20.5461 34.0263 20.5461 33.9574 20.5461 33.8885C20.4772 33.7507 20.4772 33.6818 20.4083 33.6129Z" fill="white"/>
<path d="M21.5797 32.5108L21.373 32.8553L21.4419 33.1308L21.6486 32.7864L21.9931 34.0265L22.2687 33.9576L21.8553 32.4419L21.5797 32.5108Z" fill="white"/>
<path d="M11.8652 30.7883L11.5896 30.8571L11.7274 30.0304L11.4518 29.8237L11.314 30.926L10.4873 31.0638L10.7629 31.2705L11.6585 31.1327L11.1762 31.6839L11.4518 31.8217L12.4163 30.6505L12.2097 30.4438L11.8652 30.7883Z" fill="white"/>
<path d="M18.4796 32.924C18.4107 32.8551 18.4107 32.8551 18.3418 32.7862C18.2729 32.7862 18.204 32.7173 18.1351 32.7173C18.0662 32.7173 17.9973 32.7173 17.9285 32.7173C17.8596 32.7173 17.7907 32.7862 17.7907 32.7862C17.7218 32.8551 17.7218 32.8551 17.6529 32.924C17.6529 32.9929 17.584 33.0618 17.584 33.1307C17.584 33.1995 17.584 33.2684 17.584 33.3373C17.584 33.4062 17.6529 33.4751 17.6529 33.4751C17.7218 33.544 17.7218 33.544 17.7907 33.544C17.8596 33.544 17.8596 33.6129 17.9285 33.6129H17.9973H18.0662L17.7218 34.233H18.0662L18.4796 33.6129C18.5485 33.544 18.5485 33.4751 18.6174 33.4062C18.6174 33.3373 18.6863 33.2684 18.6863 33.1995C18.6863 33.1307 18.6863 33.0618 18.6863 32.9929C18.5485 32.9929 18.4796 32.9929 18.4796 32.924ZM18.2729 33.2684C18.2729 33.3373 18.2729 33.4062 18.204 33.4062C18.1351 33.4751 18.1351 33.4751 18.0662 33.4751C17.9974 33.4751 17.9285 33.4751 17.9285 33.4062C17.9285 33.3373 17.8596 33.3373 17.8596 33.1995C17.8596 33.1307 17.8596 33.0618 17.9285 33.0618C17.9973 32.9929 17.9974 32.9929 18.0662 32.9929C18.1351 32.9929 18.204 32.9929 18.204 33.0618C18.2729 33.1307 18.2729 33.1995 18.2729 33.2684Z" fill="white"/>
<path d="M16.0679 32.7174L15.999 32.993L16.3435 32.8552L16.0679 34.0264L16.3435 34.0953L16.688 32.5796L16.4124 32.5107L16.0679 32.7174Z" fill="white"/>
<path d="M13.4502 32.4416L13.6569 33.1305L14.4147 32.9239L14.1391 32.166L13.4502 32.4416Z" fill="white"/>
<path d="M29.7773 23.3479H30.0529V22.6589L31.3619 22.7278L31.4308 22.3833L29.8462 22.3145L29.7773 23.3479Z" fill="white"/>
<path d="M22.5439 25.1393L22.6817 24.9326L22.5439 24.8637L22.8883 24.5192L22.5439 24.2437L22.1994 24.5881L22.0616 24.5192L21.9238 24.657C22.1305 24.7948 22.3372 24.9326 22.5439 25.1393Z" fill="white"/>
<path d="M29.8462 21.6253L30.1218 21.5564L30.0529 20.8675L30.4663 20.7986V21.4186H30.7419L30.673 20.7986H31.0863L31.1552 21.4875H31.4308L31.293 20.4541L29.7773 20.5919L29.8462 21.6253Z" fill="white"/>
<path d="M15.5273 27.4707L14.7695 25.8172H14.1494V25.8861C14.1494 25.8861 15.045 26.9195 15.5273 27.4707ZM21.3833 26.1617L21.7278 25.8172L21.8656 25.955L22.0034 25.8172C21.9345 25.6105 21.7967 25.4727 21.5211 25.335C21.5211 25.335 21.5211 25.335 21.4522 25.335L21.3144 25.5416L21.4522 25.6794L21.1077 26.0928L21.3833 26.1617Z" fill="white"/>
<path d="M21.3141 27.0572L21.1074 27.5395H22.072L22.0031 27.1261C22.3475 26.9883 22.5542 26.5749 22.6231 26.0927C22.6231 26.0238 22.6231 26.0238 22.6231 25.9549V25.886V25.8171V25.7482C22.6231 25.7482 22.6231 25.7482 22.6231 25.6793V25.6104V25.5415V25.4726C22.6231 25.4726 22.6231 25.4037 22.5542 25.4037C22.5542 25.4037 22.5542 25.3348 22.4853 25.3348C22.3475 25.1282 22.1409 24.9904 21.9342 24.8526C21.8653 24.7837 21.8653 24.7837 21.7964 24.7837L21.5208 25.1282C21.5208 25.0593 21.5208 25.0593 21.5897 25.1282C21.5897 25.1282 21.5897 25.1282 21.6586 25.1282C21.8653 25.266 22.072 25.4037 22.1409 25.6104C22.1409 25.6793 22.1409 25.6793 22.2098 25.7482V25.8171C22.2098 25.8171 22.2098 25.8171 22.2098 25.886C22.2098 25.9549 22.2098 25.9549 22.2098 26.0238C22.1409 26.4372 21.9342 26.7816 21.5208 26.7816L20.5563 25.9549L20.3496 26.2305L21.3141 27.0572Z" fill="white"/>
<path d="M14.1387 25.5526V25.6215H15.6543L14.8276 25.0703L14.1387 25.5526Z" fill="white"/>
<path d="M16.4814 25.6215H17.9971V25.5526L17.3771 25.0703L16.4814 25.6215Z" fill="white"/>
<path d="M15.9303 27.7572V25.8281H14.9658L15.9303 27.7572Z" fill="white"/>
<path d="M16.4814 27.4816L17.9971 25.897V25.8281H17.3771L16.4814 27.4816Z" fill="white"/>
<path d="M16.1367 25.8281V27.7572L17.1701 25.8281H16.1367Z" fill="white"/>
<path d="M21.0284 27.0683L20.3395 26.4482L20.1328 26.8616L20.6151 27.275L21.0284 27.0683Z" fill="white"/>
<path d="M15.1035 24.9326L15.9991 25.5527L17.1014 24.9326H15.1035Z" fill="white"/>
</g>
<defs>
<clipPath id="clip0_1045_942">
<rect width="115.053" height="38.5807" fill="white" transform="translate(0.015625 2.88623)"/>
</clipPath>
</defs>
</svg>
