<svg width="117" height="44" viewBox="0 0 117 44" fill="none" xmlns="http://www.w3.org/2000/svg">
<g clip-path="url(#clip0_1045_1001)">
<path d="M19.2695 13.6953L14.3242 17.3927L25.2933 27.2372L25.3241 27.2064H25.4165L36.4164 17.4467L31.6637 13.7107L19.2695 13.6953ZM25.6784 25.5656L16.3886 17.2079L20.0861 14.4579L30.9935 14.4733L34.8912 17.4775L25.6784 25.5656Z" fill="white"/>
<path d="M21.0259 15.1978L17.6289 17.7012L25.4629 24.6416L33.3815 17.5472L30.2079 15.2055L21.0259 15.1978ZM25.6477 23.4168L19.1772 17.5857L21.7808 15.6291L29.7149 15.6368L32.2261 17.7243L25.6477 23.4168Z" fill="white"/>
<path d="M22.7197 16.2686L20.3857 17.9247L25.4774 22.4695L30.7155 17.8785L28.5971 16.284L22.7197 16.2686ZM25.5853 21.6375L21.5643 18.0479L23.3514 16.6691L28.2274 16.6768L29.7372 17.9324L25.5853 21.6375Z" fill="white"/>
<path d="M28.6133 32.8605L30.2232 31.4355L30.2309 27.376L28.6133 28.7317V32.8605Z" fill="white"/>
<path d="M20.4013 32.8527L22.0035 31.4199L22.0112 27.3682L20.3936 28.7239L20.4013 32.8527Z" fill="white"/>
<path d="M25.2925 27.2374L22.2421 30.1414L22.2344 32.8682H25.4927L28.312 30.0721V28.6932H27.0102L28.5277 27.2142L25.4157 27.2065L25.3387 27.2759L25.2925 27.2374ZM26.9486 28.6932L25.2539 30.0952H26.8639V31.4509L23.8289 31.4432L23.8366 28.6778H23.9984L26.9486 28.6932Z" fill="white"/>
<path d="M20.3629 3.5507L20.4785 3.35812L20.594 3.16555L20.7327 2.93446L20.8405 2.75729L22.0191 0.777618L23.7446 2.31051L23.8986 2.44917L24.0989 2.62634L24.2684 2.77269L24.4378 2.91905L25.4007 3.76638L26.3636 2.92675L26.533 2.77269L26.7025 2.62634L26.9028 2.44917L27.0569 2.31051L28.79 0.793024L29.9686 2.77269L30.0764 2.94986L30.2151 3.18095L30.3306 3.37353L30.4462 3.5661L31.1009 4.66763L32.2795 4.16694L32.4798 4.0822L32.68 3.99747L32.9265 3.88963L33.1191 3.8049L35.2374 2.89594L35.7458 5.14522L35.792 5.3532L35.8537 5.6151L35.8999 5.83078L35.9461 6.04647L36.2234 7.29435L37.5021 7.17881L37.7255 7.1557L37.9489 7.13259L38.2185 7.10948L38.4265 7.09407L40.722 6.88609L40.5063 9.18158L40.4909 9.38957L40.4678 9.65917L40.4447 9.88256L40.4215 10.1059L40.306 11.3769L41.5539 11.6619L41.7696 11.7082L41.9853 11.7544L42.2472 11.816L42.4474 11.8622L44.6967 12.3783L43.7878 14.4967L43.703 14.6892L43.5952 14.9357L43.5104 15.136L43.4257 15.3363L42.9173 16.5148L44.0188 17.1696L44.2114 17.2851L44.404 17.4007L44.6351 17.5393L44.8123 17.6472L46.7919 18.8257L45.2744 20.5589L45.1358 20.713L44.9586 20.9132L44.8123 21.0827L44.6659 21.2522L43.8186 22.2151L44.6582 23.1779L44.8046 23.3474L44.9509 23.5169L45.1281 23.7171L45.2667 23.8712L46.7842 25.6044L44.8046 26.7829L44.6274 26.8908L44.3963 27.0294L44.2037 27.145L44.0111 27.2605L42.9096 27.9153L43.4103 29.0938L43.495 29.2941L43.5798 29.4944L43.6876 29.7409L43.7723 29.9335L44.6736 32.0518L42.4243 32.5602L42.224 32.6064L41.9621 32.668L41.7465 32.7142L41.5308 32.7604L40.2829 33.0378L40.3984 34.3088L40.4215 34.5321L40.4447 34.7555L40.4678 35.0251L40.4832 35.2331L40.6912 37.5286L38.3957 37.3129L38.1877 37.2898L37.9181 37.2667L37.6947 37.2436L37.4713 37.2205L36.1926 37.1049L35.9076 38.3528L35.8614 38.5685L35.8152 38.7842L35.7535 39.0461L35.7073 39.2464L35.1989 41.4879L33.0806 40.579L32.888 40.4943L32.6415 40.3864L32.4412 40.3017L32.241 40.2169L31.0624 39.7086L30.4077 40.8101L30.2921 41.0027L30.1766 41.1952L30.0379 41.4263L29.9301 41.6035L28.7515 43.5832L26.9952 42.0426L26.8412 41.9039L26.6409 41.7267L26.4714 41.5804L26.302 41.434L25.3391 40.5867L24.3762 41.434L24.2067 41.5804L24.0373 41.7267L23.837 41.9039L23.6829 42.0426L21.9498 43.56L20.7712 41.5804L20.6634 41.4032L20.5247 41.1721L20.4092 40.9795L20.2936 40.787L19.6389 39.6854L18.4603 40.1861L18.26 40.2709L18.0598 40.3556L17.8133 40.4634L17.6207 40.5482L15.5024 41.4494L14.994 39.2002L14.9477 38.9999L14.8861 38.738L14.8399 38.5223L14.7937 38.3066L14.5164 37.0587L13.2454 37.1743L13.022 37.1974L12.7986 37.2205L12.529 37.2436L12.321 37.259L10.0255 37.467L10.2412 35.1715L10.2566 34.9635L10.2797 34.6939L10.3028 34.4705L10.3259 34.2471L10.4415 32.9761L9.19361 32.6911L8.97792 32.6449L8.76224 32.5987L8.50034 32.5371L8.30006 32.4908L6.05849 31.9824L6.96744 29.8641L7.05218 29.6716L7.16002 29.4251L7.24475 29.2248L7.32948 29.0245L7.83788 27.8459L6.73635 27.1912L6.54378 27.0756L6.3512 26.9601L6.12011 26.8214L5.94294 26.7136L3.97868 25.5273L5.50387 23.8019L5.64253 23.6478L5.8197 23.4475L5.96605 23.2781L6.11241 23.1086L6.95974 22.1457L6.11241 21.1829L5.96605 21.0134L5.8197 20.8439L5.64253 20.6436L5.50387 20.4896L3.99409 18.7564L5.97376 17.5778L6.15093 17.47L6.38202 17.3314L6.57459 17.2158L6.76716 17.1003L7.86869 16.4455L7.368 15.267L7.28327 15.0667L7.19853 14.8664L7.09069 14.6199L7.00596 14.4273L6.097 12.309L8.34628 11.8006L8.54656 11.7544L8.80846 11.6928L9.02414 11.6465L9.23983 11.6003L10.4877 11.323L10.3722 10.052L10.3491 9.82864L10.3259 9.60525L10.3028 9.33564L10.2874 9.12766L10.0795 6.83217L12.3749 7.04786L12.5829 7.07096L12.8525 7.09407L13.0759 7.11718L13.2993 7.14029L14.5703 7.25584L14.8553 6.00795L14.9015 5.79227L14.9477 5.57658L15.0094 5.31468L15.0556 5.1144L15.564 2.86513L17.6823 3.77408L17.8749 3.85882L18.1214 3.96666L18.3217 4.05139L18.5219 4.13612L19.7005 4.64452L20.3629 3.5507ZM21.9498 0.384766L20.6094 2.62634L20.5016 2.80351L18.7453 1.69427L17.975 3.62002L17.7824 3.53529L15.3868 2.50309L14.8091 5.04508L14.7629 5.24535L12.7447 4.73696L12.606 6.81677L12.3981 6.79366L9.80214 6.55486L10.0332 9.15077L10.0486 9.35875L7.96883 9.4897L8.47723 11.5079L8.27695 11.5541L5.73496 12.1318L6.75946 14.5352L6.84419 14.7277L4.91074 15.498L6.01227 17.2543L5.8351 17.3622L3.58583 18.6948L5.3036 20.659L5.44225 20.8131L3.84003 22.1457L5.43455 23.4783L5.29589 23.6324L3.57812 25.5967L5.8197 26.937L5.99687 27.0448L4.88763 28.8011L6.82109 29.5791L6.73635 29.7717L5.70415 32.1673L8.24614 32.745L8.44642 32.7913L7.93032 34.8094L10.0101 34.9481L9.98702 35.1561L9.74822 37.752L12.3441 37.5209L12.5521 37.5055L12.6831 39.5853L14.7012 39.0769L14.7475 39.2772L15.3175 41.8269L17.7208 40.8024L17.9134 40.7176L18.6837 42.6511L20.4477 41.5419L20.5555 41.719L21.8881 43.9606L23.8524 42.2428L24.0065 42.1042L25.3391 43.7064L26.6717 42.1119L26.8258 42.2505L28.7823 43.976L30.1226 41.7344L30.2305 41.5573L31.9868 42.6742L32.7648 40.7408L32.9573 40.8255L35.353 41.8577L35.9307 39.3157L35.9769 39.1154L37.9951 39.6315L38.1338 37.5517L38.3417 37.5671L40.9376 37.8059L40.7066 35.21L40.6912 35.002L42.771 34.8711L42.2626 32.8529L42.4628 32.8067L45.0125 32.2366L43.988 29.8333L43.9033 29.6407L45.8368 28.8704L44.7275 27.1065L44.9047 26.9986L47.1463 25.666L45.4285 23.7017L45.2898 23.5477L46.8921 22.2228L45.3052 20.8747L45.4439 20.7207L47.1694 18.7641L44.9278 17.4238L44.7506 17.3159L45.8599 15.5597L43.9264 14.7817L44.0111 14.5891L45.0433 12.1935L42.5014 11.6157L42.3011 11.5695L42.8172 9.55133L40.7374 9.41267L40.7528 9.20469L40.9916 6.60879L38.3957 6.83988L38.1877 6.85528L38.0567 4.77547L36.0385 5.28387L35.9923 5.08359L35.4146 2.5416L33.0113 3.5661L32.8187 3.65084L32.0484 1.71738L30.2844 2.82661L30.1766 2.64945L28.8516 0.392469L26.8874 2.11024L26.7333 2.24889L25.4007 0.646667L24.0681 2.24889L23.914 2.11024L21.9498 0.384766Z" fill="white"/>
<path d="M44.9661 24.0871L44.8275 23.933L44.6503 23.7327L44.5039 23.5633L44.3576 23.3938L43.3254 22.2075L44.3653 21.0213L44.5116 20.8518L44.658 20.6823L44.8352 20.4821L44.9738 20.328L46.2217 18.9029L44.5964 17.9324L44.4192 17.8245L44.1881 17.6859L43.9955 17.5703L43.803 17.4548L42.4549 16.646L43.0789 15.1978L43.1636 14.9975L43.2483 14.7972L43.3562 14.5507L43.4409 14.3582L44.1881 12.6173L42.3394 12.1936L42.1391 12.1474L41.8772 12.0858L41.6615 12.0396L41.4458 11.9934L39.9129 11.6467L40.0593 10.0753L40.0824 9.85192L40.1055 9.62854L40.1286 9.35893L40.144 9.15095L40.3212 7.26372L38.434 7.43318L38.226 7.44859L37.9564 7.4717L37.733 7.49481L37.5096 7.51791L35.9382 7.65657L35.5916 6.12367L35.5453 5.90799L35.4991 5.6923L35.4375 5.4304L35.3913 5.23013L34.9753 3.38141L33.2344 4.1286L33.0419 4.21333L32.7954 4.32117L32.5951 4.4059L32.3948 4.49064L30.9467 5.10688L30.1455 3.75115L30.03 3.55858L29.9145 3.366L29.7758 3.13491L29.668 2.95774L28.6974 1.32471L27.2723 2.57259L27.1183 2.71125L26.918 2.88841L26.7485 3.03477L26.5791 3.18113L25.3928 4.22103L24.2065 3.18113L24.0371 3.03477L23.8676 2.88841L23.6673 2.71125L23.5133 2.57259L22.0882 1.32471L21.1176 2.95004L21.0098 3.12721L20.8711 3.3583L20.7556 3.55087L20.6401 3.74345L19.8312 5.09917L18.3985 4.46753L18.1982 4.3828L17.9979 4.29806L17.7514 4.19022L17.5589 4.10549L15.818 3.3583L15.3943 5.20702L15.3481 5.40729L15.2865 5.6692L15.2403 5.88488L15.194 6.10056L14.8474 7.63346L13.276 7.4871L13.0526 7.4717L12.8292 7.44859L12.5596 7.42548L12.3516 7.41007L10.4644 7.2329L10.6339 9.12014L10.6493 9.32812L10.6724 9.59772L10.6955 9.82111L10.7186 10.0445L10.8573 11.6159L9.32436 11.9625L9.10867 12.0088L8.89299 12.055L8.63109 12.1166L8.43081 12.1628L6.58209 12.5788L7.32928 14.3197L7.41401 14.5122L7.52186 14.7587L7.60659 14.959L7.69132 15.1593L8.30756 16.6074L6.95183 17.4086L6.75926 17.5241L6.56668 17.6396L6.33559 17.7783L6.15843 17.8861L4.52539 18.8567L5.77328 20.2818L5.91193 20.4358L6.0891 20.6361L6.23546 20.8056L6.38181 20.975L7.42172 22.1613L6.38181 23.3476L6.23546 23.517L6.0891 23.6865L5.91193 23.8868L5.77328 24.0408L4.52539 25.4659L6.14302 26.4211L6.32019 26.5289L6.55128 26.6676L6.74385 26.7831L6.93643 26.8986L8.29215 27.7075L7.66051 29.1479L7.57578 29.3482L7.49104 29.5485L7.3832 29.795L7.29847 29.9875L6.55128 31.7284L8.4 32.1521L8.60027 32.1983L8.86218 32.2599L9.07786 32.3061L9.29354 32.3524L10.8264 32.699L10.6801 34.2781L10.657 34.5015L10.6339 34.7249L10.6108 34.9945L10.5876 35.2025L10.4105 37.0897L12.2977 36.9202L12.5057 36.9048L12.7753 36.8817L12.9987 36.8586L13.2221 36.8355L14.7935 36.6969L15.1401 38.2298L15.1863 38.4454L15.2326 38.6611L15.2942 38.923L15.3404 39.1233L15.7564 40.972L17.4972 40.2248L17.6898 40.1401L17.9363 40.0323L18.1366 39.9475L18.3369 39.8628L19.785 39.2465L20.5861 40.6023L20.7017 40.7948L20.8172 40.9874L20.9559 41.2185L21.0637 41.3957L22.0343 43.0287L23.4593 41.7808L23.6134 41.6422L23.8137 41.465L23.9832 41.3187L24.1526 41.1723L25.3389 40.1324L26.5174 41.1723L26.6869 41.3187L26.8564 41.465L27.0566 41.6422L27.2107 41.7808L28.6358 43.0364L29.6063 41.4111L29.7142 41.2339L29.8528 41.0028L29.9684 40.8103L30.0839 40.6177L30.8927 39.2697L32.3409 39.8936L32.5412 39.9783L32.7415 40.0631L32.988 40.1709L33.1805 40.2556L34.9214 41.0028L35.3451 39.1541L35.3913 38.9538L35.4529 38.6919L35.4991 38.4762L35.5453 38.2606L35.892 36.7277L37.4634 36.874L37.6868 36.8971L37.9102 36.9202L38.1798 36.9434L38.3878 36.9665L40.275 37.1436L40.1055 35.2564L40.0901 35.0484L40.067 34.7788L40.0439 34.5554L40.0208 34.332L39.8821 32.7606L41.415 32.414L41.6307 32.3678L41.8464 32.3216L42.1083 32.2599L42.3086 32.2137L44.1573 31.7978L43.4101 30.0569L43.3254 29.8643L43.2175 29.6178L43.1328 29.4175L43.0481 29.2172L42.4318 27.7691L43.7875 26.968L43.9801 26.8524L44.1727 26.7369L44.4038 26.5982L44.581 26.4904L46.214 25.5275L44.9661 24.0871ZM8.03796 22.1536C8.05336 12.5788 15.8257 4.82957 25.4005 4.84498C34.9676 4.86038 42.7168 12.6327 42.7014 22.1998C42.686 31.7746 34.9137 39.5239 25.3389 39.5084C15.7718 39.493 8.02255 31.7207 8.03796 22.1536Z" fill="white"/>
<path d="M41.9543 22.2C41.9697 13.0565 34.544 5.60001 25.3928 5.59231C16.2494 5.5769 8.79288 13.0103 8.78518 22.1537C8.76977 31.2972 16.2032 38.746 25.3466 38.7614C34.4901 38.7768 41.9389 31.3434 41.9543 22.2ZM9.04708 22.1537C9.06249 13.1489 16.3957 5.83881 25.3928 5.85421C34.3899 5.86962 41.7078 13.2029 41.6924 22.2C41.677 31.1971 34.3437 38.5149 25.3466 38.4995C16.3418 38.4841 9.03168 31.1508 9.04708 22.1537Z" fill="white"/>
<path d="M25.3238 27.2144L25.293 27.2375L25.3392 27.2837L25.4162 27.2144H25.3238Z" fill="white"/>
<path d="M22.913 37.0359H22.4816V35.0948H22.0811V34.7559H22.913V37.0359Z" fill="white"/>
<path d="M24.353 37.0358H23.8908L24.4069 36.2578C24.3684 36.2655 24.3299 36.2732 24.3068 36.2732C24.2837 36.2732 24.2528 36.2809 24.2297 36.2809C24.0449 36.2809 23.8831 36.2039 23.7521 36.0575C23.6212 35.9111 23.5596 35.7263 23.5596 35.5106C23.5596 35.4259 23.575 35.3334 23.6135 35.241C23.652 35.1485 23.6982 35.0638 23.7598 34.9945C23.8446 34.8943 23.9293 34.825 24.0295 34.7788C24.1296 34.7326 24.2451 34.7095 24.3684 34.7095C24.4762 34.7095 24.5841 34.7326 24.6765 34.7711C24.7766 34.8096 24.8614 34.8712 24.9384 34.9406C25.0154 35.0176 25.0694 35.1023 25.1079 35.1948C25.1464 35.2872 25.1695 35.3873 25.1695 35.4875C25.1695 35.603 25.1464 35.7109 25.1002 35.8264C25.054 35.942 24.9692 36.096 24.846 36.2809L24.353 37.0358ZM24.7381 35.5337C24.7381 35.4181 24.6996 35.3257 24.6303 35.241C24.561 35.1639 24.4685 35.1177 24.3684 35.1177C24.2605 35.1177 24.1681 35.1562 24.0988 35.2333C24.0295 35.3103 23.9909 35.4027 23.9909 35.5183C23.9909 35.6338 24.0217 35.7263 24.0911 35.8033C24.1604 35.8803 24.2451 35.9111 24.353 35.9111C24.4608 35.9111 24.5456 35.8726 24.6226 35.7956C24.6996 35.7186 24.7381 35.6338 24.7381 35.5337Z" fill="white"/>
<path d="M25.9792 37.0359H25.5247L26.3721 35.1564H25.4785V34.7559H26.7803V35.1795L25.9792 37.0359Z" fill="white"/>
<path d="M28.4049 34.7554V35.1482H27.6192L27.5498 35.5411C27.5961 35.5103 27.65 35.4949 27.6962 35.4795C27.7501 35.464 27.804 35.4563 27.858 35.4563C28.0659 35.4563 28.2431 35.5334 28.3972 35.6951C28.5435 35.8492 28.6206 36.0418 28.6206 36.2652C28.6206 36.3653 28.6052 36.4577 28.5666 36.5502C28.5281 36.6426 28.4819 36.7273 28.4126 36.8044C28.3355 36.8968 28.2431 36.9661 28.1353 37.0201C28.0351 37.0663 27.9196 37.0894 27.804 37.0894C27.5884 37.0894 27.4035 37.02 27.2571 36.8814C27.1108 36.7427 27.026 36.5579 27.0029 36.3345H27.4343C27.4497 36.4346 27.4882 36.5194 27.5575 36.581C27.6269 36.6426 27.7039 36.6734 27.804 36.6734C27.9119 36.6734 27.9966 36.6349 28.0659 36.5579C28.1353 36.4808 28.1738 36.3807 28.1738 36.2652C28.1738 36.1496 28.1353 36.0495 28.0659 35.9801C27.9966 35.9108 27.9042 35.8723 27.7886 35.8723C27.7193 35.8723 27.6577 35.8877 27.6115 35.9108C27.5652 35.9416 27.519 35.9801 27.4882 36.0341L27.1108 35.9493L27.3265 34.7631L28.4049 34.7554Z" fill="white"/>
<path d="M18.2443 32.83L16.9579 34.6787L16.6035 34.4322L17.8899 32.5835L18.2443 32.83Z" fill="white"/>
<path d="M17.4127 32.2598L15.8952 33.9236L15.5409 33.6001L15.926 31.7745L15.9645 31.7051L14.8245 32.9453L14.501 32.6526L16.0185 30.9888L16.3728 31.3123L15.9954 33.1302L15.9645 33.2072L17.0969 31.9671L17.4127 32.2598Z" fill="white"/>
<path d="M15.5103 30.3879L14.0699 31.551L14.3395 31.8822L14.0237 32.1364L13.2148 31.1351L13.5307 30.8809L13.8003 31.2198L15.2407 30.0566L15.5103 30.3879Z" fill="white"/>
<path d="M14.7632 29.4175L12.8452 30.6038L12.1904 29.5485L12.5371 29.3328L12.9684 30.026L13.4075 29.7564L12.9992 29.094L13.3459 28.8783L13.7541 29.5408L14.1932 29.2634L13.7618 28.5702L14.1085 28.3545L14.7632 29.4175Z" fill="white"/>
<path d="M13.8766 27.9383L11.8122 28.8396L11.5426 28.2234C11.481 28.0847 11.4502 27.9769 11.4348 27.8844C11.4194 27.792 11.4271 27.6996 11.4502 27.6148C11.481 27.5147 11.5272 27.4222 11.5965 27.3375C11.6659 27.2528 11.7506 27.1912 11.843 27.1526C11.9201 27.1218 12.0125 27.0987 12.1049 27.0987C12.2051 27.0987 12.2898 27.1064 12.3668 27.1372C12.4362 27.1603 12.4901 27.1912 12.5517 27.2374C12.6133 27.2836 12.675 27.3452 12.7366 27.43L13.2527 26.521L13.4607 27.0063L12.9137 27.9075L13.7072 27.5609L13.8766 27.9383ZM12.621 28.0154L12.5286 27.7997C12.467 27.6687 12.3976 27.5763 12.3129 27.5301C12.2282 27.4839 12.1357 27.4839 12.0356 27.5224C11.9432 27.5609 11.8815 27.6379 11.8507 27.7381C11.8353 27.792 11.8353 27.8382 11.843 27.8767C11.8507 27.9229 11.8738 27.9846 11.9047 28.0616L11.9971 28.2773L12.621 28.0154Z" fill="white"/>
<path d="M13.1217 26.1439L10.9341 26.6831L10.8185 26.2132L12.1512 24.9114L12.2205 24.8729L10.5874 25.2734L10.4873 24.8498L12.675 24.3105L12.7905 24.7727L11.4656 26.0745L11.3963 26.1208L13.0216 25.7202L13.1217 26.1439Z" fill="white"/>
<path d="M12.6135 23.9867L10.3103 23.1471L10.2949 22.8082L12.4903 21.7144L12.5134 22.1842L11.9434 22.4693L11.9896 23.2935L12.5827 23.5169L12.6135 23.9867ZM11.6275 23.1933L11.5967 22.631L10.9112 22.9391L10.8264 22.9545L10.9112 22.9622L11.6275 23.1933Z" fill="white"/>
<path d="M12.5672 21.1137L10.7262 20.9365L10.6877 21.3602L10.2871 21.3217L10.4104 20.043L10.8109 20.0815L10.7647 20.5129L12.6057 20.69L12.5672 21.1137Z" fill="white"/>
<path d="M12.7215 19.9194L10.5107 19.4803L10.5955 19.0566L12.8062 19.4957L12.7215 19.9194Z" fill="white"/>
<path d="M11.104 17.139C11.181 16.9233 11.2965 16.7462 11.4583 16.6075C11.6201 16.4612 11.8049 16.3764 12.0129 16.3302C12.2209 16.2917 12.4212 16.3071 12.6292 16.3764C12.8294 16.4457 12.9912 16.5613 13.1298 16.7231C13.2608 16.8848 13.3455 17.0697 13.384 17.2854C13.4226 17.4934 13.3995 17.7013 13.3301 17.9093C13.2531 18.1173 13.1376 18.2868 12.9758 18.4254C12.814 18.5641 12.6292 18.6565 12.4289 18.695C12.2209 18.7335 12.0206 18.7258 11.8203 18.6488C11.6201 18.5795 11.4583 18.4639 11.3196 18.3022C11.1887 18.1404 11.0963 17.9555 11.0577 17.7476C11.0192 17.5396 11.0346 17.3393 11.104 17.139ZM11.4968 17.2392C11.4506 17.3778 11.4352 17.5165 11.4583 17.6474C11.4814 17.7861 11.5353 17.9016 11.6201 18.0095C11.7048 18.1173 11.8126 18.1943 11.9513 18.2405C12.0822 18.2868 12.2132 18.2945 12.3518 18.2714C12.4905 18.2482 12.606 18.1866 12.7139 18.1019C12.8217 18.0095 12.8988 17.9016 12.945 17.7707C12.9912 17.6397 12.9989 17.5088 12.9758 17.3701C12.9527 17.2315 12.8911 17.1082 12.8063 17.0081C12.7139 16.9002 12.606 16.8232 12.4751 16.777C12.3441 16.7308 12.2132 16.7231 12.0822 16.7462C11.9513 16.7693 11.828 16.8309 11.7202 16.9156C11.6201 17.0081 11.543 17.1159 11.4968 17.2392Z" fill="white"/>
<path d="M13.8846 16.376L11.9512 15.2128L12.1977 14.7969L14.0618 14.8123L14.1388 14.8354L12.6984 13.965L12.9217 13.5952L14.8552 14.7584L14.6087 15.1666L12.7523 15.1512L12.6753 15.1358L14.108 15.9985L13.8846 16.376Z" fill="white"/>
<path d="M15.0635 14.4736L14.0312 12.2552L14.2546 12.001L16.5809 12.7713L16.2651 13.1256L15.6643 12.9253L15.1174 13.5416L15.3793 14.1193L15.0635 14.4736ZM14.9171 13.218L15.2945 12.7944L14.5936 12.5248L14.5242 12.4786L14.5782 12.5402L14.9171 13.218Z" fill="white"/>
<path d="M16.8508 12.5632L15.4258 10.8223L15.757 10.5527L16.9279 11.9778L17.4748 11.531L17.729 11.8468L16.8508 12.5632Z" fill="white"/>
<path d="M20.2245 8.66545L19.7547 8.88884C19.6853 8.85803 19.6314 8.83492 19.5852 8.81951C19.539 8.81181 19.4928 8.8041 19.4311 8.8041C19.3002 8.8041 19.1846 8.82721 19.0768 8.88113C18.9458 8.94276 18.8457 9.02749 18.761 9.14304C18.6762 9.25858 18.63 9.38183 18.6146 9.52048C18.5992 9.65914 18.6223 9.79009 18.6762 9.91334C18.7379 10.0366 18.8226 10.1367 18.9381 10.2138C19.0537 10.2908 19.1846 10.337 19.331 10.3447C19.4773 10.3524 19.616 10.3293 19.7392 10.2677C19.9164 10.1829 20.0397 10.052 20.1244 9.86712C20.1552 9.80549 20.1783 9.72076 20.186 9.61292L19.3079 10.0289L19.1384 9.67454L20.5095 9.02749L20.5327 9.07371C20.6251 9.26628 20.6559 9.45886 20.6328 9.66684C20.6097 9.87482 20.5327 10.0674 20.4094 10.2369C20.2862 10.414 20.1167 10.545 19.9164 10.6374C19.7161 10.7299 19.5005 10.7761 19.2848 10.7607C19.0691 10.7453 18.8688 10.6836 18.6916 10.5681C18.5145 10.4525 18.3835 10.2985 18.2911 10.1136C18.1987 9.92104 18.1678 9.72076 18.1909 9.50508C18.2141 9.2971 18.2911 9.09682 18.4143 8.91965C18.5453 8.74248 18.707 8.60383 18.9073 8.51139C19.0075 8.46517 19.1076 8.43436 19.2154 8.41125C19.3233 8.38814 19.4388 8.38044 19.5467 8.38814C19.6545 8.39585 19.7624 8.41895 19.8702 8.44977C19.9857 8.48828 20.1013 8.56531 20.2245 8.66545Z" fill="white"/>
<path d="M21.4105 9.95953L20.8174 7.78728L22.019 7.45605L22.1269 7.84891L21.3412 8.06459L21.4798 8.56529L22.2347 8.3573L22.3426 8.75016L21.5877 8.95814L21.7263 9.45883L22.512 9.24315L22.6199 9.636L21.4105 9.95953Z" fill="white"/>
<path d="M23.0744 9.51292L22.8818 7.27135L23.4673 7.21743L24.2299 8.82735L24.2684 8.9583L24.2838 8.81965L24.7151 7.10959L25.3006 7.05566L25.4932 9.29724L25.0618 9.33575L24.9154 7.6565L24.4609 9.38967L24.0989 9.42048L23.3594 7.79515L23.5058 9.4744L23.0744 9.51292Z" fill="white"/>
<path d="M27.342 7.18677C27.5654 7.21758 27.7657 7.29461 27.9352 7.42556C28.1046 7.55652 28.2356 7.71828 28.3203 7.91085C28.405 8.10343 28.4282 8.31141 28.405 8.51939C28.3742 8.72737 28.2972 8.91224 28.1663 9.08171C28.0353 9.24347 27.8735 9.36672 27.6733 9.44375C27.473 9.52078 27.265 9.55159 27.0493 9.52078C26.8336 9.48997 26.6411 9.41294 26.4716 9.28199C26.3021 9.15104 26.1712 8.98927 26.0941 8.7967C26.0094 8.60412 25.9863 8.40384 26.0094 8.19586C26.0402 7.98788 26.1173 7.80301 26.2482 7.63355C26.3792 7.47178 26.5409 7.34853 26.7412 7.2638C26.9261 7.18677 27.1341 7.16366 27.342 7.18677ZM27.3266 7.59503C27.1803 7.57192 27.0416 7.59503 26.9184 7.64125C26.7874 7.69517 26.6796 7.7722 26.5948 7.88004C26.5101 7.98788 26.4562 8.11113 26.4408 8.24978C26.4254 8.38844 26.4408 8.51939 26.4947 8.65034C26.5486 8.78129 26.6334 8.88143 26.7412 8.97387C26.849 9.0663 26.9723 9.11252 27.1109 9.12793C27.2496 9.14333 27.3805 9.12793 27.5115 9.07401C27.6425 9.02008 27.7503 8.93535 27.835 8.82751C27.9198 8.71967 27.9737 8.59642 27.9891 8.45777C28.0045 8.32681 27.9891 8.19586 27.9352 8.06491C27.8812 7.94166 27.8042 7.83382 27.6964 7.74909C27.5808 7.66436 27.4576 7.61044 27.3266 7.59503Z" fill="white"/>
<path d="M28.6826 9.79025L29.3451 7.64111L29.7533 7.76436L29.2064 9.52835L29.8843 9.73633L29.761 10.1215L28.6826 9.79025Z" fill="white"/>
<path d="M32.0865 8.64252C32.2868 8.74266 32.4486 8.88131 32.5718 9.05848C32.6951 9.23565 32.7644 9.42823 32.7798 9.63621C32.7952 9.84419 32.7567 10.0445 32.6565 10.237C32.5641 10.4296 32.4255 10.576 32.2483 10.6915C32.0711 10.8071 31.8785 10.8687 31.6629 10.8764C31.4472 10.8841 31.2469 10.8456 31.0543 10.7454C30.8617 10.6453 30.7 10.5143 30.5844 10.3372C30.4689 10.16 30.3996 9.96744 30.3842 9.75946C30.3688 9.55147 30.4073 9.3512 30.4997 9.15862C30.5921 8.97375 30.7308 8.81969 30.908 8.70415C31.0851 8.5886 31.2777 8.52698 31.4934 8.51157C31.6937 8.50387 31.8939 8.55009 32.0865 8.64252ZM31.9325 9.01997C31.8015 8.95834 31.6629 8.92753 31.5242 8.92753C31.3855 8.93524 31.2623 8.97375 31.1468 9.04308C31.0312 9.12011 30.9465 9.21254 30.8772 9.34349C30.8155 9.46674 30.7924 9.59769 30.8001 9.73635C30.8078 9.875 30.854 9.99825 30.9311 10.1215C31.0081 10.237 31.1082 10.3295 31.2315 10.3911C31.3547 10.4527 31.4857 10.4758 31.6243 10.4681C31.763 10.4604 31.8939 10.4142 32.0095 10.3449C32.125 10.2679 32.2175 10.1677 32.2791 10.0445C32.3407 9.92122 32.3638 9.79797 32.3561 9.65932C32.3484 9.52066 32.3022 9.39741 32.2329 9.28187C32.1558 9.16632 32.0557 9.08159 31.9325 9.01997Z" fill="white"/>
<path d="M35.2756 11.6386L34.875 11.3151C34.875 11.238 34.8673 11.1764 34.8596 11.1379C34.8519 11.0917 34.8365 11.0455 34.8057 10.9915C34.7518 10.876 34.6747 10.7758 34.5823 10.7065C34.4745 10.6141 34.3435 10.5602 34.2049 10.5371C34.0662 10.5139 33.9276 10.5294 33.8043 10.5756C33.6734 10.6218 33.5655 10.6988 33.4808 10.8067C33.3961 10.9145 33.3421 11.0377 33.3267 11.1764C33.3113 11.3151 33.3267 11.4537 33.3806 11.5847C33.4346 11.7156 33.5193 11.8312 33.6271 11.9236C33.7812 12.0468 33.9584 12.1008 34.1586 12.0854C34.228 12.0854 34.3127 12.0622 34.4128 12.0314L33.6503 11.4229L33.8967 11.1148L35.083 12.0545L35.0522 12.0931C34.9212 12.2548 34.7595 12.3704 34.5592 12.4397C34.3589 12.509 34.1586 12.5244 33.943 12.4859C33.7273 12.4474 33.5347 12.3627 33.3652 12.224C33.1881 12.0854 33.0571 11.9159 32.9724 11.7156C32.8877 11.5153 32.8568 11.3074 32.8877 11.0994C32.9108 10.8914 32.9878 10.6988 33.1187 10.5371C33.2497 10.3676 33.4192 10.252 33.6194 10.175C33.8197 10.1057 34.0277 10.0826 34.2434 10.1211C34.4591 10.1596 34.6516 10.2443 34.8288 10.383C34.9135 10.4523 34.9906 10.5294 35.0522 10.6218C35.1215 10.7142 35.1754 10.8067 35.214 10.9068C35.2525 11.0069 35.2833 11.1148 35.2987 11.2226C35.3218 11.3459 35.3064 11.4845 35.2756 11.6386Z" fill="white"/>
<path d="M34.6133 13.2873L36.2617 11.7544L36.5544 12.0702L34.906 13.6031L34.6133 13.2873Z" fill="white"/>
<path d="M36.7705 15.0205L37.0555 15.4288C36.9631 15.4442 36.886 15.4519 36.8398 15.4519C36.7859 15.4519 36.7243 15.4442 36.6549 15.4365C36.5548 15.4134 36.4547 15.3826 36.3622 15.3363C36.2698 15.2901 36.1851 15.2362 36.1003 15.1669C36.0233 15.0975 35.954 15.0205 35.8924 14.9358C35.7691 14.7586 35.6998 14.566 35.6767 14.3504C35.6613 14.1347 35.6921 13.9344 35.7768 13.7418C35.8615 13.5492 35.9925 13.3952 36.1697 13.2719C36.3391 13.1487 36.5317 13.0871 36.7397 13.0717C36.9477 13.0563 37.1479 13.0948 37.3405 13.1872C37.5331 13.2796 37.6871 13.4106 37.8104 13.5878C37.9028 13.7187 37.9645 13.8651 38.003 14.0268C38.0415 14.1886 38.0415 14.3427 38.0184 14.4967C38.0107 14.5583 37.9953 14.62 37.9722 14.6739C37.9491 14.7278 37.9182 14.7971 37.872 14.8819L37.5947 14.4813C37.6101 14.412 37.6178 14.3504 37.6178 14.3041C37.6178 14.2579 37.6178 14.204 37.6024 14.1424C37.5793 14.0191 37.5408 13.9113 37.4715 13.8189C37.3944 13.711 37.2943 13.6263 37.171 13.5647C37.0478 13.503 36.9168 13.4876 36.7782 13.4953C36.6395 13.503 36.5163 13.5492 36.4007 13.634C36.2852 13.711 36.2005 13.8111 36.1465 13.9421C36.0926 14.0653 36.0695 14.1963 36.0772 14.335C36.0849 14.4736 36.1311 14.5969 36.2082 14.7047C36.2621 14.7817 36.3314 14.8511 36.4239 14.905C36.4778 14.9358 36.524 14.9666 36.5702 14.982C36.6318 14.9897 36.6935 15.0051 36.7705 15.0205Z" fill="white"/>
<path d="M36.6396 15.9371L39.0892 15.9062L39.2279 16.2144L37.564 18.0169L37.3714 17.5855L37.8028 17.1233L37.4716 16.3684H36.8322L36.6396 15.9371ZM37.8413 16.3222L38.0724 16.8383L38.6039 16.3068L38.6732 16.2606L38.5962 16.2837L37.8413 16.3222Z" fill="white"/>
<path d="M37.6182 18.3715L39.7904 17.7783L39.906 18.1943L38.1189 18.6796L38.3037 19.3651L37.9109 19.473L37.6182 18.3715Z" fill="white"/>
<path d="M38.1416 20.8669L40.3832 20.6743L40.4217 21.098L38.1801 21.2906L38.1416 20.8669Z" fill="white"/>
<path d="M38.234 21.876L40.4833 21.9838L40.4602 22.4614L38.8041 23.3241L38.727 23.3395L40.414 23.4243L40.3909 23.8556L38.1416 23.7478L38.1647 23.2702L39.8054 22.4075L39.8825 22.3844L38.2109 22.2996L38.234 21.876Z" fill="white"/>
<path d="M38.6963 24.2488L38.6039 24.6879C38.5191 24.6725 38.4421 24.6879 38.3805 24.7341C38.3189 24.7803 38.2804 24.8496 38.2572 24.9344C38.2418 25.0191 38.2495 25.0961 38.2881 25.1655C38.3266 25.2348 38.3882 25.2733 38.4729 25.2964C38.5654 25.3195 38.6501 25.2964 38.7271 25.2425C38.7887 25.1963 38.8581 25.1038 38.9274 24.9806C38.9505 24.9344 38.9736 24.9036 38.9736 24.8959C39.0198 24.8265 39.0584 24.7649 39.0969 24.7264C39.1739 24.6494 39.2586 24.5954 39.3665 24.5569C39.4743 24.5261 39.5745 24.5184 39.6823 24.5415C39.7978 24.5646 39.8903 24.6185 39.975 24.6956C40.0597 24.7726 40.1137 24.8727 40.1522 24.9883C40.183 25.1038 40.1907 25.2194 40.1599 25.3349C40.1368 25.4582 40.0828 25.566 40.0058 25.6507C39.9288 25.7355 39.8364 25.8048 39.7285 25.8433C39.6207 25.8818 39.5051 25.8895 39.3819 25.8741L39.4743 25.4428C39.5436 25.4505 39.6053 25.4351 39.6592 25.3966C39.7131 25.358 39.7439 25.3041 39.7593 25.2348C39.7747 25.1655 39.767 25.1115 39.7285 25.0576C39.6977 25.0037 39.6438 24.9729 39.5745 24.9575C39.5051 24.9421 39.4512 24.9498 39.405 24.9883C39.3588 25.0191 39.3048 25.0884 39.2432 25.1886L39.1893 25.281C39.1046 25.4197 39.0198 25.5275 38.9428 25.5891C38.781 25.7201 38.6039 25.7663 38.3959 25.7201C38.2649 25.6893 38.1571 25.6353 38.057 25.5429C37.9645 25.4582 37.8952 25.3503 37.8567 25.2194C37.8182 25.0961 37.8105 24.9652 37.8413 24.8265C37.8875 24.6108 37.9953 24.4491 38.1725 24.3335C38.2495 24.2796 38.3343 24.2488 38.419 24.2334C38.5037 24.2334 38.5885 24.2334 38.6963 24.2488Z" fill="white"/>
<path d="M37.5487 26.2285L39.2896 26.8448L39.4282 26.4442L39.8134 26.5752L39.382 27.7922L38.9969 27.6613L39.1432 27.253L37.4023 26.6368L37.5487 26.2285Z" fill="white"/>
<path d="M37.1097 27.3682L39.151 28.3156L38.9661 28.7008L36.9248 27.7533L37.1097 27.3682Z" fill="white"/>
<path d="M36.5311 28.4854L38.1179 29.4405L38.3413 29.0785L38.688 29.2865L38.0255 30.388L37.6789 30.18L37.9022 29.8103L36.3154 28.8474L36.5311 28.4854Z" fill="white"/>
<path d="M37.6944 30.9196L37.4248 31.2586L36.3233 30.3881C36.254 30.3342 36.2001 30.2957 36.1692 30.2726C36.1384 30.2572 36.0999 30.2418 36.0614 30.2341C35.9998 30.2187 35.9304 30.2264 35.8688 30.2495C35.8072 30.2726 35.761 30.3034 35.7225 30.3573C35.6839 30.4035 35.6608 30.4575 35.6531 30.5191C35.6454 30.5807 35.6454 30.6346 35.6685 30.6886C35.6839 30.7348 35.7071 30.7733 35.7379 30.8041C35.7687 30.8349 35.8226 30.8811 35.8919 30.9428L36.9935 31.8132L36.7239 32.1521L35.6146 31.274C35.4991 31.1815 35.4143 31.0968 35.3527 31.0198C35.2988 30.9428 35.2603 30.858 35.2372 30.7579C35.2141 30.6423 35.2141 30.5268 35.2449 30.4112C35.2757 30.288 35.3219 30.1879 35.3912 30.1031C35.4529 30.0184 35.5453 29.9491 35.6454 29.8951C35.7533 29.8412 35.8611 29.8104 35.9767 29.8027C36.0845 29.795 36.1769 29.8104 36.2694 29.8489C36.3618 29.8874 36.462 29.9491 36.5852 30.0492L37.6944 30.9196Z" fill="white"/>
<path d="M34.3745 31.3276L35.6455 32.668L35.9536 32.3752L36.2309 32.668L35.2989 33.5538L35.0216 33.2611L35.3374 32.9607L34.0664 31.6203L34.3745 31.3276Z" fill="white"/>
<path d="M33.4662 32.1367L34.7989 33.9469L33.7975 34.6864L33.5587 34.3629L34.2134 33.8776L33.9053 33.4616L33.2737 33.9238L33.0349 33.6003L33.6665 33.1381L33.3584 32.7221L32.7036 33.2074L32.4648 32.8839L33.4662 32.1367Z" fill="white"/>
<path d="M67.5134 25.1038C67.0204 23.7404 66.5274 22.3769 66.0268 21.0135C66.0113 21.0135 65.9959 21.0212 65.9728 21.0212C65.9728 22.3769 65.9728 23.725 65.9728 25.1115C65.6185 25.1115 65.2256 25.1115 64.8174 25.1115C64.8174 23.1395 64.8174 21.1676 64.8174 19.1494C65.3258 19.1494 65.8265 19.1417 66.3195 19.1571C66.3734 19.1571 66.4427 19.2341 66.4658 19.288C66.7354 20.0275 66.9819 20.7747 67.2515 21.5065C67.4826 22.1381 67.7214 22.7698 67.9756 23.44C68.1605 22.9393 68.3377 22.4925 68.4994 22.038C68.769 21.2985 69.0309 20.5667 69.3005 19.8272C69.547 19.1494 69.547 19.1494 70.2711 19.1494C70.5561 19.1494 70.8411 19.1494 71.1415 19.1494C71.1415 21.1368 71.1415 23.101 71.1415 25.0961C70.7564 25.0961 70.3712 25.0961 69.963 25.0961C69.963 23.7635 69.963 22.4386 69.963 21.1137C69.9399 21.1059 69.9168 21.0982 69.8937 21.0982C69.7627 21.4449 69.6318 21.7915 69.5085 22.1381C69.2543 22.8468 69.0001 23.5555 68.7459 24.2642C68.7382 24.295 68.6997 24.3104 68.692 24.3412C68.6073 24.5877 68.5302 24.8342 68.4455 25.073C68.4378 25.0884 68.4147 25.1038 68.3993 25.1038C68.122 25.1038 67.8293 25.1038 67.5134 25.1038Z" fill="white"/>
<path d="M95.2436 20.8904C94.7968 20.8904 94.3731 20.8981 93.9572 20.8827C93.8493 20.875 93.7261 20.8056 93.6413 20.7363C92.5706 19.8582 91.03 20.2125 90.537 21.5605C90.2135 22.4541 90.6757 23.3861 91.4306 23.8175C92.1778 24.2412 93.1406 24.0948 93.7261 23.4786C93.8493 23.3476 93.9417 23.1859 94.0804 22.9856C93.2331 22.9856 92.4397 22.9856 91.6385 22.9856C91.6385 22.6312 91.6385 22.3154 91.6385 21.9765C92.9326 21.9765 94.2191 21.9765 95.5055 21.9765C95.6672 23.363 94.7737 24.7881 93.1483 25.1655C91.2996 25.5969 89.8283 24.6571 89.3045 23.1242C88.6113 21.0983 90.0903 19.4807 91.4614 19.1649C93.0559 18.7797 94.6427 19.2804 95.2436 20.8904Z" fill="white"/>
<path d="M58.2155 22.9702C57.4298 22.9702 56.644 22.9702 55.8506 22.9702C55.8506 22.6235 55.8506 22.3077 55.8506 21.9688C57.1139 21.9688 58.3849 21.9688 59.6482 21.9688C59.8947 23.3168 58.901 24.8112 57.345 25.1578C55.4193 25.5892 53.8864 24.6417 53.3934 22.8546C52.9543 21.2832 53.948 19.681 55.4963 19.1957C57.1833 18.6642 58.9241 19.4345 59.4171 20.898C58.9395 20.898 58.4697 20.898 57.9998 20.898C57.9613 20.898 57.9227 20.8672 57.8919 20.8364C57.0369 19.9429 55.3345 20.0199 54.7337 21.4681C54.3717 22.3539 54.7337 23.4246 55.789 23.9099C56.7519 24.3336 57.9767 23.7482 58.2155 22.9702Z" fill="white"/>
<path d="M75.9633 10.2752C75.9633 11.5308 75.9633 12.7941 75.9633 14.0651C75.5473 14.0651 75.1622 14.0651 74.7539 14.0651C74.7539 12.0854 74.7539 10.1057 74.7539 8.08755C75.1005 8.08755 75.4472 8.07214 75.7861 8.09525C75.8708 8.10296 75.9787 8.20309 76.0326 8.28783C76.8183 9.45098 77.604 10.6141 78.4436 11.8697C78.4436 10.5525 78.4436 9.32773 78.4436 8.09525C78.8673 8.09525 79.2448 8.09525 79.6376 8.09525C79.6376 10.0749 79.6376 12.0546 79.6376 14.0728C79.2987 14.0728 78.9597 14.0805 78.6131 14.0651C78.5515 14.0651 78.4668 13.9957 78.4282 13.9341C77.6271 12.717 76.826 11.5 76.0326 10.2829C76.0172 10.2675 76.0018 10.2521 75.9941 10.2367C75.9787 10.2521 75.971 10.2598 75.9633 10.2752Z" fill="white"/>
<path d="M75.0161 25.2422C73.2521 25.3038 71.8656 23.7709 71.881 22.1148C71.8964 20.4509 73.2136 19.1106 74.8158 19.0721C76.6722 19.0258 78.2051 20.2506 78.2591 21.6526C78.2976 22.6617 78.1358 23.5706 77.404 24.3101C76.757 24.9649 75.9482 25.2807 75.0161 25.2422ZM76.9804 22.1148C77.0651 21.0594 76.1793 20.2583 75.0854 20.2583C73.9454 20.2583 73.1674 21.2135 73.1828 22.1533C73.1982 23.1315 74.2073 24.0636 75.1085 24.0405C76.0252 24.0097 77.0343 23.3395 76.9804 22.1148Z" fill="white"/>
<path d="M85.4147 25.2423C83.7663 25.3502 82.218 23.7942 82.2719 22.0456C82.3258 20.4588 83.6661 19.1185 85.2529 19.0491C87.379 18.9644 88.727 20.5589 88.6654 22.269C88.6037 24.0022 87.0708 25.3348 85.4147 25.2423ZM85.4686 24.0407C86.5778 23.9868 87.3713 23.2935 87.3867 22.1303C87.4021 20.9903 86.6241 20.3047 85.4994 20.2585C84.4056 20.22 83.5352 21.152 83.566 22.0918C83.5891 23.1548 84.4056 23.9713 85.4686 24.0407Z" fill="white"/>
<path d="M94.3738 8.01824C96.0684 7.87958 97.7477 9.38167 97.5628 11.369C97.4319 12.8095 96.1609 14.2808 94.1581 14.2037C92.6714 14.1421 91.1539 12.8326 91.177 10.9993C91.2001 9.451 92.6021 7.87188 94.3738 8.01824ZM94.3738 12.9405C95.3289 13.0714 96.338 12.147 96.2995 11.0301C96.261 10.0056 95.5446 9.2045 94.3352 9.2122C93.3262 9.21991 92.4865 10.021 92.4634 11.0301C92.4326 12.0084 93.3878 13.0329 94.3738 12.9405Z" fill="white"/>
<path d="M98.3477 8.08023C98.6943 8.08023 99.0178 8.06482 99.3413 8.08793C99.4492 8.09563 99.5724 8.20347 99.6418 8.30361C100.404 9.42055 101.159 10.5452 101.914 11.6698C101.937 11.7083 101.968 11.7469 102.045 11.847C102.045 10.5452 102.045 9.32811 102.045 8.09563C102.446 8.09563 102.823 8.09563 103.224 8.09563C103.224 10.0676 103.224 12.0473 103.224 14.0732C102.892 14.0732 102.53 14.1117 102.191 14.0577C102.06 14.0346 101.945 13.8113 101.845 13.6572C101.105 12.5403 100.366 11.4156 99.5724 10.2063C99.5724 11.5466 99.5724 12.7945 99.5724 14.0577C99.1488 14.0577 98.7636 14.0577 98.3554 14.0577C98.3477 12.0781 98.3477 10.0984 98.3477 8.08023Z" fill="white"/>
<path d="M59.5483 11.847C59.5483 10.5529 59.5483 9.32811 59.5483 8.09563C59.9566 8.09563 60.3418 8.09563 60.7423 8.09563C60.7423 10.0907 60.7423 12.0704 60.7423 14.0732C60.4034 14.0732 60.0799 14.0886 59.764 14.0655C59.6639 14.0577 59.5561 13.9499 59.4944 13.8575C58.7549 12.7636 58.0232 11.6544 57.2914 10.5529C57.2452 10.4836 57.1835 10.4219 57.0603 10.3757C57.0603 11.6005 57.0603 12.8176 57.0603 14.05C56.6443 14.05 56.2746 14.05 55.874 14.05C55.874 12.0704 55.874 10.0984 55.874 8.08023C56.2207 8.08023 56.5673 8.06482 56.9139 8.08793C56.9987 8.09563 57.1065 8.20347 57.1604 8.28821C57.8845 9.35892 58.6086 10.4296 59.325 11.5081C59.3712 11.6082 59.4405 11.6929 59.5483 11.847ZM57.0449 10.2679C57.0526 10.2756 57.0603 10.2833 57.068 10.291C57.0757 10.2833 57.0834 10.2756 57.0911 10.2679C57.0834 10.2602 57.068 10.2525 57.0603 10.2448C57.0526 10.2525 57.0449 10.2602 57.0449 10.2679Z" fill="white"/>
<path d="M57.0447 32.5601C57.0447 33.7695 57.0447 34.9712 57.0447 36.1959C56.6364 36.1959 56.259 36.1959 55.8584 36.1959C55.8584 34.2086 55.8584 32.2366 55.8584 30.2184C56.1973 30.2184 56.5363 30.203 56.8675 30.2261C56.9522 30.2338 57.0601 30.3263 57.114 30.4033C57.8689 31.5048 58.6084 32.614 59.3556 33.7233C59.4018 33.7926 59.4557 33.8619 59.5481 33.9775C59.5481 32.6911 59.5481 31.4817 59.5481 30.2415C59.941 30.2415 60.3261 30.2415 60.7344 30.2415C60.7344 32.2058 60.7344 34.1855 60.7344 36.2113C60.4032 36.2113 60.0488 36.2267 59.6945 36.2036C59.6175 36.1959 59.5327 36.0804 59.4788 36.0034C58.6854 34.8171 57.8997 33.6231 57.114 32.4369C57.0986 32.4215 57.0755 32.3984 57.0601 32.383C57.0524 32.4369 57.0524 32.4985 57.0447 32.5601Z" fill="white"/>
<path d="M71.0103 11.4542C71.0103 12.3169 71.0103 13.1719 71.0103 14.0501C70.602 14.0501 70.2169 14.0501 69.8086 14.0501C69.8086 12.0781 69.8086 10.0984 69.8086 8.12647C70.3709 8.12647 70.9409 8.11877 71.511 8.12647C71.8807 8.13417 72.2659 8.14188 72.6279 8.2112C73.3289 8.34986 74.0144 9.05853 73.9374 9.78261C73.9066 10.1292 73.8989 10.4913 73.7833 10.8148C73.5831 11.354 73.0978 11.6005 72.5355 11.7623C73.0362 12.5172 73.5368 13.2644 74.0683 14.0655C73.56 14.0655 73.1055 14.0886 72.6587 14.0501C72.5586 14.0424 72.4507 13.8421 72.3737 13.7111C71.95 12.9717 71.5264 12.2322 71.1027 11.485C71.0873 11.4619 71.0719 11.4311 71.0565 11.4079C71.0411 11.3925 71.0257 11.3848 71.0103 11.3694C71.0103 11.4002 71.0103 11.4234 71.0103 11.4542ZM71.018 11.0459C71.4493 10.9689 71.8499 10.9304 72.2196 10.8148C72.5586 10.707 72.7588 10.4528 72.7434 9.89046C72.728 9.51301 72.5278 9.25111 72.1349 9.17408C71.7729 9.10475 71.4031 9.09705 71.018 9.06624C71.018 9.72869 71.018 10.3372 71.018 11.0459Z" fill="white"/>
<path d="M104.31 20.9286C103.887 20.9286 103.471 20.944 103.047 20.9286C102.955 20.9286 102.847 20.8746 102.785 20.813C102.292 20.2969 101.691 20.1506 101.013 20.2969C100.235 20.4664 99.7963 20.9979 99.5806 21.7374C99.3418 22.5616 99.8656 23.4012 100.451 23.771C101.167 24.2332 102.107 24.1022 102.747 23.5091C102.816 23.4474 102.924 23.4089 103.016 23.4089C103.44 23.4012 103.856 23.4012 104.326 23.4012C104.118 23.8711 103.848 24.264 103.463 24.5721C102.854 25.0651 102.146 25.2422 101.368 25.2345C100.112 25.2191 99.2263 24.6106 98.6331 23.5553C97.886 22.2381 98.3019 20.7514 99.3418 19.8039C100.22 19.0028 101.252 18.9027 102.361 19.1415C103.332 19.3495 103.925 20.0042 104.341 20.8515C104.326 20.8824 104.318 20.9055 104.31 20.9286Z" fill="white"/>
<path d="M103.409 14.0731C104.203 12.1012 104.981 10.1754 105.774 8.24966C105.805 8.16492 105.982 8.08019 106.082 8.0879C106.375 8.12641 106.799 7.87991 106.937 8.21885C107.738 10.1369 108.485 12.0858 109.263 14.0654C108.84 14.0654 108.439 14.1116 108.062 14.0423C107.915 14.0115 107.815 13.7111 107.723 13.5185C107.615 13.2951 107.546 13.0486 107.461 12.8175C106.745 12.8175 106.051 12.8098 105.358 12.8252C105.273 12.8252 105.158 12.9177 105.119 12.9947C104.988 13.2797 104.888 13.5878 104.757 13.8728C104.719 13.9576 104.588 14.05 104.495 14.0577C104.149 14.0885 103.802 14.0731 103.409 14.0731ZM107.037 11.6621C106.806 11.0613 106.583 10.4835 106.336 9.82107C106.074 10.4912 105.843 11.0767 105.612 11.6621C106.074 11.6621 106.544 11.6621 107.037 11.6621Z" fill="white"/>
<path d="M85.6611 14.0729C85.2606 14.0729 84.9062 14.0806 84.5519 14.0652C84.4672 14.0652 84.3516 14.0035 84.3131 13.9342C84.1822 13.6492 84.0743 13.3642 83.9742 13.0715C83.9126 12.8866 83.8201 12.8173 83.6121 12.8173C83.0883 12.8327 82.5645 12.825 82.033 12.825C81.5477 12.825 81.5323 12.8404 81.386 13.2949C81.3089 13.5491 81.2088 13.8033 81.1164 14.0652C80.6927 14.0652 80.2844 14.0652 79.8223 14.0652C80.6311 12.0624 81.4322 10.0827 82.2256 8.10305C83.2655 8.01061 83.2655 8.01061 83.6353 8.93497C84.1745 10.3061 84.7214 11.6695 85.2606 13.0407C85.3992 13.3719 85.5225 13.7031 85.6611 14.0729ZM83.4427 11.6695C83.2116 11.0456 82.9882 10.4525 82.7494 9.7977C82.4952 10.4679 82.2641 11.061 82.0253 11.6695C82.5106 11.6695 82.9497 11.6695 83.4427 11.6695Z" fill="white"/>
<path d="M104.318 25.127C104.38 24.8805 104.418 24.6263 104.511 24.3952C105.173 22.739 105.859 21.0983 106.521 19.4421C106.598 19.2496 106.683 19.1571 106.906 19.1802C107.168 19.2033 107.43 19.1879 107.715 19.1879C108.501 21.1599 109.279 23.1242 110.072 25.1115C109.618 25.1115 109.202 25.1115 108.755 25.1115C108.624 24.7803 108.493 24.4183 108.331 24.0716C108.293 23.9792 108.139 23.8945 108.039 23.8945C107.538 23.8791 107.03 23.8868 106.521 23.8868C105.936 23.8868 105.936 23.8868 105.759 24.4337C105.535 25.1192 105.535 25.1192 104.842 25.1192C104.665 25.1192 104.488 25.1192 104.303 25.1192L104.318 25.127ZM106.413 22.7775C106.829 22.7775 107.184 22.7698 107.538 22.7775C107.784 22.7852 107.915 22.7313 107.754 22.4694C107.731 22.4232 107.723 22.3693 107.707 22.3231C107.523 21.8609 107.345 21.3987 107.137 20.8903C106.891 21.5528 106.66 22.1459 106.413 22.7775Z" fill="white"/>
<path d="M75.5166 30.2339C75.9248 30.2339 76.31 30.2339 76.7259 30.2339C76.7259 30.6267 76.7259 31.0119 76.7259 31.397C76.7259 32.2444 76.7182 33.0994 76.7336 33.9467C76.7414 34.1932 76.7799 34.4474 76.8646 34.6785C76.9724 34.9789 77.2189 35.1099 77.5579 35.0791C77.8429 35.0483 78.0663 34.9789 78.1202 34.6631C78.1741 34.3704 78.2588 34.0777 78.2665 33.785C78.2819 32.6064 78.2742 31.4356 78.2742 30.2416C78.6825 30.2416 79.0754 30.2416 79.4913 30.2416C79.499 30.3263 79.5067 30.4111 79.5067 30.5035C79.5067 31.7437 79.5221 32.9839 79.499 34.224C79.4913 34.7401 79.4528 35.2716 79.06 35.703C78.2665 36.5889 76.3331 36.6505 75.6629 35.2639C75.5474 35.0251 75.5243 34.7247 75.5243 34.4551C75.5089 33.0609 75.5166 31.6666 75.5166 30.2339Z" fill="white"/>
<path d="M84.1973 30.2261C85.2988 30.2261 86.3926 30.2261 87.5019 30.2261C87.5019 30.5727 87.5019 30.9116 87.5019 31.2814C86.8086 31.2814 86.1076 31.2814 85.3912 31.2814C85.3912 31.7359 85.3912 32.1595 85.3912 32.614C86.0845 32.614 86.7855 32.614 87.5019 32.614C87.5019 32.976 87.5019 33.3073 87.5019 33.6693C86.8086 33.6693 86.1076 33.6693 85.3912 33.6693C85.3912 34.1623 85.3912 34.6322 85.3912 35.1252C86.0845 35.1252 86.7855 35.1252 87.5019 35.1252C87.5019 35.4872 87.5019 35.8339 87.5019 36.1882C86.408 36.1882 85.3142 36.1882 84.1973 36.1882C84.1973 34.2162 84.1973 32.2366 84.1973 30.2261Z" fill="white"/>
<path d="M65.4414 8.08789C66.5506 8.08789 67.6445 8.08789 68.7537 8.08789C68.7537 8.43453 68.7537 8.77346 68.7537 9.1432C68.0604 9.1432 67.3595 9.1432 66.6431 9.1432C66.6431 9.59768 66.6431 10.0213 66.6431 10.4758C67.3363 10.4758 68.0373 10.4758 68.7537 10.4758C68.7537 10.8379 68.7537 11.1691 68.7537 11.5311C68.0681 11.5311 67.3749 11.5311 66.6508 11.5311C66.6508 12.0318 66.6508 12.5094 66.6508 13.0024C67.344 13.0024 68.0296 13.0024 68.746 13.0024C68.746 13.3567 68.746 13.7034 68.746 14.0577C67.6599 14.0577 66.5583 14.0577 65.4414 14.0577C65.4414 12.078 65.4414 10.0984 65.4414 8.08789Z" fill="white"/>
<path d="M60.4648 25.1268C60.4648 23.1394 60.4648 21.1674 60.4648 19.1724C61.5664 19.1724 62.6679 19.1724 63.7771 19.1724C63.7771 19.5113 63.7771 19.8502 63.7771 20.2277C63.0685 20.2277 62.3675 20.2277 61.6588 20.2277C61.6588 20.6899 61.6588 21.1135 61.6588 21.568C62.3675 21.568 63.0685 21.568 63.7771 21.568C63.7771 21.9146 63.7771 22.2382 63.7771 22.5925C63.0762 22.5925 62.3752 22.5925 61.6588 22.5925C61.6588 23.0855 61.6588 23.5554 61.6588 24.0561C62.3521 24.0561 63.0531 24.0561 63.7694 24.0561C63.7694 24.4258 63.7694 24.7724 63.7694 25.1268C62.6756 25.1268 61.5741 25.1268 60.4648 25.1268Z" fill="white"/>
<path d="M65.0404 31.8513C64.6861 31.8513 64.3472 31.8513 64.0005 31.8513C63.9697 31.7897 63.9389 31.7127 63.9158 31.6356C63.8157 31.2967 63.6462 31.1503 63.3227 31.158C62.9221 31.158 62.7757 31.3583 62.6679 31.7127C62.5755 31.99 62.7603 32.2056 62.9914 32.3212C63.2996 32.4675 63.6231 32.5831 63.9543 32.6755C64.7862 32.8989 65.156 33.3842 65.1791 34.2469C65.2022 34.9864 65.025 35.6258 64.3703 36.0263C63.2379 36.7273 61.7821 36.2959 61.4508 34.8786C61.4123 34.7322 61.3892 34.5782 61.3584 34.401C61.7513 34.401 62.1133 34.401 62.4522 34.401C62.5293 34.5936 62.5678 34.7938 62.6756 34.9556C62.8913 35.2637 63.1917 35.3331 63.5538 35.2098C63.8696 35.102 63.9928 34.8709 64.0236 34.5782C64.0622 34.2469 63.9081 33.985 63.6077 33.8464C63.2379 33.6769 62.8451 33.5691 62.483 33.3996C61.8052 33.0761 61.4971 32.5215 61.5664 31.7589C61.6357 31.0194 62.044 30.3569 62.7603 30.2106C63.9235 29.9718 65.0096 30.303 65.0404 31.8513Z" fill="white"/>
<path d="M85.0762 8.0957C86.2778 8.0957 87.4564 8.0957 88.6427 8.0957C88.6427 8.45004 88.6427 8.78897 88.6427 9.15101C88.2729 9.15101 87.9109 9.15101 87.518 9.15101C87.518 10.7995 87.518 12.4171 87.518 14.0578C87.0944 14.0578 86.7015 14.0578 86.2778 14.0578C86.2778 12.4248 86.2778 10.8072 86.2778 9.15872C85.8619 9.15872 85.4767 9.15872 85.0762 9.15872C85.0762 8.79668 85.0762 8.45774 85.0762 8.0957Z" fill="white"/>
<path d="M65.5029 30.2339C66.6892 30.2339 67.8446 30.2339 69.0078 30.2339C69.0078 30.5882 69.0078 30.9272 69.0078 31.2892C68.6303 31.2892 68.2683 31.2892 67.8755 31.2892C67.8755 32.9376 67.8755 34.5553 67.8755 36.196C67.4595 36.196 67.0743 36.196 66.6661 36.196C66.6661 34.5707 66.6661 32.9453 66.6661 31.2969C66.2655 31.2969 65.8881 31.2969 65.5029 31.2969C65.5029 30.9272 65.5029 30.5882 65.5029 30.2339Z" fill="white"/>
<path d="M64.8475 8.10303C64.8475 8.45737 64.8475 8.78859 64.8475 9.15064C64.4778 9.15064 64.1157 9.15064 63.7306 9.15064C63.7306 10.7991 63.7306 12.4167 63.7306 14.0574C63.3146 14.0574 62.9218 14.0574 62.4981 14.0574C62.4981 12.4398 62.4981 10.8145 62.4981 9.16604C62.0976 9.16604 61.7278 9.16604 61.335 9.16604C61.335 8.7963 61.335 8.45737 61.335 8.10303C62.4981 8.10303 63.6613 8.10303 64.8475 8.10303Z" fill="white"/>
<path d="M83.5967 30.2417C83.5967 30.596 83.5967 30.9273 83.5967 31.2816C83.2269 31.2816 82.8649 31.2816 82.4643 31.2816C82.4643 32.93 82.4643 34.5477 82.4643 36.1884C82.033 36.1884 81.6401 36.1884 81.2241 36.1884C81.2241 34.5554 81.2241 32.9454 81.2241 31.3047C80.839 31.3047 80.4769 31.3047 80.0918 31.3047C80.0918 30.9427 80.0918 30.6037 80.0918 30.2417C81.2472 30.2417 82.4104 30.2417 83.5967 30.2417Z" fill="white"/>
<path d="M73.7679 31.2893C73.7679 31.6128 73.7679 31.9055 73.7679 32.1983C73.7679 33.4307 73.7602 34.6555 73.7756 35.888C73.7756 36.1268 73.714 36.2346 73.4598 36.2192C73.1748 36.2038 72.8898 36.2115 72.5817 36.2115C72.5817 34.5785 72.5817 32.9609 72.5817 31.3124C72.1734 31.3124 71.7883 31.3124 71.3877 31.3124C71.3877 30.9427 71.3877 30.6037 71.3877 30.2417C72.5431 30.2417 73.6986 30.2417 74.8849 30.2417C74.8849 30.5729 74.8849 30.9196 74.8849 31.2893C74.5151 31.2893 74.1531 31.2893 73.7679 31.2893Z" fill="white"/>
<path d="M110.704 13.002C111.374 13.002 111.99 13.002 112.622 13.002C112.622 13.3564 112.622 13.703 112.622 14.0573C111.59 14.0573 110.557 14.0573 109.51 14.0573C109.51 12.07 109.51 10.0903 109.51 8.09521C109.91 8.09521 110.295 8.09521 110.704 8.09521C110.704 9.72055 110.704 11.3459 110.704 13.002Z" fill="white"/>
<path d="M79.0673 19.1953C79.4601 19.1953 79.8376 19.1953 80.2458 19.1953C80.2458 20.8129 80.2458 22.4306 80.2458 24.0713C80.9006 24.0713 81.5168 24.0713 82.1408 24.0713C82.1408 24.4333 82.1408 24.7723 82.1408 25.1266C81.1163 25.1266 80.0995 25.1266 79.0596 25.1266C79.0673 23.1624 79.0673 21.1904 79.0673 19.1953Z" fill="white"/>
<path d="M113.454 24.0637C113.454 24.4412 113.454 24.7647 113.454 25.1036C112.43 25.1036 111.405 25.1036 110.357 25.1036C110.357 23.1471 110.357 21.1905 110.357 19.2031C110.727 19.2031 111.105 19.2031 111.536 19.2031C111.536 20.8131 111.536 22.423 111.536 24.056C112.198 24.0637 112.815 24.0637 113.454 24.0637Z" fill="white"/>
<path d="M89.2432 8.08789C89.6437 8.08789 90.0289 8.08789 90.4371 8.08789C90.4371 10.0753 90.4371 12.0472 90.4371 14.05C90.0443 14.05 89.6514 14.05 89.2432 14.05C89.2432 12.078 89.2432 10.0984 89.2432 8.08789Z" fill="white"/>
<path d="M54.8033 36.2038C54.4028 36.2038 54.0176 36.2038 53.6094 36.2038C53.6094 34.2164 53.6094 32.2445 53.6094 30.2417C54.0022 30.2417 54.3951 30.2417 54.8033 30.2417C54.8033 32.2137 54.8033 34.1933 54.8033 36.2038Z" fill="white"/>
<path d="M69.6162 30.2261C70.0245 30.2261 70.4173 30.2261 70.8179 30.2261C70.8179 32.2134 70.8179 34.1854 70.8179 36.1805C70.4173 36.1805 70.0245 36.1805 69.6162 36.1805C69.6162 34.2008 69.6162 32.2289 69.6162 30.2261Z" fill="white"/>
<path d="M97.493 19.2031C97.493 21.1751 97.493 23.1317 97.493 25.1036C97.0924 25.1036 96.715 25.1036 96.3145 25.1036C96.3145 23.1394 96.3145 21.1828 96.3145 19.2031C96.6919 19.2031 97.077 19.2031 97.493 19.2031Z" fill="white"/>
<path d="M53.6318 8.15723C54.0324 8.15723 54.4175 8.15723 54.8181 8.15723C54.8181 10.1292 54.8181 12.0858 54.8181 14.0577C54.4175 14.0577 54.0324 14.0577 53.6318 14.0577C53.6318 12.1012 53.6318 10.1446 53.6318 8.15723Z" fill="white"/>
<path d="M57.0449 32.5604C57.0526 32.4987 57.0526 32.4371 57.0603 32.3755C57.0757 32.3909 57.0988 32.414 57.1143 32.4294C57.0911 32.4756 57.068 32.5218 57.0449 32.5604Z" fill="white"/>
<path d="M104.319 25.1193C104.303 25.1273 104.295 25.1433 104.279 25.1513C104.279 25.1353 104.279 25.1273 104.287 25.1113C104.303 25.1193 104.311 25.1273 104.327 25.1273C104.319 25.1273 104.319 25.1193 104.319 25.1193Z" fill="white"/>
<path d="M71.0569 11.4077C71.0723 11.4308 71.0877 11.4616 71.1031 11.4847C71.0723 11.477 71.0414 11.4616 71.0106 11.4539L71.0029 11.4462C71.026 11.4385 71.0414 11.4231 71.0569 11.4077Z" fill="white"/>
<path d="M104.311 20.9294C104.318 20.9061 104.326 20.8827 104.342 20.8594C104.349 20.8827 104.357 20.9061 104.365 20.9216C104.342 20.9294 104.326 20.9294 104.311 20.9294Z" fill="white"/>
<path d="M75.9629 10.2757C75.9707 10.2602 75.9862 10.2524 75.994 10.2368C76.0096 10.2524 76.0251 10.2679 76.0329 10.2835C76.0096 10.2835 75.9862 10.2757 75.9629 10.2757Z" fill="white"/>
<path d="M57.0449 10.2686C57.0449 10.2606 57.0529 10.2526 57.0529 10.2446C57.0609 10.2526 57.0769 10.2606 57.0849 10.2686C57.0769 10.2766 57.0689 10.2846 57.0609 10.2926C57.0609 10.2766 57.0529 10.2686 57.0449 10.2686Z" fill="white"/>
<path d="M71.0029 11.4548C71.0029 11.4314 71.0029 11.4003 71.0107 11.377C71.0263 11.3925 71.0418 11.4003 71.0574 11.4159C71.0418 11.4236 71.0263 11.4392 71.0029 11.4548Z" fill="white"/>
</g>
<defs>
<clipPath id="clip0_1045_1001">
<rect width="109.876" height="43.5835" fill="white" transform="translate(3.57812 0.384766)"/>
</clipPath>
</defs>
</svg>
