<svg width="56" height="15" viewBox="0 0 56 15" fill="none" xmlns="http://www.w3.org/2000/svg">
<path d="M14.7143 5.6734H20.3835V6.73112H18.1544V12.6771H16.9286V6.73112H14.7094V5.6734H14.7143ZM20.1413 7.60597H21.1891V8.58461H21.2089C21.2435 8.44621 21.3077 8.31276 21.4017 8.18425C21.4956 8.05574 21.6092 7.93218 21.7427 7.82838C21.8762 7.71965 22.0244 7.63562 22.1875 7.56642C22.3506 7.50217 22.5187 7.46757 22.6867 7.46757C22.8152 7.46757 22.9092 7.47252 22.9586 7.47746C23.008 7.4824 23.0574 7.49229 23.1118 7.49723V8.57472C23.0327 8.55989 22.9536 8.55001 22.8696 8.54012C22.7856 8.53024 22.7065 8.52529 22.6274 8.52529C22.4396 8.52529 22.2617 8.56484 22.0936 8.63897C21.9256 8.71311 21.7822 8.82679 21.6587 8.97013C21.5351 9.11841 21.4363 9.29634 21.3621 9.51382C21.288 9.73129 21.2534 9.97842 21.2534 10.2602V12.6722H20.1363V7.60597H20.1413ZM28.2472 12.6771H27.1499V11.9703H27.1302C26.9918 12.2273 26.7891 12.43 26.5173 12.5832C26.2454 12.7364 25.9686 12.8155 25.6869 12.8155C25.0197 12.8155 24.5353 12.6524 24.2387 12.3212C23.9422 11.9901 23.7939 11.4909 23.7939 10.8236V7.60597H24.9109V10.7149C24.9109 11.1597 24.9949 11.476 25.1679 11.6589C25.336 11.8418 25.5782 11.9357 25.8846 11.9357C26.1219 11.9357 26.3146 11.9011 26.4728 11.827C26.631 11.7528 26.7595 11.6589 26.8534 11.5354C26.9522 11.4167 27.0214 11.2684 27.0659 11.1004C27.1104 10.9324 27.1302 10.7495 27.1302 10.5518V7.61091H28.2472V12.6771ZM30.1501 11.051C30.1847 11.3772 30.3083 11.6045 30.5208 11.738C30.7383 11.8665 30.9953 11.9357 31.2968 11.9357C31.4006 11.9357 31.5192 11.9258 31.6527 11.911C31.7861 11.8962 31.9146 11.8616 32.0283 11.8171C32.1469 11.7726 32.2408 11.7034 32.3199 11.6144C32.3941 11.5255 32.4286 11.4118 32.4237 11.2684C32.4188 11.1251 32.3644 11.0065 32.2655 10.9175C32.1667 10.8236 32.0431 10.7544 31.8899 10.6951C31.7367 10.6407 31.5637 10.5913 31.366 10.5518C31.1683 10.5122 30.9706 10.4677 30.7679 10.4233C30.5603 10.3788 30.3577 10.3195 30.1649 10.2552C29.9722 10.191 29.7992 10.102 29.646 9.98831C29.4927 9.87957 29.3692 9.73624 29.2802 9.56324C29.1863 9.39025 29.1418 9.17772 29.1418 8.9207C29.1418 8.64392 29.211 8.41656 29.3445 8.22874C29.4779 8.04092 29.6509 7.89264 29.8535 7.77896C30.0611 7.66528 30.2885 7.5862 30.5406 7.53677C30.7926 7.49229 31.0348 7.46757 31.2622 7.46757C31.5241 7.46757 31.7762 7.49723 32.0135 7.5516C32.2507 7.60597 32.4682 7.69493 32.661 7.82344C32.8537 7.94701 33.0119 8.11011 33.1404 8.30782C33.2689 8.50552 33.348 8.74771 33.3826 9.02944H32.2161C32.1617 8.76254 32.0431 8.57966 31.8504 8.4907C31.6576 8.39679 31.4352 8.3523 31.188 8.3523C31.109 8.3523 31.0151 8.35724 30.9063 8.37207C30.7976 8.3869 30.6987 8.41161 30.5999 8.44621C30.506 8.48081 30.4269 8.53518 30.3577 8.60438C30.2934 8.67357 30.2588 8.76254 30.2588 8.87622C30.2588 9.01461 30.3083 9.12335 30.4022 9.20738C30.4961 9.2914 30.6196 9.3606 30.7729 9.41991C30.9261 9.47428 31.0991 9.5237 31.2968 9.56324C31.4945 9.60279 31.6971 9.64727 31.9047 9.69175C32.1074 9.73624 32.3051 9.79555 32.5028 9.8598C32.7005 9.92406 32.8735 10.013 33.0267 10.1267C33.1799 10.2404 33.3035 10.3788 33.3974 10.5468C33.4913 10.7149 33.5407 10.9274 33.5407 11.1745C33.5407 11.476 33.4715 11.7281 33.3331 11.9406C33.1948 12.1482 33.0168 12.3212 32.7993 12.4497C32.5819 12.5782 32.3347 12.6771 32.0678 12.7364C31.8009 12.7957 31.534 12.8254 31.2721 12.8254C30.9508 12.8254 30.6542 12.7908 30.3824 12.7166C30.1106 12.6425 29.8733 12.5338 29.6756 12.3904C29.4779 12.2421 29.3197 12.0593 29.2061 11.8418C29.0924 11.6243 29.0331 11.3624 29.0232 11.0609H30.1501V11.051ZM33.8373 7.60597H34.6825V6.08364H35.7995V7.60597H36.8078V8.44127H35.7995V11.1498C35.7995 11.2684 35.8045 11.3673 35.8143 11.4563C35.8242 11.5403 35.8489 11.6144 35.8835 11.6737C35.9181 11.7331 35.9725 11.7775 36.0466 11.8072C36.1208 11.8369 36.2147 11.8517 36.3432 11.8517C36.4223 11.8517 36.5014 11.8517 36.5804 11.8467C36.6595 11.8418 36.7386 11.8319 36.8177 11.8121V12.6771C36.6941 12.6919 36.5706 12.7018 36.4569 12.7166C36.3383 12.7315 36.2196 12.7364 36.0961 12.7364C35.7995 12.7364 35.5623 12.7068 35.3843 12.6524C35.2064 12.598 35.0631 12.514 34.9642 12.4053C34.8604 12.2965 34.7962 12.1631 34.7566 12C34.722 11.8369 34.6973 11.649 34.6924 11.4414V8.45115H33.8472V7.60597H33.8373ZM37.5986 7.60597H38.6563V8.29299H38.6761C38.8343 7.99643 39.0518 7.78884 39.3335 7.66034C39.6152 7.53183 39.9167 7.46757 40.2479 7.46757C40.6482 7.46757 40.9942 7.53677 41.2908 7.68011C41.5873 7.8185 41.8345 8.01126 42.0322 8.25839C42.2299 8.50552 42.3732 8.7922 42.4721 9.11841C42.5709 9.44462 42.6203 9.79555 42.6203 10.1662C42.6203 10.5073 42.5758 10.8384 42.4869 11.1548C42.3979 11.476 42.2645 11.7578 42.0865 12.0049C41.9086 12.252 41.6812 12.4448 41.4044 12.5931C41.1277 12.7414 40.8064 12.8155 40.4308 12.8155C40.2676 12.8155 40.1045 12.8007 39.9414 12.771C39.7783 12.7414 39.6202 12.6919 39.4719 12.6277C39.3236 12.5634 39.1803 12.4794 39.0567 12.3756C38.9282 12.2718 38.8244 12.1532 38.7354 12.0197H38.7157V14.5504H37.5986V7.60597ZM41.5033 10.1465C41.5033 9.91911 41.4736 9.6967 41.4143 9.47922C41.355 9.26174 41.2661 9.07392 41.1474 8.90588C41.0288 8.73783 40.8805 8.60438 40.7075 8.50552C40.5296 8.40667 40.327 8.3523 40.0996 8.3523C39.63 8.3523 39.2742 8.51541 39.0369 8.84162C38.7997 9.16783 38.6811 9.60279 38.6811 10.1465C38.6811 10.4035 38.7107 10.6407 38.775 10.8582C38.8392 11.0757 38.9282 11.2635 39.0567 11.4217C39.1803 11.5798 39.3285 11.7034 39.5015 11.7924C39.6745 11.8863 39.8772 11.9308 40.1045 11.9308C40.3616 11.9308 40.5741 11.8764 40.752 11.7726C40.93 11.6688 41.0733 11.5304 41.187 11.3673C41.3007 11.1993 41.3847 11.0114 41.4341 10.7989C41.4786 10.5864 41.5033 10.3689 41.5033 10.1465ZM43.4754 5.6734H44.5924V6.73112H43.4754V5.6734ZM43.4754 7.60597H44.5924V12.6771H43.4754V7.60597ZM45.5909 5.6734H46.7079V12.6771H45.5909V5.6734ZM50.1331 12.8155C49.7278 12.8155 49.367 12.7463 49.0507 12.6128C48.7344 12.4794 48.4675 12.2916 48.245 12.0593C48.0276 11.822 47.8595 11.5403 47.7458 11.2141C47.6322 10.8879 47.5728 10.5271 47.5728 10.1366C47.5728 9.75106 47.6322 9.3952 47.7458 9.06898C47.8595 8.74277 48.0276 8.46104 48.245 8.22379C48.4625 7.98655 48.7344 7.80367 49.0507 7.67022C49.367 7.53677 49.7278 7.46757 50.1331 7.46757C50.5384 7.46757 50.8992 7.53677 51.2156 7.67022C51.5319 7.80367 51.7988 7.99149 52.0212 8.22379C52.2387 8.46104 52.4067 8.74277 52.5204 9.06898C52.6341 9.3952 52.6934 9.75106 52.6934 10.1366C52.6934 10.5271 52.6341 10.8879 52.5204 11.2141C52.4067 11.5403 52.2387 11.822 52.0212 12.0593C51.8037 12.2965 51.5319 12.4794 51.2156 12.6128C50.8992 12.7463 50.5384 12.8155 50.1331 12.8155ZM50.1331 11.9308C50.3802 11.9308 50.5977 11.8764 50.7806 11.7726C50.9635 11.6688 51.1118 11.5304 51.2304 11.3624C51.349 11.1943 51.433 11.0015 51.4923 10.789C51.5467 10.5765 51.5764 10.359 51.5764 10.1366C51.5764 9.91911 51.5467 9.70658 51.4923 9.48911C51.438 9.27163 51.349 9.08381 51.2304 8.91576C51.1118 8.74771 50.9635 8.61426 50.7806 8.51047C50.5977 8.40667 50.3802 8.3523 50.1331 8.3523C49.886 8.3523 49.6685 8.40667 49.4856 8.51047C49.3028 8.61426 49.1545 8.75265 49.0359 8.91576C48.9172 9.08381 48.8332 9.27163 48.7739 9.48911C48.7195 9.70658 48.6899 9.91911 48.6899 10.1366C48.6899 10.359 48.7195 10.5765 48.7739 10.789C48.8283 11.0015 48.9172 11.1943 49.0359 11.3624C49.1545 11.5304 49.3028 11.6688 49.4856 11.7726C49.6685 11.8813 49.886 11.9308 50.1331 11.9308ZM53.0196 7.60597H53.8648V6.08364H54.9818V7.60597H55.9901V8.44127H54.9818V11.1498C54.9818 11.2684 54.9868 11.3673 54.9967 11.4563C55.0065 11.5403 55.0313 11.6144 55.0659 11.6737C55.1005 11.7331 55.1548 11.7775 55.229 11.8072C55.3031 11.8369 55.397 11.8517 55.5255 11.8517C55.6046 11.8517 55.6837 11.8517 55.7628 11.8467C55.8418 11.8418 55.9209 11.8319 56 11.8121V12.6771C55.8764 12.6919 55.7529 12.7018 55.6392 12.7166C55.5206 12.7315 55.402 12.7364 55.2784 12.7364C54.9818 12.7364 54.7446 12.7068 54.5666 12.6524C54.3887 12.598 54.2454 12.514 54.1465 12.4053C54.0427 12.2965 53.9785 12.1631 53.9389 12C53.9043 11.8369 53.8796 11.649 53.8747 11.4414V8.45115H53.0295V7.60597H53.0196Z" fill="white"/>
<path d="M13.4093 5.67341H8.28878L6.70714 0.799988L5.12056 5.67341L0 5.66847L4.14686 8.68347L2.56028 13.552L6.70714 10.5419L10.8491 13.552L9.26742 8.68347L13.4093 5.67341Z" fill="#00B67A"/>
<path d="M9.62336 9.78568L9.26749 8.68347L6.70721 10.5419L9.62336 9.78568Z" fill="#005128"/>
</svg>
