<svg width="63" height="52" viewBox="0 0 63 52" fill="none" xmlns="http://www.w3.org/2000/svg">
<path d="M15.2825 1.06104L1.29102 14.5022L31.737 50.7505L62.183 14.5022L48.1915 1.06104H15.2825Z" fill="url(#paint0_angular_1045_1364)" stroke="black"/>
<path d="M17.4113 3.35718L5.22998 15.0497L31.737 46.5823L58.244 15.0497L46.0627 3.35718H17.4113Z" stroke="black"/>
<circle cx="31.7369" cy="33.8536" r="1.25745" fill="black"/>
<circle cx="28.4845" cy="33.8536" r="0.690041" fill="black"/>
<circle cx="34.9898" cy="33.8536" r="0.690041" fill="black"/>
<path d="M36.8564 16.0088C37.1951 16.0216 37.6488 16.0344 38.2177 16.0472C38.8002 16.06 39.3758 16.0665 39.9447 16.0665C40.5949 16.0665 41.2247 16.06 41.8343 16.0472C42.4438 16.0344 42.8772 16.028 43.1346 16.028C45.0173 16.028 46.426 16.3804 47.3606 17.0852C48.2953 17.79 48.7626 18.6998 48.7626 19.8146C48.7626 20.276 48.6677 20.7629 48.4781 21.2755C48.2885 21.7752 47.9634 22.2429 47.5029 22.6786C47.0559 23.1015 46.4396 23.4475 45.654 23.7166C44.8684 23.9857 43.8796 24.1202 42.6876 24.1202H40.6152V23.7358H42.4844C43.2836 23.7358 43.8863 23.5628 44.2927 23.2168C44.7126 22.8708 44.997 22.4159 45.146 21.8521C45.3086 21.2883 45.3898 20.6796 45.3898 20.0261C45.3898 18.8087 45.2002 17.8989 44.8209 17.2966C44.4417 16.6944 43.7915 16.3932 42.8705 16.3932C42.3422 16.3932 41.9968 16.5021 41.8343 16.72C41.6853 16.9378 41.6108 17.3799 41.6108 18.0463V27.4648C41.6108 27.9645 41.6649 28.3361 41.7733 28.5796C41.8817 28.8231 42.0916 28.9833 42.4031 29.0602C42.7147 29.137 43.1752 29.1819 43.7847 29.1947V29.6176C43.3648 29.6048 42.823 29.592 42.1593 29.5791C41.4956 29.5663 40.7981 29.5599 40.0666 29.5599C39.4842 29.5599 38.9153 29.5663 38.3599 29.5791C37.8046 29.592 37.3034 29.6048 36.8564 29.6176V29.2332C37.2899 29.2075 37.615 29.1563 37.8317 29.0794C38.0484 29.0025 38.1906 28.8487 38.2584 28.6181C38.3396 28.3874 38.3803 28.0414 38.3803 27.5801V18.0463C38.3803 17.5721 38.3396 17.2261 38.2584 17.0083C38.1906 16.7776 38.0416 16.6239 37.8114 16.547C37.5947 16.4573 37.2763 16.406 36.8564 16.3932V16.0088Z" fill="black"/>
<path d="M35.4954 16.0088V16.3932C35.062 16.406 34.7301 16.4573 34.4999 16.547C34.2831 16.6239 34.1409 16.7776 34.0732 17.0083C34.0055 17.2261 33.9716 17.5721 33.9716 18.0463V27.5801C33.9716 28.0414 34.0055 28.3874 34.0732 28.6181C34.1545 28.8487 34.3035 29.0025 34.5202 29.0794C34.7369 29.1563 35.062 29.2075 35.4954 29.2332V29.6176C35.1297 29.592 34.6692 29.5791 34.1138 29.5791C33.5585 29.5663 32.9964 29.5599 32.4275 29.5599C31.7638 29.5599 31.1475 29.5663 30.5786 29.5791C30.0232 29.5791 29.5695 29.592 29.2173 29.6176V29.2332C29.6507 29.2075 29.9758 29.1563 30.1925 29.0794C30.4093 29.0025 30.5515 28.8487 30.6192 28.6181C30.7005 28.3874 30.7411 28.0414 30.7411 27.5801V18.0463C30.7411 17.5721 30.7005 17.2261 30.6192 17.0083C30.5515 16.7776 30.4025 16.6239 30.1722 16.547C29.9555 16.4573 29.6372 16.406 29.2173 16.3932V16.0088C29.5695 16.0216 30.0232 16.0344 30.5786 16.0472C31.1475 16.06 31.7638 16.0665 32.4275 16.0665C32.9964 16.0665 33.5585 16.06 34.1138 16.0472C34.6692 16.0344 35.1297 16.0216 35.4954 16.0088Z" fill="black"/>
<path d="M28.7306 16.0088V16.3932C28.4326 16.4957 28.1143 16.72 27.7756 17.066C27.4506 17.412 27.1458 17.9502 26.8614 18.6806L22.5743 29.656C22.466 29.6432 22.3508 29.6368 22.2289 29.6368C22.107 29.6368 21.9851 29.6368 21.8632 29.6368C21.7549 29.6368 21.6397 29.6368 21.5178 29.6368C21.3959 29.6368 21.2808 29.6432 21.1724 29.656L15.9914 17.6234C15.8018 17.1621 15.5919 16.8481 15.3616 16.6815C15.1313 16.5021 14.9146 16.406 14.7114 16.3932V16.0088C15.1178 16.0216 15.5919 16.0344 16.1337 16.0472C16.689 16.06 17.2444 16.0665 17.7997 16.0665C18.4228 16.0665 19.0052 16.06 19.547 16.0472C20.1024 16.0344 20.5493 16.0216 20.888 16.0088V16.3932C20.2243 16.4188 19.7908 16.5278 19.5877 16.72C19.3845 16.8994 19.4251 17.3287 19.7096 18.0078L23.4074 26.9074L22.9807 27.3879L25.7845 20.2375C26.1502 19.2764 26.3399 18.5204 26.3534 17.9694C26.367 17.4184 26.2247 17.0211 25.9267 16.7776C25.6287 16.5342 25.2021 16.406 24.6467 16.3932V16.0088C25.1073 16.0216 25.5407 16.0344 25.9471 16.0472C26.3534 16.06 26.7665 16.0665 27.1864 16.0665C27.4844 16.0665 27.7621 16.06 28.0195 16.0472C28.2904 16.0344 28.5274 16.0216 28.7306 16.0088Z" fill="black"/>
<path fill-rule="evenodd" clip-rule="evenodd" d="M32.3564 5.22925L32.0259 7.07022L32.0225 7.06671C31.853 7.83492 31.4146 8.47787 30.8311 8.85213C31.062 9.00867 31.2139 9.2733 31.2139 9.57338C31.2139 10.0542 30.8242 10.444 30.3433 10.444C29.8623 10.444 29.4727 10.0542 29.4727 9.57338C29.4727 9.48703 29.4849 9.40364 29.5083 9.32489C29.521 9.28267 29.5366 9.24179 29.5552 9.20251C28.3787 9.15058 27.7342 8.13496 27.2703 7.40402L27.27 7.40355L27.2046 7.30093L26.3257 7.17065L28.1997 11.144V12.936C28.1997 13.3845 30.061 13.7481 32.3569 13.7481C34.6523 13.7481 36.5137 13.3845 36.5137 12.936V11.1413L38.3872 7.16943L37.5083 7.29971L37.4429 7.40234L37.4426 7.40279C36.9787 8.13373 36.3342 9.14936 35.1577 9.20129C35.2109 9.31381 35.2402 9.43951 35.2402 9.57216C35.2402 10.053 34.8506 10.4428 34.3696 10.4428C33.8887 10.4428 33.499 10.053 33.499 9.57216C33.499 9.27208 33.6509 9.00745 33.8818 8.85091C33.2983 8.47664 32.8599 7.8336 32.6904 7.06531L32.687 7.069L32.3564 5.22925ZM32.3568 13.1569C34.2398 13.1569 35.7663 12.9149 35.7663 12.6162C35.7663 12.3176 34.2398 12.0755 32.3568 12.0755C30.4738 12.0755 28.9473 12.3176 28.9473 12.6162C28.9473 12.9149 30.4738 13.1569 32.3568 13.1569Z" fill="black"/>
<defs>
<radialGradient id="paint0_angular_1045_1364" cx="0" cy="0" r="1" gradientUnits="userSpaceOnUse" gradientTransform="translate(31.737 19.5823) rotate(5.53874) scale(37.5575 39.4484)">
<stop stop-color="#EEE3AC"/>
<stop stop-color="#EEE3AC"/>
<stop offset="0.165" stop-color="#AB862D"/>
<stop offset="0.295" stop-color="#EEE3AC"/>
<stop offset="0.415" stop-color="#AB862D"/>
<stop offset="0.5" stop-color="#EEE3AC"/>
<stop offset="0.62" stop-color="#AB862D"/>
<stop offset="0.775" stop-color="#EEE3AC"/>
<stop offset="0.89" stop-color="#AB862D"/>
<stop offset="1" stop-color="#EEE3AC"/>
</radialGradient>
</defs>
</svg>
