<?xml version="1.0" encoding="utf-8"?>
<!-- Generator: Adobe Illustrator 20.1.0, SVG Export Plug-In . SVG Version: 6.00 Build 0)  -->
<!DOCTYPE svg PUBLIC "-//W3C//DTD SVG 1.1//EN" "http://www.w3.org/Graphics/SVG/1.1/DTD/svg11.dtd">
<svg version="1.1" id="Layer_1" xmlns="http://www.w3.org/2000/svg" xmlns:xlink="http://www.w3.org/1999/xlink" x="0px" y="0px"
	 viewBox="0 0 24 24" style="enable-background:new 0 0 24 24;" xml:space="preserve">
<style type="text/css">
	.st0{fill:#1D1D1B;}
</style>
<g>
	<g>
		<path class="st0" d="M12,6.1c-3.3,0-5.9,2.7-5.9,5.9s2.7,5.9,5.9,5.9s5.9-2.7,5.9-5.9S15.3,6.1,12,6.1z M12,16.2
			c-2.3,0-4.2-1.9-4.2-4.2S9.7,7.8,12,7.8s4.2,1.9,4.2,4.2S14.3,16.2,12,16.2z M12,4.4c0.5,0,0.8-0.4,0.8-0.8V1.8
			C12.8,1.4,12.5,1,12,1s-0.8,0.4-0.8,0.8v1.7C11.2,4,11.5,4.4,12,4.4z M12,19.6c-0.5,0-0.8,0.4-0.8,0.8v1.7c0,0.5,0.4,0.8,0.8,0.8
			s0.8-0.4,0.8-0.8v-1.7C12.8,20,12.5,19.6,12,19.6z M18.6,6.6l1.2-1.2c0.3-0.3,0.3-0.9,0-1.2c-0.3-0.3-0.9-0.3-1.2,0l-1.2,1.2
			c-0.3,0.3-0.3,0.9,0,1.2C17.7,6.9,18.3,6.9,18.6,6.6z M5.4,17.4l-1.2,1.2c-0.3,0.3-0.3,0.9,0,1.2c0.3,0.3,0.9,0.3,1.2,0l1.2-1.2
			c0.3-0.3,0.3-0.9,0-1.2C6.3,17.1,5.7,17.1,5.4,17.4z M4.4,12c0-0.5-0.4-0.8-0.8-0.8H1.8C1.4,11.2,1,11.5,1,12s0.4,0.8,0.8,0.8h1.7
			C4,12.8,4.4,12.5,4.4,12z M22.2,11.2h-1.7c-0.5,0-0.8,0.4-0.8,0.8s0.4,0.8,0.8,0.8h1.7c0.5,0,0.8-0.4,0.8-0.8S22.6,11.2,22.2,11.2
			z M5.4,6.6c0.3,0.3,0.9,0.3,1.2,0c0.3-0.3,0.3-0.9,0-1.2L5.4,4.2c-0.3-0.3-0.9-0.3-1.2,0c-0.3,0.3-0.3,0.9,0,1.2L5.4,6.6z
			 M18.6,17.4c-0.3-0.3-0.9-0.3-1.2,0c-0.3,0.3-0.3,0.9,0,1.2l1.2,1.2c0.3,0.3,0.9,0.3,1.2,0c0.3-0.3,0.3-0.9,0-1.2L18.6,17.4z"/>
	</g>
</g>
</svg>
