<?xml version="1.0" encoding="utf-8"?>
<!-- Generator: Adobe Illustrator 21.1.0, SVG Export Plug-In . SVG Version: 6.00 Build 0)  -->
<svg version="1.1" id="Layer_1" xmlns="http://www.w3.org/2000/svg" xmlns:xlink="http://www.w3.org/1999/xlink" x="0px" y="0px"
	 viewBox="0 0 24 24" style="enable-background:new 0 0 24 24;" xml:space="preserve">
<style type="text/css">
	.st0{fill:#1D1D1B;}
</style>
<path class="st0" d="M16.9,15.6c-3.5,0-6.3-2.9-6.3-6.3c0-2.7,1.6-4.9,4.1-5.8c-0.7-0.1-1.5-0.3-2.3-0.3c-4.9,0-8.8,4.1-8.8,8.8
	s4.1,8.8,8.8,8.8c4.2,0,7.7-2.9,8.6-6.6C19.8,15,18.5,15.6,16.9,15.6z M12.3,18.3c-3.6,0-6.4-2.9-6.4-6.4c0-2.1,1-3.9,2.5-5.1
	C8.2,7.5,8.1,8.4,8.1,9.2c0,4.2,2.9,7.7,6.8,8.6C14,18.1,13.2,18.3,12.3,18.3z"/>
</svg>
