<?xml version="1.0" encoding="utf-8"?>
<!-- Generator: Adobe Illustrator 20.1.0, SVG Export Plug-In . SVG Version: 6.00 Build 0)  -->
<!DOCTYPE svg PUBLIC "-//W3C//DTD SVG 1.1//EN" "http://www.w3.org/Graphics/SVG/1.1/DTD/svg11.dtd">
<svg version="1.1" id="Layer_1" xmlns="http://www.w3.org/2000/svg" xmlns:xlink="http://www.w3.org/1999/xlink" x="0px" y="0px"
	 viewBox="0 0 24 24" style="enable-background:new 0 0 24 24;" xml:space="preserve">
<style type="text/css">
	.st0{fill:#1D1D1B;}
</style>
<path class="st0" d="M12,7.5c0.5,0,0.8-0.4,0.8-0.9V4.9C12.8,4.4,12.5,4,12,4s-0.8,0.4-0.8,0.9v1.8C11.2,7.1,11.5,7.5,12,7.5z"/>
<path class="st0" d="M18.6,9.8l1.2-1.2c0.3-0.3,0.3-0.9,0-1.2c-0.3-0.3-0.9-0.3-1.2,0l-1.2,1.2c-0.3,0.3-0.3,0.9,0,1.2
	C17.7,10.2,18.3,10.2,18.6,9.8z"/>
<path class="st0" d="M4.4,15.4c0-0.5-0.4-0.9-0.8-0.9H1.8c-0.5,0-0.8,0.4-0.8,0.9s0.4,0.9,0.8,0.9h1.7C4,16.3,4.4,15.9,4.4,15.4z"/>
<path class="st0" d="M22.2,14.5h-1.7c-0.5,0-0.8,0.4-0.8,0.9s0.4,0.9,0.8,0.9h1.7c0.5,0,0.8-0.4,0.8-0.9S22.6,14.5,22.2,14.5z"/>
<path class="st0" d="M5.4,9.8c0.3,0.3,0.9,0.3,1.2,0s0.3-0.9,0-1.2L5.4,7.3C5.1,7,4.6,7,4.2,7.3c-0.3,0.3-0.3,0.9,0,1.2L5.4,9.8z"/>
<path class="st0" d="M7.9,16c-0.1,0-0.1-0.4-0.1-0.7c0-2.4,1.9-4.3,4.2-4.3s4.2,1.9,4.2,4.3c0,0.3,0,0.8-0.1,0.8h1.7
	c0,0,0.1-0.4,0.1-0.7c0-3.4-2.7-6.1-5.9-6.1s-5.9,2.6-5.9,6c0,0.3,0,0.8,0.1,0.8h1.7V16z"/>
<rect x="5.4" y="17.2" class="st0" width="13.2" height="1.8"/>
<polygon class="st0" points="14.8,13.9 12.1,16.9 9.3,13.9 "/>
</svg>
