<?xml version="1.0" encoding="iso-8859-1"?>
<svg width="25" height="25" version="1.1" id="Capa_1" xmlns="http://www.w3.org/2000/svg" xmlns:xlink="http://www.w3.org/1999/xlink" x="0px" y="0px"
	 viewBox="0 0 495.566 495.566" style="enable-background:new 0 0 495.566 495.566;" xml:space="preserve">
<path fill="#FFFFFF" id="XMLID_6_" d="M449.427,247.8c0-9.153,7.422-16.574,16.574-16.574l29.565-0.009c-2.203-33.222-10.887-64.605-24.862-92.988
	l-25.648,14.809c-2.604,1.514-5.461,2.226-8.27,2.226c-5.73,0-11.297-2.97-14.365-8.287c-4.582-7.923-1.87-18.064,6.061-22.636
	l25.842-14.923c-18.065-26.91-41.234-50.088-68.144-68.159L371.264,67.1c-3.067,5.316-8.642,8.287-14.372,8.287
	c-2.809,0-5.656-0.713-8.27-2.218c-7.925-4.58-10.643-14.712-6.07-22.644l14.801-25.655C328.971,10.885,297.588,2.202,264.357,0
	v29.547c0,9.153-7.422,16.575-16.574,16.575c-9.155,0-16.575-7.421-16.575-16.575V0c-33.23,2.202-64.598,10.885-92.988,24.87
	l14.793,25.631c4.572,7.931,1.853,18.063-6.07,22.645c-2.613,1.505-5.464,2.217-8.27,2.217c-5.73,0-11.308-2.97-14.375-8.287
	L109.393,41.25c-26.909,18.063-50.081,41.25-68.15,68.159l25.825,14.907c7.93,4.581,10.643,14.722,6.068,22.645
	c-3.075,5.317-8.642,8.287-14.372,8.287c-2.809,0-5.666-0.712-8.27-2.217l-25.63-14.802C10.884,166.619,2.2,197.995,0,231.217
	l29.53,0.009c9.154,0,16.574,7.421,16.574,16.574c0,9.153-7.42,16.575-16.574,16.575l-29.523-0.009
	c2.192,33.222,10.877,64.598,24.862,92.98l25.606-14.777c7.93-4.581,18.055-1.861,22.645,6.069
	c4.572,7.931,1.853,18.063-6.07,22.645l-25.8,14.891c18.072,26.91,41.249,50.08,68.158,68.144l14.892-25.792
	c4.58-7.924,14.712-10.667,22.645-6.07c7.93,4.581,10.643,14.721,6.07,22.645l-14.786,25.605
	c28.382,13.978,59.758,22.661,92.98,24.862V466.02c0-9.154,7.42-16.575,16.575-16.575c9.152,0,16.574,7.421,16.574,16.575v29.547
	c33.231-2.201,64.599-10.885,92.988-24.87l-14.803-25.622c-4.58-7.923-1.867-18.063,6.063-22.636
	c7.922-4.605,18.063-1.861,22.637,6.062l14.914,25.825c26.909-18.064,50.088-41.242,68.15-68.152l-25.825-14.907
	c-7.923-4.581-10.643-14.713-6.068-22.645c4.572-7.922,14.695-10.659,22.642-6.069l25.64,14.802
	c13.983-28.391,22.667-59.758,24.862-92.989l-29.557,0.009C456.849,264.375,449.427,256.953,449.427,247.8z M394.192,264.358
	H269.828c-5.033,6.684-13.033,11.006-22.044,11.006c-15.233,0-27.582-12.349-27.582-27.581c0-11.183,6.659-20.803,16.224-25.133
	l44.043-196.72c2.008-8.934,10.943-14.502,19.797-12.56c8.935,2.007,14.56,10.868,12.559,19.803L268.77,229.897
	c0.365,0.427,0.72,0.862,1.058,1.312h124.363c9.155,0,16.575,7.421,16.575,16.574C410.767,256.937,403.347,264.358,394.192,264.358z
	"/>

</svg>
