<svg width="47" height="61" viewBox="0 0 47 61" fill="none" xmlns="http://www.w3.org/2000/svg">
<path d="M33.3169 52.432L33.3169 34.2112M33.3169 52.432L23.6599 58.2627M33.3169 52.432L28.4561 49.2572M14.0029 52.432L14.0029 34.2112M14.0029 52.432L23.6599 58.2627M14.0029 52.432L18.6249 49.2572M14.0029 34.2112L23.6599 28.3805M14.0029 34.2112L18.6249 38.6013M33.3169 34.2112L23.6599 28.3805M33.3169 34.2112L28.4561 38.6013M23.6599 58.2627L23.6599 52.432M23.6599 28.3805L23.6599 35.109M28.4561 49.2572L28.4561 38.6013M28.4561 49.2572L23.6599 52.432M28.4561 38.6013L23.6599 35.109M23.6599 35.109L18.6249 38.6013M18.6249 38.6013L18.6249 49.2572M18.6249 49.2572L23.6599 52.432" stroke="#58BFEB" stroke-width="3.2"/>
<path d="M2.0083 1.0249C3.46295 7.62609 9.82945 22.3389 23.6583 28.3807" stroke="#58BFEB" stroke-width="3.2"/>
<path d="M45.3091 1.0249C43.8544 7.62609 37.4879 22.3389 23.6591 28.3807" stroke="#58BFEB" stroke-width="3.2"/>
</svg>
