<svg width="70" height="68" viewBox="0 0 70 68" fill="none" xmlns="http://www.w3.org/2000/svg">
<path d="M23.6637 41.7928C15.7922 46.625 9.1135 48.3992 6.77807 45.7414C3.39466 41.8909 10.4084 30.1964 22.4436 19.621C34.4789 9.04553 46.9782 3.59385 50.3616 7.4443C52.697 10.1021 50.0787 16.4972 44.2745 23.682" stroke="#58BFEB" stroke-width="3.2"/>
<path d="M45.0249 12.1326C43.2731 10.139 34.4854 14.9968 25.3969 22.9829C16.3085 30.9689 10.361 39.059 12.1129 41.0527" stroke="#58BFEB" stroke-width="3.2"/>
<path d="M6.82764 45.7964L14.594 54.6348C16.904 57.2636 23.4631 55.5565 31.2227 50.843M50.4112 7.49929L58.1775 16.3377C60.4875 18.9665 57.9511 25.2517 52.279 32.3408" stroke="#58BFEB" stroke-width="3.2"/>
<path d="M24.4271 30.33L33.0568 22.8845M24.4271 30.33L23.7965 41.9282M24.4271 30.33L30.2688 33.5438L35.4359 29.0035L33.0568 22.8845M33.0568 22.8845L44.6306 23.9531M44.6306 23.9531L52.3685 32.9099M44.6306 23.9531C43.8878 24.6058 42.4409 28.0073 41.8103 29.6264L46.0111 34.4071L52.3685 32.9099M52.3685 32.9099L51.738 44.5081M51.738 44.5081L43.1082 51.9536M51.738 44.5081L46.0664 41.1014L40.8993 45.6418L43.1082 51.9536M43.1082 51.9536L31.5345 50.885M31.5345 50.885L23.7965 41.9282M31.5345 50.885L34.0798 44.8912L29.879 40.1106L23.7965 41.9282" stroke="#58BFEB" stroke-width="3.2"/>
<path d="M30.1505 33.3016L35.163 28.977L41.8855 29.5977L46.38 34.8001L46.0137 41.5368L41.0012 45.8614L34.2788 45.2407L29.7842 40.0383L30.1505 33.3016Z" stroke="#58BFEB" stroke-width="3.2"/>
</svg>
