<svg width="44" height="59" viewBox="0 0 44 59" fill="none" xmlns="http://www.w3.org/2000/svg">
<path d="M13.9293 47.6392L20.9888 43.3768L13.9293 25.7945L6.86976 43.3768L13.9293 47.6392Z" stroke="#58BFEB" stroke-width="3.2"/>
<path d="M13.9288 15.8428V6.25463C13.9288 3.83286 11.9656 1.86963 9.54381 1.86963V1.86963C7.12204 1.86963 5.15881 3.83286 5.15881 6.25463V11.3174L2.1333 14.8504" stroke="#58BFEB" stroke-width="3.2"/>
<circle cx="13.9293" cy="19.3551" r="3.32686" stroke="#58BFEB" stroke-width="3.2"/>
<path d="M34.4742 56.4028L41.5337 52.1405L34.4742 34.5582L27.4147 52.1405L34.4742 56.4028Z" stroke="#58BFEB" stroke-width="3.2"/>
<path d="M34.4737 24.6065V15.0183C34.4737 12.5965 32.5105 10.6333 30.0887 10.6333V10.6333C27.667 10.6333 25.7037 12.5965 25.7037 15.0183V20.081L22.6782 23.614" stroke="#58BFEB" stroke-width="3.2"/>
<circle cx="34.4742" cy="28.1188" r="3.32686" stroke="#58BFEB" stroke-width="3.2"/>
</svg>
