<svg width="56" height="68" viewBox="0 0 56 68" fill="none" xmlns="http://www.w3.org/2000/svg">
<path d="M15.0787 2.18311L2.32227 18.1208M15.0787 2.18311H40.5915M15.0787 2.18311V13.7458M40.5915 2.18311L53.3479 18.1208M40.5915 2.18311V13.7458M2.32227 18.1208V49.9963M2.32227 18.1208L15.0787 13.7458M2.32227 49.9963L15.0787 65.9341M2.32227 49.9963L15.0787 54.3714M15.0787 65.9341H40.5915M15.0787 65.9341V54.3714M40.5915 65.9341L53.3479 49.9963M40.5915 65.9341V54.3714M53.3479 18.1208V49.9963M53.3479 18.1208L40.5915 13.7458M53.3479 49.9963L40.5915 54.3714M40.5915 13.7458V54.3714M40.5915 13.7458H15.0787M15.0787 13.7458V54.3714M15.0787 54.3714H40.5915" stroke="#58BFEB" stroke-width="4"/>
</svg>
