<svg width="55" height="73" viewBox="0 0 55 73" fill="none" xmlns="http://www.w3.org/2000/svg">
<path d="M17.0525 59.6865L25.8867 54.3526L17.0525 32.3503L8.21833 54.3526L17.0525 59.6865Z" stroke="#58BFEB" stroke-width="4"/>
<path d="M17.0518 19.897V7.89848C17.0518 4.8679 14.595 2.41113 11.5645 2.41113V2.41113C8.53388 2.41113 6.07711 4.8679 6.07711 7.89848V14.2339L2.29102 18.6551" stroke="#58BFEB" stroke-width="4"/>
<circle cx="17.0521" cy="24.2924" r="4.16542" stroke="#58BFEB" stroke-width="4"/>
<path d="M42.7625 70.6538L51.5967 65.3199L42.7625 43.3176L33.9283 65.3199L42.7625 70.6538Z" stroke="#58BFEB" stroke-width="4"/>
<path d="M42.7618 30.8643V18.8658C42.7618 15.8352 40.305 13.3784 37.2744 13.3784V13.3784C34.2438 13.3784 31.7871 15.8352 31.7871 18.8658V25.2012L28.001 29.6224" stroke="#58BFEB" stroke-width="4"/>
<circle cx="42.7621" cy="35.2592" r="4.16542" stroke="#58BFEB" stroke-width="4"/>
</svg>
