<svg width="58" height="74" viewBox="0 0 58 74" fill="none" xmlns="http://www.w3.org/2000/svg">
<path d="M40.8711 63.9442L40.8711 41.6476M40.8711 63.9442L29.054 71.0791M40.8711 63.9442L34.923 60.0593M17.2369 63.9442L17.2369 41.6476M17.2369 63.9442L29.054 71.0791M17.2369 63.9442L22.8927 60.0593M17.2369 41.6476L29.054 34.5127M17.2369 41.6476L22.8927 47.0197M40.8711 41.6476L29.054 34.5127M40.8711 41.6476L34.923 47.0197M29.054 71.0791L29.054 63.9442M29.054 34.5127L29.054 42.7463M34.923 60.0593L34.923 47.0197M34.923 60.0593L29.054 63.9442M34.923 47.0197L29.054 42.7463M29.054 42.7463L22.8927 47.0197M22.8927 47.0197L22.8927 60.0593M22.8927 60.0593L29.054 63.9442" stroke="#58BFEB" stroke-width="4"/>
<path d="M2.55957 1.03809C4.3396 9.11585 12.1302 27.1197 29.0523 34.5129" stroke="#58BFEB" stroke-width="4"/>
<path d="M55.5459 1.03809C53.7659 9.11585 45.9753 27.1197 29.0531 34.5129" stroke="#58BFEB" stroke-width="4"/>
</svg>
