<svg width="80" height="94" viewBox="0 0 80 94" fill="none" xmlns="http://www.w3.org/2000/svg">
<path d="M42.8004 32.6571L25.4623 43.7273M42.8004 32.6571L59.3799 41.7908M42.8004 32.6571L41.6008 42.5353M60.6889 60.6743L43.3508 71.7444M60.6889 60.6743L59.3799 41.7908M60.6889 60.6743L51.447 57.9565M43.3508 71.7444L26.7714 62.6108M43.3508 71.7444L44.0149 62.7018M25.4623 43.7273L26.7714 62.6108M25.4623 43.7273L34.1687 47.2806M59.3799 41.7908L50.5706 47.4183M26.7714 62.6108L34.4081 57.7378M41.6008 42.5353L34.1687 47.2806M41.6008 42.5353L50.5706 47.4183M34.1687 47.2806L34.4081 57.7378M34.4081 57.7378L44.0149 62.7018M44.0149 62.7018L51.447 57.9565M51.447 57.9565L50.5706 47.4183" stroke="#58BFEB" stroke-width="4"/>
<path d="M23.1832 20.3554L33.7871 36.9634" stroke="#58BFEB" stroke-width="4" stroke-linecap="round"/>
<path d="M52.5631 66.3402L63.167 82.9482" stroke="#58BFEB" stroke-width="4" stroke-linecap="round"/>
<circle cx="20.2706" cy="15.7932" r="4.58334" transform="rotate(-122.558 20.2706 15.7932)" stroke="#58BFEB" stroke-width="4"/>
</svg>
