<svg width="76" height="73" viewBox="0 0 76 73" fill="none" xmlns="http://www.w3.org/2000/svg">
<path d="M30.552 52.96C20.8162 58.5002 12.2776 60.0816 8.90002 56.2378C4.00679 50.6691 11.7986 35.8224 26.3036 23.0769C40.8085 10.3313 56.5339 4.51324 61.4271 10.0819C64.8047 13.9257 65.8977 15.9247 59.1516 24.8673" stroke="#58BFEB" stroke-width="4"/>
<path d="M48.7858 26.805L52.4772 23.6201L57.4279 24.0773L60.7378 27.9086L60.4681 32.8697L56.7767 36.0546L51.826 35.5974L48.516 31.7661L48.7858 26.805Z" stroke="#58BFEB" stroke-width="4"/>
<path d="M28.5472 43.4517L33.9139 38.8216L41.1113 39.4861L45.9233 45.0561L45.5312 52.2688L40.1646 56.8989L32.9672 56.2344L28.1551 50.6644L28.5472 43.4517Z" stroke="#58BFEB" stroke-width="4"/>
</svg>
