<svg width="70" height="48" viewBox="0 0 70 48" fill="none" xmlns="http://www.w3.org/2000/svg">
<g opacity="0.4">
<mask id="mask0_1045_3143" style="mask-type:luminance" maskUnits="userSpaceOnUse" x="0" y="12" width="22" height="6">
<path d="M0.507812 12.1157H21.1302V17.9831H0.507812V12.1157Z" fill="white"/>
</mask>
<g mask="url(#mask0_1045_3143)">
<path fill-rule="evenodd" clip-rule="evenodd" d="M0.507812 17.6656C1.84901 16.6301 3.19336 15.5986 4.53027 14.5577C5.36702 13.9061 6.17011 13.2095 7.03464 12.597C7.38389 12.3496 7.85536 12.1416 8.27283 12.1382C12.3624 12.1047 16.4522 12.1175 20.5417 12.1213C20.6944 12.1215 20.8469 12.1664 21.1302 12.2112C20.9974 12.5443 20.926 12.8423 20.7719 13.09C19.9336 14.4367 19.0679 15.7669 18.2293 17.1134C18.0644 17.3781 17.9772 17.6898 17.8543 17.9797C12.0721 17.9808 6.29006 17.982 0.507812 17.9831V17.6656Z" fill="#070707"/>
</g>
<mask id="mask1_1045_3143" style="mask-type:luminance" maskUnits="userSpaceOnUse" x="0" y="17" width="21" height="7">
<path d="M0.507812 17.98H20.6804V23.6822H0.507812V17.98Z" fill="white"/>
</mask>
<g mask="url(#mask1_1045_3143)">
<path fill-rule="evenodd" clip-rule="evenodd" d="M0.507812 17.9833C6.29006 17.9822 12.0721 17.9811 17.8543 17.98C18.6437 19.5311 19.4341 21.0821 20.2218 22.6342C20.3605 22.9074 20.4882 23.1862 20.6804 23.586C20.2722 23.6248 19.9952 23.6737 19.7183 23.6739C15.4995 23.6788 11.2803 23.6991 7.0622 23.6496C6.54037 23.6433 5.90648 23.3802 5.52402 23.0257C3.81257 21.4395 2.17318 19.7769 0.507812 18.142V17.9833Z" fill="#070707"/>
</g>
<mask id="mask2_1045_3143" style="mask-type:luminance" maskUnits="userSpaceOnUse" x="26" y="42" width="7" height="6">
<path d="M26.0195 42.0933H32.0079V47.9751H26.0195V42.0933Z" fill="white"/>
</mask>
<g mask="url(#mask2_1045_3143)">
<path fill-rule="evenodd" clip-rule="evenodd" d="M28.4513 47.9751C28.3241 47.893 28.2057 47.7912 28.0686 47.7316C26.5557 47.0753 25.9002 46.0949 26.0373 44.6795C26.1523 43.4921 27.1433 42.5269 28.611 42.2059C29.811 41.9434 30.9263 42.1256 32.0079 42.9006C31.7323 43.1544 31.5073 43.3613 31.316 43.5375C31.2202 43.5285 31.1902 43.5339 31.1685 43.5227C30.4219 43.1368 29.6312 42.712 28.8559 43.3357C28.0074 44.0183 28.1658 45.0163 28.3411 45.9183C28.5383 46.934 29.567 47.3427 30.6331 46.7833C31.2846 46.4416 31.5995 46.642 31.9756 47.2215C31.4881 47.4773 31.0135 47.7262 30.5391 47.9751H28.4513Z" fill="#070707"/>
</g>
<path fill-rule="evenodd" clip-rule="evenodd" d="M21.9209 19.4668H48.3341C47.6051 20.4258 46.9337 21.3287 46.2416 22.2158C44.3392 24.6536 42.4267 27.0836 40.5207 29.5187C38.9573 31.5163 37.4042 33.522 35.8323 35.5131C35.249 36.252 35.0672 36.2287 34.4724 35.4667C30.6677 30.5919 26.8617 25.7179 23.0536 20.8454C22.7299 20.4313 22.3865 20.0322 21.9209 19.4668Z" fill="#070707"/>
<path fill-rule="evenodd" clip-rule="evenodd" d="M21.2363 17.7548C22.0471 16.404 22.8172 15.1189 23.5898 13.8354C23.7669 13.5412 23.9743 13.2629 24.1295 12.9582C24.4455 12.3376 24.9753 12.1135 25.6356 12.1133C32.0542 12.1119 38.4731 12.1124 44.8919 12.1124C45.6241 12.1124 46.1195 12.3999 46.4694 13.0883C47.0791 14.2879 47.7955 15.4346 48.4594 16.6076C48.6519 16.948 48.8181 17.303 49.0495 17.7548H21.2363Z" fill="#070707"/>
<path fill-rule="evenodd" clip-rule="evenodd" d="M52.4185 18.0215C51.8422 16.992 51.2799 15.9547 50.6856 14.9352C50.1748 14.0591 49.6275 13.2032 48.9985 12.1796C49.4976 12.1501 49.7756 12.12 50.0537 12.1195C53.928 12.1166 57.8027 12.0961 61.6765 12.1409C62.2499 12.1476 62.9244 12.33 63.3726 12.6655C65.3669 14.1584 67.3002 15.7308 69.2414 17.2918C69.4519 17.4612 69.5694 17.7438 69.73 17.9737C64.1179 17.9693 58.5057 17.9643 52.8936 17.9628C52.7352 17.9628 52.5769 18.0012 52.4185 18.0215Z" fill="#070707"/>
<path fill-rule="evenodd" clip-rule="evenodd" d="M52.4181 18.0216C52.5765 18.0013 52.7348 17.9629 52.8932 17.9629C58.5053 17.9645 64.1175 17.9694 69.7296 17.9738C69.6088 18.1683 69.5202 18.3942 69.3621 18.5522C67.8203 20.0926 66.2866 21.642 64.7001 23.1365C64.387 23.4314 63.8595 23.6504 63.4289 23.6542C59.0708 23.6917 54.7122 23.6778 50.3536 23.6738C50.1765 23.6736 49.9994 23.6258 49.7041 23.5829C49.8261 23.2628 49.8988 22.9956 50.0242 22.755C50.7087 21.4414 51.4108 20.1362 52.0958 18.8225C52.2284 18.5683 52.3119 18.2892 52.4181 18.0216Z" fill="#070707"/>
<path fill-rule="evenodd" clip-rule="evenodd" d="M7.93513 25.1456C8.16556 25.1333 8.39598 25.1105 8.6264 25.1103C12.6389 25.1081 16.6517 25.1217 20.6639 25.0963C21.3408 25.092 21.7465 25.3009 22.0481 25.9117C22.7115 27.255 23.4408 28.5669 24.2136 30.0248C23.7828 30.0562 23.5058 30.0933 23.2289 30.0937C20.2596 30.098 17.2903 30.0855 14.321 30.1049C13.6695 30.1091 13.1474 29.9449 12.6527 29.5027C11.225 28.2267 9.75999 26.9912 8.30471 25.7449C8.14523 25.6083 7.95479 25.5068 7.77881 25.3891C7.83099 25.3079 7.88295 25.2268 7.93513 25.1456Z" fill="#070707"/>
<path fill-rule="evenodd" clip-rule="evenodd" d="M46.1768 29.9823C46.3961 29.5316 46.5757 29.1342 46.7797 28.7494C47.3002 27.7668 47.7958 26.7685 48.3789 25.8232C48.5709 25.5118 48.9983 25.1437 49.3218 25.1404C53.6799 25.0955 58.039 25.1102 62.5289 25.1102C62.3664 25.3259 62.288 25.4768 62.1683 25.5814C60.6048 26.9462 59.0479 28.3188 57.4564 29.6514C57.1742 29.8878 56.7446 30.072 56.3809 30.0756C53.1443 30.1077 49.9071 30.0948 46.6701 30.0901C46.5468 30.0899 46.4237 30.0378 46.1768 29.9823Z" fill="#070707"/>
<path fill-rule="evenodd" clip-rule="evenodd" d="M25.0789 5.75879C25.0428 6.00411 25.059 6.12308 25.0091 6.20032C24.1179 7.5767 23.2335 8.958 22.3055 10.3101C22.1681 10.5103 21.8184 10.6744 21.5659 10.6759C17.6089 10.6978 13.652 10.6909 9.69483 10.6864C9.60063 10.6862 9.5062 10.6384 9.27148 10.5746C10.279 9.68213 11.193 8.86224 12.119 8.05574C12.7186 7.53407 13.3793 7.07401 13.9323 6.50948C14.4781 5.95232 15.0675 5.73401 15.851 5.7445C18.6045 5.78133 21.3585 5.75879 24.1125 5.75879H25.0789Z" fill="#070707"/>
<path fill-rule="evenodd" clip-rule="evenodd" d="M45.3447 5.75893H46.9974C49.5133 5.75893 52.0299 5.7317 54.5447 5.78125C55.0654 5.79152 55.6884 5.95738 56.0786 6.27435C57.6852 7.5802 59.2207 8.97109 60.7797 10.3341C60.8519 10.3973 60.896 10.4921 61.0132 10.656C60.7812 10.6725 60.6348 10.6917 60.4885 10.6919C56.6612 10.6935 52.8337 10.6997 49.0064 10.6807C48.6924 10.6792 48.2223 10.5986 48.0913 10.3908C47.177 8.94051 46.3331 7.44693 45.3447 5.75893Z" fill="#070707"/>
<path fill-rule="evenodd" clip-rule="evenodd" d="M27.2842 35.9162H26.1C24.0929 35.9162 22.0843 35.9551 20.0794 35.889C19.5766 35.8722 18.9827 35.6307 18.6081 35.2977C17.5152 34.3269 16.5102 33.259 15.4755 32.2246C15.3149 32.0641 15.1793 31.8793 14.915 31.5676C15.342 31.54 15.5957 31.5098 15.8492 31.5094C18.5521 31.506 21.2555 31.525 23.958 31.4953C24.6642 31.4875 25.1088 31.7174 25.4194 32.3503C25.9737 33.4806 26.5837 34.5847 27.2842 35.9162Z" fill="#070707"/>
<path fill-rule="evenodd" clip-rule="evenodd" d="M43.144 35.803C43.276 35.4846 43.3792 35.1737 43.5285 34.8857C44.0027 33.9708 44.4577 33.0424 44.9987 32.1664C45.1792 31.8745 45.5935 31.5432 45.9055 31.5387C48.9498 31.4941 51.9952 31.5144 55.0402 31.5218C55.107 31.522 55.1737 31.5894 55.4884 31.7591C55.0476 32.1044 54.6597 32.3698 54.3175 32.6839C53.3197 33.6 52.3553 34.5525 51.3423 35.4516C51.0846 35.6804 50.6969 35.8887 50.3653 35.8938C48.069 35.93 45.7713 35.9105 43.4743 35.905C43.4007 35.9047 43.3268 35.861 43.144 35.803Z" fill="#070707"/>
<path fill-rule="evenodd" clip-rule="evenodd" d="M52.3965 45.5731C52.8277 44.599 53.2203 43.8019 53.5328 42.975C53.7422 42.4206 54.0483 42.1842 54.6557 42.2598C55.096 42.315 55.549 42.2706 56.0399 42.2706V47.7522H54.0476V44.893C53.9848 44.8818 53.9218 44.8709 53.859 44.8597C53.5032 45.668 53.1259 46.4678 52.8002 47.2877C52.6362 47.7004 52.3926 47.8393 51.9553 47.8181C51.5401 47.798 51.2041 47.8033 50.9945 47.3256C50.5935 46.4127 50.1119 45.5343 49.5446 44.6639V47.7422H48.271V42.2752C49.0074 42.2752 49.7719 42.2409 50.5291 42.3C50.7114 42.3143 50.9184 42.6132 51.0293 42.8246C51.4775 43.68 51.8927 44.5521 52.3965 45.5731Z" fill="#070707"/>
<path fill-rule="evenodd" clip-rule="evenodd" d="M7.76722 47.7659H6.48047V42.2717C7.21037 42.2717 7.92468 42.2389 8.63221 42.2929C8.82784 42.3077 9.07182 42.5438 9.17686 42.7396C9.64878 43.6186 10.0784 44.5198 10.5937 45.5542C11.0071 44.6432 11.4126 43.876 11.7032 43.0686C11.9254 42.4503 12.2465 42.1702 12.9233 42.2601C13.3401 42.3155 13.7704 42.2704 14.2511 42.2704V47.7402H12.2812V44.8104C12.2259 44.793 12.1703 44.7758 12.1148 44.7586C11.775 45.5234 11.4325 46.2873 11.0961 47.0536C10.9181 47.4592 10.8138 47.8389 10.181 47.8369C9.55051 47.8346 9.29004 47.5735 9.06572 47.0672C8.70201 46.2466 8.28138 45.4506 7.76722 44.6488V47.7659Z" fill="#070707"/>
<path fill-rule="evenodd" clip-rule="evenodd" d="M42.0752 0.994779H44.2362C45.7339 0.994779 47.2335 0.954376 48.7285 1.01688C49.2531 1.03875 49.8517 1.19724 50.2688 1.49524C51.4258 2.32206 52.505 3.2549 53.7531 4.2565C53.4705 4.31118 53.3804 4.344 53.2902 4.344C50.5087 4.34668 47.7269 4.35471 44.9455 4.33328C44.6521 4.33105 44.2357 4.23953 44.0889 4.03818C43.4245 3.12811 42.8365 2.16357 42.0752 0.994779Z" fill="#070707"/>
<mask id="mask3_1045_3143" style="mask-type:luminance" maskUnits="userSpaceOnUse" x="16" y="0" width="13" height="5">
<path d="M16.8071 0.975098H28.2912V4.34224H16.8071V0.975098Z" fill="white"/>
</mask>
<g mask="url(#mask3_1045_3143)">
<path fill-rule="evenodd" clip-rule="evenodd" d="M28.2912 1.07161C27.5057 2.2145 26.8766 3.15382 26.2136 4.06925C26.1083 4.21479 25.8519 4.32908 25.6646 4.3302C22.7859 4.34649 19.9072 4.34158 16.8071 4.34158C17.1918 3.9909 17.4218 3.75764 17.6764 3.55428C18.3182 3.04154 18.995 2.5692 19.6138 2.03102C20.4512 1.30264 21.3494 0.913791 22.5132 0.98299C24.0578 1.07451 25.612 1.00308 27.1621 1.00777C27.4438 1.00866 27.7253 1.03857 28.2912 1.07161Z" fill="#070707"/>
</g>
<path fill-rule="evenodd" clip-rule="evenodd" d="M21.3769 47.808C20.7934 47.808 20.3402 47.7805 19.8918 47.8151C19.3831 47.8544 19.0327 47.7567 18.8716 47.1999C18.8231 47.0323 18.5023 46.8662 18.2872 46.837C17.8682 46.7801 17.4335 46.7957 17.0097 46.8318C16.8261 46.8477 16.522 46.9604 16.4965 47.0772C16.2713 48.1031 15.5192 47.7796 14.7744 47.7741C15.5414 45.9943 16.2728 44.2771 17.0321 42.5719C17.0958 42.4292 17.3418 42.2989 17.5142 42.2835C17.964 42.2435 18.423 42.2411 18.8719 42.2862C19.0363 42.3027 19.2638 42.463 19.3244 42.6123C20.007 44.2943 20.6626 45.987 21.3769 47.808ZM16.8909 45.8945C17.4663 45.8666 17.8894 45.8459 18.383 45.822C18.1476 45.1434 17.9554 44.5896 17.7634 44.0358C17.7053 44.036 17.6475 44.036 17.5896 44.0362C17.3753 44.6063 17.1609 45.1764 16.8909 45.8945Z" fill="#070707"/>
<path fill-rule="evenodd" clip-rule="evenodd" d="M47.8084 47.8071C47.1035 47.8071 46.5433 47.835 45.9889 47.7917C45.801 47.7769 45.5057 47.6131 45.468 47.4651C45.2999 46.8082 44.8409 46.7832 44.2992 46.8144C43.6454 46.8521 42.9254 46.6113 42.6474 47.5885C42.5902 47.7894 41.8172 47.7915 41.1792 47.9265C41.458 47.2417 41.645 46.7617 41.8474 46.2883C42.3455 45.1244 42.8705 43.9715 43.342 42.7973C43.5069 42.3866 43.7227 42.2147 44.1677 42.262C44.5106 42.2984 44.8664 42.2323 45.2053 42.2837C45.4038 42.3138 45.6867 42.4419 45.7508 42.5984C46.438 44.2771 47.0893 45.97 47.8084 47.8071ZM44.823 45.8378C44.5827 45.1463 44.3753 44.5489 44.1092 43.7822C43.8202 44.5639 43.5977 45.1659 43.3492 45.8378H44.823Z" fill="#070707"/>
<path fill-rule="evenodd" clip-rule="evenodd" d="M32.0425 47.7792C32.8264 45.9504 33.5513 44.2311 34.3151 42.5288C34.3797 42.3846 34.6991 42.2911 34.9063 42.2799C36.4528 42.1967 36.449 42.2065 36.9932 43.611C37.5234 44.9793 38.0633 46.3439 38.6371 47.8071C37.9289 47.8071 37.3447 47.8366 36.7668 47.7897C36.5854 47.775 36.3118 47.5841 36.2682 47.4241C36.1144 46.8589 35.7421 46.7736 35.2404 46.8144C34.8959 46.8426 34.5446 46.7964 34.2014 46.8319C34.0444 46.8482 33.7885 46.9593 33.7675 47.0647C33.5705 48.0422 32.8494 47.802 32.0425 47.7792ZM35.6579 45.8488C35.4168 45.1537 35.2112 44.5608 34.9345 43.7623C34.6449 44.5825 34.4325 45.1831 34.1974 45.8488H35.6579Z" fill="#070707"/>
<path fill-rule="evenodd" clip-rule="evenodd" d="M60.8028 47.7636V43.2816H59.2163C59.2694 42.4829 59.6078 42.2085 60.3513 42.255C61.364 42.3181 62.3839 42.2686 63.4007 42.2713C64.2149 42.2735 64.2149 42.2762 64.4322 43.2046C63.9325 43.2362 63.4434 43.2673 62.8561 43.3043V47.7636H60.8028Z" fill="#070707"/>
<path fill-rule="evenodd" clip-rule="evenodd" d="M21.9126 42.3052H23.8328C23.8328 43.5675 23.8637 44.7997 23.8197 46.029C23.7975 46.6484 23.9776 46.9031 24.6266 46.8326C25.0716 46.7841 25.5264 46.8232 25.997 46.8232C25.9531 47.6118 25.6018 47.8719 24.8618 47.8219C23.906 47.7576 22.9423 47.8063 21.9126 47.8063V42.3052Z" fill="#070707"/>
<path fill-rule="evenodd" clip-rule="evenodd" d="M56.939 47.7411H58.8698V42.3008H56.939V47.7411Z" fill="#070707"/>
<path fill-rule="evenodd" clip-rule="evenodd" d="M38.7529 45.4488H41.2218V44.3872H38.7529V45.4488Z" fill="#070707"/>
</g>
</svg>
