<svg fill="none" height="32" viewBox="0 0 32 32" width="32" xmlns="http://www.w3.org/2000/svg"><path d="m16 32c3.1645 0 6.2579-.9384 8.8891-2.6965s4.682-4.2569 5.893-7.1806c1.211-2.9236 1.5278-6.1406.9105-9.2443-.6174-3.10374-2.1413-5.95466-4.3789-8.1923s-5.0886-3.761494-8.1923-4.378857c-3.1037-.617364-6.3207-.30051035-9.24434.910487-2.92361 1.21101-5.42247 3.26177-7.18057 5.89295-1.758106 2.63119-2.69649 5.72462-2.69649 8.88912 0 4.2435 1.68571 8.3131 4.68629 11.3137s7.07021 4.6863 11.31371 4.6863z" fill="#0052ff"/><path d="m15.9624 27.2676c6.2229 0 11.2676-5.0446 11.2676-11.2676 0-6.2229-5.0447-11.26758-11.2676-11.26758-5.9036 0-10.74678 4.5402-11.22831 10.31938h16.72031v1.8763h-16.72198c.47193 5.7888 5.31948 10.3395 11.22998 10.3395z" fill="#fff"/></svg>