<svg width="32" height="32" viewBox="0 0 32 32" fill="none" xmlns="http://www.w3.org/2000/svg"><g clip-path="url(#clip0)" fill="#fff"><path fill-rule="evenodd" clip-rule="evenodd" d="M7.333 2H2v5.333h5.333V2zm2-2v9.333H0V0h9.333zM7.333 24.667H2V30h5.333v-5.333zm2-2V32H0v-9.333h9.333zM30 2h-5.333v5.333H30V2zm2-2v9.333h-9.333V0H32z"/><path d="M29.333 12v8h-6.666v2.667H32V12h-2.667zM22.667 25.333V32h2.666v-4h4v4H32v-6.667h-9.333zM12 0v2.667h5.333v6.666H20V0h-8z"/><path d="M17.333 12v5.333H12v8h5.333V32H20v-9.333h-5.333V20H20v-5.333h2.667v2.666h2.666V12h-8z"/><path d="M14.667 28H12v4h2.667v-4zM9.333 17.333h-4V20h4v-2.667z"/><path d="M12 5.333V12H0v8h2.667v-5.333h12V5.333H12z"/></g><defs><clipPath id="clip0"><path fill="#fff" d="M0 0h32v32H0z"/></clipPath></defs></svg>